<?xml version="1.0" encoding="UTF-8" standalone="no"?>
<!-- Created with Inkscape (http://www.inkscape.org/) -->

<svg
   xmlns:dc="http://purl.org/dc/elements/1.1/"
   xmlns:cc="http://creativecommons.org/ns#"
   xmlns:rdf="http://www.w3.org/1999/02/22-rdf-syntax-ns#"
   xmlns:svg="http://www.w3.org/2000/svg"
   xmlns="http://www.w3.org/2000/svg"
   xmlns:sodipodi="http://sodipodi.sourceforge.net/DTD/sodipodi-0.dtd"
   xmlns:inkscape="http://www.inkscape.org/namespaces/inkscape"
   version="1.1"
   id="svg2"
   xml:space="preserve"
   width="618.66669"
   height="349.33334"
   viewBox="0 0 618.66669 349.33334"
   sodipodi:docname="pokus.svg"
   inkscape:version="0.92.5 (2060ec1f9f, 2020-04-08)"><metadata
     id="metadata8"><rdf:RDF><cc:Work
         rdf:about=""><dc:format>image/svg+xml</dc:format><dc:type
           rdf:resource="http://purl.org/dc/dcmitype/StillImage" /><dc:title></dc:title></cc:Work></rdf:RDF></metadata><defs
     id="defs6"><clipPath
       clipPathUnits="userSpaceOnUse"
       id="clipPath24"><path
         d="m 334.801,319.102 h 4252.9 v 2245.9 h -4252.9 z"
         id="path22"
         inkscape:connector-curvature="0" /></clipPath></defs><sodipodi:namedview
     pagecolor="#ffffff"
     bordercolor="#666666"
     borderopacity="1"
     objecttolerance="10"
     gridtolerance="10"
     guidetolerance="10"
     inkscape:pageopacity="0"
     inkscape:pageshadow="2"
     inkscape:window-width="783"
     inkscape:window-height="480"
     id="namedview4"
     showgrid="false"
     inkscape:zoom="0.58836205"
     inkscape:cx="309.33334"
     inkscape:cy="174.66667"
     inkscape:window-x="0"
     inkscape:window-y="27"
     inkscape:window-maximized="0"
     inkscape:current-layer="g10" /><g
     id="g10"
     inkscape:groupmode="layer"
     inkscape:label="ink_ext_XXXXXX"
     transform="matrix(1.3333333,0,0,-1.3333333,0,349.33333)"><g
       id="g12"
       transform="scale(0.1)"><path
         d="M 0,0 H 4642.5 V 2619.8 H 0 Z"
         style="fill:#ffffff;fill-opacity:1;fill-rule:nonzero;stroke:none"
         id="path14"
         inkscape:connector-curvature="0" /><path
         d="M 0,0 H 4642.5 V 2619.8 H 0 Z"
         style="fill:none;stroke:#ffffff;stroke-width:10.69999981;stroke-linecap:round;stroke-linejoin:round;stroke-miterlimit:10;stroke-dasharray:none;stroke-opacity:1"
         id="path16"
         inkscape:connector-curvature="0" /><g
         id="g18"><g
           id="g20"
           clip-path="url(#clipPath24)"><path
             d="m 334.801,319.102 h 4252.9 v 2245.9 h -4252.9 z"
             style="fill:#ebebeb;fill-opacity:1;fill-rule:nonzero;stroke:none"
             id="path26"
             inkscape:connector-curvature="0" /><path
             d="M 334.801,603.602 H 4587.7"
             style="fill:none;stroke:#ffffff;stroke-width:5.30000019;stroke-linecap:butt;stroke-linejoin:round;stroke-miterlimit:10;stroke-dasharray:none;stroke-opacity:1"
             id="path28"
             inkscape:connector-curvature="0" /><path
             d="M 334.801,1038.1 H 4587.7"
             style="fill:none;stroke:#ffffff;stroke-width:5.30000019;stroke-linecap:butt;stroke-linejoin:round;stroke-miterlimit:10;stroke-dasharray:none;stroke-opacity:1"
             id="path30"
             inkscape:connector-curvature="0" /><path
             d="M 334.801,1472.5 H 4587.7"
             style="fill:none;stroke:#ffffff;stroke-width:5.30000019;stroke-linecap:butt;stroke-linejoin:round;stroke-miterlimit:10;stroke-dasharray:none;stroke-opacity:1"
             id="path32"
             inkscape:connector-curvature="0" /><path
             d="M 334.801,1906.9 H 4587.7"
             style="fill:none;stroke:#ffffff;stroke-width:5.30000019;stroke-linecap:butt;stroke-linejoin:round;stroke-miterlimit:10;stroke-dasharray:none;stroke-opacity:1"
             id="path34"
             inkscape:connector-curvature="0" /><path
             d="M 334.801,2341.3 H 4587.7"
             style="fill:none;stroke:#ffffff;stroke-width:5.30000019;stroke-linecap:butt;stroke-linejoin:round;stroke-miterlimit:10;stroke-dasharray:none;stroke-opacity:1"
             id="path36"
             inkscape:connector-curvature="0" /><path
             d="M 515.199,319.102 V 2565"
             style="fill:none;stroke:#ffffff;stroke-width:5.30000019;stroke-linecap:butt;stroke-linejoin:round;stroke-miterlimit:10;stroke-dasharray:none;stroke-opacity:1"
             id="path38"
             inkscape:connector-curvature="0" /><path
             d="M 1503.8,319.102 V 2565"
             style="fill:none;stroke:#ffffff;stroke-width:5.30000019;stroke-linecap:butt;stroke-linejoin:round;stroke-miterlimit:10;stroke-dasharray:none;stroke-opacity:1"
             id="path40"
             inkscape:connector-curvature="0" /><path
             d="M 2492.4,319.102 V 2565"
             style="fill:none;stroke:#ffffff;stroke-width:5.30000019;stroke-linecap:butt;stroke-linejoin:round;stroke-miterlimit:10;stroke-dasharray:none;stroke-opacity:1"
             id="path42"
             inkscape:connector-curvature="0" /><path
             d="M 3480.9,319.102 V 2565"
             style="fill:none;stroke:#ffffff;stroke-width:5.30000019;stroke-linecap:butt;stroke-linejoin:round;stroke-miterlimit:10;stroke-dasharray:none;stroke-opacity:1"
             id="path44"
             inkscape:connector-curvature="0" /><path
             d="M 4469.5,319.102 V 2565"
             style="fill:none;stroke:#ffffff;stroke-width:5.30000019;stroke-linecap:butt;stroke-linejoin:round;stroke-miterlimit:10;stroke-dasharray:none;stroke-opacity:1"
             id="path46"
             inkscape:connector-curvature="0" /><path
             d="M 334.801,386.398 H 4587.7"
             style="fill:none;stroke:#ffffff;stroke-width:10.69999981;stroke-linecap:butt;stroke-linejoin:round;stroke-miterlimit:10;stroke-dasharray:none;stroke-opacity:1"
             id="path48"
             inkscape:connector-curvature="0" /><path
             d="M 334.801,820.801 H 4587.7"
             style="fill:none;stroke:#ffffff;stroke-width:10.69999981;stroke-linecap:butt;stroke-linejoin:round;stroke-miterlimit:10;stroke-dasharray:none;stroke-opacity:1"
             id="path50"
             inkscape:connector-curvature="0" /><path
             d="M 334.801,1255.3 H 4587.7"
             style="fill:none;stroke:#ffffff;stroke-width:10.69999981;stroke-linecap:butt;stroke-linejoin:round;stroke-miterlimit:10;stroke-dasharray:none;stroke-opacity:1"
             id="path52"
             inkscape:connector-curvature="0" /><path
             d="M 334.801,1689.7 H 4587.7"
             style="fill:none;stroke:#ffffff;stroke-width:10.69999981;stroke-linecap:butt;stroke-linejoin:round;stroke-miterlimit:10;stroke-dasharray:none;stroke-opacity:1"
             id="path54"
             inkscape:connector-curvature="0" /><path
             d="M 334.801,2124.1 H 4587.7"
             style="fill:none;stroke:#ffffff;stroke-width:10.69999981;stroke-linecap:butt;stroke-linejoin:round;stroke-miterlimit:10;stroke-dasharray:none;stroke-opacity:1"
             id="path56"
             inkscape:connector-curvature="0" /><path
             d="M 334.801,2558.5 H 4587.7"
             style="fill:none;stroke:#ffffff;stroke-width:10.69999981;stroke-linecap:butt;stroke-linejoin:round;stroke-miterlimit:10;stroke-dasharray:none;stroke-opacity:1"
             id="path58"
             inkscape:connector-curvature="0" /><path
             d="M 1009.5,319.102 V 2565"
             style="fill:none;stroke:#ffffff;stroke-width:10.69999981;stroke-linecap:butt;stroke-linejoin:round;stroke-miterlimit:10;stroke-dasharray:none;stroke-opacity:1"
             id="path60"
             inkscape:connector-curvature="0" /><path
             d="M 1998.1,319.102 V 2565"
             style="fill:none;stroke:#ffffff;stroke-width:10.69999981;stroke-linecap:butt;stroke-linejoin:round;stroke-miterlimit:10;stroke-dasharray:none;stroke-opacity:1"
             id="path62"
             inkscape:connector-curvature="0" /><path
             d="M 2986.7,319.102 V 2565"
             style="fill:none;stroke:#ffffff;stroke-width:10.69999981;stroke-linecap:butt;stroke-linejoin:round;stroke-miterlimit:10;stroke-dasharray:none;stroke-opacity:1"
             id="path64"
             inkscape:connector-curvature="0" /><path
             d="M 3975.2,319.102 V 2565"
             style="fill:none;stroke:#ffffff;stroke-width:10.69999981;stroke-linecap:butt;stroke-linejoin:round;stroke-miterlimit:10;stroke-dasharray:none;stroke-opacity:1"
             id="path66"
             inkscape:connector-curvature="0" /><path
             d="m 1641.9,1342.1 c 0,10.77 -8.73,19.5 -19.5,19.5 -10.77,0 -19.5,-8.73 -19.5,-19.5 0,-10.77 8.73,-19.5 19.5,-19.5 10.77,0 19.5,8.73 19.5,19.5"
             style="fill:#000000;fill-opacity:1;fill-rule:nonzero;stroke:none"
             id="path68"
             inkscape:connector-curvature="0" /><path
             d="m 1641.9,1342.1 c 0,10.77 -8.73,19.5 -19.5,19.5 -10.77,0 -19.5,-8.73 -19.5,-19.5 0,-10.77 8.73,-19.5 19.5,-19.5 10.77,0 19.5,8.73 19.5,19.5"
             style="fill:none;stroke:#000000;stroke-width:7.0999999;stroke-linecap:round;stroke-linejoin:round;stroke-miterlimit:10;stroke-dasharray:none;stroke-opacity:1"
             id="path70"
             inkscape:connector-curvature="0" /><path
             d="m 1894,1342.1 c 0,10.77 -8.73,19.5 -19.5,19.5 -10.77,0 -19.5,-8.73 -19.5,-19.5 0,-10.77 8.73,-19.5 19.5,-19.5 10.77,0 19.5,8.73 19.5,19.5"
             style="fill:#000000;fill-opacity:1;fill-rule:nonzero;stroke:none"
             id="path72"
             inkscape:connector-curvature="0" /><path
             d="m 1894,1342.1 c 0,10.77 -8.73,19.5 -19.5,19.5 -10.77,0 -19.5,-8.73 -19.5,-19.5 0,-10.77 8.73,-19.5 19.5,-19.5 10.77,0 19.5,8.73 19.5,19.5"
             style="fill:none;stroke:#000000;stroke-width:7.0999999;stroke-linecap:round;stroke-linejoin:round;stroke-miterlimit:10;stroke-dasharray:none;stroke-opacity:1"
             id="path74"
             inkscape:connector-curvature="0" /><path
             d="m 1345.4,1498.5 c 0,10.77 -8.73,19.5 -19.5,19.5 -10.77,0 -19.5,-8.73 -19.5,-19.5 0,-10.77 8.73,-19.5 19.5,-19.5 10.77,0 19.5,8.73 19.5,19.5"
             style="fill:#000000;fill-opacity:1;fill-rule:nonzero;stroke:none"
             id="path76"
             inkscape:connector-curvature="0" /><path
             d="m 1345.4,1498.5 c 0,10.77 -8.73,19.5 -19.5,19.5 -10.77,0 -19.5,-8.73 -19.5,-19.5 0,-10.77 8.73,-19.5 19.5,-19.5 10.77,0 19.5,8.73 19.5,19.5"
             style="fill:none;stroke:#000000;stroke-width:7.0999999;stroke-linecap:round;stroke-linejoin:round;stroke-miterlimit:10;stroke-dasharray:none;stroke-opacity:1"
             id="path78"
             inkscape:connector-curvature="0" /><path
             d="m 2230.1,1376.9 c 0,10.77 -8.73,19.5 -19.5,19.5 -10.77,0 -19.5,-8.73 -19.5,-19.5 0,-10.77 8.73,-19.5 19.5,-19.5 10.77,0 19.5,8.73 19.5,19.5"
             style="fill:#000000;fill-opacity:1;fill-rule:nonzero;stroke:none"
             id="path80"
             inkscape:connector-curvature="0" /><path
             d="m 2230.1,1376.9 c 0,10.77 -8.73,19.5 -19.5,19.5 -10.77,0 -19.5,-8.73 -19.5,-19.5 0,-10.77 8.73,-19.5 19.5,-19.5 10.77,0 19.5,8.73 19.5,19.5"
             style="fill:none;stroke:#000000;stroke-width:7.0999999;stroke-linecap:round;stroke-linejoin:round;stroke-miterlimit:10;stroke-dasharray:none;stroke-opacity:1"
             id="path82"
             inkscape:connector-curvature="0" /><path
             d="m 2452.6,1142.3 c 0,10.77 -8.73,19.5 -19.5,19.5 -10.77,0 -19.5,-8.73 -19.5,-19.5 0,-10.77 8.73,-19.5 19.5,-19.5 10.77,0 19.5,8.73 19.5,19.5"
             style="fill:#000000;fill-opacity:1;fill-rule:nonzero;stroke:none"
             id="path84"
             inkscape:connector-curvature="0" /><path
             d="m 2452.6,1142.3 c 0,10.77 -8.73,19.5 -19.5,19.5 -10.77,0 -19.5,-8.73 -19.5,-19.5 0,-10.77 8.73,-19.5 19.5,-19.5 10.77,0 19.5,8.73 19.5,19.5"
             style="fill:none;stroke:#000000;stroke-width:7.0999999;stroke-linecap:round;stroke-linejoin:round;stroke-miterlimit:10;stroke-dasharray:none;stroke-opacity:1"
             id="path86"
             inkscape:connector-curvature="0" /><path
             d="m 2472.3,1090.2 c 0,10.77 -8.73,19.5 -19.5,19.5 -10.77,0 -19.5,-8.73 -19.5,-19.5 0,-10.77 8.73,-19.5 19.5,-19.5 10.77,0 19.5,8.73 19.5,19.5"
             style="fill:#000000;fill-opacity:1;fill-rule:nonzero;stroke:none"
             id="path88"
             inkscape:connector-curvature="0" /><path
             d="m 2472.3,1090.2 c 0,10.77 -8.73,19.5 -19.5,19.5 -10.77,0 -19.5,-8.73 -19.5,-19.5 0,-10.77 8.73,-19.5 19.5,-19.5 10.77,0 19.5,8.73 19.5,19.5"
             style="fill:none;stroke:#000000;stroke-width:7.0999999;stroke-linecap:round;stroke-linejoin:round;stroke-miterlimit:10;stroke-dasharray:none;stroke-opacity:1"
             id="path90"
             inkscape:connector-curvature="0" /><path
             d="m 2581.1,760 c 0,10.77 -8.73,19.5 -19.5,19.5 -10.77,0 -19.5,-8.73 -19.5,-19.5 0,-10.77 8.73,-19.5 19.5,-19.5 10.77,0 19.5,8.73 19.5,19.5"
             style="fill:#000000;fill-opacity:1;fill-rule:nonzero;stroke:none"
             id="path92"
             inkscape:connector-curvature="0" /><path
             d="m 2581.1,760 c 0,10.77 -8.73,19.5 -19.5,19.5 -10.77,0 -19.5,-8.73 -19.5,-19.5 0,-10.77 8.73,-19.5 19.5,-19.5 10.77,0 19.5,8.73 19.5,19.5"
             style="fill:none;stroke:#000000;stroke-width:7.0999999;stroke-linecap:round;stroke-linejoin:round;stroke-miterlimit:10;stroke-dasharray:none;stroke-opacity:1"
             id="path94"
             inkscape:connector-curvature="0" /><path
             d="m 2205.4,1637.5 c 0,10.77 -8.73,19.5 -19.5,19.5 -10.77,0 -19.5,-8.73 -19.5,-19.5 0,-10.77 8.73,-19.5 19.5,-19.5 10.77,0 19.5,8.73 19.5,19.5"
             style="fill:#000000;fill-opacity:1;fill-rule:nonzero;stroke:none"
             id="path96"
             inkscape:connector-curvature="0" /><path
             d="m 2205.4,1637.5 c 0,10.77 -8.73,19.5 -19.5,19.5 -10.77,0 -19.5,-8.73 -19.5,-19.5 0,-10.77 8.73,-19.5 19.5,-19.5 10.77,0 19.5,8.73 19.5,19.5"
             style="fill:none;stroke:#000000;stroke-width:7.0999999;stroke-linecap:round;stroke-linejoin:round;stroke-miterlimit:10;stroke-dasharray:none;stroke-opacity:1"
             id="path98"
             inkscape:connector-curvature="0" /><path
             d="m 2165.9,1498.5 c 0,10.77 -8.73,19.5 -19.5,19.5 -10.77,0 -19.5,-8.73 -19.5,-19.5 0,-10.77 8.73,-19.5 19.5,-19.5 10.77,0 19.5,8.73 19.5,19.5"
             style="fill:#000000;fill-opacity:1;fill-rule:nonzero;stroke:none"
             id="path100"
             inkscape:connector-curvature="0" /><path
             d="m 2165.9,1498.5 c 0,10.77 -8.73,19.5 -19.5,19.5 -10.77,0 -19.5,-8.73 -19.5,-19.5 0,-10.77 8.73,-19.5 19.5,-19.5 10.77,0 19.5,8.73 19.5,19.5"
             style="fill:none;stroke:#000000;stroke-width:7.0999999;stroke-linecap:round;stroke-linejoin:round;stroke-miterlimit:10;stroke-dasharray:none;stroke-opacity:1"
             id="path102"
             inkscape:connector-curvature="0" /><path
             d="m 2452.6,1185.8 c 0,10.77 -8.73,19.5 -19.5,19.5 -10.77,0 -19.5,-8.73 -19.5,-19.5 0,-10.77 8.73,-19.5 19.5,-19.5 10.77,0 19.5,8.73 19.5,19.5"
             style="fill:#000000;fill-opacity:1;fill-rule:nonzero;stroke:none"
             id="path104"
             inkscape:connector-curvature="0" /><path
             d="m 2452.6,1185.8 c 0,10.77 -8.73,19.5 -19.5,19.5 -10.77,0 -19.5,-8.73 -19.5,-19.5 0,-10.77 8.73,-19.5 19.5,-19.5 10.77,0 19.5,8.73 19.5,19.5"
             style="fill:none;stroke:#000000;stroke-width:7.0999999;stroke-linecap:round;stroke-linejoin:round;stroke-miterlimit:10;stroke-dasharray:none;stroke-opacity:1"
             id="path106"
             inkscape:connector-curvature="0" /><path
             d="m 2452.6,1064.1 c 0,10.77 -8.73,19.5 -19.5,19.5 -10.77,0 -19.5,-8.73 -19.5,-19.5 0,-10.77 8.73,-19.5 19.5,-19.5 10.77,0 19.5,8.73 19.5,19.5"
             style="fill:#000000;fill-opacity:1;fill-rule:nonzero;stroke:none"
             id="path108"
             inkscape:connector-curvature="0" /><path
             d="m 2452.6,1064.1 c 0,10.77 -8.73,19.5 -19.5,19.5 -10.77,0 -19.5,-8.73 -19.5,-19.5 0,-10.77 8.73,-19.5 19.5,-19.5 10.77,0 19.5,8.73 19.5,19.5"
             style="fill:none;stroke:#000000;stroke-width:7.0999999;stroke-linecap:round;stroke-linejoin:round;stroke-miterlimit:10;stroke-dasharray:none;stroke-opacity:1"
             id="path110"
             inkscape:connector-curvature="0" /><path
             d="m 3075.4,942.5 c 0,10.77 -8.73,19.5 -19.5,19.5 -10.77,0 -19.5,-8.73 -19.5,-19.5 0,-10.77 8.73,-19.5 19.5,-19.5 10.77,0 19.5,8.73 19.5,19.5"
             style="fill:#000000;fill-opacity:1;fill-rule:nonzero;stroke:none"
             id="path112"
             inkscape:connector-curvature="0" /><path
             d="m 3075.4,942.5 c 0,10.77 -8.73,19.5 -19.5,19.5 -10.77,0 -19.5,-8.73 -19.5,-19.5 0,-10.77 8.73,-19.5 19.5,-19.5 10.77,0 19.5,8.73 19.5,19.5"
             style="fill:none;stroke:#000000;stroke-width:7.0999999;stroke-linecap:round;stroke-linejoin:round;stroke-miterlimit:10;stroke-dasharray:none;stroke-opacity:1"
             id="path114"
             inkscape:connector-curvature="0" /><path
             d="m 2739.2,1020.7 c 0,10.77 -8.73,19.5 -19.5,19.5 -10.77,0 -19.5,-8.73 -19.5,-19.5 0,-10.77 8.73,-19.5 19.5,-19.5 10.77,0 19.5,8.73 19.5,19.5"
             style="fill:#000000;fill-opacity:1;fill-rule:nonzero;stroke:none"
             id="path116"
             inkscape:connector-curvature="0" /><path
             d="m 2739.2,1020.7 c 0,10.77 -8.73,19.5 -19.5,19.5 -10.77,0 -19.5,-8.73 -19.5,-19.5 0,-10.77 8.73,-19.5 19.5,-19.5 10.77,0 19.5,8.73 19.5,19.5"
             style="fill:none;stroke:#000000;stroke-width:7.0999999;stroke-linecap:round;stroke-linejoin:round;stroke-miterlimit:10;stroke-dasharray:none;stroke-opacity:1"
             id="path118"
             inkscape:connector-curvature="0" /><path
             d="m 2788.7,838.199 c 0,10.77 -8.73,19.5 -19.5,19.5 -10.77,0 -19.5,-8.73 -19.5,-19.5 0,-10.769 8.73,-19.5 19.5,-19.5 10.77,0 19.5,8.731 19.5,19.5"
             style="fill:#000000;fill-opacity:1;fill-rule:nonzero;stroke:none"
             id="path120"
             inkscape:connector-curvature="0" /><path
             d="m 2788.7,838.199 c 0,10.77 -8.73,19.5 -19.5,19.5 -10.77,0 -19.5,-8.73 -19.5,-19.5 0,-10.769 8.73,-19.5 19.5,-19.5 10.77,0 19.5,8.731 19.5,19.5"
             style="fill:none;stroke:#000000;stroke-width:7.0999999;stroke-linecap:round;stroke-linejoin:round;stroke-miterlimit:10;stroke-dasharray:none;stroke-opacity:1"
             id="path122"
             inkscape:connector-curvature="0" /><path
             d="m 4241.9,421.199 c 0,10.77 -8.73,19.5 -19.5,19.5 -10.77,0 -19.5,-8.73 -19.5,-19.5 0,-10.769 8.73,-19.5 19.5,-19.5 10.77,0 19.5,8.731 19.5,19.5"
             style="fill:#000000;fill-opacity:1;fill-rule:nonzero;stroke:none"
             id="path124"
             inkscape:connector-curvature="0" /><path
             d="m 4241.9,421.199 c 0,10.77 -8.73,19.5 -19.5,19.5 -10.77,0 -19.5,-8.73 -19.5,-19.5 0,-10.769 8.73,-19.5 19.5,-19.5 10.77,0 19.5,8.731 19.5,19.5"
             style="fill:none;stroke:#000000;stroke-width:7.0999999;stroke-linecap:round;stroke-linejoin:round;stroke-miterlimit:10;stroke-dasharray:none;stroke-opacity:1"
             id="path126"
             inkscape:connector-curvature="0" /><path
             d="m 4413.9,421.199 c 0,10.77 -8.73,19.5 -19.5,19.5 -10.77,0 -19.5,-8.73 -19.5,-19.5 0,-10.769 8.73,-19.5 19.5,-19.5 10.77,0 19.5,8.731 19.5,19.5"
             style="fill:#000000;fill-opacity:1;fill-rule:nonzero;stroke:none"
             id="path128"
             inkscape:connector-curvature="0" /><path
             d="m 4413.9,421.199 c 0,10.77 -8.73,19.5 -19.5,19.5 -10.77,0 -19.5,-8.73 -19.5,-19.5 0,-10.769 8.73,-19.5 19.5,-19.5 10.77,0 19.5,8.731 19.5,19.5"
             style="fill:none;stroke:#000000;stroke-width:7.0999999;stroke-linecap:round;stroke-linejoin:round;stroke-miterlimit:10;stroke-dasharray:none;stroke-opacity:1"
             id="path130"
             inkscape:connector-curvature="0" /><path
             d="m 4335.8,794.801 c 0,10.769 -8.73,19.5 -19.5,19.5 -10.77,0 -19.5,-8.731 -19.5,-19.5 0,-10.77 8.73,-19.5 19.5,-19.5 10.77,0 19.5,8.73 19.5,19.5"
             style="fill:#000000;fill-opacity:1;fill-rule:nonzero;stroke:none"
             id="path132"
             inkscape:connector-curvature="0" /><path
             d="m 4335.8,794.801 c 0,10.769 -8.73,19.5 -19.5,19.5 -10.77,0 -19.5,-8.731 -19.5,-19.5 0,-10.77 8.73,-19.5 19.5,-19.5 10.77,0 19.5,8.73 19.5,19.5"
             style="fill:none;stroke:#000000;stroke-width:7.0999999;stroke-linecap:round;stroke-linejoin:round;stroke-miterlimit:10;stroke-dasharray:none;stroke-opacity:1"
             id="path134"
             inkscape:connector-curvature="0" /><path
             d="m 1226.7,2332.6 c 0,10.77 -8.73,19.5 -19.5,19.5 -10.77,0 -19.5,-8.73 -19.5,-19.5 0,-10.77 8.73,-19.5 19.5,-19.5 10.77,0 19.5,8.73 19.5,19.5"
             style="fill:#000000;fill-opacity:1;fill-rule:nonzero;stroke:none"
             id="path136"
             inkscape:connector-curvature="0" /><path
             d="m 1226.7,2332.6 c 0,10.77 -8.73,19.5 -19.5,19.5 -10.77,0 -19.5,-8.73 -19.5,-19.5 0,-10.77 8.73,-19.5 19.5,-19.5 10.77,0 19.5,8.73 19.5,19.5"
             style="fill:none;stroke:#000000;stroke-width:7.0999999;stroke-linecap:round;stroke-linejoin:round;stroke-miterlimit:10;stroke-dasharray:none;stroke-opacity:1"
             id="path138"
             inkscape:connector-curvature="0" /><path
             d="m 648.398,2158.8 c 0,10.77 -8.73,19.5 -19.5,19.5 -10.769,0 -19.5,-8.73 -19.5,-19.5 0,-10.77 8.731,-19.5 19.5,-19.5 10.77,0 19.5,8.73 19.5,19.5"
             style="fill:#000000;fill-opacity:1;fill-rule:nonzero;stroke:none"
             id="path140"
             inkscape:connector-curvature="0" /><path
             d="m 648.398,2158.8 c 0,10.77 -8.73,19.5 -19.5,19.5 -10.769,0 -19.5,-8.73 -19.5,-19.5 0,-10.77 8.731,-19.5 19.5,-19.5 10.77,0 19.5,8.73 19.5,19.5"
             style="fill:none;stroke:#000000;stroke-width:7.0999999;stroke-linecap:round;stroke-linejoin:round;stroke-miterlimit:10;stroke-dasharray:none;stroke-opacity:1"
             id="path142"
             inkscape:connector-curvature="0" /><path
             d="m 865.898,2462.9 c 0,10.77 -8.73,19.5 -19.5,19.5 -10.769,0 -19.5,-8.73 -19.5,-19.5 0,-10.77 8.731,-19.5 19.5,-19.5 10.77,0 19.5,8.73 19.5,19.5"
             style="fill:#000000;fill-opacity:1;fill-rule:nonzero;stroke:none"
             id="path144"
             inkscape:connector-curvature="0" /><path
             d="m 865.898,2462.9 c 0,10.77 -8.73,19.5 -19.5,19.5 -10.769,0 -19.5,-8.73 -19.5,-19.5 0,-10.77 8.731,-19.5 19.5,-19.5 10.77,0 19.5,8.73 19.5,19.5"
             style="fill:none;stroke:#000000;stroke-width:7.0999999;stroke-linecap:round;stroke-linejoin:round;stroke-miterlimit:10;stroke-dasharray:none;stroke-opacity:1"
             id="path146"
             inkscape:connector-curvature="0" /><path
             d="m 1488.7,1385.6 c 0,10.77 -8.73,19.5 -19.5,19.5 -10.77,0 -19.5,-8.73 -19.5,-19.5 0,-10.77 8.73,-19.5 19.5,-19.5 10.77,0 19.5,8.73 19.5,19.5"
             style="fill:#000000;fill-opacity:1;fill-rule:nonzero;stroke:none"
             id="path148"
             inkscape:connector-curvature="0" /><path
             d="m 1488.7,1385.6 c 0,10.77 -8.73,19.5 -19.5,19.5 -10.77,0 -19.5,-8.73 -19.5,-19.5 0,-10.77 8.73,-19.5 19.5,-19.5 10.77,0 19.5,8.73 19.5,19.5"
             style="fill:none;stroke:#000000;stroke-width:7.0999999;stroke-linecap:round;stroke-linejoin:round;stroke-miterlimit:10;stroke-dasharray:none;stroke-opacity:1"
             id="path150"
             inkscape:connector-curvature="0" /><path
             d="m 2531.6,864.301 c 0,10.769 -8.73,19.5 -19.5,19.5 -10.77,0 -19.5,-8.731 -19.5,-19.5 0,-10.77 8.73,-19.5 19.5,-19.5 10.77,0 19.5,8.73 19.5,19.5"
             style="fill:#000000;fill-opacity:1;fill-rule:nonzero;stroke:none"
             id="path152"
             inkscape:connector-curvature="0" /><path
             d="m 2531.6,864.301 c 0,10.769 -8.73,19.5 -19.5,19.5 -10.77,0 -19.5,-8.731 -19.5,-19.5 0,-10.77 8.73,-19.5 19.5,-19.5 10.77,0 19.5,8.73 19.5,19.5"
             style="fill:none;stroke:#000000;stroke-width:7.0999999;stroke-linecap:round;stroke-linejoin:round;stroke-miterlimit:10;stroke-dasharray:none;stroke-opacity:1"
             id="path154"
             inkscape:connector-curvature="0" /><path
             d="m 2447.6,838.199 c 0,10.77 -8.73,19.5 -19.5,19.5 -10.77,0 -19.5,-8.73 -19.5,-19.5 0,-10.769 8.73,-19.5 19.5,-19.5 10.77,0 19.5,8.731 19.5,19.5"
             style="fill:#000000;fill-opacity:1;fill-rule:nonzero;stroke:none"
             id="path156"
             inkscape:connector-curvature="0" /><path
             d="m 2447.6,838.199 c 0,10.77 -8.73,19.5 -19.5,19.5 -10.77,0 -19.5,-8.73 -19.5,-19.5 0,-10.769 8.73,-19.5 19.5,-19.5 10.77,0 19.5,8.731 19.5,19.5"
             style="fill:none;stroke:#000000;stroke-width:7.0999999;stroke-linecap:round;stroke-linejoin:round;stroke-miterlimit:10;stroke-dasharray:none;stroke-opacity:1"
             id="path158"
             inkscape:connector-curvature="0" /><path
             d="m 2848,673.102 c 0,10.769 -8.73,19.5 -19.5,19.5 -10.77,0 -19.5,-8.731 -19.5,-19.5 0,-10.77 8.73,-19.5 19.5,-19.5 10.77,0 19.5,8.73 19.5,19.5"
             style="fill:#000000;fill-opacity:1;fill-rule:nonzero;stroke:none"
             id="path160"
             inkscape:connector-curvature="0" /><path
             d="m 2848,673.102 c 0,10.769 -8.73,19.5 -19.5,19.5 -10.77,0 -19.5,-8.731 -19.5,-19.5 0,-10.77 8.73,-19.5 19.5,-19.5 10.77,0 19.5,8.73 19.5,19.5"
             style="fill:none;stroke:#000000;stroke-width:7.0999999;stroke-linecap:round;stroke-linejoin:round;stroke-miterlimit:10;stroke-dasharray:none;stroke-opacity:1"
             id="path162"
             inkscape:connector-curvature="0" /><path
             d="m 2852.9,1185.8 c 0,10.77 -8.73,19.5 -19.5,19.5 -10.77,0 -19.5,-8.73 -19.5,-19.5 0,-10.77 8.73,-19.5 19.5,-19.5 10.77,0 19.5,8.73 19.5,19.5"
             style="fill:#000000;fill-opacity:1;fill-rule:nonzero;stroke:none"
             id="path164"
             inkscape:connector-curvature="0" /><path
             d="m 2852.9,1185.8 c 0,10.77 -8.73,19.5 -19.5,19.5 -10.77,0 -19.5,-8.73 -19.5,-19.5 0,-10.77 8.73,-19.5 19.5,-19.5 10.77,0 19.5,8.73 19.5,19.5"
             style="fill:none;stroke:#000000;stroke-width:7.0999999;stroke-linecap:round;stroke-linejoin:round;stroke-miterlimit:10;stroke-dasharray:none;stroke-opacity:1"
             id="path166"
             inkscape:connector-curvature="0" /><path
             d="m 964.801,1889.5 c 0,10.77 -8.731,19.5 -19.5,19.5 -10.77,0 -19.5,-8.73 -19.5,-19.5 0,-10.77 8.73,-19.5 19.5,-19.5 10.769,0 19.5,8.73 19.5,19.5"
             style="fill:#000000;fill-opacity:1;fill-rule:nonzero;stroke:none"
             id="path168"
             inkscape:connector-curvature="0" /><path
             d="m 964.801,1889.5 c 0,10.77 -8.731,19.5 -19.5,19.5 -10.77,0 -19.5,-8.73 -19.5,-19.5 0,-10.77 8.73,-19.5 19.5,-19.5 10.769,0 19.5,8.73 19.5,19.5"
             style="fill:none;stroke:#000000;stroke-width:7.0999999;stroke-linecap:round;stroke-linejoin:round;stroke-miterlimit:10;stroke-dasharray:none;stroke-opacity:1"
             id="path170"
             inkscape:connector-curvature="0" /><path
             d="m 1167.4,1776.5 c 0,10.77 -8.73,19.5 -19.5,19.5 -10.77,0 -19.5,-8.73 -19.5,-19.5 0,-10.77 8.73,-19.5 19.5,-19.5 10.77,0 19.5,8.73 19.5,19.5"
             style="fill:#000000;fill-opacity:1;fill-rule:nonzero;stroke:none"
             id="path172"
             inkscape:connector-curvature="0" /><path
             d="m 1167.4,1776.5 c 0,10.77 -8.73,19.5 -19.5,19.5 -10.77,0 -19.5,-8.73 -19.5,-19.5 0,-10.77 8.73,-19.5 19.5,-19.5 10.77,0 19.5,8.73 19.5,19.5"
             style="fill:none;stroke:#000000;stroke-width:7.0999999;stroke-linecap:round;stroke-linejoin:round;stroke-miterlimit:10;stroke-dasharray:none;stroke-opacity:1"
             id="path174"
             inkscape:connector-curvature="0" /><path
             d="m 547.602,2158.8 c 0,10.77 -8.731,19.5 -19.5,19.5 -10.77,0 -19.5,-8.73 -19.5,-19.5 0,-10.77 8.73,-19.5 19.5,-19.5 10.769,0 19.5,8.73 19.5,19.5"
             style="fill:#000000;fill-opacity:1;fill-rule:nonzero;stroke:none"
             id="path176"
             inkscape:connector-curvature="0" /><path
             d="m 547.602,2158.8 c 0,10.77 -8.731,19.5 -19.5,19.5 -10.77,0 -19.5,-8.73 -19.5,-19.5 0,-10.77 8.73,-19.5 19.5,-19.5 10.769,0 19.5,8.73 19.5,19.5"
             style="fill:none;stroke:#000000;stroke-width:7.0999999;stroke-linecap:round;stroke-linejoin:round;stroke-miterlimit:10;stroke-dasharray:none;stroke-opacity:1"
             id="path178"
             inkscape:connector-curvature="0" /><path
             d="m 2185.6,890.398 c 0,10.77 -8.73,19.5 -19.5,19.5 -10.77,0 -19.5,-8.73 -19.5,-19.5 0,-10.769 8.73,-19.5 19.5,-19.5 10.77,0 19.5,8.731 19.5,19.5"
             style="fill:#000000;fill-opacity:1;fill-rule:nonzero;stroke:none"
             id="path180"
             inkscape:connector-curvature="0" /><path
             d="m 2185.6,890.398 c 0,10.77 -8.73,19.5 -19.5,19.5 -10.77,0 -19.5,-8.73 -19.5,-19.5 0,-10.769 8.73,-19.5 19.5,-19.5 10.77,0 19.5,8.731 19.5,19.5"
             style="fill:none;stroke:#000000;stroke-width:7.0999999;stroke-linecap:round;stroke-linejoin:round;stroke-miterlimit:10;stroke-dasharray:none;stroke-opacity:1"
             id="path182"
             inkscape:connector-curvature="0" /><path
             d="m 1790.2,1229.2 c 0,10.77 -8.73,19.5 -19.5,19.5 -10.77,0 -19.5,-8.73 -19.5,-19.5 0,-10.77 8.73,-19.5 19.5,-19.5 10.77,0 19.5,8.73 19.5,19.5"
             style="fill:#000000;fill-opacity:1;fill-rule:nonzero;stroke:none"
             id="path184"
             inkscape:connector-curvature="0" /><path
             d="m 1790.2,1229.2 c 0,10.77 -8.73,19.5 -19.5,19.5 -10.77,0 -19.5,-8.73 -19.5,-19.5 0,-10.77 8.73,-19.5 19.5,-19.5 10.77,0 19.5,8.73 19.5,19.5"
             style="fill:none;stroke:#000000;stroke-width:7.0999999;stroke-linecap:round;stroke-linejoin:round;stroke-miterlimit:10;stroke-dasharray:none;stroke-opacity:1"
             id="path186"
             inkscape:connector-curvature="0" /><path
             d="m 2581.1,820.801 c 0,10.769 -8.73,19.5 -19.5,19.5 -10.77,0 -19.5,-8.731 -19.5,-19.5 0,-10.77 8.73,-19.5 19.5,-19.5 10.77,0 19.5,8.73 19.5,19.5"
             style="fill:#000000;fill-opacity:1;fill-rule:nonzero;stroke:none"
             id="path188"
             inkscape:connector-curvature="0" /><path
             d="m 2581.1,820.801 c 0,10.769 -8.73,19.5 -19.5,19.5 -10.77,0 -19.5,-8.731 -19.5,-19.5 0,-10.77 8.73,-19.5 19.5,-19.5 10.77,0 19.5,8.73 19.5,19.5"
             style="fill:none;stroke:#000000;stroke-width:7.0999999;stroke-linecap:round;stroke-linejoin:round;stroke-miterlimit:10;stroke-dasharray:none;stroke-opacity:1"
             id="path190"
             inkscape:connector-curvature="0" /><path
             d="m 1800.1,1376.9 c 0,10.77 -8.73,19.5 -19.5,19.5 -10.77,0 -19.5,-8.73 -19.5,-19.5 0,-10.77 8.73,-19.5 19.5,-19.5 10.77,0 19.5,8.73 19.5,19.5"
             style="fill:#000000;fill-opacity:1;fill-rule:nonzero;stroke:none"
             id="path192"
             inkscape:connector-curvature="0" /><path
             d="m 1800.1,1376.9 c 0,10.77 -8.73,19.5 -19.5,19.5 -10.77,0 -19.5,-8.73 -19.5,-19.5 0,-10.77 8.73,-19.5 19.5,-19.5 10.77,0 19.5,8.73 19.5,19.5"
             style="fill:none;stroke:#000000;stroke-width:7.0999999;stroke-linecap:round;stroke-linejoin:round;stroke-miterlimit:10;stroke-dasharray:none;stroke-opacity:1"
             id="path194"
             inkscape:connector-curvature="0" /></g></g><g
         id="g196"
         transform="scale(10)"><text
           transform="matrix(1,0,0,-1,18.5422,35.4102)"
           style="font-variant:normal;font-weight:normal;font-size:9px;font-family:Helvetica;-inkscape-font-specification:Helvetica;writing-mode:lr-tb;fill:#4d4d4d;fill-opacity:1;fill-rule:nonzero;stroke:none"
           id="text210"><tspan
             x="0 5.0040002"
             y="0"
             sodipodi:role="line"
             id="tspan198">10</tspan><tspan
             x="0 5.0040002"
             y="-43.4398"
             sodipodi:role="line"
             id="tspan200">15</tspan><tspan
             x="0 5.0040002"
             y="-86.879601"
             sodipodi:role="line"
             id="tspan202">20</tspan><tspan
             x="0 5.0040002"
             y="-130.32961"
             sodipodi:role="line"
             id="tspan204">25</tspan><tspan
             x="0 5.0040002"
             y="-173.76981"
             sodipodi:role="line"
             id="tspan206">30</tspan><tspan
             x="0 5.0040002"
             y="-217.20959"
             sodipodi:role="line"
             id="tspan208">35</tspan></text>
</g><path
         d="m 307.398,386.398 h 27.403"
         style="fill:none;stroke:#333333;stroke-width:10.69999981;stroke-linecap:butt;stroke-linejoin:round;stroke-miterlimit:10;stroke-dasharray:none;stroke-opacity:1"
         id="path212"
         inkscape:connector-curvature="0" /><path
         d="m 307.398,820.801 h 27.403"
         style="fill:none;stroke:#333333;stroke-width:10.69999981;stroke-linecap:butt;stroke-linejoin:round;stroke-miterlimit:10;stroke-dasharray:none;stroke-opacity:1"
         id="path214"
         inkscape:connector-curvature="0" /><path
         d="m 307.398,1255.3 h 27.403"
         style="fill:none;stroke:#333333;stroke-width:10.69999981;stroke-linecap:butt;stroke-linejoin:round;stroke-miterlimit:10;stroke-dasharray:none;stroke-opacity:1"
         id="path216"
         inkscape:connector-curvature="0" /><path
         d="m 307.398,1689.7 h 27.403"
         style="fill:none;stroke:#333333;stroke-width:10.69999981;stroke-linecap:butt;stroke-linejoin:round;stroke-miterlimit:10;stroke-dasharray:none;stroke-opacity:1"
         id="path218"
         inkscape:connector-curvature="0" /><path
         d="m 307.398,2124.1 h 27.403"
         style="fill:none;stroke:#333333;stroke-width:10.69999981;stroke-linecap:butt;stroke-linejoin:round;stroke-miterlimit:10;stroke-dasharray:none;stroke-opacity:1"
         id="path220"
         inkscape:connector-curvature="0" /><path
         d="m 307.398,2558.5 h 27.403"
         style="fill:none;stroke:#333333;stroke-width:10.69999981;stroke-linecap:butt;stroke-linejoin:round;stroke-miterlimit:10;stroke-dasharray:none;stroke-opacity:1"
         id="path222"
         inkscape:connector-curvature="0" /><path
         d="m 1009.5,291.699 v 27.403"
         style="fill:none;stroke:#333333;stroke-width:10.69999981;stroke-linecap:butt;stroke-linejoin:round;stroke-miterlimit:10;stroke-dasharray:none;stroke-opacity:1"
         id="path224"
         inkscape:connector-curvature="0" /><path
         d="m 1998.1,291.699 v 27.403"
         style="fill:none;stroke:#333333;stroke-width:10.69999981;stroke-linecap:butt;stroke-linejoin:round;stroke-miterlimit:10;stroke-dasharray:none;stroke-opacity:1"
         id="path226"
         inkscape:connector-curvature="0" /><path
         d="m 2986.7,291.699 v 27.403"
         style="fill:none;stroke:#333333;stroke-width:10.69999981;stroke-linecap:butt;stroke-linejoin:round;stroke-miterlimit:10;stroke-dasharray:none;stroke-opacity:1"
         id="path228"
         inkscape:connector-curvature="0" /><path
         d="m 3975.2,291.699 v 27.403"
         style="fill:none;stroke:#333333;stroke-width:10.69999981;stroke-linecap:butt;stroke-linejoin:round;stroke-miterlimit:10;stroke-dasharray:none;stroke-opacity:1"
         id="path230"
         inkscape:connector-curvature="0" /><g
         id="g232"
         transform="scale(10)"><text
           transform="matrix(1,0,0,-1,98.448,20.5199)"
           style="font-variant:normal;font-weight:normal;font-size:9px;font-family:Helvetica;-inkscape-font-specification:Helvetica;writing-mode:lr-tb;fill:#4d4d4d;fill-opacity:1;fill-rule:nonzero;stroke:none"
           id="text236"><tspan
             x="0 98.860497 197.72009 296.56979"
             y="0"
             sodipodi:role="line"
             id="tspan234">2345</tspan></text>
</g><g
         id="g238"
         transform="scale(10)"><text
           transform="matrix(1,0,0,-1,237.568,7.9)"
           style="font-variant:normal;font-weight:normal;font-size:11px;font-family:Helvetica;-inkscape-font-specification:Helvetica;writing-mode:lr-tb;fill:#000000;fill-opacity:1;fill-rule:nonzero;stroke:none"
           id="text242"><tspan
             x="0 10.384"
             y="0"
             sodipodi:role="line"
             id="tspan240">WT</tspan></text>
<text
           transform="matrix(0,1,1,0,13.3801,131.681)"
           style="font-variant:normal;font-weight:normal;font-size:11px;font-family:Helvetica;-inkscape-font-specification:Helvetica;writing-mode:lr-tb;fill:#000000;fill-opacity:1;fill-rule:nonzero;stroke:none"
           id="text246"><tspan
             x="0 9.1630001 16.5"
             y="0"
             sodipodi:role="line"
             id="tspan244">MPG</tspan></text>
</g></g></g></svg>