<?xml version="1.0" encoding="utf-8"?>
<svg xmlns="http://www.w3.org/2000/svg" xmlns:xlink="http://www.w3.org/1999/xlink" width="600" height="400" viewBox="0 0 2400 1600">
<defs>
  <clipPath id="clip960">
    <rect x="0" y="0" width="2400" height="1600"/>
  </clipPath>
</defs>
<path clip-path="url(#clip960)" d="
M0 1600 L2400 1600 L2400 0 L0 0  Z
  " fill="#ffffff" fill-rule="evenodd" fill-opacity="1"/>
<defs>
  <clipPath id="clip961">
    <rect x="480" y="0" width="1681" height="1600"/>
  </clipPath>
</defs>
<path clip-path="url(#clip960)" d="
M193.936 1486.45 L2352.76 1486.45 L2352.76 47.2441 L193.936 47.2441  Z
  " fill="#ffffff" fill-rule="evenodd" fill-opacity="1"/>
<defs>
  <clipPath id="clip962">
    <rect x="193" y="47" width="2160" height="1440"/>
  </clipPath>
</defs>
<polyline clip-path="url(#clip962)" style="stroke:#000000; stroke-width:2; stroke-opacity:0.1; fill:none" points="
  255.035,1486.45 255.035,47.2441 
  "/>
<polyline clip-path="url(#clip962)" style="stroke:#000000; stroke-width:2; stroke-opacity:0.1; fill:none" points="
  580.802,1486.45 580.802,47.2441 
  "/>
<polyline clip-path="url(#clip962)" style="stroke:#000000; stroke-width:2; stroke-opacity:0.1; fill:none" points="
  906.569,1486.45 906.569,47.2441 
  "/>
<polyline clip-path="url(#clip962)" style="stroke:#000000; stroke-width:2; stroke-opacity:0.1; fill:none" points="
  1232.34,1486.45 1232.34,47.2441 
  "/>
<polyline clip-path="url(#clip962)" style="stroke:#000000; stroke-width:2; stroke-opacity:0.1; fill:none" points="
  1558.1,1486.45 1558.1,47.2441 
  "/>
<polyline clip-path="url(#clip962)" style="stroke:#000000; stroke-width:2; stroke-opacity:0.1; fill:none" points="
  1883.87,1486.45 1883.87,47.2441 
  "/>
<polyline clip-path="url(#clip962)" style="stroke:#000000; stroke-width:2; stroke-opacity:0.1; fill:none" points="
  2209.64,1486.45 2209.64,47.2441 
  "/>
<polyline clip-path="url(#clip960)" style="stroke:#000000; stroke-width:4; stroke-opacity:1; fill:none" points="
  193.936,1486.45 2352.76,1486.45 
  "/>
<polyline clip-path="url(#clip960)" style="stroke:#000000; stroke-width:4; stroke-opacity:1; fill:none" points="
  255.035,1486.45 255.035,1469.18 
  "/>
<polyline clip-path="url(#clip960)" style="stroke:#000000; stroke-width:4; stroke-opacity:1; fill:none" points="
  580.802,1486.45 580.802,1469.18 
  "/>
<polyline clip-path="url(#clip960)" style="stroke:#000000; stroke-width:4; stroke-opacity:1; fill:none" points="
  906.569,1486.45 906.569,1469.18 
  "/>
<polyline clip-path="url(#clip960)" style="stroke:#000000; stroke-width:4; stroke-opacity:1; fill:none" points="
  1232.34,1486.45 1232.34,1469.18 
  "/>
<polyline clip-path="url(#clip960)" style="stroke:#000000; stroke-width:4; stroke-opacity:1; fill:none" points="
  1558.1,1486.45 1558.1,1469.18 
  "/>
<polyline clip-path="url(#clip960)" style="stroke:#000000; stroke-width:4; stroke-opacity:1; fill:none" points="
  1883.87,1486.45 1883.87,1469.18 
  "/>
<polyline clip-path="url(#clip960)" style="stroke:#000000; stroke-width:4; stroke-opacity:1; fill:none" points="
  2209.64,1486.45 2209.64,1469.18 
  "/>
<path clip-path="url(#clip960)" d="M 0 0 M255.035 1515.64 Q251.424 1515.64 249.595 1519.2 Q247.789 1522.75 247.789 1529.87 Q247.789 1536.98 249.595 1540.55 Q251.424 1544.09 255.035 1544.09 Q258.669 1544.09 260.474 1540.55 Q262.303 1536.98 262.303 1529.87 Q262.303 1522.75 260.474 1519.2 Q258.669 1515.64 255.035 1515.64 M255.035 1511.93 Q260.845 1511.93 263.9 1516.54 Q266.979 1521.12 266.979 1529.87 Q266.979 1538.6 263.9 1543.21 Q260.845 1547.79 255.035 1547.79 Q249.225 1547.79 246.146 1543.21 Q243.09 1538.6 243.09 1529.87 Q243.09 1521.12 246.146 1516.54 Q249.225 1511.93 255.035 1511.93 Z" fill="#000000" fill-rule="evenodd" fill-opacity="1" /><path clip-path="url(#clip960)" d="M 0 0 M571.184 1543.18 L578.823 1543.18 L578.823 1516.82 L570.513 1518.49 L570.513 1514.23 L578.777 1512.56 L583.453 1512.56 L583.453 1543.18 L591.091 1543.18 L591.091 1547.12 L571.184 1547.12 L571.184 1543.18 Z" fill="#000000" fill-rule="evenodd" fill-opacity="1" /><path clip-path="url(#clip960)" d="M 0 0 M901.222 1543.18 L917.542 1543.18 L917.542 1547.12 L895.597 1547.12 L895.597 1543.18 Q898.259 1540.43 902.843 1535.8 Q907.449 1531.15 908.63 1529.81 Q910.875 1527.28 911.755 1525.55 Q912.657 1523.79 912.657 1522.1 Q912.657 1519.34 910.713 1517.61 Q908.792 1515.87 905.69 1515.87 Q903.491 1515.87 901.037 1516.63 Q898.607 1517.4 895.829 1518.95 L895.829 1514.23 Q898.653 1513.09 901.107 1512.51 Q903.56 1511.93 905.597 1511.93 Q910.968 1511.93 914.162 1514.62 Q917.356 1517.31 917.356 1521.8 Q917.356 1523.93 916.546 1525.85 Q915.759 1527.74 913.653 1530.34 Q913.074 1531.01 909.972 1534.23 Q906.87 1537.42 901.222 1543.18 Z" fill="#000000" fill-rule="evenodd" fill-opacity="1" /><path clip-path="url(#clip960)" d="M 0 0 M1236.58 1528.49 Q1239.94 1529.2 1241.82 1531.47 Q1243.71 1533.74 1243.71 1537.07 Q1243.71 1542.19 1240.2 1544.99 Q1236.68 1547.79 1230.2 1547.79 Q1228.02 1547.79 1225.7 1547.35 Q1223.41 1546.93 1220.96 1546.08 L1220.96 1541.56 Q1222.9 1542.7 1225.22 1543.28 Q1227.53 1543.86 1230.06 1543.86 Q1234.45 1543.86 1236.75 1542.12 Q1239.06 1540.38 1239.06 1537.07 Q1239.06 1534.02 1236.91 1532.31 Q1234.78 1530.57 1230.96 1530.57 L1226.93 1530.57 L1226.93 1526.73 L1231.14 1526.73 Q1234.59 1526.73 1236.42 1525.36 Q1238.25 1523.97 1238.25 1521.38 Q1238.25 1518.72 1236.35 1517.31 Q1234.48 1515.87 1230.96 1515.87 Q1229.04 1515.87 1226.84 1516.29 Q1224.64 1516.7 1222 1517.58 L1222 1513.42 Q1224.66 1512.68 1226.98 1512.31 Q1229.32 1511.93 1231.38 1511.93 Q1236.7 1511.93 1239.8 1514.37 Q1242.9 1516.77 1242.9 1520.89 Q1242.9 1523.76 1241.26 1525.75 Q1239.62 1527.72 1236.58 1528.49 Z" fill="#000000" fill-rule="evenodd" fill-opacity="1" /><path clip-path="url(#clip960)" d="M 0 0 M1561.11 1516.63 L1549.31 1535.08 L1561.11 1535.08 L1561.11 1516.63 M1559.89 1512.56 L1565.77 1512.56 L1565.77 1535.08 L1570.7 1535.08 L1570.7 1538.97 L1565.77 1538.97 L1565.77 1547.12 L1561.11 1547.12 L1561.11 1538.97 L1545.51 1538.97 L1545.51 1534.46 L1559.89 1512.56 Z" fill="#000000" fill-rule="evenodd" fill-opacity="1" /><path clip-path="url(#clip960)" d="M 0 0 M1874.15 1512.56 L1892.51 1512.56 L1892.51 1516.5 L1878.43 1516.5 L1878.43 1524.97 Q1879.45 1524.62 1880.47 1524.46 Q1881.49 1524.27 1882.51 1524.27 Q1888.29 1524.27 1891.67 1527.44 Q1895.05 1530.62 1895.05 1536.03 Q1895.05 1541.61 1891.58 1544.71 Q1888.11 1547.79 1881.79 1547.79 Q1879.61 1547.79 1877.34 1547.42 Q1875.1 1547.05 1872.69 1546.31 L1872.69 1541.61 Q1874.77 1542.74 1877 1543.3 Q1879.22 1543.86 1881.7 1543.86 Q1885.7 1543.86 1888.04 1541.75 Q1890.38 1539.64 1890.38 1536.03 Q1890.38 1532.42 1888.04 1530.31 Q1885.7 1528.21 1881.7 1528.21 Q1879.82 1528.21 1877.95 1528.62 Q1876.09 1529.04 1874.15 1529.92 L1874.15 1512.56 Z" fill="#000000" fill-rule="evenodd" fill-opacity="1" /><path clip-path="url(#clip960)" d="M 0 0 M2210.04 1527.98 Q2206.9 1527.98 2205.04 1530.13 Q2203.22 1532.28 2203.22 1536.03 Q2203.22 1539.76 2205.04 1541.93 Q2206.9 1544.09 2210.04 1544.09 Q2213.19 1544.09 2215.02 1541.93 Q2216.87 1539.76 2216.87 1536.03 Q2216.87 1532.28 2215.02 1530.13 Q2213.19 1527.98 2210.04 1527.98 M2219.33 1513.32 L2219.33 1517.58 Q2217.57 1516.75 2215.76 1516.31 Q2213.98 1515.87 2212.22 1515.87 Q2207.59 1515.87 2205.14 1519 Q2202.71 1522.12 2202.36 1528.44 Q2203.72 1526.43 2205.78 1525.36 Q2207.85 1524.27 2210.32 1524.27 Q2215.53 1524.27 2218.54 1527.44 Q2221.57 1530.59 2221.57 1536.03 Q2221.57 1541.36 2218.42 1544.57 Q2215.28 1547.79 2210.04 1547.79 Q2204.05 1547.79 2200.88 1543.21 Q2197.71 1538.6 2197.71 1529.87 Q2197.71 1521.68 2201.6 1516.82 Q2205.48 1511.93 2212.03 1511.93 Q2213.79 1511.93 2215.58 1512.28 Q2217.38 1512.63 2219.33 1513.32 Z" fill="#000000" fill-rule="evenodd" fill-opacity="1" /><polyline clip-path="url(#clip962)" style="stroke:#000000; stroke-width:2; stroke-opacity:0.1; fill:none" points="
  193.936,1445.72 2352.76,1445.72 
  "/>
<polyline clip-path="url(#clip962)" style="stroke:#000000; stroke-width:2; stroke-opacity:0.1; fill:none" points="
  193.936,1106.28 2352.76,1106.28 
  "/>
<polyline clip-path="url(#clip962)" style="stroke:#000000; stroke-width:2; stroke-opacity:0.1; fill:none" points="
  193.936,766.846 2352.76,766.846 
  "/>
<polyline clip-path="url(#clip962)" style="stroke:#000000; stroke-width:2; stroke-opacity:0.1; fill:none" points="
  193.936,427.411 2352.76,427.411 
  "/>
<polyline clip-path="url(#clip962)" style="stroke:#000000; stroke-width:2; stroke-opacity:0.1; fill:none" points="
  193.936,87.9763 2352.76,87.9763 
  "/>
<polyline clip-path="url(#clip960)" style="stroke:#000000; stroke-width:4; stroke-opacity:1; fill:none" points="
  193.936,1486.45 193.936,47.2441 
  "/>
<polyline clip-path="url(#clip960)" style="stroke:#000000; stroke-width:4; stroke-opacity:1; fill:none" points="
  193.936,1445.72 219.842,1445.72 
  "/>
<polyline clip-path="url(#clip960)" style="stroke:#000000; stroke-width:4; stroke-opacity:1; fill:none" points="
  193.936,1106.28 219.842,1106.28 
  "/>
<polyline clip-path="url(#clip960)" style="stroke:#000000; stroke-width:4; stroke-opacity:1; fill:none" points="
  193.936,766.846 219.842,766.846 
  "/>
<polyline clip-path="url(#clip960)" style="stroke:#000000; stroke-width:4; stroke-opacity:1; fill:none" points="
  193.936,427.411 219.842,427.411 
  "/>
<polyline clip-path="url(#clip960)" style="stroke:#000000; stroke-width:4; stroke-opacity:1; fill:none" points="
  193.936,87.9763 219.842,87.9763 
  "/>
<path clip-path="url(#clip960)" d="M 0 0 M50.9921 1446.17 L80.6679 1446.17 L80.6679 1450.1 L50.9921 1450.1 L50.9921 1446.17 Z" fill="#000000" fill-rule="evenodd" fill-opacity="1" /><path clip-path="url(#clip960)" d="M 0 0 M91.5706 1459.06 L99.2095 1459.06 L99.2095 1432.69 L90.8993 1434.36 L90.8993 1430.1 L99.1632 1428.44 L103.839 1428.44 L103.839 1459.06 L111.478 1459.06 L111.478 1463 L91.5706 1463 L91.5706 1459.06 Z" fill="#000000" fill-rule="evenodd" fill-opacity="1" /><path clip-path="url(#clip960)" d="M 0 0 M120.922 1457.12 L125.807 1457.12 L125.807 1463 L120.922 1463 L120.922 1457.12 Z" fill="#000000" fill-rule="evenodd" fill-opacity="1" /><path clip-path="url(#clip960)" d="M 0 0 M145.992 1431.51 Q142.381 1431.51 140.552 1435.08 Q138.746 1438.62 138.746 1445.75 Q138.746 1452.86 140.552 1456.42 Q142.381 1459.96 145.992 1459.96 Q149.626 1459.96 151.431 1456.42 Q153.26 1452.86 153.26 1445.75 Q153.26 1438.62 151.431 1435.08 Q149.626 1431.51 145.992 1431.51 M145.992 1427.81 Q151.802 1427.81 154.857 1432.42 Q157.936 1437 157.936 1445.75 Q157.936 1454.48 154.857 1459.08 Q151.802 1463.67 145.992 1463.67 Q140.181 1463.67 137.103 1459.08 Q134.047 1454.48 134.047 1445.75 Q134.047 1437 137.103 1432.42 Q140.181 1427.81 145.992 1427.81 Z" fill="#000000" fill-rule="evenodd" fill-opacity="1" /><path clip-path="url(#clip960)" d="M 0 0 M51.9875 1106.73 L81.6633 1106.73 L81.6633 1110.67 L51.9875 1110.67 L51.9875 1106.73 Z" fill="#000000" fill-rule="evenodd" fill-opacity="1" /><path clip-path="url(#clip960)" d="M 0 0 M101.756 1092.08 Q98.1447 1092.08 96.316 1095.64 Q94.5104 1099.19 94.5104 1106.32 Q94.5104 1113.42 96.316 1116.99 Q98.1447 1120.53 101.756 1120.53 Q105.39 1120.53 107.196 1116.99 Q109.024 1113.42 109.024 1106.32 Q109.024 1099.19 107.196 1095.64 Q105.39 1092.08 101.756 1092.08 M101.756 1088.38 Q107.566 1088.38 110.621 1092.98 Q113.7 1097.57 113.7 1106.32 Q113.7 1115.04 110.621 1119.65 Q107.566 1124.23 101.756 1124.23 Q95.9456 1124.23 92.8669 1119.65 Q89.8114 1115.04 89.8114 1106.32 Q89.8114 1097.57 92.8669 1092.98 Q95.9456 1088.38 101.756 1088.38 Z" fill="#000000" fill-rule="evenodd" fill-opacity="1" /><path clip-path="url(#clip960)" d="M 0 0 M121.918 1117.68 L126.802 1117.68 L126.802 1123.56 L121.918 1123.56 L121.918 1117.68 Z" fill="#000000" fill-rule="evenodd" fill-opacity="1" /><path clip-path="url(#clip960)" d="M 0 0 M137.033 1089 L155.39 1089 L155.39 1092.94 L141.316 1092.94 L141.316 1101.41 Q142.334 1101.06 143.353 1100.9 Q144.371 1100.71 145.39 1100.71 Q151.177 1100.71 154.556 1103.89 Q157.936 1107.06 157.936 1112.47 Q157.936 1118.05 154.464 1121.15 Q150.992 1124.23 144.672 1124.23 Q142.496 1124.23 140.228 1123.86 Q137.982 1123.49 135.575 1122.75 L135.575 1118.05 Q137.658 1119.19 139.881 1119.74 Q142.103 1120.3 144.58 1120.3 Q148.584 1120.3 150.922 1118.19 Q153.26 1116.08 153.26 1112.47 Q153.26 1108.86 150.922 1106.76 Q148.584 1104.65 144.58 1104.65 Q142.705 1104.65 140.83 1105.07 Q138.978 1105.48 137.033 1106.36 L137.033 1089 Z" fill="#000000" fill-rule="evenodd" fill-opacity="1" /><path clip-path="url(#clip960)" d="M 0 0 M100.76 752.645 Q97.1493 752.645 95.3206 756.209 Q93.515 759.751 93.515 766.881 Q93.515 773.987 95.3206 777.552 Q97.1493 781.094 100.76 781.094 Q104.395 781.094 106.2 777.552 Q108.029 773.987 108.029 766.881 Q108.029 759.751 106.2 756.209 Q104.395 752.645 100.76 752.645 M100.76 748.941 Q106.571 748.941 109.626 753.547 Q112.705 758.131 112.705 766.881 Q112.705 775.608 109.626 780.214 Q106.571 784.797 100.76 784.797 Q94.9502 784.797 91.8715 780.214 Q88.816 775.608 88.816 766.881 Q88.816 758.131 91.8715 753.547 Q94.9502 748.941 100.76 748.941 Z" fill="#000000" fill-rule="evenodd" fill-opacity="1" /><path clip-path="url(#clip960)" d="M 0 0 M120.922 778.246 L125.807 778.246 L125.807 784.126 L120.922 784.126 L120.922 778.246 Z" fill="#000000" fill-rule="evenodd" fill-opacity="1" /><path clip-path="url(#clip960)" d="M 0 0 M145.992 752.645 Q142.381 752.645 140.552 756.209 Q138.746 759.751 138.746 766.881 Q138.746 773.987 140.552 777.552 Q142.381 781.094 145.992 781.094 Q149.626 781.094 151.431 777.552 Q153.26 773.987 153.26 766.881 Q153.26 759.751 151.431 756.209 Q149.626 752.645 145.992 752.645 M145.992 748.941 Q151.802 748.941 154.857 753.547 Q157.936 758.131 157.936 766.881 Q157.936 775.608 154.857 780.214 Q151.802 784.797 145.992 784.797 Q140.181 784.797 137.103 780.214 Q134.047 775.608 134.047 766.881 Q134.047 758.131 137.103 753.547 Q140.181 748.941 145.992 748.941 Z" fill="#000000" fill-rule="evenodd" fill-opacity="1" /><path clip-path="url(#clip960)" d="M 0 0 M101.756 413.21 Q98.1447 413.21 96.316 416.775 Q94.5104 420.316 94.5104 427.446 Q94.5104 434.552 96.316 438.117 Q98.1447 441.659 101.756 441.659 Q105.39 441.659 107.196 438.117 Q109.024 434.552 109.024 427.446 Q109.024 420.316 107.196 416.775 Q105.39 413.21 101.756 413.21 M101.756 409.506 Q107.566 409.506 110.621 414.113 Q113.7 418.696 113.7 427.446 Q113.7 436.173 110.621 440.779 Q107.566 445.362 101.756 445.362 Q95.9456 445.362 92.8669 440.779 Q89.8114 436.173 89.8114 427.446 Q89.8114 418.696 92.8669 414.113 Q95.9456 409.506 101.756 409.506 Z" fill="#000000" fill-rule="evenodd" fill-opacity="1" /><path clip-path="url(#clip960)" d="M 0 0 M121.918 438.812 L126.802 438.812 L126.802 444.691 L121.918 444.691 L121.918 438.812 Z" fill="#000000" fill-rule="evenodd" fill-opacity="1" /><path clip-path="url(#clip960)" d="M 0 0 M137.033 410.131 L155.39 410.131 L155.39 414.066 L141.316 414.066 L141.316 422.538 Q142.334 422.191 143.353 422.029 Q144.371 421.844 145.39 421.844 Q151.177 421.844 154.556 425.015 Q157.936 428.187 157.936 433.603 Q157.936 439.182 154.464 442.284 Q150.992 445.362 144.672 445.362 Q142.496 445.362 140.228 444.992 Q137.982 444.622 135.575 443.881 L135.575 439.182 Q137.658 440.316 139.881 440.872 Q142.103 441.427 144.58 441.427 Q148.584 441.427 150.922 439.321 Q153.26 437.214 153.26 433.603 Q153.26 429.992 150.922 427.886 Q148.584 425.779 144.58 425.779 Q142.705 425.779 140.83 426.196 Q138.978 426.613 137.033 427.492 L137.033 410.131 Z" fill="#000000" fill-rule="evenodd" fill-opacity="1" /><path clip-path="url(#clip960)" d="M 0 0 M91.5706 101.321 L99.2095 101.321 L99.2095 74.9555 L90.8993 76.6222 L90.8993 72.3629 L99.1632 70.6963 L103.839 70.6963 L103.839 101.321 L111.478 101.321 L111.478 105.256 L91.5706 105.256 L91.5706 101.321 Z" fill="#000000" fill-rule="evenodd" fill-opacity="1" /><path clip-path="url(#clip960)" d="M 0 0 M120.922 99.3767 L125.807 99.3767 L125.807 105.256 L120.922 105.256 L120.922 99.3767 Z" fill="#000000" fill-rule="evenodd" fill-opacity="1" /><path clip-path="url(#clip960)" d="M 0 0 M145.992 73.775 Q142.381 73.775 140.552 77.3398 Q138.746 80.8814 138.746 88.011 Q138.746 95.1174 140.552 98.6822 Q142.381 102.224 145.992 102.224 Q149.626 102.224 151.431 98.6822 Q153.26 95.1174 153.26 88.011 Q153.26 80.8814 151.431 77.3398 Q149.626 73.775 145.992 73.775 M145.992 70.0713 Q151.802 70.0713 154.857 74.6777 Q157.936 79.261 157.936 88.011 Q157.936 96.7378 154.857 101.344 Q151.802 105.928 145.992 105.928 Q140.181 105.928 137.103 101.344 Q134.047 96.7378 134.047 88.011 Q134.047 79.261 137.103 74.6777 Q140.181 70.0713 145.992 70.0713 Z" fill="#000000" fill-rule="evenodd" fill-opacity="1" /><polyline clip-path="url(#clip962)" style="stroke:#009af9; stroke-width:8; stroke-opacity:1; fill:none" points="
  255.035,766.846 265.269,745.522 275.503,724.219 285.738,702.959 295.972,681.761 306.206,660.647 316.44,639.638 326.675,618.755 336.909,598.018 347.143,577.447 
  357.378,557.064 367.612,536.887 377.846,516.937 388.08,497.234 398.315,477.797 408.549,458.646 418.783,439.798 429.018,421.273 439.252,403.089 449.486,385.265 
  459.72,367.816 469.955,350.762 480.189,334.118 490.423,317.901 500.657,302.128 510.892,286.813 521.126,271.971 531.36,257.618 541.595,243.768 551.829,230.434 
  562.063,217.629 572.297,205.366 582.532,193.657 592.766,182.514 603,171.948 613.235,161.969 623.469,152.586 633.703,143.81 643.937,135.649 654.172,128.111 
  664.406,121.203 674.64,114.932 684.875,109.304 695.109,104.326 705.343,100.001 715.577,96.3343 725.812,93.3294 736.046,90.9891 746.28,89.3159 756.515,88.3113 
  766.749,87.9763 776.983,88.3113 787.217,89.3159 797.452,90.9891 807.686,93.3294 817.92,96.3343 828.155,100.001 838.389,104.326 848.623,109.304 858.857,114.932 
  869.092,121.203 879.326,128.111 889.56,135.649 899.795,143.81 910.029,152.586 920.263,161.969 930.497,171.948 940.732,182.514 950.966,193.657 961.2,205.366 
  971.435,217.629 981.669,230.434 991.903,243.768 1002.14,257.618 1012.37,271.971 1022.61,286.813 1032.84,302.128 1043.07,317.901 1053.31,334.118 1063.54,350.762 
  1073.78,367.816 1084.01,385.265 1094.25,403.089 1104.48,421.273 1114.71,439.798 1124.95,458.646 1135.18,477.797 1145.42,497.234 1155.65,516.937 1165.89,536.887 
  1176.12,557.064 1186.35,577.447 1196.59,598.018 1206.82,618.755 1217.06,639.638 1227.29,660.647 1237.53,681.761 1247.76,702.959 1257.99,724.219 1268.23,745.522 
  1278.46,766.846 1288.7,788.17 1298.93,809.473 1309.17,830.733 1319.4,851.931 1329.63,873.045 1339.87,894.053 1350.1,914.937 1360.34,935.674 1370.57,956.245 
  1380.81,976.628 1391.04,996.805 1401.27,1016.75 1411.51,1036.46 1421.74,1055.89 1431.98,1075.05 1442.21,1093.89 1452.45,1112.42 1462.68,1130.6 1472.91,1148.43 
  1483.15,1165.88 1493.38,1182.93 1503.62,1199.57 1513.85,1215.79 1524.09,1231.56 1534.32,1246.88 1544.55,1261.72 1554.79,1276.07 1565.02,1289.92 1575.26,1303.26 
  1585.49,1316.06 1595.73,1328.33 1605.96,1340.03 1616.19,1351.18 1626.43,1361.74 1636.66,1371.72 1646.9,1381.11 1657.13,1389.88 1667.37,1398.04 1677.6,1405.58 
  1687.83,1412.49 1698.07,1418.76 1708.3,1424.39 1718.54,1429.37 1728.77,1433.69 1739.01,1437.36 1749.24,1440.36 1759.47,1442.7 1769.71,1444.38 1779.94,1445.38 
  1790.18,1445.72 1800.41,1445.38 1810.65,1444.38 1820.88,1442.7 1831.11,1440.36 1841.35,1437.36 1851.58,1433.69 1861.82,1429.37 1872.05,1424.39 1882.29,1418.76 
  1892.52,1412.49 1902.75,1405.58 1912.99,1398.04 1923.22,1389.88 1933.46,1381.11 1943.69,1371.72 1953.93,1361.74 1964.16,1351.18 1974.39,1340.03 1984.63,1328.33 
  1994.86,1316.06 2005.1,1303.26 2015.33,1289.92 2025.57,1276.07 2035.8,1261.72 2046.03,1246.88 2056.27,1231.56 2066.5,1215.79 2076.74,1199.57 2086.97,1182.93 
  2097.21,1165.88 2107.44,1148.43 2117.67,1130.6 2127.91,1112.42 2138.14,1093.89 2148.38,1075.05 2158.61,1055.89 2168.85,1036.46 2179.08,1016.75 2189.31,996.805 
  2199.55,976.628 2209.78,956.245 2220.02,935.674 2230.25,914.937 2240.49,894.053 2250.72,873.045 2260.95,851.931 2271.19,830.733 2281.42,809.473 2291.66,788.17 
  
  "/>
<polyline clip-path="url(#clip962)" style="stroke:#e26f46; stroke-width:8; stroke-opacity:1; fill:none" points="
  255.035,87.9763 265.269,88.3113 275.503,89.3159 285.738,90.9891 295.972,93.3294 306.206,96.3343 316.44,100.001 326.675,104.326 336.909,109.304 347.143,114.932 
  357.378,121.203 367.612,128.111 377.846,135.649 388.08,143.81 398.315,152.586 408.549,161.969 418.783,171.948 429.018,182.514 439.252,193.657 449.486,205.366 
  459.72,217.629 469.955,230.434 480.189,243.768 490.423,257.618 500.657,271.971 510.892,286.813 521.126,302.128 531.36,317.901 541.595,334.118 551.829,350.762 
  562.063,367.816 572.297,385.265 582.532,403.089 592.766,421.273 603,439.798 613.235,458.646 623.469,477.797 633.703,497.234 643.937,516.937 654.172,536.887 
  664.406,557.064 674.64,577.447 684.875,598.018 695.109,618.755 705.343,639.638 715.577,660.647 725.812,681.761 736.046,702.959 746.28,724.219 756.515,745.522 
  766.749,766.846 776.983,788.17 787.217,809.473 797.452,830.733 807.686,851.931 817.92,873.045 828.155,894.053 838.389,914.937 848.623,935.674 858.857,956.245 
  869.092,976.628 879.326,996.805 889.56,1016.75 899.795,1036.46 910.029,1055.89 920.263,1075.05 930.497,1093.89 940.732,1112.42 950.966,1130.6 961.2,1148.43 
  971.435,1165.88 981.669,1182.93 991.903,1199.57 1002.14,1215.79 1012.37,1231.56 1022.61,1246.88 1032.84,1261.72 1043.07,1276.07 1053.31,1289.92 1063.54,1303.26 
  1073.78,1316.06 1084.01,1328.33 1094.25,1340.03 1104.48,1351.18 1114.71,1361.74 1124.95,1371.72 1135.18,1381.11 1145.42,1389.88 1155.65,1398.04 1165.89,1405.58 
  1176.12,1412.49 1186.35,1418.76 1196.59,1424.39 1206.82,1429.37 1217.06,1433.69 1227.29,1437.36 1237.53,1440.36 1247.76,1442.7 1257.99,1444.38 1268.23,1445.38 
  1278.46,1445.72 1288.7,1445.38 1298.93,1444.38 1309.17,1442.7 1319.4,1440.36 1329.63,1437.36 1339.87,1433.69 1350.1,1429.37 1360.34,1424.39 1370.57,1418.76 
  1380.81,1412.49 1391.04,1405.58 1401.27,1398.04 1411.51,1389.88 1421.74,1381.11 1431.98,1371.72 1442.21,1361.74 1452.45,1351.18 1462.68,1340.03 1472.91,1328.33 
  1483.15,1316.06 1493.38,1303.26 1503.62,1289.92 1513.85,1276.07 1524.09,1261.72 1534.32,1246.88 1544.55,1231.56 1554.79,1215.79 1565.02,1199.57 1575.26,1182.93 
  1585.49,1165.88 1595.73,1148.43 1605.96,1130.6 1616.19,1112.42 1626.43,1093.89 1636.66,1075.05 1646.9,1055.89 1657.13,1036.46 1667.37,1016.75 1677.6,996.805 
  1687.83,976.628 1698.07,956.245 1708.3,935.674 1718.54,914.937 1728.77,894.053 1739.01,873.045 1749.24,851.931 1759.47,830.733 1769.71,809.473 1779.94,788.17 
  1790.18,766.846 1800.41,745.522 1810.65,724.219 1820.88,702.959 1831.11,681.761 1841.35,660.647 1851.58,639.638 1861.82,618.755 1872.05,598.018 1882.29,577.447 
  1892.52,557.064 1902.75,536.887 1912.99,516.937 1923.22,497.234 1933.46,477.797 1943.69,458.646 1953.93,439.798 1964.16,421.273 1974.39,403.089 1984.63,385.265 
  1994.86,367.816 2005.1,350.762 2015.33,334.118 2025.57,317.901 2035.8,302.128 2046.03,286.813 2056.27,271.971 2066.5,257.618 2076.74,243.768 2086.97,230.434 
  2097.21,217.629 2107.44,205.366 2117.67,193.657 2127.91,182.514 2138.14,171.948 2148.38,161.969 2158.61,152.586 2168.85,143.81 2179.08,135.649 2189.31,128.111 
  2199.55,121.203 2209.78,114.932 2220.02,109.304 2230.25,104.326 2240.49,100.001 2250.72,96.3343 2260.95,93.3294 2271.19,90.9891 2281.42,89.3159 2291.66,88.3113 
  
  "/>
<path clip-path="url(#clip960)" d="
M1868.13 276.658 L2280.8 276.658 L2280.8 95.2176 L1868.13 95.2176  Z
  " fill="#ffffff" fill-rule="evenodd" fill-opacity="1"/>
<polyline clip-path="url(#clip960)" style="stroke:#000000; stroke-width:4; stroke-opacity:1; fill:none" points="
  1868.13,276.658 2280.8,276.658 2280.8,95.2176 1868.13,95.2176 1868.13,276.658 
  "/>
<polyline clip-path="url(#clip960)" style="stroke:#009af9; stroke-width:4; stroke-opacity:1; fill:none" points="
  1892.11,155.698 2036.03,155.698 
  "/>
<path clip-path="url(#clip960)" d="M 0 0 M2078.45 147.816 L2078.45 151.843 Q2076.64 150.917 2074.7 150.455 Q2072.75 149.992 2070.67 149.992 Q2067.5 149.992 2065.9 150.964 Q2064.33 151.936 2064.33 153.88 Q2064.33 155.362 2065.46 156.218 Q2066.6 157.052 2070.02 157.816 L2071.48 158.14 Q2076.02 159.112 2077.91 160.894 Q2079.84 162.654 2079.84 165.825 Q2079.84 169.436 2076.97 171.542 Q2074.12 173.649 2069.12 173.649 Q2067.04 173.649 2064.77 173.232 Q2062.52 172.839 2060.02 172.028 L2060.02 167.63 Q2062.38 168.857 2064.67 169.482 Q2066.97 170.084 2069.21 170.084 Q2072.22 170.084 2073.84 169.066 Q2075.46 168.024 2075.46 166.149 Q2075.46 164.413 2074.28 163.487 Q2073.12 162.561 2069.16 161.704 L2067.68 161.357 Q2063.73 160.524 2061.97 158.811 Q2060.21 157.075 2060.21 154.066 Q2060.21 150.408 2062.8 148.418 Q2065.39 146.427 2070.16 146.427 Q2072.52 146.427 2074.6 146.774 Q2076.69 147.121 2078.45 147.816 Z" fill="#000000" fill-rule="evenodd" fill-opacity="1" /><path clip-path="url(#clip960)" d="M 0 0 M2086.62 147.052 L2090.88 147.052 L2090.88 172.978 L2086.62 172.978 L2086.62 147.052 M2086.62 136.959 L2090.88 136.959 L2090.88 142.353 L2086.62 142.353 L2086.62 136.959 Z" fill="#000000" fill-rule="evenodd" fill-opacity="1" /><path clip-path="url(#clip960)" d="M 0 0 M2121.34 157.329 L2121.34 172.978 L2117.08 172.978 L2117.08 157.468 Q2117.08 153.788 2115.65 151.959 Q2114.21 150.13 2111.34 150.13 Q2107.89 150.13 2105.9 152.33 Q2103.91 154.529 2103.91 158.325 L2103.91 172.978 L2099.63 172.978 L2099.63 147.052 L2103.91 147.052 L2103.91 151.08 Q2105.44 148.742 2107.5 147.584 Q2109.58 146.427 2112.29 146.427 Q2116.76 146.427 2119.05 149.205 Q2121.34 151.959 2121.34 157.329 Z" fill="#000000" fill-rule="evenodd" fill-opacity="1" /><path clip-path="url(#clip960)" d="M 0 0 M2129.4 162.746 L2129.4 147.052 L2133.66 147.052 L2133.66 162.584 Q2133.66 166.265 2135.09 168.116 Q2136.53 169.945 2139.4 169.945 Q2142.85 169.945 2144.84 167.746 Q2146.85 165.547 2146.85 161.751 L2146.85 147.052 L2151.11 147.052 L2151.11 172.978 L2146.85 172.978 L2146.85 168.996 Q2145.3 171.357 2143.24 172.515 Q2141.2 173.649 2138.49 173.649 Q2134.03 173.649 2131.71 170.871 Q2129.4 168.093 2129.4 162.746 M2140.11 146.427 L2140.11 146.427 Z" fill="#000000" fill-rule="evenodd" fill-opacity="1" /><path clip-path="url(#clip960)" d="M 0 0 M2176.41 147.816 L2176.41 151.843 Q2174.6 150.917 2172.66 150.455 Q2170.72 149.992 2168.63 149.992 Q2165.46 149.992 2163.86 150.964 Q2162.29 151.936 2162.29 153.88 Q2162.29 155.362 2163.42 156.218 Q2164.56 157.052 2167.98 157.816 L2169.44 158.14 Q2173.98 159.112 2175.88 160.894 Q2177.8 162.654 2177.8 165.825 Q2177.8 169.436 2174.93 171.542 Q2172.08 173.649 2167.08 173.649 Q2165 173.649 2162.73 173.232 Q2160.48 172.839 2157.98 172.028 L2157.98 167.63 Q2160.35 168.857 2162.64 169.482 Q2164.93 170.084 2167.17 170.084 Q2170.18 170.084 2171.8 169.066 Q2173.42 168.024 2173.42 166.149 Q2173.42 164.413 2172.24 163.487 Q2171.09 162.561 2167.13 161.704 L2165.65 161.357 Q2161.69 160.524 2159.93 158.811 Q2158.17 157.075 2158.17 154.066 Q2158.17 150.408 2160.76 148.418 Q2163.35 146.427 2168.12 146.427 Q2170.48 146.427 2172.57 146.774 Q2174.65 147.121 2176.41 147.816 Z" fill="#000000" fill-rule="evenodd" fill-opacity="1" /><polyline clip-path="url(#clip960)" style="stroke:#e26f46; stroke-width:4; stroke-opacity:1; fill:none" points="
  1892.11,216.178 2036.03,216.178 
  "/>
<path clip-path="url(#clip960)" d="M 0 0 M2080.53 208.527 L2080.53 212.509 Q2078.73 211.513 2076.9 211.027 Q2075.09 210.518 2073.24 210.518 Q2069.1 210.518 2066.8 213.157 Q2064.51 215.772 2064.51 220.518 Q2064.51 225.263 2066.8 227.902 Q2069.1 230.518 2073.24 230.518 Q2075.09 230.518 2076.9 230.032 Q2078.73 229.522 2080.53 228.527 L2080.53 232.462 Q2078.75 233.296 2076.83 233.712 Q2074.93 234.129 2072.78 234.129 Q2066.92 234.129 2063.47 230.448 Q2060.02 226.768 2060.02 220.518 Q2060.02 214.175 2063.49 210.541 Q2066.99 206.907 2073.05 206.907 Q2075.02 206.907 2076.9 207.323 Q2078.77 207.717 2080.53 208.527 Z" fill="#000000" fill-rule="evenodd" fill-opacity="1" /><path clip-path="url(#clip960)" d="M 0 0 M2097.98 210.518 Q2094.56 210.518 2092.57 213.203 Q2090.58 215.865 2090.58 220.518 Q2090.58 225.171 2092.54 227.856 Q2094.54 230.518 2097.98 230.518 Q2101.39 230.518 2103.38 227.833 Q2105.37 225.147 2105.37 220.518 Q2105.37 215.911 2103.38 213.226 Q2101.39 210.518 2097.98 210.518 M2097.98 206.907 Q2103.54 206.907 2106.71 210.518 Q2109.88 214.129 2109.88 220.518 Q2109.88 226.884 2106.71 230.518 Q2103.54 234.129 2097.98 234.129 Q2092.41 234.129 2089.23 230.518 Q2086.09 226.884 2086.09 220.518 Q2086.09 214.129 2089.23 210.518 Q2092.41 206.907 2097.98 206.907 Z" fill="#000000" fill-rule="evenodd" fill-opacity="1" /><path clip-path="url(#clip960)" d="M 0 0 M2133.47 208.296 L2133.47 212.323 Q2131.66 211.397 2129.72 210.935 Q2127.78 210.472 2125.69 210.472 Q2122.52 210.472 2120.92 211.444 Q2119.35 212.416 2119.35 214.36 Q2119.35 215.842 2120.48 216.698 Q2121.62 217.532 2125.04 218.296 L2126.5 218.62 Q2131.04 219.592 2132.94 221.374 Q2134.86 223.134 2134.86 226.305 Q2134.86 229.916 2131.99 232.022 Q2129.14 234.129 2124.14 234.129 Q2122.06 234.129 2119.79 233.712 Q2117.54 233.319 2115.04 232.508 L2115.04 228.11 Q2117.41 229.337 2119.7 229.962 Q2121.99 230.564 2124.23 230.564 Q2127.24 230.564 2128.86 229.546 Q2130.48 228.504 2130.48 226.629 Q2130.48 224.893 2129.3 223.967 Q2128.15 223.041 2124.19 222.184 L2122.71 221.837 Q2118.75 221.004 2116.99 219.291 Q2115.23 217.555 2115.23 214.546 Q2115.23 210.888 2117.82 208.898 Q2120.41 206.907 2125.18 206.907 Q2127.54 206.907 2129.63 207.254 Q2131.71 207.601 2133.47 208.296 Z" fill="#000000" fill-rule="evenodd" fill-opacity="1" /><path clip-path="url(#clip960)" d="M 0 0 M2141.64 207.532 L2145.9 207.532 L2145.9 233.458 L2141.64 233.458 L2141.64 207.532 M2141.64 197.439 L2145.9 197.439 L2145.9 202.833 L2141.64 202.833 L2141.64 197.439 Z" fill="#000000" fill-rule="evenodd" fill-opacity="1" /><path clip-path="url(#clip960)" d="M 0 0 M2176.36 217.809 L2176.36 233.458 L2172.1 233.458 L2172.1 217.948 Q2172.1 214.268 2170.67 212.439 Q2169.23 210.61 2166.36 210.61 Q2162.91 210.61 2160.92 212.81 Q2158.93 215.009 2158.93 218.805 L2158.93 233.458 L2154.65 233.458 L2154.65 207.532 L2158.93 207.532 L2158.93 211.56 Q2160.46 209.222 2162.52 208.064 Q2164.6 206.907 2167.31 206.907 Q2171.78 206.907 2174.07 209.685 Q2176.36 212.439 2176.36 217.809 Z" fill="#000000" fill-rule="evenodd" fill-opacity="1" /><path clip-path="url(#clip960)" d="M 0 0 M2184.42 223.226 L2184.42 207.532 L2188.68 207.532 L2188.68 223.064 Q2188.68 226.745 2190.11 228.596 Q2191.55 230.425 2194.42 230.425 Q2197.87 230.425 2199.86 228.226 Q2201.87 226.027 2201.87 222.231 L2201.87 207.532 L2206.13 207.532 L2206.13 233.458 L2201.87 233.458 L2201.87 229.476 Q2200.32 231.837 2198.26 232.995 Q2196.22 234.129 2193.52 234.129 Q2189.05 234.129 2186.73 231.351 Q2184.42 228.573 2184.42 223.226 M2195.14 206.907 L2195.14 206.907 Z" fill="#000000" fill-rule="evenodd" fill-opacity="1" /><path clip-path="url(#clip960)" d="M 0 0 M2231.43 208.296 L2231.43 212.323 Q2229.63 211.397 2227.68 210.935 Q2225.74 210.472 2223.65 210.472 Q2220.48 210.472 2218.89 211.444 Q2217.31 212.416 2217.31 214.36 Q2217.31 215.842 2218.45 216.698 Q2219.58 217.532 2223.01 218.296 L2224.47 218.62 Q2229 219.592 2230.9 221.374 Q2232.82 223.134 2232.82 226.305 Q2232.82 229.916 2229.95 232.022 Q2227.1 234.129 2222.1 234.129 Q2220.02 234.129 2217.75 233.712 Q2215.51 233.319 2213.01 232.508 L2213.01 228.11 Q2215.37 229.337 2217.66 229.962 Q2219.95 230.564 2222.2 230.564 Q2225.21 230.564 2226.83 229.546 Q2228.45 228.504 2228.45 226.629 Q2228.45 224.893 2227.27 223.967 Q2226.11 223.041 2222.15 222.184 L2220.67 221.837 Q2216.71 221.004 2214.95 219.291 Q2213.19 217.555 2213.19 214.546 Q2213.19 210.888 2215.78 208.898 Q2218.38 206.907 2223.15 206.907 Q2225.51 206.907 2227.59 207.254 Q2229.67 207.601 2231.43 208.296 Z" fill="#000000" fill-rule="evenodd" fill-opacity="1" /></svg>
