<?xml version="1.0" encoding="UTF-8" standalone="no"?>
<svg
   xmlns:dc="http://purl.org/dc/elements/1.1/"
   xmlns:cc="http://creativecommons.org/ns#"
   xmlns:rdf="http://www.w3.org/1999/02/22-rdf-syntax-ns#"
   xmlns:svg="http://www.w3.org/2000/svg"
   xmlns="http://www.w3.org/2000/svg"
   xmlns:sodipodi="http://sodipodi.sourceforge.net/DTD/sodipodi-0.dtd"
   xmlns:inkscape="http://www.inkscape.org/namespaces/inkscape"
   height="536.59979"
   width="2869.9089"
   id="svg3009"
   version="1.1"
   viewBox="-22.97106 -24.6679 476.12392 99.275922"
   sodipodi:docname="logo.svg"
   inkscape:version="0.92.5 (2060ec1f9f, 2020-04-08)">
  <metadata
     id="metadata27">
    <rdf:RDF>
      <cc:Work
         rdf:about="">
        <dc:format>image/svg+xml</dc:format>
        <dc:type
           rdf:resource="http://purl.org/dc/dcmitype/StillImage" />
        <dc:title />
      </cc:Work>
    </rdf:RDF>
  </metadata>
  <sodipodi:namedview
     pagecolor="#ffffff"
     bordercolor="#666666"
     borderopacity="1"
     objecttolerance="10"
     gridtolerance="10"
     guidetolerance="10"
     inkscape:pageopacity="0"
     inkscape:pageshadow="2"
     inkscape:window-width="1920"
     inkscape:window-height="976"
     id="namedview25"
     showgrid="false"
     fit-margin-top="0"
     fit-margin-left="0"
     fit-margin-right="0"
     fit-margin-bottom="0"
     inkscape:zoom="0.28916667"
     inkscape:cx="1316.8795"
     inkscape:cy="795.5264"
     inkscape:window-x="0"
     inkscape:window-y="27"
     inkscape:window-maximized="1"
     inkscape:current-layer="svg3009" />
  <defs
     id="defs2985">
    <style
       id="style2983">.cls-1{fill:#1a1a1a}</style>
  </defs>
  <g
     id="g1044">
    <flowRoot
       transform="matrix(0.18500925,0,0,0.18500925,117.01751,-36.138635)"
       style="font-style:normal;font-variant:normal;font-weight:normal;font-stretch:normal;font-size:40px;line-height:1.25;font-family:'Tamil MN';-inkscape-font-specification:'Tamil MN';letter-spacing:0px;word-spacing:0px;fill:#000000;fill-opacity:1;stroke:none"
       id="flowRoot29"
       xml:space="preserve"><flowRegion
         style="font-style:normal;font-variant:normal;font-weight:normal;font-stretch:normal;font-family:'Tamil MN';-inkscape-font-specification:'Tamil MN'"
         id="flowRegion31"><rect
           style="font-style:normal;font-variant:normal;font-weight:normal;font-stretch:normal;font-family:'Tamil MN';-inkscape-font-specification:'Tamil MN'"
           y="-652.44958"
           x="-1289.9136"
           height="636.31122"
           width="1047.8386"
           id="rect33" /></flowRegion><flowPara
         id="flowPara35" /></flowRoot>    <path
       inkscape:connector-curvature="0"
       id="path911"
       d="m -4.6643426,24.131664 v -0.844156 c -0.4756317,-0.04236 -0.9506583,-0.09682 -1.4256849,-0.158544 v 0.844156 c 0.4750266,0.06112 0.9621558,0.11558 1.4256849,0.158544"
       style="fill:#9457b0;fill-opacity:1;fill-rule:evenodd;stroke:none;stroke-width:0.60512942" />
    <path
       inkscape:connector-curvature="0"
       id="path909"
       d="m -17.991717,8.6724226 c -0.590606,0.222082 -1.169715,0.453847 -1.730064,0.697109 1.730064,0.11558 3.460735,0.295303 5.1908,0.53675 0.03328,-0.274124 0.05446,-0.557929 0.07564,-0.832053 -1.2151,-0.158544 -2.384815,-0.295303 -3.536376,-0.401806 z"
       style="fill:#9457b0;fill-opacity:1;fill-rule:evenodd;stroke:none;stroke-width:0.60512942" />
    <path
       inkscape:connector-curvature="0"
       id="path907"
       d="m -10.616399,10.561032 c 0.105897,-0.179724 0.200903,-0.359447 0.285621,-0.53675 0.03086,-0.07564 0.07322,-0.1585444 0.116185,-0.2553654 -0.591212,-0.104082 -1.170321,-0.209979 -1.739747,-0.304985 -0.02118,0.274124 -0.05446,0.5603504 -0.07564,0.8344744 0.465345,0.0829 0.940371,0.177303 1.413583,0.262626 z"
       style="fill:#9457b0;fill-opacity:1;fill-rule:evenodd;stroke:none;stroke-width:0.60512942" />
    <path
       inkscape:connector-curvature="0"
       id="path905"
       d="m -8.06154,11.0881 c 0.137364,-0.262627 0.252944,-0.527068 0.3594475,-0.801192 4.3351473,0.959735 8.27090885,2.183912 11.521059,3.503094 -0.042359,0.285621 -0.0944,0.569427 -0.1367593,0.855653 C 0.67531915,13.378514 -2.468328,12.428461 -5.6150009,11.636347 -6.4258743,11.447546 -7.238563,11.267823 -8.06154,11.0881 Z"
       style="fill:#9457b0;fill-opacity:1;fill-rule:evenodd;stroke:none;stroke-width:0.60512942" />
    <path
       inkscape:connector-curvature="0"
       id="path903"
       d="m 7.5326456,16.47012 c 0.075641,-0.274123 0.1488618,-0.559744 0.2220825,-0.833868 3.5974919,1.96425 5.5502479,3.989618 5.0231749,5.665827 -0.80119,2.47982 -6.7320604,3.557555 -14.7100864,3.060744 V 23.50717 c 2.35455846,0.137365 4.7066965,0.148862 7.0606499,-0.0091 2.0138706,-0.210562 4.1463466,-0.453824 5.9405545,-1.456523 0.694687,-0.496206 1.127354,-0.950053 0.85323,-1.824465 C 11.205779,18.706679 9.5586188,17.673723 8.1970777,16.829567 7.9768106,16.713988 7.7547281,16.586305 7.5326456,16.47012 Z"
       style="fill:#9457b0;fill-opacity:1;fill-rule:evenodd;stroke:none;stroke-width:0.60512942" />
    <path
       inkscape:connector-curvature="0"
       id="path901"
       d="m -2.5227897,24.320464 v -0.84355 c -0.453847,-0.03328 -0.9076941,-0.07383 -1.3615411,-0.116185 v 0.844155 c 0.453847,0.04236 0.9191916,0.08472 1.3615411,0.11558 z"
       style="fill:#9457b0;fill-opacity:1;fill-rule:evenodd;stroke:none;stroke-width:0.60512942" />
    <path
       inkscape:connector-curvature="0"
       id="path899"
       d="m 50.80424,32.655516 v 16.175112 h 8.083923 V 32.655516 l 0.832053,-0.832052 V 49.665101 H 49.972187 V 31.823464 Z"
       style="fill:#1a1a1a;fill-opacity:1;fill-rule:evenodd;stroke:none;stroke-width:0.60512942" />
    <path
       inkscape:connector-curvature="0"
       id="path897"
       d="m 54.867683,32.962317 c 2.625657,0 4.76963,-2.141553 4.76963,-4.76963 0,-2.626261 -2.143973,-4.767814 -4.76963,-4.767814 -2.628682,0 -4.770235,2.141553 -4.770235,4.767814 0,2.628077 2.141553,4.76963 4.770235,4.76963 z"
       style="fill:#ca3c32;fill-opacity:1;fill-rule:evenodd;stroke:none;stroke-width:0.60512942" />
    <path
       inkscape:connector-curvature="0"
       id="path895"
       d="m 30.061614,29.215961 h 16.965408 v 6.975327 h -9.200388 v 3.366337 h 4.157845 v 6.774423 l -4.69641,-0.03328 v 2.534282 h -7.216773 z"
       style="fill:#0065bd;fill-opacity:1;fill-rule:evenodd;stroke:none;stroke-width:0.60512942" />
    <path
       inkscape:connector-curvature="0"
       id="path893"
       d="m 29.236823,49.665101 -0.0097,-21.281193 H 47.860872 V 37.02334 H 38.66109 v 1.699811 h 4.155423 v 8.453053 l -4.693988,-0.03328 v 2.522179 z"
       style="fill:#1a1a1a;fill-opacity:1;fill-rule:evenodd;stroke:none;stroke-width:0.60512942" />
    <path
       inkscape:connector-curvature="0"
       id="path891"
       d="m 26.957905,31.801679 -0.812688,0.813294 -0.01937,8.185588 c -0.645068,3.758458 -3.356047,6.396823 -6.902106,7.57864 -0.432667,0.125262 -0.916771,0.252944 -1.370618,0.326165 -2.217799,0.338267 -4.432573,0 -6.479123,-0.907694 L 10.581892,47.407363 C 10.350128,47.270604 10.023963,47.069701 9.7921988,46.920839 l 3.1224632,-7.195593 c 1.560634,0.432667 3.661643,1.023879 4.737563,-0.633571 0.23116,-0.432667 0.347345,-0.832053 0.410883,-1.318577 l 0.03328,-5.158125 -0.865335,-0.791509 v 5.887911 C 17.124551,38.966413 16.281,39.429943 15.404168,39.365799 14.31675,39.262322 13.390297,39.049316 12.449317,38.67111 l -3.6924966,8.557135 c 2.1203726,1.529162 4.4628306,2.351533 7.1338716,2.458036 5.727549,0.0944 10.455425,-4.082203 11.067211,-8.809474 z"
       style="fill:#1a1a1a;fill-opacity:1;fill-rule:evenodd;stroke:none;stroke-width:0.60512942" />
    <path
       inkscape:connector-curvature="0"
       id="path889"
       d="M -4.9693278,29.215961 H 11.995472 v 6.975327 H 2.7956926 v 3.366337 h 4.1578441 v 6.774423 l -4.6970144,-0.03328 v 2.534282 h -7.2167732 z"
       style="fill:#0065bd;fill-opacity:1;fill-rule:evenodd;stroke:none;stroke-width:0.60512942" />
    <path
       inkscape:connector-curvature="0"
       id="path887"
       d="m -5.7947243,49.665101 -0.00908,-21.281193 H 12.829944 V 37.02334 H 3.6301661 v 1.699811 h 4.1554236 v 8.453053 l -4.6945939,-0.03328 v 2.522179 z"
       style="fill:#1a1a1a;fill-opacity:1;fill-rule:evenodd;stroke:none;stroke-width:0.60512942" />
    <path
       inkscape:connector-curvature="0"
       id="path885"
       d="m -18.750549,28.088605 c 2.458641,14.802073 4.008983,33.121155 8.578315,33.288776 3.1654355,0.127682 4.6945975,-5.909089 6.5620268,-10.244236 h 2.165153 c -2.6922207,8.154724 -5.4770262,22.737132 -9.2754278,23.455421 -1.446864,0.274729 -2.659543,-2.353954 -4.231064,-8.263647 -1.319182,-5.011077 -2.954847,-19.560203 -3.799003,-38.236314 z"
       style="fill:#1a1a1a;fill-opacity:1;fill-rule:evenodd;stroke:none;stroke-width:0.60512942" />
    <path
       inkscape:connector-curvature="0"
       id="path883"
       d="m -19.901505,17.049229 c 1.297398,0 2.363636,-1.063212 2.363636,-2.372712 0,-1.298003 -1.066238,-2.364241 -2.363636,-2.364241 -1.307079,0 -2.373317,1.066238 -2.373317,2.364241 0,1.3095 1.066238,2.372712 2.373317,2.372712 z"
       style="fill:#3f61d7;fill-opacity:1;fill-rule:evenodd;stroke:none;stroke-width:0.60512942" />
    <path
       inkscape:connector-curvature="0"
       id="path881"
       d="m 21.946829,32.962317 c 2.626261,0 4.767814,-2.141553 4.767814,-4.76963 0,-2.626261 -2.141553,-4.767814 -4.767814,-4.767814 -2.628682,0 -4.770235,2.141553 -4.770235,4.767814 0,2.628077 2.141553,4.76963 4.770235,4.76963 z"
       style="fill:#4d64ae;fill-opacity:1;fill-rule:evenodd;stroke:none;stroke-width:0.60512942" />
    <path
       inkscape:connector-curvature="0"
       id="path879"
       d="m -30.536049,13.250832 0.462924,0.727971 c -0.304985,0.200903 -0.621468,0.413908 -0.928874,0.612391 -0.0091,0 -0.0091,0 -0.02118,0 l -0.451427,-0.716474 c 0.304986,-0.200903 0.621468,-0.410882 0.938556,-0.623888 z"
       style="fill:#ca3a33;fill-opacity:1;fill-rule:evenodd;stroke:none;stroke-width:0.60512942" />
    <path
       inkscape:connector-curvature="0"
       id="path877"
       d="m -17.991717,19.942958 c 0.328586,0.0823 0.654751,0.167621 0.980915,0.252944 0.127683,-0.106503 0.453847,-0.44477 0.58153,-0.548852 0.200903,-0.550668 0.231764,-0.845971 0.401806,-1.394218 -0.633571,0.581529 -1.3095,1.129776 -1.964251,1.690126 z"
       style="fill:#ca3a33;fill-opacity:1;fill-rule:evenodd;stroke:none;stroke-width:0.60512942" />
    <path
       inkscape:connector-curvature="0"
       id="path875"
       d="m -11.755858,5.5499549 c 1.236279,-0.021785 2.217195,0.2099799 2.8598435,0.715868 1.9951136,1.5933058 0.2317645,5.5193861 -4.0725225,10.0887181 0.115579,-0.539171 0.231764,-1.066238 0.326164,-1.604803 1.446865,-1.635665 2.7963035,-3.439556 3.5242755,-5.4746064 0.3927295,-1.3403618 0.3170885,-2.2383738 -1.0753165,-2.735185 -0.527068,-0.0944 -1.054135,-0.1367593 -1.583624,-0.1367593 0.0115,-0.2838057 0.02118,-0.5700319 0.02118,-0.8532324 z"
       style="fill:#ca3a33;fill-opacity:1;fill-rule:evenodd;stroke:none;stroke-width:0.60512942" />
    <path
       inkscape:connector-curvature="0"
       id="path873"
       d="m -34.346549,17.990205 c 0.453847,-0.465344 0.453847,-1.318576 0,-1.772424 -0.484708,-0.487129 -1.298002,-0.453847 -1.773029,0 -1.687706,1.623563 -4.113064,4.431968 -6.077314,6.457336 -4.578409,4.746635 -6.531162,8.86212 -4.471906,10.488103 2.973605,2.373318 13.251123,-1.236279 23.254517,-8.071821 -0.0115,0 -0.02118,-0.0121 -0.02118,-0.0121 0.716474,-0.51557 3.396592,-2.436856 4.021085,-2.933667 -0.317088,-0.0823 -0.65475,-0.167621 -0.971838,-0.274124 -0.505888,0.380627 -3.080108,2.217195 -3.588417,2.576641 0.0121,0 0.0121,0 0.0121,0 -1.150956,0.789694 -2.321277,1.538844 -3.493412,2.235954 -3.851044,2.330958 -7.975606,4.39929 -12.303491,5.675508 -1.782711,0.46595 -4.113065,1.066238 -5.907273,0.422986 l -0.265047,-0.127078 -0.222082,-0.147046 c -1.392403,-1.297397 0.53917,-4.221383 1.298002,-5.382021 0.992412,-1.402085 2.131871,-2.711585 3.334868,-3.945444 2.141553,-2.226271 5.930873,-3.926079 7.174414,-5.1908 z"
       style="fill:#ca3a33;fill-opacity:1;fill-rule:evenodd;stroke:none;stroke-width:0.60512942" />
    <path
       inkscape:connector-curvature="0"
       id="path871"
       d="m -26.200902,12.598503 h -0.04054 c 0,0 0,0.0097 0.0097,0.0097 z"
       style="fill:#0065bd;fill-opacity:1;fill-rule:evenodd;stroke:none;stroke-width:0.60512942" />
    <path
       inkscape:connector-curvature="0"
       id="path869"
       d="M 2.6062871,27.814481 2.984493,25.048435 H 4.5166807 L 3.8189665,27.83324 Z"
       style="fill:#000000;fill-opacity:1;fill-rule:evenodd;stroke:none;stroke-width:0.60512942" />
    <path
       inkscape:connector-curvature="0"
       id="path867"
       d="M 49.180072,27.580296 C 41.278293,26.66292 33.964699,21.883608 27.981784,11.048161 22.178593,0.5382732 17.99957,-5.0966918 15.087082,-5.4349591 12.723442,-5.7090828 9.9483221,3.3442582 4.9705277,23.053323 H 3.2707192 C 5.780796,4.0413673 8.9885869,-8.5997859 13.240832,-21.387985 c 0.380626,-1.181818 0.993017,-1.952753 1.63627,-1.952753 0.992412,0 1.592701,0.792115 2.098589,1.952753 4.761158,10.540143 9.138664,21.5244522 13.939155,32.436146 2.586323,5.843129 11.058135,15.888883 18.222867,15.974206 z"
       style="fill:#1a1a1a;fill-opacity:1;fill-rule:evenodd;stroke:none;stroke-width:0.60512942" />
    <path
       inkscape:connector-curvature="0"
       id="path865"
       d="m -12.968537,-2.4068916 h -0.822371 c -0.04296,-0.3473443 -0.08532,-0.6946886 -0.127683,-1.0444534 h 0.822371 c 0.04236,0.3497648 0.08532,0.6850065 0.127683,1.0444534 z"
       style="fill:#389723;fill-opacity:1;fill-rule:evenodd;stroke:none;stroke-width:0.60512942" />
    <path
       inkscape:connector-curvature="0"
       id="path863"
       d="m -25.229669,17.536358 c -0.326165,-0.127682 -0.642648,-0.264441 -0.959735,-0.401806 -0.316483,-1.255038 -0.590607,-2.605082 -0.801192,-4.051341 0.252944,-0.158544 0.51557,-0.304985 0.780012,-0.453847 0.222082,1.656844 0.53917,3.313689 0.980915,4.906994 z"
       style="fill:#389723;fill-opacity:1;fill-rule:evenodd;stroke:none;stroke-width:0.60512942" />
    <path
       inkscape:connector-curvature="0"
       id="path861"
       d="m -25.238746,20.226159 c 0.356421,0.137364 0.715868,0.274728 1.075315,0.402411 0.264441,0.642647 0.56035,1.255038 0.895591,1.855326 0.05446,0.106503 0.116185,0.213006 0.179724,0.316483 -0.23116,0.170647 -0.453847,0.328585 -0.685007,0.496811 -0.53917,-0.855653 -1.023879,-1.888609 -1.465623,-3.071031 z"
       style="fill:#389723;fill-opacity:1;fill-rule:evenodd;stroke:none;stroke-width:0.60512942" />
    <path
       inkscape:connector-curvature="0"
       id="path859"
       d="m -21.461528,24.701091 c -0.234186,0.16762 -0.475027,0.347344 -0.718894,0.51557 0.664432,0.538565 1.352464,0.824791 2.080435,0.824791 1.392402,0 2.710979,-1.108597 3.838941,-3.049247 -0.295909,-0.06414 -0.591212,-0.118 -0.886515,-0.179723 -0.42117,0.673509 -0.927058,1.307079 -1.572126,1.877111 l -0.295303,0.191221 -0.283806,0.146441 c -0.834473,0.307406 -1.550342,0.106503 -2.162732,-0.326164 z"
       style="fill:#389723;fill-opacity:1;fill-rule:evenodd;stroke:none;stroke-width:0.60512942" />
    <path
       inkscape:connector-curvature="0"
       id="path857"
       d="m -13.949452,-5.0234711 c 0.727971,0.063538 1.434762,-0.3382674 1.520085,-1.2980026 0.0091,-1.328259 -3.387514,-7.0697263 -4.084624,-8.2612263 -1.032955,-1.678024 -2.288599,-2.680723 -3.585996,-2.680723 -4.136665,0 -7.514497,9.7298751 -7.514497,21.6527397 0,1.127356 0.02118,2.2359531 0.08472,3.311268 0.274729,-0.018759 0.548852,-0.039938 0.822976,-0.052041 -0.210585,-6.0863915 0.0944,-12.4711118 2.089512,-18.2858007 0.675929,-1.834752 2.394497,-6.31876 5.05404,-5.70879 0.992413,0.349765 1.720383,1.2151 2.299492,2.122794 0.222083,0.335847 0.432668,0.706791 0.624494,1.044453 1.401479,3.049247 1.422659,4.1463467 1.422659,6.9093675 0,0.6977142 0.570032,1.2459615 1.267141,1.2459615 z"
       style="fill:#389723;fill-opacity:1;fill-rule:evenodd;stroke:none;stroke-width:0.60512942" />
    <path
       inkscape:connector-curvature="0"
       id="path855"
       d="m -15.162131,20.680006 c -0.274124,-0.06354 -0.550668,-0.11558 -0.834474,-0.179119 0.05204,-0.125261 0.106503,-0.265046 0.167621,-0.401806 1.720988,-4.652234 2.269235,-9.68449 2.4066,-14.6223468 0,-1.4353669 -0.02118,-2.9028057 -0.0944,-4.3684291 h 0.834474 c 0.06112,1.0638175 0.104082,2.1724145 0.104082,3.2810116 0,6.4881973 -1.002699,12.3125683 -2.583903,16.2906893 z"
       style="fill:#389723;fill-opacity:1;fill-rule:evenodd;stroke:none;stroke-width:0.60512942" />
    <path
       inkscape:connector-curvature="0"
       id="path853"
       d="m -13.590005,-0.0523331 h 0.832053 c -0.04296,-0.51799079 -0.0829,-1.0141969 -0.125262,-1.510403 h -0.822976 c 0.04054,0.5058882 0.0829,1.00209428 0.116185,1.510403 z"
       style="fill:#389723;fill-opacity:1;fill-rule:evenodd;stroke:none;stroke-width:0.60512942" />
    <path
       inkscape:connector-curvature="0"
       id="path851"
       d="m -9.264539,24.466905 c -0.770331,0 -7.280313,-2.361214 -9.053342,-2.890703 -10.40278,-2.827164 -17.55783,-6.99469 -16.5987,-10.034255 0.666853,-2.0895124 5.066144,-3.1866122 11.301397,-3.1654327 -0.56035,0.2862262 -1.117674,0.5700323 -1.678024,0.8653353 -0.369129,0.0121 -0.74915,0.02118 -1.118279,0.03328 -2.290415,0.167621 -4.749056,0.411488 -6.805285,1.5291624 -1.224177,0.853232 -1.139459,1.560023 -0.304985,2.701903 1.82507,2.025973 4.484008,3.259832 6.909367,4.368429 2.753944,1.148535 5.613786,2.120373 8.495412,2.900385 3.448632,0.928874 5.70879,1.181818 8.852439,1.181818 0.579109,0 1.0541365,0.380626 1.202999,0.907694 0,0 0,0 0.0097,0 v 0.02118 c 0.02118,0.106503 0.03328,0.222083 0.03328,0.338268 0,0.104082 -0.0121,0.222082 -0.03328,0.326164 0,0.475027 -0.749151,0.916771 -1.212681,0.916771 z"
       style="fill:#9457b0;fill-opacity:1;fill-rule:evenodd;stroke:none;stroke-width:0.60512942" />
    <path
       inkscape:connector-curvature="0"
       id="path849"
       d="m -27.529766,12.418779 -0.462924,-0.74915 c 4.398686,-2.6165804 9.410367,-4.9590359 13.735832,-5.8364736 0,0.021179 0,0.042964 0,0.064144 0,0.2529441 -0.01876,0.5270677 -0.03994,0.8011914 -1.035377,0.2130055 -2.068333,0.5294882 -3.04017,0.8459709 -3.429874,1.2223609 -6.932968,2.9433493 -10.1928,4.8743173 z"
       style="fill:#ca3a33;fill-opacity:1;fill-rule:evenodd;stroke:none;stroke-width:0.60512942" />
    <path
       inkscape:connector-curvature="0"
       id="path14"
       d="m -28.912487,12.217876 0.46595,0.74915 c -0.307406,0.189406 -0.612391,0.380627 -0.907694,0.56035 l -0.475027,-0.739468 c 0.295303,-0.189405 0.600289,-0.380626 0.916771,-0.570032 z"
       style="fill:#ca3a33;fill-opacity:1;fill-rule:evenodd;stroke:none;stroke-width:0.60512942" />
    <path
       d="m 114.36122,10.853467 q 0,2.411384 -0.55647,3.878449 -0.53961,1.483929 -1.53452,2.293344 -0.9949,0.826278 -2.39452,1.096084 -1.39961,0.286668 -3.10276,0.286668 -1.14667,0 -2.0404,-0.202354 -0.89373,-0.185491 -1.50079,-0.522748 -0.60706,-0.337256 -0.91059,-0.792552 -0.3204,-0.438434 -0.3204,-0.927456 0,-0.860004 0.67452,-1.43334 0.67451,-0.573336 1.83804,-0.573336 0.43844,0 0.79256,0.134903 0.33725,0.134903 0.60706,0.337256 0.2698,0.219217 0.48902,0.455297 0.20235,0.252942 0.35412,0.472159 0.38785,0.505884 0.64079,0.674513 0.2698,0.168628 0.48902,0.168628 0.23608,0 0.42157,-0.11804 0.18549,-0.11804 0.30353,-0.421571 0.11804,-0.30353 0.16863,-0.809415 0.0675,-0.505885 0.0675,-1.298437 V -6.262298 l 5.51414,-1.5176541 z M 108.611,-13.02429 q 0,-0.556473 0.21922,-1.045495 0.23608,-0.489022 0.64078,-0.843141 0.40471,-0.370982 0.94432,-0.573336 0.53961,-0.219217 1.14667,-0.219217 0.60707,0 1.14668,0.219217 0.53961,0.202354 0.94431,0.573336 0.40471,0.354119 0.64079,0.843141 0.23608,0.489022 0.23608,1.045495 0,0.556473 -0.23608,1.045495 -0.23608,0.489022 -0.64079,0.843141 -0.4047,0.354119 -0.94431,0.573336 -0.53961,0.202354 -1.14668,0.202354 -0.60706,0 -1.14667,-0.202354 -0.53961,-0.219217 -0.94432,-0.573336 -0.4047,-0.354119 -0.64078,-0.843141 -0.21922,-0.489022 -0.21922,-1.045495 z"
       style="font-style:normal;font-variant:normal;font-weight:normal;font-stretch:normal;font-size:34.53506088px;line-height:1.25;font-family:'Tamil MN';-inkscape-font-specification:'Tamil MN';letter-spacing:0px;word-spacing:0px;fill:#1a1a1a;fill-opacity:1;stroke:none;stroke-width:0.18500927"
       id="path908"
       inkscape:connector-curvature="0" />
    <path
       d="m 124.22597,-7.2403418 v 12.748294 q 0,0.5396103 0.20236,1.0117694 0.21921,0.4552962 0.57333,0.7925526 0.37099,0.3372565 0.84315,0.5396103 0.48902,0.2023539 1.02863,0.2023539 0.30353,0 0.69137,-0.1686282 0.38785,-0.1686282 0.77569,-0.472159 0.40471,-0.3035309 0.77569,-0.7082386 0.38785,-0.4047077 0.69138,-0.8937296 V -7.2403418 h 5.49728 V 10.853467 h -5.49728 V 9.1671847 q -1.07922,0.9274553 -2.31021,1.4839283 -1.21412,0.53961 -2.37766,0.53961 -1.34902,0 -2.51256,-0.438433 -1.16353,-0.455296 -2.02354,-1.2141232 -0.86,-0.7756898 -1.34902,-1.804322 -0.48902,-1.045495 -0.48902,-2.2258926 v -12.748294 z"
       style="font-style:normal;font-variant:normal;font-weight:normal;font-stretch:normal;font-size:34.53506088px;line-height:1.25;font-family:'Tamil MN';-inkscape-font-specification:'Tamil MN';letter-spacing:0px;word-spacing:0px;fill:#1a1a1a;fill-opacity:1;stroke:none;stroke-width:0.18500927"
       id="path910"
       inkscape:connector-curvature="0" />
    <path
       d="m 145.13587,10.853467 h -5.44669 v -25.378548 l 5.44669,-1.517654 z"
       style="font-style:normal;font-variant:normal;font-weight:normal;font-stretch:normal;font-size:34.53506088px;line-height:1.25;font-family:'Tamil MN';-inkscape-font-specification:'Tamil MN';letter-spacing:0px;word-spacing:0px;fill:#1a1a1a;fill-opacity:1;stroke:none;stroke-width:0.18500927"
       id="path912"
       inkscape:connector-curvature="0" />
    <path
       d="m 149.92491,-6.262298 5.48042,-1.5176541 V 10.853467 h -5.48042 z m -0.23608,-6.761992 q 0,-0.556473 0.21922,-1.045495 0.23608,-0.489022 0.64079,-0.843141 0.40471,-0.370982 0.94432,-0.573336 0.53961,-0.219217 1.14667,-0.219217 0.60706,0 1.14667,0.219217 0.53961,0.202354 0.94432,0.573336 0.40471,0.354119 0.64079,0.843141 0.23608,0.489022 0.23608,1.045495 0,0.556473 -0.23608,1.045495 -0.23608,0.489022 -0.64079,0.843141 -0.40471,0.354119 -0.94432,0.573336 -0.53961,0.202354 -1.14667,0.202354 -0.60706,0 -1.14667,-0.202354 -0.53961,-0.219217 -0.94432,-0.573336 -0.40471,-0.354119 -0.64079,-0.843141 -0.21922,-0.489022 -0.21922,-1.045495 z"
       style="font-style:normal;font-variant:normal;font-weight:normal;font-stretch:normal;font-size:34.53506088px;line-height:1.25;font-family:'Tamil MN';-inkscape-font-specification:'Tamil MN';letter-spacing:0px;word-spacing:0px;fill:#1a1a1a;fill-opacity:1;stroke:none;stroke-width:0.18500927"
       id="path914"
       inkscape:connector-curvature="0" />
    <path
       d="m 168.96305,1.4946004 q -0.79256,0.3372564 -1.60197,0.7925527 -0.80942,0.4384333 -1.46707,0.9780437 -0.65765,0.5227475 -1.07922,1.1298091 -0.40471,0.5901988 -0.40471,1.2478489 0,0.5227475 0.13491,0.9949065 0.1349,0.4552962 0.37098,0.8094155 0.23608,0.3372565 0.52275,0.5396103 0.30353,0.2023539 0.64078,0.2023539 0.65765,0 1.34903,-0.4047077 0.70824,-0.4215706 1.53452,-1.0454951 z m 5.51414,9.3588666 h -5.51414 V 9.4032642 q -0.4553,0.387845 -0.89373,0.7082388 -0.43844,0.320393 -0.97805,0.573336 -0.52275,0.236079 -1.19726,0.370982 -0.67451,0.134902 -1.60197,0.134902 -1.24785,0 -2.25962,-0.354119 -0.9949,-0.354119 -1.70314,-0.9780436 -0.69138,-0.6407872 -1.06236,-1.5007912 -0.37098,-0.8600039 -0.37098,-1.8549105 0,-1.045495 0.38784,-1.8717733 0.40471,-0.8431411 1.07923,-1.517654 0.69137,-0.6745129 1.60196,-1.2141233 0.92746,-0.5396103 1.97295,-0.97804368 1.06236,-0.43843339 2.19217,-0.80941549 1.12981,-0.3709821 2.22589,-0.72510138 l 0.60707,-0.13490258 V -2.5524771 q 0,-0.8600039 -0.1855,-1.4670655 -0.16862,-0.6070616 -0.48902,-0.9780437 -0.30353,-0.387845 -0.75882,-0.5564732 -0.43844,-0.1686282 -0.99491,-0.1686282 -0.65765,0 -1.09608,0.1686282 -0.43844,0.1686282 -0.70824,0.472159 -0.26981,0.286668 -0.38785,0.6745129 -0.11804,0.387845 -0.11804,0.8262784 0,0.5227475 -0.11804,0.9949065 -0.10117,0.472159 -0.38784,0.8431411 -0.26981,0.3541193 -0.75883,0.573336 -0.47216,0.2192167 -1.23099,0.2192167 -0.57333,0 -1.06235,-0.1686282 -0.47216,-0.1854911 -0.80942,-0.4890219 -0.33726,-0.3203936 -0.53961,-0.7419642 -0.18549,-0.4384334 -0.18549,-0.9274552 0,-0.9443181 0.64079,-1.7368708 0.64078,-0.8094155 1.72,-1.3996143 1.09609,-0.5901987 2.51257,-0.9105924 1.43334,-0.3372564 3.01844,-0.3372564 1.93923,0 3.33884,0.3541192 1.41648,0.3541193 2.32707,0.9949066 0.91059,0.6407872 1.34902,1.5513797 0.43844,0.9105924 0.43844,2.0404015 z"
       style="font-style:normal;font-variant:normal;font-weight:normal;font-stretch:normal;font-size:34.53506088px;line-height:1.25;font-family:'Tamil MN';-inkscape-font-specification:'Tamil MN';letter-spacing:0px;word-spacing:0px;fill:#1a1a1a;fill-opacity:1;stroke:none;stroke-width:0.18500927"
       id="path916"
       inkscape:connector-curvature="0" />
    <path
       d="m 116.35104,35.928484 h 4.51923 v 2.20903 h -4.51923 v 15.884779 h -5.48042 V 38.137514 h -3.55806 v -2.20903 h 3.55806 v -2.074127 q 0,-1.399614 0.55647,-2.664326 0.55648,-1.281574 1.55138,-2.242755 1.01177,-0.961181 2.37766,-1.534517 1.38275,-0.573336 3.03531,-0.573336 1.38275,0 2.39452,0.269805 1.01177,0.269805 1.65256,0.725101 0.64078,0.438434 0.94431,1.01177 0.3204,0.556473 0.3204,1.146672 0,0.455296 -0.18549,0.860004 -0.16863,0.404707 -0.48903,0.708238 -0.32039,0.303531 -0.74196,0.489022 -0.42157,0.168628 -0.92746,0.168628 -0.69137,0 -1.04549,-0.252942 -0.35412,-0.269805 -0.53961,-0.65765 -0.18549,-0.404708 -0.26981,-0.860004 -0.0674,-0.472159 -0.21921,-0.860004 -0.13491,-0.404708 -0.40471,-0.65765 -0.25294,-0.269805 -0.80942,-0.269805 -1.72,0 -1.72,2.967857 z"
       style="font-style:normal;font-variant:normal;font-weight:normal;font-stretch:normal;font-size:34.53506088px;line-height:1.25;font-family:'Tamil MN';-inkscape-font-specification:'Tamil MN';letter-spacing:0px;word-spacing:0px;fill:#1a1a1a;fill-opacity:1;stroke:none;stroke-width:0.18500927"
       id="path918"
       inkscape:connector-curvature="0" />
    <path
       d="m 132.64052,54.35955 q -2.15844,0 -3.99649,-0.708239 -1.83804,-0.708239 -3.17021,-1.939225 -1.33216,-1.247848 -2.09099,-2.934131 -0.74196,-1.686282 -0.74196,-3.625507 0,-2.09099 0.74196,-3.844723 0.75883,-1.770597 2.09099,-3.035308 1.33217,-1.281575 3.15335,-1.989813 1.83805,-0.725102 3.99649,-0.725102 2.15844,0 3.99649,0.708239 1.85491,0.691376 3.18707,1.922362 1.34903,1.230986 2.10785,2.883542 0.75883,1.652557 0.75883,3.558056 0,2.006676 -0.75883,3.777272 -0.75882,1.770597 -2.10785,3.10276 -1.33216,1.3153 -3.17021,2.09099 -1.83805,0.758827 -3.99649,0.758827 z m 0.64079,-2.20903 q 0.75883,0 1.38275,-0.489022 0.64079,-0.489022 1.09608,-1.3153 0.4553,-0.826279 0.70824,-1.905499 0.26981,-1.079221 0.26981,-2.259618 0,-1.736871 -0.25294,-3.271388 -0.25295,-1.534517 -0.84315,-2.681189 -0.57333,-1.146672 -1.51765,-1.821185 -0.92745,-0.674513 -2.27648,-0.674513 -0.64079,0 -1.24785,0.489022 -0.5902,0.472159 -1.04549,1.281575 -0.4553,0.809415 -0.74197,1.871773 -0.2698,1.062358 -0.2698,2.225893 0,1.753733 0.32039,3.305113 0.32039,1.55138 0.92746,2.714914 0.62392,1.163535 1.50079,1.854911 0.87686,0.674513 1.98981,0.674513 z"
       style="font-style:normal;font-variant:normal;font-weight:normal;font-stretch:normal;font-size:34.53506088px;line-height:1.25;font-family:'Tamil MN';-inkscape-font-specification:'Tamil MN';letter-spacing:0px;word-spacing:0px;fill:#1a1a1a;fill-opacity:1;stroke:none;stroke-width:0.18500927"
       id="path920"
       inkscape:connector-curvature="0" />
    <path
       d="m 151.52688,54.022293 h -5.48041 V 35.928484 h 5.48041 v 1.349026 q 0.9106,-0.927455 2.00668,-1.500791 1.09608,-0.573336 2.32707,-0.573336 0.74196,0 1.38275,0.202354 0.65765,0.185491 1.12981,0.522747 0.48902,0.337257 0.75883,0.77569 0.28667,0.438434 0.28667,0.944318 0,0.489022 -0.1855,0.89373 -0.18549,0.387845 -0.52274,0.674513 -0.3204,0.286668 -0.75883,0.455296 -0.42157,0.151765 -0.91059,0.151765 -0.65765,0 -1.07922,-0.202353 -0.42157,-0.202354 -0.75883,-0.455297 -0.33726,-0.252942 -0.70824,-0.455296 -0.35412,-0.202354 -0.87687,-0.202354 -0.2698,0 -0.55647,0.219217 -0.2698,0.202354 -0.53961,0.556473 -0.2698,0.337257 -0.52275,0.792553 -0.25294,0.455296 -0.47216,0.927455 z"
       style="font-style:normal;font-variant:normal;font-weight:normal;font-stretch:normal;font-size:34.53506088px;line-height:1.25;font-family:'Tamil MN';-inkscape-font-specification:'Tamil MN';letter-spacing:0px;word-spacing:0px;fill:#1a1a1a;fill-opacity:1;stroke:none;stroke-width:0.18500927"
       id="path922"
       inkscape:connector-curvature="0" />
    <path
       d="m 172.0658,30.009634 h 5.73336 l 8.29651,16.407526 8.19533,-16.407526 h 5.61532 V 54.022293 H 194.0212 V 38.373594 l -7.84122,15.648699 h -2.27648 l -8.11102,-15.83419 v 15.83419 h -3.72668 z"
       style="font-style:normal;font-variant:normal;font-weight:normal;font-stretch:normal;font-size:34.53506088px;line-height:1.25;font-family:'Tamil MN';-inkscape-font-specification:'Tamil MN';letter-spacing:0px;word-spacing:0px;fill:#1a1a1a;fill-opacity:1;stroke:none;stroke-width:0.18500927"
       id="path924"
       inkscape:connector-curvature="0" />
    <path
       d="m 213.93619,44.663426 q -0.79255,0.337257 -1.60197,0.792553 -0.80941,0.438434 -1.46706,0.978044 -0.65765,0.522747 -1.07922,1.129809 -0.40471,0.590199 -0.40471,1.247849 0,0.522747 0.1349,0.994906 0.1349,0.455297 0.37098,0.809416 0.23608,0.337256 0.52275,0.53961 0.30353,0.202354 0.64079,0.202354 0.65765,0 1.34902,-0.404708 0.70824,-0.42157 1.53452,-1.045495 z m 5.51414,9.358867 h -5.51414 V 52.57209 q -0.4553,0.387845 -0.89373,0.708239 -0.43843,0.320394 -0.97804,0.573336 -0.52275,0.236079 -1.19726,0.370982 -0.67452,0.134903 -1.60197,0.134903 -1.24785,0 -2.25962,-0.35412 -0.99491,-0.354119 -1.70315,-0.978043 -0.69137,-0.640788 -1.06235,-1.500792 -0.37099,-0.860004 -0.37099,-1.85491 0,-1.045495 0.38785,-1.871773 0.40471,-0.843142 1.07922,-1.517655 0.69138,-0.674512 1.60197,-1.214123 0.92745,-0.53961 1.97295,-0.978043 1.06236,-0.438434 2.19217,-0.809416 1.1298,-0.370982 2.22589,-0.725101 l 0.60706,-0.134903 v -1.804322 q 0,-0.860004 -0.18549,-1.467066 -0.16863,-0.607061 -0.48902,-0.978043 -0.30353,-0.387845 -0.75883,-0.556473 -0.43843,-0.168629 -0.99491,-0.168629 -0.65765,0 -1.09608,0.168629 -0.43843,0.168628 -0.70824,0.472159 -0.2698,0.286668 -0.38784,0.674513 -0.11804,0.387844 -0.11804,0.826278 0,0.522747 -0.11804,0.994906 -0.10118,0.472159 -0.38785,0.843142 -0.2698,0.354119 -0.75883,0.573336 -0.47215,0.219216 -1.23098,0.219216 -0.57334,0 -1.06236,-0.168628 -0.47216,-0.185491 -0.80941,-0.489022 -0.33726,-0.320394 -0.53962,-0.741964 -0.18549,-0.438433 -0.18549,-0.927455 0,-0.944318 0.64079,-1.736871 0.64079,-0.809416 1.72001,-1.399614 1.09608,-0.590199 2.51256,-0.910593 1.43334,-0.337256 3.01844,-0.337256 1.93923,0 3.33884,0.354119 1.41648,0.354119 2.32707,0.994907 0.9106,0.640787 1.34903,1.551379 0.43843,0.910593 0.43843,2.040402 z"
       style="font-style:normal;font-variant:normal;font-weight:normal;font-stretch:normal;font-size:34.53506088px;line-height:1.25;font-family:'Tamil MN';-inkscape-font-specification:'Tamil MN';letter-spacing:0px;word-spacing:0px;fill:#1a1a1a;fill-opacity:1;stroke:none;stroke-width:0.18500927"
       id="path926"
       inkscape:connector-curvature="0" />
    <path
       d="m 232.7551,37.766532 q -0.87687,0 -1.60197,0.438433 -0.70824,0.438434 -1.21412,1.197261 -0.50589,0.741964 -0.77569,1.736871 -0.26981,0.978043 -0.26981,2.074127 0,1.517654 0.33726,2.900405 0.35412,1.382752 0.97804,2.44511 0.62393,1.045495 1.50079,1.669419 0.89373,0.623924 1.98982,0.623924 0.91059,0 1.63569,-0.370982 0.74197,-0.370982 1.33216,-0.994906 0.60707,-0.640787 1.07923,-1.483929 0.48902,-0.843141 0.91059,-1.787459 l 2.61374,0.691376 q -0.4553,1.770596 -1.26472,3.170211 -0.80941,1.382751 -1.93922,2.343932 -1.11295,0.944318 -2.54629,1.450203 -1.41647,0.489022 -3.08589,0.489022 -1.87178,0 -3.52433,-0.708239 -1.6357,-0.725101 -2.86668,-1.956087 -1.21413,-1.230986 -1.92237,-2.86668 -0.70823,-1.635694 -0.70823,-3.473742 0,-2.006676 0.75882,-3.777272 0.75883,-1.787459 2.05727,-3.119622 1.29843,-1.349026 3.05217,-2.124716 1.75373,-0.77569 3.72668,-0.77569 1.66942,0 3.01845,0.337257 1.34902,0.337256 2.29334,0.944318 0.96118,0.607061 1.46707,1.43334 0.52274,0.826278 0.52274,1.787459 0,0.455296 -0.2698,0.860004 -0.26981,0.404708 -0.70824,0.725101 -0.43843,0.303531 -1.01177,0.489022 -0.55647,0.168628 -1.12981,0.168628 -0.65765,0 -1.14667,-0.185491 -0.48902,-0.185491 -0.82628,-0.472159 -0.33725,-0.303531 -0.50588,-0.691375 -0.16863,-0.387845 -0.16863,-0.792553 0,-0.404708 -0.0337,-0.826278 -0.0337,-0.438434 -0.20235,-0.77569 -0.16863,-0.35412 -0.53961,-0.573336 -0.35412,-0.219217 -1.01177,-0.219217 z"
       style="font-style:normal;font-variant:normal;font-weight:normal;font-stretch:normal;font-size:34.53506088px;line-height:1.25;font-family:'Tamil MN';-inkscape-font-specification:'Tamil MN';letter-spacing:0px;word-spacing:0px;fill:#1a1a1a;fill-opacity:1;stroke:none;stroke-width:0.18500927"
       id="path928"
       inkscape:connector-curvature="0" />
    <path
       d="m 255.80658,41.628118 q 0,-1.399614 -0.4553,-2.124715 -0.45529,-0.741964 -1.18039,-0.741964 -0.33726,0 -0.82628,0.151765 -0.47216,0.134903 -1.02864,0.404708 -0.53961,0.269805 -1.09608,0.640787 -0.55647,0.354119 -1.02863,0.77569 v 13.287904 h -5.54787 V 28.643745 l 5.54787,-1.517654 v 10.21887 q 1.26471,-0.927455 2.81609,-1.365888 1.55138,-0.455296 3.01845,-0.455296 1.09608,0 2.05726,0.438433 0.97804,0.438433 1.68628,1.19726 0.7251,0.741965 1.12981,1.753734 0.42157,1.011769 0.42157,2.158441 v 12.950648 h -5.51414 z"
       style="font-style:normal;font-variant:normal;font-weight:normal;font-stretch:normal;font-size:34.53506088px;line-height:1.25;font-family:'Tamil MN';-inkscape-font-specification:'Tamil MN';letter-spacing:0px;word-spacing:0px;fill:#1a1a1a;fill-opacity:1;stroke:none;stroke-width:0.18500927"
       id="path930"
       inkscape:connector-curvature="0" />
    <path
       d="m 265.85681,36.906528 5.48042,-1.517654 v 18.633419 h -5.48042 z m -0.23608,-6.761992 q 0,-0.556473 0.21922,-1.045495 0.23608,-0.489022 0.64079,-0.843141 0.40471,-0.370982 0.94432,-0.573336 0.53961,-0.219217 1.14667,-0.219217 0.60706,0 1.14667,0.219217 0.53961,0.202354 0.94432,0.573336 0.40471,0.354119 0.64079,0.843141 0.23608,0.489022 0.23608,1.045495 0,0.556473 -0.23608,1.045495 -0.23608,0.489022 -0.64079,0.843141 -0.40471,0.35412 -0.94432,0.573336 -0.53961,0.202354 -1.14667,0.202354 -0.60706,0 -1.14667,-0.202354 -0.53961,-0.219216 -0.94432,-0.573336 -0.40471,-0.354119 -0.64079,-0.843141 -0.21922,-0.489022 -0.21922,-1.045495 z"
       style="font-style:normal;font-variant:normal;font-weight:normal;font-stretch:normal;font-size:34.53506088px;line-height:1.25;font-family:'Tamil MN';-inkscape-font-specification:'Tamil MN';letter-spacing:0px;word-spacing:0px;fill:#1a1a1a;fill-opacity:1;stroke:none;stroke-width:0.18500927"
       id="path932"
       inkscape:connector-curvature="0" />
    <path
       d="m 287.08711,41.628118 q 0,-0.691375 -0.15176,-1.230986 -0.15177,-0.53961 -0.40471,-0.893729 -0.25294,-0.370982 -0.5902,-0.556473 -0.32039,-0.185491 -0.67451,-0.185491 -0.35412,0 -0.82628,0.151765 -0.4553,0.134903 -0.96118,0.404708 -0.50589,0.252942 -1.02863,0.623924 -0.52275,0.370982 -1.01177,0.826278 v 13.254179 h -5.51415 V 35.928484 h 5.51415 v 1.416477 q 1.26471,-0.927455 2.71491,-1.349025 1.4502,-0.438434 2.90041,-0.438434 1.11294,0 2.10785,0.438434 1.01177,0.42157 1.75373,1.180397 0.75883,0.741964 1.19726,1.753734 0.4553,0.994906 0.4553,2.141578 v 12.950648 h -5.48042 z"
       style="font-style:normal;font-variant:normal;font-weight:normal;font-stretch:normal;font-size:34.53506088px;line-height:1.25;font-family:'Tamil MN';-inkscape-font-specification:'Tamil MN';letter-spacing:0px;word-spacing:0px;fill:#1a1a1a;fill-opacity:1;stroke:none;stroke-width:0.18500927"
       id="path934"
       inkscape:connector-curvature="0" />
    <path
       d="m 305.24837,54.427001 q -1.93922,0 -3.64237,-0.708239 -1.68628,-0.725101 -2.95099,-1.939224 -1.26471,-1.214124 -1.98981,-2.816092 -0.7251,-1.618831 -0.7251,-3.40629 0,-2.141578 0.67451,-3.962763 0.67451,-1.838048 1.9055,-3.170211 1.23098,-1.349026 2.96785,-2.107853 1.73688,-0.758827 3.86159,-0.758827 1.88864,0 3.45688,0.607062 1.58511,0.590199 2.69805,1.652556 1.12981,1.045495 1.75374,2.461973 0.62392,1.399614 0.62392,3.018445 H 301.3362 q 0.0506,1.500791 0.42157,2.86668 0.38784,1.365888 1.02863,2.411383 0.64079,1.045495 1.50079,1.66942 0.86001,0.607061 1.9055,0.607061 0.91059,0 1.78746,-0.30353 0.87687,-0.320394 1.61883,-0.860004 0.74197,-0.556473 1.28158,-1.281575 0.53961,-0.725101 0.79255,-1.534517 l 2.81609,0.421571 q -0.42157,1.467065 -1.36589,2.765503 -0.92745,1.298437 -2.1753,2.276481 -1.24785,0.961181 -2.73178,1.534517 -1.46706,0.556473 -2.96786,0.556473 z m 2.32707,-13.001236 q -0.0675,-0.809416 -0.35412,-1.467066 -0.2698,-0.65765 -0.70823,-1.129809 -0.42157,-0.472159 -0.99491,-0.725102 -0.55647,-0.269805 -1.21412,-0.269805 -0.50589,0 -0.99491,0.252943 -0.48902,0.252942 -0.89373,0.725101 -0.40471,0.472159 -0.69138,1.146672 -0.2698,0.65765 -0.35411,1.467066 z"
       style="font-style:normal;font-variant:normal;font-weight:normal;font-stretch:normal;font-size:34.53506088px;line-height:1.25;font-family:'Tamil MN';-inkscape-font-specification:'Tamil MN';letter-spacing:0px;word-spacing:0px;fill:#1a1a1a;fill-opacity:1;stroke:none;stroke-width:0.18500927"
       id="path936"
       inkscape:connector-curvature="0" />
    <path
       d="m 328.40104,30.009634 h 5.88512 v 21.550687 h 12.25927 v 2.461972 h -18.14439 z"
       style="font-style:normal;font-variant:normal;font-weight:normal;font-stretch:normal;font-size:34.53506088px;line-height:1.25;font-family:'Tamil MN';-inkscape-font-specification:'Tamil MN';letter-spacing:0px;word-spacing:0px;fill:#1a1a1a;fill-opacity:1;stroke:none;stroke-width:0.18500927"
       id="path938"
       inkscape:connector-curvature="0" />
    <path
       d="m 357.96155,54.427001 q -1.93922,0 -3.64236,-0.708239 -1.68629,-0.725101 -2.951,-1.939224 -1.26471,-1.214124 -1.98981,-2.816092 -0.7251,-1.618831 -0.7251,-3.40629 0,-2.141578 0.67451,-3.962763 0.67451,-1.838048 1.9055,-3.170211 1.23098,-1.349026 2.96786,-2.107853 1.73687,-0.758827 3.86158,-0.758827 1.88864,0 3.45688,0.607062 1.58511,0.590199 2.69805,1.652556 1.12981,1.045495 1.75374,2.461973 0.62392,1.399614 0.62392,3.018445 h -12.54594 q 0.0506,1.500791 0.42157,2.86668 0.38785,1.365888 1.02863,2.411383 0.64079,1.045495 1.50079,1.66942 0.86001,0.607061 1.9055,0.607061 0.9106,0 1.78746,-0.30353 0.87687,-0.320394 1.61883,-0.860004 0.74197,-0.556473 1.28158,-1.281575 0.53961,-0.725101 0.79255,-1.534517 l 2.81609,0.421571 q -0.42157,1.467065 -1.36589,2.765503 -0.92745,1.298437 -2.1753,2.276481 -1.24785,0.961181 -2.73178,1.534517 -1.46706,0.556473 -2.96786,0.556473 z m 2.32707,-13.001236 q -0.0675,-0.809416 -0.35411,-1.467066 -0.26981,-0.65765 -0.70824,-1.129809 -0.42157,-0.472159 -0.99491,-0.725102 -0.55647,-0.269805 -1.21412,-0.269805 -0.50589,0 -0.99491,0.252943 -0.48902,0.252942 -0.89373,0.725101 -0.40471,0.472159 -0.69138,1.146672 -0.2698,0.65765 -0.35411,1.467066 z"
       style="font-style:normal;font-variant:normal;font-weight:normal;font-stretch:normal;font-size:34.53506088px;line-height:1.25;font-family:'Tamil MN';-inkscape-font-specification:'Tamil MN';letter-spacing:0px;word-spacing:0px;fill:#1a1a1a;fill-opacity:1;stroke:none;stroke-width:0.18500927"
       id="path940"
       inkscape:connector-curvature="0" />
    <path
       d="m 379.54598,44.663426 q -0.79256,0.337257 -1.60197,0.792553 -0.80942,0.438434 -1.46707,0.978044 -0.65765,0.522747 -1.07922,1.129809 -0.40471,0.590199 -0.40471,1.247849 0,0.522747 0.13491,0.994906 0.1349,0.455297 0.37098,0.809416 0.23608,0.337256 0.52275,0.53961 0.30353,0.202354 0.64078,0.202354 0.65765,0 1.34903,-0.404708 0.70824,-0.42157 1.53452,-1.045495 z m 5.51414,9.358867 h -5.51414 V 52.57209 q -0.4553,0.387845 -0.89373,0.708239 -0.43844,0.320394 -0.97805,0.573336 -0.52274,0.236079 -1.19726,0.370982 -0.67451,0.134903 -1.60197,0.134903 -1.24784,0 -2.25961,-0.35412 -0.99491,-0.354119 -1.70315,-0.978043 -0.69137,-0.640788 -1.06236,-1.500792 -0.37098,-0.860004 -0.37098,-1.85491 0,-1.045495 0.38785,-1.871773 0.4047,-0.843142 1.07922,-1.517655 0.69137,-0.674512 1.60197,-1.214123 0.92745,-0.53961 1.97295,-0.978043 1.06235,-0.438434 2.19216,-0.809416 1.12981,-0.370982 2.22589,-0.725101 l 0.60707,-0.134903 v -1.804322 q 0,-0.860004 -0.18549,-1.467066 -0.16863,-0.607061 -0.48903,-0.978043 -0.30353,-0.387845 -0.75882,-0.556473 -0.43844,-0.168629 -0.99491,-0.168629 -0.65765,0 -1.09608,0.168629 -0.43844,0.168628 -0.70824,0.472159 -0.26981,0.286668 -0.38785,0.674513 -0.11804,0.387844 -0.11804,0.826278 0,0.522747 -0.11804,0.994906 -0.10117,0.472159 -0.38784,0.843142 -0.26981,0.354119 -0.75883,0.573336 -0.47216,0.219216 -1.23098,0.219216 -0.57334,0 -1.06236,-0.168628 -0.47216,-0.185491 -0.80942,-0.489022 -0.33725,-0.320394 -0.53961,-0.741964 -0.18549,-0.438433 -0.18549,-0.927455 0,-0.944318 0.64079,-1.736871 0.64079,-0.809416 1.72001,-1.399614 1.09608,-0.590199 2.51256,-0.910593 1.43334,-0.337256 3.01844,-0.337256 1.93923,0 3.33884,0.354119 1.41648,0.354119 2.32707,0.994907 0.91059,0.640787 1.34903,1.551379 0.43843,0.910593 0.43843,2.040402 z"
       style="font-style:normal;font-variant:normal;font-weight:normal;font-stretch:normal;font-size:34.53506088px;line-height:1.25;font-family:'Tamil MN';-inkscape-font-specification:'Tamil MN';letter-spacing:0px;word-spacing:0px;fill:#1a1a1a;fill-opacity:1;stroke:none;stroke-width:0.18500927"
       id="path942"
       inkscape:connector-curvature="0" />
    <path
       d="M 395.34642,54.022293 H 389.866 V 35.928484 h 5.48042 v 1.349026 q 0.91059,-0.927455 2.00667,-1.500791 1.09609,-0.573336 2.32707,-0.573336 0.74197,0 1.38276,0.202354 0.65765,0.185491 1.1298,0.522747 0.48903,0.337257 0.75883,0.77569 0.28667,0.438434 0.28667,0.944318 0,0.489022 -0.18549,0.89373 -0.18549,0.387845 -0.52275,0.674513 -0.32039,0.286668 -0.75883,0.455296 -0.42157,0.151765 -0.91059,0.151765 -0.65765,0 -1.07922,-0.202353 -0.42157,-0.202354 -0.75883,-0.455297 -0.33725,-0.252942 -0.70823,-0.455296 -0.35412,-0.202354 -0.87687,-0.202354 -0.26981,0 -0.55647,0.219217 -0.26981,0.202354 -0.53962,0.556473 -0.2698,0.337257 -0.52274,0.792553 -0.25294,0.455296 -0.47216,0.927455 z"
       style="font-style:normal;font-variant:normal;font-weight:normal;font-stretch:normal;font-size:34.53506088px;line-height:1.25;font-family:'Tamil MN';-inkscape-font-specification:'Tamil MN';letter-spacing:0px;word-spacing:0px;fill:#1a1a1a;fill-opacity:1;stroke:none;stroke-width:0.18500927"
       id="path944"
       inkscape:connector-curvature="0" />
    <path
       d="m 416.50926,41.628118 q 0,-0.691375 -0.15176,-1.230986 -0.15177,-0.53961 -0.40471,-0.893729 -0.25294,-0.370982 -0.5902,-0.556473 -0.32039,-0.185491 -0.67451,-0.185491 -0.35412,0 -0.82628,0.151765 -0.4553,0.134903 -0.96118,0.404708 -0.50589,0.252942 -1.02863,0.623924 -0.52275,0.370982 -1.01177,0.826278 v 13.254179 h -5.51415 V 35.928484 h 5.51415 v 1.416477 q 1.26471,-0.927455 2.71491,-1.349025 1.4502,-0.438434 2.90041,-0.438434 1.11294,0 2.10785,0.438434 1.01177,0.42157 1.75373,1.180397 0.75883,0.741964 1.19726,1.753734 0.4553,0.994906 0.4553,2.141578 v 12.950648 h -5.48042 z"
       style="font-style:normal;font-variant:normal;font-weight:normal;font-stretch:normal;font-size:34.53506088px;line-height:1.25;font-family:'Tamil MN';-inkscape-font-specification:'Tamil MN';letter-spacing:0px;word-spacing:0px;fill:#1a1a1a;fill-opacity:1;stroke:none;stroke-width:0.18500927"
       id="path946"
       inkscape:connector-curvature="0" />
    <path
       d="m 426.61009,36.906528 5.48042,-1.517654 v 18.633419 h -5.48042 z m -0.23607,-6.761992 q 0,-0.556473 0.21921,-1.045495 0.23608,-0.489022 0.64079,-0.843141 0.40471,-0.370982 0.94432,-0.573336 0.53961,-0.219217 1.14667,-0.219217 0.60706,0 1.14667,0.219217 0.53961,0.202354 0.94432,0.573336 0.40471,0.354119 0.64079,0.843141 0.23608,0.489022 0.23608,1.045495 0,0.556473 -0.23608,1.045495 -0.23608,0.489022 -0.64079,0.843141 -0.40471,0.35412 -0.94432,0.573336 -0.53961,0.202354 -1.14667,0.202354 -0.60706,0 -1.14667,-0.202354 -0.53961,-0.219216 -0.94432,-0.573336 -0.40471,-0.354119 -0.64079,-0.843141 -0.21921,-0.489022 -0.21921,-1.045495 z"
       style="font-style:normal;font-variant:normal;font-weight:normal;font-stretch:normal;font-size:34.53506088px;line-height:1.25;font-family:'Tamil MN';-inkscape-font-specification:'Tamil MN';letter-spacing:0px;word-spacing:0px;fill:#1a1a1a;fill-opacity:1;stroke:none;stroke-width:0.18500927"
       id="path948"
       inkscape:connector-curvature="0" />
    <path
       d="m 447.84041,41.628118 q 0,-0.691375 -0.15177,-1.230986 -0.15176,-0.53961 -0.40471,-0.893729 -0.25294,-0.370982 -0.59019,-0.556473 -0.3204,-0.185491 -0.67452,-0.185491 -0.35412,0 -0.82628,0.151765 -0.45529,0.134903 -0.96118,0.404708 -0.50588,0.252942 -1.02863,0.623924 -0.52275,0.370982 -1.01177,0.826278 v 13.254179 h -5.51414 V 35.928484 h 5.51414 v 1.416477 q 1.26471,-0.927455 2.71492,-1.349025 1.4502,-0.438434 2.9004,-0.438434 1.11295,0 2.10786,0.438434 1.01176,0.42157 1.75373,1.180397 0.75883,0.741964 1.19726,1.753734 0.4553,0.994906 0.4553,2.141578 v 12.950648 h -5.48042 z"
       style="font-style:normal;font-variant:normal;font-weight:normal;font-stretch:normal;font-size:34.53506088px;line-height:1.25;font-family:'Tamil MN';-inkscape-font-specification:'Tamil MN';letter-spacing:0px;word-spacing:0px;fill:#1a1a1a;fill-opacity:1;stroke:none;stroke-width:0.18500927"
       id="path950"
       inkscape:connector-curvature="0" />
    <path
       d="m 477.5527,37.125745 v 1.905499 h -3.32197 q 0.43843,0.674513 0.70824,1.450202 0.2698,0.77569 0.2698,1.686283 0,1.500791 -0.69137,2.681189 -0.67452,1.180397 -1.9055,1.989813 -1.23099,0.809415 -2.951,1.247849 -1.70314,0.42157 -3.77727,0.42157 -0.5902,0 -1.23099,-0.06745 -0.64078,-0.08431 -1.16353,-0.185491 -0.35412,0.286668 -0.57334,0.691375 -0.20235,0.387845 -0.20235,0.826279 0,0.134902 0.0675,0.252942 0.0843,0.11804 0.37098,0.23608 0.28667,0.101177 0.82628,0.202354 0.55647,0.08431 1.48393,0.168628 0.92746,0.08431 2.31021,0.168628 1.39961,0.06745 3.3557,0.134903 1.80432,0.06745 3.03531,0.387844 1.23098,0.303531 1.97295,0.826279 0.75882,0.505884 1.07922,1.214123 0.33725,0.691376 0.33725,1.55138 0,1.517654 -0.80941,2.74864 -0.80942,1.230986 -2.32707,2.09099 -1.51766,0.860004 -3.70982,1.332163 -2.19217,0.472159 -4.94081,0.472159 -2.47883,0 -4.33374,-0.269805 -1.85492,-0.252943 -3.10276,-0.741965 -1.23099,-0.472159 -1.85491,-1.146671 -0.60707,-0.674513 -0.60707,-1.500792 0,-0.607061 0.35412,-1.19726 0.35412,-0.590199 0.9106,-1.180398 0.57333,-0.573336 1.28157,-1.129809 0.7251,-0.556473 1.46707,-1.112946 -1.0455,-0.354119 -1.68629,-0.876867 -0.62392,-0.53961 -0.62392,-1.214123 0,-0.472159 0.28667,-0.978044 0.28666,-0.505885 0.77569,-0.994906 0.50588,-0.489022 1.16353,-0.927456 0.65765,-0.438433 1.41648,-0.775689 -0.89373,-0.404708 -1.60197,-0.89373 -0.70824,-0.489022 -1.21412,-1.112946 -0.48902,-0.623925 -0.75883,-1.399615 -0.2698,-0.775689 -0.2698,-1.753733 0,-1.534517 0.67451,-2.731777 0.69137,-1.197261 1.88863,-2.023539 1.19726,-0.826279 2.8161,-1.247849 1.63569,-0.421571 3.52433,-0.421571 0.89373,0 1.75373,0.101177 0.87687,0.08431 1.63569,0.252943 0.75883,0.168628 1.34903,0.387845 0.60706,0.202353 0.96118,0.455296 z m -7.08238,17.115765 q -1.23099,0 -2.46197,-0.05059 -1.23099,-0.03373 -2.34394,-0.101177 -1.09608,-0.06745 -1.98981,-0.134902 -0.89373,-0.08431 -1.4502,-0.151766 -0.5902,0.472159 -0.91059,1.146672 -0.30354,0.691376 -0.30354,1.349026 0,0.505885 0.38785,0.961181 0.38784,0.472159 1.16353,0.826278 0.77569,0.35412 1.92237,0.556474 1.16353,0.219216 2.69805,0.219216 1.66942,0 2.98472,-0.252942 1.3153,-0.23608 2.22589,-0.623925 0.92746,-0.387844 1.39961,-0.876866 0.48903,-0.489022 0.48903,-0.978044 0,-0.489022 -0.26981,-0.860004 -0.2698,-0.354119 -0.77569,-0.590199 -0.48902,-0.219217 -1.19726,-0.337256 -0.69137,-0.101177 -1.56824,-0.101176 z m -3.96277,-7.1667 q 0.60707,0 1.16354,-0.337256 0.57334,-0.337257 1.01177,-0.910593 0.4553,-0.573336 0.70824,-1.298437 0.2698,-0.741964 0.2698,-1.534517 0,-1.163535 -0.30353,-2.192167 -0.30353,-1.028632 -0.82628,-1.787459 -0.52274,-0.77569 -1.21412,-1.214123 -0.69138,-0.455297 -1.46707,-0.455297 -0.74196,0 -1.26471,0.35412 -0.52274,0.354119 -0.87686,0.961181 -0.33726,0.590198 -0.50589,1.382751 -0.15176,0.792553 -0.15176,1.686282 0,1.079221 0.23608,2.057265 0.25294,0.961181 0.70823,1.703145 0.4553,0.725101 1.09609,1.163535 0.64079,0.42157 1.41647,0.42157 z"
       style="font-style:normal;font-variant:normal;font-weight:normal;font-stretch:normal;font-size:34.53506088px;line-height:1.25;font-family:'Tamil MN';-inkscape-font-specification:'Tamil MN';letter-spacing:0px;word-spacing:0px;fill:#1a1a1a;fill-opacity:1;stroke:none;stroke-width:0.18500927"
       id="path952"
       inkscape:connector-curvature="0" />
    <path
       d="m 152.39583,-9.7390714 a 3.6572138,3.6572138 0 1 1 3.66133,-3.6572136 3.661323,3.661323 0 0 1 -3.66133,3.6572136 z"
       id="path13-3"
       inkscape:connector-curvature="0"
       style="fill:#ca3c32;stroke-width:0.41092291" />
    <path
       d="m 161.18547,-9.7390714 a 3.6572138,3.6572138 0 1 1 3.66133,-3.6572136 3.661323,3.661323 0 0 1 -3.66133,3.6572136 z"
       id="path25-5"
       inkscape:connector-curvature="0"
       style="fill:#9259a3;stroke-width:0.41092291" />
    <path
       d="m 156.79271,-17.353472 a 3.6572138,3.6572138 0 1 1 3.65721,-3.657214 3.6531046,3.6531046 0 0 1 -3.65721,3.657214 z"
       id="path31-6"
       inkscape:connector-curvature="0"
       style="fill:#399746;stroke-width:0.41092291" />
    <path
       d="m 111.36886,-9.0676614 a 3.6572138,3.6572138 0 1 1 3.65721,-3.6572136 3.661323,3.661323 0 0 1 -3.65721,3.6572136 z"
       id="path19-9"
       inkscape:connector-curvature="0"
       style="fill:#4d64ae;stroke-width:0.41092291" />
    <path
       d="m 268.48126,33.47685 a 3.6572138,3.6572138 0 1 1 3.65721,-3.657214 3.661323,3.661323 0 0 1 -3.65721,3.657214 z"
       id="path19-9-6"
       inkscape:connector-curvature="0"
       style="fill:#399746;fill-opacity:1;stroke-width:0.41092291" />
    <path
       d="m 428.94907,33.958985 a 3.6572137,3.6572137 0 1 1 3.66133,-3.657214 3.6613229,3.6613229 0 0 1 -3.66133,3.657214 z"
       id="path25-5-9"
       inkscape:connector-curvature="0"
       style="fill:#9259a3;fill-opacity:1;stroke-width:0.41092291" />
  </g>
</svg>
