<?xml version="1.0" encoding="UTF-8" standalone="no"?>
<svg
   xmlns:dc="http://purl.org/dc/elements/1.1/"
   xmlns:cc="http://creativecommons.org/ns#"
   xmlns:rdf="http://www.w3.org/1999/02/22-rdf-syntax-ns#"
   xmlns:svg="http://www.w3.org/2000/svg"
   xmlns="http://www.w3.org/2000/svg"
   xmlns:sodipodi="http://sodipodi.sourceforge.net/DTD/sodipodi-0.dtd"
   xmlns:inkscape="http://www.inkscape.org/namespaces/inkscape"
   version="1.1"
   id="svg2"
   xml:space="preserve"
   width="236"
   height="216"
   viewBox="0 0 236 216"
   sodipodi:docname="logo.svg"
   inkscape:version="1.0 (b51213c273, 2020-08-10)"
   inkscape:export-filename="/home/vaclav/Downloads/path869.png"
   inkscape:export-xdpi="121.92123"
   inkscape:export-ydpi="121.92123"><metadata
     id="metadata8"><rdf:RDF><cc:Work
         rdf:about=""><dc:format>image/svg+xml</dc:format><dc:type
           rdf:resource="http://purl.org/dc/dcmitype/StillImage" /><dc:title></dc:title></cc:Work></rdf:RDF></metadata><defs
     id="defs6" /><sodipodi:namedview
     pagecolor="#ffffff"
     bordercolor="#666666"
     borderopacity="1"
     objecttolerance="10"
     gridtolerance="10"
     guidetolerance="10"
     inkscape:pageopacity="0"
     inkscape:pageshadow="2"
     inkscape:window-width="1920"
     inkscape:window-height="976"
     id="namedview4"
     showgrid="false"
     inkscape:zoom="1.9212963"
     inkscape:cx="141.16852"
     inkscape:cy="95.027153"
     inkscape:window-x="0"
     inkscape:window-y="27"
     inkscape:window-maximized="1"
     inkscape:current-layer="g10" /><g
     id="g10"
     inkscape:groupmode="layer"
     inkscape:label="logofjfi"
     transform="matrix(1.3333333,0,0,1.3333333,0,5.4e-6)"><path
       style="fill:#9457b0;fill-opacity:1;fill-rule:evenodd;stroke:none"
       d="m 70.694272,78.509016 v -1.395 c -0.786,-0.07 -1.571,-0.16 -2.356,-0.262 v 1.395 c 0.785,0.101 1.59,0.191 2.356,0.262"
       id="path911" /><path
       style="fill:#9457b0;fill-opacity:1;fill-rule:evenodd;stroke:none"
       d="m 48.670272,52.962016 c -0.976,0.367 -1.933,0.75 -2.859,1.152 2.859,0.191 5.719,0.488 8.578,0.887 0.055,-0.453 0.09,-0.922 0.125,-1.375 -2.008,-0.262 -3.941,-0.488 -5.844,-0.664 z"
       id="path909" /><path
       style="fill:#9457b0;fill-opacity:1;fill-rule:evenodd;stroke:none"
       d="m 60.858272,56.083016 c 0.175,-0.297 0.332,-0.594 0.472,-0.887 0.051,-0.125 0.121,-0.262 0.192,-0.422 -0.977,-0.172 -1.934,-0.347 -2.875,-0.504 -0.035,0.453 -0.09,0.926 -0.125,1.379 0.769,0.137 1.554,0.293 2.336,0.434 z"
       id="path907" /><path
       style="fill:#9457b0;fill-opacity:1;fill-rule:evenodd;stroke:none"
       d="m 65.080272,56.954016 c 0.227,-0.434 0.418,-0.871 0.594,-1.324 7.164,1.586 13.668,3.609 19.039,5.789 -0.07,0.472 -0.156,0.941 -0.226,1.414 -4.969,-2.094 -10.164,-3.664 -15.364,-4.973 -1.34,-0.312 -2.683,-0.609 -4.043,-0.906 z"
       id="path905" /><path
       style="fill:#9457b0;fill-opacity:1;fill-rule:evenodd;stroke:none"
       d="m 90.850272,65.848016 c 0.125,-0.453 0.246,-0.925 0.367,-1.378 5.945,3.246 9.172008,6.593 8.301,9.363 -1.324,4.098 -11.125,5.879 -24.309,5.058 v -1.414 c 3.891,0.227 7.778,0.246 11.668,-0.015 3.328,-0.348 6.852,-0.75 9.817,-2.407 1.148,-0.82 1.863,-1.57 1.41,-3.015 -1.184,-2.496 -3.906,-4.203 -6.156,-5.598 -0.364,-0.191 -0.731,-0.402 -1.098,-0.594 z"
       id="path903" /><path
       style="fill:#9457b0;fill-opacity:1;fill-rule:evenodd;stroke:none"
       d="m 74.233272,78.821016 v -1.394 c -0.75,-0.055 -1.5,-0.122 -2.25,-0.192 v 1.395 c 0.75,0.07 1.519,0.14 2.25,0.191 z"
       id="path901" /><path
       style="fill:#000000;fill-opacity:1;fill-rule:evenodd;stroke:none"
       d="m 162.35828,92.595016 v 26.730004 h 13.359 V 92.595016 l 1.375,-1.375 v 29.484004 h -16.109 V 91.220016 Z"
       id="path899" /><path
       style="fill:#000000;fill-opacity:1;fill-rule:evenodd;stroke:none"
       d="m 169.07328,93.102016 c 4.339,0 7.882,-3.539 7.882,-7.882 0,-4.34 -3.543,-7.879 -7.882,-7.879 -4.344,0 -7.883,3.539 -7.883,7.879 0,4.343 3.539,7.882 7.883,7.882 z"
       id="path897" /><path
       style="fill:#0065bd;fill-opacity:1;fill-rule:evenodd;stroke:none"
       d="m 128.08028,86.911016 h 28.036 v 11.527 h -15.204 v 5.563004 h 6.871 v 11.195 l -7.761,-0.055 v 4.188 h -11.926 z"
       id="path895" /><path
       style="fill:#000000;fill-opacity:1;fill-rule:evenodd;stroke:none"
       d="m 126.71728,120.70402 -0.016,-35.168004 h 30.793 v 14.277 h -15.203 v 2.809004 h 6.867 v 13.969 l -7.757,-0.055 v 4.168 z"
       id="path893" /><path
       style="fill:#000000;fill-opacity:1;fill-rule:evenodd;stroke:none"
       d="m 122.95128,91.184016 -1.343,1.344 -0.032,13.527004 c -1.066,6.211 -5.546,10.571 -11.406,12.524 -0.715,0.207 -1.515,0.418 -2.265,0.539 -3.665,0.559 -7.325,0 -10.707008,-1.5 l -1.309,-0.645 c -0.383,-0.226 -0.922,-0.558 -1.305,-0.804 l 5.16,-11.891 c 2.579008,0.715 6.051008,1.692 7.829008,-1.047 0.382,-0.715 0.574,-1.375 0.679,-2.179 l 0.055,-8.524004 -1.43,-1.308 v 9.730004 c -0.176,2.074 -1.57,2.84 -3.019,2.734 -1.797,-0.171 -3.328,-0.523 -4.883008,-1.148 l -6.102,14.141 c 3.504,2.527 7.375008,3.886 11.789008,4.062 9.465,0.156 17.278,-6.746 18.289,-14.558 z"
       id="path891" /><path
       style="fill:#0065bd;fill-opacity:1;fill-rule:evenodd;stroke:none"
       d="m 70.190272,86.911016 h 28.035 v 11.527 h -15.203 v 5.563004 h 6.871 v 11.195 l -7.762,-0.055 v 4.188 h -11.926 z"
       id="path889" /><path
       style="fill:#000000;fill-opacity:1;fill-rule:evenodd;stroke:none"
       d="m 68.826272,120.70402 -0.015,-35.168004 h 30.793 v 14.277 h -15.203 v 2.809004 h 6.867 v 13.969 l -7.758,-0.055 v 4.168 z"
       id="path887" /><path
       style="fill:#000000;fill-opacity:1;fill-rule:evenodd;stroke:none"
       d="m 47.416272,85.048016 c 4.063,24.461004 6.625,54.734004 14.176,55.011004 5.231,0.211 7.758,-9.765 10.844,-16.929 h 3.578 c -4.449,13.476 -9.051,37.574 -15.328,38.761 -2.391,0.454 -4.395,-3.89 -6.992,-13.656 -2.18,-8.281 -4.883,-32.324 -6.278,-63.187004 z"
       id="path885" /><path
       style="fill:#3f61d7;fill-opacity:1;fill-rule:evenodd;stroke:none"
       d="m 45.514272,66.805016 c 2.144,0 3.906,-1.757 3.906,-3.921 0,-2.145 -1.762,-3.907 -3.906,-3.907 -2.16,0 -3.922,1.762 -3.922,3.907 0,2.164 1.762,3.921 3.922,3.921 z"
       id="path883" /><path
       style="fill:#000000;fill-opacity:1;fill-rule:evenodd;stroke:none"
       d="m 114.67028,93.102016 c 4.34,0 7.879,-3.539 7.879,-7.882 0,-4.34 -3.539,-7.879 -7.879,-7.879 -4.344,0 -7.883,3.539 -7.883,7.879 0,4.343 3.539,7.882 7.883,7.882 z"
       id="path881" /><path
       style="fill:#ca3a33;fill-opacity:1;fill-rule:evenodd;stroke:none"
       d="m 27.940272,60.528016 0.765,1.203 c -0.504,0.332 -1.027,0.684 -1.535,1.012 -0.015,0 -0.015,0 -0.035,0 l -0.746,-1.184 c 0.504,-0.332 1.027,-0.679 1.551,-1.031 z"
       id="path879" /><path
       style="fill:#ca3a33;fill-opacity:1;fill-rule:evenodd;stroke:none"
       d="m 48.670272,71.587016 c 0.543,0.136 1.082,0.277 1.621,0.418 0.211,-0.176 0.75,-0.735 0.961,-0.907 0.332,-0.91 0.383,-1.398 0.664,-2.304 -1.047,0.961 -2.164,1.867 -3.246,2.793 z"
       id="path877" /><path
       style="fill:#ca3a33;fill-opacity:1;fill-rule:evenodd;stroke:none"
       d="m 58.975272,47.802016 c 2.043,-0.036 3.664,0.347 4.726,1.183 3.297,2.633 0.383,9.121 -6.73,16.672 0.191,-0.891 0.383,-1.762 0.539,-2.652 2.391,-2.703 4.621,-5.684 5.824,-9.047 0.649,-2.215 0.524,-3.699 -1.777,-4.52 -0.871,-0.156 -1.742,-0.226 -2.617,-0.226 0.019,-0.469 0.035,-0.942 0.035,-1.41 z"
       id="path875" /><path
       style="fill:#ca3a33;fill-opacity:1;fill-rule:evenodd;stroke:none"
       d="m 21.643272,68.360016 c 0.75,-0.769 0.75,-2.179 0,-2.929 -0.801,-0.805 -2.145,-0.75 -2.93,0 -2.789,2.683 -6.797,7.324 -10.0429995,10.671 -7.566,7.844 -10.793,14.645 -7.39,17.332 4.914,3.922 21.8979995,-2.043 38.4289995,-13.339 -0.019,0 -0.035,-0.02 -0.035,-0.02 1.184,-0.852 5.613,-4.027 6.645,-4.848 -0.524,-0.136 -1.082,-0.277 -1.606,-0.453 -0.836,0.629 -5.09,3.664 -5.93,4.258 0.02,0 0.02,0 0.02,0 -1.902,1.305 -3.836,2.543 -5.773,3.695 -6.364,3.852 -13.18,7.27 -20.332,9.379 -2.9459995,0.77 -6.7969995,1.762 -9.7619995,0.699 l -0.438,-0.21 -0.367,-0.243 c -2.30099999,-2.144 0.891,-6.976 2.145,-8.894 1.64,-2.317 3.523,-4.481 5.511,-6.52 3.5389995,-3.679 9.8009995,-6.488 11.8559995,-8.578 z"
       id="path873" /><path
       style="fill:#0065bd;fill-opacity:1;fill-rule:evenodd;stroke:none"
       d="m 35.104272,59.450016 h -0.067 c 0,0 0,0.016 0.016,0.016 z"
       id="path871" /><path
       style="fill:#000000;fill-opacity:1;fill-rule:evenodd;stroke:none"
       d="m 82.709272,84.595016 0.625,-4.571 h 2.532 l -1.153,4.602 z"
       id="path869" /><path
       style="fill:#000000;fill-opacity:1;fill-rule:evenodd;stroke:none"
       d="m 159.67428,84.208016 c -13.058,-1.516 -25.144,-9.414 -35.031,-27.32 -9.59,-17.368 -16.496,-26.68 -21.309,-27.239 -3.906008,-0.453 -8.492008,14.508 -16.718008,47.078 h -2.809 c 4.148,-31.418 9.449,-52.308 16.476008,-73.4409999 0.629,-1.953 1.641,-3.22700003 2.704,-3.22700003 1.64,0 2.632,1.30900003 3.468,3.22700003 7.868,17.4179999 15.102,35.5699999 23.035,53.6019999 4.274,9.656 18.274,26.257 30.114,26.398 z"
       id="path867" /><path
       style="fill:#389723;fill-opacity:1;fill-rule:evenodd;stroke:none"
       d="m 56.971272,34.653016 h -1.359 c -0.071,-0.574 -0.141,-1.148 -0.211,-1.726 h 1.359 c 0.07,0.578 0.141,1.132 0.211,1.726 z"
       id="path865" /><path
       style="fill:#389723;fill-opacity:1;fill-rule:evenodd;stroke:none"
       d="m 36.709272,67.610016 c -0.539,-0.211 -1.062,-0.437 -1.586,-0.664 -0.523,-2.074 -0.976,-4.305 -1.324,-6.695 0.418,-0.262 0.852,-0.504 1.289,-0.75 0.367,2.738 0.891,5.476 1.621,8.109 z"
       id="path863" /><path
       style="fill:#389723;fill-opacity:1;fill-rule:evenodd;stroke:none"
       d="m 36.694272,72.055016 c 0.589,0.227 1.183,0.454 1.777,0.665 0.437,1.062 0.926,2.074 1.48,3.066 0.09,0.176 0.192,0.352 0.297,0.523 -0.382,0.282 -0.75,0.543 -1.132,0.821 -0.891,-1.414 -1.692,-3.121 -2.422,-5.075 z"
       id="path861" /><path
       style="fill:#389723;fill-opacity:1;fill-rule:evenodd;stroke:none"
       d="m 42.936272,79.450016 c -0.387,0.277 -0.785,0.574 -1.188,0.852 1.098,0.89 2.235,1.363 3.438,1.363 2.301,0 4.48,-1.832 6.344,-5.039 -0.489,-0.106 -0.977,-0.195 -1.465,-0.297 -0.696,1.113 -1.532,2.16 -2.598,3.102 l -0.488,0.316 -0.469,0.242 c -1.379,0.508 -2.562,0.176 -3.574,-0.539 z"
       id="path859" /><path
       style="fill:#389723;fill-opacity:1;fill-rule:evenodd;stroke:none"
       d="m 55.350272,30.329016 c 1.203,0.105 2.371,-0.559 2.512,-2.145 0.015,-2.195 -5.598,-11.683 -6.75,-13.652 -1.707,-2.773 -3.782,-4.43 -5.926,-4.43 -6.836,0 -12.418,16.079 -12.418,35.782 0,1.863 0.035,3.695 0.14,5.472 0.454,-0.031 0.907,-0.066 1.36,-0.086 -0.348,-10.058 0.156,-20.609 3.453,-30.218 1.117,-3.032 3.957,-10.442 8.352,-9.434 1.64,0.578 2.843,2.008 3.8,3.508 0.367,0.555 0.715,1.168 1.032,1.726 2.316,5.039 2.351,6.852 2.351,11.418 0,1.153 0.942,2.059 2.094,2.059 z"
       id="path857" /><path
       style="fill:#389723;fill-opacity:1;fill-rule:evenodd;stroke:none"
       d="m 53.346272,72.805016 c -0.453,-0.105 -0.91,-0.191 -1.379,-0.296 0.086,-0.207 0.176,-0.438 0.277,-0.664 2.844,-7.688 3.75,-16.004 3.977,-24.164 0,-2.372 -0.035,-4.797 -0.156,-7.219 h 1.379 c 0.101,1.758 0.172,3.59 0.172,5.422 0,10.722 -1.657,20.347 -4.27,26.921 z"
       id="path855" /><path
       style="fill:#389723;fill-opacity:1;fill-rule:evenodd;stroke:none"
       d="m 55.944272,38.544016 h 1.375 c -0.071,-0.856 -0.137,-1.676 -0.207,-2.496 h -1.36 c 0.067,0.836 0.137,1.656 0.192,2.496 z"
       id="path853" /><path
       style="fill:#9457b0;fill-opacity:1;fill-rule:evenodd;stroke:none"
       d="m 63.092272,79.063016 c -1.273,0 -12.031,-3.902 -14.961,-4.777 -17.191,-4.672 -29.015,-11.559 -27.43,-16.582 1.102,-3.453 8.372,-5.266 18.676,-5.231 -0.926,0.473 -1.847,0.942 -2.773,1.43 -0.61,0.02 -1.238,0.035 -1.848,0.055 -3.785,0.277 -7.848,0.68 -11.246,2.527 -2.023,1.41 -1.883,2.578 -0.504,4.465 3.016,3.348 7.41,5.387 11.418,7.219 4.551,1.898 9.277,3.504 14.039,4.793 5.699,1.535 9.434,1.953 14.629,1.953 0.957,0 1.742,0.629 1.988,1.5 0,0 0,0 0.016,0 v 0.035 c 0.035,0.176 0.055,0.367 0.055,0.559 0,0.172 -0.02,0.367 -0.055,0.539 0,0.785 -1.238,1.515 -2.004,1.515 z"
       id="path851" /><path
       style="fill:#ca3a33;fill-opacity:1;fill-rule:evenodd;stroke:none"
       d="m 32.908272,59.153016 -0.765,-1.238 c 7.269,-4.324 15.551,-8.195 22.699,-9.645 0,0.035 0,0.071 0,0.106 0,0.418 -0.031,0.871 -0.066,1.324 -1.711,0.352 -3.418,0.875 -5.024,1.398 -5.668,2.02 -11.457,4.864 -16.844,8.055 z"
       id="path849" /><path
       style="fill:#ca3a33;fill-opacity:1;fill-rule:evenodd;stroke:none"
       d="m 30.623272,58.821016 0.77,1.238 c -0.508,0.313 -1.012,0.629 -1.5,0.926 l -0.785,-1.222 c 0.488,-0.313 0.992,-0.629 1.515,-0.942 z"
       id="path14" /></g></svg>
