<?xml version="1.0" encoding="utf-8"?>
<svg xmlns="http://www.w3.org/2000/svg" xmlns:xlink="http://www.w3.org/1999/xlink" width="600" height="400" viewBox="0 0 2400 1600">
<defs>
  <clipPath id="clip480">
    <rect x="0" y="0" width="2400" height="1600"/>
  </clipPath>
</defs>
<path clip-path="url(#clip480)" d="M0 1600 L2400 1600 L2400 0 L0 0  Z" fill="#ffffff" fill-rule="evenodd" fill-opacity="1"/>
<defs>
  <clipPath id="clip481">
    <rect x="480" y="0" width="1681" height="1600"/>
  </clipPath>
</defs>
<path clip-path="url(#clip480)" d="M219.866 1423.18 L2352.76 1423.18 L2352.76 47.2441 L219.866 47.2441  Z" fill="#ffffff" fill-rule="evenodd" fill-opacity="1"/>
<defs>
  <clipPath id="clip482">
    <rect x="219" y="47" width="2134" height="1377"/>
  </clipPath>
</defs>
<polyline clip-path="url(#clip482)" style="stroke:#000000; stroke-linecap:round; stroke-linejoin:round; stroke-width:2; stroke-opacity:0.1; fill:none" points="337.179,1423.18 337.179,47.2441 "/>
<polyline clip-path="url(#clip482)" style="stroke:#000000; stroke-linecap:round; stroke-linejoin:round; stroke-width:2; stroke-opacity:0.1; fill:none" points="811.745,1423.18 811.745,47.2441 "/>
<polyline clip-path="url(#clip482)" style="stroke:#000000; stroke-linecap:round; stroke-linejoin:round; stroke-width:2; stroke-opacity:0.1; fill:none" points="1286.31,1423.18 1286.31,47.2441 "/>
<polyline clip-path="url(#clip482)" style="stroke:#000000; stroke-linecap:round; stroke-linejoin:round; stroke-width:2; stroke-opacity:0.1; fill:none" points="1760.88,1423.18 1760.88,47.2441 "/>
<polyline clip-path="url(#clip482)" style="stroke:#000000; stroke-linecap:round; stroke-linejoin:round; stroke-width:2; stroke-opacity:0.1; fill:none" points="2235.44,1423.18 2235.44,47.2441 "/>
<polyline clip-path="url(#clip482)" style="stroke:#000000; stroke-linecap:round; stroke-linejoin:round; stroke-width:2; stroke-opacity:0.1; fill:none" points="219.866,1423.18 2352.76,1423.18 "/>
<polyline clip-path="url(#clip482)" style="stroke:#000000; stroke-linecap:round; stroke-linejoin:round; stroke-width:2; stroke-opacity:0.1; fill:none" points="219.866,1079.47 2352.76,1079.47 "/>
<polyline clip-path="url(#clip482)" style="stroke:#000000; stroke-linecap:round; stroke-linejoin:round; stroke-width:2; stroke-opacity:0.1; fill:none" points="219.866,735.751 2352.76,735.751 "/>
<polyline clip-path="url(#clip482)" style="stroke:#000000; stroke-linecap:round; stroke-linejoin:round; stroke-width:2; stroke-opacity:0.1; fill:none" points="219.866,392.037 2352.76,392.037 "/>
<polyline clip-path="url(#clip482)" style="stroke:#000000; stroke-linecap:round; stroke-linejoin:round; stroke-width:2; stroke-opacity:0.1; fill:none" points="219.866,48.3228 2352.76,48.3228 "/>
<polyline clip-path="url(#clip480)" style="stroke:#000000; stroke-linecap:round; stroke-linejoin:round; stroke-width:4; stroke-opacity:1; fill:none" points="219.866,1423.18 2352.76,1423.18 "/>
<polyline clip-path="url(#clip480)" style="stroke:#000000; stroke-linecap:round; stroke-linejoin:round; stroke-width:4; stroke-opacity:1; fill:none" points="337.179,1423.18 337.179,1404.28 "/>
<polyline clip-path="url(#clip480)" style="stroke:#000000; stroke-linecap:round; stroke-linejoin:round; stroke-width:4; stroke-opacity:1; fill:none" points="811.745,1423.18 811.745,1404.28 "/>
<polyline clip-path="url(#clip480)" style="stroke:#000000; stroke-linecap:round; stroke-linejoin:round; stroke-width:4; stroke-opacity:1; fill:none" points="1286.31,1423.18 1286.31,1404.28 "/>
<polyline clip-path="url(#clip480)" style="stroke:#000000; stroke-linecap:round; stroke-linejoin:round; stroke-width:4; stroke-opacity:1; fill:none" points="1760.88,1423.18 1760.88,1404.28 "/>
<polyline clip-path="url(#clip480)" style="stroke:#000000; stroke-linecap:round; stroke-linejoin:round; stroke-width:4; stroke-opacity:1; fill:none" points="2235.44,1423.18 2235.44,1404.28 "/>
<path clip-path="url(#clip480)" d="M337.179 1454.1 Q333.568 1454.1 331.739 1457.66 Q329.934 1461.2 329.934 1468.33 Q329.934 1475.44 331.739 1479.01 Q333.568 1482.55 337.179 1482.55 Q340.813 1482.55 342.619 1479.01 Q344.447 1475.44 344.447 1468.33 Q344.447 1461.2 342.619 1457.66 Q340.813 1454.1 337.179 1454.1 M337.179 1450.39 Q342.989 1450.39 346.045 1455 Q349.123 1459.58 349.123 1468.33 Q349.123 1477.06 346.045 1481.67 Q342.989 1486.25 337.179 1486.25 Q331.369 1486.25 328.29 1481.67 Q325.235 1477.06 325.235 1468.33 Q325.235 1459.58 328.29 1455 Q331.369 1450.39 337.179 1450.39 Z" fill="#000000" fill-rule="nonzero" fill-opacity="1" /><path clip-path="url(#clip480)" d="M802.127 1481.64 L809.766 1481.64 L809.766 1455.28 L801.456 1456.95 L801.456 1452.69 L809.72 1451.02 L814.395 1451.02 L814.395 1481.64 L822.034 1481.64 L822.034 1485.58 L802.127 1485.58 L802.127 1481.64 Z" fill="#000000" fill-rule="nonzero" fill-opacity="1" /><path clip-path="url(#clip480)" d="M1280.96 1481.64 L1297.28 1481.64 L1297.28 1485.58 L1275.34 1485.58 L1275.34 1481.64 Q1278 1478.89 1282.58 1474.26 Q1287.19 1469.61 1288.37 1468.27 Q1290.62 1465.74 1291.5 1464.01 Q1292.4 1462.25 1292.4 1460.56 Q1292.4 1457.8 1290.45 1456.07 Q1288.53 1454.33 1285.43 1454.33 Q1283.23 1454.33 1280.78 1455.09 Q1278.35 1455.86 1275.57 1457.41 L1275.57 1452.69 Q1278.39 1451.55 1280.85 1450.97 Q1283.3 1450.39 1285.34 1450.39 Q1290.71 1450.39 1293.9 1453.08 Q1297.1 1455.77 1297.1 1460.26 Q1297.1 1462.39 1296.29 1464.31 Q1295.5 1466.2 1293.39 1468.8 Q1292.82 1469.47 1289.71 1472.69 Q1286.61 1475.88 1280.96 1481.64 Z" fill="#000000" fill-rule="nonzero" fill-opacity="1" /><path clip-path="url(#clip480)" d="M1765.12 1466.95 Q1768.48 1467.66 1770.36 1469.93 Q1772.25 1472.2 1772.25 1475.53 Q1772.25 1480.65 1768.74 1483.45 Q1765.22 1486.25 1758.74 1486.25 Q1756.56 1486.25 1754.25 1485.81 Q1751.95 1485.39 1749.5 1484.54 L1749.5 1480.02 Q1751.44 1481.16 1753.76 1481.74 Q1756.07 1482.32 1758.6 1482.32 Q1763 1482.32 1765.29 1480.58 Q1767.6 1478.84 1767.6 1475.53 Q1767.6 1472.48 1765.45 1470.77 Q1763.32 1469.03 1759.5 1469.03 L1755.47 1469.03 L1755.47 1465.19 L1759.69 1465.19 Q1763.13 1465.19 1764.96 1463.82 Q1766.79 1462.43 1766.79 1459.84 Q1766.79 1457.18 1764.89 1455.77 Q1763.02 1454.33 1759.5 1454.33 Q1757.58 1454.33 1755.38 1454.75 Q1753.18 1455.16 1750.54 1456.04 L1750.54 1451.88 Q1753.2 1451.14 1755.52 1450.77 Q1757.86 1450.39 1759.92 1450.39 Q1765.24 1450.39 1768.34 1452.83 Q1771.44 1455.23 1771.44 1459.35 Q1771.44 1462.22 1769.8 1464.21 Q1768.16 1466.18 1765.12 1466.95 Z" fill="#000000" fill-rule="nonzero" fill-opacity="1" /><path clip-path="url(#clip480)" d="M2238.45 1455.09 L2226.65 1473.54 L2238.45 1473.54 L2238.45 1455.09 M2237.23 1451.02 L2243.11 1451.02 L2243.11 1473.54 L2248.04 1473.54 L2248.04 1477.43 L2243.11 1477.43 L2243.11 1485.58 L2238.45 1485.58 L2238.45 1477.43 L2222.85 1477.43 L2222.85 1472.92 L2237.23 1451.02 Z" fill="#000000" fill-rule="nonzero" fill-opacity="1" /><path clip-path="url(#clip480)" d="M1302.93 1532.4 L1290.04 1549.74 L1303.59 1568.04 L1296.69 1568.04 L1286.31 1554.04 L1275.93 1568.04 L1269.03 1568.04 L1282.87 1549.39 L1270.21 1532.4 L1277.11 1532.4 L1286.57 1545.1 L1296.02 1532.4 L1302.93 1532.4 Z" fill="#000000" fill-rule="nonzero" fill-opacity="1" /><polyline clip-path="url(#clip480)" style="stroke:#000000; stroke-linecap:round; stroke-linejoin:round; stroke-width:4; stroke-opacity:1; fill:none" points="219.866,1423.18 219.866,47.2441 "/>
<polyline clip-path="url(#clip480)" style="stroke:#000000; stroke-linecap:round; stroke-linejoin:round; stroke-width:4; stroke-opacity:1; fill:none" points="219.866,1423.18 238.764,1423.18 "/>
<polyline clip-path="url(#clip480)" style="stroke:#000000; stroke-linecap:round; stroke-linejoin:round; stroke-width:4; stroke-opacity:1; fill:none" points="219.866,1079.47 238.764,1079.47 "/>
<polyline clip-path="url(#clip480)" style="stroke:#000000; stroke-linecap:round; stroke-linejoin:round; stroke-width:4; stroke-opacity:1; fill:none" points="219.866,735.751 238.764,735.751 "/>
<polyline clip-path="url(#clip480)" style="stroke:#000000; stroke-linecap:round; stroke-linejoin:round; stroke-width:4; stroke-opacity:1; fill:none" points="219.866,392.037 238.764,392.037 "/>
<polyline clip-path="url(#clip480)" style="stroke:#000000; stroke-linecap:round; stroke-linejoin:round; stroke-width:4; stroke-opacity:1; fill:none" points="219.866,48.3228 238.764,48.3228 "/>
<path clip-path="url(#clip480)" d="M126.691 1408.98 Q123.08 1408.98 121.251 1412.54 Q119.445 1416.08 119.445 1423.21 Q119.445 1430.32 121.251 1433.89 Q123.08 1437.43 126.691 1437.43 Q130.325 1437.43 132.13 1433.89 Q133.959 1430.32 133.959 1423.21 Q133.959 1416.08 132.13 1412.54 Q130.325 1408.98 126.691 1408.98 M126.691 1405.27 Q132.501 1405.27 135.556 1409.88 Q138.635 1414.46 138.635 1423.21 Q138.635 1431.94 135.556 1436.55 Q132.501 1441.13 126.691 1441.13 Q120.88 1441.13 117.802 1436.55 Q114.746 1431.94 114.746 1423.21 Q114.746 1414.46 117.802 1409.88 Q120.88 1405.27 126.691 1405.27 Z" fill="#000000" fill-rule="nonzero" fill-opacity="1" /><path clip-path="url(#clip480)" d="M146.853 1434.58 L151.737 1434.58 L151.737 1440.46 L146.853 1440.46 L146.853 1434.58 Z" fill="#000000" fill-rule="nonzero" fill-opacity="1" /><path clip-path="url(#clip480)" d="M171.922 1408.98 Q168.311 1408.98 166.482 1412.54 Q164.677 1416.08 164.677 1423.21 Q164.677 1430.32 166.482 1433.89 Q168.311 1437.43 171.922 1437.43 Q175.556 1437.43 177.362 1433.89 Q179.19 1430.32 179.19 1423.21 Q179.19 1416.08 177.362 1412.54 Q175.556 1408.98 171.922 1408.98 M171.922 1405.27 Q177.732 1405.27 180.788 1409.88 Q183.866 1414.46 183.866 1423.21 Q183.866 1431.94 180.788 1436.55 Q177.732 1441.13 171.922 1441.13 Q166.112 1441.13 163.033 1436.55 Q159.978 1431.94 159.978 1423.21 Q159.978 1414.46 163.033 1409.88 Q166.112 1405.27 171.922 1405.27 Z" fill="#000000" fill-rule="nonzero" fill-opacity="1" /><path clip-path="url(#clip480)" d="M128.288 1065.26 Q124.677 1065.26 122.848 1068.83 Q121.043 1072.37 121.043 1079.5 Q121.043 1086.61 122.848 1090.17 Q124.677 1093.71 128.288 1093.71 Q131.922 1093.71 133.728 1090.17 Q135.556 1086.61 135.556 1079.5 Q135.556 1072.37 133.728 1068.83 Q131.922 1065.26 128.288 1065.26 M128.288 1061.56 Q134.098 1061.56 137.154 1066.17 Q140.232 1070.75 140.232 1079.5 Q140.232 1088.23 137.154 1092.83 Q134.098 1097.42 128.288 1097.42 Q122.478 1097.42 119.399 1092.83 Q116.343 1088.23 116.343 1079.5 Q116.343 1070.75 119.399 1066.17 Q122.478 1061.56 128.288 1061.56 Z" fill="#000000" fill-rule="nonzero" fill-opacity="1" /><path clip-path="url(#clip480)" d="M148.45 1090.87 L153.334 1090.87 L153.334 1096.75 L148.45 1096.75 L148.45 1090.87 Z" fill="#000000" fill-rule="nonzero" fill-opacity="1" /><path clip-path="url(#clip480)" d="M167.547 1092.81 L183.866 1092.81 L183.866 1096.75 L161.922 1096.75 L161.922 1092.81 Q164.584 1090.06 169.167 1085.43 Q173.774 1080.77 174.954 1079.43 Q177.2 1076.91 178.079 1075.17 Q178.982 1073.41 178.982 1071.72 Q178.982 1068.97 177.038 1067.23 Q175.116 1065.5 172.014 1065.5 Q169.815 1065.5 167.362 1066.26 Q164.931 1067.02 162.153 1068.57 L162.153 1063.85 Q164.977 1062.72 167.431 1062.14 Q169.885 1061.56 171.922 1061.56 Q177.292 1061.56 180.487 1064.25 Q183.681 1066.93 183.681 1071.42 Q183.681 1073.55 182.871 1075.47 Q182.084 1077.37 179.977 1079.96 Q179.399 1080.63 176.297 1083.85 Q173.195 1087.05 167.547 1092.81 Z" fill="#000000" fill-rule="nonzero" fill-opacity="1" /><path clip-path="url(#clip480)" d="M126.205 721.55 Q122.593 721.55 120.765 725.115 Q118.959 728.656 118.959 735.786 Q118.959 742.893 120.765 746.457 Q122.593 749.999 126.205 749.999 Q129.839 749.999 131.644 746.457 Q133.473 742.893 133.473 735.786 Q133.473 728.656 131.644 725.115 Q129.839 721.55 126.205 721.55 M126.205 717.846 Q132.015 717.846 135.07 722.453 Q138.149 727.036 138.149 735.786 Q138.149 744.513 135.07 749.119 Q132.015 753.703 126.205 753.703 Q120.394 753.703 117.316 749.119 Q114.26 744.513 114.26 735.786 Q114.26 727.036 117.316 722.453 Q120.394 717.846 126.205 717.846 Z" fill="#000000" fill-rule="nonzero" fill-opacity="1" /><path clip-path="url(#clip480)" d="M146.366 747.152 L151.251 747.152 L151.251 753.031 L146.366 753.031 L146.366 747.152 Z" fill="#000000" fill-rule="nonzero" fill-opacity="1" /><path clip-path="url(#clip480)" d="M174.283 722.545 L162.477 740.994 L174.283 740.994 L174.283 722.545 M173.056 718.471 L178.936 718.471 L178.936 740.994 L183.866 740.994 L183.866 744.883 L178.936 744.883 L178.936 753.031 L174.283 753.031 L174.283 744.883 L158.681 744.883 L158.681 740.369 L173.056 718.471 Z" fill="#000000" fill-rule="nonzero" fill-opacity="1" /><path clip-path="url(#clip480)" d="M126.529 377.836 Q122.918 377.836 121.089 381.401 Q119.283 384.942 119.283 392.072 Q119.283 399.178 121.089 402.743 Q122.918 406.285 126.529 406.285 Q130.163 406.285 131.968 402.743 Q133.797 399.178 133.797 392.072 Q133.797 384.942 131.968 381.401 Q130.163 377.836 126.529 377.836 M126.529 374.132 Q132.339 374.132 135.394 378.739 Q138.473 383.322 138.473 392.072 Q138.473 400.799 135.394 405.405 Q132.339 409.988 126.529 409.988 Q120.718 409.988 117.64 405.405 Q114.584 400.799 114.584 392.072 Q114.584 383.322 117.64 378.739 Q120.718 374.132 126.529 374.132 Z" fill="#000000" fill-rule="nonzero" fill-opacity="1" /><path clip-path="url(#clip480)" d="M146.691 403.437 L151.575 403.437 L151.575 409.317 L146.691 409.317 L146.691 403.437 Z" fill="#000000" fill-rule="nonzero" fill-opacity="1" /><path clip-path="url(#clip480)" d="M172.339 390.174 Q169.19 390.174 167.339 392.326 Q165.51 394.479 165.51 398.229 Q165.51 401.956 167.339 404.132 Q169.19 406.285 172.339 406.285 Q175.487 406.285 177.315 404.132 Q179.167 401.956 179.167 398.229 Q179.167 394.479 177.315 392.326 Q175.487 390.174 172.339 390.174 M181.621 375.521 L181.621 379.78 Q179.862 378.947 178.056 378.507 Q176.274 378.067 174.514 378.067 Q169.885 378.067 167.431 381.192 Q165.001 384.317 164.653 390.637 Q166.019 388.623 168.079 387.558 Q170.139 386.47 172.616 386.47 Q177.825 386.47 180.834 389.641 Q183.866 392.789 183.866 398.229 Q183.866 403.553 180.718 406.771 Q177.57 409.988 172.339 409.988 Q166.343 409.988 163.172 405.405 Q160.001 400.799 160.001 392.072 Q160.001 383.877 163.89 379.016 Q167.778 374.132 174.329 374.132 Q176.089 374.132 177.871 374.479 Q179.676 374.827 181.621 375.521 Z" fill="#000000" fill-rule="nonzero" fill-opacity="1" /><path clip-path="url(#clip480)" d="M126.783 34.1215 Q123.172 34.1215 121.343 37.6863 Q119.538 41.228 119.538 48.3576 Q119.538 55.464 121.343 59.0288 Q123.172 62.5705 126.783 62.5705 Q130.417 62.5705 132.223 59.0288 Q134.052 55.464 134.052 48.3576 Q134.052 41.228 132.223 37.6863 Q130.417 34.1215 126.783 34.1215 M126.783 30.4179 Q132.593 30.4179 135.649 35.0243 Q138.728 39.6076 138.728 48.3576 Q138.728 57.0844 135.649 61.6908 Q132.593 66.2741 126.783 66.2741 Q120.973 66.2741 117.894 61.6908 Q114.839 57.0844 114.839 48.3576 Q114.839 39.6076 117.894 35.0243 Q120.973 30.4179 126.783 30.4179 Z" fill="#000000" fill-rule="nonzero" fill-opacity="1" /><path clip-path="url(#clip480)" d="M146.945 59.7232 L151.829 59.7232 L151.829 65.6028 L146.945 65.6028 L146.945 59.7232 Z" fill="#000000" fill-rule="nonzero" fill-opacity="1" /><path clip-path="url(#clip480)" d="M172.014 49.1909 Q168.681 49.1909 166.76 50.9733 Q164.862 52.7557 164.862 55.8807 Q164.862 59.0057 166.76 60.7881 Q168.681 62.5705 172.014 62.5705 Q175.348 62.5705 177.269 60.7881 Q179.19 58.9825 179.19 55.8807 Q179.19 52.7557 177.269 50.9733 Q175.371 49.1909 172.014 49.1909 M167.339 47.2002 Q164.329 46.4594 162.64 44.3993 Q160.973 42.3391 160.973 39.3761 Q160.973 35.2326 163.913 32.8252 Q166.876 30.4179 172.014 30.4179 Q177.176 30.4179 180.116 32.8252 Q183.056 35.2326 183.056 39.3761 Q183.056 42.3391 181.366 44.3993 Q179.7 46.4594 176.714 47.2002 Q180.093 47.9872 181.968 50.2789 Q183.866 52.5705 183.866 55.8807 Q183.866 60.9038 180.788 63.589 Q177.732 66.2741 172.014 66.2741 Q166.297 66.2741 163.218 63.589 Q160.163 60.9038 160.163 55.8807 Q160.163 52.5705 162.061 50.2789 Q163.959 47.9872 167.339 47.2002 M165.626 39.8159 Q165.626 42.5011 167.292 44.0057 Q168.982 45.5104 172.014 45.5104 Q175.024 45.5104 176.714 44.0057 Q178.426 42.5011 178.426 39.8159 Q178.426 37.1308 176.714 35.6262 Q175.024 34.1215 172.014 34.1215 Q168.982 34.1215 167.292 35.6262 Q165.626 37.1308 165.626 39.8159 Z" fill="#000000" fill-rule="nonzero" fill-opacity="1" /><path clip-path="url(#clip480)" d="M58.657 821.133 L77.5631 821.133 L77.5631 827.021 L28.3562 827.021 L28.3562 821.133 L33.7671 821.133 Q30.5842 819.287 29.0564 816.486 Q27.4968 813.653 27.4968 809.738 Q27.4968 803.245 32.6531 799.203 Q37.8093 795.129 46.212 795.129 Q54.6147 795.129 59.771 799.203 Q64.9272 803.245 64.9272 809.738 Q64.9272 813.653 63.3994 816.486 Q61.8398 819.287 58.657 821.133 M46.212 801.208 Q39.7508 801.208 36.0905 803.882 Q32.3984 806.524 32.3984 811.171 Q32.3984 815.818 36.0905 818.491 Q39.7508 821.133 46.212 821.133 Q52.6732 821.133 56.3653 818.491 Q60.0256 815.818 60.0256 811.171 Q60.0256 806.524 56.3653 803.882 Q52.6732 801.208 46.212 801.208 Z" fill="#000000" fill-rule="nonzero" fill-opacity="1" /><path clip-path="url(#clip480)" d="M33.7671 761.964 L14.479 761.964 L14.479 756.107 L64.0042 756.107 L64.0042 761.964 L58.657 761.964 Q61.8398 763.81 63.3994 766.643 Q64.9272 769.444 64.9272 773.39 Q64.9272 779.851 59.771 783.926 Q54.6147 787.968 46.212 787.968 Q37.8093 787.968 32.6531 783.926 Q27.4968 779.851 27.4968 773.39 Q27.4968 769.444 29.0564 766.643 Q30.5842 763.81 33.7671 761.964 M46.212 781.92 Q52.6732 781.92 56.3653 779.279 Q60.0256 776.605 60.0256 771.958 Q60.0256 767.311 56.3653 764.637 Q52.6732 761.964 46.212 761.964 Q39.7508 761.964 36.0905 764.637 Q32.3984 767.311 32.3984 771.958 Q32.3984 776.605 36.0905 779.279 Q39.7508 781.92 46.212 781.92 Z" fill="#000000" fill-rule="nonzero" fill-opacity="1" /><path clip-path="url(#clip480)" d="M14.479 725.998 L19.3487 725.998 L19.3487 731.599 Q19.3487 734.75 20.6219 735.992 Q21.895 737.201 25.2052 737.201 L28.3562 737.201 L28.3562 727.557 L32.9077 727.557 L32.9077 737.201 L64.0042 737.201 L64.0042 743.09 L32.9077 743.09 L32.9077 748.691 L28.3562 748.691 L28.3562 743.09 L25.8736 743.09 Q19.9216 743.09 17.2162 740.32 Q14.479 737.551 14.479 731.536 L14.479 725.998 Z" fill="#000000" fill-rule="nonzero" fill-opacity="1" /><path clip-path="url(#clip480)" d="M14.5426 707.028 Q21.8632 711.293 29.0246 713.362 Q36.186 715.431 43.5384 715.431 Q50.8908 715.431 58.1159 713.362 Q65.3091 711.261 72.5979 707.028 L72.5979 712.12 Q65.1182 716.895 57.8931 719.282 Q50.668 721.637 43.5384 721.637 Q36.4406 721.637 29.2474 719.282 Q22.0542 716.926 14.5426 712.12 L14.5426 707.028 Z" fill="#000000" fill-rule="nonzero" fill-opacity="1" /><path clip-path="url(#clip480)" d="M28.3562 666.033 L45.7028 678.923 L64.0042 665.364 L64.0042 672.271 L49.9996 682.647 L64.0042 693.023 L64.0042 699.93 L45.3526 686.085 L28.3562 698.752 L28.3562 691.846 L41.0558 682.393 L28.3562 672.939 L28.3562 666.033 Z" fill="#000000" fill-rule="nonzero" fill-opacity="1" /><path clip-path="url(#clip480)" d="M14.5426 658.012 L14.5426 652.919 Q22.0542 648.145 29.2474 645.79 Q36.4406 643.403 43.5384 643.403 Q50.668 643.403 57.8931 645.79 Q65.1182 648.145 72.5979 652.919 L72.5979 658.012 Q65.3091 653.779 58.1159 651.71 Q50.8908 649.609 43.5384 649.609 Q36.186 649.609 29.0246 651.71 Q21.8632 653.779 14.5426 658.012 Z" fill="#000000" fill-rule="nonzero" fill-opacity="1" /><path clip-path="url(#clip482)" d="M337.179 1421.46 L337.179 1423.18 L384.636 1423.18 L384.636 1421.46 L337.179 1421.46 L337.179 1421.46  Z" fill="#009af9" fill-rule="evenodd" fill-opacity="0.5"/>
<polyline clip-path="url(#clip482)" style="stroke:#000000; stroke-linecap:round; stroke-linejoin:round; stroke-width:4; stroke-opacity:0.5; fill:none" points="337.179,1421.46 337.179,1423.18 384.636,1423.18 384.636,1421.46 337.179,1421.46 "/>
<path clip-path="url(#clip482)" d="M384.636 1421.46 L384.636 1423.18 L432.092 1423.18 L432.092 1421.46 L384.636 1421.46 L384.636 1421.46  Z" fill="#009af9" fill-rule="evenodd" fill-opacity="0.5"/>
<polyline clip-path="url(#clip482)" style="stroke:#000000; stroke-linecap:round; stroke-linejoin:round; stroke-width:4; stroke-opacity:0.5; fill:none" points="384.636,1421.46 384.636,1423.18 432.092,1423.18 432.092,1421.46 384.636,1421.46 "/>
<path clip-path="url(#clip482)" d="M432.092 1418.02 L432.092 1423.18 L479.549 1423.18 L479.549 1418.02 L432.092 1418.02 L432.092 1418.02  Z" fill="#009af9" fill-rule="evenodd" fill-opacity="0.5"/>
<polyline clip-path="url(#clip482)" style="stroke:#000000; stroke-linecap:round; stroke-linejoin:round; stroke-width:4; stroke-opacity:0.5; fill:none" points="432.092,1418.02 432.092,1423.18 479.549,1423.18 479.549,1418.02 432.092,1418.02 "/>
<path clip-path="url(#clip482)" d="M479.549 1421.46 L479.549 1423.18 L527.005 1423.18 L527.005 1421.46 L479.549 1421.46 L479.549 1421.46  Z" fill="#009af9" fill-rule="evenodd" fill-opacity="0.5"/>
<polyline clip-path="url(#clip482)" style="stroke:#000000; stroke-linecap:round; stroke-linejoin:round; stroke-width:4; stroke-opacity:0.5; fill:none" points="479.549,1421.46 479.549,1423.18 527.005,1423.18 527.005,1421.46 479.549,1421.46 "/>
<path clip-path="url(#clip482)" d="M527.005 1409.43 L527.005 1423.18 L574.462 1423.18 L574.462 1409.43 L527.005 1409.43 L527.005 1409.43  Z" fill="#009af9" fill-rule="evenodd" fill-opacity="0.5"/>
<polyline clip-path="url(#clip482)" style="stroke:#000000; stroke-linecap:round; stroke-linejoin:round; stroke-width:4; stroke-opacity:0.5; fill:none" points="527.005,1409.43 527.005,1423.18 574.462,1423.18 574.462,1409.43 527.005,1409.43 "/>
<path clip-path="url(#clip482)" d="M574.462 1405.99 L574.462 1423.18 L621.919 1423.18 L621.919 1405.99 L574.462 1405.99 L574.462 1405.99  Z" fill="#009af9" fill-rule="evenodd" fill-opacity="0.5"/>
<polyline clip-path="url(#clip482)" style="stroke:#000000; stroke-linecap:round; stroke-linejoin:round; stroke-width:4; stroke-opacity:0.5; fill:none" points="574.462,1405.99 574.462,1423.18 621.919,1423.18 621.919,1405.99 574.462,1405.99 "/>
<path clip-path="url(#clip482)" d="M621.919 1380.22 L621.919 1423.18 L669.375 1423.18 L669.375 1380.22 L621.919 1380.22 L621.919 1380.22  Z" fill="#009af9" fill-rule="evenodd" fill-opacity="0.5"/>
<polyline clip-path="url(#clip482)" style="stroke:#000000; stroke-linecap:round; stroke-linejoin:round; stroke-width:4; stroke-opacity:0.5; fill:none" points="621.919,1380.22 621.919,1423.18 669.375,1423.18 669.375,1380.22 621.919,1380.22 "/>
<path clip-path="url(#clip482)" d="M669.375 1359.59 L669.375 1423.18 L716.832 1423.18 L716.832 1359.59 L669.375 1359.59 L669.375 1359.59  Z" fill="#009af9" fill-rule="evenodd" fill-opacity="0.5"/>
<polyline clip-path="url(#clip482)" style="stroke:#000000; stroke-linecap:round; stroke-linejoin:round; stroke-width:4; stroke-opacity:0.5; fill:none" points="669.375,1359.59 669.375,1423.18 716.832,1423.18 716.832,1359.59 669.375,1359.59 "/>
<path clip-path="url(#clip482)" d="M716.832 1345.84 L716.832 1423.18 L764.288 1423.18 L764.288 1345.84 L716.832 1345.84 L716.832 1345.84  Z" fill="#009af9" fill-rule="evenodd" fill-opacity="0.5"/>
<polyline clip-path="url(#clip482)" style="stroke:#000000; stroke-linecap:round; stroke-linejoin:round; stroke-width:4; stroke-opacity:0.5; fill:none" points="716.832,1345.84 716.832,1423.18 764.288,1423.18 764.288,1345.84 716.832,1345.84 "/>
<path clip-path="url(#clip482)" d="M764.288 1270.23 L764.288 1423.18 L811.745 1423.18 L811.745 1270.23 L764.288 1270.23 L764.288 1270.23  Z" fill="#009af9" fill-rule="evenodd" fill-opacity="0.5"/>
<polyline clip-path="url(#clip482)" style="stroke:#000000; stroke-linecap:round; stroke-linejoin:round; stroke-width:4; stroke-opacity:0.5; fill:none" points="764.288,1270.23 764.288,1423.18 811.745,1423.18 811.745,1270.23 764.288,1270.23 "/>
<path clip-path="url(#clip482)" d="M811.745 1218.67 L811.745 1423.18 L859.202 1423.18 L859.202 1218.67 L811.745 1218.67 L811.745 1218.67  Z" fill="#009af9" fill-rule="evenodd" fill-opacity="0.5"/>
<polyline clip-path="url(#clip482)" style="stroke:#000000; stroke-linecap:round; stroke-linejoin:round; stroke-width:4; stroke-opacity:0.5; fill:none" points="811.745,1218.67 811.745,1423.18 859.202,1423.18 859.202,1218.67 811.745,1218.67 "/>
<path clip-path="url(#clip482)" d="M859.202 1106.96 L859.202 1423.18 L906.658 1423.18 L906.658 1106.96 L859.202 1106.96 L859.202 1106.96  Z" fill="#009af9" fill-rule="evenodd" fill-opacity="0.5"/>
<polyline clip-path="url(#clip482)" style="stroke:#000000; stroke-linecap:round; stroke-linejoin:round; stroke-width:4; stroke-opacity:0.5; fill:none" points="859.202,1106.96 859.202,1423.18 906.658,1423.18 906.658,1106.96 859.202,1106.96 "/>
<path clip-path="url(#clip482)" d="M906.658 952.291 L906.658 1423.18 L954.115 1423.18 L954.115 952.291 L906.658 952.291 L906.658 952.291  Z" fill="#009af9" fill-rule="evenodd" fill-opacity="0.5"/>
<polyline clip-path="url(#clip482)" style="stroke:#000000; stroke-linecap:round; stroke-linejoin:round; stroke-width:4; stroke-opacity:0.5; fill:none" points="906.658,952.291 906.658,1423.18 954.115,1423.18 954.115,952.291 906.658,952.291 "/>
<path clip-path="url(#clip482)" d="M954.115 854.333 L954.115 1423.18 L1001.57 1423.18 L1001.57 854.333 L954.115 854.333 L954.115 854.333  Z" fill="#009af9" fill-rule="evenodd" fill-opacity="0.5"/>
<polyline clip-path="url(#clip482)" style="stroke:#000000; stroke-linecap:round; stroke-linejoin:round; stroke-width:4; stroke-opacity:0.5; fill:none" points="954.115,854.333 954.115,1423.18 1001.57,1423.18 1001.57,854.333 954.115,854.333 "/>
<path clip-path="url(#clip482)" d="M1001.57 653.26 L1001.57 1423.18 L1049.03 1423.18 L1049.03 653.26 L1001.57 653.26 L1001.57 653.26  Z" fill="#009af9" fill-rule="evenodd" fill-opacity="0.5"/>
<polyline clip-path="url(#clip482)" style="stroke:#000000; stroke-linecap:round; stroke-linejoin:round; stroke-width:4; stroke-opacity:0.5; fill:none" points="1001.57,653.26 1001.57,1423.18 1049.03,1423.18 1049.03,653.26 1001.57,653.26 "/>
<path clip-path="url(#clip482)" d="M1049.03 472.81 L1049.03 1423.18 L1096.48 1423.18 L1096.48 472.81 L1049.03 472.81 L1049.03 472.81  Z" fill="#009af9" fill-rule="evenodd" fill-opacity="0.5"/>
<polyline clip-path="url(#clip482)" style="stroke:#000000; stroke-linecap:round; stroke-linejoin:round; stroke-width:4; stroke-opacity:0.5; fill:none" points="1049.03,472.81 1049.03,1423.18 1096.48,1423.18 1096.48,472.81 1049.03,472.81 "/>
<path clip-path="url(#clip482)" d="M1096.48 397.193 L1096.48 1423.18 L1143.94 1423.18 L1143.94 397.193 L1096.48 397.193 L1096.48 397.193  Z" fill="#009af9" fill-rule="evenodd" fill-opacity="0.5"/>
<polyline clip-path="url(#clip482)" style="stroke:#000000; stroke-linecap:round; stroke-linejoin:round; stroke-width:4; stroke-opacity:0.5; fill:none" points="1096.48,397.193 1096.48,1423.18 1143.94,1423.18 1143.94,397.193 1096.48,397.193 "/>
<path clip-path="url(#clip482)" d="M1143.94 202.994 L1143.94 1423.18 L1191.4 1423.18 L1191.4 202.994 L1143.94 202.994 L1143.94 202.994  Z" fill="#009af9" fill-rule="evenodd" fill-opacity="0.5"/>
<polyline clip-path="url(#clip482)" style="stroke:#000000; stroke-linecap:round; stroke-linejoin:round; stroke-width:4; stroke-opacity:0.5; fill:none" points="1143.94,202.994 1143.94,1423.18 1191.4,1423.18 1191.4,202.994 1143.94,202.994 "/>
<path clip-path="url(#clip482)" d="M1191.4 72.3828 L1191.4 1423.18 L1238.85 1423.18 L1238.85 72.3828 L1191.4 72.3828 L1191.4 72.3828  Z" fill="#009af9" fill-rule="evenodd" fill-opacity="0.5"/>
<polyline clip-path="url(#clip482)" style="stroke:#000000; stroke-linecap:round; stroke-linejoin:round; stroke-width:4; stroke-opacity:0.5; fill:none" points="1191.4,72.3828 1191.4,1423.18 1238.85,1423.18 1238.85,72.3828 1191.4,72.3828 "/>
<path clip-path="url(#clip482)" d="M1238.85 84.4128 L1238.85 1423.18 L1286.31 1423.18 L1286.31 84.4128 L1238.85 84.4128 L1238.85 84.4128  Z" fill="#009af9" fill-rule="evenodd" fill-opacity="0.5"/>
<polyline clip-path="url(#clip482)" style="stroke:#000000; stroke-linecap:round; stroke-linejoin:round; stroke-width:4; stroke-opacity:0.5; fill:none" points="1238.85,84.4128 1238.85,1423.18 1286.31,1423.18 1286.31,84.4128 1238.85,84.4128 "/>
<path clip-path="url(#clip482)" d="M1286.31 194.401 L1286.31 1423.18 L1333.77 1423.18 L1333.77 194.401 L1286.31 194.401 L1286.31 194.401  Z" fill="#009af9" fill-rule="evenodd" fill-opacity="0.5"/>
<polyline clip-path="url(#clip482)" style="stroke:#000000; stroke-linecap:round; stroke-linejoin:round; stroke-width:4; stroke-opacity:0.5; fill:none" points="1286.31,194.401 1286.31,1423.18 1333.77,1423.18 1333.77,194.401 1286.31,194.401 "/>
<path clip-path="url(#clip482)" d="M1333.77 75.82 L1333.77 1423.18 L1381.22 1423.18 L1381.22 75.82 L1333.77 75.82 L1333.77 75.82  Z" fill="#009af9" fill-rule="evenodd" fill-opacity="0.5"/>
<polyline clip-path="url(#clip482)" style="stroke:#000000; stroke-linecap:round; stroke-linejoin:round; stroke-width:4; stroke-opacity:0.5; fill:none" points="1333.77,75.82 1333.77,1423.18 1381.22,1423.18 1381.22,75.82 1333.77,75.82 "/>
<path clip-path="url(#clip482)" d="M1381.22 189.246 L1381.22 1423.18 L1428.68 1423.18 L1428.68 189.246 L1381.22 189.246 L1381.22 189.246  Z" fill="#009af9" fill-rule="evenodd" fill-opacity="0.5"/>
<polyline clip-path="url(#clip482)" style="stroke:#000000; stroke-linecap:round; stroke-linejoin:round; stroke-width:4; stroke-opacity:0.5; fill:none" points="1381.22,189.246 1381.22,1423.18 1428.68,1423.18 1428.68,189.246 1381.22,189.246 "/>
<path clip-path="url(#clip482)" d="M1428.68 285.486 L1428.68 1423.18 L1476.14 1423.18 L1476.14 285.486 L1428.68 285.486 L1428.68 285.486  Z" fill="#009af9" fill-rule="evenodd" fill-opacity="0.5"/>
<polyline clip-path="url(#clip482)" style="stroke:#000000; stroke-linecap:round; stroke-linejoin:round; stroke-width:4; stroke-opacity:0.5; fill:none" points="1428.68,285.486 1428.68,1423.18 1476.14,1423.18 1476.14,285.486 1428.68,285.486 "/>
<path clip-path="url(#clip482)" d="M1476.14 474.529 L1476.14 1423.18 L1523.59 1423.18 L1523.59 474.529 L1476.14 474.529 L1476.14 474.529  Z" fill="#009af9" fill-rule="evenodd" fill-opacity="0.5"/>
<polyline clip-path="url(#clip482)" style="stroke:#000000; stroke-linecap:round; stroke-linejoin:round; stroke-width:4; stroke-opacity:0.5; fill:none" points="1476.14,474.529 1476.14,1423.18 1523.59,1423.18 1523.59,474.529 1476.14,474.529 "/>
<path clip-path="url(#clip482)" d="M1523.59 727.158 L1523.59 1423.18 L1571.05 1423.18 L1571.05 727.158 L1523.59 727.158 L1523.59 727.158  Z" fill="#009af9" fill-rule="evenodd" fill-opacity="0.5"/>
<polyline clip-path="url(#clip482)" style="stroke:#000000; stroke-linecap:round; stroke-linejoin:round; stroke-width:4; stroke-opacity:0.5; fill:none" points="1523.59,727.158 1523.59,1423.18 1571.05,1423.18 1571.05,727.158 1523.59,727.158 "/>
<path clip-path="url(#clip482)" d="M1571.05 790.746 L1571.05 1423.18 L1618.51 1423.18 L1618.51 790.746 L1571.05 790.746 L1571.05 790.746  Z" fill="#009af9" fill-rule="evenodd" fill-opacity="0.5"/>
<polyline clip-path="url(#clip482)" style="stroke:#000000; stroke-linecap:round; stroke-linejoin:round; stroke-width:4; stroke-opacity:0.5; fill:none" points="1571.05,790.746 1571.05,1423.18 1618.51,1423.18 1618.51,790.746 1571.05,790.746 "/>
<path clip-path="url(#clip482)" d="M1618.51 991.818 L1618.51 1423.18 L1665.96 1423.18 L1665.96 991.818 L1618.51 991.818 L1618.51 991.818  Z" fill="#009af9" fill-rule="evenodd" fill-opacity="0.5"/>
<polyline clip-path="url(#clip482)" style="stroke:#000000; stroke-linecap:round; stroke-linejoin:round; stroke-width:4; stroke-opacity:0.5; fill:none" points="1618.51,991.818 1618.51,1423.18 1665.96,1423.18 1665.96,991.818 1618.51,991.818 "/>
<path clip-path="url(#clip482)" d="M1665.96 1118.99 L1665.96 1423.18 L1713.42 1423.18 L1713.42 1118.99 L1665.96 1118.99 L1665.96 1118.99  Z" fill="#009af9" fill-rule="evenodd" fill-opacity="0.5"/>
<polyline clip-path="url(#clip482)" style="stroke:#000000; stroke-linecap:round; stroke-linejoin:round; stroke-width:4; stroke-opacity:0.5; fill:none" points="1665.96,1118.99 1665.96,1423.18 1713.42,1423.18 1713.42,1118.99 1665.96,1118.99 "/>
<path clip-path="url(#clip482)" d="M1713.42 1191.17 L1713.42 1423.18 L1760.88 1423.18 L1760.88 1191.17 L1713.42 1191.17 L1713.42 1191.17  Z" fill="#009af9" fill-rule="evenodd" fill-opacity="0.5"/>
<polyline clip-path="url(#clip482)" style="stroke:#000000; stroke-linecap:round; stroke-linejoin:round; stroke-width:4; stroke-opacity:0.5; fill:none" points="1713.42,1191.17 1713.42,1423.18 1760.88,1423.18 1760.88,1191.17 1713.42,1191.17 "/>
<path clip-path="url(#clip482)" d="M1760.88 1268.51 L1760.88 1423.18 L1808.33 1423.18 L1808.33 1268.51 L1760.88 1268.51 L1760.88 1268.51  Z" fill="#009af9" fill-rule="evenodd" fill-opacity="0.5"/>
<polyline clip-path="url(#clip482)" style="stroke:#000000; stroke-linecap:round; stroke-linejoin:round; stroke-width:4; stroke-opacity:0.5; fill:none" points="1760.88,1268.51 1760.88,1423.18 1808.33,1423.18 1808.33,1268.51 1760.88,1268.51 "/>
<path clip-path="url(#clip482)" d="M1808.33 1302.88 L1808.33 1423.18 L1855.79 1423.18 L1855.79 1302.88 L1808.33 1302.88 L1808.33 1302.88  Z" fill="#009af9" fill-rule="evenodd" fill-opacity="0.5"/>
<polyline clip-path="url(#clip482)" style="stroke:#000000; stroke-linecap:round; stroke-linejoin:round; stroke-width:4; stroke-opacity:0.5; fill:none" points="1808.33,1302.88 1808.33,1423.18 1855.79,1423.18 1855.79,1302.88 1808.33,1302.88 "/>
<path clip-path="url(#clip482)" d="M1855.79 1363.03 L1855.79 1423.18 L1903.25 1423.18 L1903.25 1363.03 L1855.79 1363.03 L1855.79 1363.03  Z" fill="#009af9" fill-rule="evenodd" fill-opacity="0.5"/>
<polyline clip-path="url(#clip482)" style="stroke:#000000; stroke-linecap:round; stroke-linejoin:round; stroke-width:4; stroke-opacity:0.5; fill:none" points="1855.79,1363.03 1855.79,1423.18 1903.25,1423.18 1903.25,1363.03 1855.79,1363.03 "/>
<path clip-path="url(#clip482)" d="M1903.25 1385.37 L1903.25 1423.18 L1950.7 1423.18 L1950.7 1385.37 L1903.25 1385.37 L1903.25 1385.37  Z" fill="#009af9" fill-rule="evenodd" fill-opacity="0.5"/>
<polyline clip-path="url(#clip482)" style="stroke:#000000; stroke-linecap:round; stroke-linejoin:round; stroke-width:4; stroke-opacity:0.5; fill:none" points="1903.25,1385.37 1903.25,1423.18 1950.7,1423.18 1950.7,1385.37 1903.25,1385.37 "/>
<path clip-path="url(#clip482)" d="M1950.7 1412.87 L1950.7 1423.18 L1998.16 1423.18 L1998.16 1412.87 L1950.7 1412.87 L1950.7 1412.87  Z" fill="#009af9" fill-rule="evenodd" fill-opacity="0.5"/>
<polyline clip-path="url(#clip482)" style="stroke:#000000; stroke-linecap:round; stroke-linejoin:round; stroke-width:4; stroke-opacity:0.5; fill:none" points="1950.7,1412.87 1950.7,1423.18 1998.16,1423.18 1998.16,1412.87 1950.7,1412.87 "/>
<path clip-path="url(#clip482)" d="M1998.16 1416.31 L1998.16 1423.18 L2045.62 1423.18 L2045.62 1416.31 L1998.16 1416.31 L1998.16 1416.31  Z" fill="#009af9" fill-rule="evenodd" fill-opacity="0.5"/>
<polyline clip-path="url(#clip482)" style="stroke:#000000; stroke-linecap:round; stroke-linejoin:round; stroke-width:4; stroke-opacity:0.5; fill:none" points="1998.16,1416.31 1998.16,1423.18 2045.62,1423.18 2045.62,1416.31 1998.16,1416.31 "/>
<path clip-path="url(#clip482)" d="M2045.62 1419.74 L2045.62 1423.18 L2093.07 1423.18 L2093.07 1419.74 L2045.62 1419.74 L2045.62 1419.74  Z" fill="#009af9" fill-rule="evenodd" fill-opacity="0.5"/>
<polyline clip-path="url(#clip482)" style="stroke:#000000; stroke-linecap:round; stroke-linejoin:round; stroke-width:4; stroke-opacity:0.5; fill:none" points="2045.62,1419.74 2045.62,1423.18 2093.07,1423.18 2093.07,1419.74 2045.62,1419.74 "/>
<path clip-path="url(#clip482)" d="M2093.07 1421.46 L2093.07 1423.18 L2140.53 1423.18 L2140.53 1421.46 L2093.07 1421.46 L2093.07 1421.46  Z" fill="#009af9" fill-rule="evenodd" fill-opacity="0.5"/>
<polyline clip-path="url(#clip482)" style="stroke:#000000; stroke-linecap:round; stroke-linejoin:round; stroke-width:4; stroke-opacity:0.5; fill:none" points="2093.07,1421.46 2093.07,1423.18 2140.53,1423.18 2140.53,1421.46 2093.07,1421.46 "/>
<path clip-path="url(#clip482)" d="M2140.53 1421.46 L2140.53 1423.18 L2187.99 1423.18 L2187.99 1421.46 L2140.53 1421.46 L2140.53 1421.46  Z" fill="#009af9" fill-rule="evenodd" fill-opacity="0.5"/>
<polyline clip-path="url(#clip482)" style="stroke:#000000; stroke-linecap:round; stroke-linejoin:round; stroke-width:4; stroke-opacity:0.5; fill:none" points="2140.53,1421.46 2140.53,1423.18 2187.99,1423.18 2187.99,1421.46 2140.53,1421.46 "/>
<path clip-path="url(#clip482)" d="M2187.99 1421.46 L2187.99 1423.18 L2235.44 1423.18 L2235.44 1421.46 L2187.99 1421.46 L2187.99 1421.46  Z" fill="#009af9" fill-rule="evenodd" fill-opacity="0.5"/>
<polyline clip-path="url(#clip482)" style="stroke:#000000; stroke-linecap:round; stroke-linejoin:round; stroke-width:4; stroke-opacity:0.5; fill:none" points="2187.99,1421.46 2187.99,1423.18 2235.44,1423.18 2235.44,1421.46 2187.99,1421.46 "/>
<circle clip-path="url(#clip482)" style="fill:#009af9; stroke:none; fill-opacity:0" cx="360.907" cy="1421.46" r="2"/>
<circle clip-path="url(#clip482)" style="fill:#009af9; stroke:none; fill-opacity:0" cx="408.364" cy="1421.46" r="2"/>
<circle clip-path="url(#clip482)" style="fill:#009af9; stroke:none; fill-opacity:0" cx="455.821" cy="1418.02" r="2"/>
<circle clip-path="url(#clip482)" style="fill:#009af9; stroke:none; fill-opacity:0" cx="503.277" cy="1421.46" r="2"/>
<circle clip-path="url(#clip482)" style="fill:#009af9; stroke:none; fill-opacity:0" cx="550.734" cy="1409.43" r="2"/>
<circle clip-path="url(#clip482)" style="fill:#009af9; stroke:none; fill-opacity:0" cx="598.19" cy="1405.99" r="2"/>
<circle clip-path="url(#clip482)" style="fill:#009af9; stroke:none; fill-opacity:0" cx="645.647" cy="1380.22" r="2"/>
<circle clip-path="url(#clip482)" style="fill:#009af9; stroke:none; fill-opacity:0" cx="693.104" cy="1359.59" r="2"/>
<circle clip-path="url(#clip482)" style="fill:#009af9; stroke:none; fill-opacity:0" cx="740.56" cy="1345.84" r="2"/>
<circle clip-path="url(#clip482)" style="fill:#009af9; stroke:none; fill-opacity:0" cx="788.017" cy="1270.23" r="2"/>
<circle clip-path="url(#clip482)" style="fill:#009af9; stroke:none; fill-opacity:0" cx="835.473" cy="1218.67" r="2"/>
<circle clip-path="url(#clip482)" style="fill:#009af9; stroke:none; fill-opacity:0" cx="882.93" cy="1106.96" r="2"/>
<circle clip-path="url(#clip482)" style="fill:#009af9; stroke:none; fill-opacity:0" cx="930.387" cy="952.291" r="2"/>
<circle clip-path="url(#clip482)" style="fill:#009af9; stroke:none; fill-opacity:0" cx="977.843" cy="854.333" r="2"/>
<circle clip-path="url(#clip482)" style="fill:#009af9; stroke:none; fill-opacity:0" cx="1025.3" cy="653.26" r="2"/>
<circle clip-path="url(#clip482)" style="fill:#009af9; stroke:none; fill-opacity:0" cx="1072.76" cy="472.81" r="2"/>
<circle clip-path="url(#clip482)" style="fill:#009af9; stroke:none; fill-opacity:0" cx="1120.21" cy="397.193" r="2"/>
<circle clip-path="url(#clip482)" style="fill:#009af9; stroke:none; fill-opacity:0" cx="1167.67" cy="202.994" r="2"/>
<circle clip-path="url(#clip482)" style="fill:#009af9; stroke:none; fill-opacity:0" cx="1215.13" cy="72.3828" r="2"/>
<circle clip-path="url(#clip482)" style="fill:#009af9; stroke:none; fill-opacity:0" cx="1262.58" cy="84.4128" r="2"/>
<circle clip-path="url(#clip482)" style="fill:#009af9; stroke:none; fill-opacity:0" cx="1310.04" cy="194.401" r="2"/>
<circle clip-path="url(#clip482)" style="fill:#009af9; stroke:none; fill-opacity:0" cx="1357.5" cy="75.82" r="2"/>
<circle clip-path="url(#clip482)" style="fill:#009af9; stroke:none; fill-opacity:0" cx="1404.95" cy="189.246" r="2"/>
<circle clip-path="url(#clip482)" style="fill:#009af9; stroke:none; fill-opacity:0" cx="1452.41" cy="285.486" r="2"/>
<circle clip-path="url(#clip482)" style="fill:#009af9; stroke:none; fill-opacity:0" cx="1499.87" cy="474.529" r="2"/>
<circle clip-path="url(#clip482)" style="fill:#009af9; stroke:none; fill-opacity:0" cx="1547.32" cy="727.158" r="2"/>
<circle clip-path="url(#clip482)" style="fill:#009af9; stroke:none; fill-opacity:0" cx="1594.78" cy="790.746" r="2"/>
<circle clip-path="url(#clip482)" style="fill:#009af9; stroke:none; fill-opacity:0" cx="1642.24" cy="991.818" r="2"/>
<circle clip-path="url(#clip482)" style="fill:#009af9; stroke:none; fill-opacity:0" cx="1689.69" cy="1118.99" r="2"/>
<circle clip-path="url(#clip482)" style="fill:#009af9; stroke:none; fill-opacity:0" cx="1737.15" cy="1191.17" r="2"/>
<circle clip-path="url(#clip482)" style="fill:#009af9; stroke:none; fill-opacity:0" cx="1784.61" cy="1268.51" r="2"/>
<circle clip-path="url(#clip482)" style="fill:#009af9; stroke:none; fill-opacity:0" cx="1832.06" cy="1302.88" r="2"/>
<circle clip-path="url(#clip482)" style="fill:#009af9; stroke:none; fill-opacity:0" cx="1879.52" cy="1363.03" r="2"/>
<circle clip-path="url(#clip482)" style="fill:#009af9; stroke:none; fill-opacity:0" cx="1926.98" cy="1385.37" r="2"/>
<circle clip-path="url(#clip482)" style="fill:#009af9; stroke:none; fill-opacity:0" cx="1974.43" cy="1412.87" r="2"/>
<circle clip-path="url(#clip482)" style="fill:#009af9; stroke:none; fill-opacity:0" cx="2021.89" cy="1416.31" r="2"/>
<circle clip-path="url(#clip482)" style="fill:#009af9; stroke:none; fill-opacity:0" cx="2069.35" cy="1419.74" r="2"/>
<circle clip-path="url(#clip482)" style="fill:#009af9; stroke:none; fill-opacity:0" cx="2116.8" cy="1421.46" r="2"/>
<circle clip-path="url(#clip482)" style="fill:#009af9; stroke:none; fill-opacity:0" cx="2164.26" cy="1421.46" r="2"/>
<circle clip-path="url(#clip482)" style="fill:#009af9; stroke:none; fill-opacity:0" cx="2211.71" cy="1421.46" r="2"/>
<polyline clip-path="url(#clip482)" style="stroke:#e26f46; stroke-linecap:round; stroke-linejoin:round; stroke-width:8; stroke-opacity:1; fill:none" points="408.109,1421.81 413.834,1421.69 419.559,1421.55 472.494,1419.56 525.428,1415.54 557.24,1411.5 589.051,1405.64 615.947,1398.79 642.844,1389.7 657.452,1383.64 672.06,1376.65 686.669,1368.64 701.277,1359.49 714.745,1349.94 728.213,1339.25 741.68,1327.3 755.148,1314 769.587,1298.15 784.025,1280.52 798.464,1261.01 812.903,1239.53 829.632,1212.04 846.36,1181.64 863.089,1148.25 879.818,1111.81 894.684,1076.84 909.551,1039.47 924.417,999.747 939.284,957.753 952.32,919.157 965.357,879.017 978.394,837.463 991.43,794.651 1019.86,697.818 1048.28,598.081 1076.88,497.51 1105.48,399.76 1113.38,373.676 1121.28,348.13 1129.19,323.192 1137.09,298.932 1145,275.421 1152.9,252.726 1160.8,230.916 1168.71,210.057 1176.23,191.149 1183.75,173.212 1191.27,156.297 1198.79,140.451 1206.31,125.72 1213.83,112.146 1221.35,99.7708 1228.87,88.6293 1236.69,78.3887 1244.51,69.551 1252.33,62.1446 1260.15,56.1938 1267.97,51.7178 1275.79,48.7313 1283.61,47.2441 1291.43,47.2611 1298.01,48.4415 1304.59,50.685 1311.18,53.9865 1317.76,58.3383 1324.34,63.7304 1330.92,70.1502 1337.51,77.583 1344.09,86.0117 1352.12,97.6243 1360.16,110.653 1368.2,125.055 1376.23,140.78 1384.27,157.778 1392.31,175.993 1400.34,195.364 1408.38,215.831 1423.1,255.95 1437.83,299.104 1445.19,321.682 1452.55,344.852 1459.91,368.558 1467.27,392.742 1494.47,485.292 1521.67,580.75 1549.22,677.67 1576.77,772.336 1592.2,823.595 1607.64,873.166 1623.08,920.786 1638.52,966.234 1652.51,1005.4 1666.5,1042.54 1680.48,1077.59 1694.47,1110.51 1710.49,1145.57 1726.51,1177.82 1742.52,1207.32 1758.54,1234.14 1773.37,1256.68 1788.2,1277.1 1803.03,1295.53 1817.86,1312.06 1832.48,1326.64 1847.1,1339.63 1861.72,1351.14 1876.34,1361.31 1890.54,1370 1904.73,1377.63 1918.93,1384.31 1933.12,1390.13 1962.23,1399.74 1991.33,1406.81 2023.22,1412.32 2055.1,1416.11 2101.42,1419.51 2147.75,1421.34 2157.25,1421.6 2166.75,1421.81 "/>
</svg>
