<?xml version="1.0" encoding="utf-8"?>
<svg xmlns="http://www.w3.org/2000/svg" xmlns:xlink="http://www.w3.org/1999/xlink" width="600" height="400" viewBox="0 0 2400 1600">
<defs>
  <clipPath id="clip450">
    <rect x="0" y="0" width="2400" height="1600"/>
  </clipPath>
</defs>
<path clip-path="url(#clip450)" d="
M0 1600 L2400 1600 L2400 0 L0 0  Z
  " fill="#ffffff" fill-rule="evenodd" fill-opacity="1"/>
<defs>
  <clipPath id="clip451">
    <rect x="480" y="0" width="1681" height="1600"/>
  </clipPath>
</defs>
<path clip-path="url(#clip450)" d="
M193.936 1486.45 L2352.76 1486.45 L2352.76 47.2441 L193.936 47.2441  Z
  " fill="#ffffff" fill-rule="evenodd" fill-opacity="1"/>
<defs>
  <clipPath id="clip452">
    <rect x="193" y="47" width="2160" height="1440"/>
  </clipPath>
</defs>
<polyline clip-path="url(#clip452)" style="stroke:#000000; stroke-linecap:round; stroke-linejoin:round; stroke-width:2; stroke-opacity:0.1; fill:none" points="
  255.035,1486.45 255.035,47.2441 
  "/>
<polyline clip-path="url(#clip452)" style="stroke:#000000; stroke-linecap:round; stroke-linejoin:round; stroke-width:2; stroke-opacity:0.1; fill:none" points="
  580.802,1486.45 580.802,47.2441 
  "/>
<polyline clip-path="url(#clip452)" style="stroke:#000000; stroke-linecap:round; stroke-linejoin:round; stroke-width:2; stroke-opacity:0.1; fill:none" points="
  906.569,1486.45 906.569,47.2441 
  "/>
<polyline clip-path="url(#clip452)" style="stroke:#000000; stroke-linecap:round; stroke-linejoin:round; stroke-width:2; stroke-opacity:0.1; fill:none" points="
  1232.34,1486.45 1232.34,47.2441 
  "/>
<polyline clip-path="url(#clip452)" style="stroke:#000000; stroke-linecap:round; stroke-linejoin:round; stroke-width:2; stroke-opacity:0.1; fill:none" points="
  1558.1,1486.45 1558.1,47.2441 
  "/>
<polyline clip-path="url(#clip452)" style="stroke:#000000; stroke-linecap:round; stroke-linejoin:round; stroke-width:2; stroke-opacity:0.1; fill:none" points="
  1883.87,1486.45 1883.87,47.2441 
  "/>
<polyline clip-path="url(#clip452)" style="stroke:#000000; stroke-linecap:round; stroke-linejoin:round; stroke-width:2; stroke-opacity:0.1; fill:none" points="
  2209.64,1486.45 2209.64,47.2441 
  "/>
<polyline clip-path="url(#clip450)" style="stroke:#000000; stroke-linecap:round; stroke-linejoin:round; stroke-width:4; stroke-opacity:1; fill:none" points="
  193.936,1486.45 2352.76,1486.45 
  "/>
<polyline clip-path="url(#clip450)" style="stroke:#000000; stroke-linecap:round; stroke-linejoin:round; stroke-width:4; stroke-opacity:1; fill:none" points="
  255.035,1486.45 255.035,1467.55 
  "/>
<polyline clip-path="url(#clip450)" style="stroke:#000000; stroke-linecap:round; stroke-linejoin:round; stroke-width:4; stroke-opacity:1; fill:none" points="
  580.802,1486.45 580.802,1467.55 
  "/>
<polyline clip-path="url(#clip450)" style="stroke:#000000; stroke-linecap:round; stroke-linejoin:round; stroke-width:4; stroke-opacity:1; fill:none" points="
  906.569,1486.45 906.569,1467.55 
  "/>
<polyline clip-path="url(#clip450)" style="stroke:#000000; stroke-linecap:round; stroke-linejoin:round; stroke-width:4; stroke-opacity:1; fill:none" points="
  1232.34,1486.45 1232.34,1467.55 
  "/>
<polyline clip-path="url(#clip450)" style="stroke:#000000; stroke-linecap:round; stroke-linejoin:round; stroke-width:4; stroke-opacity:1; fill:none" points="
  1558.1,1486.45 1558.1,1467.55 
  "/>
<polyline clip-path="url(#clip450)" style="stroke:#000000; stroke-linecap:round; stroke-linejoin:round; stroke-width:4; stroke-opacity:1; fill:none" points="
  1883.87,1486.45 1883.87,1467.55 
  "/>
<polyline clip-path="url(#clip450)" style="stroke:#000000; stroke-linecap:round; stroke-linejoin:round; stroke-width:4; stroke-opacity:1; fill:none" points="
  2209.64,1486.45 2209.64,1467.55 
  "/>
<path clip-path="url(#clip450)" d="M255.035 1517.37 Q251.424 1517.37 249.595 1520.93 Q247.789 1524.47 247.789 1531.6 Q247.789 1538.71 249.595 1542.27 Q251.424 1545.82 255.035 1545.82 Q258.669 1545.82 260.474 1542.27 Q262.303 1538.71 262.303 1531.6 Q262.303 1524.47 260.474 1520.93 Q258.669 1517.37 255.035 1517.37 M255.035 1513.66 Q260.845 1513.66 263.9 1518.27 Q266.979 1522.85 266.979 1531.6 Q266.979 1540.33 263.9 1544.94 Q260.845 1549.52 255.035 1549.52 Q249.225 1549.52 246.146 1544.94 Q243.09 1540.33 243.09 1531.6 Q243.09 1522.85 246.146 1518.27 Q249.225 1513.66 255.035 1513.66 Z" fill="#000000" fill-rule="evenodd" fill-opacity="1" /><path clip-path="url(#clip450)" d="M571.184 1544.91 L578.823 1544.91 L578.823 1518.55 L570.513 1520.21 L570.513 1515.95 L578.777 1514.29 L583.453 1514.29 L583.453 1544.91 L591.091 1544.91 L591.091 1548.85 L571.184 1548.85 L571.184 1544.91 Z" fill="#000000" fill-rule="evenodd" fill-opacity="1" /><path clip-path="url(#clip450)" d="M901.222 1544.91 L917.542 1544.91 L917.542 1548.85 L895.597 1548.85 L895.597 1544.91 Q898.259 1542.16 902.843 1537.53 Q907.449 1532.88 908.63 1531.53 Q910.875 1529.01 911.755 1527.27 Q912.657 1525.51 912.657 1523.82 Q912.657 1521.07 910.713 1519.33 Q908.792 1517.6 905.69 1517.6 Q903.491 1517.6 901.037 1518.36 Q898.607 1519.13 895.829 1520.68 L895.829 1515.95 Q898.653 1514.82 901.107 1514.24 Q903.56 1513.66 905.597 1513.66 Q910.968 1513.66 914.162 1516.35 Q917.356 1519.03 917.356 1523.52 Q917.356 1525.65 916.546 1527.57 Q915.759 1529.47 913.653 1532.07 Q913.074 1532.74 909.972 1535.95 Q906.87 1539.15 901.222 1544.91 Z" fill="#000000" fill-rule="evenodd" fill-opacity="1" /><path clip-path="url(#clip450)" d="M1236.58 1530.21 Q1239.94 1530.93 1241.82 1533.2 Q1243.71 1535.47 1243.71 1538.8 Q1243.71 1543.92 1240.2 1546.72 Q1236.68 1549.52 1230.2 1549.52 Q1228.02 1549.52 1225.7 1549.08 Q1223.41 1548.66 1220.96 1547.81 L1220.96 1543.29 Q1222.9 1544.43 1225.22 1545.01 Q1227.53 1545.58 1230.06 1545.58 Q1234.45 1545.58 1236.75 1543.85 Q1239.06 1542.11 1239.06 1538.8 Q1239.06 1535.75 1236.91 1534.03 Q1234.78 1532.3 1230.96 1532.3 L1226.93 1532.3 L1226.93 1528.45 L1231.14 1528.45 Q1234.59 1528.45 1236.42 1527.09 Q1238.25 1525.7 1238.25 1523.11 Q1238.25 1520.45 1236.35 1519.03 Q1234.48 1517.6 1230.96 1517.6 Q1229.04 1517.6 1226.84 1518.01 Q1224.64 1518.43 1222 1519.31 L1222 1515.14 Q1224.66 1514.4 1226.98 1514.03 Q1229.32 1513.66 1231.38 1513.66 Q1236.7 1513.66 1239.8 1516.09 Q1242.9 1518.5 1242.9 1522.62 Q1242.9 1525.49 1241.26 1527.48 Q1239.62 1529.45 1236.58 1530.21 Z" fill="#000000" fill-rule="evenodd" fill-opacity="1" /><path clip-path="url(#clip450)" d="M1561.11 1518.36 L1549.31 1536.81 L1561.11 1536.81 L1561.11 1518.36 M1559.89 1514.29 L1565.77 1514.29 L1565.77 1536.81 L1570.7 1536.81 L1570.7 1540.7 L1565.77 1540.7 L1565.77 1548.85 L1561.11 1548.85 L1561.11 1540.7 L1545.51 1540.7 L1545.51 1536.19 L1559.89 1514.29 Z" fill="#000000" fill-rule="evenodd" fill-opacity="1" /><path clip-path="url(#clip450)" d="M1874.15 1514.29 L1892.51 1514.29 L1892.51 1518.22 L1878.43 1518.22 L1878.43 1526.7 Q1879.45 1526.35 1880.47 1526.19 Q1881.49 1526 1882.51 1526 Q1888.29 1526 1891.67 1529.17 Q1895.05 1532.34 1895.05 1537.76 Q1895.05 1543.34 1891.58 1546.44 Q1888.11 1549.52 1881.79 1549.52 Q1879.61 1549.52 1877.34 1549.15 Q1875.1 1548.78 1872.69 1548.04 L1872.69 1543.34 Q1874.77 1544.47 1877 1545.03 Q1879.22 1545.58 1881.7 1545.58 Q1885.7 1545.58 1888.04 1543.48 Q1890.38 1541.37 1890.38 1537.76 Q1890.38 1534.15 1888.04 1532.04 Q1885.7 1529.94 1881.7 1529.94 Q1879.82 1529.94 1877.95 1530.35 Q1876.09 1530.77 1874.15 1531.65 L1874.15 1514.29 Z" fill="#000000" fill-rule="evenodd" fill-opacity="1" /><path clip-path="url(#clip450)" d="M2210.04 1529.7 Q2206.9 1529.7 2205.04 1531.86 Q2203.22 1534.01 2203.22 1537.76 Q2203.22 1541.49 2205.04 1543.66 Q2206.9 1545.82 2210.04 1545.82 Q2213.19 1545.82 2215.02 1543.66 Q2216.87 1541.49 2216.87 1537.76 Q2216.87 1534.01 2215.02 1531.86 Q2213.19 1529.7 2210.04 1529.7 M2219.33 1515.05 L2219.33 1519.31 Q2217.57 1518.48 2215.76 1518.04 Q2213.98 1517.6 2212.22 1517.6 Q2207.59 1517.6 2205.14 1520.72 Q2202.71 1523.85 2202.36 1530.17 Q2203.72 1528.15 2205.78 1527.09 Q2207.85 1526 2210.32 1526 Q2215.53 1526 2218.54 1529.17 Q2221.57 1532.32 2221.57 1537.76 Q2221.57 1543.08 2218.42 1546.3 Q2215.28 1549.52 2210.04 1549.52 Q2204.05 1549.52 2200.88 1544.94 Q2197.71 1540.33 2197.71 1531.6 Q2197.71 1523.41 2201.6 1518.55 Q2205.48 1513.66 2212.03 1513.66 Q2213.79 1513.66 2215.58 1514.01 Q2217.38 1514.36 2219.33 1515.05 Z" fill="#000000" fill-rule="evenodd" fill-opacity="1" /><polyline clip-path="url(#clip452)" style="stroke:#000000; stroke-linecap:round; stroke-linejoin:round; stroke-width:2; stroke-opacity:0.1; fill:none" points="
  193.936,1445.72 2352.76,1445.72 
  "/>
<polyline clip-path="url(#clip452)" style="stroke:#000000; stroke-linecap:round; stroke-linejoin:round; stroke-width:2; stroke-opacity:0.1; fill:none" points="
  193.936,1106.28 2352.76,1106.28 
  "/>
<polyline clip-path="url(#clip452)" style="stroke:#000000; stroke-linecap:round; stroke-linejoin:round; stroke-width:2; stroke-opacity:0.1; fill:none" points="
  193.936,766.846 2352.76,766.846 
  "/>
<polyline clip-path="url(#clip452)" style="stroke:#000000; stroke-linecap:round; stroke-linejoin:round; stroke-width:2; stroke-opacity:0.1; fill:none" points="
  193.936,427.411 2352.76,427.411 
  "/>
<polyline clip-path="url(#clip452)" style="stroke:#000000; stroke-linecap:round; stroke-linejoin:round; stroke-width:2; stroke-opacity:0.1; fill:none" points="
  193.936,87.9763 2352.76,87.9763 
  "/>
<polyline clip-path="url(#clip450)" style="stroke:#000000; stroke-linecap:round; stroke-linejoin:round; stroke-width:4; stroke-opacity:1; fill:none" points="
  193.936,1486.45 193.936,47.2441 
  "/>
<polyline clip-path="url(#clip450)" style="stroke:#000000; stroke-linecap:round; stroke-linejoin:round; stroke-width:4; stroke-opacity:1; fill:none" points="
  193.936,1445.72 212.834,1445.72 
  "/>
<polyline clip-path="url(#clip450)" style="stroke:#000000; stroke-linecap:round; stroke-linejoin:round; stroke-width:4; stroke-opacity:1; fill:none" points="
  193.936,1106.28 212.834,1106.28 
  "/>
<polyline clip-path="url(#clip450)" style="stroke:#000000; stroke-linecap:round; stroke-linejoin:round; stroke-width:4; stroke-opacity:1; fill:none" points="
  193.936,766.846 212.834,766.846 
  "/>
<polyline clip-path="url(#clip450)" style="stroke:#000000; stroke-linecap:round; stroke-linejoin:round; stroke-width:4; stroke-opacity:1; fill:none" points="
  193.936,427.411 212.834,427.411 
  "/>
<polyline clip-path="url(#clip450)" style="stroke:#000000; stroke-linecap:round; stroke-linejoin:round; stroke-width:4; stroke-opacity:1; fill:none" points="
  193.936,87.9763 212.834,87.9763 
  "/>
<path clip-path="url(#clip450)" d="M50.9921 1446.17 L80.6679 1446.17 L80.6679 1450.1 L50.9921 1450.1 L50.9921 1446.17 Z" fill="#000000" fill-rule="evenodd" fill-opacity="1" /><path clip-path="url(#clip450)" d="M91.5706 1459.06 L99.2095 1459.06 L99.2095 1432.69 L90.8993 1434.36 L90.8993 1430.1 L99.1632 1428.44 L103.839 1428.44 L103.839 1459.06 L111.478 1459.06 L111.478 1463 L91.5706 1463 L91.5706 1459.06 Z" fill="#000000" fill-rule="evenodd" fill-opacity="1" /><path clip-path="url(#clip450)" d="M120.922 1457.12 L125.807 1457.12 L125.807 1463 L120.922 1463 L120.922 1457.12 Z" fill="#000000" fill-rule="evenodd" fill-opacity="1" /><path clip-path="url(#clip450)" d="M145.992 1431.51 Q142.381 1431.51 140.552 1435.08 Q138.746 1438.62 138.746 1445.75 Q138.746 1452.86 140.552 1456.42 Q142.381 1459.96 145.992 1459.96 Q149.626 1459.96 151.431 1456.42 Q153.26 1452.86 153.26 1445.75 Q153.26 1438.62 151.431 1435.08 Q149.626 1431.51 145.992 1431.51 M145.992 1427.81 Q151.802 1427.81 154.857 1432.42 Q157.936 1437 157.936 1445.75 Q157.936 1454.48 154.857 1459.08 Q151.802 1463.67 145.992 1463.67 Q140.181 1463.67 137.103 1459.08 Q134.047 1454.48 134.047 1445.75 Q134.047 1437 137.103 1432.42 Q140.181 1427.81 145.992 1427.81 Z" fill="#000000" fill-rule="evenodd" fill-opacity="1" /><path clip-path="url(#clip450)" d="M51.9875 1106.73 L81.6633 1106.73 L81.6633 1110.67 L51.9875 1110.67 L51.9875 1106.73 Z" fill="#000000" fill-rule="evenodd" fill-opacity="1" /><path clip-path="url(#clip450)" d="M101.756 1092.08 Q98.1447 1092.08 96.316 1095.64 Q94.5104 1099.19 94.5104 1106.32 Q94.5104 1113.42 96.316 1116.99 Q98.1447 1120.53 101.756 1120.53 Q105.39 1120.53 107.196 1116.99 Q109.024 1113.42 109.024 1106.32 Q109.024 1099.19 107.196 1095.64 Q105.39 1092.08 101.756 1092.08 M101.756 1088.38 Q107.566 1088.38 110.621 1092.98 Q113.7 1097.57 113.7 1106.32 Q113.7 1115.04 110.621 1119.65 Q107.566 1124.23 101.756 1124.23 Q95.9456 1124.23 92.8669 1119.65 Q89.8114 1115.04 89.8114 1106.32 Q89.8114 1097.57 92.8669 1092.98 Q95.9456 1088.38 101.756 1088.38 Z" fill="#000000" fill-rule="evenodd" fill-opacity="1" /><path clip-path="url(#clip450)" d="M121.918 1117.68 L126.802 1117.68 L126.802 1123.56 L121.918 1123.56 L121.918 1117.68 Z" fill="#000000" fill-rule="evenodd" fill-opacity="1" /><path clip-path="url(#clip450)" d="M137.033 1089 L155.39 1089 L155.39 1092.94 L141.316 1092.94 L141.316 1101.41 Q142.334 1101.06 143.353 1100.9 Q144.371 1100.71 145.39 1100.71 Q151.177 1100.71 154.556 1103.89 Q157.936 1107.06 157.936 1112.47 Q157.936 1118.05 154.464 1121.15 Q150.992 1124.23 144.672 1124.23 Q142.496 1124.23 140.228 1123.86 Q137.982 1123.49 135.575 1122.75 L135.575 1118.05 Q137.658 1119.19 139.881 1119.74 Q142.103 1120.3 144.58 1120.3 Q148.584 1120.3 150.922 1118.19 Q153.26 1116.08 153.26 1112.47 Q153.26 1108.86 150.922 1106.76 Q148.584 1104.65 144.58 1104.65 Q142.705 1104.65 140.83 1105.07 Q138.978 1105.48 137.033 1106.36 L137.033 1089 Z" fill="#000000" fill-rule="evenodd" fill-opacity="1" /><path clip-path="url(#clip450)" d="M100.76 752.645 Q97.1493 752.645 95.3206 756.209 Q93.515 759.751 93.515 766.881 Q93.515 773.987 95.3206 777.552 Q97.1493 781.094 100.76 781.094 Q104.395 781.094 106.2 777.552 Q108.029 773.987 108.029 766.881 Q108.029 759.751 106.2 756.209 Q104.395 752.645 100.76 752.645 M100.76 748.941 Q106.571 748.941 109.626 753.547 Q112.705 758.131 112.705 766.881 Q112.705 775.608 109.626 780.214 Q106.571 784.797 100.76 784.797 Q94.9502 784.797 91.8715 780.214 Q88.816 775.608 88.816 766.881 Q88.816 758.131 91.8715 753.547 Q94.9502 748.941 100.76 748.941 Z" fill="#000000" fill-rule="evenodd" fill-opacity="1" /><path clip-path="url(#clip450)" d="M120.922 778.246 L125.807 778.246 L125.807 784.126 L120.922 784.126 L120.922 778.246 Z" fill="#000000" fill-rule="evenodd" fill-opacity="1" /><path clip-path="url(#clip450)" d="M145.992 752.645 Q142.381 752.645 140.552 756.209 Q138.746 759.751 138.746 766.881 Q138.746 773.987 140.552 777.552 Q142.381 781.094 145.992 781.094 Q149.626 781.094 151.431 777.552 Q153.26 773.987 153.26 766.881 Q153.26 759.751 151.431 756.209 Q149.626 752.645 145.992 752.645 M145.992 748.941 Q151.802 748.941 154.857 753.547 Q157.936 758.131 157.936 766.881 Q157.936 775.608 154.857 780.214 Q151.802 784.797 145.992 784.797 Q140.181 784.797 137.103 780.214 Q134.047 775.608 134.047 766.881 Q134.047 758.131 137.103 753.547 Q140.181 748.941 145.992 748.941 Z" fill="#000000" fill-rule="evenodd" fill-opacity="1" /><path clip-path="url(#clip450)" d="M101.756 413.21 Q98.1447 413.21 96.316 416.775 Q94.5104 420.316 94.5104 427.446 Q94.5104 434.552 96.316 438.117 Q98.1447 441.659 101.756 441.659 Q105.39 441.659 107.196 438.117 Q109.024 434.552 109.024 427.446 Q109.024 420.316 107.196 416.775 Q105.39 413.21 101.756 413.21 M101.756 409.506 Q107.566 409.506 110.621 414.113 Q113.7 418.696 113.7 427.446 Q113.7 436.173 110.621 440.779 Q107.566 445.362 101.756 445.362 Q95.9456 445.362 92.8669 440.779 Q89.8114 436.173 89.8114 427.446 Q89.8114 418.696 92.8669 414.113 Q95.9456 409.506 101.756 409.506 Z" fill="#000000" fill-rule="evenodd" fill-opacity="1" /><path clip-path="url(#clip450)" d="M121.918 438.812 L126.802 438.812 L126.802 444.691 L121.918 444.691 L121.918 438.812 Z" fill="#000000" fill-rule="evenodd" fill-opacity="1" /><path clip-path="url(#clip450)" d="M137.033 410.131 L155.39 410.131 L155.39 414.066 L141.316 414.066 L141.316 422.538 Q142.334 422.191 143.353 422.029 Q144.371 421.844 145.39 421.844 Q151.177 421.844 154.556 425.015 Q157.936 428.187 157.936 433.603 Q157.936 439.182 154.464 442.284 Q150.992 445.362 144.672 445.362 Q142.496 445.362 140.228 444.992 Q137.982 444.622 135.575 443.881 L135.575 439.182 Q137.658 440.316 139.881 440.872 Q142.103 441.427 144.58 441.427 Q148.584 441.427 150.922 439.321 Q153.26 437.214 153.26 433.603 Q153.26 429.992 150.922 427.886 Q148.584 425.779 144.58 425.779 Q142.705 425.779 140.83 426.196 Q138.978 426.613 137.033 427.492 L137.033 410.131 Z" fill="#000000" fill-rule="evenodd" fill-opacity="1" /><path clip-path="url(#clip450)" d="M91.5706 101.321 L99.2095 101.321 L99.2095 74.9555 L90.8993 76.6222 L90.8993 72.3629 L99.1632 70.6963 L103.839 70.6963 L103.839 101.321 L111.478 101.321 L111.478 105.256 L91.5706 105.256 L91.5706 101.321 Z" fill="#000000" fill-rule="evenodd" fill-opacity="1" /><path clip-path="url(#clip450)" d="M120.922 99.3767 L125.807 99.3767 L125.807 105.256 L120.922 105.256 L120.922 99.3767 Z" fill="#000000" fill-rule="evenodd" fill-opacity="1" /><path clip-path="url(#clip450)" d="M145.992 73.775 Q142.381 73.775 140.552 77.3398 Q138.746 80.8814 138.746 88.011 Q138.746 95.1174 140.552 98.6822 Q142.381 102.224 145.992 102.224 Q149.626 102.224 151.431 98.6822 Q153.26 95.1174 153.26 88.011 Q153.26 80.8814 151.431 77.3398 Q149.626 73.775 145.992 73.775 M145.992 70.0713 Q151.802 70.0713 154.857 74.6777 Q157.936 79.261 157.936 88.011 Q157.936 96.7378 154.857 101.344 Q151.802 105.928 145.992 105.928 Q140.181 105.928 137.103 101.344 Q134.047 96.7378 134.047 88.011 Q134.047 79.261 137.103 74.6777 Q140.181 70.0713 145.992 70.0713 Z" fill="#000000" fill-rule="evenodd" fill-opacity="1" /><polyline clip-path="url(#clip452)" style="stroke:#009af9; stroke-linecap:round; stroke-linejoin:round; stroke-width:8; stroke-opacity:1; fill:none" points="
  255.035,766.846 265.269,745.522 275.503,724.219 285.738,702.959 295.972,681.761 306.206,660.647 316.44,639.638 326.675,618.755 336.909,598.018 347.143,577.447 
  357.378,557.064 367.612,536.887 377.846,516.937 388.08,497.234 398.315,477.797 408.549,458.646 418.783,439.798 429.018,421.273 439.252,403.089 449.486,385.265 
  459.72,367.816 469.955,350.762 480.189,334.118 490.423,317.901 500.657,302.128 510.892,286.813 521.126,271.971 531.36,257.618 541.595,243.768 551.829,230.434 
  562.063,217.629 572.297,205.366 582.532,193.657 592.766,182.514 603,171.948 613.235,161.969 623.469,152.586 633.703,143.81 643.937,135.649 654.172,128.111 
  664.406,121.203 674.64,114.932 684.875,109.304 695.109,104.326 705.343,100.001 715.577,96.3343 725.812,93.3294 736.046,90.9891 746.28,89.3159 756.515,88.3113 
  766.749,87.9763 776.983,88.3113 787.217,89.3159 797.452,90.9891 807.686,93.3294 817.92,96.3343 828.155,100.001 838.389,104.326 848.623,109.304 858.857,114.932 
  869.092,121.203 879.326,128.111 889.56,135.649 899.795,143.81 910.029,152.586 920.263,161.969 930.497,171.948 940.732,182.514 950.966,193.657 961.2,205.366 
  971.435,217.629 981.669,230.434 991.903,243.768 1002.14,257.618 1012.37,271.971 1022.61,286.813 1032.84,302.128 1043.07,317.901 1053.31,334.118 1063.54,350.762 
  1073.78,367.816 1084.01,385.265 1094.25,403.089 1104.48,421.273 1114.71,439.798 1124.95,458.646 1135.18,477.797 1145.42,497.234 1155.65,516.937 1165.89,536.887 
  1176.12,557.064 1186.35,577.447 1196.59,598.018 1206.82,618.755 1217.06,639.638 1227.29,660.647 1237.53,681.761 1247.76,702.959 1257.99,724.219 1268.23,745.522 
  1278.46,766.846 1288.7,788.17 1298.93,809.473 1309.17,830.733 1319.4,851.931 1329.63,873.045 1339.87,894.053 1350.1,914.937 1360.34,935.674 1370.57,956.245 
  1380.81,976.628 1391.04,996.805 1401.27,1016.75 1411.51,1036.46 1421.74,1055.89 1431.98,1075.05 1442.21,1093.89 1452.45,1112.42 1462.68,1130.6 1472.91,1148.43 
  1483.15,1165.88 1493.38,1182.93 1503.62,1199.57 1513.85,1215.79 1524.09,1231.56 1534.32,1246.88 1544.55,1261.72 1554.79,1276.07 1565.02,1289.92 1575.26,1303.26 
  1585.49,1316.06 1595.73,1328.33 1605.96,1340.03 1616.19,1351.18 1626.43,1361.74 1636.66,1371.72 1646.9,1381.11 1657.13,1389.88 1667.37,1398.04 1677.6,1405.58 
  1687.83,1412.49 1698.07,1418.76 1708.3,1424.39 1718.54,1429.37 1728.77,1433.69 1739.01,1437.36 1749.24,1440.36 1759.47,1442.7 1769.71,1444.38 1779.94,1445.38 
  1790.18,1445.72 1800.41,1445.38 1810.65,1444.38 1820.88,1442.7 1831.11,1440.36 1841.35,1437.36 1851.58,1433.69 1861.82,1429.37 1872.05,1424.39 1882.29,1418.76 
  1892.52,1412.49 1902.75,1405.58 1912.99,1398.04 1923.22,1389.88 1933.46,1381.11 1943.69,1371.72 1953.93,1361.74 1964.16,1351.18 1974.39,1340.03 1984.63,1328.33 
  1994.86,1316.06 2005.1,1303.26 2015.33,1289.92 2025.57,1276.07 2035.8,1261.72 2046.03,1246.88 2056.27,1231.56 2066.5,1215.79 2076.74,1199.57 2086.97,1182.93 
  2097.21,1165.88 2107.44,1148.43 2117.67,1130.6 2127.91,1112.42 2138.14,1093.89 2148.38,1075.05 2158.61,1055.89 2168.85,1036.46 2179.08,1016.75 2189.31,996.805 
  2199.55,976.628 2209.78,956.245 2220.02,935.674 2230.25,914.937 2240.49,894.053 2250.72,873.045 2260.95,851.931 2271.19,830.733 2281.42,809.473 2291.66,788.17 
  
  "/>
<polyline clip-path="url(#clip452)" style="stroke:#e26f46; stroke-linecap:round; stroke-linejoin:round; stroke-width:8; stroke-opacity:1; fill:none" points="
  255.035,87.9763 265.269,88.3113 275.503,89.3159 285.738,90.9891 295.972,93.3294 306.206,96.3343 316.44,100.001 326.675,104.326 336.909,109.304 347.143,114.932 
  357.378,121.203 367.612,128.111 377.846,135.649 388.08,143.81 398.315,152.586 408.549,161.969 418.783,171.948 429.018,182.514 439.252,193.657 449.486,205.366 
  459.72,217.629 469.955,230.434 480.189,243.768 490.423,257.618 500.657,271.971 510.892,286.813 521.126,302.128 531.36,317.901 541.595,334.118 551.829,350.762 
  562.063,367.816 572.297,385.265 582.532,403.089 592.766,421.273 603,439.798 613.235,458.646 623.469,477.797 633.703,497.234 643.937,516.937 654.172,536.887 
  664.406,557.064 674.64,577.447 684.875,598.018 695.109,618.755 705.343,639.638 715.577,660.647 725.812,681.761 736.046,702.959 746.28,724.219 756.515,745.522 
  766.749,766.846 776.983,788.17 787.217,809.473 797.452,830.733 807.686,851.931 817.92,873.045 828.155,894.053 838.389,914.937 848.623,935.674 858.857,956.245 
  869.092,976.628 879.326,996.805 889.56,1016.75 899.795,1036.46 910.029,1055.89 920.263,1075.05 930.497,1093.89 940.732,1112.42 950.966,1130.6 961.2,1148.43 
  971.435,1165.88 981.669,1182.93 991.903,1199.57 1002.14,1215.79 1012.37,1231.56 1022.61,1246.88 1032.84,1261.72 1043.07,1276.07 1053.31,1289.92 1063.54,1303.26 
  1073.78,1316.06 1084.01,1328.33 1094.25,1340.03 1104.48,1351.18 1114.71,1361.74 1124.95,1371.72 1135.18,1381.11 1145.42,1389.88 1155.65,1398.04 1165.89,1405.58 
  1176.12,1412.49 1186.35,1418.76 1196.59,1424.39 1206.82,1429.37 1217.06,1433.69 1227.29,1437.36 1237.53,1440.36 1247.76,1442.7 1257.99,1444.38 1268.23,1445.38 
  1278.46,1445.72 1288.7,1445.38 1298.93,1444.38 1309.17,1442.7 1319.4,1440.36 1329.63,1437.36 1339.87,1433.69 1350.1,1429.37 1360.34,1424.39 1370.57,1418.76 
  1380.81,1412.49 1391.04,1405.58 1401.27,1398.04 1411.51,1389.88 1421.74,1381.11 1431.98,1371.72 1442.21,1361.74 1452.45,1351.18 1462.68,1340.03 1472.91,1328.33 
  1483.15,1316.06 1493.38,1303.26 1503.62,1289.92 1513.85,1276.07 1524.09,1261.72 1534.32,1246.88 1544.55,1231.56 1554.79,1215.79 1565.02,1199.57 1575.26,1182.93 
  1585.49,1165.88 1595.73,1148.43 1605.96,1130.6 1616.19,1112.42 1626.43,1093.89 1636.66,1075.05 1646.9,1055.89 1657.13,1036.46 1667.37,1016.75 1677.6,996.805 
  1687.83,976.628 1698.07,956.245 1708.3,935.674 1718.54,914.937 1728.77,894.053 1739.01,873.045 1749.24,851.931 1759.47,830.733 1769.71,809.473 1779.94,788.17 
  1790.18,766.846 1800.41,745.522 1810.65,724.219 1820.88,702.959 1831.11,681.761 1841.35,660.647 1851.58,639.638 1861.82,618.755 1872.05,598.018 1882.29,577.447 
  1892.52,557.064 1902.75,536.887 1912.99,516.937 1923.22,497.234 1933.46,477.797 1943.69,458.646 1953.93,439.798 1964.16,421.273 1974.39,403.089 1984.63,385.265 
  1994.86,367.816 2005.1,350.762 2015.33,334.118 2025.57,317.901 2035.8,302.128 2046.03,286.813 2056.27,271.971 2066.5,257.618 2076.74,243.768 2086.97,230.434 
  2097.21,217.629 2107.44,205.366 2117.67,193.657 2127.91,182.514 2138.14,171.948 2148.38,161.969 2158.61,152.586 2168.85,143.81 2179.08,135.649 2189.31,128.111 
  2199.55,121.203 2209.78,114.932 2220.02,109.304 2230.25,104.326 2240.49,100.001 2250.72,96.3343 2260.95,93.3294 2271.19,90.9891 2281.42,89.3159 2291.66,88.3113 
  
  "/>
<path clip-path="url(#clip450)" d="
M1868.13 250.738 L2280.8 250.738 L2280.8 95.2176 L1868.13 95.2176  Z
  " fill="#ffffff" fill-rule="evenodd" fill-opacity="1"/>
<polyline clip-path="url(#clip450)" style="stroke:#000000; stroke-linecap:round; stroke-linejoin:round; stroke-width:4; stroke-opacity:1; fill:none" points="
  1868.13,250.738 2280.8,250.738 2280.8,95.2176 1868.13,95.2176 1868.13,250.738 
  "/>
<polyline clip-path="url(#clip450)" style="stroke:#009af9; stroke-linecap:round; stroke-linejoin:round; stroke-width:4; stroke-opacity:1; fill:none" points="
  1892.11,147.058 2036.03,147.058 
  "/>
<path clip-path="url(#clip450)" d="M2078.45 139.176 L2078.45 143.203 Q2076.64 142.277 2074.7 141.815 Q2072.75 141.352 2070.67 141.352 Q2067.5 141.352 2065.9 142.324 Q2064.33 143.296 2064.33 145.24 Q2064.33 146.722 2065.46 147.578 Q2066.6 148.412 2070.02 149.176 L2071.48 149.5 Q2076.02 150.472 2077.91 152.254 Q2079.84 154.014 2079.84 157.185 Q2079.84 160.796 2076.97 162.902 Q2074.12 165.009 2069.12 165.009 Q2067.04 165.009 2064.77 164.592 Q2062.52 164.199 2060.02 163.388 L2060.02 158.99 Q2062.38 160.217 2064.67 160.842 Q2066.97 161.444 2069.21 161.444 Q2072.22 161.444 2073.84 160.426 Q2075.46 159.384 2075.46 157.509 Q2075.46 155.773 2074.28 154.847 Q2073.12 153.921 2069.16 153.064 L2067.68 152.717 Q2063.73 151.884 2061.97 150.171 Q2060.21 148.435 2060.21 145.426 Q2060.21 141.768 2062.8 139.778 Q2065.39 137.787 2070.16 137.787 Q2072.52 137.787 2074.6 138.134 Q2076.69 138.481 2078.45 139.176 Z" fill="#000000" fill-rule="evenodd" fill-opacity="1" /><path clip-path="url(#clip450)" d="M2086.62 138.412 L2090.88 138.412 L2090.88 164.338 L2086.62 164.338 L2086.62 138.412 M2086.62 128.319 L2090.88 128.319 L2090.88 133.713 L2086.62 133.713 L2086.62 128.319 Z" fill="#000000" fill-rule="evenodd" fill-opacity="1" /><path clip-path="url(#clip450)" d="M2121.34 148.689 L2121.34 164.338 L2117.08 164.338 L2117.08 148.828 Q2117.08 145.148 2115.65 143.319 Q2114.21 141.49 2111.34 141.49 Q2107.89 141.49 2105.9 143.69 Q2103.91 145.889 2103.91 149.685 L2103.91 164.338 L2099.63 164.338 L2099.63 138.412 L2103.91 138.412 L2103.91 142.44 Q2105.44 140.102 2107.5 138.944 Q2109.58 137.787 2112.29 137.787 Q2116.76 137.787 2119.05 140.565 Q2121.34 143.319 2121.34 148.689 Z" fill="#000000" fill-rule="evenodd" fill-opacity="1" /><path clip-path="url(#clip450)" d="M2129.4 154.106 L2129.4 138.412 L2133.66 138.412 L2133.66 153.944 Q2133.66 157.625 2135.09 159.476 Q2136.53 161.305 2139.4 161.305 Q2142.85 161.305 2144.84 159.106 Q2146.85 156.907 2146.85 153.111 L2146.85 138.412 L2151.11 138.412 L2151.11 164.338 L2146.85 164.338 L2146.85 160.356 Q2145.3 162.717 2143.24 163.875 Q2141.2 165.009 2138.49 165.009 Q2134.03 165.009 2131.71 162.231 Q2129.4 159.453 2129.4 154.106 M2140.11 137.787 L2140.11 137.787 Z" fill="#000000" fill-rule="evenodd" fill-opacity="1" /><path clip-path="url(#clip450)" d="M2176.41 139.176 L2176.41 143.203 Q2174.6 142.277 2172.66 141.815 Q2170.72 141.352 2168.63 141.352 Q2165.46 141.352 2163.86 142.324 Q2162.29 143.296 2162.29 145.24 Q2162.29 146.722 2163.42 147.578 Q2164.56 148.412 2167.98 149.176 L2169.44 149.5 Q2173.98 150.472 2175.88 152.254 Q2177.8 154.014 2177.8 157.185 Q2177.8 160.796 2174.93 162.902 Q2172.08 165.009 2167.08 165.009 Q2165 165.009 2162.73 164.592 Q2160.48 164.199 2157.98 163.388 L2157.98 158.99 Q2160.35 160.217 2162.64 160.842 Q2164.93 161.444 2167.17 161.444 Q2170.18 161.444 2171.8 160.426 Q2173.42 159.384 2173.42 157.509 Q2173.42 155.773 2172.24 154.847 Q2171.09 153.921 2167.13 153.064 L2165.65 152.717 Q2161.69 151.884 2159.93 150.171 Q2158.17 148.435 2158.17 145.426 Q2158.17 141.768 2160.76 139.778 Q2163.35 137.787 2168.12 137.787 Q2170.48 137.787 2172.57 138.134 Q2174.65 138.481 2176.41 139.176 Z" fill="#000000" fill-rule="evenodd" fill-opacity="1" /><polyline clip-path="url(#clip450)" style="stroke:#e26f46; stroke-linecap:round; stroke-linejoin:round; stroke-width:4; stroke-opacity:1; fill:none" points="
  1892.11,198.898 2036.03,198.898 
  "/>
<path clip-path="url(#clip450)" d="M2080.53 191.247 L2080.53 195.229 Q2078.73 194.233 2076.9 193.747 Q2075.09 193.238 2073.24 193.238 Q2069.1 193.238 2066.8 195.877 Q2064.51 198.492 2064.51 203.238 Q2064.51 207.983 2066.8 210.622 Q2069.1 213.238 2073.24 213.238 Q2075.09 213.238 2076.9 212.752 Q2078.73 212.242 2080.53 211.247 L2080.53 215.182 Q2078.75 216.016 2076.83 216.432 Q2074.93 216.849 2072.78 216.849 Q2066.92 216.849 2063.47 213.168 Q2060.02 209.488 2060.02 203.238 Q2060.02 196.895 2063.49 193.261 Q2066.99 189.627 2073.05 189.627 Q2075.02 189.627 2076.9 190.043 Q2078.77 190.437 2080.53 191.247 Z" fill="#000000" fill-rule="evenodd" fill-opacity="1" /><path clip-path="url(#clip450)" d="M2097.98 193.238 Q2094.56 193.238 2092.57 195.923 Q2090.58 198.585 2090.58 203.238 Q2090.58 207.891 2092.54 210.576 Q2094.54 213.238 2097.98 213.238 Q2101.39 213.238 2103.38 210.553 Q2105.37 207.867 2105.37 203.238 Q2105.37 198.631 2103.38 195.946 Q2101.39 193.238 2097.98 193.238 M2097.98 189.627 Q2103.54 189.627 2106.71 193.238 Q2109.88 196.849 2109.88 203.238 Q2109.88 209.604 2106.71 213.238 Q2103.54 216.849 2097.98 216.849 Q2092.41 216.849 2089.23 213.238 Q2086.09 209.604 2086.09 203.238 Q2086.09 196.849 2089.23 193.238 Q2092.41 189.627 2097.98 189.627 Z" fill="#000000" fill-rule="evenodd" fill-opacity="1" /><path clip-path="url(#clip450)" d="M2133.47 191.016 L2133.47 195.043 Q2131.66 194.117 2129.72 193.655 Q2127.78 193.192 2125.69 193.192 Q2122.52 193.192 2120.92 194.164 Q2119.35 195.136 2119.35 197.08 Q2119.35 198.562 2120.48 199.418 Q2121.62 200.252 2125.04 201.016 L2126.5 201.34 Q2131.04 202.312 2132.94 204.094 Q2134.86 205.854 2134.86 209.025 Q2134.86 212.636 2131.99 214.742 Q2129.14 216.849 2124.14 216.849 Q2122.06 216.849 2119.79 216.432 Q2117.54 216.039 2115.04 215.228 L2115.04 210.83 Q2117.41 212.057 2119.7 212.682 Q2121.99 213.284 2124.23 213.284 Q2127.24 213.284 2128.86 212.266 Q2130.48 211.224 2130.48 209.349 Q2130.48 207.613 2129.3 206.687 Q2128.15 205.761 2124.19 204.904 L2122.71 204.557 Q2118.75 203.724 2116.99 202.011 Q2115.23 200.275 2115.23 197.266 Q2115.23 193.608 2117.82 191.618 Q2120.41 189.627 2125.18 189.627 Q2127.54 189.627 2129.63 189.974 Q2131.71 190.321 2133.47 191.016 Z" fill="#000000" fill-rule="evenodd" fill-opacity="1" /><path clip-path="url(#clip450)" d="M2141.64 190.252 L2145.9 190.252 L2145.9 216.178 L2141.64 216.178 L2141.64 190.252 M2141.64 180.159 L2145.9 180.159 L2145.9 185.553 L2141.64 185.553 L2141.64 180.159 Z" fill="#000000" fill-rule="evenodd" fill-opacity="1" /><path clip-path="url(#clip450)" d="M2176.36 200.529 L2176.36 216.178 L2172.1 216.178 L2172.1 200.668 Q2172.1 196.988 2170.67 195.159 Q2169.23 193.33 2166.36 193.33 Q2162.91 193.33 2160.92 195.53 Q2158.93 197.729 2158.93 201.525 L2158.93 216.178 L2154.65 216.178 L2154.65 190.252 L2158.93 190.252 L2158.93 194.28 Q2160.46 191.942 2162.52 190.784 Q2164.6 189.627 2167.31 189.627 Q2171.78 189.627 2174.07 192.405 Q2176.36 195.159 2176.36 200.529 Z" fill="#000000" fill-rule="evenodd" fill-opacity="1" /><path clip-path="url(#clip450)" d="M2184.42 205.946 L2184.42 190.252 L2188.68 190.252 L2188.68 205.784 Q2188.68 209.465 2190.11 211.316 Q2191.55 213.145 2194.42 213.145 Q2197.87 213.145 2199.86 210.946 Q2201.87 208.747 2201.87 204.951 L2201.87 190.252 L2206.13 190.252 L2206.13 216.178 L2201.87 216.178 L2201.87 212.196 Q2200.32 214.557 2198.26 215.715 Q2196.22 216.849 2193.52 216.849 Q2189.05 216.849 2186.73 214.071 Q2184.42 211.293 2184.42 205.946 M2195.14 189.627 L2195.14 189.627 Z" fill="#000000" fill-rule="evenodd" fill-opacity="1" /><path clip-path="url(#clip450)" d="M2231.43 191.016 L2231.43 195.043 Q2229.63 194.117 2227.68 193.655 Q2225.74 193.192 2223.65 193.192 Q2220.48 193.192 2218.89 194.164 Q2217.31 195.136 2217.31 197.08 Q2217.31 198.562 2218.45 199.418 Q2219.58 200.252 2223.01 201.016 L2224.47 201.34 Q2229 202.312 2230.9 204.094 Q2232.82 205.854 2232.82 209.025 Q2232.82 212.636 2229.95 214.742 Q2227.1 216.849 2222.1 216.849 Q2220.02 216.849 2217.75 216.432 Q2215.51 216.039 2213.01 215.228 L2213.01 210.83 Q2215.37 212.057 2217.66 212.682 Q2219.95 213.284 2222.2 213.284 Q2225.21 213.284 2226.83 212.266 Q2228.45 211.224 2228.45 209.349 Q2228.45 207.613 2227.27 206.687 Q2226.11 205.761 2222.15 204.904 L2220.67 204.557 Q2216.71 203.724 2214.95 202.011 Q2213.19 200.275 2213.19 197.266 Q2213.19 193.608 2215.78 191.618 Q2218.38 189.627 2223.15 189.627 Q2225.51 189.627 2227.59 189.974 Q2229.67 190.321 2231.43 191.016 Z" fill="#000000" fill-rule="evenodd" fill-opacity="1" /></svg>
