<?xml version="1.0" encoding="utf-8"?>
<svg xmlns="http://www.w3.org/2000/svg" xmlns:xlink="http://www.w3.org/1999/xlink" width="600" height="400" viewBox="0 0 2400 1600">
<defs>
  <clipPath id="clip060">
    <rect x="0" y="0" width="2400" height="1600"/>
  </clipPath>
</defs>
<path clip-path="url(#clip060)" d="
M0 1600 L2400 1600 L2400 0 L0 0  Z
  " fill="#ffffff" fill-rule="evenodd" fill-opacity="1"/>
<defs>
  <clipPath id="clip061">
    <rect x="480" y="0" width="1681" height="1600"/>
  </clipPath>
</defs>
<path clip-path="url(#clip060)" d="
M219.866 1423.18 L2352.76 1423.18 L2352.76 47.2441 L219.866 47.2441  Z
  " fill="#ffffff" fill-rule="evenodd" fill-opacity="1"/>
<defs>
  <clipPath id="clip062">
    <rect x="219" y="47" width="2134" height="1377"/>
  </clipPath>
</defs>
<polyline clip-path="url(#clip062)" style="stroke:#000000; stroke-linecap:butt; stroke-linejoin:round; stroke-width:2; stroke-opacity:0.1; fill:none" points="
  483.199,1423.18 483.199,47.2441 
  "/>
<polyline clip-path="url(#clip062)" style="stroke:#000000; stroke-linecap:butt; stroke-linejoin:round; stroke-width:2; stroke-opacity:0.1; fill:none" points="
  900.4,1423.18 900.4,47.2441 
  "/>
<polyline clip-path="url(#clip062)" style="stroke:#000000; stroke-linecap:butt; stroke-linejoin:round; stroke-width:2; stroke-opacity:0.1; fill:none" points="
  1317.6,1423.18 1317.6,47.2441 
  "/>
<polyline clip-path="url(#clip062)" style="stroke:#000000; stroke-linecap:butt; stroke-linejoin:round; stroke-width:2; stroke-opacity:0.1; fill:none" points="
  1734.8,1423.18 1734.8,47.2441 
  "/>
<polyline clip-path="url(#clip062)" style="stroke:#000000; stroke-linecap:butt; stroke-linejoin:round; stroke-width:2; stroke-opacity:0.1; fill:none" points="
  2152,1423.18 2152,47.2441 
  "/>
<polyline clip-path="url(#clip060)" style="stroke:#000000; stroke-linecap:butt; stroke-linejoin:round; stroke-width:4; stroke-opacity:1; fill:none" points="
  219.866,1423.18 2352.76,1423.18 
  "/>
<polyline clip-path="url(#clip060)" style="stroke:#000000; stroke-linecap:butt; stroke-linejoin:round; stroke-width:4; stroke-opacity:1; fill:none" points="
  483.199,1423.18 483.199,1404.28 
  "/>
<polyline clip-path="url(#clip060)" style="stroke:#000000; stroke-linecap:butt; stroke-linejoin:round; stroke-width:4; stroke-opacity:1; fill:none" points="
  900.4,1423.18 900.4,1404.28 
  "/>
<polyline clip-path="url(#clip060)" style="stroke:#000000; stroke-linecap:butt; stroke-linejoin:round; stroke-width:4; stroke-opacity:1; fill:none" points="
  1317.6,1423.18 1317.6,1404.28 
  "/>
<polyline clip-path="url(#clip060)" style="stroke:#000000; stroke-linecap:butt; stroke-linejoin:round; stroke-width:4; stroke-opacity:1; fill:none" points="
  1734.8,1423.18 1734.8,1404.28 
  "/>
<polyline clip-path="url(#clip060)" style="stroke:#000000; stroke-linecap:butt; stroke-linejoin:round; stroke-width:4; stroke-opacity:1; fill:none" points="
  2152,1423.18 2152,1404.28 
  "/>
<path clip-path="url(#clip060)" d="M452.1 1467.02 L481.776 1467.02 L481.776 1470.96 L452.1 1470.96 L452.1 1467.02 Z" fill="#000000" fill-rule="evenodd" fill-opacity="1" /><path clip-path="url(#clip060)" d="M504.715 1453.37 L492.91 1471.81 L504.715 1471.81 L504.715 1453.37 M503.489 1449.29 L509.368 1449.29 L509.368 1471.81 L514.299 1471.81 L514.299 1475.7 L509.368 1475.7 L509.368 1483.85 L504.715 1483.85 L504.715 1475.7 L489.114 1475.7 L489.114 1471.19 L503.489 1449.29 Z" fill="#000000" fill-rule="evenodd" fill-opacity="1" /><path clip-path="url(#clip060)" d="M870.343 1467.02 L900.018 1467.02 L900.018 1470.96 L870.343 1470.96 L870.343 1467.02 Z" fill="#000000" fill-rule="evenodd" fill-opacity="1" /><path clip-path="url(#clip060)" d="M914.139 1479.92 L930.458 1479.92 L930.458 1483.85 L908.514 1483.85 L908.514 1479.92 Q911.176 1477.16 915.759 1472.53 Q920.365 1467.88 921.546 1466.54 Q923.791 1464.01 924.671 1462.28 Q925.574 1460.52 925.574 1458.83 Q925.574 1456.07 923.629 1454.34 Q921.708 1452.6 918.606 1452.6 Q916.407 1452.6 913.953 1453.37 Q911.523 1454.13 908.745 1455.68 L908.745 1450.96 Q911.569 1449.82 914.023 1449.25 Q916.477 1448.67 918.514 1448.67 Q923.884 1448.67 927.078 1451.35 Q930.273 1454.04 930.273 1458.53 Q930.273 1460.66 929.463 1462.58 Q928.676 1464.48 926.569 1467.07 Q925.99 1467.74 922.889 1470.96 Q919.787 1474.15 914.139 1479.92 Z" fill="#000000" fill-rule="evenodd" fill-opacity="1" /><path clip-path="url(#clip060)" d="M1317.6 1452.37 Q1313.99 1452.37 1312.16 1455.94 Q1310.36 1459.48 1310.36 1466.61 Q1310.36 1473.71 1312.16 1477.28 Q1313.99 1480.82 1317.6 1480.82 Q1321.24 1480.82 1323.04 1477.28 Q1324.87 1473.71 1324.87 1466.61 Q1324.87 1459.48 1323.04 1455.94 Q1321.24 1452.37 1317.6 1452.37 M1317.6 1448.67 Q1323.41 1448.67 1326.47 1453.27 Q1329.55 1457.86 1329.55 1466.61 Q1329.55 1475.33 1326.47 1479.94 Q1323.41 1484.52 1317.6 1484.52 Q1311.79 1484.52 1308.71 1479.94 Q1305.66 1475.33 1305.66 1466.61 Q1305.66 1457.86 1308.71 1453.27 Q1311.79 1448.67 1317.6 1448.67 Z" fill="#000000" fill-rule="evenodd" fill-opacity="1" /><path clip-path="url(#clip060)" d="M1729.45 1479.92 L1745.77 1479.92 L1745.77 1483.85 L1723.83 1483.85 L1723.83 1479.92 Q1726.49 1477.16 1731.08 1472.53 Q1735.68 1467.88 1736.86 1466.54 Q1739.11 1464.01 1739.99 1462.28 Q1740.89 1460.52 1740.89 1458.83 Q1740.89 1456.07 1738.95 1454.34 Q1737.02 1452.6 1733.92 1452.6 Q1731.72 1452.6 1729.27 1453.37 Q1726.84 1454.13 1724.06 1455.68 L1724.06 1450.96 Q1726.89 1449.82 1729.34 1449.25 Q1731.79 1448.67 1733.83 1448.67 Q1739.2 1448.67 1742.39 1451.35 Q1745.59 1454.04 1745.59 1458.53 Q1745.59 1460.66 1744.78 1462.58 Q1743.99 1464.48 1741.89 1467.07 Q1741.31 1467.74 1738.2 1470.96 Q1735.1 1474.15 1729.45 1479.92 Z" fill="#000000" fill-rule="evenodd" fill-opacity="1" /><path clip-path="url(#clip060)" d="M2155.01 1453.37 L2143.21 1471.81 L2155.01 1471.81 L2155.01 1453.37 M2153.79 1449.29 L2159.66 1449.29 L2159.66 1471.81 L2164.6 1471.81 L2164.6 1475.7 L2159.66 1475.7 L2159.66 1483.85 L2155.01 1483.85 L2155.01 1475.7 L2139.41 1475.7 L2139.41 1471.19 L2153.79 1449.29 Z" fill="#000000" fill-rule="evenodd" fill-opacity="1" /><path clip-path="url(#clip060)" d="M1302.93 1532.4 L1290.04 1549.74 L1303.59 1568.04 L1296.69 1568.04 L1286.31 1554.04 L1275.93 1568.04 L1269.03 1568.04 L1282.87 1549.39 L1270.21 1532.4 L1277.11 1532.4 L1286.57 1545.1 L1296.02 1532.4 L1302.93 1532.4 Z" fill="#000000" fill-rule="evenodd" fill-opacity="1" /><polyline clip-path="url(#clip062)" style="stroke:#000000; stroke-linecap:butt; stroke-linejoin:round; stroke-width:2; stroke-opacity:0.1; fill:none" points="
  219.866,1384.24 2352.76,1384.24 
  "/>
<polyline clip-path="url(#clip062)" style="stroke:#000000; stroke-linecap:butt; stroke-linejoin:round; stroke-width:2; stroke-opacity:0.1; fill:none" points="
  219.866,1058.85 2352.76,1058.85 
  "/>
<polyline clip-path="url(#clip062)" style="stroke:#000000; stroke-linecap:butt; stroke-linejoin:round; stroke-width:2; stroke-opacity:0.1; fill:none" points="
  219.866,733.456 2352.76,733.456 
  "/>
<polyline clip-path="url(#clip062)" style="stroke:#000000; stroke-linecap:butt; stroke-linejoin:round; stroke-width:2; stroke-opacity:0.1; fill:none" points="
  219.866,408.064 2352.76,408.064 
  "/>
<polyline clip-path="url(#clip062)" style="stroke:#000000; stroke-linecap:butt; stroke-linejoin:round; stroke-width:2; stroke-opacity:0.1; fill:none" points="
  219.866,82.6731 2352.76,82.6731 
  "/>
<polyline clip-path="url(#clip060)" style="stroke:#000000; stroke-linecap:butt; stroke-linejoin:round; stroke-width:4; stroke-opacity:1; fill:none" points="
  219.866,1423.18 219.866,47.2441 
  "/>
<polyline clip-path="url(#clip060)" style="stroke:#000000; stroke-linecap:butt; stroke-linejoin:round; stroke-width:4; stroke-opacity:1; fill:none" points="
  219.866,1384.24 238.764,1384.24 
  "/>
<polyline clip-path="url(#clip060)" style="stroke:#000000; stroke-linecap:butt; stroke-linejoin:round; stroke-width:4; stroke-opacity:1; fill:none" points="
  219.866,1058.85 238.764,1058.85 
  "/>
<polyline clip-path="url(#clip060)" style="stroke:#000000; stroke-linecap:butt; stroke-linejoin:round; stroke-width:4; stroke-opacity:1; fill:none" points="
  219.866,733.456 238.764,733.456 
  "/>
<polyline clip-path="url(#clip060)" style="stroke:#000000; stroke-linecap:butt; stroke-linejoin:round; stroke-width:4; stroke-opacity:1; fill:none" points="
  219.866,408.064 238.764,408.064 
  "/>
<polyline clip-path="url(#clip060)" style="stroke:#000000; stroke-linecap:butt; stroke-linejoin:round; stroke-width:4; stroke-opacity:1; fill:none" points="
  219.866,82.6731 238.764,82.6731 
  "/>
<path clip-path="url(#clip060)" d="M126.691 1370.04 Q123.08 1370.04 121.251 1373.6 Q119.445 1377.14 119.445 1384.27 Q119.445 1391.38 121.251 1394.94 Q123.08 1398.49 126.691 1398.49 Q130.325 1398.49 132.13 1394.94 Q133.959 1391.38 133.959 1384.27 Q133.959 1377.14 132.13 1373.6 Q130.325 1370.04 126.691 1370.04 M126.691 1366.33 Q132.501 1366.33 135.556 1370.94 Q138.635 1375.52 138.635 1384.27 Q138.635 1393 135.556 1397.61 Q132.501 1402.19 126.691 1402.19 Q120.88 1402.19 117.802 1397.61 Q114.746 1393 114.746 1384.27 Q114.746 1375.52 117.802 1370.94 Q120.88 1366.33 126.691 1366.33 Z" fill="#000000" fill-rule="evenodd" fill-opacity="1" /><path clip-path="url(#clip060)" d="M146.853 1395.64 L151.737 1395.64 L151.737 1401.52 L146.853 1401.52 L146.853 1395.64 Z" fill="#000000" fill-rule="evenodd" fill-opacity="1" /><path clip-path="url(#clip060)" d="M171.922 1370.04 Q168.311 1370.04 166.482 1373.6 Q164.677 1377.14 164.677 1384.27 Q164.677 1391.38 166.482 1394.94 Q168.311 1398.49 171.922 1398.49 Q175.556 1398.49 177.362 1394.94 Q179.19 1391.38 179.19 1384.27 Q179.19 1377.14 177.362 1373.6 Q175.556 1370.04 171.922 1370.04 M171.922 1366.33 Q177.732 1366.33 180.788 1370.94 Q183.866 1375.52 183.866 1384.27 Q183.866 1393 180.788 1397.61 Q177.732 1402.19 171.922 1402.19 Q166.112 1402.19 163.033 1397.61 Q159.978 1393 159.978 1384.27 Q159.978 1375.52 163.033 1370.94 Q166.112 1366.33 171.922 1366.33 Z" fill="#000000" fill-rule="evenodd" fill-opacity="1" /><path clip-path="url(#clip060)" d="M127.917 1044.65 Q124.306 1044.65 122.478 1048.21 Q120.672 1051.75 120.672 1058.88 Q120.672 1065.99 122.478 1069.55 Q124.306 1073.09 127.917 1073.09 Q131.552 1073.09 133.357 1069.55 Q135.186 1065.99 135.186 1058.88 Q135.186 1051.75 133.357 1048.21 Q131.552 1044.65 127.917 1044.65 M127.917 1040.94 Q133.728 1040.94 136.783 1045.55 Q139.862 1050.13 139.862 1058.88 Q139.862 1067.61 136.783 1072.21 Q133.728 1076.8 127.917 1076.8 Q122.107 1076.8 119.029 1072.21 Q115.973 1067.61 115.973 1058.88 Q115.973 1050.13 119.029 1045.55 Q122.107 1040.94 127.917 1040.94 Z" fill="#000000" fill-rule="evenodd" fill-opacity="1" /><path clip-path="url(#clip060)" d="M148.079 1070.25 L152.964 1070.25 L152.964 1076.13 L148.079 1076.13 L148.079 1070.25 Z" fill="#000000" fill-rule="evenodd" fill-opacity="1" /><path clip-path="url(#clip060)" d="M163.959 1072.19 L171.598 1072.19 L171.598 1045.83 L163.288 1047.49 L163.288 1043.23 L171.552 1041.57 L176.227 1041.57 L176.227 1072.19 L183.866 1072.19 L183.866 1076.13 L163.959 1076.13 L163.959 1072.19 Z" fill="#000000" fill-rule="evenodd" fill-opacity="1" /><path clip-path="url(#clip060)" d="M128.288 719.254 Q124.677 719.254 122.848 722.819 Q121.043 726.361 121.043 733.49 Q121.043 740.597 122.848 744.162 Q124.677 747.703 128.288 747.703 Q131.922 747.703 133.728 744.162 Q135.556 740.597 135.556 733.49 Q135.556 726.361 133.728 722.819 Q131.922 719.254 128.288 719.254 M128.288 715.551 Q134.098 715.551 137.154 720.157 Q140.232 724.74 140.232 733.49 Q140.232 742.217 137.154 746.824 Q134.098 751.407 128.288 751.407 Q122.478 751.407 119.399 746.824 Q116.343 742.217 116.343 733.49 Q116.343 724.74 119.399 720.157 Q122.478 715.551 128.288 715.551 Z" fill="#000000" fill-rule="evenodd" fill-opacity="1" /><path clip-path="url(#clip060)" d="M148.45 744.856 L153.334 744.856 L153.334 750.736 L148.45 750.736 L148.45 744.856 Z" fill="#000000" fill-rule="evenodd" fill-opacity="1" /><path clip-path="url(#clip060)" d="M167.547 746.801 L183.866 746.801 L183.866 750.736 L161.922 750.736 L161.922 746.801 Q164.584 744.046 169.167 739.416 Q173.774 734.764 174.954 733.421 Q177.2 730.898 178.079 729.162 Q178.982 727.402 178.982 725.713 Q178.982 722.958 177.038 721.222 Q175.116 719.486 172.014 719.486 Q169.815 719.486 167.362 720.25 Q164.931 721.014 162.153 722.565 L162.153 717.842 Q164.977 716.708 167.431 716.129 Q169.885 715.551 171.922 715.551 Q177.292 715.551 180.487 718.236 Q183.681 720.921 183.681 725.412 Q183.681 727.541 182.871 729.463 Q182.084 731.361 179.977 733.953 Q179.399 734.625 176.297 737.842 Q173.195 741.037 167.547 746.801 Z" fill="#000000" fill-rule="evenodd" fill-opacity="1" /><path clip-path="url(#clip060)" d="M127.339 393.863 Q123.728 393.863 121.899 397.428 Q120.093 400.97 120.093 408.099 Q120.093 415.206 121.899 418.77 Q123.728 422.312 127.339 422.312 Q130.973 422.312 132.779 418.77 Q134.607 415.206 134.607 408.099 Q134.607 400.97 132.779 397.428 Q130.973 393.863 127.339 393.863 M127.339 390.159 Q133.149 390.159 136.204 394.766 Q139.283 399.349 139.283 408.099 Q139.283 416.826 136.204 421.432 Q133.149 426.016 127.339 426.016 Q121.529 426.016 118.45 421.432 Q115.394 416.826 115.394 408.099 Q115.394 399.349 118.45 394.766 Q121.529 390.159 127.339 390.159 Z" fill="#000000" fill-rule="evenodd" fill-opacity="1" /><path clip-path="url(#clip060)" d="M147.501 419.465 L152.385 419.465 L152.385 425.344 L147.501 425.344 L147.501 419.465 Z" fill="#000000" fill-rule="evenodd" fill-opacity="1" /><path clip-path="url(#clip060)" d="M176.737 406.71 Q180.093 407.428 181.968 409.696 Q183.866 411.965 183.866 415.298 Q183.866 420.414 180.348 423.215 Q176.829 426.016 170.348 426.016 Q168.172 426.016 165.857 425.576 Q163.565 425.159 161.112 424.303 L161.112 419.789 Q163.056 420.923 165.371 421.502 Q167.686 422.081 170.209 422.081 Q174.607 422.081 176.899 420.344 Q179.214 418.608 179.214 415.298 Q179.214 412.243 177.061 410.53 Q174.931 408.794 171.112 408.794 L167.084 408.794 L167.084 404.951 L171.297 404.951 Q174.746 404.951 176.575 403.585 Q178.403 402.196 178.403 399.604 Q178.403 396.942 176.505 395.53 Q174.63 394.095 171.112 394.095 Q169.19 394.095 166.991 394.511 Q164.792 394.928 162.153 395.807 L162.153 391.641 Q164.815 390.9 167.13 390.53 Q169.468 390.159 171.528 390.159 Q176.852 390.159 179.954 392.59 Q183.056 394.997 183.056 399.118 Q183.056 401.988 181.413 403.979 Q179.769 405.946 176.737 406.71 Z" fill="#000000" fill-rule="evenodd" fill-opacity="1" /><path clip-path="url(#clip060)" d="M126.205 68.4718 Q122.593 68.4718 120.765 72.0366 Q118.959 75.5782 118.959 82.7078 Q118.959 89.8142 120.765 93.379 Q122.593 96.9207 126.205 96.9207 Q129.839 96.9207 131.644 93.379 Q133.473 89.8142 133.473 82.7078 Q133.473 75.5782 131.644 72.0366 Q129.839 68.4718 126.205 68.4718 M126.205 64.7681 Q132.015 64.7681 135.07 69.3745 Q138.149 73.9578 138.149 82.7078 Q138.149 91.4346 135.07 96.0411 Q132.015 100.624 126.205 100.624 Q120.394 100.624 117.316 96.0411 Q114.26 91.4346 114.26 82.7078 Q114.26 73.9578 117.316 69.3745 Q120.394 64.7681 126.205 64.7681 Z" fill="#000000" fill-rule="evenodd" fill-opacity="1" /><path clip-path="url(#clip060)" d="M146.366 94.0735 L151.251 94.0735 L151.251 99.9531 L146.366 99.9531 L146.366 94.0735 Z" fill="#000000" fill-rule="evenodd" fill-opacity="1" /><path clip-path="url(#clip060)" d="M174.283 69.4671 L162.477 87.9161 L174.283 87.9161 L174.283 69.4671 M173.056 65.3931 L178.936 65.3931 L178.936 87.9161 L183.866 87.9161 L183.866 91.805 L178.936 91.805 L178.936 99.9531 L174.283 99.9531 L174.283 91.805 L158.681 91.805 L158.681 87.2911 L173.056 65.3931 Z" fill="#000000" fill-rule="evenodd" fill-opacity="1" /><path clip-path="url(#clip060)" d="M58.657 821.133 L77.5631 821.133 L77.5631 827.021 L28.3562 827.021 L28.3562 821.133 L33.7671 821.133 Q30.5842 819.287 29.0564 816.486 Q27.4968 813.653 27.4968 809.738 Q27.4968 803.245 32.6531 799.203 Q37.8093 795.129 46.212 795.129 Q54.6147 795.129 59.771 799.203 Q64.9272 803.245 64.9272 809.738 Q64.9272 813.653 63.3994 816.486 Q61.8398 819.287 58.657 821.133 M46.212 801.208 Q39.7508 801.208 36.0905 803.882 Q32.3984 806.524 32.3984 811.171 Q32.3984 815.818 36.0905 818.491 Q39.7508 821.133 46.212 821.133 Q52.6732 821.133 56.3653 818.491 Q60.0256 815.818 60.0256 811.171 Q60.0256 806.524 56.3653 803.882 Q52.6732 801.208 46.212 801.208 Z" fill="#000000" fill-rule="evenodd" fill-opacity="1" /><path clip-path="url(#clip060)" d="M33.7671 761.964 L14.479 761.964 L14.479 756.107 L64.0042 756.107 L64.0042 761.964 L58.657 761.964 Q61.8398 763.81 63.3994 766.643 Q64.9272 769.444 64.9272 773.39 Q64.9272 779.851 59.771 783.926 Q54.6147 787.968 46.212 787.968 Q37.8093 787.968 32.6531 783.926 Q27.4968 779.851 27.4968 773.39 Q27.4968 769.444 29.0564 766.643 Q30.5842 763.81 33.7671 761.964 M46.212 781.92 Q52.6732 781.92 56.3653 779.279 Q60.0256 776.605 60.0256 771.958 Q60.0256 767.311 56.3653 764.637 Q52.6732 761.964 46.212 761.964 Q39.7508 761.964 36.0905 764.637 Q32.3984 767.311 32.3984 771.958 Q32.3984 776.605 36.0905 779.279 Q39.7508 781.92 46.212 781.92 Z" fill="#000000" fill-rule="evenodd" fill-opacity="1" /><path clip-path="url(#clip060)" d="M14.479 725.998 L19.3487 725.998 L19.3487 731.599 Q19.3487 734.75 20.6219 735.992 Q21.895 737.201 25.2052 737.201 L28.3562 737.201 L28.3562 727.557 L32.9077 727.557 L32.9077 737.201 L64.0042 737.201 L64.0042 743.09 L32.9077 743.09 L32.9077 748.691 L28.3562 748.691 L28.3562 743.09 L25.8736 743.09 Q19.9216 743.09 17.2162 740.32 Q14.479 737.551 14.479 731.536 L14.479 725.998 Z" fill="#000000" fill-rule="evenodd" fill-opacity="1" /><path clip-path="url(#clip060)" d="M14.5426 707.028 Q21.8632 711.293 29.0246 713.362 Q36.186 715.431 43.5384 715.431 Q50.8908 715.431 58.1159 713.362 Q65.3091 711.261 72.5979 707.028 L72.5979 712.12 Q65.1182 716.895 57.8931 719.282 Q50.668 721.637 43.5384 721.637 Q36.4406 721.637 29.2474 719.282 Q22.0542 716.926 14.5426 712.12 L14.5426 707.028 Z" fill="#000000" fill-rule="evenodd" fill-opacity="1" /><path clip-path="url(#clip060)" d="M28.3562 666.033 L45.7028 678.923 L64.0042 665.364 L64.0042 672.271 L49.9996 682.647 L64.0042 693.023 L64.0042 699.93 L45.3526 686.085 L28.3562 698.752 L28.3562 691.846 L41.0558 682.393 L28.3562 672.939 L28.3562 666.033 Z" fill="#000000" fill-rule="evenodd" fill-opacity="1" /><path clip-path="url(#clip060)" d="M14.5426 658.012 L14.5426 652.919 Q22.0542 648.145 29.2474 645.79 Q36.4406 643.403 43.5384 643.403 Q50.668 643.403 57.8931 645.79 Q65.1182 648.145 72.5979 652.919 L72.5979 658.012 Q65.3091 653.779 58.1159 651.71 Q50.8908 649.609 43.5384 649.609 Q36.186 649.609 29.0246 651.71 Q21.8632 653.779 14.5426 658.012 Z" fill="#000000" fill-rule="evenodd" fill-opacity="1" /><path clip-path="url(#clip062)" d="
M337.179 1383.98 L337.179 1384.24 L358.039 1384.24 L358.039 1383.98 L337.179 1383.98 L337.179 1383.98  Z
  " fill="#009af9" fill-rule="evenodd" fill-opacity="0.5"/>
<polyline clip-path="url(#clip062)" style="stroke:#000000; stroke-linecap:butt; stroke-linejoin:round; stroke-width:4; stroke-opacity:0.5; fill:none" points="
  337.179,1383.98 337.179,1384.24 358.039,1384.24 358.039,1383.98 337.179,1383.98 
  "/>
<path clip-path="url(#clip062)" d="
M358.039 1384.24 L358.039 1384.24 L378.899 1384.24 L378.899 1384.24 L358.039 1384.24 L358.039 1384.24  Z
  " fill="#009af9" fill-rule="evenodd" fill-opacity="0.5"/>
<polyline clip-path="url(#clip062)" style="stroke:#000000; stroke-linecap:butt; stroke-linejoin:round; stroke-width:4; stroke-opacity:0.5; fill:none" points="
  358.039,1384.24 358.039,1384.24 378.899,1384.24 358.039,1384.24 
  "/>
<path clip-path="url(#clip062)" d="
M378.899 1384.24 L378.899 1384.24 L399.759 1384.24 L399.759 1384.24 L378.899 1384.24 L378.899 1384.24  Z
  " fill="#009af9" fill-rule="evenodd" fill-opacity="0.5"/>
<polyline clip-path="url(#clip062)" style="stroke:#000000; stroke-linecap:butt; stroke-linejoin:round; stroke-width:4; stroke-opacity:0.5; fill:none" points="
  378.899,1384.24 378.899,1384.24 399.759,1384.24 378.899,1384.24 
  "/>
<path clip-path="url(#clip062)" d="
M399.759 1384.24 L399.759 1384.24 L420.619 1384.24 L420.619 1384.24 L399.759 1384.24 L399.759 1384.24  Z
  " fill="#009af9" fill-rule="evenodd" fill-opacity="0.5"/>
<polyline clip-path="url(#clip062)" style="stroke:#000000; stroke-linecap:butt; stroke-linejoin:round; stroke-width:4; stroke-opacity:0.5; fill:none" points="
  399.759,1384.24 399.759,1384.24 420.619,1384.24 399.759,1384.24 
  "/>
<path clip-path="url(#clip062)" d="
M420.619 1384.24 L420.619 1384.24 L441.479 1384.24 L441.479 1384.24 L420.619 1384.24 L420.619 1384.24  Z
  " fill="#009af9" fill-rule="evenodd" fill-opacity="0.5"/>
<polyline clip-path="url(#clip062)" style="stroke:#000000; stroke-linecap:butt; stroke-linejoin:round; stroke-width:4; stroke-opacity:0.5; fill:none" points="
  420.619,1384.24 420.619,1384.24 441.479,1384.24 420.619,1384.24 
  "/>
<path clip-path="url(#clip062)" d="
M441.479 1383.46 L441.479 1384.24 L462.339 1384.24 L462.339 1383.46 L441.479 1383.46 L441.479 1383.46  Z
  " fill="#009af9" fill-rule="evenodd" fill-opacity="0.5"/>
<polyline clip-path="url(#clip062)" style="stroke:#000000; stroke-linecap:butt; stroke-linejoin:round; stroke-width:4; stroke-opacity:0.5; fill:none" points="
  441.479,1383.46 441.479,1384.24 462.339,1384.24 462.339,1383.46 441.479,1383.46 
  "/>
<path clip-path="url(#clip062)" d="
M462.339 1383.72 L462.339 1384.24 L483.199 1384.24 L483.199 1383.72 L462.339 1383.72 L462.339 1383.72  Z
  " fill="#009af9" fill-rule="evenodd" fill-opacity="0.5"/>
<polyline clip-path="url(#clip062)" style="stroke:#000000; stroke-linecap:butt; stroke-linejoin:round; stroke-width:4; stroke-opacity:0.5; fill:none" points="
  462.339,1383.72 462.339,1384.24 483.199,1384.24 483.199,1383.72 462.339,1383.72 
  "/>
<path clip-path="url(#clip062)" d="
M483.199 1383.72 L483.199 1384.24 L504.059 1384.24 L504.059 1383.72 L483.199 1383.72 L483.199 1383.72  Z
  " fill="#009af9" fill-rule="evenodd" fill-opacity="0.5"/>
<polyline clip-path="url(#clip062)" style="stroke:#000000; stroke-linecap:butt; stroke-linejoin:round; stroke-width:4; stroke-opacity:0.5; fill:none" points="
  483.199,1383.72 483.199,1384.24 504.059,1384.24 504.059,1383.72 483.199,1383.72 
  "/>
<path clip-path="url(#clip062)" d="
M504.059 1382.68 L504.059 1384.24 L524.919 1384.24 L524.919 1382.68 L504.059 1382.68 L504.059 1382.68  Z
  " fill="#009af9" fill-rule="evenodd" fill-opacity="0.5"/>
<polyline clip-path="url(#clip062)" style="stroke:#000000; stroke-linecap:butt; stroke-linejoin:round; stroke-width:4; stroke-opacity:0.5; fill:none" points="
  504.059,1382.68 504.059,1384.24 524.919,1384.24 524.919,1382.68 504.059,1382.68 
  "/>
<path clip-path="url(#clip062)" d="
M524.919 1383.2 L524.919 1384.24 L545.779 1384.24 L545.779 1383.2 L524.919 1383.2 L524.919 1383.2  Z
  " fill="#009af9" fill-rule="evenodd" fill-opacity="0.5"/>
<polyline clip-path="url(#clip062)" style="stroke:#000000; stroke-linecap:butt; stroke-linejoin:round; stroke-width:4; stroke-opacity:0.5; fill:none" points="
  524.919,1383.2 524.919,1384.24 545.779,1384.24 545.779,1383.2 524.919,1383.2 
  "/>
<path clip-path="url(#clip062)" d="
M545.779 1382.68 L545.779 1384.24 L566.639 1384.24 L566.639 1382.68 L545.779 1382.68 L545.779 1382.68  Z
  " fill="#009af9" fill-rule="evenodd" fill-opacity="0.5"/>
<polyline clip-path="url(#clip062)" style="stroke:#000000; stroke-linecap:butt; stroke-linejoin:round; stroke-width:4; stroke-opacity:0.5; fill:none" points="
  545.779,1382.68 545.779,1384.24 566.639,1384.24 566.639,1382.68 545.779,1382.68 
  "/>
<path clip-path="url(#clip062)" d="
M566.639 1382.68 L566.639 1384.24 L587.5 1384.24 L587.5 1382.68 L566.639 1382.68 L566.639 1382.68  Z
  " fill="#009af9" fill-rule="evenodd" fill-opacity="0.5"/>
<polyline clip-path="url(#clip062)" style="stroke:#000000; stroke-linecap:butt; stroke-linejoin:round; stroke-width:4; stroke-opacity:0.5; fill:none" points="
  566.639,1382.68 566.639,1384.24 587.5,1384.24 587.5,1382.68 566.639,1382.68 
  "/>
<path clip-path="url(#clip062)" d="
M587.5 1382.42 L587.5 1384.24 L608.36 1384.24 L608.36 1382.42 L587.5 1382.42 L587.5 1382.42  Z
  " fill="#009af9" fill-rule="evenodd" fill-opacity="0.5"/>
<polyline clip-path="url(#clip062)" style="stroke:#000000; stroke-linecap:butt; stroke-linejoin:round; stroke-width:4; stroke-opacity:0.5; fill:none" points="
  587.5,1382.42 587.5,1384.24 608.36,1384.24 608.36,1382.42 587.5,1382.42 
  "/>
<path clip-path="url(#clip062)" d="
M608.36 1380.09 L608.36 1384.24 L629.22 1384.24 L629.22 1380.09 L608.36 1380.09 L608.36 1380.09  Z
  " fill="#009af9" fill-rule="evenodd" fill-opacity="0.5"/>
<polyline clip-path="url(#clip062)" style="stroke:#000000; stroke-linecap:butt; stroke-linejoin:round; stroke-width:4; stroke-opacity:0.5; fill:none" points="
  608.36,1380.09 608.36,1384.24 629.22,1384.24 629.22,1380.09 608.36,1380.09 
  "/>
<path clip-path="url(#clip062)" d="
M629.22 1378.02 L629.22 1384.24 L650.08 1384.24 L650.08 1378.02 L629.22 1378.02 L629.22 1378.02  Z
  " fill="#009af9" fill-rule="evenodd" fill-opacity="0.5"/>
<polyline clip-path="url(#clip062)" style="stroke:#000000; stroke-linecap:butt; stroke-linejoin:round; stroke-width:4; stroke-opacity:0.5; fill:none" points="
  629.22,1378.02 629.22,1384.24 650.08,1384.24 650.08,1378.02 629.22,1378.02 
  "/>
<path clip-path="url(#clip062)" d="
M650.08 1375.43 L650.08 1384.24 L670.94 1384.24 L670.94 1375.43 L650.08 1375.43 L650.08 1375.43  Z
  " fill="#009af9" fill-rule="evenodd" fill-opacity="0.5"/>
<polyline clip-path="url(#clip062)" style="stroke:#000000; stroke-linecap:butt; stroke-linejoin:round; stroke-width:4; stroke-opacity:0.5; fill:none" points="
  650.08,1375.43 650.08,1384.24 670.94,1384.24 670.94,1375.43 650.08,1375.43 
  "/>
<path clip-path="url(#clip062)" d="
M670.94 1371.29 L670.94 1384.24 L691.8 1384.24 L691.8 1371.29 L670.94 1371.29 L670.94 1371.29  Z
  " fill="#009af9" fill-rule="evenodd" fill-opacity="0.5"/>
<polyline clip-path="url(#clip062)" style="stroke:#000000; stroke-linecap:butt; stroke-linejoin:round; stroke-width:4; stroke-opacity:0.5; fill:none" points="
  670.94,1371.29 670.94,1384.24 691.8,1384.24 691.8,1371.29 670.94,1371.29 
  "/>
<path clip-path="url(#clip062)" d="
M691.8 1368.44 L691.8 1384.24 L712.66 1384.24 L712.66 1368.44 L691.8 1368.44 L691.8 1368.44  Z
  " fill="#009af9" fill-rule="evenodd" fill-opacity="0.5"/>
<polyline clip-path="url(#clip062)" style="stroke:#000000; stroke-linecap:butt; stroke-linejoin:round; stroke-width:4; stroke-opacity:0.5; fill:none" points="
  691.8,1368.44 691.8,1384.24 712.66,1384.24 712.66,1368.44 691.8,1368.44 
  "/>
<path clip-path="url(#clip062)" d="
M712.66 1359.37 L712.66 1384.24 L733.52 1384.24 L733.52 1359.37 L712.66 1359.37 L712.66 1359.37  Z
  " fill="#009af9" fill-rule="evenodd" fill-opacity="0.5"/>
<polyline clip-path="url(#clip062)" style="stroke:#000000; stroke-linecap:butt; stroke-linejoin:round; stroke-width:4; stroke-opacity:0.5; fill:none" points="
  712.66,1359.37 712.66,1384.24 733.52,1384.24 733.52,1359.37 712.66,1359.37 
  "/>
<path clip-path="url(#clip062)" d="
M733.52 1351.6 L733.52 1384.24 L754.38 1384.24 L754.38 1351.6 L733.52 1351.6 L733.52 1351.6  Z
  " fill="#009af9" fill-rule="evenodd" fill-opacity="0.5"/>
<polyline clip-path="url(#clip062)" style="stroke:#000000; stroke-linecap:butt; stroke-linejoin:round; stroke-width:4; stroke-opacity:0.5; fill:none" points="
  733.52,1351.6 733.52,1384.24 754.38,1384.24 754.38,1351.6 733.52,1351.6 
  "/>
<path clip-path="url(#clip062)" d="
M754.38 1343.83 L754.38 1384.24 L775.24 1384.24 L775.24 1343.83 L754.38 1343.83 L754.38 1343.83  Z
  " fill="#009af9" fill-rule="evenodd" fill-opacity="0.5"/>
<polyline clip-path="url(#clip062)" style="stroke:#000000; stroke-linecap:butt; stroke-linejoin:round; stroke-width:4; stroke-opacity:0.5; fill:none" points="
  754.38,1343.83 754.38,1384.24 775.24,1384.24 775.24,1343.83 754.38,1343.83 
  "/>
<path clip-path="url(#clip062)" d="
M775.24 1336.83 L775.24 1384.24 L796.1 1384.24 L796.1 1336.83 L775.24 1336.83 L775.24 1336.83  Z
  " fill="#009af9" fill-rule="evenodd" fill-opacity="0.5"/>
<polyline clip-path="url(#clip062)" style="stroke:#000000; stroke-linecap:butt; stroke-linejoin:round; stroke-width:4; stroke-opacity:0.5; fill:none" points="
  775.24,1336.83 775.24,1384.24 796.1,1384.24 796.1,1336.83 775.24,1336.83 
  "/>
<path clip-path="url(#clip062)" d="
M796.1 1324.92 L796.1 1384.24 L816.96 1384.24 L816.96 1324.92 L796.1 1324.92 L796.1 1324.92  Z
  " fill="#009af9" fill-rule="evenodd" fill-opacity="0.5"/>
<polyline clip-path="url(#clip062)" style="stroke:#000000; stroke-linecap:butt; stroke-linejoin:round; stroke-width:4; stroke-opacity:0.5; fill:none" points="
  796.1,1324.92 796.1,1384.24 816.96,1384.24 816.96,1324.92 796.1,1324.92 
  "/>
<path clip-path="url(#clip062)" d="
M816.96 1298.24 L816.96 1384.24 L837.82 1384.24 L837.82 1298.24 L816.96 1298.24 L816.96 1298.24  Z
  " fill="#009af9" fill-rule="evenodd" fill-opacity="0.5"/>
<polyline clip-path="url(#clip062)" style="stroke:#000000; stroke-linecap:butt; stroke-linejoin:round; stroke-width:4; stroke-opacity:0.5; fill:none" points="
  816.96,1298.24 816.96,1384.24 837.82,1384.24 837.82,1298.24 816.96,1298.24 
  "/>
<path clip-path="url(#clip062)" d="
M837.82 1276.22 L837.82 1384.24 L858.68 1384.24 L858.68 1276.22 L837.82 1276.22 L837.82 1276.22  Z
  " fill="#009af9" fill-rule="evenodd" fill-opacity="0.5"/>
<polyline clip-path="url(#clip062)" style="stroke:#000000; stroke-linecap:butt; stroke-linejoin:round; stroke-width:4; stroke-opacity:0.5; fill:none" points="
  837.82,1276.22 837.82,1384.24 858.68,1384.24 858.68,1276.22 837.82,1276.22 
  "/>
<path clip-path="url(#clip062)" d="
M858.68 1264.82 L858.68 1384.24 L879.54 1384.24 L879.54 1264.82 L858.68 1264.82 L858.68 1264.82  Z
  " fill="#009af9" fill-rule="evenodd" fill-opacity="0.5"/>
<polyline clip-path="url(#clip062)" style="stroke:#000000; stroke-linecap:butt; stroke-linejoin:round; stroke-width:4; stroke-opacity:0.5; fill:none" points="
  858.68,1264.82 858.68,1384.24 879.54,1384.24 879.54,1264.82 858.68,1264.82 
  "/>
<path clip-path="url(#clip062)" d="
M879.54 1228.82 L879.54 1384.24 L900.4 1384.24 L900.4 1228.82 L879.54 1228.82 L879.54 1228.82  Z
  " fill="#009af9" fill-rule="evenodd" fill-opacity="0.5"/>
<polyline clip-path="url(#clip062)" style="stroke:#000000; stroke-linecap:butt; stroke-linejoin:round; stroke-width:4; stroke-opacity:0.5; fill:none" points="
  879.54,1228.82 879.54,1384.24 900.4,1384.24 900.4,1228.82 879.54,1228.82 
  "/>
<path clip-path="url(#clip062)" d="
M900.4 1209.13 L900.4 1384.24 L921.26 1384.24 L921.26 1209.13 L900.4 1209.13 L900.4 1209.13  Z
  " fill="#009af9" fill-rule="evenodd" fill-opacity="0.5"/>
<polyline clip-path="url(#clip062)" style="stroke:#000000; stroke-linecap:butt; stroke-linejoin:round; stroke-width:4; stroke-opacity:0.5; fill:none" points="
  900.4,1209.13 900.4,1384.24 921.26,1384.24 921.26,1209.13 900.4,1209.13 
  "/>
<path clip-path="url(#clip062)" d="
M921.26 1154.21 L921.26 1384.24 L942.12 1384.24 L942.12 1154.21 L921.26 1154.21 L921.26 1154.21  Z
  " fill="#009af9" fill-rule="evenodd" fill-opacity="0.5"/>
<polyline clip-path="url(#clip062)" style="stroke:#000000; stroke-linecap:butt; stroke-linejoin:round; stroke-width:4; stroke-opacity:0.5; fill:none" points="
  921.26,1154.21 921.26,1384.24 942.12,1384.24 942.12,1154.21 921.26,1154.21 
  "/>
<path clip-path="url(#clip062)" d="
M942.12 1108.1 L942.12 1384.24 L962.98 1384.24 L962.98 1108.1 L942.12 1108.1 L942.12 1108.1  Z
  " fill="#009af9" fill-rule="evenodd" fill-opacity="0.5"/>
<polyline clip-path="url(#clip062)" style="stroke:#000000; stroke-linecap:butt; stroke-linejoin:round; stroke-width:4; stroke-opacity:0.5; fill:none" points="
  942.12,1108.1 942.12,1384.24 962.98,1384.24 962.98,1108.1 942.12,1108.1 
  "/>
<path clip-path="url(#clip062)" d="
M962.98 1042.83 L962.98 1384.24 L983.84 1384.24 L983.84 1042.83 L962.98 1042.83 L962.98 1042.83  Z
  " fill="#009af9" fill-rule="evenodd" fill-opacity="0.5"/>
<polyline clip-path="url(#clip062)" style="stroke:#000000; stroke-linecap:butt; stroke-linejoin:round; stroke-width:4; stroke-opacity:0.5; fill:none" points="
  962.98,1042.83 962.98,1384.24 983.84,1384.24 983.84,1042.83 962.98,1042.83 
  "/>
<path clip-path="url(#clip062)" d="
M983.84 992.313 L983.84 1384.24 L1004.7 1384.24 L1004.7 992.313 L983.84 992.313 L983.84 992.313  Z
  " fill="#009af9" fill-rule="evenodd" fill-opacity="0.5"/>
<polyline clip-path="url(#clip062)" style="stroke:#000000; stroke-linecap:butt; stroke-linejoin:round; stroke-width:4; stroke-opacity:0.5; fill:none" points="
  983.84,992.313 983.84,1384.24 1004.7,1384.24 1004.7,992.313 983.84,992.313 
  "/>
<path clip-path="url(#clip062)" d="
M1004.7 963.819 L1004.7 1384.24 L1025.56 1384.24 L1025.56 963.819 L1004.7 963.819 L1004.7 963.819  Z
  " fill="#009af9" fill-rule="evenodd" fill-opacity="0.5"/>
<polyline clip-path="url(#clip062)" style="stroke:#000000; stroke-linecap:butt; stroke-linejoin:round; stroke-width:4; stroke-opacity:0.5; fill:none" points="
  1004.7,963.819 1004.7,1384.24 1025.56,1384.24 1025.56,963.819 1004.7,963.819 
  "/>
<path clip-path="url(#clip062)" d="
M1025.56 841.034 L1025.56 1384.24 L1046.42 1384.24 L1046.42 841.034 L1025.56 841.034 L1025.56 841.034  Z
  " fill="#009af9" fill-rule="evenodd" fill-opacity="0.5"/>
<polyline clip-path="url(#clip062)" style="stroke:#000000; stroke-linecap:butt; stroke-linejoin:round; stroke-width:4; stroke-opacity:0.5; fill:none" points="
  1025.56,841.034 1025.56,1384.24 1046.42,1384.24 1046.42,841.034 1025.56,841.034 
  "/>
<path clip-path="url(#clip062)" d="
M1046.42 787.413 L1046.42 1384.24 L1067.28 1384.24 L1067.28 787.413 L1046.42 787.413 L1046.42 787.413  Z
  " fill="#009af9" fill-rule="evenodd" fill-opacity="0.5"/>
<polyline clip-path="url(#clip062)" style="stroke:#000000; stroke-linecap:butt; stroke-linejoin:round; stroke-width:4; stroke-opacity:0.5; fill:none" points="
  1046.42,787.413 1046.42,1384.24 1067.28,1384.24 1067.28,787.413 1046.42,787.413 
  "/>
<path clip-path="url(#clip062)" d="
M1067.28 716.696 L1067.28 1384.24 L1088.14 1384.24 L1088.14 716.696 L1067.28 716.696 L1067.28 716.696  Z
  " fill="#009af9" fill-rule="evenodd" fill-opacity="0.5"/>
<polyline clip-path="url(#clip062)" style="stroke:#000000; stroke-linecap:butt; stroke-linejoin:round; stroke-width:4; stroke-opacity:0.5; fill:none" points="
  1067.28,716.696 1067.28,1384.24 1088.14,1384.24 1088.14,716.696 1067.28,716.696 
  "/>
<path clip-path="url(#clip062)" d="
M1088.14 634.84 L1088.14 1384.24 L1109 1384.24 L1109 634.84 L1088.14 634.84 L1088.14 634.84  Z
  " fill="#009af9" fill-rule="evenodd" fill-opacity="0.5"/>
<polyline clip-path="url(#clip062)" style="stroke:#000000; stroke-linecap:butt; stroke-linejoin:round; stroke-width:4; stroke-opacity:0.5; fill:none" points="
  1088.14,634.84 1088.14,1384.24 1109,1384.24 1109,634.84 1088.14,634.84 
  "/>
<path clip-path="url(#clip062)" d="
M1109 551.947 L1109 1384.24 L1129.86 1384.24 L1129.86 551.947 L1109 551.947 L1109 551.947  Z
  " fill="#009af9" fill-rule="evenodd" fill-opacity="0.5"/>
<polyline clip-path="url(#clip062)" style="stroke:#000000; stroke-linecap:butt; stroke-linejoin:round; stroke-width:4; stroke-opacity:0.5; fill:none" points="
  1109,551.947 1109,1384.24 1129.86,1384.24 1129.86,551.947 1109,551.947 
  "/>
<path clip-path="url(#clip062)" d="
M1129.86 465.688 L1129.86 1384.24 L1150.72 1384.24 L1150.72 465.688 L1129.86 465.688 L1129.86 465.688  Z
  " fill="#009af9" fill-rule="evenodd" fill-opacity="0.5"/>
<polyline clip-path="url(#clip062)" style="stroke:#000000; stroke-linecap:butt; stroke-linejoin:round; stroke-width:4; stroke-opacity:0.5; fill:none" points="
  1129.86,465.688 1129.86,1384.24 1150.72,1384.24 1150.72,465.688 1129.86,465.688 
  "/>
<path clip-path="url(#clip062)" d="
M1150.72 393.416 L1150.72 1384.24 L1171.58 1384.24 L1171.58 393.416 L1150.72 393.416 L1150.72 393.416  Z
  " fill="#009af9" fill-rule="evenodd" fill-opacity="0.5"/>
<polyline clip-path="url(#clip062)" style="stroke:#000000; stroke-linecap:butt; stroke-linejoin:round; stroke-width:4; stroke-opacity:0.5; fill:none" points="
  1150.72,393.416 1150.72,1384.24 1171.58,1384.24 1171.58,393.416 1150.72,393.416 
  "/>
<path clip-path="url(#clip062)" d="
M1171.58 331.246 L1171.58 1384.24 L1192.44 1384.24 L1192.44 331.246 L1171.58 331.246 L1171.58 331.246  Z
  " fill="#009af9" fill-rule="evenodd" fill-opacity="0.5"/>
<polyline clip-path="url(#clip062)" style="stroke:#000000; stroke-linecap:butt; stroke-linejoin:round; stroke-width:4; stroke-opacity:0.5; fill:none" points="
  1171.58,331.246 1171.58,1384.24 1192.44,1384.24 1192.44,331.246 1171.58,331.246 
  "/>
<path clip-path="url(#clip062)" d="
M1192.44 251.722 L1192.44 1384.24 L1213.3 1384.24 L1213.3 251.722 L1192.44 251.722 L1192.44 251.722  Z
  " fill="#009af9" fill-rule="evenodd" fill-opacity="0.5"/>
<polyline clip-path="url(#clip062)" style="stroke:#000000; stroke-linecap:butt; stroke-linejoin:round; stroke-width:4; stroke-opacity:0.5; fill:none" points="
  1192.44,251.722 1192.44,1384.24 1213.3,1384.24 1213.3,251.722 1192.44,251.722 
  "/>
<path clip-path="url(#clip062)" d="
M1213.3 197.842 L1213.3 1384.24 L1234.16 1384.24 L1234.16 197.842 L1213.3 197.842 L1213.3 197.842  Z
  " fill="#009af9" fill-rule="evenodd" fill-opacity="0.5"/>
<polyline clip-path="url(#clip062)" style="stroke:#000000; stroke-linecap:butt; stroke-linejoin:round; stroke-width:4; stroke-opacity:0.5; fill:none" points="
  1213.3,197.842 1213.3,1384.24 1234.16,1384.24 1234.16,197.842 1213.3,197.842 
  "/>
<path clip-path="url(#clip062)" d="
M1234.16 156.914 L1234.16 1384.24 L1255.02 1384.24 L1255.02 156.914 L1234.16 156.914 L1234.16 156.914  Z
  " fill="#009af9" fill-rule="evenodd" fill-opacity="0.5"/>
<polyline clip-path="url(#clip062)" style="stroke:#000000; stroke-linecap:butt; stroke-linejoin:round; stroke-width:4; stroke-opacity:0.5; fill:none" points="
  1234.16,156.914 1234.16,1384.24 1255.02,1384.24 1255.02,156.914 1234.16,156.914 
  "/>
<path clip-path="url(#clip062)" d="
M1255.02 98.3708 L1255.02 1384.24 L1275.88 1384.24 L1275.88 98.3708 L1255.02 98.3708 L1255.02 98.3708  Z
  " fill="#009af9" fill-rule="evenodd" fill-opacity="0.5"/>
<polyline clip-path="url(#clip062)" style="stroke:#000000; stroke-linecap:butt; stroke-linejoin:round; stroke-width:4; stroke-opacity:0.5; fill:none" points="
  1255.02,98.3708 1255.02,1384.24 1275.88,1384.24 1275.88,98.3708 1255.02,98.3708 
  "/>
<path clip-path="url(#clip062)" d="
M1275.88 129.714 L1275.88 1384.24 L1296.74 1384.24 L1296.74 129.714 L1275.88 129.714 L1275.88 129.714  Z
  " fill="#009af9" fill-rule="evenodd" fill-opacity="0.5"/>
<polyline clip-path="url(#clip062)" style="stroke:#000000; stroke-linecap:butt; stroke-linejoin:round; stroke-width:4; stroke-opacity:0.5; fill:none" points="
  1275.88,129.714 1275.88,1384.24 1296.74,1384.24 1296.74,129.714 1275.88,129.714 
  "/>
<path clip-path="url(#clip062)" d="
M1296.74 90.0816 L1296.74 1384.24 L1317.6 1384.24 L1317.6 90.0816 L1296.74 90.0816 L1296.74 90.0816  Z
  " fill="#009af9" fill-rule="evenodd" fill-opacity="0.5"/>
<polyline clip-path="url(#clip062)" style="stroke:#000000; stroke-linecap:butt; stroke-linejoin:round; stroke-width:4; stroke-opacity:0.5; fill:none" points="
  1296.74,90.0816 1296.74,1384.24 1317.6,1384.24 1317.6,90.0816 1296.74,90.0816 
  "/>
<path clip-path="url(#clip062)" d="
M1317.6 93.19 L1317.6 1384.24 L1338.46 1384.24 L1338.46 93.19 L1317.6 93.19 L1317.6 93.19  Z
  " fill="#009af9" fill-rule="evenodd" fill-opacity="0.5"/>
<polyline clip-path="url(#clip062)" style="stroke:#000000; stroke-linecap:butt; stroke-linejoin:round; stroke-width:4; stroke-opacity:0.5; fill:none" points="
  1317.6,93.19 1317.6,1384.24 1338.46,1384.24 1338.46,93.19 1317.6,93.19 
  "/>
<path clip-path="url(#clip062)" d="
M1338.46 87.4912 L1338.46 1384.24 L1359.32 1384.24 L1359.32 87.4912 L1338.46 87.4912 L1338.46 87.4912  Z
  " fill="#009af9" fill-rule="evenodd" fill-opacity="0.5"/>
<polyline clip-path="url(#clip062)" style="stroke:#000000; stroke-linecap:butt; stroke-linejoin:round; stroke-width:4; stroke-opacity:0.5; fill:none" points="
  1338.46,87.4912 1338.46,1384.24 1359.32,1384.24 1359.32,87.4912 1338.46,87.4912 
  "/>
<path clip-path="url(#clip062)" d="
M1359.32 107.696 L1359.32 1384.24 L1380.18 1384.24 L1380.18 107.696 L1359.32 107.696 L1359.32 107.696  Z
  " fill="#009af9" fill-rule="evenodd" fill-opacity="0.5"/>
<polyline clip-path="url(#clip062)" style="stroke:#000000; stroke-linecap:butt; stroke-linejoin:round; stroke-width:4; stroke-opacity:0.5; fill:none" points="
  1359.32,107.696 1359.32,1384.24 1380.18,1384.24 1380.18,107.696 1359.32,107.696 
  "/>
<path clip-path="url(#clip062)" d="
M1380.18 177.896 L1380.18 1384.24 L1401.04 1384.24 L1401.04 177.896 L1380.18 177.896 L1380.18 177.896  Z
  " fill="#009af9" fill-rule="evenodd" fill-opacity="0.5"/>
<polyline clip-path="url(#clip062)" style="stroke:#000000; stroke-linecap:butt; stroke-linejoin:round; stroke-width:4; stroke-opacity:0.5; fill:none" points="
  1380.18,177.896 1380.18,1384.24 1401.04,1384.24 1401.04,177.896 1380.18,177.896 
  "/>
<path clip-path="url(#clip062)" d="
M1401.04 220.119 L1401.04 1384.24 L1421.9 1384.24 L1421.9 220.119 L1401.04 220.119 L1401.04 220.119  Z
  " fill="#009af9" fill-rule="evenodd" fill-opacity="0.5"/>
<polyline clip-path="url(#clip062)" style="stroke:#000000; stroke-linecap:butt; stroke-linejoin:round; stroke-width:4; stroke-opacity:0.5; fill:none" points="
  1401.04,220.119 1401.04,1384.24 1421.9,1384.24 1421.9,220.119 1401.04,220.119 
  "/>
<path clip-path="url(#clip062)" d="
M1421.9 275.035 L1421.9 1384.24 L1442.76 1384.24 L1442.76 275.035 L1421.9 275.035 L1421.9 275.035  Z
  " fill="#009af9" fill-rule="evenodd" fill-opacity="0.5"/>
<polyline clip-path="url(#clip062)" style="stroke:#000000; stroke-linecap:butt; stroke-linejoin:round; stroke-width:4; stroke-opacity:0.5; fill:none" points="
  1421.9,275.035 1421.9,1384.24 1442.76,1384.24 1442.76,275.035 1421.9,275.035 
  "/>
<path clip-path="url(#clip062)" d="
M1442.76 330.987 L1442.76 1384.24 L1463.62 1384.24 L1463.62 330.987 L1442.76 330.987 L1442.76 330.987  Z
  " fill="#009af9" fill-rule="evenodd" fill-opacity="0.5"/>
<polyline clip-path="url(#clip062)" style="stroke:#000000; stroke-linecap:butt; stroke-linejoin:round; stroke-width:4; stroke-opacity:0.5; fill:none" points="
  1442.76,330.987 1442.76,1384.24 1463.62,1384.24 1463.62,330.987 1442.76,330.987 
  "/>
<path clip-path="url(#clip062)" d="
M1463.62 417.765 L1463.62 1384.24 L1484.48 1384.24 L1484.48 417.765 L1463.62 417.765 L1463.62 417.765  Z
  " fill="#009af9" fill-rule="evenodd" fill-opacity="0.5"/>
<polyline clip-path="url(#clip062)" style="stroke:#000000; stroke-linecap:butt; stroke-linejoin:round; stroke-width:4; stroke-opacity:0.5; fill:none" points="
  1463.62,417.765 1463.62,1384.24 1484.48,1384.24 1484.48,417.765 1463.62,417.765 
  "/>
<path clip-path="url(#clip062)" d="
M1484.48 473.977 L1484.48 1384.24 L1505.34 1384.24 L1505.34 473.977 L1484.48 473.977 L1484.48 473.977  Z
  " fill="#009af9" fill-rule="evenodd" fill-opacity="0.5"/>
<polyline clip-path="url(#clip062)" style="stroke:#000000; stroke-linecap:butt; stroke-linejoin:round; stroke-width:4; stroke-opacity:0.5; fill:none" points="
  1484.48,473.977 1484.48,1384.24 1505.34,1384.24 1505.34,473.977 1484.48,473.977 
  "/>
<path clip-path="url(#clip062)" d="
M1505.34 551.688 L1505.34 1384.24 L1526.2 1384.24 L1526.2 551.688 L1505.34 551.688 L1505.34 551.688  Z
  " fill="#009af9" fill-rule="evenodd" fill-opacity="0.5"/>
<polyline clip-path="url(#clip062)" style="stroke:#000000; stroke-linecap:butt; stroke-linejoin:round; stroke-width:4; stroke-opacity:0.5; fill:none" points="
  1505.34,551.688 1505.34,1384.24 1526.2,1384.24 1526.2,551.688 1505.34,551.688 
  "/>
<path clip-path="url(#clip062)" d="
M1526.2 635.358 L1526.2 1384.24 L1547.06 1384.24 L1547.06 635.358 L1526.2 635.358 L1526.2 635.358  Z
  " fill="#009af9" fill-rule="evenodd" fill-opacity="0.5"/>
<polyline clip-path="url(#clip062)" style="stroke:#000000; stroke-linecap:butt; stroke-linejoin:round; stroke-width:4; stroke-opacity:0.5; fill:none" points="
  1526.2,635.358 1526.2,1384.24 1547.06,1384.24 1547.06,635.358 1526.2,635.358 
  "/>
<path clip-path="url(#clip062)" d="
M1547.06 738.714 L1547.06 1384.24 L1567.92 1384.24 L1567.92 738.714 L1547.06 738.714 L1547.06 738.714  Z
  " fill="#009af9" fill-rule="evenodd" fill-opacity="0.5"/>
<polyline clip-path="url(#clip062)" style="stroke:#000000; stroke-linecap:butt; stroke-linejoin:round; stroke-width:4; stroke-opacity:0.5; fill:none" points="
  1547.06,738.714 1547.06,1384.24 1567.92,1384.24 1567.92,738.714 1547.06,738.714 
  "/>
<path clip-path="url(#clip062)" d="
M1567.92 797.257 L1567.92 1384.24 L1588.78 1384.24 L1588.78 797.257 L1567.92 797.257 L1567.92 797.257  Z
  " fill="#009af9" fill-rule="evenodd" fill-opacity="0.5"/>
<polyline clip-path="url(#clip062)" style="stroke:#000000; stroke-linecap:butt; stroke-linejoin:round; stroke-width:4; stroke-opacity:0.5; fill:none" points="
  1567.92,797.257 1567.92,1384.24 1588.78,1384.24 1588.78,797.257 1567.92,797.257 
  "/>
<path clip-path="url(#clip062)" d="
M1588.78 879.113 L1588.78 1384.24 L1609.64 1384.24 L1609.64 879.113 L1588.78 879.113 L1588.78 879.113  Z
  " fill="#009af9" fill-rule="evenodd" fill-opacity="0.5"/>
<polyline clip-path="url(#clip062)" style="stroke:#000000; stroke-linecap:butt; stroke-linejoin:round; stroke-width:4; stroke-opacity:0.5; fill:none" points="
  1588.78,879.113 1588.78,1384.24 1609.64,1384.24 1609.64,879.113 1588.78,879.113 
  "/>
<path clip-path="url(#clip062)" d="
M1609.64 919.264 L1609.64 1384.24 L1630.5 1384.24 L1630.5 919.264 L1609.64 919.264 L1609.64 919.264  Z
  " fill="#009af9" fill-rule="evenodd" fill-opacity="0.5"/>
<polyline clip-path="url(#clip062)" style="stroke:#000000; stroke-linecap:butt; stroke-linejoin:round; stroke-width:4; stroke-opacity:0.5; fill:none" points="
  1609.64,919.264 1609.64,1384.24 1630.5,1384.24 1630.5,919.264 1609.64,919.264 
  "/>
<path clip-path="url(#clip062)" d="
M1630.5 995.68 L1630.5 1384.24 L1651.36 1384.24 L1651.36 995.68 L1630.5 995.68 L1630.5 995.68  Z
  " fill="#009af9" fill-rule="evenodd" fill-opacity="0.5"/>
<polyline clip-path="url(#clip062)" style="stroke:#000000; stroke-linecap:butt; stroke-linejoin:round; stroke-width:4; stroke-opacity:0.5; fill:none" points="
  1630.5,995.68 1630.5,1384.24 1651.36,1384.24 1651.36,995.68 1630.5,995.68 
  "/>
<path clip-path="url(#clip062)" d="
M1651.36 1059.66 L1651.36 1384.24 L1672.22 1384.24 L1672.22 1059.66 L1651.36 1059.66 L1651.36 1059.66  Z
  " fill="#009af9" fill-rule="evenodd" fill-opacity="0.5"/>
<polyline clip-path="url(#clip062)" style="stroke:#000000; stroke-linecap:butt; stroke-linejoin:round; stroke-width:4; stroke-opacity:0.5; fill:none" points="
  1651.36,1059.66 1651.36,1384.24 1672.22,1384.24 1672.22,1059.66 1651.36,1059.66 
  "/>
<path clip-path="url(#clip062)" d="
M1672.22 1092.82 L1672.22 1384.24 L1693.08 1384.24 L1693.08 1092.82 L1672.22 1092.82 L1672.22 1092.82  Z
  " fill="#009af9" fill-rule="evenodd" fill-opacity="0.5"/>
<polyline clip-path="url(#clip062)" style="stroke:#000000; stroke-linecap:butt; stroke-linejoin:round; stroke-width:4; stroke-opacity:0.5; fill:none" points="
  1672.22,1092.82 1672.22,1384.24 1693.08,1384.24 1693.08,1092.82 1672.22,1092.82 
  "/>
<path clip-path="url(#clip062)" d="
M1693.08 1150.84 L1693.08 1384.24 L1713.94 1384.24 L1713.94 1150.84 L1693.08 1150.84 L1693.08 1150.84  Z
  " fill="#009af9" fill-rule="evenodd" fill-opacity="0.5"/>
<polyline clip-path="url(#clip062)" style="stroke:#000000; stroke-linecap:butt; stroke-linejoin:round; stroke-width:4; stroke-opacity:0.5; fill:none" points="
  1693.08,1150.84 1693.08,1384.24 1713.94,1384.24 1713.94,1150.84 1693.08,1150.84 
  "/>
<path clip-path="url(#clip062)" d="
M1713.94 1177.01 L1713.94 1384.24 L1734.8 1384.24 L1734.8 1177.01 L1713.94 1177.01 L1713.94 1177.01  Z
  " fill="#009af9" fill-rule="evenodd" fill-opacity="0.5"/>
<polyline clip-path="url(#clip062)" style="stroke:#000000; stroke-linecap:butt; stroke-linejoin:round; stroke-width:4; stroke-opacity:0.5; fill:none" points="
  1713.94,1177.01 1713.94,1384.24 1734.8,1384.24 1734.8,1177.01 1713.94,1177.01 
  "/>
<path clip-path="url(#clip062)" d="
M1734.8 1234.51 L1734.8 1384.24 L1755.66 1384.24 L1755.66 1234.51 L1734.8 1234.51 L1734.8 1234.51  Z
  " fill="#009af9" fill-rule="evenodd" fill-opacity="0.5"/>
<polyline clip-path="url(#clip062)" style="stroke:#000000; stroke-linecap:butt; stroke-linejoin:round; stroke-width:4; stroke-opacity:0.5; fill:none" points="
  1734.8,1234.51 1734.8,1384.24 1755.66,1384.24 1755.66,1234.51 1734.8,1234.51 
  "/>
<path clip-path="url(#clip062)" d="
M1755.66 1250.83 L1755.66 1384.24 L1776.52 1384.24 L1776.52 1250.83 L1755.66 1250.83 L1755.66 1250.83  Z
  " fill="#009af9" fill-rule="evenodd" fill-opacity="0.5"/>
<polyline clip-path="url(#clip062)" style="stroke:#000000; stroke-linecap:butt; stroke-linejoin:round; stroke-width:4; stroke-opacity:0.5; fill:none" points="
  1755.66,1250.83 1755.66,1384.24 1776.52,1384.24 1776.52,1250.83 1755.66,1250.83 
  "/>
<path clip-path="url(#clip062)" d="
M1776.52 1272.59 L1776.52 1384.24 L1797.38 1384.24 L1797.38 1272.59 L1776.52 1272.59 L1776.52 1272.59  Z
  " fill="#009af9" fill-rule="evenodd" fill-opacity="0.5"/>
<polyline clip-path="url(#clip062)" style="stroke:#000000; stroke-linecap:butt; stroke-linejoin:round; stroke-width:4; stroke-opacity:0.5; fill:none" points="
  1776.52,1272.59 1776.52,1384.24 1797.38,1384.24 1797.38,1272.59 1776.52,1272.59 
  "/>
<path clip-path="url(#clip062)" d="
M1797.38 1306.53 L1797.38 1384.24 L1818.24 1384.24 L1818.24 1306.53 L1797.38 1306.53 L1797.38 1306.53  Z
  " fill="#009af9" fill-rule="evenodd" fill-opacity="0.5"/>
<polyline clip-path="url(#clip062)" style="stroke:#000000; stroke-linecap:butt; stroke-linejoin:round; stroke-width:4; stroke-opacity:0.5; fill:none" points="
  1797.38,1306.53 1797.38,1384.24 1818.24,1384.24 1818.24,1306.53 1797.38,1306.53 
  "/>
<path clip-path="url(#clip062)" d="
M1818.24 1317.41 L1818.24 1384.24 L1839.1 1384.24 L1839.1 1317.41 L1818.24 1317.41 L1818.24 1317.41  Z
  " fill="#009af9" fill-rule="evenodd" fill-opacity="0.5"/>
<polyline clip-path="url(#clip062)" style="stroke:#000000; stroke-linecap:butt; stroke-linejoin:round; stroke-width:4; stroke-opacity:0.5; fill:none" points="
  1818.24,1317.41 1818.24,1384.24 1839.1,1384.24 1839.1,1317.41 1818.24,1317.41 
  "/>
<path clip-path="url(#clip062)" d="
M1839.1 1331.39 L1839.1 1384.24 L1859.96 1384.24 L1859.96 1331.39 L1839.1 1331.39 L1839.1 1331.39  Z
  " fill="#009af9" fill-rule="evenodd" fill-opacity="0.5"/>
<polyline clip-path="url(#clip062)" style="stroke:#000000; stroke-linecap:butt; stroke-linejoin:round; stroke-width:4; stroke-opacity:0.5; fill:none" points="
  1839.1,1331.39 1839.1,1384.24 1859.96,1384.24 1859.96,1331.39 1839.1,1331.39 
  "/>
<path clip-path="url(#clip062)" d="
M1859.96 1348.75 L1859.96 1384.24 L1880.82 1384.24 L1880.82 1348.75 L1859.96 1348.75 L1859.96 1348.75  Z
  " fill="#009af9" fill-rule="evenodd" fill-opacity="0.5"/>
<polyline clip-path="url(#clip062)" style="stroke:#000000; stroke-linecap:butt; stroke-linejoin:round; stroke-width:4; stroke-opacity:0.5; fill:none" points="
  1859.96,1348.75 1859.96,1384.24 1880.82,1384.24 1880.82,1348.75 1859.96,1348.75 
  "/>
<path clip-path="url(#clip062)" d="
M1880.82 1357.04 L1880.82 1384.24 L1901.68 1384.24 L1901.68 1357.04 L1880.82 1357.04 L1880.82 1357.04  Z
  " fill="#009af9" fill-rule="evenodd" fill-opacity="0.5"/>
<polyline clip-path="url(#clip062)" style="stroke:#000000; stroke-linecap:butt; stroke-linejoin:round; stroke-width:4; stroke-opacity:0.5; fill:none" points="
  1880.82,1357.04 1880.82,1384.24 1901.68,1384.24 1901.68,1357.04 1880.82,1357.04 
  "/>
<path clip-path="url(#clip062)" d="
M1901.68 1357.82 L1901.68 1384.24 L1922.54 1384.24 L1922.54 1357.82 L1901.68 1357.82 L1901.68 1357.82  Z
  " fill="#009af9" fill-rule="evenodd" fill-opacity="0.5"/>
<polyline clip-path="url(#clip062)" style="stroke:#000000; stroke-linecap:butt; stroke-linejoin:round; stroke-width:4; stroke-opacity:0.5; fill:none" points="
  1901.68,1357.82 1901.68,1384.24 1922.54,1384.24 1922.54,1357.82 1901.68,1357.82 
  "/>
<path clip-path="url(#clip062)" d="
M1922.54 1369.21 L1922.54 1384.24 L1943.4 1384.24 L1943.4 1369.21 L1922.54 1369.21 L1922.54 1369.21  Z
  " fill="#009af9" fill-rule="evenodd" fill-opacity="0.5"/>
<polyline clip-path="url(#clip062)" style="stroke:#000000; stroke-linecap:butt; stroke-linejoin:round; stroke-width:4; stroke-opacity:0.5; fill:none" points="
  1922.54,1369.21 1922.54,1384.24 1943.4,1384.24 1943.4,1369.21 1922.54,1369.21 
  "/>
<path clip-path="url(#clip062)" d="
M1943.4 1371.8 L1943.4 1384.24 L1964.26 1384.24 L1964.26 1371.8 L1943.4 1371.8 L1943.4 1371.8  Z
  " fill="#009af9" fill-rule="evenodd" fill-opacity="0.5"/>
<polyline clip-path="url(#clip062)" style="stroke:#000000; stroke-linecap:butt; stroke-linejoin:round; stroke-width:4; stroke-opacity:0.5; fill:none" points="
  1943.4,1371.8 1943.4,1384.24 1964.26,1384.24 1964.26,1371.8 1943.4,1371.8 
  "/>
<path clip-path="url(#clip062)" d="
M1964.26 1375.17 L1964.26 1384.24 L1985.12 1384.24 L1985.12 1375.17 L1964.26 1375.17 L1964.26 1375.17  Z
  " fill="#009af9" fill-rule="evenodd" fill-opacity="0.5"/>
<polyline clip-path="url(#clip062)" style="stroke:#000000; stroke-linecap:butt; stroke-linejoin:round; stroke-width:4; stroke-opacity:0.5; fill:none" points="
  1964.26,1375.17 1964.26,1384.24 1985.12,1384.24 1985.12,1375.17 1964.26,1375.17 
  "/>
<path clip-path="url(#clip062)" d="
M1985.12 1378.02 L1985.12 1384.24 L2005.98 1384.24 L2005.98 1378.02 L1985.12 1378.02 L1985.12 1378.02  Z
  " fill="#009af9" fill-rule="evenodd" fill-opacity="0.5"/>
<polyline clip-path="url(#clip062)" style="stroke:#000000; stroke-linecap:butt; stroke-linejoin:round; stroke-width:4; stroke-opacity:0.5; fill:none" points="
  1985.12,1378.02 1985.12,1384.24 2005.98,1384.24 2005.98,1378.02 1985.12,1378.02 
  "/>
<path clip-path="url(#clip062)" d="
M2005.98 1381.39 L2005.98 1384.24 L2026.84 1384.24 L2026.84 1381.39 L2005.98 1381.39 L2005.98 1381.39  Z
  " fill="#009af9" fill-rule="evenodd" fill-opacity="0.5"/>
<polyline clip-path="url(#clip062)" style="stroke:#000000; stroke-linecap:butt; stroke-linejoin:round; stroke-width:4; stroke-opacity:0.5; fill:none" points="
  2005.98,1381.39 2005.98,1384.24 2026.84,1384.24 2026.84,1381.39 2005.98,1381.39 
  "/>
<path clip-path="url(#clip062)" d="
M2026.84 1380.35 L2026.84 1384.24 L2047.7 1384.24 L2047.7 1380.35 L2026.84 1380.35 L2026.84 1380.35  Z
  " fill="#009af9" fill-rule="evenodd" fill-opacity="0.5"/>
<polyline clip-path="url(#clip062)" style="stroke:#000000; stroke-linecap:butt; stroke-linejoin:round; stroke-width:4; stroke-opacity:0.5; fill:none" points="
  2026.84,1380.35 2026.84,1384.24 2047.7,1384.24 2047.7,1380.35 2026.84,1380.35 
  "/>
<path clip-path="url(#clip062)" d="
M2047.7 1381.91 L2047.7 1384.24 L2068.56 1384.24 L2068.56 1381.91 L2047.7 1381.91 L2047.7 1381.91  Z
  " fill="#009af9" fill-rule="evenodd" fill-opacity="0.5"/>
<polyline clip-path="url(#clip062)" style="stroke:#000000; stroke-linecap:butt; stroke-linejoin:round; stroke-width:4; stroke-opacity:0.5; fill:none" points="
  2047.7,1381.91 2047.7,1384.24 2068.56,1384.24 2068.56,1381.91 2047.7,1381.91 
  "/>
<path clip-path="url(#clip062)" d="
M2068.56 1382.94 L2068.56 1384.24 L2089.42 1384.24 L2089.42 1382.94 L2068.56 1382.94 L2068.56 1382.94  Z
  " fill="#009af9" fill-rule="evenodd" fill-opacity="0.5"/>
<polyline clip-path="url(#clip062)" style="stroke:#000000; stroke-linecap:butt; stroke-linejoin:round; stroke-width:4; stroke-opacity:0.5; fill:none" points="
  2068.56,1382.94 2068.56,1384.24 2089.42,1384.24 2089.42,1382.94 2068.56,1382.94 
  "/>
<path clip-path="url(#clip062)" d="
M2089.42 1383.2 L2089.42 1384.24 L2110.28 1384.24 L2110.28 1383.2 L2089.42 1383.2 L2089.42 1383.2  Z
  " fill="#009af9" fill-rule="evenodd" fill-opacity="0.5"/>
<polyline clip-path="url(#clip062)" style="stroke:#000000; stroke-linecap:butt; stroke-linejoin:round; stroke-width:4; stroke-opacity:0.5; fill:none" points="
  2089.42,1383.2 2089.42,1384.24 2110.28,1384.24 2110.28,1383.2 2089.42,1383.2 
  "/>
<path clip-path="url(#clip062)" d="
M2110.28 1382.94 L2110.28 1384.24 L2131.14 1384.24 L2131.14 1382.94 L2110.28 1382.94 L2110.28 1382.94  Z
  " fill="#009af9" fill-rule="evenodd" fill-opacity="0.5"/>
<polyline clip-path="url(#clip062)" style="stroke:#000000; stroke-linecap:butt; stroke-linejoin:round; stroke-width:4; stroke-opacity:0.5; fill:none" points="
  2110.28,1382.94 2110.28,1384.24 2131.14,1384.24 2131.14,1382.94 2110.28,1382.94 
  "/>
<path clip-path="url(#clip062)" d="
M2131.14 1383.98 L2131.14 1384.24 L2152 1384.24 L2152 1383.98 L2131.14 1383.98 L2131.14 1383.98  Z
  " fill="#009af9" fill-rule="evenodd" fill-opacity="0.5"/>
<polyline clip-path="url(#clip062)" style="stroke:#000000; stroke-linecap:butt; stroke-linejoin:round; stroke-width:4; stroke-opacity:0.5; fill:none" points="
  2131.14,1383.98 2131.14,1384.24 2152,1384.24 2152,1383.98 2131.14,1383.98 
  "/>
<path clip-path="url(#clip062)" d="
M2152 1384.24 L2152 1384.24 L2172.86 1384.24 L2172.86 1384.24 L2152 1384.24 L2152 1384.24  Z
  " fill="#009af9" fill-rule="evenodd" fill-opacity="0.5"/>
<polyline clip-path="url(#clip062)" style="stroke:#000000; stroke-linecap:butt; stroke-linejoin:round; stroke-width:4; stroke-opacity:0.5; fill:none" points="
  2152,1384.24 2152,1384.24 2172.86,1384.24 2152,1384.24 
  "/>
<path clip-path="url(#clip062)" d="
M2172.86 1384.24 L2172.86 1384.24 L2193.72 1384.24 L2193.72 1384.24 L2172.86 1384.24 L2172.86 1384.24  Z
  " fill="#009af9" fill-rule="evenodd" fill-opacity="0.5"/>
<polyline clip-path="url(#clip062)" style="stroke:#000000; stroke-linecap:butt; stroke-linejoin:round; stroke-width:4; stroke-opacity:0.5; fill:none" points="
  2172.86,1384.24 2172.86,1384.24 2193.72,1384.24 2172.86,1384.24 
  "/>
<path clip-path="url(#clip062)" d="
M2193.72 1384.24 L2193.72 1384.24 L2214.58 1384.24 L2214.58 1384.24 L2193.72 1384.24 L2193.72 1384.24  Z
  " fill="#009af9" fill-rule="evenodd" fill-opacity="0.5"/>
<polyline clip-path="url(#clip062)" style="stroke:#000000; stroke-linecap:butt; stroke-linejoin:round; stroke-width:4; stroke-opacity:0.5; fill:none" points="
  2193.72,1384.24 2193.72,1384.24 2214.58,1384.24 2193.72,1384.24 
  "/>
<path clip-path="url(#clip062)" d="
M2214.58 1383.72 L2214.58 1384.24 L2235.44 1384.24 L2235.44 1383.72 L2214.58 1383.72 L2214.58 1383.72  Z
  " fill="#009af9" fill-rule="evenodd" fill-opacity="0.5"/>
<polyline clip-path="url(#clip062)" style="stroke:#000000; stroke-linecap:butt; stroke-linejoin:round; stroke-width:4; stroke-opacity:0.5; fill:none" points="
  2214.58,1383.72 2214.58,1384.24 2235.44,1384.24 2235.44,1383.72 2214.58,1383.72 
  "/>
<circle clip-path="url(#clip062)" style="fill:#009af9; stroke:none; fill-opacity:0" cx="347.609" cy="1383.98" r="2"/>
<circle clip-path="url(#clip062)" style="fill:#009af9; stroke:none; fill-opacity:0" cx="368.469" cy="1384.24" r="2"/>
<circle clip-path="url(#clip062)" style="fill:#009af9; stroke:none; fill-opacity:0" cx="389.329" cy="1384.24" r="2"/>
<circle clip-path="url(#clip062)" style="fill:#009af9; stroke:none; fill-opacity:0" cx="410.189" cy="1384.24" r="2"/>
<circle clip-path="url(#clip062)" style="fill:#009af9; stroke:none; fill-opacity:0" cx="431.049" cy="1384.24" r="2"/>
<circle clip-path="url(#clip062)" style="fill:#009af9; stroke:none; fill-opacity:0" cx="451.909" cy="1383.46" r="2"/>
<circle clip-path="url(#clip062)" style="fill:#009af9; stroke:none; fill-opacity:0" cx="472.769" cy="1383.72" r="2"/>
<circle clip-path="url(#clip062)" style="fill:#009af9; stroke:none; fill-opacity:0" cx="493.629" cy="1383.72" r="2"/>
<circle clip-path="url(#clip062)" style="fill:#009af9; stroke:none; fill-opacity:0" cx="514.489" cy="1382.68" r="2"/>
<circle clip-path="url(#clip062)" style="fill:#009af9; stroke:none; fill-opacity:0" cx="535.349" cy="1383.2" r="2"/>
<circle clip-path="url(#clip062)" style="fill:#009af9; stroke:none; fill-opacity:0" cx="556.209" cy="1382.68" r="2"/>
<circle clip-path="url(#clip062)" style="fill:#009af9; stroke:none; fill-opacity:0" cx="577.07" cy="1382.68" r="2"/>
<circle clip-path="url(#clip062)" style="fill:#009af9; stroke:none; fill-opacity:0" cx="597.93" cy="1382.42" r="2"/>
<circle clip-path="url(#clip062)" style="fill:#009af9; stroke:none; fill-opacity:0" cx="618.79" cy="1380.09" r="2"/>
<circle clip-path="url(#clip062)" style="fill:#009af9; stroke:none; fill-opacity:0" cx="639.65" cy="1378.02" r="2"/>
<circle clip-path="url(#clip062)" style="fill:#009af9; stroke:none; fill-opacity:0" cx="660.51" cy="1375.43" r="2"/>
<circle clip-path="url(#clip062)" style="fill:#009af9; stroke:none; fill-opacity:0" cx="681.37" cy="1371.29" r="2"/>
<circle clip-path="url(#clip062)" style="fill:#009af9; stroke:none; fill-opacity:0" cx="702.23" cy="1368.44" r="2"/>
<circle clip-path="url(#clip062)" style="fill:#009af9; stroke:none; fill-opacity:0" cx="723.09" cy="1359.37" r="2"/>
<circle clip-path="url(#clip062)" style="fill:#009af9; stroke:none; fill-opacity:0" cx="743.95" cy="1351.6" r="2"/>
<circle clip-path="url(#clip062)" style="fill:#009af9; stroke:none; fill-opacity:0" cx="764.81" cy="1343.83" r="2"/>
<circle clip-path="url(#clip062)" style="fill:#009af9; stroke:none; fill-opacity:0" cx="785.67" cy="1336.83" r="2"/>
<circle clip-path="url(#clip062)" style="fill:#009af9; stroke:none; fill-opacity:0" cx="806.53" cy="1324.92" r="2"/>
<circle clip-path="url(#clip062)" style="fill:#009af9; stroke:none; fill-opacity:0" cx="827.39" cy="1298.24" r="2"/>
<circle clip-path="url(#clip062)" style="fill:#009af9; stroke:none; fill-opacity:0" cx="848.25" cy="1276.22" r="2"/>
<circle clip-path="url(#clip062)" style="fill:#009af9; stroke:none; fill-opacity:0" cx="869.11" cy="1264.82" r="2"/>
<circle clip-path="url(#clip062)" style="fill:#009af9; stroke:none; fill-opacity:0" cx="889.97" cy="1228.82" r="2"/>
<circle clip-path="url(#clip062)" style="fill:#009af9; stroke:none; fill-opacity:0" cx="910.83" cy="1209.13" r="2"/>
<circle clip-path="url(#clip062)" style="fill:#009af9; stroke:none; fill-opacity:0" cx="931.69" cy="1154.21" r="2"/>
<circle clip-path="url(#clip062)" style="fill:#009af9; stroke:none; fill-opacity:0" cx="952.55" cy="1108.1" r="2"/>
<circle clip-path="url(#clip062)" style="fill:#009af9; stroke:none; fill-opacity:0" cx="973.41" cy="1042.83" r="2"/>
<circle clip-path="url(#clip062)" style="fill:#009af9; stroke:none; fill-opacity:0" cx="994.27" cy="992.313" r="2"/>
<circle clip-path="url(#clip062)" style="fill:#009af9; stroke:none; fill-opacity:0" cx="1015.13" cy="963.819" r="2"/>
<circle clip-path="url(#clip062)" style="fill:#009af9; stroke:none; fill-opacity:0" cx="1035.99" cy="841.034" r="2"/>
<circle clip-path="url(#clip062)" style="fill:#009af9; stroke:none; fill-opacity:0" cx="1056.85" cy="787.413" r="2"/>
<circle clip-path="url(#clip062)" style="fill:#009af9; stroke:none; fill-opacity:0" cx="1077.71" cy="716.696" r="2"/>
<circle clip-path="url(#clip062)" style="fill:#009af9; stroke:none; fill-opacity:0" cx="1098.57" cy="634.84" r="2"/>
<circle clip-path="url(#clip062)" style="fill:#009af9; stroke:none; fill-opacity:0" cx="1119.43" cy="551.947" r="2"/>
<circle clip-path="url(#clip062)" style="fill:#009af9; stroke:none; fill-opacity:0" cx="1140.29" cy="465.688" r="2"/>
<circle clip-path="url(#clip062)" style="fill:#009af9; stroke:none; fill-opacity:0" cx="1161.15" cy="393.416" r="2"/>
<circle clip-path="url(#clip062)" style="fill:#009af9; stroke:none; fill-opacity:0" cx="1182.01" cy="331.246" r="2"/>
<circle clip-path="url(#clip062)" style="fill:#009af9; stroke:none; fill-opacity:0" cx="1202.87" cy="251.722" r="2"/>
<circle clip-path="url(#clip062)" style="fill:#009af9; stroke:none; fill-opacity:0" cx="1223.73" cy="197.842" r="2"/>
<circle clip-path="url(#clip062)" style="fill:#009af9; stroke:none; fill-opacity:0" cx="1244.59" cy="156.914" r="2"/>
<circle clip-path="url(#clip062)" style="fill:#009af9; stroke:none; fill-opacity:0" cx="1265.45" cy="98.3708" r="2"/>
<circle clip-path="url(#clip062)" style="fill:#009af9; stroke:none; fill-opacity:0" cx="1286.31" cy="129.714" r="2"/>
<circle clip-path="url(#clip062)" style="fill:#009af9; stroke:none; fill-opacity:0" cx="1307.17" cy="90.0816" r="2"/>
<circle clip-path="url(#clip062)" style="fill:#009af9; stroke:none; fill-opacity:0" cx="1328.03" cy="93.19" r="2"/>
<circle clip-path="url(#clip062)" style="fill:#009af9; stroke:none; fill-opacity:0" cx="1348.89" cy="87.4912" r="2"/>
<circle clip-path="url(#clip062)" style="fill:#009af9; stroke:none; fill-opacity:0" cx="1369.75" cy="107.696" r="2"/>
<circle clip-path="url(#clip062)" style="fill:#009af9; stroke:none; fill-opacity:0" cx="1390.61" cy="177.896" r="2"/>
<circle clip-path="url(#clip062)" style="fill:#009af9; stroke:none; fill-opacity:0" cx="1411.47" cy="220.119" r="2"/>
<circle clip-path="url(#clip062)" style="fill:#009af9; stroke:none; fill-opacity:0" cx="1432.33" cy="275.035" r="2"/>
<circle clip-path="url(#clip062)" style="fill:#009af9; stroke:none; fill-opacity:0" cx="1453.19" cy="330.987" r="2"/>
<circle clip-path="url(#clip062)" style="fill:#009af9; stroke:none; fill-opacity:0" cx="1474.05" cy="417.765" r="2"/>
<circle clip-path="url(#clip062)" style="fill:#009af9; stroke:none; fill-opacity:0" cx="1494.91" cy="473.977" r="2"/>
<circle clip-path="url(#clip062)" style="fill:#009af9; stroke:none; fill-opacity:0" cx="1515.77" cy="551.688" r="2"/>
<circle clip-path="url(#clip062)" style="fill:#009af9; stroke:none; fill-opacity:0" cx="1536.63" cy="635.358" r="2"/>
<circle clip-path="url(#clip062)" style="fill:#009af9; stroke:none; fill-opacity:0" cx="1557.49" cy="738.714" r="2"/>
<circle clip-path="url(#clip062)" style="fill:#009af9; stroke:none; fill-opacity:0" cx="1578.35" cy="797.257" r="2"/>
<circle clip-path="url(#clip062)" style="fill:#009af9; stroke:none; fill-opacity:0" cx="1599.21" cy="879.113" r="2"/>
<circle clip-path="url(#clip062)" style="fill:#009af9; stroke:none; fill-opacity:0" cx="1620.07" cy="919.264" r="2"/>
<circle clip-path="url(#clip062)" style="fill:#009af9; stroke:none; fill-opacity:0" cx="1640.93" cy="995.68" r="2"/>
<circle clip-path="url(#clip062)" style="fill:#009af9; stroke:none; fill-opacity:0" cx="1661.79" cy="1059.66" r="2"/>
<circle clip-path="url(#clip062)" style="fill:#009af9; stroke:none; fill-opacity:0" cx="1682.65" cy="1092.82" r="2"/>
<circle clip-path="url(#clip062)" style="fill:#009af9; stroke:none; fill-opacity:0" cx="1703.51" cy="1150.84" r="2"/>
<circle clip-path="url(#clip062)" style="fill:#009af9; stroke:none; fill-opacity:0" cx="1724.37" cy="1177.01" r="2"/>
<circle clip-path="url(#clip062)" style="fill:#009af9; stroke:none; fill-opacity:0" cx="1745.23" cy="1234.51" r="2"/>
<circle clip-path="url(#clip062)" style="fill:#009af9; stroke:none; fill-opacity:0" cx="1766.09" cy="1250.83" r="2"/>
<circle clip-path="url(#clip062)" style="fill:#009af9; stroke:none; fill-opacity:0" cx="1786.95" cy="1272.59" r="2"/>
<circle clip-path="url(#clip062)" style="fill:#009af9; stroke:none; fill-opacity:0" cx="1807.81" cy="1306.53" r="2"/>
<circle clip-path="url(#clip062)" style="fill:#009af9; stroke:none; fill-opacity:0" cx="1828.67" cy="1317.41" r="2"/>
<circle clip-path="url(#clip062)" style="fill:#009af9; stroke:none; fill-opacity:0" cx="1849.53" cy="1331.39" r="2"/>
<circle clip-path="url(#clip062)" style="fill:#009af9; stroke:none; fill-opacity:0" cx="1870.39" cy="1348.75" r="2"/>
<circle clip-path="url(#clip062)" style="fill:#009af9; stroke:none; fill-opacity:0" cx="1891.25" cy="1357.04" r="2"/>
<circle clip-path="url(#clip062)" style="fill:#009af9; stroke:none; fill-opacity:0" cx="1912.11" cy="1357.82" r="2"/>
<circle clip-path="url(#clip062)" style="fill:#009af9; stroke:none; fill-opacity:0" cx="1932.97" cy="1369.21" r="2"/>
<circle clip-path="url(#clip062)" style="fill:#009af9; stroke:none; fill-opacity:0" cx="1953.83" cy="1371.8" r="2"/>
<circle clip-path="url(#clip062)" style="fill:#009af9; stroke:none; fill-opacity:0" cx="1974.69" cy="1375.17" r="2"/>
<circle clip-path="url(#clip062)" style="fill:#009af9; stroke:none; fill-opacity:0" cx="1995.55" cy="1378.02" r="2"/>
<circle clip-path="url(#clip062)" style="fill:#009af9; stroke:none; fill-opacity:0" cx="2016.41" cy="1381.39" r="2"/>
<circle clip-path="url(#clip062)" style="fill:#009af9; stroke:none; fill-opacity:0" cx="2037.27" cy="1380.35" r="2"/>
<circle clip-path="url(#clip062)" style="fill:#009af9; stroke:none; fill-opacity:0" cx="2058.13" cy="1381.91" r="2"/>
<circle clip-path="url(#clip062)" style="fill:#009af9; stroke:none; fill-opacity:0" cx="2078.99" cy="1382.94" r="2"/>
<circle clip-path="url(#clip062)" style="fill:#009af9; stroke:none; fill-opacity:0" cx="2099.85" cy="1383.2" r="2"/>
<circle clip-path="url(#clip062)" style="fill:#009af9; stroke:none; fill-opacity:0" cx="2120.71" cy="1382.94" r="2"/>
<circle clip-path="url(#clip062)" style="fill:#009af9; stroke:none; fill-opacity:0" cx="2141.57" cy="1383.98" r="2"/>
<circle clip-path="url(#clip062)" style="fill:#009af9; stroke:none; fill-opacity:0" cx="2162.43" cy="1384.24" r="2"/>
<circle clip-path="url(#clip062)" style="fill:#009af9; stroke:none; fill-opacity:0" cx="2183.29" cy="1384.24" r="2"/>
<circle clip-path="url(#clip062)" style="fill:#009af9; stroke:none; fill-opacity:0" cx="2204.15" cy="1384.24" r="2"/>
<circle clip-path="url(#clip062)" style="fill:#009af9; stroke:none; fill-opacity:0" cx="2225.01" cy="1383.72" r="2"/>
<polyline clip-path="url(#clip062)" style="stroke:#000000; stroke-linecap:butt; stroke-linejoin:round; stroke-width:16; stroke-opacity:1; fill:none" points="
  353.251,1384.21 372.203,1384.19 391.154,1384.17 410.106,1384.14 429.058,1384.09 448.009,1384.02 466.961,1383.92 485.912,1383.78 504.864,1383.58 523.815,1383.31 
  542.767,1382.93 561.718,1382.41 580.67,1381.71 599.622,1380.76 618.573,1379.51 637.525,1377.85 656.476,1375.68 675.428,1372.88 694.379,1369.27 713.331,1364.69 
  732.283,1358.91 751.234,1351.69 770.186,1342.75 789.137,1331.8 808.089,1318.5 827.04,1302.5 845.992,1283.45 864.943,1260.98 883.895,1234.74 902.847,1204.4 
  921.798,1169.68 940.75,1130.37 959.701,1086.32 978.653,1037.5 997.604,983.996 1016.56,926.036 1035.51,863.995 1054.46,798.409 1073.41,729.977 1092.36,659.557 
  1111.31,588.156 1130.27,516.909 1149.22,447.053 1168.17,379.894 1187.12,316.77 1206.07,259.004 1225.02,207.863 1243.97,164.506 1262.93,129.947 1281.88,105.011 
  1300.83,90.3038 1319.78,86.1857 1338.73,92.7583 1357.68,109.86 1376.64,137.071 1395.59,173.735 1414.54,218.978 1433.49,271.75 1452.44,330.863 1471.39,395.034 
  1490.34,462.931 1509.3,533.222 1528.25,604.611 1547.2,675.882 1566.15,745.928 1585.1,813.776 1604.05,878.603 1623.01,939.747 1641.96,996.709 1660.91,1049.15 
  1679.86,1096.87 1698.81,1139.83 1717.76,1178.07 1736.72,1211.76 1755.67,1241.13 1774.62,1266.47 1793.57,1288.12 1812.52,1306.44 1831.47,1321.78 1850.42,1334.51 
  1869.38,1344.97 1888.33,1353.49 1907.28,1360.35 1926.23,1365.84 1945.18,1370.18 1964.13,1373.59 1983.09,1376.23 2002.04,1378.27 2020.99,1379.83 2039.94,1381.01 
  2058.89,1381.89 2077.84,1382.54 2096.79,1383.03 2115.75,1383.38 2134.7,1383.63 2153.65,1383.82 2172.6,1383.95 2191.55,1384.04 2210.5,1384.1 2229.46,1384.15 
  
  "/>
<path clip-path="url(#clip060)" d="
M1652.47 248.629 L2281.66 248.629 L2281.66 93.1086 L1652.47 93.1086  Z
  " fill="#ffffff" fill-rule="evenodd" fill-opacity="1"/>
<polyline clip-path="url(#clip060)" style="stroke:#000000; stroke-linecap:butt; stroke-linejoin:round; stroke-width:4; stroke-opacity:1; fill:none" points="
  1652.47,248.629 2281.66,248.629 2281.66,93.1086 1652.47,93.1086 1652.47,248.629 
  "/>
<path clip-path="url(#clip060)" d="
M1676.17 165.685 L1818.37 165.685 L1818.37 124.213 L1676.17 124.213 L1676.17 165.685  Z
  " fill="#009af9" fill-rule="evenodd" fill-opacity="0.5"/>
<polyline clip-path="url(#clip060)" style="stroke:#000000; stroke-linecap:butt; stroke-linejoin:round; stroke-width:4; stroke-opacity:1; fill:none" points="
  1676.17,165.685 1818.37,165.685 1818.37,124.213 1676.17,124.213 1676.17,165.685 
  "/>
<path clip-path="url(#clip060)" d="M1864.31 128.803 L1864.31 133.363 Q1861.65 132.09 1859.29 131.465 Q1856.93 130.84 1854.73 130.84 Q1850.91 130.84 1848.82 132.321 Q1846.76 133.803 1846.76 136.534 Q1846.76 138.826 1848.13 140.007 Q1849.52 141.164 1853.36 141.882 L1856.19 142.46 Q1861.42 143.456 1863.89 145.979 Q1866.39 148.479 1866.39 152.692 Q1866.39 157.715 1863.01 160.307 Q1859.66 162.9 1853.15 162.9 Q1850.7 162.9 1847.92 162.344 Q1845.17 161.789 1842.2 160.701 L1842.2 155.886 Q1845.05 157.483 1847.78 158.293 Q1850.51 159.104 1853.15 159.104 Q1857.16 159.104 1859.33 157.53 Q1861.51 155.956 1861.51 153.039 Q1861.51 150.493 1859.94 149.057 Q1858.38 147.622 1854.82 146.905 L1851.97 146.349 Q1846.74 145.307 1844.4 143.085 Q1842.07 140.863 1842.07 136.905 Q1842.07 132.321 1845.28 129.682 Q1848.52 127.044 1854.19 127.044 Q1856.63 127.044 1859.15 127.483 Q1861.67 127.923 1864.31 128.803 Z" fill="#000000" fill-rule="evenodd" fill-opacity="1" /><path clip-path="url(#clip060)" d="M1885.28 149.196 Q1880.12 149.196 1878.13 150.377 Q1876.14 151.557 1876.14 154.405 Q1876.14 156.673 1877.62 158.016 Q1879.13 159.335 1881.69 159.335 Q1885.24 159.335 1887.37 156.835 Q1889.52 154.312 1889.52 150.145 L1889.52 149.196 L1885.28 149.196 M1893.78 147.437 L1893.78 162.229 L1889.52 162.229 L1889.52 158.293 Q1888.06 160.655 1885.88 161.789 Q1883.71 162.9 1880.56 162.9 Q1876.58 162.9 1874.22 160.678 Q1871.88 158.432 1871.88 154.682 Q1871.88 150.307 1874.8 148.085 Q1877.74 145.863 1883.55 145.863 L1889.52 145.863 L1889.52 145.446 Q1889.52 142.507 1887.57 140.909 Q1885.65 139.289 1882.16 139.289 Q1879.94 139.289 1877.83 139.821 Q1875.72 140.354 1873.78 141.419 L1873.78 137.483 Q1876.12 136.581 1878.31 136.141 Q1880.51 135.678 1882.6 135.678 Q1888.22 135.678 1891 138.594 Q1893.78 141.511 1893.78 147.437 Z" fill="#000000" fill-rule="evenodd" fill-opacity="1" /><path clip-path="url(#clip060)" d="M1922.74 141.28 Q1924.33 138.409 1926.56 137.044 Q1928.78 135.678 1931.79 135.678 Q1935.84 135.678 1938.04 138.525 Q1940.24 141.349 1940.24 146.581 L1940.24 162.229 L1935.95 162.229 L1935.95 146.719 Q1935.95 142.993 1934.63 141.187 Q1933.31 139.382 1930.61 139.382 Q1927.3 139.382 1925.37 141.581 Q1923.45 143.78 1923.45 147.576 L1923.45 162.229 L1919.17 162.229 L1919.17 146.719 Q1919.17 142.969 1917.85 141.187 Q1916.53 139.382 1913.78 139.382 Q1910.51 139.382 1908.59 141.604 Q1906.67 143.803 1906.67 147.576 L1906.67 162.229 L1902.39 162.229 L1902.39 136.303 L1906.67 136.303 L1906.67 140.331 Q1908.13 137.946 1910.17 136.812 Q1912.2 135.678 1915 135.678 Q1917.83 135.678 1919.8 137.113 Q1921.79 138.548 1922.74 141.28 Z" fill="#000000" fill-rule="evenodd" fill-opacity="1" /><path clip-path="url(#clip060)" d="M1952.85 158.34 L1952.85 172.09 L1948.57 172.09 L1948.57 136.303 L1952.85 136.303 L1952.85 140.238 Q1954.19 137.923 1956.23 136.812 Q1958.29 135.678 1961.14 135.678 Q1965.86 135.678 1968.8 139.428 Q1971.76 143.178 1971.76 149.289 Q1971.76 155.4 1968.8 159.15 Q1965.86 162.9 1961.14 162.9 Q1958.29 162.9 1956.23 161.789 Q1954.19 160.655 1952.85 158.34 M1967.34 149.289 Q1967.34 144.59 1965.4 141.928 Q1963.48 139.243 1960.1 139.243 Q1956.72 139.243 1954.77 141.928 Q1952.85 144.59 1952.85 149.289 Q1952.85 153.988 1954.77 156.673 Q1956.72 159.335 1960.1 159.335 Q1963.48 159.335 1965.4 156.673 Q1967.34 153.988 1967.34 149.289 Z" fill="#000000" fill-rule="evenodd" fill-opacity="1" /><path clip-path="url(#clip060)" d="M1978.82 126.21 L1983.08 126.21 L1983.08 162.229 L1978.82 162.229 L1978.82 126.21 Z" fill="#000000" fill-rule="evenodd" fill-opacity="1" /><path clip-path="url(#clip060)" d="M2014.17 148.201 L2014.17 150.284 L1994.59 150.284 Q1994.87 154.682 1997.23 156.997 Q1999.61 159.289 2003.85 159.289 Q2006.3 159.289 2008.59 158.687 Q2010.91 158.085 2013.18 156.881 L2013.18 160.909 Q2010.88 161.881 2008.48 162.391 Q2006.07 162.9 2003.59 162.9 Q1997.39 162.9 1993.75 159.289 Q1990.14 155.678 1990.14 149.52 Q1990.14 143.155 1993.57 139.428 Q1997.02 135.678 2002.85 135.678 Q2008.08 135.678 2011.12 139.057 Q2014.17 142.414 2014.17 148.201 M2009.91 146.951 Q2009.87 143.456 2007.94 141.372 Q2006.05 139.289 2002.9 139.289 Q1999.33 139.289 1997.18 141.303 Q1995.05 143.317 1994.73 146.974 L2009.91 146.951 Z" fill="#000000" fill-rule="evenodd" fill-opacity="1" /><path clip-path="url(#clip060)" d="M2038.22 140.238 L2038.22 126.21 L2042.48 126.21 L2042.48 162.229 L2038.22 162.229 L2038.22 158.34 Q2036.88 160.655 2034.82 161.789 Q2032.78 162.9 2029.91 162.9 Q2025.21 162.9 2022.25 159.15 Q2019.31 155.4 2019.31 149.289 Q2019.31 143.178 2022.25 139.428 Q2025.21 135.678 2029.91 135.678 Q2032.78 135.678 2034.82 136.812 Q2036.88 137.923 2038.22 140.238 M2023.71 149.289 Q2023.71 153.988 2025.63 156.673 Q2027.57 159.335 2030.95 159.335 Q2034.33 159.335 2036.28 156.673 Q2038.22 153.988 2038.22 149.289 Q2038.22 144.59 2036.28 141.928 Q2034.33 139.243 2030.95 139.243 Q2027.57 139.243 2025.63 141.928 Q2023.71 144.59 2023.71 149.289 Z" fill="#000000" fill-rule="evenodd" fill-opacity="1" /><path clip-path="url(#clip060)" d="M2083.38 140.238 L2083.38 126.21 L2087.64 126.21 L2087.64 162.229 L2083.38 162.229 L2083.38 158.34 Q2082.04 160.655 2079.98 161.789 Q2077.94 162.9 2075.07 162.9 Q2070.37 162.9 2067.41 159.15 Q2064.47 155.4 2064.47 149.289 Q2064.47 143.178 2067.41 139.428 Q2070.37 135.678 2075.07 135.678 Q2077.94 135.678 2079.98 136.812 Q2082.04 137.923 2083.38 140.238 M2068.87 149.289 Q2068.87 153.988 2070.79 156.673 Q2072.74 159.335 2076.11 159.335 Q2079.49 159.335 2081.44 156.673 Q2083.38 153.988 2083.38 149.289 Q2083.38 144.59 2081.44 141.928 Q2079.49 139.243 2076.11 139.243 Q2072.74 139.243 2070.79 141.928 Q2068.87 144.59 2068.87 149.289 Z" fill="#000000" fill-rule="evenodd" fill-opacity="1" /><path clip-path="url(#clip060)" d="M2118.59 148.201 L2118.59 150.284 L2099.01 150.284 Q2099.29 154.682 2101.65 156.997 Q2104.03 159.289 2108.27 159.289 Q2110.72 159.289 2113.01 158.687 Q2115.33 158.085 2117.6 156.881 L2117.6 160.909 Q2115.3 161.881 2112.9 162.391 Q2110.49 162.9 2108.01 162.9 Q2101.81 162.9 2098.17 159.289 Q2094.56 155.678 2094.56 149.52 Q2094.56 143.155 2097.99 139.428 Q2101.44 135.678 2107.27 135.678 Q2112.5 135.678 2115.54 139.057 Q2118.59 142.414 2118.59 148.201 M2114.33 146.951 Q2114.29 143.456 2112.36 141.372 Q2110.47 139.289 2107.32 139.289 Q2103.75 139.289 2101.6 141.303 Q2099.47 143.317 2099.15 146.974 L2114.33 146.951 Z" fill="#000000" fill-rule="evenodd" fill-opacity="1" /><path clip-path="url(#clip060)" d="M2147.13 146.581 L2147.13 162.229 L2142.87 162.229 L2142.87 146.719 Q2142.87 143.039 2141.44 141.21 Q2140 139.382 2137.13 139.382 Q2133.68 139.382 2131.69 141.581 Q2129.7 143.78 2129.7 147.576 L2129.7 162.229 L2125.42 162.229 L2125.42 136.303 L2129.7 136.303 L2129.7 140.331 Q2131.23 137.993 2133.29 136.835 Q2135.37 135.678 2138.08 135.678 Q2142.55 135.678 2144.84 138.456 Q2147.13 141.21 2147.13 146.581 Z" fill="#000000" fill-rule="evenodd" fill-opacity="1" /><path clip-path="url(#clip060)" d="M2172.16 137.067 L2172.16 141.094 Q2170.35 140.169 2168.41 139.706 Q2166.46 139.243 2164.38 139.243 Q2161.21 139.243 2159.61 140.215 Q2158.04 141.187 2158.04 143.131 Q2158.04 144.613 2159.17 145.469 Q2160.3 146.303 2163.73 147.067 L2165.19 147.391 Q2169.73 148.363 2171.62 150.145 Q2173.54 151.905 2173.54 155.076 Q2173.54 158.687 2170.67 160.793 Q2167.83 162.9 2162.83 162.9 Q2160.74 162.9 2158.48 162.483 Q2156.23 162.09 2153.73 161.28 L2153.73 156.881 Q2156.09 158.108 2158.38 158.733 Q2160.67 159.335 2162.92 159.335 Q2165.93 159.335 2167.55 158.317 Q2169.17 157.275 2169.17 155.4 Q2169.17 153.664 2167.99 152.738 Q2166.83 151.812 2162.87 150.956 L2161.39 150.608 Q2157.43 149.775 2155.67 148.062 Q2153.92 146.326 2153.92 143.317 Q2153.92 139.659 2156.51 137.669 Q2159.1 135.678 2163.87 135.678 Q2166.23 135.678 2168.31 136.025 Q2170.4 136.372 2172.16 137.067 Z" fill="#000000" fill-rule="evenodd" fill-opacity="1" /><path clip-path="url(#clip060)" d="M2180.33 136.303 L2184.59 136.303 L2184.59 162.229 L2180.33 162.229 L2180.33 136.303 M2180.33 126.21 L2184.59 126.21 L2184.59 131.604 L2180.33 131.604 L2180.33 126.21 Z" fill="#000000" fill-rule="evenodd" fill-opacity="1" /><path clip-path="url(#clip060)" d="M2197.71 128.942 L2197.71 136.303 L2206.48 136.303 L2206.48 139.613 L2197.71 139.613 L2197.71 153.687 Q2197.71 156.858 2198.57 157.761 Q2199.45 158.664 2202.11 158.664 L2206.48 158.664 L2206.48 162.229 L2202.11 162.229 Q2197.18 162.229 2195.3 160.4 Q2193.43 158.548 2193.43 153.687 L2193.43 139.613 L2190.3 139.613 L2190.3 136.303 L2193.43 136.303 L2193.43 128.942 L2197.71 128.942 Z" fill="#000000" fill-rule="evenodd" fill-opacity="1" /><path clip-path="url(#clip060)" d="M2222.87 164.636 Q2221.07 169.266 2219.35 170.678 Q2217.64 172.09 2214.77 172.09 L2211.37 172.09 L2211.37 168.525 L2213.87 168.525 Q2215.63 168.525 2216.6 167.692 Q2217.57 166.858 2218.75 163.756 L2219.52 161.812 L2209.03 136.303 L2213.54 136.303 L2221.65 156.581 L2229.75 136.303 L2234.26 136.303 L2222.87 164.636 Z" fill="#000000" fill-rule="evenodd" fill-opacity="1" /><polyline clip-path="url(#clip060)" style="stroke:#000000; stroke-linecap:butt; stroke-linejoin:round; stroke-width:4; stroke-opacity:1; fill:none" points="
  1676.17,196.789 1818.37,196.789 
  "/>
<path clip-path="url(#clip060)" d="M1842.07 179.509 L1871.3 179.509 L1871.3 183.444 L1859.03 183.444 L1859.03 214.069 L1854.33 214.069 L1854.33 183.444 L1842.07 183.444 L1842.07 179.509 Z" fill="#000000" fill-rule="evenodd" fill-opacity="1" /><path clip-path="url(#clip060)" d="M1883.69 192.124 Q1882.97 191.708 1882.11 191.522 Q1881.28 191.314 1880.26 191.314 Q1876.65 191.314 1874.7 193.675 Q1872.78 196.013 1872.78 200.411 L1872.78 214.069 L1868.5 214.069 L1868.5 188.143 L1872.78 188.143 L1872.78 192.171 Q1874.13 189.809 1876.28 188.675 Q1878.43 187.518 1881.51 187.518 Q1881.95 187.518 1882.48 187.587 Q1883.01 187.634 1883.66 187.749 L1883.69 192.124 Z" fill="#000000" fill-rule="evenodd" fill-opacity="1" /><path clip-path="url(#clip060)" d="M1887.71 203.837 L1887.71 188.143 L1891.97 188.143 L1891.97 203.675 Q1891.97 207.356 1893.41 209.208 Q1894.84 211.036 1897.71 211.036 Q1901.16 211.036 1903.15 208.837 Q1905.17 206.638 1905.17 202.842 L1905.17 188.143 L1909.43 188.143 L1909.43 214.069 L1905.17 214.069 L1905.17 210.087 Q1903.62 212.448 1901.56 213.606 Q1899.52 214.74 1896.81 214.74 Q1892.34 214.74 1890.03 211.962 Q1887.71 209.184 1887.71 203.837 M1898.43 187.518 L1898.43 187.518 Z" fill="#000000" fill-rule="evenodd" fill-opacity="1" /><path clip-path="url(#clip060)" d="M1940.37 200.041 L1940.37 202.124 L1920.79 202.124 Q1921.07 206.522 1923.43 208.837 Q1925.81 211.129 1930.05 211.129 Q1932.5 211.129 1934.8 210.527 Q1937.11 209.925 1939.38 208.721 L1939.38 212.749 Q1937.09 213.721 1934.68 214.231 Q1932.27 214.74 1929.8 214.74 Q1923.59 214.74 1919.96 211.129 Q1916.35 207.518 1916.35 201.36 Q1916.35 194.995 1919.77 191.268 Q1923.22 187.518 1929.06 187.518 Q1934.29 187.518 1937.32 190.897 Q1940.37 194.254 1940.37 200.041 M1936.12 198.791 Q1936.07 195.296 1934.15 193.212 Q1932.25 191.129 1929.1 191.129 Q1925.54 191.129 1923.38 193.143 Q1921.25 195.157 1920.93 198.814 L1936.12 198.791 Z" fill="#000000" fill-rule="evenodd" fill-opacity="1" /><path clip-path="url(#clip060)" d="M1979.49 192.078 L1979.49 178.05 L1983.75 178.05 L1983.75 214.069 L1979.49 214.069 L1979.49 210.18 Q1978.15 212.495 1976.09 213.629 Q1974.06 214.74 1971.18 214.74 Q1966.49 214.74 1963.52 210.99 Q1960.58 207.24 1960.58 201.129 Q1960.58 195.018 1963.52 191.268 Q1966.49 187.518 1971.18 187.518 Q1974.06 187.518 1976.09 188.652 Q1978.15 189.763 1979.49 192.078 M1964.98 201.129 Q1964.98 205.828 1966.9 208.513 Q1968.85 211.175 1972.23 211.175 Q1975.61 211.175 1977.55 208.513 Q1979.49 205.828 1979.49 201.129 Q1979.49 196.43 1977.55 193.768 Q1975.61 191.083 1972.23 191.083 Q1968.85 191.083 1966.9 193.768 Q1964.98 196.43 1964.98 201.129 Z" fill="#000000" fill-rule="evenodd" fill-opacity="1" /><path clip-path="url(#clip060)" d="M2014.7 200.041 L2014.7 202.124 L1995.12 202.124 Q1995.4 206.522 1997.76 208.837 Q2000.14 211.129 2004.38 211.129 Q2006.83 211.129 2009.12 210.527 Q2011.44 209.925 2013.71 208.721 L2013.71 212.749 Q2011.42 213.721 2009.01 214.231 Q2006.6 214.74 2004.12 214.74 Q1997.92 214.74 1994.29 211.129 Q1990.68 207.518 1990.68 201.36 Q1990.68 194.995 1994.1 191.268 Q1997.55 187.518 2003.38 187.518 Q2008.62 187.518 2011.65 190.897 Q2014.7 194.254 2014.7 200.041 M2010.44 198.791 Q2010.4 195.296 2008.48 193.212 Q2006.58 191.129 2003.43 191.129 Q1999.87 191.129 1997.71 193.143 Q1995.58 195.157 1995.26 198.814 L2010.44 198.791 Z" fill="#000000" fill-rule="evenodd" fill-opacity="1" /><path clip-path="url(#clip060)" d="M2043.24 198.421 L2043.24 214.069 L2038.99 214.069 L2038.99 198.559 Q2038.99 194.879 2037.55 193.05 Q2036.11 191.222 2033.24 191.222 Q2029.8 191.222 2027.8 193.421 Q2025.81 195.62 2025.81 199.416 L2025.81 214.069 L2021.53 214.069 L2021.53 188.143 L2025.81 188.143 L2025.81 192.171 Q2027.34 189.833 2029.4 188.675 Q2031.49 187.518 2034.19 187.518 Q2038.66 187.518 2040.95 190.296 Q2043.24 193.05 2043.24 198.421 Z" fill="#000000" fill-rule="evenodd" fill-opacity="1" /><path clip-path="url(#clip060)" d="M2068.27 188.907 L2068.27 192.934 Q2066.46 192.009 2064.52 191.546 Q2062.57 191.083 2060.49 191.083 Q2057.32 191.083 2055.72 192.055 Q2054.15 193.027 2054.15 194.971 Q2054.15 196.453 2055.28 197.309 Q2056.42 198.143 2059.84 198.907 L2061.3 199.231 Q2065.84 200.203 2067.74 201.985 Q2069.66 203.745 2069.66 206.916 Q2069.66 210.527 2066.79 212.633 Q2063.94 214.74 2058.94 214.74 Q2056.86 214.74 2054.59 214.323 Q2052.34 213.93 2049.84 213.12 L2049.84 208.721 Q2052.2 209.948 2054.49 210.573 Q2056.79 211.175 2059.03 211.175 Q2062.04 211.175 2063.66 210.157 Q2065.28 209.115 2065.28 207.24 Q2065.28 205.504 2064.1 204.578 Q2062.94 203.652 2058.99 202.796 L2057.5 202.448 Q2053.55 201.615 2051.79 199.902 Q2050.03 198.166 2050.03 195.157 Q2050.03 191.499 2052.62 189.509 Q2055.21 187.518 2059.98 187.518 Q2062.34 187.518 2064.42 187.865 Q2066.51 188.212 2068.27 188.907 Z" fill="#000000" fill-rule="evenodd" fill-opacity="1" /><path clip-path="url(#clip060)" d="M2076.44 188.143 L2080.7 188.143 L2080.7 214.069 L2076.44 214.069 L2076.44 188.143 M2076.44 178.05 L2080.7 178.05 L2080.7 183.444 L2076.44 183.444 L2076.44 178.05 Z" fill="#000000" fill-rule="evenodd" fill-opacity="1" /><path clip-path="url(#clip060)" d="M2093.82 180.782 L2093.82 188.143 L2102.6 188.143 L2102.6 191.453 L2093.82 191.453 L2093.82 205.527 Q2093.82 208.698 2094.68 209.601 Q2095.56 210.504 2098.22 210.504 L2102.6 210.504 L2102.6 214.069 L2098.22 214.069 Q2093.29 214.069 2091.42 212.24 Q2089.54 210.388 2089.54 205.527 L2089.54 191.453 L2086.42 191.453 L2086.42 188.143 L2089.54 188.143 L2089.54 180.782 L2093.82 180.782 Z" fill="#000000" fill-rule="evenodd" fill-opacity="1" /><path clip-path="url(#clip060)" d="M2118.98 216.476 Q2117.18 221.106 2115.47 222.518 Q2113.75 223.93 2110.88 223.93 L2107.48 223.93 L2107.48 220.365 L2109.98 220.365 Q2111.74 220.365 2112.71 219.532 Q2113.68 218.698 2114.86 215.596 L2115.63 213.652 L2105.14 188.143 L2109.66 188.143 L2117.76 208.421 L2125.86 188.143 L2130.37 188.143 L2118.98 216.476 Z" fill="#000000" fill-rule="evenodd" fill-opacity="1" /></svg>
