<?xml version="1.0" encoding="utf-8"?>
<svg xmlns="http://www.w3.org/2000/svg" xmlns:xlink="http://www.w3.org/1999/xlink" width="600" height="400" viewBox="0 0 2400 1600">
<defs>
  <clipPath id="clip790">
    <rect x="0" y="0" width="2400" height="1600"/>
  </clipPath>
</defs>
<path clip-path="url(#clip790)" d="
M0 1600 L2400 1600 L2400 0 L0 0  Z
  " fill="#ffffff" fill-rule="evenodd" fill-opacity="1"/>
<defs>
  <clipPath id="clip791">
    <rect x="480" y="0" width="1681" height="1600"/>
  </clipPath>
</defs>
<path clip-path="url(#clip790)" d="
M102.74 1505.26 L2352.76 1505.26 L2352.76 47.2441 L102.74 47.2441  Z
  " fill="#ffffff" fill-rule="evenodd" fill-opacity="1"/>
<defs>
  <clipPath id="clip792">
    <rect x="102" y="47" width="2251" height="1459"/>
  </clipPath>
</defs>
<polyline clip-path="url(#clip792)" style="stroke:#000000; stroke-width:2; stroke-opacity:0.1; fill:none" points="
  201.217,1505.26 201.217,47.2441 
  "/>
<polyline clip-path="url(#clip792)" style="stroke:#000000; stroke-width:2; stroke-opacity:0.1; fill:none" points="
  549.194,1505.26 549.194,47.2441 
  "/>
<polyline clip-path="url(#clip792)" style="stroke:#000000; stroke-width:2; stroke-opacity:0.1; fill:none" points="
  897.17,1505.26 897.17,47.2441 
  "/>
<polyline clip-path="url(#clip792)" style="stroke:#000000; stroke-width:2; stroke-opacity:0.1; fill:none" points="
  1245.15,1505.26 1245.15,47.2441 
  "/>
<polyline clip-path="url(#clip792)" style="stroke:#000000; stroke-width:2; stroke-opacity:0.1; fill:none" points="
  1593.12,1505.26 1593.12,47.2441 
  "/>
<polyline clip-path="url(#clip792)" style="stroke:#000000; stroke-width:2; stroke-opacity:0.1; fill:none" points="
  1941.1,1505.26 1941.1,47.2441 
  "/>
<polyline clip-path="url(#clip792)" style="stroke:#000000; stroke-width:2; stroke-opacity:0.1; fill:none" points="
  2289.08,1505.26 2289.08,47.2441 
  "/>
<polyline clip-path="url(#clip790)" style="stroke:#000000; stroke-width:4; stroke-opacity:1; fill:none" points="
  102.74,1505.26 2352.76,1505.26 
  "/>
<polyline clip-path="url(#clip790)" style="stroke:#000000; stroke-width:4; stroke-opacity:1; fill:none" points="
  201.217,1505.26 201.217,1487.76 
  "/>
<polyline clip-path="url(#clip790)" style="stroke:#000000; stroke-width:4; stroke-opacity:1; fill:none" points="
  549.194,1505.26 549.194,1487.76 
  "/>
<polyline clip-path="url(#clip790)" style="stroke:#000000; stroke-width:4; stroke-opacity:1; fill:none" points="
  897.17,1505.26 897.17,1487.76 
  "/>
<polyline clip-path="url(#clip790)" style="stroke:#000000; stroke-width:4; stroke-opacity:1; fill:none" points="
  1245.15,1505.26 1245.15,1487.76 
  "/>
<polyline clip-path="url(#clip790)" style="stroke:#000000; stroke-width:4; stroke-opacity:1; fill:none" points="
  1593.12,1505.26 1593.12,1487.76 
  "/>
<polyline clip-path="url(#clip790)" style="stroke:#000000; stroke-width:4; stroke-opacity:1; fill:none" points="
  1941.1,1505.26 1941.1,1487.76 
  "/>
<polyline clip-path="url(#clip790)" style="stroke:#000000; stroke-width:4; stroke-opacity:1; fill:none" points="
  2289.08,1505.26 2289.08,1487.76 
  "/>
<path clip-path="url(#clip790)" d="M 0 0 M191.599 1562 L199.238 1562 L199.238 1535.63 L190.928 1537.3 L190.928 1533.04 L199.192 1531.37 L203.868 1531.37 L203.868 1562 L211.507 1562 L211.507 1565.93 L191.599 1565.93 L191.599 1562 Z" fill="#000000" fill-rule="evenodd" fill-opacity="1" /><path clip-path="url(#clip790)" d="M 0 0 M543.847 1562 L560.166 1562 L560.166 1565.93 L538.222 1565.93 L538.222 1562 Q540.884 1559.24 545.467 1554.61 Q550.074 1549.96 551.254 1548.62 Q553.499 1546.09 554.379 1544.36 Q555.282 1542.6 555.282 1540.91 Q555.282 1538.15 553.337 1536.42 Q551.416 1534.68 548.314 1534.68 Q546.115 1534.68 543.662 1535.45 Q541.231 1536.21 538.453 1537.76 L538.453 1533.04 Q541.277 1531.9 543.731 1531.33 Q546.185 1530.75 548.222 1530.75 Q553.592 1530.75 556.786 1533.43 Q559.981 1536.12 559.981 1540.61 Q559.981 1542.74 559.171 1544.66 Q558.384 1546.56 556.277 1549.15 Q555.699 1549.82 552.597 1553.04 Q549.495 1556.23 543.847 1562 Z" fill="#000000" fill-rule="evenodd" fill-opacity="1" /><path clip-path="url(#clip790)" d="M 0 0 M901.418 1547.3 Q904.775 1548.02 906.65 1550.28 Q908.548 1552.55 908.548 1555.89 Q908.548 1561 905.029 1563.8 Q901.511 1566.6 895.029 1566.6 Q892.853 1566.6 890.538 1566.16 Q888.247 1565.75 885.793 1564.89 L885.793 1560.38 Q887.738 1561.51 890.052 1562.09 Q892.367 1562.67 894.89 1562.67 Q899.288 1562.67 901.58 1560.93 Q903.895 1559.2 903.895 1555.89 Q903.895 1552.83 901.742 1551.12 Q899.613 1549.38 895.793 1549.38 L891.765 1549.38 L891.765 1545.54 L895.978 1545.54 Q899.427 1545.54 901.256 1544.17 Q903.085 1542.78 903.085 1540.19 Q903.085 1537.53 901.187 1536.12 Q899.312 1534.68 895.793 1534.68 Q893.872 1534.68 891.673 1535.1 Q889.474 1535.52 886.835 1536.39 L886.835 1532.23 Q889.497 1531.49 891.812 1531.12 Q894.15 1530.75 896.21 1530.75 Q901.534 1530.75 904.636 1533.18 Q907.737 1535.58 907.737 1539.71 Q907.737 1542.58 906.094 1544.57 Q904.45 1546.53 901.418 1547.3 Z" fill="#000000" fill-rule="evenodd" fill-opacity="1" /><path clip-path="url(#clip790)" d="M 0 0 M1248.16 1535.45 L1236.35 1553.89 L1248.16 1553.89 L1248.16 1535.45 M1246.93 1531.37 L1252.81 1531.37 L1252.81 1553.89 L1257.74 1553.89 L1257.74 1557.78 L1252.81 1557.78 L1252.81 1565.93 L1248.16 1565.93 L1248.16 1557.78 L1232.55 1557.78 L1232.55 1553.27 L1246.93 1531.37 Z" fill="#000000" fill-rule="evenodd" fill-opacity="1" /><path clip-path="url(#clip790)" d="M 0 0 M1583.4 1531.37 L1601.76 1531.37 L1601.76 1535.31 L1587.68 1535.31 L1587.68 1543.78 Q1588.7 1543.43 1589.72 1543.27 Q1590.74 1543.08 1591.76 1543.08 Q1597.54 1543.08 1600.92 1546.26 Q1604.3 1549.43 1604.3 1554.84 Q1604.3 1560.42 1600.83 1563.52 Q1597.36 1566.6 1591.04 1566.6 Q1588.86 1566.6 1586.6 1566.23 Q1584.35 1565.86 1581.94 1565.12 L1581.94 1560.42 Q1584.03 1561.56 1586.25 1562.11 Q1588.47 1562.67 1590.95 1562.67 Q1594.95 1562.67 1597.29 1560.56 Q1599.63 1558.46 1599.63 1554.84 Q1599.63 1551.23 1597.29 1549.13 Q1594.95 1547.02 1590.95 1547.02 Q1589.07 1547.02 1587.2 1547.44 Q1585.35 1547.85 1583.4 1548.73 L1583.4 1531.37 Z" fill="#000000" fill-rule="evenodd" fill-opacity="1" /><path clip-path="url(#clip790)" d="M 0 0 M1941.5 1546.79 Q1938.36 1546.79 1936.5 1548.94 Q1934.68 1551.09 1934.68 1554.84 Q1934.68 1558.57 1936.5 1560.75 Q1938.36 1562.9 1941.5 1562.9 Q1944.65 1562.9 1946.48 1560.75 Q1948.33 1558.57 1948.33 1554.84 Q1948.33 1551.09 1946.48 1548.94 Q1944.65 1546.79 1941.5 1546.79 M1950.79 1532.14 L1950.79 1536.39 Q1949.03 1535.56 1947.22 1535.12 Q1945.44 1534.68 1943.68 1534.68 Q1939.05 1534.68 1936.6 1537.81 Q1934.17 1540.93 1933.82 1547.25 Q1935.19 1545.24 1937.25 1544.17 Q1939.31 1543.08 1941.78 1543.08 Q1946.99 1543.08 1950 1546.26 Q1953.03 1549.4 1953.03 1554.84 Q1953.03 1560.17 1949.88 1563.39 Q1946.74 1566.6 1941.5 1566.6 Q1935.51 1566.6 1932.34 1562.02 Q1929.17 1557.41 1929.17 1548.69 Q1929.17 1540.49 1933.06 1535.63 Q1936.94 1530.75 1943.5 1530.75 Q1945.25 1530.75 1947.04 1531.09 Q1948.84 1531.44 1950.79 1532.14 Z" fill="#000000" fill-rule="evenodd" fill-opacity="1" /><path clip-path="url(#clip790)" d="M 0 0 M2277.97 1531.37 L2300.19 1531.37 L2300.19 1533.36 L2287.64 1565.93 L2282.76 1565.93 L2294.56 1535.31 L2277.97 1535.31 L2277.97 1531.37 Z" fill="#000000" fill-rule="evenodd" fill-opacity="1" /><path clip-path="url(#clip790)" d="M 0 0 M1066.49 1595.89 L1066.49 1613.74 L1074.57 1613.74 Q1079.06 1613.74 1081.51 1611.42 Q1083.96 1609.1 1083.96 1604.8 Q1083.96 1600.53 1081.51 1598.21 Q1079.06 1595.89 1074.57 1595.89 L1066.49 1595.89 M1060.06 1590.6 L1074.57 1590.6 Q1082.56 1590.6 1086.64 1594.23 Q1090.74 1597.83 1090.74 1604.8 Q1090.74 1611.83 1086.64 1615.43 Q1082.56 1619.03 1074.57 1619.03 L1066.49 1619.03 L1066.49 1638.12 L1060.06 1638.12 L1060.06 1590.6 Z" fill="#000000" fill-rule="evenodd" fill-opacity="1" /><path clip-path="url(#clip790)" d="M 0 0 M1125.05 1618.84 L1125.05 1621.7 L1098.13 1621.7 Q1098.51 1627.75 1101.75 1630.93 Q1105.03 1634.08 1110.86 1634.08 Q1114.23 1634.08 1117.38 1633.25 Q1120.57 1632.43 1123.68 1630.77 L1123.68 1636.31 Q1120.53 1637.65 1117.22 1638.35 Q1113.91 1639.05 1110.51 1639.05 Q1101.98 1639.05 1096.98 1634.08 Q1092.02 1629.12 1092.02 1620.65 Q1092.02 1611.9 1096.73 1606.77 Q1101.47 1601.62 1109.49 1601.62 Q1116.68 1601.62 1120.85 1606.26 Q1125.05 1610.88 1125.05 1618.84 M1119.2 1617.12 Q1119.13 1612.31 1116.49 1609.45 Q1113.88 1606.58 1109.55 1606.58 Q1104.65 1606.58 1101.69 1609.35 Q1098.76 1612.12 1098.32 1617.15 L1119.2 1617.12 Z" fill="#000000" fill-rule="evenodd" fill-opacity="1" /><path clip-path="url(#clip790)" d="M 0 0 M1136.99 1592.35 L1136.99 1602.48 L1149.05 1602.48 L1149.05 1607.03 L1136.99 1607.03 L1136.99 1626.38 Q1136.99 1630.74 1138.17 1631.98 Q1139.38 1633.22 1143.04 1633.22 L1149.05 1633.22 L1149.05 1638.12 L1143.04 1638.12 Q1136.26 1638.12 1133.68 1635.61 Q1131.1 1633.06 1131.1 1626.38 L1131.1 1607.03 L1126.8 1607.03 L1126.8 1602.48 L1131.1 1602.48 L1131.1 1592.35 L1136.99 1592.35 Z" fill="#000000" fill-rule="evenodd" fill-opacity="1" /><path clip-path="url(#clip790)" d="M 0 0 M1171.4 1620.2 Q1164.3 1620.2 1161.56 1621.83 Q1158.82 1623.45 1158.82 1627.37 Q1158.82 1630.48 1160.86 1632.33 Q1162.93 1634.15 1166.46 1634.15 Q1171.33 1634.15 1174.26 1630.71 Q1177.22 1627.24 1177.22 1621.51 L1177.22 1620.2 L1171.4 1620.2 M1183.08 1617.79 L1183.08 1638.12 L1177.22 1638.12 L1177.22 1632.71 Q1175.22 1635.96 1172.22 1637.52 Q1169.23 1639.05 1164.9 1639.05 Q1159.43 1639.05 1156.18 1635.99 Q1152.97 1632.9 1152.97 1627.75 Q1152.97 1621.73 1156.98 1618.68 Q1161.02 1615.62 1169.01 1615.62 L1177.22 1615.62 L1177.22 1615.05 Q1177.22 1611.01 1174.55 1608.81 Q1171.9 1606.58 1167.1 1606.58 Q1164.04 1606.58 1161.15 1607.31 Q1158.25 1608.05 1155.58 1609.51 L1155.58 1604.1 Q1158.79 1602.86 1161.82 1602.25 Q1164.84 1601.62 1167.7 1601.62 Q1175.44 1601.62 1179.26 1605.63 Q1183.08 1609.64 1183.08 1617.79 Z" fill="#000000" fill-rule="evenodd" fill-opacity="1" /><path clip-path="url(#clip790)" d="M 0 0 M1189.22 1588.6 L1195.08 1588.6 L1195.08 1638.12 L1189.22 1638.12 L1189.22 1588.6 Z" fill="#000000" fill-rule="evenodd" fill-opacity="1" /><path clip-path="url(#clip790)" d="M 0 0 M1221.94 1588.6 L1227.8 1588.6 L1227.8 1638.12 L1221.94 1638.12 L1221.94 1588.6 Z" fill="#000000" fill-rule="evenodd" fill-opacity="1" /><path clip-path="url(#clip790)" d="M 0 0 M1264.43 1618.84 L1264.43 1621.7 L1237.5 1621.7 Q1237.89 1627.75 1241.13 1630.93 Q1244.41 1634.08 1250.23 1634.08 Q1253.61 1634.08 1256.76 1633.25 Q1259.94 1632.43 1263.06 1630.77 L1263.06 1636.31 Q1259.91 1637.65 1256.6 1638.35 Q1253.29 1639.05 1249.88 1639.05 Q1241.35 1639.05 1236.36 1634.08 Q1231.39 1629.12 1231.39 1620.65 Q1231.39 1611.9 1236.1 1606.77 Q1240.85 1601.62 1248.87 1601.62 Q1256.06 1601.62 1260.23 1606.26 Q1264.43 1610.88 1264.43 1618.84 M1258.57 1617.12 Q1258.51 1612.31 1255.87 1609.45 Q1253.26 1606.58 1248.93 1606.58 Q1244.03 1606.58 1241.07 1609.35 Q1238.14 1612.12 1237.69 1617.15 L1258.57 1617.12 Z" fill="#000000" fill-rule="evenodd" fill-opacity="1" /><path clip-path="url(#clip790)" d="M 0 0 M1300.21 1616.61 L1300.21 1638.12 L1294.35 1638.12 L1294.35 1616.8 Q1294.35 1611.74 1292.38 1609.22 Q1290.4 1606.71 1286.46 1606.71 Q1281.71 1606.71 1278.98 1609.73 Q1276.24 1612.76 1276.24 1617.98 L1276.24 1638.12 L1270.35 1638.12 L1270.35 1602.48 L1276.24 1602.48 L1276.24 1608.01 Q1278.34 1604.8 1281.17 1603.21 Q1284.04 1601.62 1287.76 1601.62 Q1293.9 1601.62 1297.05 1605.44 Q1300.21 1609.22 1300.21 1616.61 Z" fill="#000000" fill-rule="evenodd" fill-opacity="1" /><path clip-path="url(#clip790)" d="M 0 0 M1329.81 1619.89 Q1329.81 1613.52 1327.16 1610.02 Q1324.55 1606.52 1319.81 1606.52 Q1315.1 1606.52 1312.46 1610.02 Q1309.85 1613.52 1309.85 1619.89 Q1309.85 1626.22 1312.46 1629.72 Q1315.1 1633.22 1319.81 1633.22 Q1324.55 1633.22 1327.16 1629.72 Q1329.81 1626.22 1329.81 1619.89 M1335.66 1633.7 Q1335.66 1642.8 1331.62 1647.23 Q1327.58 1651.68 1319.24 1651.68 Q1316.15 1651.68 1313.41 1651.21 Q1310.68 1650.76 1308.1 1649.8 L1308.1 1644.11 Q1310.68 1645.51 1313.19 1646.18 Q1315.71 1646.84 1318.32 1646.84 Q1324.08 1646.84 1326.94 1643.82 Q1329.81 1640.83 1329.81 1634.75 L1329.81 1631.85 Q1327.99 1635 1325.16 1636.56 Q1322.33 1638.12 1318.38 1638.12 Q1311.82 1638.12 1307.81 1633.13 Q1303.8 1628.13 1303.8 1619.89 Q1303.8 1611.61 1307.81 1606.61 Q1311.82 1601.62 1318.38 1601.62 Q1322.33 1601.62 1325.16 1603.18 Q1327.99 1604.74 1329.81 1607.89 L1329.81 1602.48 L1335.66 1602.48 L1335.66 1633.7 Z" fill="#000000" fill-rule="evenodd" fill-opacity="1" /><path clip-path="url(#clip790)" d="M 0 0 M1347.6 1592.35 L1347.6 1602.48 L1359.66 1602.48 L1359.66 1607.03 L1347.6 1607.03 L1347.6 1626.38 Q1347.6 1630.74 1348.78 1631.98 Q1349.99 1633.22 1353.65 1633.22 L1359.66 1633.22 L1359.66 1638.12 L1353.65 1638.12 Q1346.87 1638.12 1344.29 1635.61 Q1341.71 1633.06 1341.71 1626.38 L1341.71 1607.03 L1337.41 1607.03 L1337.41 1602.48 L1341.71 1602.48 L1341.71 1592.35 L1347.6 1592.35 Z" fill="#000000" fill-rule="evenodd" fill-opacity="1" /><path clip-path="url(#clip790)" d="M 0 0 M1395.44 1616.61 L1395.44 1638.12 L1389.58 1638.12 L1389.58 1616.8 Q1389.58 1611.74 1387.61 1609.22 Q1385.63 1606.71 1381.69 1606.71 Q1376.94 1606.71 1374.21 1609.73 Q1371.47 1612.76 1371.47 1617.98 L1371.47 1638.12 L1365.58 1638.12 L1365.58 1588.6 L1371.47 1588.6 L1371.47 1608.01 Q1373.57 1604.8 1376.4 1603.21 Q1379.27 1601.62 1382.99 1601.62 Q1389.13 1601.62 1392.29 1605.44 Q1395.44 1609.22 1395.44 1616.61 Z" fill="#000000" fill-rule="evenodd" fill-opacity="1" /><polyline clip-path="url(#clip792)" style="stroke:#000000; stroke-width:2; stroke-opacity:0.1; fill:none" points="
  102.74,1468.47 2352.76,1468.47 
  "/>
<polyline clip-path="url(#clip792)" style="stroke:#000000; stroke-width:2; stroke-opacity:0.1; fill:none" points="
  102.74,1197.72 2352.76,1197.72 
  "/>
<polyline clip-path="url(#clip792)" style="stroke:#000000; stroke-width:2; stroke-opacity:0.1; fill:none" points="
  102.74,926.973 2352.76,926.973 
  "/>
<polyline clip-path="url(#clip792)" style="stroke:#000000; stroke-width:2; stroke-opacity:0.1; fill:none" points="
  102.74,656.225 2352.76,656.225 
  "/>
<polyline clip-path="url(#clip792)" style="stroke:#000000; stroke-width:2; stroke-opacity:0.1; fill:none" points="
  102.74,385.476 2352.76,385.476 
  "/>
<polyline clip-path="url(#clip792)" style="stroke:#000000; stroke-width:2; stroke-opacity:0.1; fill:none" points="
  102.74,114.728 2352.76,114.728 
  "/>
<polyline clip-path="url(#clip790)" style="stroke:#000000; stroke-width:4; stroke-opacity:1; fill:none" points="
  102.74,1505.26 102.74,47.2441 
  "/>
<polyline clip-path="url(#clip790)" style="stroke:#000000; stroke-width:4; stroke-opacity:1; fill:none" points="
  102.74,1468.47 129.74,1468.47 
  "/>
<polyline clip-path="url(#clip790)" style="stroke:#000000; stroke-width:4; stroke-opacity:1; fill:none" points="
  102.74,1197.72 129.74,1197.72 
  "/>
<polyline clip-path="url(#clip790)" style="stroke:#000000; stroke-width:4; stroke-opacity:1; fill:none" points="
  102.74,926.973 129.74,926.973 
  "/>
<polyline clip-path="url(#clip790)" style="stroke:#000000; stroke-width:4; stroke-opacity:1; fill:none" points="
  102.74,656.225 129.74,656.225 
  "/>
<polyline clip-path="url(#clip790)" style="stroke:#000000; stroke-width:4; stroke-opacity:1; fill:none" points="
  102.74,385.476 129.74,385.476 
  "/>
<polyline clip-path="url(#clip790)" style="stroke:#000000; stroke-width:4; stroke-opacity:1; fill:none" points="
  102.74,114.728 129.74,114.728 
  "/>
<path clip-path="url(#clip790)" d="M 0 0 M17.8284 1454.27 Q14.2173 1454.27 12.3886 1457.83 Q10.5831 1461.37 10.5831 1468.5 Q10.5831 1475.61 12.3886 1479.18 Q14.2173 1482.72 17.8284 1482.72 Q21.4626 1482.72 23.2682 1479.18 Q25.0969 1475.61 25.0969 1468.5 Q25.0969 1461.37 23.2682 1457.83 Q21.4626 1454.27 17.8284 1454.27 M17.8284 1450.56 Q23.6385 1450.56 26.6941 1455.17 Q29.7728 1459.75 29.7728 1468.5 Q29.7728 1477.23 26.6941 1481.84 Q23.6385 1486.42 17.8284 1486.42 Q12.0182 1486.42 8.93954 1481.84 Q5.884 1477.23 5.884 1468.5 Q5.884 1459.75 8.93954 1455.17 Q12.0182 1450.56 17.8284 1450.56 Z" fill="#000000" fill-rule="evenodd" fill-opacity="1" /><path clip-path="url(#clip790)" d="M 0 0 M34.8422 1479.87 L39.7264 1479.87 L39.7264 1485.75 L34.8422 1485.75 L34.8422 1479.87 Z" fill="#000000" fill-rule="evenodd" fill-opacity="1" /><path clip-path="url(#clip790)" d="M 0 0 M54.7958 1454.27 Q51.1847 1454.27 49.356 1457.83 Q47.5504 1461.37 47.5504 1468.5 Q47.5504 1475.61 49.356 1479.18 Q51.1847 1482.72 54.7958 1482.72 Q58.43 1482.72 60.2356 1479.18 Q62.0643 1475.61 62.0643 1468.5 Q62.0643 1461.37 60.2356 1457.83 Q58.43 1454.27 54.7958 1454.27 M54.7958 1450.56 Q60.6059 1450.56 63.6615 1455.17 Q66.7402 1459.75 66.7402 1468.5 Q66.7402 1477.23 63.6615 1481.84 Q60.6059 1486.42 54.7958 1486.42 Q48.9856 1486.42 45.9069 1481.84 Q42.8514 1477.23 42.8514 1468.5 Q42.8514 1459.75 45.9069 1455.17 Q48.9856 1450.56 54.7958 1450.56 Z" fill="#000000" fill-rule="evenodd" fill-opacity="1" /><path clip-path="url(#clip790)" d="M 0 0 M18.8237 1183.52 Q15.2127 1183.52 13.384 1187.08 Q11.5784 1190.63 11.5784 1197.76 Q11.5784 1204.86 13.384 1208.43 Q15.2127 1211.97 18.8237 1211.97 Q22.458 1211.97 24.2635 1208.43 Q26.0922 1204.86 26.0922 1197.76 Q26.0922 1190.63 24.2635 1187.08 Q22.458 1183.52 18.8237 1183.52 M18.8237 1179.82 Q24.6339 1179.82 27.6894 1184.42 Q30.7681 1189.01 30.7681 1197.76 Q30.7681 1206.48 27.6894 1211.09 Q24.6339 1215.67 18.8237 1215.67 Q13.0136 1215.67 9.93491 1211.09 Q6.87937 1206.48 6.87937 1197.76 Q6.87937 1189.01 9.93491 1184.42 Q13.0136 1179.82 18.8237 1179.82 Z" fill="#000000" fill-rule="evenodd" fill-opacity="1" /><path clip-path="url(#clip790)" d="M 0 0 M35.8375 1209.12 L40.7218 1209.12 L40.7218 1215 L35.8375 1215 L35.8375 1209.12 Z" fill="#000000" fill-rule="evenodd" fill-opacity="1" /><path clip-path="url(#clip790)" d="M 0 0 M45.8375 1180.44 L64.1939 1180.44 L64.1939 1184.38 L50.1199 1184.38 L50.1199 1192.85 Q51.1384 1192.5 52.1569 1192.34 Q53.1754 1192.15 54.1939 1192.15 Q59.9809 1192.15 63.3605 1195.33 Q66.7402 1198.5 66.7402 1203.91 Q66.7402 1209.49 63.268 1212.59 Q59.7958 1215.67 53.4763 1215.67 Q51.3004 1215.67 49.0319 1215.3 Q46.7866 1214.93 44.3792 1214.19 L44.3792 1209.49 Q46.4625 1210.63 48.6847 1211.18 Q50.9069 1211.74 53.3837 1211.74 Q57.3884 1211.74 59.7263 1209.63 Q62.0643 1207.52 62.0643 1203.91 Q62.0643 1200.3 59.7263 1198.2 Q57.3884 1196.09 53.3837 1196.09 Q51.5088 1196.09 49.6338 1196.51 Q47.7819 1196.92 45.8375 1197.8 L45.8375 1180.44 Z" fill="#000000" fill-rule="evenodd" fill-opacity="1" /><path clip-path="url(#clip790)" d="M 0 0 M9.86546 940.318 L17.5043 940.318 L17.5043 913.952 L9.19417 915.619 L9.19417 911.36 L17.458 909.693 L22.1339 909.693 L22.1339 940.318 L29.7728 940.318 L29.7728 944.253 L9.86546 944.253 L9.86546 940.318 Z" fill="#000000" fill-rule="evenodd" fill-opacity="1" /><path clip-path="url(#clip790)" d="M 0 0 M34.8422 938.373 L39.7264 938.373 L39.7264 944.253 L34.8422 944.253 L34.8422 938.373 Z" fill="#000000" fill-rule="evenodd" fill-opacity="1" /><path clip-path="url(#clip790)" d="M 0 0 M54.7958 912.772 Q51.1847 912.772 49.356 916.336 Q47.5504 919.878 47.5504 927.008 Q47.5504 934.114 49.356 937.679 Q51.1847 941.221 54.7958 941.221 Q58.43 941.221 60.2356 937.679 Q62.0643 934.114 62.0643 927.008 Q62.0643 919.878 60.2356 916.336 Q58.43 912.772 54.7958 912.772 M54.7958 909.068 Q60.6059 909.068 63.6615 913.674 Q66.7402 918.258 66.7402 927.008 Q66.7402 935.735 63.6615 940.341 Q60.6059 944.924 54.7958 944.924 Q48.9856 944.924 45.9069 940.341 Q42.8514 935.735 42.8514 927.008 Q42.8514 918.258 45.9069 913.674 Q48.9856 909.068 54.7958 909.068 Z" fill="#000000" fill-rule="evenodd" fill-opacity="1" /><path clip-path="url(#clip790)" d="M 0 0 M10.8608 669.569 L18.4997 669.569 L18.4997 643.204 L10.1895 644.871 L10.1895 640.611 L18.4534 638.945 L23.1293 638.945 L23.1293 669.569 L30.7681 669.569 L30.7681 673.505 L10.8608 673.505 L10.8608 669.569 Z" fill="#000000" fill-rule="evenodd" fill-opacity="1" /><path clip-path="url(#clip790)" d="M 0 0 M35.8375 667.625 L40.7218 667.625 L40.7218 673.505 L35.8375 673.505 L35.8375 667.625 Z" fill="#000000" fill-rule="evenodd" fill-opacity="1" /><path clip-path="url(#clip790)" d="M 0 0 M45.8375 638.945 L64.1939 638.945 L64.1939 642.88 L50.1199 642.88 L50.1199 651.352 Q51.1384 651.005 52.1569 650.843 Q53.1754 650.658 54.1939 650.658 Q59.9809 650.658 63.3605 653.829 Q66.7402 657 66.7402 662.417 Q66.7402 667.995 63.268 671.097 Q59.7958 674.176 53.4763 674.176 Q51.3004 674.176 49.0319 673.806 Q46.7866 673.435 44.3792 672.694 L44.3792 667.995 Q46.4625 669.13 48.6847 669.685 Q50.9069 670.241 53.3837 670.241 Q57.3884 670.241 59.7263 668.134 Q62.0643 666.028 62.0643 662.417 Q62.0643 658.806 59.7263 656.699 Q57.3884 654.593 53.3837 654.593 Q51.5088 654.593 49.6338 655.009 Q47.7819 655.426 45.8375 656.306 L45.8375 638.945 Z" fill="#000000" fill-rule="evenodd" fill-opacity="1" /><path clip-path="url(#clip790)" d="M 0 0 M13.4534 398.821 L29.7728 398.821 L29.7728 402.756 L7.82844 402.756 L7.82844 398.821 Q10.4905 396.066 15.0738 391.437 Q19.6802 386.784 20.8608 385.442 Q23.1061 382.918 23.9858 381.182 Q24.8885 379.423 24.8885 377.733 Q24.8885 374.979 22.9441 373.243 Q21.0228 371.506 17.921 371.506 Q15.7219 371.506 13.2682 372.27 Q10.8377 373.034 8.05992 374.585 L8.05992 369.863 Q10.884 368.729 13.3377 368.15 Q15.7914 367.571 17.8284 367.571 Q23.1987 367.571 26.3932 370.256 Q29.5876 372.942 29.5876 377.432 Q29.5876 379.562 28.7774 381.483 Q27.9904 383.381 25.8839 385.974 Q25.3052 386.645 22.2034 389.863 Q19.1015 393.057 13.4534 398.821 Z" fill="#000000" fill-rule="evenodd" fill-opacity="1" /><path clip-path="url(#clip790)" d="M 0 0 M34.8422 396.877 L39.7264 396.877 L39.7264 402.756 L34.8422 402.756 L34.8422 396.877 Z" fill="#000000" fill-rule="evenodd" fill-opacity="1" /><path clip-path="url(#clip790)" d="M 0 0 M54.7958 371.275 Q51.1847 371.275 49.356 374.84 Q47.5504 378.381 47.5504 385.511 Q47.5504 392.617 49.356 396.182 Q51.1847 399.724 54.7958 399.724 Q58.43 399.724 60.2356 396.182 Q62.0643 392.617 62.0643 385.511 Q62.0643 378.381 60.2356 374.84 Q58.43 371.275 54.7958 371.275 M54.7958 367.571 Q60.6059 367.571 63.6615 372.178 Q66.7402 376.761 66.7402 385.511 Q66.7402 394.238 63.6615 398.844 Q60.6059 403.428 54.7958 403.428 Q48.9856 403.428 45.9069 398.844 Q42.8514 394.238 42.8514 385.511 Q42.8514 376.761 45.9069 372.178 Q48.9856 367.571 54.7958 367.571 Z" fill="#000000" fill-rule="evenodd" fill-opacity="1" /><path clip-path="url(#clip790)" d="M 0 0 M14.4488 128.073 L30.7681 128.073 L30.7681 132.008 L8.8238 132.008 L8.8238 128.073 Q11.4858 125.318 16.0691 120.689 Q20.6756 116.036 21.8561 114.693 Q24.1015 112.17 24.9811 110.434 Q25.8839 108.675 25.8839 106.985 Q25.8839 104.23 23.9395 102.494 Q22.0182 100.758 18.9163 100.758 Q16.7173 100.758 14.2636 101.522 Q11.833 102.286 9.05528 103.837 L9.05528 99.1146 Q11.8793 97.9803 14.333 97.4016 Q16.7867 96.8229 18.8237 96.8229 Q24.1941 96.8229 27.3885 99.5081 Q30.5829 102.193 30.5829 106.684 Q30.5829 108.814 29.7728 110.735 Q28.9857 112.633 26.8793 115.226 Q26.3006 115.897 23.1987 119.114 Q20.0969 122.309 14.4488 128.073 Z" fill="#000000" fill-rule="evenodd" fill-opacity="1" /><path clip-path="url(#clip790)" d="M 0 0 M35.8375 126.128 L40.7218 126.128 L40.7218 132.008 L35.8375 132.008 L35.8375 126.128 Z" fill="#000000" fill-rule="evenodd" fill-opacity="1" /><path clip-path="url(#clip790)" d="M 0 0 M45.8375 97.4479 L64.1939 97.4479 L64.1939 101.383 L50.1199 101.383 L50.1199 109.855 Q51.1384 109.508 52.1569 109.346 Q53.1754 109.161 54.1939 109.161 Q59.9809 109.161 63.3605 112.332 Q66.7402 115.503 66.7402 120.92 Q66.7402 126.499 63.268 129.601 Q59.7958 132.679 53.4763 132.679 Q51.3004 132.679 49.0319 132.309 Q46.7866 131.938 44.3792 131.198 L44.3792 126.499 Q46.4625 127.633 48.6847 128.188 Q50.9069 128.744 53.3837 128.744 Q57.3884 128.744 59.7263 126.638 Q62.0643 124.531 62.0643 120.92 Q62.0643 117.309 59.7263 115.202 Q57.3884 113.096 53.3837 113.096 Q51.5088 113.096 49.6338 113.513 Q47.7819 113.929 45.8375 114.809 L45.8375 97.4479 Z" fill="#000000" fill-rule="evenodd" fill-opacity="1" /><path clip-path="url(#clip790)" d="M 0 0 M-62.6085 926.594 L-44.7527 926.594 L-44.7527 918.51 Q-44.7527 914.022 -47.0761 911.571 Q-49.3996 909.12 -53.6965 909.12 Q-57.9615 909.12 -60.285 911.571 Q-62.6085 914.022 -62.6085 918.51 L-62.6085 926.594 M-67.892 933.023 L-67.892 918.51 Q-67.892 910.521 -64.2635 906.447 Q-60.6669 902.341 -53.6965 902.341 Q-46.6624 902.341 -43.0657 906.447 Q-39.4691 910.521 -39.4691 918.51 L-39.4691 926.594 L-20.372 926.594 L-20.372 933.023 L-67.892 933.023 Z" fill="#000000" fill-rule="evenodd" fill-opacity="1" /><path clip-path="url(#clip790)" d="M 0 0 M-39.6601 868.03 L-36.7955 868.03 L-36.7955 894.956 Q-30.7481 894.575 -27.5652 891.328 Q-24.4142 888.05 -24.4142 882.225 Q-24.4142 878.851 -25.2418 875.7 Q-26.0693 872.517 -27.7244 869.398 L-22.1862 869.398 Q-20.8494 872.549 -20.1492 875.859 Q-19.449 879.17 -19.449 882.575 Q-19.449 891.105 -24.4142 896.102 Q-29.3795 901.068 -37.8459 901.068 Q-46.5987 901.068 -51.7231 896.357 Q-56.8793 891.614 -56.8793 883.594 Q-56.8793 876.4 -52.2324 872.231 Q-47.6172 868.03 -39.6601 868.03 M-41.3788 873.886 Q-46.1849 873.95 -49.0495 876.591 Q-51.9141 879.201 -51.9141 883.53 Q-51.9141 888.432 -49.145 891.392 Q-46.3759 894.32 -41.347 894.766 L-41.3788 873.886 Z" fill="#000000" fill-rule="evenodd" fill-opacity="1" /><path clip-path="url(#clip790)" d="M 0 0 M-66.1414 856.094 L-56.02 856.094 L-56.02 844.031 L-51.4685 844.031 L-51.4685 856.094 L-32.1167 856.094 Q-27.7562 856.094 -26.5149 854.916 Q-25.2736 853.707 -25.2736 850.046 L-25.2736 844.031 L-20.372 844.031 L-20.372 850.046 Q-20.372 856.826 -22.8865 859.404 Q-25.4327 861.982 -32.1167 861.982 L-51.4685 861.982 L-51.4685 866.279 L-56.02 866.279 L-56.02 861.982 L-66.1414 861.982 L-66.1414 856.094 Z" fill="#000000" fill-rule="evenodd" fill-opacity="1" /><path clip-path="url(#clip790)" d="M 0 0 M-38.2915 821.687 Q-38.2915 828.785 -36.6682 831.522 Q-35.045 834.259 -31.13 834.259 Q-28.0108 834.259 -26.1648 832.222 Q-24.3506 830.154 -24.3506 826.621 Q-24.3506 821.751 -27.788 818.823 Q-31.2574 815.863 -36.9865 815.863 L-38.2915 815.863 L-38.2915 821.687 M-40.7104 810.006 L-20.372 810.006 L-20.372 815.863 L-25.7828 815.863 Q-22.5363 817.868 -20.9767 820.86 Q-19.449 823.852 -19.449 828.18 Q-19.449 833.655 -22.5045 836.901 Q-25.5919 840.116 -30.7481 840.116 Q-36.7637 840.116 -39.8192 836.106 Q-42.8748 832.063 -42.8748 824.074 L-42.8748 815.863 L-43.4477 815.863 Q-47.4899 815.863 -49.6861 818.536 Q-51.9141 821.178 -51.9141 825.984 Q-51.9141 829.04 -51.182 831.936 Q-50.45 834.832 -48.9858 837.506 L-54.3967 837.506 Q-55.638 834.291 -56.2428 831.268 Q-56.8793 828.244 -56.8793 825.379 Q-56.8793 817.645 -52.8689 813.826 Q-48.8585 810.006 -40.7104 810.006 Z" fill="#000000" fill-rule="evenodd" fill-opacity="1" /><path clip-path="url(#clip790)" d="M 0 0 M-69.8972 803.863 L-69.8972 798.007 L-20.372 798.007 L-20.372 803.863 L-69.8972 803.863 Z" fill="#000000" fill-rule="evenodd" fill-opacity="1" /><path clip-path="url(#clip790)" d="M 0 0 M-56.02 774.549 L-56.02 768.693 L-28.2018 761.372 L-56.02 754.083 L-56.02 747.177 L-28.2018 739.856 L-56.02 732.567 L-56.02 726.711 L-20.372 736.037 L-20.372 742.943 L-49.5906 750.614 L-20.372 758.317 L-20.372 765.223 L-56.02 774.549 Z" fill="#000000" fill-rule="evenodd" fill-opacity="1" /><path clip-path="url(#clip790)" d="M 0 0 M-56.02 720.568 L-56.02 714.711 L-20.372 714.711 L-20.372 720.568 L-56.02 720.568 M-69.8972 720.568 L-69.8972 714.711 L-62.4811 714.711 L-62.4811 720.568 L-69.8972 720.568 Z" fill="#000000" fill-rule="evenodd" fill-opacity="1" /><path clip-path="url(#clip790)" d="M 0 0 M-50.6091 685.111 L-69.8972 685.111 L-69.8972 679.255 L-20.372 679.255 L-20.372 685.111 L-25.7192 685.111 Q-22.5363 686.957 -20.9767 689.79 Q-19.449 692.591 -19.449 696.537 Q-19.449 702.999 -24.6052 707.073 Q-29.7614 711.115 -38.1641 711.115 Q-46.5669 711.115 -51.7231 707.073 Q-56.8793 702.999 -56.8793 696.537 Q-56.8793 692.591 -55.3197 689.79 Q-53.792 686.957 -50.6091 685.111 M-38.1641 705.067 Q-31.703 705.067 -28.0108 702.426 Q-24.3506 699.752 -24.3506 695.105 Q-24.3506 690.458 -28.0108 687.785 Q-31.703 685.111 -38.1641 685.111 Q-44.6253 685.111 -48.2856 687.785 Q-51.9777 690.458 -51.9777 695.105 Q-51.9777 699.752 -48.2856 702.426 Q-44.6253 705.067 -38.1641 705.067 Z" fill="#000000" fill-rule="evenodd" fill-opacity="1" /><path clip-path="url(#clip790)" d="M 0 0 M-66.1414 667.319 L-56.02 667.319 L-56.02 655.256 L-51.4685 655.256 L-51.4685 667.319 L-32.1167 667.319 Q-27.7562 667.319 -26.5149 666.141 Q-25.2736 664.932 -25.2736 661.271 L-25.2736 655.256 L-20.372 655.256 L-20.372 661.271 Q-20.372 668.051 -22.8865 670.629 Q-25.4327 673.207 -32.1167 673.207 L-51.4685 673.207 L-51.4685 677.504 L-56.02 677.504 L-56.02 673.207 L-66.1414 673.207 L-66.1414 667.319 Z" fill="#000000" fill-rule="evenodd" fill-opacity="1" /><path clip-path="url(#clip790)" d="M 0 0 M-41.8881 619.481 L-20.372 619.481 L-20.372 625.337 L-41.6971 625.337 Q-46.7579 625.337 -49.2723 627.31 Q-51.7868 629.284 -51.7868 633.23 Q-51.7868 637.973 -48.763 640.71 Q-45.7393 643.447 -40.5195 643.447 L-20.372 643.447 L-20.372 649.336 L-69.8972 649.336 L-69.8972 643.447 L-50.4818 643.447 Q-53.6965 641.347 -55.2879 638.514 Q-56.8793 635.649 -56.8793 631.925 Q-56.8793 625.783 -53.0599 622.632 Q-49.2723 619.481 -41.8881 619.481 Z" fill="#000000" fill-rule="evenodd" fill-opacity="1" /><circle clip-path="url(#clip792)" cx="340.408" cy="1360.17" r="14" fill="#009af9" fill-rule="evenodd" fill-opacity="1" stroke="#000000" stroke-opacity="1" stroke-width="3.2"/>
<circle clip-path="url(#clip792)" cx="340.408" cy="1360.17" r="14" fill="#009af9" fill-rule="evenodd" fill-opacity="1" stroke="#000000" stroke-opacity="1" stroke-width="3.2"/>
<circle clip-path="url(#clip792)" cx="305.61" cy="1360.17" r="14" fill="#009af9" fill-rule="evenodd" fill-opacity="1" stroke="#000000" stroke-opacity="1" stroke-width="3.2"/>
<circle clip-path="url(#clip792)" cx="375.206" cy="1360.17" r="14" fill="#009af9" fill-rule="evenodd" fill-opacity="1" stroke="#000000" stroke-opacity="1" stroke-width="3.2"/>
<circle clip-path="url(#clip792)" cx="340.408" cy="1360.17" r="14" fill="#009af9" fill-rule="evenodd" fill-opacity="1" stroke="#000000" stroke-opacity="1" stroke-width="3.2"/>
<circle clip-path="url(#clip792)" cx="444.801" cy="1251.87" r="14" fill="#009af9" fill-rule="evenodd" fill-opacity="1" stroke="#000000" stroke-opacity="1" stroke-width="3.2"/>
<circle clip-path="url(#clip792)" cx="340.408" cy="1306.02" r="14" fill="#009af9" fill-rule="evenodd" fill-opacity="1" stroke="#000000" stroke-opacity="1" stroke-width="3.2"/>
<circle clip-path="url(#clip792)" cx="375.206" cy="1360.17" r="14" fill="#009af9" fill-rule="evenodd" fill-opacity="1" stroke="#000000" stroke-opacity="1" stroke-width="3.2"/>
<circle clip-path="url(#clip792)" cx="340.408" cy="1360.17" r="14" fill="#009af9" fill-rule="evenodd" fill-opacity="1" stroke="#000000" stroke-opacity="1" stroke-width="3.2"/>
<circle clip-path="url(#clip792)" cx="375.206" cy="1414.32" r="14" fill="#009af9" fill-rule="evenodd" fill-opacity="1" stroke="#000000" stroke-opacity="1" stroke-width="3.2"/>
<circle clip-path="url(#clip792)" cx="375.206" cy="1360.17" r="14" fill="#009af9" fill-rule="evenodd" fill-opacity="1" stroke="#000000" stroke-opacity="1" stroke-width="3.2"/>
<circle clip-path="url(#clip792)" cx="410.003" cy="1360.17" r="14" fill="#009af9" fill-rule="evenodd" fill-opacity="1" stroke="#000000" stroke-opacity="1" stroke-width="3.2"/>
<circle clip-path="url(#clip792)" cx="340.408" cy="1414.32" r="14" fill="#009af9" fill-rule="evenodd" fill-opacity="1" stroke="#000000" stroke-opacity="1" stroke-width="3.2"/>
<circle clip-path="url(#clip792)" cx="236.015" cy="1414.32" r="14" fill="#009af9" fill-rule="evenodd" fill-opacity="1" stroke="#000000" stroke-opacity="1" stroke-width="3.2"/>
<circle clip-path="url(#clip792)" cx="270.813" cy="1360.17" r="14" fill="#009af9" fill-rule="evenodd" fill-opacity="1" stroke="#000000" stroke-opacity="1" stroke-width="3.2"/>
<circle clip-path="url(#clip792)" cx="375.206" cy="1251.87" r="14" fill="#009af9" fill-rule="evenodd" fill-opacity="1" stroke="#000000" stroke-opacity="1" stroke-width="3.2"/>
<circle clip-path="url(#clip792)" cx="305.61" cy="1251.87" r="14" fill="#009af9" fill-rule="evenodd" fill-opacity="1" stroke="#000000" stroke-opacity="1" stroke-width="3.2"/>
<circle clip-path="url(#clip792)" cx="340.408" cy="1306.02" r="14" fill="#009af9" fill-rule="evenodd" fill-opacity="1" stroke="#000000" stroke-opacity="1" stroke-width="3.2"/>
<circle clip-path="url(#clip792)" cx="444.801" cy="1306.02" r="14" fill="#009af9" fill-rule="evenodd" fill-opacity="1" stroke="#000000" stroke-opacity="1" stroke-width="3.2"/>
<circle clip-path="url(#clip792)" cx="375.206" cy="1306.02" r="14" fill="#009af9" fill-rule="evenodd" fill-opacity="1" stroke="#000000" stroke-opacity="1" stroke-width="3.2"/>
<circle clip-path="url(#clip792)" cx="444.801" cy="1360.17" r="14" fill="#009af9" fill-rule="evenodd" fill-opacity="1" stroke="#000000" stroke-opacity="1" stroke-width="3.2"/>
<circle clip-path="url(#clip792)" cx="375.206" cy="1251.87" r="14" fill="#009af9" fill-rule="evenodd" fill-opacity="1" stroke="#000000" stroke-opacity="1" stroke-width="3.2"/>
<circle clip-path="url(#clip792)" cx="201.217" cy="1360.17" r="14" fill="#009af9" fill-rule="evenodd" fill-opacity="1" stroke="#000000" stroke-opacity="1" stroke-width="3.2"/>
<circle clip-path="url(#clip792)" cx="444.801" cy="1197.72" r="14" fill="#009af9" fill-rule="evenodd" fill-opacity="1" stroke="#000000" stroke-opacity="1" stroke-width="3.2"/>
<circle clip-path="url(#clip792)" cx="514.396" cy="1360.17" r="14" fill="#009af9" fill-rule="evenodd" fill-opacity="1" stroke="#000000" stroke-opacity="1" stroke-width="3.2"/>
<circle clip-path="url(#clip792)" cx="410.003" cy="1360.17" r="14" fill="#009af9" fill-rule="evenodd" fill-opacity="1" stroke="#000000" stroke-opacity="1" stroke-width="3.2"/>
<circle clip-path="url(#clip792)" cx="410.003" cy="1251.87" r="14" fill="#009af9" fill-rule="evenodd" fill-opacity="1" stroke="#000000" stroke-opacity="1" stroke-width="3.2"/>
<circle clip-path="url(#clip792)" cx="375.206" cy="1360.17" r="14" fill="#009af9" fill-rule="evenodd" fill-opacity="1" stroke="#000000" stroke-opacity="1" stroke-width="3.2"/>
<circle clip-path="url(#clip792)" cx="340.408" cy="1360.17" r="14" fill="#009af9" fill-rule="evenodd" fill-opacity="1" stroke="#000000" stroke-opacity="1" stroke-width="3.2"/>
<circle clip-path="url(#clip792)" cx="410.003" cy="1360.17" r="14" fill="#009af9" fill-rule="evenodd" fill-opacity="1" stroke="#000000" stroke-opacity="1" stroke-width="3.2"/>
<circle clip-path="url(#clip792)" cx="410.003" cy="1360.17" r="14" fill="#009af9" fill-rule="evenodd" fill-opacity="1" stroke="#000000" stroke-opacity="1" stroke-width="3.2"/>
<circle clip-path="url(#clip792)" cx="375.206" cy="1251.87" r="14" fill="#009af9" fill-rule="evenodd" fill-opacity="1" stroke="#000000" stroke-opacity="1" stroke-width="3.2"/>
<circle clip-path="url(#clip792)" cx="375.206" cy="1414.32" r="14" fill="#009af9" fill-rule="evenodd" fill-opacity="1" stroke="#000000" stroke-opacity="1" stroke-width="3.2"/>
<circle clip-path="url(#clip792)" cx="340.408" cy="1360.17" r="14" fill="#009af9" fill-rule="evenodd" fill-opacity="1" stroke="#000000" stroke-opacity="1" stroke-width="3.2"/>
<circle clip-path="url(#clip792)" cx="375.206" cy="1414.32" r="14" fill="#009af9" fill-rule="evenodd" fill-opacity="1" stroke="#000000" stroke-opacity="1" stroke-width="3.2"/>
<circle clip-path="url(#clip792)" cx="270.813" cy="1360.17" r="14" fill="#009af9" fill-rule="evenodd" fill-opacity="1" stroke="#000000" stroke-opacity="1" stroke-width="3.2"/>
<circle clip-path="url(#clip792)" cx="305.61" cy="1360.17" r="14" fill="#009af9" fill-rule="evenodd" fill-opacity="1" stroke="#000000" stroke-opacity="1" stroke-width="3.2"/>
<circle clip-path="url(#clip792)" cx="375.206" cy="1414.32" r="14" fill="#009af9" fill-rule="evenodd" fill-opacity="1" stroke="#000000" stroke-opacity="1" stroke-width="3.2"/>
<circle clip-path="url(#clip792)" cx="305.61" cy="1360.17" r="14" fill="#009af9" fill-rule="evenodd" fill-opacity="1" stroke="#000000" stroke-opacity="1" stroke-width="3.2"/>
<circle clip-path="url(#clip792)" cx="375.206" cy="1360.17" r="14" fill="#009af9" fill-rule="evenodd" fill-opacity="1" stroke="#000000" stroke-opacity="1" stroke-width="3.2"/>
<circle clip-path="url(#clip792)" cx="305.61" cy="1306.02" r="14" fill="#009af9" fill-rule="evenodd" fill-opacity="1" stroke="#000000" stroke-opacity="1" stroke-width="3.2"/>
<circle clip-path="url(#clip792)" cx="305.61" cy="1306.02" r="14" fill="#009af9" fill-rule="evenodd" fill-opacity="1" stroke="#000000" stroke-opacity="1" stroke-width="3.2"/>
<circle clip-path="url(#clip792)" cx="305.61" cy="1360.17" r="14" fill="#009af9" fill-rule="evenodd" fill-opacity="1" stroke="#000000" stroke-opacity="1" stroke-width="3.2"/>
<circle clip-path="url(#clip792)" cx="410.003" cy="1143.57" r="14" fill="#009af9" fill-rule="evenodd" fill-opacity="1" stroke="#000000" stroke-opacity="1" stroke-width="3.2"/>
<circle clip-path="url(#clip792)" cx="514.396" cy="1251.87" r="14" fill="#009af9" fill-rule="evenodd" fill-opacity="1" stroke="#000000" stroke-opacity="1" stroke-width="3.2"/>
<circle clip-path="url(#clip792)" cx="340.408" cy="1306.02" r="14" fill="#009af9" fill-rule="evenodd" fill-opacity="1" stroke="#000000" stroke-opacity="1" stroke-width="3.2"/>
<circle clip-path="url(#clip792)" cx="410.003" cy="1360.17" r="14" fill="#009af9" fill-rule="evenodd" fill-opacity="1" stroke="#000000" stroke-opacity="1" stroke-width="3.2"/>
<circle clip-path="url(#clip792)" cx="340.408" cy="1360.17" r="14" fill="#009af9" fill-rule="evenodd" fill-opacity="1" stroke="#000000" stroke-opacity="1" stroke-width="3.2"/>
<circle clip-path="url(#clip792)" cx="375.206" cy="1360.17" r="14" fill="#009af9" fill-rule="evenodd" fill-opacity="1" stroke="#000000" stroke-opacity="1" stroke-width="3.2"/>
<circle clip-path="url(#clip792)" cx="340.408" cy="1360.17" r="14" fill="#009af9" fill-rule="evenodd" fill-opacity="1" stroke="#000000" stroke-opacity="1" stroke-width="3.2"/>
<circle clip-path="url(#clip792)" cx="1488.73" cy="710.374" r="14" fill="#009af9" fill-rule="evenodd" fill-opacity="1" stroke="#000000" stroke-opacity="1" stroke-width="3.2"/>
<circle clip-path="url(#clip792)" cx="1419.14" cy="656.225" r="14" fill="#009af9" fill-rule="evenodd" fill-opacity="1" stroke="#000000" stroke-opacity="1" stroke-width="3.2"/>
<circle clip-path="url(#clip792)" cx="1558.33" cy="656.225" r="14" fill="#009af9" fill-rule="evenodd" fill-opacity="1" stroke="#000000" stroke-opacity="1" stroke-width="3.2"/>
<circle clip-path="url(#clip792)" cx="1245.15" cy="764.524" r="14" fill="#009af9" fill-rule="evenodd" fill-opacity="1" stroke="#000000" stroke-opacity="1" stroke-width="3.2"/>
<circle clip-path="url(#clip792)" cx="1453.93" cy="656.225" r="14" fill="#009af9" fill-rule="evenodd" fill-opacity="1" stroke="#000000" stroke-opacity="1" stroke-width="3.2"/>
<circle clip-path="url(#clip792)" cx="1419.14" cy="764.524" r="14" fill="#009af9" fill-rule="evenodd" fill-opacity="1" stroke="#000000" stroke-opacity="1" stroke-width="3.2"/>
<circle clip-path="url(#clip792)" cx="1488.73" cy="602.075" r="14" fill="#009af9" fill-rule="evenodd" fill-opacity="1" stroke="#000000" stroke-opacity="1" stroke-width="3.2"/>
<circle clip-path="url(#clip792)" cx="1001.56" cy="926.973" r="14" fill="#009af9" fill-rule="evenodd" fill-opacity="1" stroke="#000000" stroke-opacity="1" stroke-width="3.2"/>
<circle clip-path="url(#clip792)" cx="1453.93" cy="764.524" r="14" fill="#009af9" fill-rule="evenodd" fill-opacity="1" stroke="#000000" stroke-opacity="1" stroke-width="3.2"/>
<circle clip-path="url(#clip792)" cx="1210.35" cy="710.374" r="14" fill="#009af9" fill-rule="evenodd" fill-opacity="1" stroke="#000000" stroke-opacity="1" stroke-width="3.2"/>
<circle clip-path="url(#clip792)" cx="1071.16" cy="926.973" r="14" fill="#009af9" fill-rule="evenodd" fill-opacity="1" stroke="#000000" stroke-opacity="1" stroke-width="3.2"/>
<circle clip-path="url(#clip792)" cx="1314.74" cy="656.225" r="14" fill="#009af9" fill-rule="evenodd" fill-opacity="1" stroke="#000000" stroke-opacity="1" stroke-width="3.2"/>
<circle clip-path="url(#clip792)" cx="1245.15" cy="926.973" r="14" fill="#009af9" fill-rule="evenodd" fill-opacity="1" stroke="#000000" stroke-opacity="1" stroke-width="3.2"/>
<circle clip-path="url(#clip792)" cx="1488.73" cy="710.374" r="14" fill="#009af9" fill-rule="evenodd" fill-opacity="1" stroke="#000000" stroke-opacity="1" stroke-width="3.2"/>
<circle clip-path="url(#clip792)" cx="1105.96" cy="764.524" r="14" fill="#009af9" fill-rule="evenodd" fill-opacity="1" stroke="#000000" stroke-opacity="1" stroke-width="3.2"/>
<circle clip-path="url(#clip792)" cx="1384.34" cy="710.374" r="14" fill="#009af9" fill-rule="evenodd" fill-opacity="1" stroke="#000000" stroke-opacity="1" stroke-width="3.2"/>
<circle clip-path="url(#clip792)" cx="1419.14" cy="656.225" r="14" fill="#009af9" fill-rule="evenodd" fill-opacity="1" stroke="#000000" stroke-opacity="1" stroke-width="3.2"/>
<circle clip-path="url(#clip792)" cx="1279.94" cy="926.973" r="14" fill="#009af9" fill-rule="evenodd" fill-opacity="1" stroke="#000000" stroke-opacity="1" stroke-width="3.2"/>
<circle clip-path="url(#clip792)" cx="1419.14" cy="656.225" r="14" fill="#009af9" fill-rule="evenodd" fill-opacity="1" stroke="#000000" stroke-opacity="1" stroke-width="3.2"/>
<circle clip-path="url(#clip792)" cx="1210.35" cy="872.823" r="14" fill="#009af9" fill-rule="evenodd" fill-opacity="1" stroke="#000000" stroke-opacity="1" stroke-width="3.2"/>
<circle clip-path="url(#clip792)" cx="1523.53" cy="493.776" r="14" fill="#009af9" fill-rule="evenodd" fill-opacity="1" stroke="#000000" stroke-opacity="1" stroke-width="3.2"/>
<circle clip-path="url(#clip792)" cx="1245.15" cy="764.524" r="14" fill="#009af9" fill-rule="evenodd" fill-opacity="1" stroke="#000000" stroke-opacity="1" stroke-width="3.2"/>
<circle clip-path="url(#clip792)" cx="1558.33" cy="656.225" r="14" fill="#009af9" fill-rule="evenodd" fill-opacity="1" stroke="#000000" stroke-opacity="1" stroke-width="3.2"/>
<circle clip-path="url(#clip792)" cx="1488.73" cy="818.674" r="14" fill="#009af9" fill-rule="evenodd" fill-opacity="1" stroke="#000000" stroke-opacity="1" stroke-width="3.2"/>
<circle clip-path="url(#clip792)" cx="1349.54" cy="764.524" r="14" fill="#009af9" fill-rule="evenodd" fill-opacity="1" stroke="#000000" stroke-opacity="1" stroke-width="3.2"/>
<circle clip-path="url(#clip792)" cx="1384.34" cy="710.374" r="14" fill="#009af9" fill-rule="evenodd" fill-opacity="1" stroke="#000000" stroke-opacity="1" stroke-width="3.2"/>
<circle clip-path="url(#clip792)" cx="1523.53" cy="710.374" r="14" fill="#009af9" fill-rule="evenodd" fill-opacity="1" stroke="#000000" stroke-opacity="1" stroke-width="3.2"/>
<circle clip-path="url(#clip792)" cx="1593.12" cy="547.925" r="14" fill="#009af9" fill-rule="evenodd" fill-opacity="1" stroke="#000000" stroke-opacity="1" stroke-width="3.2"/>
<circle clip-path="url(#clip792)" cx="1419.14" cy="656.225" r="14" fill="#009af9" fill-rule="evenodd" fill-opacity="1" stroke="#000000" stroke-opacity="1" stroke-width="3.2"/>
<circle clip-path="url(#clip792)" cx="1071.16" cy="926.973" r="14" fill="#009af9" fill-rule="evenodd" fill-opacity="1" stroke="#000000" stroke-opacity="1" stroke-width="3.2"/>
<circle clip-path="url(#clip792)" cx="1175.55" cy="872.823" r="14" fill="#009af9" fill-rule="evenodd" fill-opacity="1" stroke="#000000" stroke-opacity="1" stroke-width="3.2"/>
<circle clip-path="url(#clip792)" cx="1140.75" cy="926.973" r="14" fill="#009af9" fill-rule="evenodd" fill-opacity="1" stroke="#000000" stroke-opacity="1" stroke-width="3.2"/>
<circle clip-path="url(#clip792)" cx="1210.35" cy="818.674" r="14" fill="#009af9" fill-rule="evenodd" fill-opacity="1" stroke="#000000" stroke-opacity="1" stroke-width="3.2"/>
<circle clip-path="url(#clip792)" cx="1627.92" cy="602.075" r="14" fill="#009af9" fill-rule="evenodd" fill-opacity="1" stroke="#000000" stroke-opacity="1" stroke-width="3.2"/>
<circle clip-path="url(#clip792)" cx="1419.14" cy="656.225" r="14" fill="#009af9" fill-rule="evenodd" fill-opacity="1" stroke="#000000" stroke-opacity="1" stroke-width="3.2"/>
<circle clip-path="url(#clip792)" cx="1419.14" cy="602.075" r="14" fill="#009af9" fill-rule="evenodd" fill-opacity="1" stroke="#000000" stroke-opacity="1" stroke-width="3.2"/>
<circle clip-path="url(#clip792)" cx="1488.73" cy="656.225" r="14" fill="#009af9" fill-rule="evenodd" fill-opacity="1" stroke="#000000" stroke-opacity="1" stroke-width="3.2"/>
<circle clip-path="url(#clip792)" cx="1384.34" cy="764.524" r="14" fill="#009af9" fill-rule="evenodd" fill-opacity="1" stroke="#000000" stroke-opacity="1" stroke-width="3.2"/>
<circle clip-path="url(#clip792)" cx="1279.94" cy="764.524" r="14" fill="#009af9" fill-rule="evenodd" fill-opacity="1" stroke="#000000" stroke-opacity="1" stroke-width="3.2"/>
<circle clip-path="url(#clip792)" cx="1245.15" cy="764.524" r="14" fill="#009af9" fill-rule="evenodd" fill-opacity="1" stroke="#000000" stroke-opacity="1" stroke-width="3.2"/>
<circle clip-path="url(#clip792)" cx="1384.34" cy="818.674" r="14" fill="#009af9" fill-rule="evenodd" fill-opacity="1" stroke="#000000" stroke-opacity="1" stroke-width="3.2"/>
<circle clip-path="url(#clip792)" cx="1453.93" cy="710.374" r="14" fill="#009af9" fill-rule="evenodd" fill-opacity="1" stroke="#000000" stroke-opacity="1" stroke-width="3.2"/>
<circle clip-path="url(#clip792)" cx="1245.15" cy="818.674" r="14" fill="#009af9" fill-rule="evenodd" fill-opacity="1" stroke="#000000" stroke-opacity="1" stroke-width="3.2"/>
<circle clip-path="url(#clip792)" cx="1001.56" cy="926.973" r="14" fill="#009af9" fill-rule="evenodd" fill-opacity="1" stroke="#000000" stroke-opacity="1" stroke-width="3.2"/>
<circle clip-path="url(#clip792)" cx="1314.74" cy="764.524" r="14" fill="#009af9" fill-rule="evenodd" fill-opacity="1" stroke="#000000" stroke-opacity="1" stroke-width="3.2"/>
<circle clip-path="url(#clip792)" cx="1314.74" cy="818.674" r="14" fill="#009af9" fill-rule="evenodd" fill-opacity="1" stroke="#000000" stroke-opacity="1" stroke-width="3.2"/>
<circle clip-path="url(#clip792)" cx="1314.74" cy="764.524" r="14" fill="#009af9" fill-rule="evenodd" fill-opacity="1" stroke="#000000" stroke-opacity="1" stroke-width="3.2"/>
<circle clip-path="url(#clip792)" cx="1349.54" cy="764.524" r="14" fill="#009af9" fill-rule="evenodd" fill-opacity="1" stroke="#000000" stroke-opacity="1" stroke-width="3.2"/>
<circle clip-path="url(#clip792)" cx="897.17" cy="872.823" r="14" fill="#009af9" fill-rule="evenodd" fill-opacity="1" stroke="#000000" stroke-opacity="1" stroke-width="3.2"/>
<circle clip-path="url(#clip792)" cx="1279.94" cy="764.524" r="14" fill="#009af9" fill-rule="evenodd" fill-opacity="1" stroke="#000000" stroke-opacity="1" stroke-width="3.2"/>
<circle clip-path="url(#clip792)" cx="1941.1" cy="114.728" r="14" fill="#009af9" fill-rule="evenodd" fill-opacity="1" stroke="#000000" stroke-opacity="1" stroke-width="3.2"/>
<circle clip-path="url(#clip792)" cx="1627.92" cy="439.626" r="14" fill="#009af9" fill-rule="evenodd" fill-opacity="1" stroke="#000000" stroke-opacity="1" stroke-width="3.2"/>
<circle clip-path="url(#clip792)" cx="1906.3" cy="331.327" r="14" fill="#009af9" fill-rule="evenodd" fill-opacity="1" stroke="#000000" stroke-opacity="1" stroke-width="3.2"/>
<circle clip-path="url(#clip792)" cx="1801.91" cy="493.776" r="14" fill="#009af9" fill-rule="evenodd" fill-opacity="1" stroke="#000000" stroke-opacity="1" stroke-width="3.2"/>
<circle clip-path="url(#clip792)" cx="1871.5" cy="277.177" r="14" fill="#009af9" fill-rule="evenodd" fill-opacity="1" stroke="#000000" stroke-opacity="1" stroke-width="3.2"/>
<circle clip-path="url(#clip792)" cx="2149.89" cy="331.327" r="14" fill="#009af9" fill-rule="evenodd" fill-opacity="1" stroke="#000000" stroke-opacity="1" stroke-width="3.2"/>
<circle clip-path="url(#clip792)" cx="1419.14" cy="547.925" r="14" fill="#009af9" fill-rule="evenodd" fill-opacity="1" stroke="#000000" stroke-opacity="1" stroke-width="3.2"/>
<circle clip-path="url(#clip792)" cx="2045.49" cy="493.776" r="14" fill="#009af9" fill-rule="evenodd" fill-opacity="1" stroke="#000000" stroke-opacity="1" stroke-width="3.2"/>
<circle clip-path="url(#clip792)" cx="1871.5" cy="493.776" r="14" fill="#009af9" fill-rule="evenodd" fill-opacity="1" stroke="#000000" stroke-opacity="1" stroke-width="3.2"/>
<circle clip-path="url(#clip792)" cx="1975.9" cy="114.728" r="14" fill="#009af9" fill-rule="evenodd" fill-opacity="1" stroke="#000000" stroke-opacity="1" stroke-width="3.2"/>
<circle clip-path="url(#clip792)" cx="1627.92" cy="385.476" r="14" fill="#009af9" fill-rule="evenodd" fill-opacity="1" stroke="#000000" stroke-opacity="1" stroke-width="3.2"/>
<circle clip-path="url(#clip792)" cx="1697.52" cy="439.626" r="14" fill="#009af9" fill-rule="evenodd" fill-opacity="1" stroke="#000000" stroke-opacity="1" stroke-width="3.2"/>
<circle clip-path="url(#clip792)" cx="1767.11" cy="331.327" r="14" fill="#009af9" fill-rule="evenodd" fill-opacity="1" stroke="#000000" stroke-opacity="1" stroke-width="3.2"/>
<circle clip-path="url(#clip792)" cx="1593.12" cy="385.476" r="14" fill="#009af9" fill-rule="evenodd" fill-opacity="1" stroke="#000000" stroke-opacity="1" stroke-width="3.2"/>
<circle clip-path="url(#clip792)" cx="1627.92" cy="168.878" r="14" fill="#009af9" fill-rule="evenodd" fill-opacity="1" stroke="#000000" stroke-opacity="1" stroke-width="3.2"/>
<circle clip-path="url(#clip792)" cx="1697.52" cy="223.027" r="14" fill="#009af9" fill-rule="evenodd" fill-opacity="1" stroke="#000000" stroke-opacity="1" stroke-width="3.2"/>
<circle clip-path="url(#clip792)" cx="1767.11" cy="493.776" r="14" fill="#009af9" fill-rule="evenodd" fill-opacity="1" stroke="#000000" stroke-opacity="1" stroke-width="3.2"/>
<circle clip-path="url(#clip792)" cx="2184.68" cy="277.177" r="14" fill="#009af9" fill-rule="evenodd" fill-opacity="1" stroke="#000000" stroke-opacity="1" stroke-width="3.2"/>
<circle clip-path="url(#clip792)" cx="2254.28" cy="223.027" r="14" fill="#009af9" fill-rule="evenodd" fill-opacity="1" stroke="#000000" stroke-opacity="1" stroke-width="3.2"/>
<circle clip-path="url(#clip792)" cx="1593.12" cy="656.225" r="14" fill="#009af9" fill-rule="evenodd" fill-opacity="1" stroke="#000000" stroke-opacity="1" stroke-width="3.2"/>
<circle clip-path="url(#clip792)" cx="1836.71" cy="223.027" r="14" fill="#009af9" fill-rule="evenodd" fill-opacity="1" stroke="#000000" stroke-opacity="1" stroke-width="3.2"/>
<circle clip-path="url(#clip792)" cx="1558.33" cy="385.476" r="14" fill="#009af9" fill-rule="evenodd" fill-opacity="1" stroke="#000000" stroke-opacity="1" stroke-width="3.2"/>
<circle clip-path="url(#clip792)" cx="2184.68" cy="385.476" r="14" fill="#009af9" fill-rule="evenodd" fill-opacity="1" stroke="#000000" stroke-opacity="1" stroke-width="3.2"/>
<circle clip-path="url(#clip792)" cx="1558.33" cy="493.776" r="14" fill="#009af9" fill-rule="evenodd" fill-opacity="1" stroke="#000000" stroke-opacity="1" stroke-width="3.2"/>
<circle clip-path="url(#clip792)" cx="1836.71" cy="331.327" r="14" fill="#009af9" fill-rule="evenodd" fill-opacity="1" stroke="#000000" stroke-opacity="1" stroke-width="3.2"/>
<circle clip-path="url(#clip792)" cx="1941.1" cy="493.776" r="14" fill="#009af9" fill-rule="evenodd" fill-opacity="1" stroke="#000000" stroke-opacity="1" stroke-width="3.2"/>
<circle clip-path="url(#clip792)" cx="1523.53" cy="493.776" r="14" fill="#009af9" fill-rule="evenodd" fill-opacity="1" stroke="#000000" stroke-opacity="1" stroke-width="3.2"/>
<circle clip-path="url(#clip792)" cx="1558.33" cy="493.776" r="14" fill="#009af9" fill-rule="evenodd" fill-opacity="1" stroke="#000000" stroke-opacity="1" stroke-width="3.2"/>
<circle clip-path="url(#clip792)" cx="1801.91" cy="331.327" r="14" fill="#009af9" fill-rule="evenodd" fill-opacity="1" stroke="#000000" stroke-opacity="1" stroke-width="3.2"/>
<circle clip-path="url(#clip792)" cx="1871.5" cy="602.075" r="14" fill="#009af9" fill-rule="evenodd" fill-opacity="1" stroke="#000000" stroke-opacity="1" stroke-width="3.2"/>
<circle clip-path="url(#clip792)" cx="1975.9" cy="439.626" r="14" fill="#009af9" fill-rule="evenodd" fill-opacity="1" stroke="#000000" stroke-opacity="1" stroke-width="3.2"/>
<circle clip-path="url(#clip792)" cx="2080.29" cy="385.476" r="14" fill="#009af9" fill-rule="evenodd" fill-opacity="1" stroke="#000000" stroke-opacity="1" stroke-width="3.2"/>
<circle clip-path="url(#clip792)" cx="1801.91" cy="277.177" r="14" fill="#009af9" fill-rule="evenodd" fill-opacity="1" stroke="#000000" stroke-opacity="1" stroke-width="3.2"/>
<circle clip-path="url(#clip792)" cx="1627.92" cy="656.225" r="14" fill="#009af9" fill-rule="evenodd" fill-opacity="1" stroke="#000000" stroke-opacity="1" stroke-width="3.2"/>
<circle clip-path="url(#clip792)" cx="1801.91" cy="710.374" r="14" fill="#009af9" fill-rule="evenodd" fill-opacity="1" stroke="#000000" stroke-opacity="1" stroke-width="3.2"/>
<circle clip-path="url(#clip792)" cx="1975.9" cy="223.027" r="14" fill="#009af9" fill-rule="evenodd" fill-opacity="1" stroke="#000000" stroke-opacity="1" stroke-width="3.2"/>
<circle clip-path="url(#clip792)" cx="1801.91" cy="168.878" r="14" fill="#009af9" fill-rule="evenodd" fill-opacity="1" stroke="#000000" stroke-opacity="1" stroke-width="3.2"/>
<circle clip-path="url(#clip792)" cx="1767.11" cy="493.776" r="14" fill="#009af9" fill-rule="evenodd" fill-opacity="1" stroke="#000000" stroke-opacity="1" stroke-width="3.2"/>
<circle clip-path="url(#clip792)" cx="1523.53" cy="493.776" r="14" fill="#009af9" fill-rule="evenodd" fill-opacity="1" stroke="#000000" stroke-opacity="1" stroke-width="3.2"/>
<circle clip-path="url(#clip792)" cx="1732.31" cy="331.327" r="14" fill="#009af9" fill-rule="evenodd" fill-opacity="1" stroke="#000000" stroke-opacity="1" stroke-width="3.2"/>
<circle clip-path="url(#clip792)" cx="1801.91" cy="168.878" r="14" fill="#009af9" fill-rule="evenodd" fill-opacity="1" stroke="#000000" stroke-opacity="1" stroke-width="3.2"/>
<circle clip-path="url(#clip792)" cx="1627.92" cy="223.027" r="14" fill="#009af9" fill-rule="evenodd" fill-opacity="1" stroke="#000000" stroke-opacity="1" stroke-width="3.2"/>
<circle clip-path="url(#clip792)" cx="1627.92" cy="439.626" r="14" fill="#009af9" fill-rule="evenodd" fill-opacity="1" stroke="#000000" stroke-opacity="1" stroke-width="3.2"/>
<circle clip-path="url(#clip792)" cx="1906.3" cy="223.027" r="14" fill="#009af9" fill-rule="evenodd" fill-opacity="1" stroke="#000000" stroke-opacity="1" stroke-width="3.2"/>
<circle clip-path="url(#clip792)" cx="1836.71" cy="114.728" r="14" fill="#009af9" fill-rule="evenodd" fill-opacity="1" stroke="#000000" stroke-opacity="1" stroke-width="3.2"/>
<circle clip-path="url(#clip792)" cx="1662.72" cy="223.027" r="14" fill="#009af9" fill-rule="evenodd" fill-opacity="1" stroke="#000000" stroke-opacity="1" stroke-width="3.2"/>
<circle clip-path="url(#clip792)" cx="1593.12" cy="439.626" r="14" fill="#009af9" fill-rule="evenodd" fill-opacity="1" stroke="#000000" stroke-opacity="1" stroke-width="3.2"/>
<circle clip-path="url(#clip792)" cx="1662.72" cy="385.476" r="14" fill="#009af9" fill-rule="evenodd" fill-opacity="1" stroke="#000000" stroke-opacity="1" stroke-width="3.2"/>
<circle clip-path="url(#clip792)" cx="1732.31" cy="223.027" r="14" fill="#009af9" fill-rule="evenodd" fill-opacity="1" stroke="#000000" stroke-opacity="1" stroke-width="3.2"/>
<circle clip-path="url(#clip792)" cx="1627.92" cy="493.776" r="14" fill="#009af9" fill-rule="evenodd" fill-opacity="1" stroke="#000000" stroke-opacity="1" stroke-width="3.2"/>
<polyline clip-path="url(#clip792)" style="stroke:#000000; stroke-width:12; stroke-opacity:1; fill:none" points="
  166.42,1464 2289.08,88.5087 
  "/>
<path clip-path="url(#clip790)" d="
M177.741 216.805 L630.565 216.805 L630.565 95.8446 L177.741 95.8446  Z
  " fill="#ffffff" fill-rule="evenodd" fill-opacity="1"/>
<polyline clip-path="url(#clip790)" style="stroke:#000000; stroke-width:4; stroke-opacity:1; fill:none" points="
  177.741,216.805 630.565,216.805 630.565,95.8446 177.741,95.8446 177.741,216.805 
  "/>
<polyline clip-path="url(#clip790)" style="stroke:#000000; stroke-width:4; stroke-opacity:1; fill:none" points="
  202.741,156.325 352.742,156.325 
  "/>
<path clip-path="url(#clip790)" d="M 0 0 M382.418 142.887 L382.418 155.873 L388.298 155.873 Q391.561 155.873 393.344 154.183 Q395.126 152.494 395.126 149.369 Q395.126 146.267 393.344 144.577 Q391.561 142.887 388.298 142.887 L382.418 142.887 M377.742 139.045 L388.298 139.045 Q394.108 139.045 397.071 141.683 Q400.057 144.299 400.057 149.369 Q400.057 154.484 397.071 157.1 Q394.108 159.716 388.298 159.716 L382.418 159.716 L382.418 173.605 L377.742 173.605 L377.742 139.045 Z" fill="#000000" fill-rule="evenodd" fill-opacity="1" /><path clip-path="url(#clip790)" d="M 0 0 M418.714 151.66 Q417.996 151.244 417.14 151.058 Q416.307 150.85 415.288 150.85 Q411.677 150.85 409.733 153.211 Q407.811 155.549 407.811 159.947 L407.811 173.605 L403.529 173.605 L403.529 147.679 L407.811 147.679 L407.811 151.707 Q409.154 149.345 411.307 148.211 Q413.459 147.054 416.538 147.054 Q416.978 147.054 417.51 147.123 Q418.043 147.17 418.691 147.285 L418.714 151.66 Z" fill="#000000" fill-rule="evenodd" fill-opacity="1" /><path clip-path="url(#clip790)" d="M 0 0 M444.316 159.577 L444.316 161.66 L424.733 161.66 Q425.01 166.058 427.371 168.373 Q429.756 170.665 433.992 170.665 Q436.445 170.665 438.737 170.063 Q441.052 169.461 443.32 168.257 L443.32 172.285 Q441.029 173.257 438.621 173.767 Q436.214 174.276 433.737 174.276 Q427.533 174.276 423.899 170.665 Q420.288 167.054 420.288 160.896 Q420.288 154.531 423.714 150.804 Q427.163 147.054 432.996 147.054 Q438.228 147.054 441.26 150.433 Q444.316 153.79 444.316 159.577 M440.057 158.327 Q440.01 154.832 438.089 152.748 Q436.191 150.665 433.043 150.665 Q429.478 150.665 427.325 152.679 Q425.196 154.693 424.871 158.35 L440.057 158.327 Z" fill="#000000" fill-rule="evenodd" fill-opacity="1" /><path clip-path="url(#clip790)" d="M 0 0 M465.843 151.614 L465.843 137.586 L470.103 137.586 L470.103 173.605 L465.843 173.605 L465.843 169.716 Q464.501 172.031 462.441 173.165 Q460.404 174.276 457.533 174.276 Q452.834 174.276 449.871 170.526 Q446.932 166.776 446.932 160.665 Q446.932 154.554 449.871 150.804 Q452.834 147.054 457.533 147.054 Q460.404 147.054 462.441 148.188 Q464.501 149.299 465.843 151.614 M451.33 160.665 Q451.33 165.364 453.251 168.049 Q455.195 170.711 458.575 170.711 Q461.955 170.711 463.899 168.049 Q465.843 165.364 465.843 160.665 Q465.843 155.966 463.899 153.304 Q461.955 150.619 458.575 150.619 Q455.195 150.619 453.251 153.304 Q451.33 155.966 451.33 160.665 Z" fill="#000000" fill-rule="evenodd" fill-opacity="1" /><path clip-path="url(#clip790)" d="M 0 0 M474.57 147.679 L478.83 147.679 L478.83 173.605 L474.57 173.605 L474.57 147.679 M474.57 137.586 L478.83 137.586 L478.83 142.98 L474.57 142.98 L474.57 137.586 Z" fill="#000000" fill-rule="evenodd" fill-opacity="1" /><path clip-path="url(#clip790)" d="M 0 0 M501.954 148.674 L501.954 152.656 Q500.149 151.66 498.32 151.174 Q496.515 150.665 494.663 150.665 Q490.519 150.665 488.228 153.304 Q485.936 155.92 485.936 160.665 Q485.936 165.41 488.228 168.049 Q490.519 170.665 494.663 170.665 Q496.515 170.665 498.32 170.179 Q500.149 169.669 501.954 168.674 L501.954 172.609 Q500.172 173.443 498.251 173.859 Q496.353 174.276 494.2 174.276 Q488.343 174.276 484.894 170.595 Q481.445 166.915 481.445 160.665 Q481.445 154.322 484.917 150.688 Q488.413 147.054 494.478 147.054 Q496.445 147.054 498.32 147.471 Q500.195 147.864 501.954 148.674 Z" fill="#000000" fill-rule="evenodd" fill-opacity="1" /><path clip-path="url(#clip790)" d="M 0 0 M510.635 140.318 L510.635 147.679 L519.408 147.679 L519.408 150.989 L510.635 150.989 L510.635 165.063 Q510.635 168.234 511.491 169.137 Q512.371 170.04 515.033 170.04 L519.408 170.04 L519.408 173.605 L515.033 173.605 Q510.102 173.605 508.227 171.776 Q506.353 169.924 506.353 165.063 L506.353 150.989 L503.228 150.989 L503.228 147.679 L506.353 147.679 L506.353 140.318 L510.635 140.318 Z" fill="#000000" fill-rule="evenodd" fill-opacity="1" /><path clip-path="url(#clip790)" d="M 0 0 M523.876 147.679 L528.135 147.679 L528.135 173.605 L523.876 173.605 L523.876 147.679 M523.876 137.586 L528.135 137.586 L528.135 142.98 L523.876 142.98 L523.876 137.586 Z" fill="#000000" fill-rule="evenodd" fill-opacity="1" /><path clip-path="url(#clip790)" d="M 0 0 M542.649 150.665 Q539.223 150.665 537.232 153.35 Q535.241 156.012 535.241 160.665 Q535.241 165.318 537.209 168.003 Q539.2 170.665 542.649 170.665 Q546.051 170.665 548.042 167.98 Q550.033 165.294 550.033 160.665 Q550.033 156.058 548.042 153.373 Q546.051 150.665 542.649 150.665 M542.649 147.054 Q548.204 147.054 551.375 150.665 Q554.547 154.276 554.547 160.665 Q554.547 167.031 551.375 170.665 Q548.204 174.276 542.649 174.276 Q537.07 174.276 533.899 170.665 Q530.751 167.031 530.751 160.665 Q530.751 154.276 533.899 150.665 Q537.07 147.054 542.649 147.054 Z" fill="#000000" fill-rule="evenodd" fill-opacity="1" /><path clip-path="url(#clip790)" d="M 0 0 M580.565 157.957 L580.565 173.605 L576.306 173.605 L576.306 158.095 Q576.306 154.415 574.871 152.586 Q573.435 150.758 570.565 150.758 Q567.116 150.758 565.125 152.957 Q563.135 155.156 563.135 158.952 L563.135 173.605 L558.852 173.605 L558.852 147.679 L563.135 147.679 L563.135 151.707 Q564.662 149.369 566.723 148.211 Q568.806 147.054 571.514 147.054 Q575.982 147.054 578.273 149.832 Q580.565 152.586 580.565 157.957 Z" fill="#000000" fill-rule="evenodd" fill-opacity="1" /></svg>
