<?xml version="1.0" encoding="utf-8"?>
<svg xmlns="http://www.w3.org/2000/svg" xmlns:xlink="http://www.w3.org/1999/xlink" width="600" height="400" viewBox="0 0 2400 1600">
<defs>
  <clipPath id="clip310">
    <rect x="0" y="0" width="2400" height="1600"/>
  </clipPath>
</defs>
<path clip-path="url(#clip310)" d="
M0 1600 L2400 1600 L2400 0 L0 0  Z
  " fill="#ffffff" fill-rule="evenodd" fill-opacity="1"/>
<defs>
  <clipPath id="clip311">
    <rect x="480" y="0" width="1681" height="1600"/>
  </clipPath>
</defs>
<defs>
  <clipPath id="clip312">
    <rect x="141" y="47" width="2212" height="1440"/>
  </clipPath>
</defs>
<path clip-path="url(#clip312)" d="
M1172.73 817.516 L1168.26 790.209 L1192.44 780.683 L1226.76 785.647 L1223.06 811.256 L1207.06 828.202 L1172.73 817.516  Z
  " fill="#ffffff" fill-rule="evenodd" fill-opacity="1"/>
<polyline clip-path="url(#clip312)" style="stroke:#000000; stroke-linecap:butt; stroke-linejoin:round; stroke-width:2; stroke-opacity:0.1; fill:none" points="
  859.301,1235.62 1259.04,865.077 
  "/>
<polyline clip-path="url(#clip312)" style="stroke:#000000; stroke-linecap:butt; stroke-linejoin:round; stroke-width:2; stroke-opacity:0.1; fill:none" points="
  1259.04,865.077 1260.68,230.399 
  "/>
<polyline clip-path="url(#clip312)" style="stroke:#000000; stroke-linecap:butt; stroke-linejoin:round; stroke-width:2; stroke-opacity:0.1; fill:none" points="
  1023.75,1302.26 1403.21,909.234 
  "/>
<polyline clip-path="url(#clip312)" style="stroke:#000000; stroke-linecap:butt; stroke-linejoin:round; stroke-width:2; stroke-opacity:0.1; fill:none" points="
  1403.21,909.234 1425.61,261.46 
  "/>
<polyline clip-path="url(#clip312)" style="stroke:#000000; stroke-linecap:butt; stroke-linejoin:round; stroke-width:2; stroke-opacity:0.1; fill:none" points="
  1199.42,1373.45 1555.31,955.822 
  "/>
<polyline clip-path="url(#clip312)" style="stroke:#000000; stroke-linecap:butt; stroke-linejoin:round; stroke-width:2; stroke-opacity:0.1; fill:none" points="
  1555.31,955.822 1600.96,294.484 
  "/>
<polyline clip-path="url(#clip312)" style="stroke:#000000; stroke-linecap:butt; stroke-linejoin:round; stroke-width:2; stroke-opacity:0.1; fill:none" points="
  1387.5,1449.66 1716.02,1005.05 
  "/>
<polyline clip-path="url(#clip312)" style="stroke:#000000; stroke-linecap:butt; stroke-linejoin:round; stroke-width:2; stroke-opacity:0.1; fill:none" points="
  1716.02,1005.05 1787.75,329.663 
  "/>
<polyline clip-path="url(#clip310)" style="stroke:#000000; stroke-linecap:butt; stroke-linejoin:round; stroke-width:4; stroke-opacity:1; fill:none" points="
  713.703,1176.62 1410.89,1459.14 
  "/>
<polyline clip-path="url(#clip310)" style="stroke:#000000; stroke-linecap:butt; stroke-linejoin:round; stroke-width:4; stroke-opacity:1; fill:none" points="
  859.301,1235.62 865.161,1230.19 
  "/>
<polyline clip-path="url(#clip310)" style="stroke:#000000; stroke-linecap:butt; stroke-linejoin:round; stroke-width:4; stroke-opacity:1; fill:none" points="
  1023.75,1302.26 1029.34,1296.47 
  "/>
<polyline clip-path="url(#clip310)" style="stroke:#000000; stroke-linecap:butt; stroke-linejoin:round; stroke-width:4; stroke-opacity:1; fill:none" points="
  1199.42,1373.45 1204.7,1367.25 
  "/>
<polyline clip-path="url(#clip310)" style="stroke:#000000; stroke-linecap:butt; stroke-linejoin:round; stroke-width:4; stroke-opacity:1; fill:none" points="
  1387.5,1449.66 1392.41,1443.02 
  "/>
<path clip-path="url(#clip310)" d="M758.868 1263.57 L788.543 1263.57 L788.543 1267.51 L758.868 1267.51 L758.868 1263.57 Z" fill="#000000" fill-rule="evenodd" fill-opacity="1" /><path clip-path="url(#clip310)" d="M799.446 1276.47 L807.085 1276.47 L807.085 1250.1 L798.775 1251.77 L798.775 1247.51 L807.039 1245.84 L811.715 1245.84 L811.715 1276.47 L819.353 1276.47 L819.353 1280.4 L799.446 1280.4 L799.446 1276.47 Z" fill="#000000" fill-rule="evenodd" fill-opacity="1" /><path clip-path="url(#clip310)" d="M838.798 1248.92 Q835.187 1248.92 833.358 1252.49 Q831.552 1256.03 831.552 1263.16 Q831.552 1270.26 833.358 1273.83 Q835.187 1277.37 838.798 1277.37 Q842.432 1277.37 844.237 1273.83 Q846.066 1270.26 846.066 1263.16 Q846.066 1256.03 844.237 1252.49 Q842.432 1248.92 838.798 1248.92 M838.798 1245.22 Q844.608 1245.22 847.663 1249.82 Q850.742 1254.41 850.742 1263.16 Q850.742 1271.88 847.663 1276.49 Q844.608 1281.07 838.798 1281.07 Q832.988 1281.07 829.909 1276.49 Q826.853 1271.88 826.853 1263.16 Q826.853 1254.41 829.909 1249.82 Q832.988 1245.22 838.798 1245.22 Z" fill="#000000" fill-rule="evenodd" fill-opacity="1" /><path clip-path="url(#clip310)" d="M1003.24 1315.56 Q999.633 1315.56 997.804 1319.12 Q995.998 1322.67 995.998 1329.8 Q995.998 1336.9 997.804 1340.47 Q999.633 1344.01 1003.24 1344.01 Q1006.88 1344.01 1008.68 1340.47 Q1010.51 1336.9 1010.51 1329.8 Q1010.51 1322.67 1008.68 1319.12 Q1006.88 1315.56 1003.24 1315.56 M1003.24 1311.86 Q1009.05 1311.86 1012.11 1316.46 Q1015.19 1321.05 1015.19 1329.8 Q1015.19 1338.52 1012.11 1343.13 Q1009.05 1347.71 1003.24 1347.71 Q997.433 1347.71 994.355 1343.13 Q991.299 1338.52 991.299 1329.8 Q991.299 1321.05 994.355 1316.46 Q997.433 1311.86 1003.24 1311.86 Z" fill="#000000" fill-rule="evenodd" fill-opacity="1" /><path clip-path="url(#clip310)" d="M1139.56 1414.29 L1147.2 1414.29 L1147.2 1387.93 L1138.89 1389.59 L1138.89 1385.33 L1147.15 1383.67 L1151.83 1383.67 L1151.83 1414.29 L1159.47 1414.29 L1159.47 1418.23 L1139.56 1418.23 L1139.56 1414.29 Z" fill="#000000" fill-rule="evenodd" fill-opacity="1" /><path clip-path="url(#clip310)" d="M1178.91 1386.75 Q1175.3 1386.75 1173.47 1390.31 Q1171.67 1393.85 1171.67 1400.98 Q1171.67 1408.09 1173.47 1411.65 Q1175.3 1415.19 1178.91 1415.19 Q1182.55 1415.19 1184.35 1411.65 Q1186.18 1408.09 1186.18 1400.98 Q1186.18 1393.85 1184.35 1390.31 Q1182.55 1386.75 1178.91 1386.75 M1178.91 1383.04 Q1184.72 1383.04 1187.78 1387.65 Q1190.86 1392.23 1190.86 1400.98 Q1190.86 1409.71 1187.78 1414.31 Q1184.72 1418.9 1178.91 1418.9 Q1173.1 1418.9 1170.02 1414.31 Q1166.97 1409.71 1166.97 1400.98 Q1166.97 1392.23 1170.02 1387.65 Q1173.1 1383.04 1178.91 1383.04 Z" fill="#000000" fill-rule="evenodd" fill-opacity="1" /><path clip-path="url(#clip310)" d="M1330.86 1490.51 L1347.18 1490.51 L1347.18 1494.44 L1325.24 1494.44 L1325.24 1490.51 Q1327.9 1487.75 1332.48 1483.12 Q1337.09 1478.47 1338.27 1477.13 Q1340.52 1474.6 1341.4 1472.87 Q1342.3 1471.11 1342.3 1469.42 Q1342.3 1466.66 1340.35 1464.93 Q1338.43 1463.19 1335.33 1463.19 Q1333.13 1463.19 1330.68 1463.96 Q1328.25 1464.72 1325.47 1466.27 L1325.47 1461.55 Q1328.29 1460.41 1330.75 1459.84 Q1333.2 1459.26 1335.24 1459.26 Q1340.61 1459.26 1343.8 1461.94 Q1347 1464.63 1347 1469.12 Q1347 1471.25 1346.19 1473.17 Q1345.4 1475.07 1343.29 1477.66 Q1342.71 1478.33 1339.61 1481.55 Q1336.51 1484.74 1330.86 1490.51 Z" fill="#000000" fill-rule="evenodd" fill-opacity="1" /><path clip-path="url(#clip310)" d="M1367 1462.96 Q1363.39 1462.96 1361.56 1466.53 Q1359.75 1470.07 1359.75 1477.2 Q1359.75 1484.3 1361.56 1487.87 Q1363.39 1491.41 1367 1491.41 Q1370.63 1491.41 1372.44 1487.87 Q1374.27 1484.3 1374.27 1477.2 Q1374.27 1470.07 1372.44 1466.53 Q1370.63 1462.96 1367 1462.96 M1367 1459.26 Q1372.81 1459.26 1375.86 1463.86 Q1378.94 1468.45 1378.94 1477.2 Q1378.94 1485.92 1375.86 1490.53 Q1372.81 1495.11 1367 1495.11 Q1361.19 1495.11 1358.11 1490.53 Q1355.05 1485.92 1355.05 1477.2 Q1355.05 1468.45 1358.11 1463.86 Q1361.19 1459.26 1367 1459.26 Z" fill="#000000" fill-rule="evenodd" fill-opacity="1" /><polyline clip-path="url(#clip312)" style="stroke:#000000; stroke-linecap:butt; stroke-linejoin:round; stroke-width:2; stroke-opacity:0.1; fill:none" points="
  1449.48,1405.94 762.032,1135.86 
  "/>
<polyline clip-path="url(#clip312)" style="stroke:#000000; stroke-linecap:butt; stroke-linejoin:round; stroke-width:2; stroke-opacity:0.1; fill:none" points="
  762.032,1135.86 681.437,424.605 
  "/>
<polyline clip-path="url(#clip312)" style="stroke:#000000; stroke-linecap:butt; stroke-linejoin:round; stroke-width:2; stroke-opacity:0.1; fill:none" points="
  1519.45,1309.47 850.402,1061.32 
  "/>
<polyline clip-path="url(#clip312)" style="stroke:#000000; stroke-linecap:butt; stroke-linejoin:round; stroke-width:2; stroke-opacity:0.1; fill:none" points="
  850.402,1061.32 787.45,370.242 
  "/>
<polyline clip-path="url(#clip312)" style="stroke:#000000; stroke-linecap:butt; stroke-linejoin:round; stroke-width:2; stroke-opacity:0.1; fill:none" points="
  1583.51,1221.15 932.166,992.349 
  "/>
<polyline clip-path="url(#clip312)" style="stroke:#000000; stroke-linecap:butt; stroke-linejoin:round; stroke-width:2; stroke-opacity:0.1; fill:none" points="
  932.166,992.349 884.335,320.56 
  "/>
<polyline clip-path="url(#clip312)" style="stroke:#000000; stroke-linecap:butt; stroke-linejoin:round; stroke-width:2; stroke-opacity:0.1; fill:none" points="
  1642.39,1139.98 1008.04,928.351 
  "/>
<polyline clip-path="url(#clip312)" style="stroke:#000000; stroke-linecap:butt; stroke-linejoin:round; stroke-width:2; stroke-opacity:0.1; fill:none" points="
  1008.04,928.351 973.221,274.979 
  "/>
<polyline clip-path="url(#clip312)" style="stroke:#000000; stroke-linecap:butt; stroke-linejoin:round; stroke-width:2; stroke-opacity:0.1; fill:none" points="
  1696.69,1065.12 1078.63,868.805 
  "/>
<polyline clip-path="url(#clip312)" style="stroke:#000000; stroke-linecap:butt; stroke-linejoin:round; stroke-width:2; stroke-opacity:0.1; fill:none" points="
  1078.63,868.805 1055.06,233.012 
  "/>
<polyline clip-path="url(#clip310)" style="stroke:#000000; stroke-linecap:butt; stroke-linejoin:round; stroke-width:4; stroke-opacity:1; fill:none" points="
  1410.89,1459.14 1735.86,1011.12 
  "/>
<polyline clip-path="url(#clip310)" style="stroke:#000000; stroke-linecap:butt; stroke-linejoin:round; stroke-width:4; stroke-opacity:1; fill:none" points="
  1449.48,1405.94 1440.08,1402.25 
  "/>
<polyline clip-path="url(#clip310)" style="stroke:#000000; stroke-linecap:butt; stroke-linejoin:round; stroke-width:4; stroke-opacity:1; fill:none" points="
  1519.45,1309.47 1510.36,1306.1 
  "/>
<polyline clip-path="url(#clip310)" style="stroke:#000000; stroke-linecap:butt; stroke-linejoin:round; stroke-width:4; stroke-opacity:1; fill:none" points="
  1583.51,1221.15 1574.71,1218.05 
  "/>
<polyline clip-path="url(#clip310)" style="stroke:#000000; stroke-linecap:butt; stroke-linejoin:round; stroke-width:4; stroke-opacity:1; fill:none" points="
  1642.39,1139.98 1633.85,1137.13 
  "/>
<polyline clip-path="url(#clip310)" style="stroke:#000000; stroke-linecap:butt; stroke-linejoin:round; stroke-width:4; stroke-opacity:1; fill:none" points="
  1696.69,1065.12 1688.4,1062.49 
  "/>
<path clip-path="url(#clip310)" d="M1470.42 1426.16 L1500.09 1426.16 L1500.09 1430.1 L1470.42 1430.1 L1470.42 1426.16 Z" fill="#000000" fill-rule="evenodd" fill-opacity="1" /><path clip-path="url(#clip310)" d="M1514.21 1439.06 L1530.53 1439.06 L1530.53 1442.99 L1508.59 1442.99 L1508.59 1439.06 Q1511.25 1436.3 1515.83 1431.67 Q1520.44 1427.02 1521.62 1425.68 Q1523.87 1423.15 1524.75 1421.42 Q1525.65 1419.66 1525.65 1417.97 Q1525.65 1415.21 1523.7 1413.48 Q1521.78 1411.74 1518.68 1411.74 Q1516.48 1411.74 1514.03 1412.51 Q1511.6 1413.27 1508.82 1414.82 L1508.82 1410.1 Q1511.64 1408.96 1514.1 1408.39 Q1516.55 1407.81 1518.59 1407.81 Q1523.96 1407.81 1527.15 1410.49 Q1530.35 1413.18 1530.35 1417.67 Q1530.35 1419.8 1529.54 1421.72 Q1528.75 1423.62 1526.64 1426.21 Q1526.07 1426.88 1522.96 1430.1 Q1519.86 1433.29 1514.21 1439.06 Z" fill="#000000" fill-rule="evenodd" fill-opacity="1" /><path clip-path="url(#clip310)" d="M1550.35 1411.51 Q1546.74 1411.51 1544.91 1415.07 Q1543.1 1418.62 1543.1 1425.75 Q1543.1 1432.85 1544.91 1436.42 Q1546.74 1439.96 1550.35 1439.96 Q1553.98 1439.96 1555.79 1436.42 Q1557.62 1432.85 1557.62 1425.75 Q1557.62 1418.62 1555.79 1415.07 Q1553.98 1411.51 1550.35 1411.51 M1550.35 1407.81 Q1556.16 1407.81 1559.21 1412.41 Q1562.29 1417 1562.29 1425.75 Q1562.29 1434.47 1559.21 1439.08 Q1556.16 1443.66 1550.35 1443.66 Q1544.54 1443.66 1541.46 1439.08 Q1538.4 1434.47 1538.4 1425.75 Q1538.4 1417 1541.46 1412.41 Q1544.54 1407.81 1550.35 1407.81 Z" fill="#000000" fill-rule="evenodd" fill-opacity="1" /><path clip-path="url(#clip310)" d="M1540.39 1329.7 L1570.06 1329.7 L1570.06 1333.63 L1540.39 1333.63 L1540.39 1329.7 Z" fill="#000000" fill-rule="evenodd" fill-opacity="1" /><path clip-path="url(#clip310)" d="M1580.97 1342.59 L1588.61 1342.59 L1588.61 1316.22 L1580.3 1317.89 L1580.3 1313.63 L1588.56 1311.97 L1593.24 1311.97 L1593.24 1342.59 L1600.87 1342.59 L1600.87 1346.53 L1580.97 1346.53 L1580.97 1342.59 Z" fill="#000000" fill-rule="evenodd" fill-opacity="1" /><path clip-path="url(#clip310)" d="M1620.32 1315.04 Q1616.71 1315.04 1614.88 1318.61 Q1613.07 1322.15 1613.07 1329.28 Q1613.07 1336.39 1614.88 1339.95 Q1616.71 1343.49 1620.32 1343.49 Q1623.95 1343.49 1625.76 1339.95 Q1627.59 1336.39 1627.59 1329.28 Q1627.59 1322.15 1625.76 1318.61 Q1623.95 1315.04 1620.32 1315.04 M1620.32 1311.34 Q1626.13 1311.34 1629.18 1315.95 Q1632.26 1320.53 1632.26 1329.28 Q1632.26 1338.01 1629.18 1342.61 Q1626.13 1347.2 1620.32 1347.2 Q1614.51 1347.2 1611.43 1342.61 Q1608.37 1338.01 1608.37 1329.28 Q1608.37 1320.53 1611.43 1315.95 Q1614.51 1311.34 1620.32 1311.34 Z" fill="#000000" fill-rule="evenodd" fill-opacity="1" /><path clip-path="url(#clip310)" d="M1616.4 1226.72 Q1612.79 1226.72 1610.96 1230.28 Q1609.15 1233.83 1609.15 1240.96 Q1609.15 1248.06 1610.96 1251.63 Q1612.79 1255.17 1616.4 1255.17 Q1620.03 1255.17 1621.84 1251.63 Q1623.67 1248.06 1623.67 1240.96 Q1623.67 1233.83 1621.84 1230.28 Q1620.03 1226.72 1616.4 1226.72 M1616.4 1223.02 Q1622.21 1223.02 1625.26 1227.62 Q1628.34 1232.21 1628.34 1240.96 Q1628.34 1249.68 1625.26 1254.29 Q1622.21 1258.87 1616.4 1258.87 Q1610.59 1258.87 1607.51 1254.29 Q1604.45 1249.68 1604.45 1240.96 Q1604.45 1232.21 1607.51 1227.62 Q1610.59 1223.02 1616.4 1223.02 Z" fill="#000000" fill-rule="evenodd" fill-opacity="1" /><path clip-path="url(#clip310)" d="M1664 1173.09 L1671.64 1173.09 L1671.64 1146.73 L1663.33 1148.39 L1663.33 1144.14 L1671.6 1142.47 L1676.27 1142.47 L1676.27 1173.09 L1683.91 1173.09 L1683.91 1177.03 L1664 1177.03 L1664 1173.09 Z" fill="#000000" fill-rule="evenodd" fill-opacity="1" /><path clip-path="url(#clip310)" d="M1703.35 1145.55 Q1699.74 1145.55 1697.91 1149.11 Q1696.11 1152.65 1696.11 1159.78 Q1696.11 1166.89 1697.91 1170.45 Q1699.74 1174 1703.35 1174 Q1706.99 1174 1708.79 1170.45 Q1710.62 1166.89 1710.62 1159.78 Q1710.62 1152.65 1708.79 1149.11 Q1706.99 1145.55 1703.35 1145.55 M1703.35 1141.84 Q1709.16 1141.84 1712.22 1146.45 Q1715.3 1151.03 1715.3 1159.78 Q1715.3 1168.51 1712.22 1173.12 Q1709.16 1177.7 1703.35 1177.7 Q1697.54 1177.7 1694.47 1173.12 Q1691.41 1168.51 1691.41 1159.78 Q1691.41 1151.03 1694.47 1146.45 Q1697.54 1141.84 1703.35 1141.84 Z" fill="#000000" fill-rule="evenodd" fill-opacity="1" /><path clip-path="url(#clip310)" d="M1723.25 1098.24 L1739.57 1098.24 L1739.57 1102.17 L1717.63 1102.17 L1717.63 1098.24 Q1720.29 1095.48 1724.87 1090.85 Q1729.48 1086.2 1730.66 1084.86 Q1732.9 1082.34 1733.78 1080.6 Q1734.69 1078.84 1734.69 1077.15 Q1734.69 1074.4 1732.74 1072.66 Q1730.82 1070.92 1727.72 1070.92 Q1725.52 1070.92 1723.07 1071.69 Q1720.64 1072.45 1717.86 1074 L1717.86 1069.28 Q1720.68 1068.15 1723.14 1067.57 Q1725.59 1066.99 1727.63 1066.99 Q1733 1066.99 1736.19 1069.67 Q1739.39 1072.36 1739.39 1076.85 Q1739.39 1078.98 1738.58 1080.9 Q1737.79 1082.8 1735.68 1085.39 Q1735.1 1086.06 1732 1089.28 Q1728.9 1092.47 1723.25 1098.24 Z" fill="#000000" fill-rule="evenodd" fill-opacity="1" /><path clip-path="url(#clip310)" d="M1759.39 1070.69 Q1755.78 1070.69 1753.95 1074.26 Q1752.14 1077.8 1752.14 1084.93 Q1752.14 1092.03 1753.95 1095.6 Q1755.78 1099.14 1759.39 1099.14 Q1763.02 1099.14 1764.83 1095.6 Q1766.65 1092.03 1766.65 1084.93 Q1766.65 1077.8 1764.83 1074.26 Q1763.02 1070.69 1759.39 1070.69 M1759.39 1066.99 Q1765.2 1066.99 1768.25 1071.59 Q1771.33 1076.18 1771.33 1084.93 Q1771.33 1093.65 1768.25 1098.26 Q1765.2 1102.84 1759.39 1102.84 Q1753.58 1102.84 1750.5 1098.26 Q1747.44 1093.65 1747.44 1084.93 Q1747.44 1076.18 1750.5 1071.59 Q1753.58 1066.99 1759.39 1066.99 Z" fill="#000000" fill-rule="evenodd" fill-opacity="1" /><polyline clip-path="url(#clip312)" style="stroke:#000000; stroke-linecap:butt; stroke-linejoin:round; stroke-width:2; stroke-opacity:0.1; fill:none" points="
  711.497,1159.09 1129.54,809.958 
  "/>
<polyline clip-path="url(#clip312)" style="stroke:#000000; stroke-linecap:butt; stroke-linejoin:round; stroke-width:2; stroke-opacity:0.1; fill:none" points="
  1129.54,809.958 1737.7,994.447 
  "/>
<polyline clip-path="url(#clip312)" style="stroke:#000000; stroke-linecap:butt; stroke-linejoin:round; stroke-width:2; stroke-opacity:0.1; fill:none" points="
  695.768,1034.05 1126.71,699.561 
  "/>
<polyline clip-path="url(#clip312)" style="stroke:#000000; stroke-linecap:butt; stroke-linejoin:round; stroke-width:2; stroke-opacity:0.1; fill:none" points="
  1126.71,699.561 1750.85,875.873 
  "/>
<polyline clip-path="url(#clip312)" style="stroke:#000000; stroke-linecap:butt; stroke-linejoin:round; stroke-width:2; stroke-opacity:0.1; fill:none" points="
  679.086,901.442 1123.76,583.746 
  "/>
<polyline clip-path="url(#clip312)" style="stroke:#000000; stroke-linecap:butt; stroke-linejoin:round; stroke-width:2; stroke-opacity:0.1; fill:none" points="
  1123.76,583.746 1764.72,750.767 
  "/>
<polyline clip-path="url(#clip312)" style="stroke:#000000; stroke-linecap:butt; stroke-linejoin:round; stroke-width:2; stroke-opacity:0.1; fill:none" points="
  661.364,760.564 1120.65,462.102 
  "/>
<polyline clip-path="url(#clip312)" style="stroke:#000000; stroke-linecap:butt; stroke-linejoin:round; stroke-width:2; stroke-opacity:0.1; fill:none" points="
  1120.65,462.102 1779.37,618.575 
  "/>
<polyline clip-path="url(#clip312)" style="stroke:#000000; stroke-linecap:butt; stroke-linejoin:round; stroke-width:2; stroke-opacity:0.1; fill:none" points="
  642.501,610.615 1117.38,334.18 
  "/>
<polyline clip-path="url(#clip312)" style="stroke:#000000; stroke-linecap:butt; stroke-linejoin:round; stroke-width:2; stroke-opacity:0.1; fill:none" points="
  1117.38,334.18 1794.88,478.677 
  "/>
<polyline clip-path="url(#clip310)" style="stroke:#000000; stroke-linecap:butt; stroke-linejoin:round; stroke-width:4; stroke-opacity:1; fill:none" points="
  713.703,1176.62 622.88,454.634 
  "/>
<polyline clip-path="url(#clip310)" style="stroke:#000000; stroke-linecap:butt; stroke-linejoin:round; stroke-width:4; stroke-opacity:1; fill:none" points="
  711.497,1159.09 717.597,1154 
  "/>
<polyline clip-path="url(#clip310)" style="stroke:#000000; stroke-linecap:butt; stroke-linejoin:round; stroke-width:4; stroke-opacity:1; fill:none" points="
  695.768,1034.05 702.088,1029.14 
  "/>
<polyline clip-path="url(#clip310)" style="stroke:#000000; stroke-linecap:butt; stroke-linejoin:round; stroke-width:4; stroke-opacity:1; fill:none" points="
  679.086,901.442 685.644,896.757 
  "/>
<polyline clip-path="url(#clip310)" style="stroke:#000000; stroke-linecap:butt; stroke-linejoin:round; stroke-width:4; stroke-opacity:1; fill:none" points="
  661.364,760.564 668.177,756.137 
  "/>
<polyline clip-path="url(#clip310)" style="stroke:#000000; stroke-linecap:butt; stroke-linejoin:round; stroke-width:4; stroke-opacity:1; fill:none" points="
  642.501,610.615 649.588,606.49 
  "/>
<path clip-path="url(#clip310)" d="M670.753 1144.89 Q667.142 1144.89 665.313 1148.45 Q663.508 1152 663.508 1159.13 Q663.508 1166.23 665.313 1169.8 Q667.142 1173.34 670.753 1173.34 Q674.387 1173.34 676.193 1169.8 Q678.022 1166.23 678.022 1159.13 Q678.022 1152 676.193 1148.45 Q674.387 1144.89 670.753 1144.89 M670.753 1141.19 Q676.563 1141.19 679.619 1145.79 Q682.697 1150.38 682.697 1159.13 Q682.697 1167.85 679.619 1172.46 Q676.563 1177.04 670.753 1177.04 Q664.943 1177.04 661.864 1172.46 Q658.809 1167.85 658.809 1159.13 Q658.809 1150.38 661.864 1145.79 Q664.943 1141.19 670.753 1141.19 Z" fill="#000000" fill-rule="evenodd" fill-opacity="1" /><path clip-path="url(#clip310)" d="M615.672 1047.39 L623.31 1047.39 L623.31 1021.03 L615 1022.69 L615 1018.43 L623.264 1016.77 L627.94 1016.77 L627.94 1047.39 L635.579 1047.39 L635.579 1051.33 L615.672 1051.33 L615.672 1047.39 Z" fill="#000000" fill-rule="evenodd" fill-opacity="1" /><path clip-path="url(#clip310)" d="M655.023 1019.85 Q651.412 1019.85 649.583 1023.41 Q647.778 1026.95 647.778 1034.08 Q647.778 1041.19 649.583 1044.75 Q651.412 1048.3 655.023 1048.3 Q658.657 1048.3 660.463 1044.75 Q662.292 1041.19 662.292 1034.08 Q662.292 1026.95 660.463 1023.41 Q658.657 1019.85 655.023 1019.85 M655.023 1016.14 Q660.833 1016.14 663.889 1020.75 Q666.968 1025.33 666.968 1034.08 Q666.968 1042.81 663.889 1047.42 Q660.833 1052 655.023 1052 Q649.213 1052 646.134 1047.42 Q643.079 1042.81 643.079 1034.08 Q643.079 1025.33 646.134 1020.75 Q649.213 1016.14 655.023 1016.14 Z" fill="#000000" fill-rule="evenodd" fill-opacity="1" /><path clip-path="url(#clip310)" d="M602.208 914.787 L618.527 914.787 L618.527 918.722 L596.583 918.722 L596.583 914.787 Q599.245 912.032 603.828 907.402 Q608.435 902.75 609.615 901.407 Q611.861 898.884 612.74 897.148 Q613.643 895.389 613.643 893.699 Q613.643 890.944 611.698 889.208 Q609.777 887.472 606.675 887.472 Q604.476 887.472 602.023 888.236 Q599.592 889 596.814 890.551 L596.814 885.829 Q599.638 884.694 602.092 884.116 Q604.546 883.537 606.583 883.537 Q611.953 883.537 615.148 886.222 Q618.342 888.907 618.342 893.398 Q618.342 895.528 617.532 897.449 Q616.745 899.347 614.638 901.94 Q614.06 902.611 610.958 905.828 Q607.856 909.023 602.208 914.787 Z" fill="#000000" fill-rule="evenodd" fill-opacity="1" /><path clip-path="url(#clip310)" d="M638.342 887.241 Q634.731 887.241 632.902 890.805 Q631.097 894.347 631.097 901.477 Q631.097 908.583 632.902 912.148 Q634.731 915.689 638.342 915.689 Q641.976 915.689 643.782 912.148 Q645.61 908.583 645.61 901.477 Q645.61 894.347 643.782 890.805 Q641.976 887.241 638.342 887.241 M638.342 883.537 Q644.152 883.537 647.208 888.143 Q650.286 892.727 650.286 901.477 Q650.286 910.203 647.208 914.81 Q644.152 919.393 638.342 919.393 Q632.532 919.393 629.453 914.81 Q626.397 910.203 626.397 901.477 Q626.397 892.727 629.453 888.143 Q632.532 883.537 638.342 883.537 Z" fill="#000000" fill-rule="evenodd" fill-opacity="1" /><path clip-path="url(#clip310)" d="M594.625 759.21 Q597.981 759.927 599.856 762.196 Q601.754 764.464 601.754 767.798 Q601.754 772.913 598.236 775.714 Q594.717 778.515 588.236 778.515 Q586.06 778.515 583.745 778.075 Q581.454 777.659 579 776.802 L579 772.288 Q580.944 773.423 583.259 774.001 Q585.574 774.58 588.097 774.58 Q592.495 774.58 594.787 772.844 Q597.102 771.108 597.102 767.798 Q597.102 764.742 594.949 763.029 Q592.819 761.293 589 761.293 L584.972 761.293 L584.972 757.45 L589.185 757.45 Q592.634 757.45 594.463 756.085 Q596.291 754.696 596.291 752.103 Q596.291 749.441 594.393 748.029 Q592.518 746.594 589 746.594 Q587.079 746.594 584.879 747.011 Q582.68 747.427 580.042 748.307 L580.042 744.14 Q582.704 743.4 585.018 743.029 Q587.356 742.659 589.416 742.659 Q594.741 742.659 597.842 745.089 Q600.944 747.497 600.944 751.617 Q600.944 754.487 599.301 756.478 Q597.657 758.446 594.625 759.21 Z" fill="#000000" fill-rule="evenodd" fill-opacity="1" /><path clip-path="url(#clip310)" d="M620.62 746.363 Q617.009 746.363 615.18 749.927 Q613.375 753.469 613.375 760.599 Q613.375 767.705 615.18 771.27 Q617.009 774.811 620.62 774.811 Q624.254 774.811 626.06 771.27 Q627.888 767.705 627.888 760.599 Q627.888 753.469 626.06 749.927 Q624.254 746.363 620.62 746.363 M620.62 742.659 Q626.43 742.659 629.486 747.265 Q632.564 751.849 632.564 760.599 Q632.564 769.325 629.486 773.932 Q626.43 778.515 620.62 778.515 Q614.81 778.515 611.731 773.932 Q608.676 769.325 608.676 760.599 Q608.676 751.849 611.731 747.265 Q614.81 742.659 620.62 742.659 Z" fill="#000000" fill-rule="evenodd" fill-opacity="1" /><path clip-path="url(#clip310)" d="M574.442 597.409 L562.637 615.858 L574.442 615.858 L574.442 597.409 M573.216 593.335 L579.095 593.335 L579.095 615.858 L584.026 615.858 L584.026 619.747 L579.095 619.747 L579.095 627.895 L574.442 627.895 L574.442 619.747 L558.841 619.747 L558.841 615.233 L573.216 593.335 Z" fill="#000000" fill-rule="evenodd" fill-opacity="1" /><path clip-path="url(#clip310)" d="M601.757 596.414 Q598.146 596.414 596.317 599.979 Q594.512 603.52 594.512 610.65 Q594.512 617.757 596.317 621.321 Q598.146 624.863 601.757 624.863 Q605.391 624.863 607.197 621.321 Q609.026 617.757 609.026 610.65 Q609.026 603.52 607.197 599.979 Q605.391 596.414 601.757 596.414 M601.757 592.71 Q607.567 592.71 610.623 597.317 Q613.701 601.9 613.701 610.65 Q613.701 619.377 610.623 623.983 Q607.567 628.567 601.757 628.567 Q595.947 628.567 592.868 623.983 Q589.813 619.377 589.813 610.65 Q589.813 601.9 592.868 597.317 Q595.947 592.71 601.757 592.71 Z" fill="#000000" fill-rule="evenodd" fill-opacity="1" /><polyline clip-path="url(#clip312)" style="stroke:#009af9; stroke-linecap:butt; stroke-linejoin:round; stroke-width:4; stroke-opacity:1; fill:none" points="
  1239.9,1083.31 1239.91,1083.3 1239.92,1083.2 1240.05,1082.47 1240.42,1081.07 1241.12,1079.34 1242.41,1077.24 1244.73,1074.75 1248.79,1071.73 1255.9,1067.79 
  1268.63,1061.75 1291.01,1051.33 1328.22,1032.37 1391.22,994.143 1493.19,913.884 1634.74,753.389 1739.93,523.85 1643.38,444.756 1423.06,561.698 1255.41,668.717 
  1140.18,729.027 1087.42,750.913 1053.61,765.456 1032.37,773.397 1009.37,773.478 988.677,759.158 982.109,732.015 999.959,716.605 1028.68,732.466 1035.16,759.608 
  1011.91,776.066 983.066,754.393 988.772,718.242 1021.37,722.34 1037.52,757.144 1017.05,778.124 981.449,755.138 988.445,715.732 1024.87,722.961 1039.07,761.157 
  1012.69,780.35 977.328,750.249 992.128,711.346 1030.49,726.072 1040.31,765.727 1006.95,781.715 973.752,745.349 995.329,707.936 1034.76,728.19 1041.85,769.117 
  1003.42,783.189 970.875,742.828 996.297,705.055 1037.3,727.918 1044.33,770.654 1003.58,786.051 968.508,744.281 994.021,702.314 1037.7,724.332 1047.99,769.583 
  1008.95,790.559 967.499,751.369 987.348,700.428 1034.77,716.831 1052.32,764.951 1020.34,794.756 970.181,764.356 975.707,702.421 1026.59,705.97 1055.88,756.784 
  1035.09,795.043 977.174,778.81 962.797,712.517 1013.32,695.287 1056.69,743.247 1049.92,788.935 986.028,790.907 954.748,729.386 999.462,688.217 1050.61,722.39 
  1061.45,776.326 1016.35,806.384 959.933,766.841 969.671,690.94 1029.59,695.664 1066.67,752.842 1050.82,801.541 983.602,798.949 946.321,725.919 995.471,678.96 
  1054.57,714.812 1071.69,773.449 1034.45,815.216 967.322,791.203 947.544,700.928 1009.84,676.455 1069.05,731.19 1073.58,788.673 1014.83,821.549 949.018,775.066 
  958.194,678.287 1029.56,679.623 1079.31,744.065 1073.21,804.17 995.027,822.744 933.587,753.445 971.5,663.616 1046.07,684.48 1087.74,752.585 1075.78,814.085 
  1003.74,833.105 929.916,763.701 957.356,660.691 1039.42,671.548 1091.66,741.014 1089.84,808.458 1013.14,843.588 933.127,787.268 941.185,660.286 1029.35,656.843 
  1095.76,730.463 1102.51,802.985 1045.6,853.379 958.284,828.558 908.931,692.888 992.27,635.646 1081.01,690.001 1114.94,765.352 1102.74,830.956 1043.56,866.001 
  941.693,828.314 898.32,686.703 989.089,623.632 1083.55,677.792 1124.73,755.696 1122.64,823.909 1077.43,872.717 988.511,873.186 884.267,754.69 930.604,619.294 
  1045.33,629.638 1120.84,709.691 1144.56,791.29 1127.07,858.025 1077.7,894.811 960.537,880.757 862.251,736.518 937.208,593.047 1059.39,618.647 1137.28,704.108 
  1165.33,784.952 1159.44,856.321 1132.3,898.56 1056.81,929.97 907.422,876.497 834.166,679.917 944.323,559.481 1079.33,602.939 1157.37,688.65 1190.24,758.939 
  1202.96,821.112 1204.07,854.749 1199.7,893.321 1189.76,923.724 1164.81,957.116 1095.99,988.998 951.377,974.112 786.322,798.21 842.812,527.233 1033.07,513.47 
  1171.81,619.588 1251.4,738.857 1278.03,793.891 1305.27,832.138 1345.2,847.57 1420.84,824.908 1538.64,715.451 1566.3,607.64 1460.59,622.747 1343.57,698.776 
  1286.85,758.594 1269.62,803.609 1273.9,845.971 1294.08,872.247 1345.02,880.468 1462.19,821.444 1585.2,673.057 1561.62,571.224 1415.36,632.861 1296.49,717.877 
  1242.88,780.732 1225.55,828.633 1219.35,867.484 1215.7,898.697 1211.42,925.945 1203.32,953.334 1186.08,980.176 1143.92,1007.68 1038.9,1023.59 847.566,943.584 
  741.792,645.438 895.938,465.043 1085.69,512.506 1195.58,608.341 1267.34,704.839 1301.53,761.652 1331.34,797.451 1370.28,810.263 1434.14,788.859 1520.14,704.28 
  1529.06,632.179 1447.63,648.188 1354.57,713.498 1318.05,764.372 1318.97,806.553 1356.99,826.734 1433.05,800.936 1536.12,693.827 1528.63,617.156 1421.36,655.982 
  1330.2,727.685 1298.67,784.74 1307.49,826.785 1346.65,844.622 1434.84,813.513 1550.04,692.062 1543.12,601.979 1421.04,646.986 1317.84,725.23 1278.34,787.018 
  1277.25,831.495 1297.86,862.979 1347.03,872.264 1464.14,813.619 1582.63,666.175 1546.65,578.666 1404.39,643.474 1296.49,723.739 1249.6,784.045 1235.96,831.413 
  1234.16,866.149 1236.86,896.258 1244.09,922.414 1260.46,943.694 1308.03,950.815 1410.65,907.403 1580.57,747.631 1656.38,541.762 1514.75,548.109 1332.87,657.486 
  1234.62,725.42 1175.28,778.858 1144.08,820.592 1115.06,854.461 1067.67,880.328 986.53,874.888 886.166,768.833 908.064,633.539 1016.64,613.675 1107.49,685.263 
  1143.37,763.665 1143.02,829.45 1112.05,879.424 1041.73,904.144 908.686,843.132 863.392,670.797 978.682,585.478 1091.82,641.873 1151.81,727.457 1169.84,797.164 
  1162.47,860.606 1136.18,901.813 1065.6,933.917 917.617,890.942 827.398,702.299 923.99,558.497 1064.05,587.368 1151.85,672.924 1191.68,748.428 1208.63,817.154 
  1211.6,858.134 1210.22,892.547 1204.87,923.701 1192.74,953.405 1160.17,985.979 1079.12,1011.44 906.354,973.059 751.827,735.334 847.932,497.055 1042.14,499.007 
  1173.96,598.452 1251.9,700.527 1287.25,762.788 1315.69,803.722 1351.43,822.383 1412.34,810.391 1507.33,734.375 1549.98,635.98 1478.67,627.297 1373.37,689.215 
  1316.11,746.221 1298.65,794.594 1320.8,836.685 1366.59,841.964 1481.44,776.467 1565.79,651.818 1503.56,607.738 1386.34,669.695 1306.6,738.231 1277.91,792.165 
  1282.51,842.018 1306.66,866.234 1372.8,864.967 1503.94,776.461 1593.76,624.691 1522.03,585.376 1384.99,656.871 1294.34,727.061 1254.25,778.063 1238.59,827.869 
  1236.88,860.151 1240.23,891.406 1248.67,916.884 1268.39,937.646 1324.08,940.084 1441.23,880.911 1604.91,705.008 1633.83,529.697 1450.86,586.089 1285.2,693.155 
  1198.64,762.009 1162.88,807.283 1135.13,847.313 1097.33,879.622 1028.47,894.017 913.435,834.344 871.615,680.49 967.396,595.764 1078.7,641.454 1138.22,720.036 
  1158.02,792.428 1144.42,863.473 1109.21,900.745 1008.79,915.947 873.095,817.262 870.024,619.711 1008.82,576.996 1125.88,661.427 1171.16,739.212 1185.51,792.124 
  1187.22,846.939 1177.74,887.042 1152.58,925.306 1093.45,957.09 942.135,937.276 808.989,770.276 864.384,554.998 1025.25,540.333 1148.52,631.874 1208.08,720.091 
  1236.25,790.2 1251.68,838.687 1266.34,870.731 1292.5,894.117 1342.75,896.923 1452.25,842.015 1585.76,693.423 1596.07,560.37 1447.4,606.229 1301.9,702.829 
  1236.03,765.52 1208.4,815.531 1193.43,858.578 1178.63,893.689 1150.78,929.344 1094.58,957.969 965.021,948.439 818.106,800.655 853.831,562.55 1021.32,537.747 
  1153.03,635.853 1215.66,733.734 1240.64,800.166 1255.89,845.693 1273.26,876.687 1305.45,895.798 1370.49,887.047 1504.75,795.08 1611.97,631.657 1542.35,563.718 
  1391.67,640.532 1281.47,720.182 1228.2,778.739 1205.28,829.001 1192.78,867.071 1176.59,903.131 1146.95,936.946 1082.71,964.113 939.696,940.681 803.91,767.322 
  876.782,540.271 1042.24,543.447 1160.48,639.997 1220.47,735.653 1245.65,801.22 1261.48,843.931 1281.76,874.231 1318.52,889.665 1393.89,871.192 1532.2,760.012 
  1610.61,604.393 1508.34,579.768 1366.13,660.647 1273.68,732.341 1231.41,785.633 1211.56,839.347 1202.91,873.91 1191.29,908.76 1170.96,940.998 1125.83,972.07 
  1020.29,984.556 845.69,888.447 788.052,624.212 963.214,501.321 1115.88,572.864 1202.48,668.345 1249.22,751.215 1276.8,811.214 1299.55,842.084 1341.69,857.572 
  1415.47,835.43 1540.43,722.382 1578.07,604.902 1471.79,612.362 1349.36,688.589 1283.6,750.827 1260.61,794.803 1256.09,837.792 1263.98,869.572 1285.79,894.553 
  1335.52,900.866 1468.48,831.233 1598.11,673.778 1576.99,554.966 1417.93,622.326 1286.29,713.483 1220.63,783.947 1199.11,830.858 1184.31,870.251 1163.16,907.306 
  1122.6,940.511 1033.24,957.26 871.836,876.628 811.294,653.329 958.579,530.371 1099.08,589.693 1181.53,682.472 1220.67,761.406 1239.24,821.964 1249.61,857.104 
  1264.55,887.679 1289.77,907.106 1343.76,906.906 1458.3,845.579 1595.27,689.19 1602.99,550.938 1446.64,601.76 1295.39,701.646 1225.27,765.819 1195.47,815.164 
  1176.95,857.223 1154.48,893.969 1112.01,927.193 1024.69,940.709 872.815,854.238 830.112,647.636 968.884,547.315 1100.7,608.477 1174.16,697.76 1205.57,769.799 
  1219.17,834.418 1222.84,871.182 1224.91,902.755 1226.46,925.577 1228.81,947.555 1233.04,966.841 1242.45,983.428 1264.6,992.576 1319.14,982.271 1446.59,909.076 
  1625.1,714.83 1672.8,498.185 1463.84,560.044 1275.86,679.548 1169.96,748.47 1125.35,785.666 1090.72,818.104 1051.37,837.842 989.516,831.223 924.942,758.055 
  941.199,668.328 1017.2,656.711 1081.72,713.152 1100.41,777.987 1075.06,833.078 1008.17,846.199 922.068,773.143 937.261,658.713 1026.63,652.114 1095,721.646 
  1108.47,793.913 1069.92,849.757 991.417,851.607 903.467,745.379 950.87,636.728 1049.67,655.388 1109.05,730.22 1118.49,805.048 1068.96,865.183 986.57,862.71 
  889.856,735.743 948.929,622.598 1057.38,647.645 1119.69,726.247 1133.5,803.382 1094.91,871.096 1024.26,887.725 892.612,794.52 898.048,637.641 1021.03,610.931 
  1116.42,691.544 1150.47,777.956 1144.4,844.304 1107.89,891.006 1021.85,909.606 882.345,817.677 873.117,631.451 1007.78,584.766 1119.24,664.115 1167.55,752.801 
  1177.91,814.799 1169.13,870.361 1143.23,910.823 1075.72,943.682 921.153,906.46 816.711,717.245 905.948,551.995 1053.89,570.262 1151.74,657.169 1198.53,736.682 
  1220.36,805.726 1228.55,850.849 1234,884.272 1240.59,911.414 1252.53,934.491 1277.35,949.353 1335.11,943.09 1463.75,868.522 1620.64,685.291 1629.12,520.515 
  1442.75,588.141 1272.44,698.858 1187.13,767.166 1153.05,810.052 1123.18,848.705 1080.71,877.746 1004.05,881.865 894.438,792.275 894.996,647.271 1001.71,607.665 
  1102.52,676.661 1142.66,754.454 1146.62,821.945 1119.51,875.631 1057.73,904.997 926.54,863.225 856.382,698.229 958.789,583.262 1076.85,626.234 1146.78,712.223 
  1171.13,786.615 1166.81,857.997 1144.51,898.78 1080.24,935.23 939.062,909.859 825.037,733.024 901.55,562.756 1047.92,574.043 1146.97,660.857 1193.38,742.455 
  1212.08,808.75 1217.5,854.069 1218.68,887.91 1218.15,913.703 1216.03,939.471 1211.47,962.926 1199.4,988.925 1168.73,1014.99 1092.77,1037.57 918.743,1009.75 
  731.143,775.772 807.662,486.639 1026.09,465.167 1182.43,575.02 1274.48,686.786 1312.68,744.913 1346.07,782.309 1384.7,792.561 1445.92,768.038 1514.02,692.296 
  1505.22,642.973 1429.02,667.576 1358.17,723.819 1334.31,770.325 1351.88,802.435 1408.59,797.575 1498.13,727.471 1525.58,641.86 1446.06,653.355 1357.19,717.138 
  1324.78,768.906 1335.41,807.608 1386.8,813.844 1480.08,756.434 1541.93,649.204 1472.79,634.948 1373.44,694.746 1319.84,753.644 1311.5,800.496 1347.21,830.361 
  1414.43,814.701 1531.1,707.494 1542,616.382 1432.63,647.139 1332.59,721.491 1295,780.144 1297.63,824.057 1329.33,849.117 1401.13,836.885 1528.31,731.386 
  1570.18,609.589 1458.74,622.758 1342.58,698.456 1283.4,761.411 1267.09,806.109 1271.39,848.425 1291.11,875.131 1340.85,884.382 1458.46,826.969 1585.55,677.084 
  1567.45,568.371 1418.25,629.533 1294.89,716.933 1238.59,782.165 1220.73,830.048 1212.95,869.727 1207.09,899.794 1196.87,931.869 1177.56,961.332 1131.18,991.163 
  1019.81,1003.16 834.511,903.52 770.195,613.881 938.314,481.238 1109.77,548.725 1202.41,641.461 1259.82,729.821 1290.47,787.106 1317.1,819.727 1359.03,832.717 
  1430.14,808.277 1535.31,705.202 1550.22,615.865 1453.07,633.936 1345.05,706.761 1297.82,762.826 1287.46,808.357 1304.8,844.831 1346.59,856.981 1446.72,814.85 
  1561.64,686.656 1550.65,591.436 1422.06,640.273 1312.05,721.162 1266.4,783.639 1258.23,824.513 1265.02,862.653 1284.98,888.331 1334.55,897.061 1462.86,832.702 
  1594.6,675.386 1574.67,558.301 1416.44,625.081 1287.04,715.475 1223.1,787.08 1203.44,833.92 1190.2,873.473 1171.94,909.854 1136.35,943.839 1057.45,966.63 
  894.898,910.924 796.277,695.97 905.146,528.244 1062.58,555.13 1163.41,644.412 1217.52,730.726 1243.67,797.621 1258.91,840.365 1277.26,871.419 1309.45,889.676 
  1374.24,880.575 1503.94,791.322 1606.79,634.544 1541.37,567.749 1395.22,640.99 1286.87,719.616 1235.65,776.498 1213.61,826.925 1203.33,865.338 1192.77,898.926 
  1173.99,932.537 1135.62,963.76 1045.18,983.031 875.814,915.074 781.14,674.911 907.581,508.944 1073.13,545.467 1174.7,636.778 1233.14,726.568 1261.85,790.427 
  1281.33,829.503 1309.39,856.425 1357.41,861.499 1451.74,816.268 1565.42,688.609 1565.26,587.371 1441.15,625.832 1319.24,709.817 1272.02,760.517 1253.91,798.289 
  1248.45,833.625 1251.54,865.402 1262.55,892.421 1287.12,912.106 1349.6,909.442 1481.13,830.111 1613.73,658.814 1581.52,544.771 1415.33,618.277 1280.94,709.929 
  1210.95,778.375 1185.19,824.591 1165.69,863.962 1136.24,900.845 1080.75,928.858 965.116,916.519 840.527,776.378 883.142,582.804 1027.33,570.14 1138.36,658.23 
  1188.56,746.795 1204.27,807.42 1207.79,854.159 1205.35,890.21 1197.18,923.795 1178.72,955.615 1124.76,990.38 1001.32,997.553 812.887,870.578 791.935,572.039 
  995.308,491.357 1150.06,586.217 1232.95,688.437 1273.41,761.517 1300.71,808.038 1333.07,832.413 1389.35,829.742 1485.6,767.745 1561.39,650.718 1509.4,609.982 
  1396.38,665.988 1317.82,730.984 1286.14,784.632 1287.61,829.496 1311.73,856.19 1370.66,857.281 1492.17,780.591 1583.46,639.166 1511.54,594.083 1382.28,663.096 
  1294.42,734.607 1259.46,787.533 1250.99,836.421 1256.16,868.909 1273.46,897.385 1311.47,910.981 1425.57,868.748 1571.62,726.214 1615.86,558.537 1459.42,594.547 
  1308.74,691.691 1233.68,755.862 1199.01,807.383 1178.96,852.512 1158.33,888.704 1118.63,923.54 1039.85,941.424 887.839,871.381 824.364,672.758 952.572,547.237 
  1086.62,596.997 1167.53,686.934 1202.69,761.129 1217.71,824.954 1221.93,862.095 1224.14,894.394 1225.57,918.477 1227.23,939.476 1230.09,959.492 1235.77,977.168 
  1248.88,990.871 1280.09,994.15 1357.35,967.234 1510.96,854.817 1675.97,618.896 1640.01,487.121 1432.48,578.597 1261,688.443 1161.41,753.62 1121.86,787.255 
  1087.83,818.353 1048.95,836.737 987.935,828.878 925.938,756.462 942.421,669.54 1016.92,658.146 1080.28,713.344 1098.8,777.331 1073.5,831.797 1006.81,844.075 
  922.865,770.852 939.751,659.211 1027.77,654.492 1094.07,723.341 1106.27,794.881 1065.37,849.378 985.649,847.053 904.094,736.161 958.541,636.485 1054.75,661.521 
  1109.21,735.901 1115.04,808.757 1056.97,866.078 970.818,852.481 891.645,711.586 968.058,621.219 1070.81,661.797 1122.59,740.229 1128.8,813.018 1086.59,871.844 
  1007.76,881.809 887.603,775.256 913.14,627.317 1033.27,619.889 1119.55,702.125 1147.71,787.555 1134.82,853.592 1090.13,894.787 983.903,895.717 864.738,767.343 
  911.489,599.925 1042.78,604.334 1133.55,691.006 1168.76,778.467 1168.96,843.808 1148.29,891.445 1095.98,928.831 966.957,922.028 834.475,771.445 893.747,568.859 
  1045.1,573.899 1150.5,667.596 1197.49,757.786 1212.34,822.327 1215.63,865.271 1215.24,896.365 1212.18,926.462 1205.45,953.188 1187.87,982.455 1140.64,1012.23 
  1027.14,1025.62 824.98,925.239 748.489,603.806 926.305,458.337 1112.01,527.881 1210.69,622.042 1276.26,713.742 1309.41,767.374 1339.91,798.619 1382.69,806.204 
  1451.06,775.175 1528.8,683.529 1513.72,630.796 1424.87,662.479 1347.47,723.264 1318.54,773.959 1328.85,811.696 1374.92,821.702 1464.74,774.987 1545.63,663.856 
  1497.49,622.995 1392.39,676.915 1323.02,740.247 1302.43,792.346 1324.11,832.745 1374.23,836.56 1489.34,765.573 1563.79,642.211 1488.23,615.58 1374.92,680.122 
  1304.21,745.957 1281.98,797.186 1293.57,845.253 1325.24,863.409 1414.13,840.953 1544.24,722.514 1577.63,593.761 1451.34,620.034 1326.99,703.032 1274.21,756.767 
  1254.14,795.838 1247.77,833.76 1250.59,865.391 1261.5,893.256 1285.48,913.176 1347.64,911.23 1479.4,832.601 1614.17,659.773 1583.03,543.643 1415.12,617.834 
  1279.69,710.112 1208.36,780.096 1182.92,825.775 1162.5,865.535 1131.29,902.002 1071.56,928.398 949.007,906.21 836.61,753.093 901.364,573.423 1041.72,578.985 
  1142.13,666.067 1187.81,750.953 1202.23,811.671 1204.42,855.223 1200.15,893.658 1188.84,927.15 1161.57,960.95 1078.57,992.67 917.544,958.629 770.607,735.278 
  861.208,513.901 1044.23,518.135 1168.12,614.672 1238.39,712.875 1270.57,777.068 1294.27,818.76 1325.71,842.991 1380.41,841.718 1479.54,781.611 1567.85,657.942 
  1526.55,599.391 1407.82,653.226 1316.59,723.375 1276.87,779.487 1270.05,823.116 1281.97,858.03 1312.97,878.447 1387.66,866.235 1526.69,758.362 1601.59,606.516 
  1494.14,590.932 1358.39,670.676 1273.62,740.635 1238.95,791.084 1225.24,838.286 1221.1,870.706 1218.46,900.542 1215.99,924.033 1211.42,949.389 1202.62,973.033 
  1181.58,998.285 1131.02,1023.15 1004.16,1029.61 804.747,912.209 749.695,578.582 944.744,451.393 1128.81,533.681 1225.28,630.284 1286.77,717.17 1320.51,768.351 
  1352.3,794.835 1398.86,796.09 1468.98,754.997 1527.73,667.885 1492.67,637.806 1403.85,680.058 1344.41,734.158 1326.51,781.542 1351.33,811.864 1411.37,802.576 
  1509.41,720.533 1531.1,633.683 1442.54,650.849 1349.84,718.163 1315.67,771.973 1323.34,812.878 1368.49,826.248 1458.6,783.012 1548.1,666.6 1503.22,618.891 
  1393.82,673.702 1320.4,739.141 1297.52,792.781 1315.53,835.192 1360.98,844.119 1470.88,786.886 1565.2,657.983 1510.73,604.813 1390.05,666.455 1306.92,736.504 
  1276.43,791.939 1279.49,841.071 1302.11,867.051 1362.62,870.04 1490.79,791.202 1593.37,637.416 1537.47,579.865 1398.69,646.805 1299.13,720.795 1253.51,775.081 
  1236.4,822.468 1232.81,858.128 1233.69,886.307 1238.12,913.972 1247.31,936.625 1270.55,954.408 1330.16,949.629 1458.49,876.713 1624.06,685.197 1632,515.767 
  1436.69,589.519 1265.38,701.002 1181.75,766.767 1146.51,809.294 1115.45,846.616 1070.66,873.473 991.989,871.19 892.266,770.708 911.437,638.838 1017,619.221 
  1105.38,690.33 1138.58,768.021 1134.27,833.69 1096.68,880.479 1013.4,894.533 888.329,802.33 889.361,634.461 1012.46,599.938 1116.32,679.572 1156.42,764.9 
  1159,831.169 1135.57,883.174 1079.46,917.73 947.256,896.472 841.469,735.617 926.948,571.726 1061.21,597.96 1149.02,687.603 1185.09,768.794 1193.61,829.043 
  1189.24,874.461 1173.51,914.108 1136.32,950.178 1025.75,971.252 857.911,882.038 804.193,623.003 976.269,516.99 1121.11,592.576 1200.51,687.984 1239.63,766.822 
  1262.14,825.5 1280.31,857.301 1314.83,878.486 1377.64,870.319 1506.78,780.292 1599.69,631.202 1526.96,578.285 1388.13,650.383 1288.85,725.289 1245.04,778.338 
  1226.3,830.292 1221.01,865.777 1217.92,897.453 1215.07,922.127 1209.74,948.632 1199.4,973.269 1174.32,999.569 1113.41,1024.35 965.179,1017.52 769.133,851.383 
  790.612,518.228 1014.44,469.612 1182.06,585.561 1270.22,696.85 1307.86,756.897 1340.88,793.216 1383.13,802.166 1451.66,771.507 1526.3,681.704 1506.83,634.095 
  1418.68,668.5 1347.16,727.408 1322.72,777.087 1339.32,811.738 1392.58,812.985 1489.07,748.14 1542.4,644.589 1468.99,635.991 1370.06,696.94 1318.28,755.015 
  1310.42,801.316 1344.54,831.228 1410.41,817.617 1527.61,714.011 1546.57,617.454 1439.67,642.553 1337.18,716.004 1295.4,774.776 1293.71,819.353 1320.79,848.571 
  1381.96,845.955 1506.8,758.388 1576.76,625.933 1485.34,609.194 1364.97,680.033 1291.75,746.823 1266.72,795.97 1266.33,843.386 1281.25,872.372 1321.13,889.252 
  1413.97,859.909 1557.45,726.989 1601.74,578.27 1463.23,601.999 1325.19,690.431 1253.11,755.353 1223.55,805.459 1210.16,851.758 1202.19,884.684 1189.77,918.877 
  1167.06,950.303 1114.58,980.283 991.559,983.141 817.609,855.606 804.702,577.461 992.818,503.084 1144.75,595.409 1221.18,691.535 1260.37,766.847 1285.43,816.842 
  1312.72,844.65 1362.27,851.231 1451.86,808.583 1561.63,682.718 1552.74,594.473 1432,635.843 1321.14,714.874 1273.57,774.128 1262.49,815.131 1267.84,854.435 
  1286.86,880.677 1333.82,891.025 1449.66,838.106 1582.23,690.64 1582.64,564.609 1431.62,618.884 1295.65,712.497 1232.86,781.725 1213.42,829.04 1202.6,870.252 
  1191.59,903.775 1170.39,938.352 1126.48,969.258 1019.85,982.29 845.594,884.968 791.686,620.782 967.662,504.059 1118.62,577.587 1203.17,672.856 1248.2,754.684 
  1275.01,814.349 1297.26,845.048 1339.07,860.883 1412.77,839.409 1539.95,726.091 1581.9,604.381 1475.44,608.976 1351.16,685.442 1282.44,748.662 1257.98,792.074 
  1251.17,832.869 1255.56,865.955 1270.12,893.471 1302.89,909.914 1393.16,887.229 1537.16,769.972 1627.69,589.125 1529.49,561.359 1369.42,649.951 1269.79,722.264 
  1216.41,778.424 1190.78,827.246 1175.12,862.681 1150.1,900.405 1106.52,930.731 1011.16,939.806 864.293,844.169 834.198,633.343 975.953,547.116 1108.51,614.605 
  1177.84,702.78 1207.77,774.202 1220.48,835.667 1224.44,872.386 1227.1,903.09 1229.68,926.113 1234.38,948.894 1243.43,967.289 1264.88,979.604 1315.6,973.678 
  1435.97,909.274 1609.06,729.569 1671.07,512.765 1477.06,556.571 1293.97,672.119 1189.09,742.09 1139.91,784.445 1105.43,820.941 1068.32,845.48 1006.64,849.185 
  927.285,789.085 918.664,677.214 994.531,639.137 1080.31,693.462 1110.78,759.463 1102.29,823.855 1048.86,861.096 956.013,835.828 898.371,706.623 973.618,627.418 
  1069.24,667.626 1117.2,742.631 1121,813.084 1074.08,868.346 991.259,869.09 887.991,750.218 935.302,623.05 1047.49,636.077 1118.71,714.969 1139.09,795.151 
  1115.46,861.493 1057.9,892.463 930.635,852.132 868.958,692.709 971.768,595.058 1081.68,643.413 1142.63,728.474 1158.19,786.907 
  "/>
</svg>
