<?xml version="1.0" encoding="utf-8"?>
<svg xmlns="http://www.w3.org/2000/svg" xmlns:xlink="http://www.w3.org/1999/xlink" width="600" height="400" viewBox="0 0 2400 1600">
<defs>
  <clipPath id="clip040">
    <rect x="0" y="0" width="2400" height="1600"/>
  </clipPath>
</defs>
<path clip-path="url(#clip040)" d="
M0 1600 L2400 1600 L2400 0 L0 0  Z
  " fill="#ffffff" fill-rule="evenodd" fill-opacity="1"/>
<defs>
  <clipPath id="clip041">
    <rect x="480" y="0" width="1681" height="1600"/>
  </clipPath>
</defs>
<path clip-path="url(#clip040)" d="
M179.654 1486.45 L2352.76 1486.45 L2352.76 47.2441 L179.654 47.2441  Z
  " fill="#ffffff" fill-rule="evenodd" fill-opacity="1"/>
<defs>
  <clipPath id="clip042">
    <rect x="179" y="47" width="2174" height="1440"/>
  </clipPath>
</defs>
<polyline clip-path="url(#clip042)" style="stroke:#000000; stroke-width:2; stroke-opacity:0.1; fill:none" points="
  241.157,1486.45 241.157,47.2441 
  "/>
<polyline clip-path="url(#clip042)" style="stroke:#000000; stroke-width:2; stroke-opacity:0.1; fill:none" points="
  569.079,1486.45 569.079,47.2441 
  "/>
<polyline clip-path="url(#clip042)" style="stroke:#000000; stroke-width:2; stroke-opacity:0.1; fill:none" points="
  897.002,1486.45 897.002,47.2441 
  "/>
<polyline clip-path="url(#clip042)" style="stroke:#000000; stroke-width:2; stroke-opacity:0.1; fill:none" points="
  1224.92,1486.45 1224.92,47.2441 
  "/>
<polyline clip-path="url(#clip042)" style="stroke:#000000; stroke-width:2; stroke-opacity:0.1; fill:none" points="
  1552.85,1486.45 1552.85,47.2441 
  "/>
<polyline clip-path="url(#clip042)" style="stroke:#000000; stroke-width:2; stroke-opacity:0.1; fill:none" points="
  1880.77,1486.45 1880.77,47.2441 
  "/>
<polyline clip-path="url(#clip042)" style="stroke:#000000; stroke-width:2; stroke-opacity:0.1; fill:none" points="
  2208.69,1486.45 2208.69,47.2441 
  "/>
<polyline clip-path="url(#clip040)" style="stroke:#000000; stroke-width:4; stroke-opacity:1; fill:none" points="
  179.654,1486.45 2352.76,1486.45 
  "/>
<polyline clip-path="url(#clip040)" style="stroke:#000000; stroke-width:4; stroke-opacity:1; fill:none" points="
  241.157,1486.45 241.157,1469.18 
  "/>
<polyline clip-path="url(#clip040)" style="stroke:#000000; stroke-width:4; stroke-opacity:1; fill:none" points="
  569.079,1486.45 569.079,1469.18 
  "/>
<polyline clip-path="url(#clip040)" style="stroke:#000000; stroke-width:4; stroke-opacity:1; fill:none" points="
  897.002,1486.45 897.002,1469.18 
  "/>
<polyline clip-path="url(#clip040)" style="stroke:#000000; stroke-width:4; stroke-opacity:1; fill:none" points="
  1224.92,1486.45 1224.92,1469.18 
  "/>
<polyline clip-path="url(#clip040)" style="stroke:#000000; stroke-width:4; stroke-opacity:1; fill:none" points="
  1552.85,1486.45 1552.85,1469.18 
  "/>
<polyline clip-path="url(#clip040)" style="stroke:#000000; stroke-width:4; stroke-opacity:1; fill:none" points="
  1880.77,1486.45 1880.77,1469.18 
  "/>
<polyline clip-path="url(#clip040)" style="stroke:#000000; stroke-width:4; stroke-opacity:1; fill:none" points="
  2208.69,1486.45 2208.69,1469.18 
  "/>
<path clip-path="url(#clip040)" d="M 0 0 M241.157 1515.64 Q237.545 1515.64 235.717 1519.2 Q233.911 1522.75 233.911 1529.87 Q233.911 1536.98 235.717 1540.55 Q237.545 1544.09 241.157 1544.09 Q244.791 1544.09 246.596 1540.55 Q248.425 1536.98 248.425 1529.87 Q248.425 1522.75 246.596 1519.2 Q244.791 1515.64 241.157 1515.64 M241.157 1511.93 Q246.967 1511.93 250.022 1516.54 Q253.101 1521.12 253.101 1529.87 Q253.101 1538.6 250.022 1543.21 Q246.967 1547.79 241.157 1547.79 Q235.346 1547.79 232.268 1543.21 Q229.212 1538.6 229.212 1529.87 Q229.212 1521.12 232.268 1516.54 Q235.346 1511.93 241.157 1511.93 Z" fill="#000000" fill-rule="evenodd" fill-opacity="1" /><path clip-path="url(#clip040)" d="M 0 0 M559.461 1543.18 L567.1 1543.18 L567.1 1516.82 L558.79 1518.49 L558.79 1514.23 L567.054 1512.56 L571.73 1512.56 L571.73 1543.18 L579.368 1543.18 L579.368 1547.12 L559.461 1547.12 L559.461 1543.18 Z" fill="#000000" fill-rule="evenodd" fill-opacity="1" /><path clip-path="url(#clip040)" d="M 0 0 M891.655 1543.18 L907.974 1543.18 L907.974 1547.12 L886.03 1547.12 L886.03 1543.18 Q888.692 1540.43 893.275 1535.8 Q897.881 1531.15 899.062 1529.81 Q901.307 1527.28 902.187 1525.55 Q903.09 1523.79 903.09 1522.1 Q903.09 1519.34 901.145 1517.61 Q899.224 1515.87 896.122 1515.87 Q893.923 1515.87 891.469 1516.63 Q889.039 1517.4 886.261 1518.95 L886.261 1514.23 Q889.085 1513.09 891.539 1512.51 Q893.993 1511.93 896.03 1511.93 Q901.4 1511.93 904.594 1514.62 Q907.789 1517.31 907.789 1521.8 Q907.789 1523.93 906.979 1525.85 Q906.192 1527.74 904.085 1530.34 Q903.506 1531.01 900.405 1534.23 Q897.303 1537.42 891.655 1543.18 Z" fill="#000000" fill-rule="evenodd" fill-opacity="1" /><path clip-path="url(#clip040)" d="M 0 0 M1229.17 1528.49 Q1232.53 1529.2 1234.4 1531.47 Q1236.3 1533.74 1236.3 1537.07 Q1236.3 1542.19 1232.78 1544.99 Q1229.26 1547.79 1222.78 1547.79 Q1220.61 1547.79 1218.29 1547.35 Q1216 1546.93 1213.55 1546.08 L1213.55 1541.56 Q1215.49 1542.7 1217.81 1543.28 Q1220.12 1543.86 1222.64 1543.86 Q1227.04 1543.86 1229.33 1542.12 Q1231.65 1540.38 1231.65 1537.07 Q1231.65 1534.02 1229.5 1532.31 Q1227.37 1530.57 1223.55 1530.57 L1219.52 1530.57 L1219.52 1526.73 L1223.73 1526.73 Q1227.18 1526.73 1229.01 1525.36 Q1230.84 1523.97 1230.84 1521.38 Q1230.84 1518.72 1228.94 1517.31 Q1227.07 1515.87 1223.55 1515.87 Q1221.63 1515.87 1219.43 1516.29 Q1217.23 1516.7 1214.59 1517.58 L1214.59 1513.42 Q1217.25 1512.68 1219.57 1512.31 Q1221.9 1511.93 1223.96 1511.93 Q1229.29 1511.93 1232.39 1514.37 Q1235.49 1516.77 1235.49 1520.89 Q1235.49 1523.76 1233.85 1525.75 Q1232.2 1527.72 1229.17 1528.49 Z" fill="#000000" fill-rule="evenodd" fill-opacity="1" /><path clip-path="url(#clip040)" d="M 0 0 M1555.86 1516.63 L1544.05 1535.08 L1555.86 1535.08 L1555.86 1516.63 M1554.63 1512.56 L1560.51 1512.56 L1560.51 1535.08 L1565.44 1535.08 L1565.44 1538.97 L1560.51 1538.97 L1560.51 1547.12 L1555.86 1547.12 L1555.86 1538.97 L1540.25 1538.97 L1540.25 1534.46 L1554.63 1512.56 Z" fill="#000000" fill-rule="evenodd" fill-opacity="1" /><path clip-path="url(#clip040)" d="M 0 0 M1871.05 1512.56 L1889.4 1512.56 L1889.4 1516.5 L1875.33 1516.5 L1875.33 1524.97 Q1876.35 1524.62 1877.37 1524.46 Q1878.39 1524.27 1879.4 1524.27 Q1885.19 1524.27 1888.57 1527.44 Q1891.95 1530.62 1891.95 1536.03 Q1891.95 1541.61 1888.48 1544.71 Q1885.01 1547.79 1878.69 1547.79 Q1876.51 1547.79 1874.24 1547.42 Q1872 1547.05 1869.59 1546.31 L1869.59 1541.61 Q1871.67 1542.74 1873.89 1543.3 Q1876.12 1543.86 1878.59 1543.86 Q1882.6 1543.86 1884.94 1541.75 Q1887.27 1539.64 1887.27 1536.03 Q1887.27 1532.42 1884.94 1530.31 Q1882.6 1528.21 1878.59 1528.21 Q1876.72 1528.21 1874.84 1528.62 Q1872.99 1529.04 1871.05 1529.92 L1871.05 1512.56 Z" fill="#000000" fill-rule="evenodd" fill-opacity="1" /><path clip-path="url(#clip040)" d="M 0 0 M2209.1 1527.98 Q2205.95 1527.98 2204.1 1530.13 Q2202.27 1532.28 2202.27 1536.03 Q2202.27 1539.76 2204.1 1541.93 Q2205.95 1544.09 2209.1 1544.09 Q2212.25 1544.09 2214.07 1541.93 Q2215.93 1539.76 2215.93 1536.03 Q2215.93 1532.28 2214.07 1530.13 Q2212.25 1527.98 2209.1 1527.98 M2218.38 1513.32 L2218.38 1517.58 Q2216.62 1516.75 2214.81 1516.31 Q2213.03 1515.87 2211.27 1515.87 Q2206.64 1515.87 2204.19 1519 Q2201.76 1522.12 2201.41 1528.44 Q2202.78 1526.43 2204.84 1525.36 Q2206.9 1524.27 2209.38 1524.27 Q2214.58 1524.27 2217.59 1527.44 Q2220.62 1530.59 2220.62 1536.03 Q2220.62 1541.36 2217.48 1544.57 Q2214.33 1547.79 2209.1 1547.79 Q2203.1 1547.79 2199.93 1543.21 Q2196.76 1538.6 2196.76 1529.87 Q2196.76 1521.68 2200.65 1516.82 Q2204.54 1511.93 2211.09 1511.93 Q2212.85 1511.93 2214.63 1512.28 Q2216.44 1512.63 2218.38 1513.32 Z" fill="#000000" fill-rule="evenodd" fill-opacity="1" /><polyline clip-path="url(#clip042)" style="stroke:#000000; stroke-width:2; stroke-opacity:0.1; fill:none" points="
  179.654,1445.72 2352.76,1445.72 
  "/>
<polyline clip-path="url(#clip042)" style="stroke:#000000; stroke-width:2; stroke-opacity:0.1; fill:none" points="
  179.654,1106.28 2352.76,1106.28 
  "/>
<polyline clip-path="url(#clip042)" style="stroke:#000000; stroke-width:2; stroke-opacity:0.1; fill:none" points="
  179.654,766.846 2352.76,766.846 
  "/>
<polyline clip-path="url(#clip042)" style="stroke:#000000; stroke-width:2; stroke-opacity:0.1; fill:none" points="
  179.654,427.411 2352.76,427.411 
  "/>
<polyline clip-path="url(#clip042)" style="stroke:#000000; stroke-width:2; stroke-opacity:0.1; fill:none" points="
  179.654,87.9763 2352.76,87.9763 
  "/>
<polyline clip-path="url(#clip040)" style="stroke:#000000; stroke-width:4; stroke-opacity:1; fill:none" points="
  179.654,1486.45 179.654,47.2441 
  "/>
<polyline clip-path="url(#clip040)" style="stroke:#000000; stroke-width:4; stroke-opacity:1; fill:none" points="
  179.654,1445.72 205.731,1445.72 
  "/>
<polyline clip-path="url(#clip040)" style="stroke:#000000; stroke-width:4; stroke-opacity:1; fill:none" points="
  179.654,1106.28 205.731,1106.28 
  "/>
<polyline clip-path="url(#clip040)" style="stroke:#000000; stroke-width:4; stroke-opacity:1; fill:none" points="
  179.654,766.846 205.731,766.846 
  "/>
<polyline clip-path="url(#clip040)" style="stroke:#000000; stroke-width:4; stroke-opacity:1; fill:none" points="
  179.654,427.411 205.731,427.411 
  "/>
<polyline clip-path="url(#clip040)" style="stroke:#000000; stroke-width:4; stroke-opacity:1; fill:none" points="
  179.654,87.9763 205.731,87.9763 
  "/>
<path clip-path="url(#clip040)" d="M 0 0 M51.2236 1446.17 L80.8994 1446.17 L80.8994 1450.1 L51.2236 1450.1 L51.2236 1446.17 Z" fill="#000000" fill-rule="evenodd" fill-opacity="1" /><path clip-path="url(#clip040)" d="M 0 0 M86.779 1459.06 L94.4178 1459.06 L94.4178 1432.69 L86.1077 1434.36 L86.1077 1430.1 L94.3715 1428.44 L99.0474 1428.44 L99.0474 1459.06 L106.686 1459.06 L106.686 1463 L86.779 1463 L86.779 1459.06 Z" fill="#000000" fill-rule="evenodd" fill-opacity="1" /><path clip-path="url(#clip040)" d="M 0 0 M111.756 1457.12 L116.64 1457.12 L116.64 1463 L111.756 1463 L111.756 1457.12 Z" fill="#000000" fill-rule="evenodd" fill-opacity="1" /><path clip-path="url(#clip040)" d="M 0 0 M131.709 1431.51 Q128.098 1431.51 126.27 1435.08 Q124.464 1438.62 124.464 1445.75 Q124.464 1452.86 126.27 1456.42 Q128.098 1459.96 131.709 1459.96 Q135.344 1459.96 137.149 1456.42 Q138.978 1452.86 138.978 1445.75 Q138.978 1438.62 137.149 1435.08 Q135.344 1431.51 131.709 1431.51 M131.709 1427.81 Q137.519 1427.81 140.575 1432.42 Q143.654 1437 143.654 1445.75 Q143.654 1454.48 140.575 1459.08 Q137.519 1463.67 131.709 1463.67 Q125.899 1463.67 122.82 1459.08 Q119.765 1454.48 119.765 1445.75 Q119.765 1437 122.82 1432.42 Q125.899 1427.81 131.709 1427.81 Z" fill="#000000" fill-rule="evenodd" fill-opacity="1" /><path clip-path="url(#clip040)" d="M 0 0 M50.9921 1106.73 L80.6679 1106.73 L80.6679 1110.67 L50.9921 1110.67 L50.9921 1106.73 Z" fill="#000000" fill-rule="evenodd" fill-opacity="1" /><path clip-path="url(#clip040)" d="M 0 0 M95.7373 1092.08 Q92.1262 1092.08 90.2975 1095.64 Q88.4919 1099.19 88.4919 1106.32 Q88.4919 1113.42 90.2975 1116.99 Q92.1262 1120.53 95.7373 1120.53 Q99.3715 1120.53 101.177 1116.99 Q103.006 1113.42 103.006 1106.32 Q103.006 1099.19 101.177 1095.64 Q99.3715 1092.08 95.7373 1092.08 M95.7373 1088.38 Q101.547 1088.38 104.603 1092.98 Q107.682 1097.57 107.682 1106.32 Q107.682 1115.04 104.603 1119.65 Q101.547 1124.23 95.7373 1124.23 Q89.9271 1124.23 86.8484 1119.65 Q83.7929 1115.04 83.7929 1106.32 Q83.7929 1097.57 86.8484 1092.98 Q89.9271 1088.38 95.7373 1088.38 Z" fill="#000000" fill-rule="evenodd" fill-opacity="1" /><path clip-path="url(#clip040)" d="M 0 0 M112.751 1117.68 L117.635 1117.68 L117.635 1123.56 L112.751 1123.56 L112.751 1117.68 Z" fill="#000000" fill-rule="evenodd" fill-opacity="1" /><path clip-path="url(#clip040)" d="M 0 0 M122.751 1089 L141.107 1089 L141.107 1092.94 L127.033 1092.94 L127.033 1101.41 Q128.052 1101.06 129.07 1100.9 Q130.089 1100.71 131.107 1100.71 Q136.894 1100.71 140.274 1103.89 Q143.654 1107.06 143.654 1112.47 Q143.654 1118.05 140.181 1121.15 Q136.709 1124.23 130.39 1124.23 Q128.214 1124.23 125.945 1123.86 Q123.7 1123.49 121.293 1122.75 L121.293 1118.05 Q123.376 1119.19 125.598 1119.74 Q127.82 1120.3 130.297 1120.3 Q134.302 1120.3 136.64 1118.19 Q138.978 1116.08 138.978 1112.47 Q138.978 1108.86 136.64 1106.76 Q134.302 1104.65 130.297 1104.65 Q128.422 1104.65 126.547 1105.07 Q124.695 1105.48 122.751 1106.36 L122.751 1089 Z" fill="#000000" fill-rule="evenodd" fill-opacity="1" /><path clip-path="url(#clip040)" d="M 0 0 M94.7419 752.645 Q91.1308 752.645 89.3021 756.209 Q87.4966 759.751 87.4966 766.881 Q87.4966 773.987 89.3021 777.552 Q91.1308 781.094 94.7419 781.094 Q98.3761 781.094 100.182 777.552 Q102.01 773.987 102.01 766.881 Q102.01 759.751 100.182 756.209 Q98.3761 752.645 94.7419 752.645 M94.7419 748.941 Q100.552 748.941 103.608 753.547 Q106.686 758.131 106.686 766.881 Q106.686 775.608 103.608 780.214 Q100.552 784.797 94.7419 784.797 Q88.9317 784.797 85.8531 780.214 Q82.7975 775.608 82.7975 766.881 Q82.7975 758.131 85.8531 753.547 Q88.9317 748.941 94.7419 748.941 Z" fill="#000000" fill-rule="evenodd" fill-opacity="1" /><path clip-path="url(#clip040)" d="M 0 0 M111.756 778.246 L116.64 778.246 L116.64 784.126 L111.756 784.126 L111.756 778.246 Z" fill="#000000" fill-rule="evenodd" fill-opacity="1" /><path clip-path="url(#clip040)" d="M 0 0 M131.709 752.645 Q128.098 752.645 126.27 756.209 Q124.464 759.751 124.464 766.881 Q124.464 773.987 126.27 777.552 Q128.098 781.094 131.709 781.094 Q135.344 781.094 137.149 777.552 Q138.978 773.987 138.978 766.881 Q138.978 759.751 137.149 756.209 Q135.344 752.645 131.709 752.645 M131.709 748.941 Q137.519 748.941 140.575 753.547 Q143.654 758.131 143.654 766.881 Q143.654 775.608 140.575 780.214 Q137.519 784.797 131.709 784.797 Q125.899 784.797 122.82 780.214 Q119.765 775.608 119.765 766.881 Q119.765 758.131 122.82 753.547 Q125.899 748.941 131.709 748.941 Z" fill="#000000" fill-rule="evenodd" fill-opacity="1" /><path clip-path="url(#clip040)" d="M 0 0 M95.7373 413.21 Q92.1262 413.21 90.2975 416.775 Q88.4919 420.316 88.4919 427.446 Q88.4919 434.552 90.2975 438.117 Q92.1262 441.659 95.7373 441.659 Q99.3715 441.659 101.177 438.117 Q103.006 434.552 103.006 427.446 Q103.006 420.316 101.177 416.775 Q99.3715 413.21 95.7373 413.21 M95.7373 409.506 Q101.547 409.506 104.603 414.113 Q107.682 418.696 107.682 427.446 Q107.682 436.173 104.603 440.779 Q101.547 445.362 95.7373 445.362 Q89.9271 445.362 86.8484 440.779 Q83.7929 436.173 83.7929 427.446 Q83.7929 418.696 86.8484 414.113 Q89.9271 409.506 95.7373 409.506 Z" fill="#000000" fill-rule="evenodd" fill-opacity="1" /><path clip-path="url(#clip040)" d="M 0 0 M112.751 438.812 L117.635 438.812 L117.635 444.691 L112.751 444.691 L112.751 438.812 Z" fill="#000000" fill-rule="evenodd" fill-opacity="1" /><path clip-path="url(#clip040)" d="M 0 0 M122.751 410.131 L141.107 410.131 L141.107 414.066 L127.033 414.066 L127.033 422.538 Q128.052 422.191 129.07 422.029 Q130.089 421.844 131.107 421.844 Q136.894 421.844 140.274 425.015 Q143.654 428.187 143.654 433.603 Q143.654 439.182 140.181 442.284 Q136.709 445.362 130.39 445.362 Q128.214 445.362 125.945 444.992 Q123.7 444.622 121.293 443.881 L121.293 439.182 Q123.376 440.316 125.598 440.872 Q127.82 441.427 130.297 441.427 Q134.302 441.427 136.64 439.321 Q138.978 437.214 138.978 433.603 Q138.978 429.992 136.64 427.886 Q134.302 425.779 130.297 425.779 Q128.422 425.779 126.547 426.196 Q124.695 426.613 122.751 427.492 L122.751 410.131 Z" fill="#000000" fill-rule="evenodd" fill-opacity="1" /><path clip-path="url(#clip040)" d="M 0 0 M86.779 101.321 L94.4178 101.321 L94.4178 74.9555 L86.1077 76.6222 L86.1077 72.3629 L94.3715 70.6963 L99.0474 70.6963 L99.0474 101.321 L106.686 101.321 L106.686 105.256 L86.779 105.256 L86.779 101.321 Z" fill="#000000" fill-rule="evenodd" fill-opacity="1" /><path clip-path="url(#clip040)" d="M 0 0 M111.756 99.3767 L116.64 99.3767 L116.64 105.256 L111.756 105.256 L111.756 99.3767 Z" fill="#000000" fill-rule="evenodd" fill-opacity="1" /><path clip-path="url(#clip040)" d="M 0 0 M131.709 73.775 Q128.098 73.775 126.27 77.3398 Q124.464 80.8814 124.464 88.011 Q124.464 95.1174 126.27 98.6822 Q128.098 102.224 131.709 102.224 Q135.344 102.224 137.149 98.6822 Q138.978 95.1174 138.978 88.011 Q138.978 80.8814 137.149 77.3398 Q135.344 73.775 131.709 73.775 M131.709 70.0713 Q137.519 70.0713 140.575 74.6777 Q143.654 79.261 143.654 88.011 Q143.654 96.7378 140.575 101.344 Q137.519 105.928 131.709 105.928 Q125.899 105.928 122.82 101.344 Q119.765 96.7378 119.765 88.011 Q119.765 79.261 122.82 74.6777 Q125.899 70.0713 131.709 70.0713 Z" fill="#000000" fill-rule="evenodd" fill-opacity="1" /><polyline clip-path="url(#clip042)" style="stroke:#009af9; stroke-width:8; stroke-opacity:1; fill:none" points="
  241.157,766.846 251.459,745.522 261.761,724.219 272.063,702.959 282.365,681.761 292.667,660.647 302.969,639.638 313.271,618.755 323.572,598.018 333.874,577.447 
  344.176,557.064 354.478,536.887 364.78,516.937 375.082,497.234 385.384,477.797 395.686,458.646 405.988,439.798 416.29,421.273 426.592,403.089 436.894,385.265 
  447.196,367.816 457.498,350.762 467.8,334.118 478.102,317.901 488.404,302.128 498.706,286.813 509.008,271.971 519.31,257.618 529.612,243.768 539.914,230.434 
  550.216,217.629 560.518,205.366 570.82,193.657 581.122,182.514 591.424,171.948 601.726,161.969 612.028,152.586 622.33,143.81 632.632,135.649 642.934,128.111 
  653.236,121.203 663.538,114.932 673.84,109.304 684.142,104.326 694.444,100.001 704.746,96.3343 715.048,93.3294 725.35,90.9891 735.652,89.3159 745.954,88.3113 
  756.256,87.9763 766.558,88.3113 776.86,89.3159 787.162,90.9891 797.464,93.3294 807.766,96.3343 818.068,100.001 828.37,104.326 838.672,109.304 848.974,114.932 
  859.276,121.203 869.578,128.111 879.88,135.649 890.182,143.81 900.484,152.586 910.786,161.969 921.088,171.948 931.39,182.514 941.692,193.657 951.994,205.366 
  962.296,217.629 972.598,230.434 982.9,243.768 993.202,257.618 1003.5,271.971 1013.81,286.813 1024.11,302.128 1034.41,317.901 1044.71,334.118 1055.01,350.762 
  1065.32,367.816 1075.62,385.265 1085.92,403.089 1096.22,421.273 1106.52,439.798 1116.83,458.646 1127.13,477.797 1137.43,497.234 1147.73,516.937 1158.03,536.887 
  1168.34,557.064 1178.64,577.447 1188.94,598.018 1199.24,618.755 1209.54,639.638 1219.85,660.647 1230.15,681.761 1240.45,702.959 1250.75,724.219 1261.05,745.522 
  1271.36,766.846 1281.66,788.17 1291.96,809.473 1302.26,830.733 1312.56,851.931 1322.87,873.045 1333.17,894.053 1343.47,914.937 1353.77,935.674 1364.07,956.245 
  1374.38,976.628 1384.68,996.805 1394.98,1016.75 1405.28,1036.46 1415.58,1055.89 1425.89,1075.05 1436.19,1093.89 1446.49,1112.42 1456.79,1130.6 1467.09,1148.43 
  1477.4,1165.88 1487.7,1182.93 1498,1199.57 1508.3,1215.79 1518.6,1231.56 1528.91,1246.88 1539.21,1261.72 1549.51,1276.07 1559.81,1289.92 1570.11,1303.26 
  1580.42,1316.06 1590.72,1328.33 1601.02,1340.03 1611.32,1351.18 1621.62,1361.74 1631.93,1371.72 1642.23,1381.11 1652.53,1389.88 1662.83,1398.04 1673.13,1405.58 
  1683.44,1412.49 1693.74,1418.76 1704.04,1424.39 1714.34,1429.37 1724.64,1433.69 1734.95,1437.36 1745.25,1440.36 1755.55,1442.7 1765.85,1444.38 1776.15,1445.38 
  1786.46,1445.72 1796.76,1445.38 1807.06,1444.38 1817.36,1442.7 1827.66,1440.36 1837.97,1437.36 1848.27,1433.69 1858.57,1429.37 1868.87,1424.39 1879.17,1418.76 
  1889.48,1412.49 1899.78,1405.58 1910.08,1398.04 1920.38,1389.88 1930.68,1381.11 1940.99,1371.72 1951.29,1361.74 1961.59,1351.18 1971.89,1340.03 1982.19,1328.33 
  1992.5,1316.06 2002.8,1303.26 2013.1,1289.92 2023.4,1276.07 2033.7,1261.72 2044.01,1246.88 2054.31,1231.56 2064.61,1215.79 2074.91,1199.57 2085.21,1182.93 
  2095.52,1165.88 2105.82,1148.43 2116.12,1130.6 2126.42,1112.42 2136.72,1093.89 2147.03,1075.05 2157.33,1055.89 2167.63,1036.46 2177.93,1016.75 2188.23,996.805 
  2198.54,976.628 2208.84,956.245 2219.14,935.674 2229.44,914.937 2239.74,894.053 2250.05,873.045 2260.35,851.931 2270.65,830.733 2280.95,809.473 2291.25,788.17 
  
  "/>
<polyline clip-path="url(#clip042)" style="stroke:#e26f46; stroke-width:8; stroke-opacity:1; fill:none" points="
  241.157,87.9763 251.459,88.3113 261.761,89.3159 272.063,90.9891 282.365,93.3294 292.667,96.3343 302.969,100.001 313.271,104.326 323.572,109.304 333.874,114.932 
  344.176,121.203 354.478,128.111 364.78,135.649 375.082,143.81 385.384,152.586 395.686,161.969 405.988,171.948 416.29,182.514 426.592,193.657 436.894,205.366 
  447.196,217.629 457.498,230.434 467.8,243.768 478.102,257.618 488.404,271.971 498.706,286.813 509.008,302.128 519.31,317.901 529.612,334.118 539.914,350.762 
  550.216,367.816 560.518,385.265 570.82,403.089 581.122,421.273 591.424,439.798 601.726,458.646 612.028,477.797 622.33,497.234 632.632,516.937 642.934,536.887 
  653.236,557.064 663.538,577.447 673.84,598.018 684.142,618.755 694.444,639.638 704.746,660.647 715.048,681.761 725.35,702.959 735.652,724.219 745.954,745.522 
  756.256,766.846 766.558,788.17 776.86,809.473 787.162,830.733 797.464,851.931 807.766,873.045 818.068,894.053 828.37,914.937 838.672,935.674 848.974,956.245 
  859.276,976.628 869.578,996.805 879.88,1016.75 890.182,1036.46 900.484,1055.89 910.786,1075.05 921.088,1093.89 931.39,1112.42 941.692,1130.6 951.994,1148.43 
  962.296,1165.88 972.598,1182.93 982.9,1199.57 993.202,1215.79 1003.5,1231.56 1013.81,1246.88 1024.11,1261.72 1034.41,1276.07 1044.71,1289.92 1055.01,1303.26 
  1065.32,1316.06 1075.62,1328.33 1085.92,1340.03 1096.22,1351.18 1106.52,1361.74 1116.83,1371.72 1127.13,1381.11 1137.43,1389.88 1147.73,1398.04 1158.03,1405.58 
  1168.34,1412.49 1178.64,1418.76 1188.94,1424.39 1199.24,1429.37 1209.54,1433.69 1219.85,1437.36 1230.15,1440.36 1240.45,1442.7 1250.75,1444.38 1261.05,1445.38 
  1271.36,1445.72 1281.66,1445.38 1291.96,1444.38 1302.26,1442.7 1312.56,1440.36 1322.87,1437.36 1333.17,1433.69 1343.47,1429.37 1353.77,1424.39 1364.07,1418.76 
  1374.38,1412.49 1384.68,1405.58 1394.98,1398.04 1405.28,1389.88 1415.58,1381.11 1425.89,1371.72 1436.19,1361.74 1446.49,1351.18 1456.79,1340.03 1467.09,1328.33 
  1477.4,1316.06 1487.7,1303.26 1498,1289.92 1508.3,1276.07 1518.6,1261.72 1528.91,1246.88 1539.21,1231.56 1549.51,1215.79 1559.81,1199.57 1570.11,1182.93 
  1580.42,1165.88 1590.72,1148.43 1601.02,1130.6 1611.32,1112.42 1621.62,1093.89 1631.93,1075.05 1642.23,1055.89 1652.53,1036.46 1662.83,1016.75 1673.13,996.805 
  1683.44,976.628 1693.74,956.245 1704.04,935.674 1714.34,914.937 1724.64,894.053 1734.95,873.045 1745.25,851.931 1755.55,830.733 1765.85,809.473 1776.15,788.17 
  1786.46,766.846 1796.76,745.522 1807.06,724.219 1817.36,702.959 1827.66,681.761 1837.97,660.647 1848.27,639.638 1858.57,618.755 1868.87,598.018 1879.17,577.447 
  1889.48,557.064 1899.78,536.887 1910.08,516.937 1920.38,497.234 1930.68,477.797 1940.99,458.646 1951.29,439.798 1961.59,421.273 1971.89,403.089 1982.19,385.265 
  1992.5,367.816 2002.8,350.762 2013.1,334.118 2023.4,317.901 2033.7,302.128 2044.01,286.813 2054.31,271.971 2064.61,257.618 2074.91,243.768 2085.21,230.434 
  2095.52,217.629 2105.82,205.366 2116.12,193.657 2126.42,182.514 2136.72,171.948 2147.03,161.969 2157.33,152.586 2167.63,143.81 2177.93,135.649 2188.23,128.111 
  2198.54,121.203 2208.84,114.932 2219.14,109.304 2229.44,104.326 2239.74,100.001 2250.05,96.3343 2260.35,93.3294 2270.65,90.9891 2280.95,89.3159 2291.25,88.3113 
  
  "/>
<path clip-path="url(#clip040)" d="
M1886.69 276.658 L2280.32 276.658 L2280.32 95.2176 L1886.69 95.2176  Z
  " fill="#ffffff" fill-rule="evenodd" fill-opacity="1"/>
<polyline clip-path="url(#clip040)" style="stroke:#000000; stroke-width:4; stroke-opacity:1; fill:none" points="
  1886.69,276.658 2280.32,276.658 2280.32,95.2176 1886.69,95.2176 1886.69,276.658 
  "/>
<polyline clip-path="url(#clip040)" style="stroke:#009af9; stroke-width:4; stroke-opacity:1; fill:none" points="
  1910.83,155.698 2055.71,155.698 
  "/>
<path clip-path="url(#clip040)" d="M 0 0 M2098.28 147.816 L2098.28 151.843 Q2096.47 150.917 2094.53 150.455 Q2092.58 149.992 2090.5 149.992 Q2087.33 149.992 2085.73 150.964 Q2084.16 151.936 2084.16 153.88 Q2084.16 155.362 2085.29 156.218 Q2086.43 157.052 2089.85 157.816 L2091.31 158.14 Q2095.85 159.112 2097.75 160.894 Q2099.67 162.654 2099.67 165.825 Q2099.67 169.436 2096.8 171.542 Q2093.95 173.649 2088.95 173.649 Q2086.87 173.649 2084.6 173.232 Q2082.35 172.839 2079.85 172.028 L2079.85 167.63 Q2082.21 168.857 2084.51 169.482 Q2086.8 170.084 2089.04 170.084 Q2092.05 170.084 2093.67 169.066 Q2095.29 168.024 2095.29 166.149 Q2095.29 164.413 2094.11 163.487 Q2092.95 162.561 2089 161.704 L2087.51 161.357 Q2083.56 160.524 2081.8 158.811 Q2080.04 157.075 2080.04 154.066 Q2080.04 150.408 2082.63 148.418 Q2085.22 146.427 2089.99 146.427 Q2092.35 146.427 2094.44 146.774 Q2096.52 147.121 2098.28 147.816 Z" fill="#000000" fill-rule="evenodd" fill-opacity="1" /><path clip-path="url(#clip040)" d="M 0 0 M2104.14 147.052 L2108.39 147.052 L2108.39 172.978 L2104.14 172.978 L2104.14 147.052 M2104.14 136.959 L2108.39 136.959 L2108.39 142.353 L2104.14 142.353 L2104.14 136.959 Z" fill="#000000" fill-rule="evenodd" fill-opacity="1" /><path clip-path="url(#clip040)" d="M 0 0 M2134.41 157.329 L2134.41 172.978 L2130.15 172.978 L2130.15 157.468 Q2130.15 153.788 2128.72 151.959 Q2127.28 150.13 2124.41 150.13 Q2120.96 150.13 2118.97 152.33 Q2116.98 154.529 2116.98 158.325 L2116.98 172.978 L2112.7 172.978 L2112.7 147.052 L2116.98 147.052 L2116.98 151.08 Q2118.51 148.742 2120.57 147.584 Q2122.65 146.427 2125.36 146.427 Q2129.83 146.427 2132.12 149.205 Q2134.41 151.959 2134.41 157.329 Z" fill="#000000" fill-rule="evenodd" fill-opacity="1" /><path clip-path="url(#clip040)" d="M 0 0 M2138.44 162.746 L2138.44 147.052 L2142.7 147.052 L2142.7 162.584 Q2142.7 166.265 2144.13 168.116 Q2145.57 169.945 2148.44 169.945 Q2151.89 169.945 2153.88 167.746 Q2155.89 165.547 2155.89 161.751 L2155.89 147.052 L2160.15 147.052 L2160.15 172.978 L2155.89 172.978 L2155.89 168.996 Q2154.34 171.357 2152.28 172.515 Q2150.25 173.649 2147.54 173.649 Q2143.07 173.649 2140.76 170.871 Q2138.44 168.093 2138.44 162.746 M2149.16 146.427 L2149.16 146.427 Z" fill="#000000" fill-rule="evenodd" fill-opacity="1" /><path clip-path="url(#clip040)" d="M 0 0 M2181.15 147.816 L2181.15 151.843 Q2179.34 150.917 2177.4 150.455 Q2175.45 149.992 2173.37 149.992 Q2170.2 149.992 2168.6 150.964 Q2167.03 151.936 2167.03 153.88 Q2167.03 155.362 2168.16 156.218 Q2169.3 157.052 2172.72 157.816 L2174.18 158.14 Q2178.72 159.112 2180.62 160.894 Q2182.54 162.654 2182.54 165.825 Q2182.54 169.436 2179.67 171.542 Q2176.82 173.649 2171.82 173.649 Q2169.74 173.649 2167.47 173.232 Q2165.22 172.839 2162.72 172.028 L2162.72 167.63 Q2165.08 168.857 2167.38 169.482 Q2169.67 170.084 2171.91 170.084 Q2174.92 170.084 2176.54 169.066 Q2178.16 168.024 2178.16 166.149 Q2178.16 164.413 2176.98 163.487 Q2175.82 162.561 2171.87 161.704 L2170.38 161.357 Q2166.43 160.524 2164.67 158.811 Q2162.91 157.075 2162.91 154.066 Q2162.91 150.408 2165.5 148.418 Q2168.09 146.427 2172.86 146.427 Q2175.22 146.427 2177.31 146.774 Q2179.39 147.121 2181.15 147.816 Z" fill="#000000" fill-rule="evenodd" fill-opacity="1" /><polyline clip-path="url(#clip040)" style="stroke:#e26f46; stroke-width:4; stroke-opacity:1; fill:none" points="
  1910.83,216.178 2055.71,216.178 
  "/>
<path clip-path="url(#clip040)" d="M 0 0 M2100.36 208.527 L2100.36 212.509 Q2098.56 211.513 2096.73 211.027 Q2094.92 210.518 2093.07 210.518 Q2088.93 210.518 2086.64 213.157 Q2084.34 215.772 2084.34 220.518 Q2084.34 225.263 2086.64 227.902 Q2088.93 230.518 2093.07 230.518 Q2094.92 230.518 2096.73 230.032 Q2098.56 229.522 2100.36 228.527 L2100.36 232.462 Q2098.58 233.296 2096.66 233.712 Q2094.76 234.129 2092.61 234.129 Q2086.75 234.129 2083.3 230.448 Q2079.85 226.768 2079.85 220.518 Q2079.85 214.175 2083.33 210.541 Q2086.82 206.907 2092.89 206.907 Q2094.85 206.907 2096.73 207.323 Q2098.6 207.717 2100.36 208.527 Z" fill="#000000" fill-rule="evenodd" fill-opacity="1" /><path clip-path="url(#clip040)" d="M 0 0 M2114.88 210.518 Q2111.45 210.518 2109.46 213.203 Q2107.47 215.865 2107.47 220.518 Q2107.47 225.171 2109.44 227.856 Q2111.43 230.518 2114.88 230.518 Q2118.28 230.518 2120.27 227.833 Q2122.26 225.147 2122.26 220.518 Q2122.26 215.911 2120.27 213.226 Q2118.28 210.518 2114.88 210.518 M2114.88 206.907 Q2120.43 206.907 2123.6 210.518 Q2126.77 214.129 2126.77 220.518 Q2126.77 226.884 2123.6 230.518 Q2120.43 234.129 2114.88 234.129 Q2109.3 234.129 2106.13 230.518 Q2102.98 226.884 2102.98 220.518 Q2102.98 214.129 2106.13 210.518 Q2109.3 206.907 2114.88 206.907 Z" fill="#000000" fill-rule="evenodd" fill-opacity="1" /><path clip-path="url(#clip040)" d="M 0 0 M2147.77 208.296 L2147.77 212.323 Q2145.96 211.397 2144.02 210.935 Q2142.07 210.472 2139.99 210.472 Q2136.82 210.472 2135.22 211.444 Q2133.65 212.416 2133.65 214.36 Q2133.65 215.842 2134.78 216.698 Q2135.92 217.532 2139.34 218.296 L2140.8 218.62 Q2145.34 219.592 2147.24 221.374 Q2149.16 223.134 2149.16 226.305 Q2149.16 229.916 2146.29 232.022 Q2143.44 234.129 2138.44 234.129 Q2136.36 234.129 2134.09 233.712 Q2131.84 233.319 2129.34 232.508 L2129.34 228.11 Q2131.7 229.337 2134 229.962 Q2136.29 230.564 2138.53 230.564 Q2141.54 230.564 2143.16 229.546 Q2144.78 228.504 2144.78 226.629 Q2144.78 224.893 2143.6 223.967 Q2142.45 223.041 2138.49 222.184 L2137.01 221.837 Q2133.05 221.004 2131.29 219.291 Q2129.53 217.555 2129.53 214.546 Q2129.53 210.888 2132.12 208.898 Q2134.71 206.907 2139.48 206.907 Q2141.84 206.907 2143.93 207.254 Q2146.01 207.601 2147.77 208.296 Z" fill="#000000" fill-rule="evenodd" fill-opacity="1" /><path clip-path="url(#clip040)" d="M 0 0 M2153.63 207.532 L2157.88 207.532 L2157.88 233.458 L2153.63 233.458 L2153.63 207.532 M2153.63 197.439 L2157.88 197.439 L2157.88 202.833 L2153.63 202.833 L2153.63 197.439 Z" fill="#000000" fill-rule="evenodd" fill-opacity="1" /><path clip-path="url(#clip040)" d="M 0 0 M2183.9 217.809 L2183.9 233.458 L2179.64 233.458 L2179.64 217.948 Q2179.64 214.268 2178.21 212.439 Q2176.77 210.61 2173.9 210.61 Q2170.45 210.61 2168.46 212.81 Q2166.47 215.009 2166.47 218.805 L2166.47 233.458 L2162.19 233.458 L2162.19 207.532 L2166.47 207.532 L2166.47 211.56 Q2168 209.222 2170.06 208.064 Q2172.14 206.907 2174.85 206.907 Q2179.32 206.907 2181.61 209.685 Q2183.9 212.439 2183.9 217.809 Z" fill="#000000" fill-rule="evenodd" fill-opacity="1" /><path clip-path="url(#clip040)" d="M 0 0 M2187.93 223.226 L2187.93 207.532 L2192.19 207.532 L2192.19 223.064 Q2192.19 226.745 2193.63 228.596 Q2195.06 230.425 2197.93 230.425 Q2201.38 230.425 2203.37 228.226 Q2205.38 226.027 2205.38 222.231 L2205.38 207.532 L2209.64 207.532 L2209.64 233.458 L2205.38 233.458 L2205.38 229.476 Q2203.83 231.837 2201.77 232.995 Q2199.74 234.129 2197.03 234.129 Q2192.56 234.129 2190.25 231.351 Q2187.93 228.573 2187.93 223.226 M2198.65 206.907 L2198.65 206.907 Z" fill="#000000" fill-rule="evenodd" fill-opacity="1" /><path clip-path="url(#clip040)" d="M 0 0 M2230.64 208.296 L2230.64 212.323 Q2228.83 211.397 2226.89 210.935 Q2224.94 210.472 2222.86 210.472 Q2219.69 210.472 2218.09 211.444 Q2216.52 212.416 2216.52 214.36 Q2216.52 215.842 2217.65 216.698 Q2218.79 217.532 2222.21 218.296 L2223.67 218.62 Q2228.21 219.592 2230.11 221.374 Q2232.03 223.134 2232.03 226.305 Q2232.03 229.916 2229.16 232.022 Q2226.31 234.129 2221.31 234.129 Q2219.23 234.129 2216.96 233.712 Q2214.71 233.319 2212.21 232.508 L2212.21 228.11 Q2214.57 229.337 2216.87 229.962 Q2219.16 230.564 2221.4 230.564 Q2224.41 230.564 2226.03 229.546 Q2227.65 228.504 2227.65 226.629 Q2227.65 224.893 2226.47 223.967 Q2225.32 223.041 2221.36 222.184 L2219.88 221.837 Q2215.92 221.004 2214.16 219.291 Q2212.4 217.555 2212.4 214.546 Q2212.4 210.888 2214.99 208.898 Q2217.58 206.907 2222.35 206.907 Q2224.71 206.907 2226.8 207.254 Q2228.88 207.601 2230.64 208.296 Z" fill="#000000" fill-rule="evenodd" fill-opacity="1" /></svg>
