<?xml version="1.0" encoding="utf-8"?>
<svg xmlns="http://www.w3.org/2000/svg" xmlns:xlink="http://www.w3.org/1999/xlink" width="600" height="400" viewBox="0 0 2400 1600">
<defs>
  <clipPath id="clip670">
    <rect x="0" y="0" width="2400" height="1600"/>
  </clipPath>
</defs>
<path clip-path="url(#clip670)" d="
M0 1600 L2400 1600 L2400 0 L0 0  Z
  " fill="#ffffff" fill-rule="evenodd" fill-opacity="1"/>
<defs>
  <clipPath id="clip671">
    <rect x="480" y="0" width="1681" height="1600"/>
  </clipPath>
</defs>
<path clip-path="url(#clip670)" d="
M211.602 1423.18 L2352.76 1423.18 L2352.76 47.2441 L211.602 47.2441  Z
  " fill="#ffffff" fill-rule="evenodd" fill-opacity="1"/>
<defs>
  <clipPath id="clip672">
    <rect x="211" y="47" width="2142" height="1377"/>
  </clipPath>
</defs>
<polyline clip-path="url(#clip672)" style="stroke:#000000; stroke-width:2; stroke-opacity:0.1; fill:none" points="
  360.025,1423.18 360.025,47.2441 
  "/>
<polyline clip-path="url(#clip672)" style="stroke:#000000; stroke-width:2; stroke-opacity:0.1; fill:none" points="
  799.146,1423.18 799.146,47.2441 
  "/>
<polyline clip-path="url(#clip672)" style="stroke:#000000; stroke-width:2; stroke-opacity:0.1; fill:none" points="
  1238.27,1423.18 1238.27,47.2441 
  "/>
<polyline clip-path="url(#clip672)" style="stroke:#000000; stroke-width:2; stroke-opacity:0.1; fill:none" points="
  1677.39,1423.18 1677.39,47.2441 
  "/>
<polyline clip-path="url(#clip672)" style="stroke:#000000; stroke-width:2; stroke-opacity:0.1; fill:none" points="
  2116.51,1423.18 2116.51,47.2441 
  "/>
<polyline clip-path="url(#clip670)" style="stroke:#000000; stroke-width:4; stroke-opacity:1; fill:none" points="
  211.602,1423.18 2352.76,1423.18 
  "/>
<polyline clip-path="url(#clip670)" style="stroke:#000000; stroke-width:4; stroke-opacity:1; fill:none" points="
  360.025,1423.18 360.025,1406.67 
  "/>
<polyline clip-path="url(#clip670)" style="stroke:#000000; stroke-width:4; stroke-opacity:1; fill:none" points="
  799.146,1423.18 799.146,1406.67 
  "/>
<polyline clip-path="url(#clip670)" style="stroke:#000000; stroke-width:4; stroke-opacity:1; fill:none" points="
  1238.27,1423.18 1238.27,1406.67 
  "/>
<polyline clip-path="url(#clip670)" style="stroke:#000000; stroke-width:4; stroke-opacity:1; fill:none" points="
  1677.39,1423.18 1677.39,1406.67 
  "/>
<polyline clip-path="url(#clip670)" style="stroke:#000000; stroke-width:4; stroke-opacity:1; fill:none" points="
  2116.51,1423.18 2116.51,1406.67 
  "/>
<path clip-path="url(#clip670)" d="M 0 0 M318.787 1467.02 L348.463 1467.02 L348.463 1470.96 L318.787 1470.96 L318.787 1467.02 Z" fill="#000000" fill-rule="evenodd" fill-opacity="1" /><path clip-path="url(#clip670)" d="M 0 0 M354.342 1479.92 L361.981 1479.92 L361.981 1453.55 L353.671 1455.22 L353.671 1450.96 L361.935 1449.29 L366.611 1449.29 L366.611 1479.92 L374.25 1479.92 L374.25 1483.85 L354.342 1483.85 L354.342 1479.92 Z" fill="#000000" fill-rule="evenodd" fill-opacity="1" /><path clip-path="url(#clip670)" d="M 0 0 M389.319 1452.37 Q385.708 1452.37 383.879 1455.94 Q382.074 1459.48 382.074 1466.61 Q382.074 1473.71 383.879 1477.28 Q385.708 1480.82 389.319 1480.82 Q392.953 1480.82 394.759 1477.28 Q396.588 1473.71 396.588 1466.61 Q396.588 1459.48 394.759 1455.94 Q392.953 1452.37 389.319 1452.37 M389.319 1448.67 Q395.129 1448.67 398.185 1453.27 Q401.263 1457.86 401.263 1466.61 Q401.263 1475.33 398.185 1479.94 Q395.129 1484.52 389.319 1484.52 Q383.509 1484.52 380.43 1479.94 Q377.375 1475.33 377.375 1466.61 Q377.375 1457.86 380.43 1453.27 Q383.509 1448.67 389.319 1448.67 Z" fill="#000000" fill-rule="evenodd" fill-opacity="1" /><path clip-path="url(#clip670)" d="M 0 0 M771.299 1467.02 L800.975 1467.02 L800.975 1470.96 L771.299 1470.96 L771.299 1467.02 Z" fill="#000000" fill-rule="evenodd" fill-opacity="1" /><path clip-path="url(#clip670)" d="M 0 0 M806.091 1449.29 L824.447 1449.29 L824.447 1453.23 L810.373 1453.23 L810.373 1461.7 Q811.391 1461.35 812.41 1461.19 Q813.429 1461 814.447 1461 Q820.234 1461 823.614 1464.18 Q826.993 1467.35 826.993 1472.76 Q826.993 1478.34 823.521 1481.44 Q820.049 1484.52 813.729 1484.52 Q811.554 1484.52 809.285 1484.15 Q807.04 1483.78 804.632 1483.04 L804.632 1478.34 Q806.716 1479.48 808.938 1480.03 Q811.16 1480.59 813.637 1480.59 Q817.641 1480.59 819.979 1478.48 Q822.317 1476.38 822.317 1472.76 Q822.317 1469.15 819.979 1467.05 Q817.641 1464.94 813.637 1464.94 Q811.762 1464.94 809.887 1465.36 Q808.035 1465.77 806.091 1466.65 L806.091 1449.29 Z" fill="#000000" fill-rule="evenodd" fill-opacity="1" /><path clip-path="url(#clip670)" d="M 0 0 M1238.27 1452.37 Q1234.66 1452.37 1232.83 1455.94 Q1231.02 1459.48 1231.02 1466.61 Q1231.02 1473.71 1232.83 1477.28 Q1234.66 1480.82 1238.27 1480.82 Q1241.9 1480.82 1243.71 1477.28 Q1245.54 1473.71 1245.54 1466.61 Q1245.54 1459.48 1243.71 1455.94 Q1241.9 1452.37 1238.27 1452.37 M1238.27 1448.67 Q1244.08 1448.67 1247.13 1453.27 Q1250.21 1457.86 1250.21 1466.61 Q1250.21 1475.33 1247.13 1479.94 Q1244.08 1484.52 1238.27 1484.52 Q1232.46 1484.52 1229.38 1479.94 Q1226.32 1475.33 1226.32 1466.61 Q1226.32 1457.86 1229.38 1453.27 Q1232.46 1448.67 1238.27 1448.67 Z" fill="#000000" fill-rule="evenodd" fill-opacity="1" /><path clip-path="url(#clip670)" d="M 0 0 M1667.67 1449.29 L1686.02 1449.29 L1686.02 1453.23 L1671.95 1453.23 L1671.95 1461.7 Q1672.97 1461.35 1673.99 1461.19 Q1675 1461 1676.02 1461 Q1681.81 1461 1685.19 1464.18 Q1688.57 1467.35 1688.57 1472.76 Q1688.57 1478.34 1685.1 1481.44 Q1681.62 1484.52 1675.3 1484.52 Q1673.13 1484.52 1670.86 1484.15 Q1668.61 1483.78 1666.21 1483.04 L1666.21 1478.34 Q1668.29 1479.48 1670.51 1480.03 Q1672.74 1480.59 1675.21 1480.59 Q1679.22 1480.59 1681.55 1478.48 Q1683.89 1476.38 1683.89 1472.76 Q1683.89 1469.15 1681.55 1467.05 Q1679.22 1464.94 1675.21 1464.94 Q1673.34 1464.94 1671.46 1465.36 Q1669.61 1465.77 1667.67 1466.65 L1667.67 1449.29 Z" fill="#000000" fill-rule="evenodd" fill-opacity="1" /><path clip-path="url(#clip670)" d="M 0 0 M2093.38 1479.92 L2101.02 1479.92 L2101.02 1453.55 L2092.71 1455.22 L2092.71 1450.96 L2100.98 1449.29 L2105.65 1449.29 L2105.65 1479.92 L2113.29 1479.92 L2113.29 1483.85 L2093.38 1483.85 L2093.38 1479.92 Z" fill="#000000" fill-rule="evenodd" fill-opacity="1" /><path clip-path="url(#clip670)" d="M 0 0 M2128.36 1452.37 Q2124.75 1452.37 2122.92 1455.94 Q2121.12 1459.48 2121.12 1466.61 Q2121.12 1473.71 2122.92 1477.28 Q2124.75 1480.82 2128.36 1480.82 Q2131.99 1480.82 2133.8 1477.28 Q2135.63 1473.71 2135.63 1466.61 Q2135.63 1459.48 2133.8 1455.94 Q2131.99 1452.37 2128.36 1452.37 M2128.36 1448.67 Q2134.17 1448.67 2137.23 1453.27 Q2140.31 1457.86 2140.31 1466.61 Q2140.31 1475.33 2137.23 1479.94 Q2134.17 1484.52 2128.36 1484.52 Q2122.55 1484.52 2119.47 1479.94 Q2116.42 1475.33 2116.42 1466.61 Q2116.42 1457.86 2119.47 1453.27 Q2122.55 1448.67 2128.36 1448.67 Z" fill="#000000" fill-rule="evenodd" fill-opacity="1" /><path clip-path="url(#clip670)" d="M 0 0 M1298.79 1532.4 L1285.9 1549.74 L1299.46 1568.04 L1292.56 1568.04 L1282.18 1554.04 L1271.8 1568.04 L1264.9 1568.04 L1278.74 1549.39 L1266.07 1532.4 L1272.98 1532.4 L1282.43 1545.1 L1291.89 1532.4 L1298.79 1532.4 Z" fill="#000000" fill-rule="evenodd" fill-opacity="1" /><polyline clip-path="url(#clip672)" style="stroke:#000000; stroke-width:2; stroke-opacity:0.1; fill:none" points="
  211.602,1384.46 2352.76,1384.46 
  "/>
<polyline clip-path="url(#clip672)" style="stroke:#000000; stroke-width:2; stroke-opacity:0.1; fill:none" points="
  211.602,1059.03 2352.76,1059.03 
  "/>
<polyline clip-path="url(#clip672)" style="stroke:#000000; stroke-width:2; stroke-opacity:0.1; fill:none" points="
  211.602,733.6 2352.76,733.6 
  "/>
<polyline clip-path="url(#clip672)" style="stroke:#000000; stroke-width:2; stroke-opacity:0.1; fill:none" points="
  211.602,408.172 2352.76,408.172 
  "/>
<polyline clip-path="url(#clip672)" style="stroke:#000000; stroke-width:2; stroke-opacity:0.1; fill:none" points="
  211.602,82.7436 2352.76,82.7436 
  "/>
<polyline clip-path="url(#clip670)" style="stroke:#000000; stroke-width:4; stroke-opacity:1; fill:none" points="
  211.602,1423.18 211.602,47.2441 
  "/>
<polyline clip-path="url(#clip670)" style="stroke:#000000; stroke-width:4; stroke-opacity:1; fill:none" points="
  211.602,1384.46 237.296,1384.46 
  "/>
<polyline clip-path="url(#clip670)" style="stroke:#000000; stroke-width:4; stroke-opacity:1; fill:none" points="
  211.602,1059.03 237.296,1059.03 
  "/>
<polyline clip-path="url(#clip670)" style="stroke:#000000; stroke-width:4; stroke-opacity:1; fill:none" points="
  211.602,733.6 237.296,733.6 
  "/>
<polyline clip-path="url(#clip670)" style="stroke:#000000; stroke-width:4; stroke-opacity:1; fill:none" points="
  211.602,408.172 237.296,408.172 
  "/>
<polyline clip-path="url(#clip670)" style="stroke:#000000; stroke-width:4; stroke-opacity:1; fill:none" points="
  211.602,82.7436 237.296,82.7436 
  "/>
<path clip-path="url(#clip670)" d="M 0 0 M126.691 1370.25 Q123.08 1370.25 121.251 1373.82 Q119.445 1377.36 119.445 1384.49 Q119.445 1391.6 121.251 1395.16 Q123.08 1398.7 126.691 1398.7 Q130.325 1398.7 132.13 1395.16 Q133.959 1391.6 133.959 1384.49 Q133.959 1377.36 132.13 1373.82 Q130.325 1370.25 126.691 1370.25 M126.691 1366.55 Q132.501 1366.55 135.556 1371.16 Q138.635 1375.74 138.635 1384.49 Q138.635 1393.22 135.556 1397.82 Q132.501 1402.41 126.691 1402.41 Q120.88 1402.41 117.802 1397.82 Q114.746 1393.22 114.746 1384.49 Q114.746 1375.74 117.802 1371.16 Q120.88 1366.55 126.691 1366.55 Z" fill="#000000" fill-rule="evenodd" fill-opacity="1" /><path clip-path="url(#clip670)" d="M 0 0 M143.704 1395.86 L148.589 1395.86 L148.589 1401.74 L143.704 1401.74 L143.704 1395.86 Z" fill="#000000" fill-rule="evenodd" fill-opacity="1" /><path clip-path="url(#clip670)" d="M 0 0 M163.658 1370.25 Q160.047 1370.25 158.218 1373.82 Q156.413 1377.36 156.413 1384.49 Q156.413 1391.6 158.218 1395.16 Q160.047 1398.7 163.658 1398.7 Q167.292 1398.7 169.098 1395.16 Q170.927 1391.6 170.927 1384.49 Q170.927 1377.36 169.098 1373.82 Q167.292 1370.25 163.658 1370.25 M163.658 1366.55 Q169.468 1366.55 172.524 1371.16 Q175.602 1375.74 175.602 1384.49 Q175.602 1393.22 172.524 1397.82 Q169.468 1402.41 163.658 1402.41 Q157.848 1402.41 154.769 1397.82 Q151.714 1393.22 151.714 1384.49 Q151.714 1375.74 154.769 1371.16 Q157.848 1366.55 163.658 1366.55 Z" fill="#000000" fill-rule="evenodd" fill-opacity="1" /><path clip-path="url(#clip670)" d="M 0 0 M127.917 1044.83 Q124.306 1044.83 122.478 1048.39 Q120.672 1051.93 120.672 1059.06 Q120.672 1066.17 122.478 1069.73 Q124.306 1073.28 127.917 1073.28 Q131.552 1073.28 133.357 1069.73 Q135.186 1066.17 135.186 1059.06 Q135.186 1051.93 133.357 1048.39 Q131.552 1044.83 127.917 1044.83 M127.917 1041.12 Q133.728 1041.12 136.783 1045.73 Q139.862 1050.31 139.862 1059.06 Q139.862 1067.79 136.783 1072.4 Q133.728 1076.98 127.917 1076.98 Q122.107 1076.98 119.029 1072.4 Q115.973 1067.79 115.973 1059.06 Q115.973 1050.31 119.029 1045.73 Q122.107 1041.12 127.917 1041.12 Z" fill="#000000" fill-rule="evenodd" fill-opacity="1" /><path clip-path="url(#clip670)" d="M 0 0 M144.931 1070.43 L149.816 1070.43 L149.816 1076.31 L144.931 1076.31 L144.931 1070.43 Z" fill="#000000" fill-rule="evenodd" fill-opacity="1" /><path clip-path="url(#clip670)" d="M 0 0 M155.695 1072.37 L163.334 1072.37 L163.334 1046.01 L155.024 1047.67 L155.024 1043.41 L163.288 1041.75 L167.964 1041.75 L167.964 1072.37 L175.602 1072.37 L175.602 1076.31 L155.695 1076.31 L155.695 1072.37 Z" fill="#000000" fill-rule="evenodd" fill-opacity="1" /><path clip-path="url(#clip670)" d="M 0 0 M128.288 719.398 Q124.677 719.398 122.848 722.963 Q121.043 726.505 121.043 733.635 Q121.043 740.741 122.848 744.306 Q124.677 747.847 128.288 747.847 Q131.922 747.847 133.728 744.306 Q135.556 740.741 135.556 733.635 Q135.556 726.505 133.728 722.963 Q131.922 719.398 128.288 719.398 M128.288 715.695 Q134.098 715.695 137.154 720.301 Q140.232 724.885 140.232 733.635 Q140.232 742.361 137.154 746.968 Q134.098 751.551 128.288 751.551 Q122.478 751.551 119.399 746.968 Q116.343 742.361 116.343 733.635 Q116.343 724.885 119.399 720.301 Q122.478 715.695 128.288 715.695 Z" fill="#000000" fill-rule="evenodd" fill-opacity="1" /><path clip-path="url(#clip670)" d="M 0 0 M145.302 745 L150.186 745 L150.186 750.88 L145.302 750.88 L145.302 745 Z" fill="#000000" fill-rule="evenodd" fill-opacity="1" /><path clip-path="url(#clip670)" d="M 0 0 M159.283 746.945 L175.602 746.945 L175.602 750.88 L153.658 750.88 L153.658 746.945 Q156.32 744.19 160.903 739.56 Q165.51 734.908 166.69 733.565 Q168.936 731.042 169.815 729.306 Q170.718 727.547 170.718 725.857 Q170.718 723.102 168.774 721.366 Q166.852 719.63 163.751 719.63 Q161.552 719.63 159.098 720.394 Q156.667 721.158 153.89 722.709 L153.89 717.986 Q156.714 716.852 159.167 716.273 Q161.621 715.695 163.658 715.695 Q169.028 715.695 172.223 718.38 Q175.417 721.065 175.417 725.556 Q175.417 727.685 174.607 729.607 Q173.82 731.505 171.714 734.097 Q171.135 734.769 168.033 737.986 Q164.931 741.181 159.283 746.945 Z" fill="#000000" fill-rule="evenodd" fill-opacity="1" /><path clip-path="url(#clip670)" d="M 0 0 M127.339 393.97 Q123.728 393.97 121.899 397.535 Q120.093 401.077 120.093 408.206 Q120.093 415.313 121.899 418.878 Q123.728 422.419 127.339 422.419 Q130.973 422.419 132.779 418.878 Q134.607 415.313 134.607 408.206 Q134.607 401.077 132.779 397.535 Q130.973 393.97 127.339 393.97 M127.339 390.267 Q133.149 390.267 136.204 394.873 Q139.283 399.456 139.283 408.206 Q139.283 416.933 136.204 421.54 Q133.149 426.123 127.339 426.123 Q121.529 426.123 118.45 421.54 Q115.394 416.933 115.394 408.206 Q115.394 399.456 118.45 394.873 Q121.529 390.267 127.339 390.267 Z" fill="#000000" fill-rule="evenodd" fill-opacity="1" /><path clip-path="url(#clip670)" d="M 0 0 M144.353 419.572 L149.237 419.572 L149.237 425.452 L144.353 425.452 L144.353 419.572 Z" fill="#000000" fill-rule="evenodd" fill-opacity="1" /><path clip-path="url(#clip670)" d="M 0 0 M168.473 406.818 Q171.829 407.535 173.704 409.804 Q175.602 412.072 175.602 415.405 Q175.602 420.521 172.084 423.322 Q168.565 426.123 162.084 426.123 Q159.908 426.123 157.593 425.683 Q155.302 425.266 152.848 424.41 L152.848 419.896 Q154.792 421.03 157.107 421.609 Q159.422 422.188 161.945 422.188 Q166.343 422.188 168.635 420.452 Q170.95 418.716 170.95 415.405 Q170.95 412.35 168.797 410.637 Q166.667 408.901 162.848 408.901 L158.82 408.901 L158.82 405.058 L163.033 405.058 Q166.482 405.058 168.311 403.693 Q170.139 402.304 170.139 399.711 Q170.139 397.049 168.241 395.637 Q166.366 394.202 162.848 394.202 Q160.927 394.202 158.728 394.619 Q156.528 395.035 153.89 395.915 L153.89 391.748 Q156.552 391.007 158.866 390.637 Q161.204 390.267 163.265 390.267 Q168.589 390.267 171.69 392.697 Q174.792 395.105 174.792 399.225 Q174.792 402.095 173.149 404.086 Q171.505 406.054 168.473 406.818 Z" fill="#000000" fill-rule="evenodd" fill-opacity="1" /><path clip-path="url(#clip670)" d="M 0 0 M126.205 68.5422 Q122.593 68.5422 120.765 72.107 Q118.959 75.6487 118.959 82.7783 Q118.959 89.8847 120.765 93.4495 Q122.593 96.9912 126.205 96.9912 Q129.839 96.9912 131.644 93.4495 Q133.473 89.8847 133.473 82.7783 Q133.473 75.6487 131.644 72.107 Q129.839 68.5422 126.205 68.5422 M126.205 64.8386 Q132.015 64.8386 135.07 69.445 Q138.149 74.0283 138.149 82.7783 Q138.149 91.5051 135.07 96.1115 Q132.015 100.695 126.205 100.695 Q120.394 100.695 117.316 96.1115 Q114.26 91.5051 114.26 82.7783 Q114.26 74.0283 117.316 69.445 Q120.394 64.8386 126.205 64.8386 Z" fill="#000000" fill-rule="evenodd" fill-opacity="1" /><path clip-path="url(#clip670)" d="M 0 0 M143.218 94.144 L148.103 94.144 L148.103 100.024 L143.218 100.024 L143.218 94.144 Z" fill="#000000" fill-rule="evenodd" fill-opacity="1" /><path clip-path="url(#clip670)" d="M 0 0 M166.019 69.5376 L154.214 87.9866 L166.019 87.9866 L166.019 69.5376 M164.792 65.4636 L170.672 65.4636 L170.672 87.9866 L175.602 87.9866 L175.602 91.8755 L170.672 91.8755 L170.672 100.024 L166.019 100.024 L166.019 91.8755 L150.417 91.8755 L150.417 87.3616 L164.792 65.4636 Z" fill="#000000" fill-rule="evenodd" fill-opacity="1" /><path clip-path="url(#clip670)" d="M 0 0 M14.479 762.107 L19.3487 762.107 L19.3487 767.709 Q19.3487 770.86 20.6219 772.101 Q21.895 773.311 25.2052 773.311 L28.3562 773.311 L28.3562 763.667 L32.9077 763.667 L32.9077 773.311 L64.0042 773.311 L64.0042 779.199 L32.9077 779.199 L32.9077 784.801 L28.3562 784.801 L28.3562 779.199 L25.8736 779.199 Q19.9216 779.199 17.2162 776.43 Q14.479 773.661 14.479 767.645 L14.479 762.107 Z" fill="#000000" fill-rule="evenodd" fill-opacity="1" /><path clip-path="url(#clip670)" d="M 0 0 M14.5426 741.896 Q21.8632 746.161 29.0246 748.23 Q36.186 750.299 43.5384 750.299 Q50.8908 750.299 58.1159 748.23 Q65.3091 746.129 72.5979 741.896 L72.5979 746.989 Q65.1182 751.763 57.8931 754.15 Q50.668 756.505 43.5384 756.505 Q36.4406 756.505 29.2474 754.15 Q22.0542 751.795 14.5426 746.989 L14.5426 741.896 Z" fill="#000000" fill-rule="evenodd" fill-opacity="1" /><path clip-path="url(#clip670)" d="M 0 0 M28.3562 706.121 L45.7028 719.011 L64.0042 705.452 L64.0042 712.359 L49.9996 722.735 L64.0042 733.111 L64.0042 740.018 L45.3526 726.173 L28.3562 738.84 L28.3562 731.934 L41.0558 722.481 L28.3562 713.027 L28.3562 706.121 Z" fill="#000000" fill-rule="evenodd" fill-opacity="1" /><path clip-path="url(#clip670)" d="M 0 0 M14.5426 700.232 L14.5426 695.14 Q22.0542 690.366 29.2474 688.01 Q36.4406 685.623 43.5384 685.623 Q50.668 685.623 57.8931 688.01 Q65.1182 690.366 72.5979 695.14 L72.5979 700.232 Q65.3091 695.999 58.1159 693.93 Q50.8908 691.83 43.5384 691.83 Q36.186 691.83 29.0246 693.93 Q21.8632 695.999 14.5426 700.232 Z" fill="#000000" fill-rule="evenodd" fill-opacity="1" /><polyline clip-path="url(#clip672)" style="stroke:#009af9; stroke-width:8; stroke-opacity:1; fill:none" points="
  886.97,1384.02 895.753,1383.81 904.535,1383.51 913.318,1383.07 922.1,1382.46 930.882,1381.62 939.665,1380.45 948.447,1378.85 957.23,1376.7 966.012,1373.82 
  974.795,1370.03 983.577,1365.08 992.359,1358.7 1001.14,1350.54 1009.92,1340.25 1018.71,1327.41 1027.49,1311.58 1036.27,1292.27 1045.05,1269.01 1053.84,1241.32 
  1062.62,1208.75 1071.4,1170.92 1080.18,1127.53 1088.97,1078.39 1097.75,1023.49 1106.53,962.969 1115.31,897.201 1124.1,826.774 1132.88,752.52 1141.66,675.504 
  1150.44,597.015 1159.23,518.54 1168.01,441.718 1176.79,368.294 1185.57,300.049 1194.35,238.736 1203.14,186.001 1211.92,143.313 1220.7,111.893 1229.48,92.6608 
  1238.27,86.1857 1247.05,92.6608 1255.83,111.893 1264.61,143.313 1273.4,186.001 1282.18,238.736 1290.96,300.049 1299.74,368.294 1308.53,441.718 1317.31,518.54 
  1326.09,597.015 1334.87,675.504 1343.66,752.52 1352.44,826.774 1361.22,897.201 1370,962.969 1378.79,1023.49 1387.57,1078.39 1396.35,1127.53 1405.13,1170.92 
  1413.92,1208.75 1422.7,1241.32 1431.48,1269.01 1440.26,1292.27 1449.05,1311.58 1457.83,1327.41 1466.61,1340.25 1475.39,1350.54 1484.17,1358.7 1492.96,1365.08 
  1501.74,1370.03 1510.52,1373.82 1519.3,1376.7 1528.09,1378.85 1536.87,1380.45 1545.65,1381.62 1554.43,1382.46 1563.22,1383.07 1572,1383.51 1580.78,1383.81 
  1589.56,1384.02 
  "/>
<polyline clip-path="url(#clip672)" style="stroke:#ff0000; stroke-width:16; stroke-opacity:1; fill:none" points="
  886.97,1384.24 895.753,1384.19 904.535,1384.13 913.318,1384.06 922.1,1383.98 930.882,1383.88 939.665,1383.76 948.447,1383.63 957.23,1383.46 966.012,1383.27 
  974.795,1383.04 983.577,1382.77 992.359,1382.45 1001.14,1382.08 1009.92,1381.65 1018.71,1381.15 1027.49,1380.58 1036.27,1379.91 1045.05,1379.14 1053.84,1378.26 
  1062.62,1377.24 1071.4,1376.09 1080.18,1374.77 1088.97,1373.27 1097.75,1371.58 1106.53,1369.66 1115.31,1367.5 1124.1,1365.07 1132.88,1362.35 1141.66,1359.32 
  1150.44,1355.94 1159.23,1352.18 1168.01,1348.02 1176.79,1343.42 1185.57,1338.36 1194.35,1332.81 1203.14,1326.73 1211.92,1320.1 1220.7,1312.89 1229.48,1305.06 
  1238.27,1296.61 1247.05,1287.49 1255.83,1277.69 1264.61,1267.2 1273.4,1255.99 1282.18,1244.07 1290.96,1231.42 1299.74,1218.06 1308.53,1203.97 1317.31,1189.18 
  1326.09,1173.71 1334.87,1157.58 1343.66,1140.83 1352.44,1123.49 1361.22,1105.62 1370,1087.26 1378.79,1068.49 1387.57,1049.37 1396.35,1029.98 1405.13,1010.41 
  1413.92,990.736 1422.7,971.066 1431.48,951.498 1440.26,932.136 1449.05,913.087 1457.83,894.463 1466.61,876.375 1475.39,858.935 1484.17,842.253 1492.96,826.438 
  1501.74,811.596 1510.52,797.828 1519.3,785.229 1528.09,773.887 1536.87,763.884 1545.65,755.293 1554.43,748.175 1563.22,742.583 1572,738.558 1580.78,736.132 
  1589.56,735.321 1598.35,736.132 1607.13,738.558 1615.91,742.583 1624.69,748.175 1633.48,755.293 1642.26,763.884 1651.04,773.887 1659.82,785.229 1668.61,797.828 
  1677.39,811.596 1686.17,826.438 1694.95,842.253 1703.74,858.935 1712.52,876.375 1721.3,894.463 1730.08,913.087 1738.86,932.136 1747.65,951.498 1756.43,971.066 
  1765.21,990.736 1773.99,1010.41 1782.78,1029.98 1791.56,1049.37 1800.34,1068.49 1809.12,1087.26 1817.91,1105.62 1826.69,1123.49 1835.47,1140.83 1844.25,1157.58 
  1853.04,1173.71 1861.82,1189.18 1870.6,1203.97 1879.38,1218.06 1888.17,1231.42 1896.95,1244.07 1905.73,1255.99 1914.51,1267.2 1923.3,1277.69 1932.08,1287.49 
  1940.86,1296.61 1949.64,1305.06 1958.43,1312.89 1967.21,1320.1 1975.99,1326.73 1984.77,1332.81 1993.56,1338.36 2002.34,1343.42 2011.12,1348.02 2019.9,1352.18 
  2028.68,1355.94 2037.47,1359.32 2046.25,1362.35 2055.03,1365.07 2063.81,1367.5 2072.6,1369.66 2081.38,1371.58 2090.16,1373.27 2098.94,1374.77 2107.73,1376.09 
  2116.51,1377.24 2125.29,1378.26 2134.07,1379.14 2142.86,1379.91 2151.64,1380.58 2160.42,1381.15 2169.2,1381.65 2177.99,1382.08 2186.77,1382.45 2195.55,1382.77 
  2204.33,1383.04 2213.12,1383.27 2221.9,1383.46 2230.68,1383.63 2239.46,1383.76 2248.25,1383.88 2257.03,1383.98 2265.81,1384.06 2274.59,1384.13 2283.37,1384.19 
  2292.16,1384.24 
  "/>
<polyline clip-path="url(#clip672)" style="stroke:#3da44d; stroke-width:8; stroke-opacity:1; fill:none" stroke-dasharray="32, 20" points="
  272.201,1384.24 280.984,1384.19 289.766,1384.13 298.548,1384.06 307.331,1383.98 316.113,1383.88 324.896,1383.76 333.678,1383.63 342.46,1383.46 351.243,1383.27 
  360.025,1383.04 368.808,1382.77 377.59,1382.45 386.373,1382.08 395.155,1381.65 403.937,1381.15 412.72,1380.58 421.502,1379.91 430.285,1379.14 439.067,1378.26 
  447.849,1377.24 456.632,1376.09 465.414,1374.77 474.197,1373.27 482.979,1371.58 491.762,1369.66 500.544,1367.5 509.326,1365.07 518.109,1362.35 526.891,1359.32 
  535.674,1355.94 544.456,1352.18 553.238,1348.02 562.021,1343.42 570.803,1338.36 579.586,1332.81 588.368,1326.73 597.151,1320.1 605.933,1312.89 614.715,1305.06 
  623.498,1296.61 632.28,1287.49 641.063,1277.69 649.845,1267.2 658.627,1255.99 667.41,1244.07 676.192,1231.42 684.975,1218.06 693.757,1203.97 702.54,1189.18 
  711.322,1173.71 720.104,1157.58 728.887,1140.83 737.669,1123.49 746.452,1105.62 755.234,1087.26 764.017,1068.49 772.799,1049.37 781.581,1029.98 790.364,1010.41 
  799.146,990.736 807.929,971.066 816.711,951.498 825.493,932.136 834.276,913.087 843.058,894.463 851.841,876.375 860.623,858.935 869.406,842.253 878.188,826.438 
  886.97,811.596 895.753,797.828 904.535,785.229 913.318,773.887 922.1,763.884 930.882,755.293 939.665,748.175 948.447,742.583 957.23,738.558 966.012,736.132 
  974.795,735.321 983.577,736.132 992.359,738.558 1001.14,742.583 1009.92,748.175 1018.71,755.293 1027.49,763.884 1036.27,773.887 1045.05,785.229 1053.84,797.828 
  1062.62,811.596 1071.4,826.438 1080.18,842.253 1088.97,858.935 1097.75,876.375 1106.53,894.463 1115.31,913.087 1124.1,932.136 1132.88,951.498 1141.66,971.066 
  1150.44,990.736 1159.23,1010.41 1168.01,1029.98 1176.79,1049.37 1185.57,1068.49 1194.35,1087.26 1203.14,1105.62 1211.92,1123.49 1220.7,1140.83 1229.48,1157.58 
  1238.27,1173.71 1247.05,1189.18 1255.83,1203.97 1264.61,1218.06 1273.4,1231.42 1282.18,1244.07 1290.96,1255.99 1299.74,1267.2 1308.53,1277.69 1317.31,1287.49 
  1326.09,1296.61 1334.87,1305.06 1343.66,1312.89 1352.44,1320.1 1361.22,1326.73 1370,1332.81 1378.79,1338.36 1387.57,1343.42 1396.35,1348.02 1405.13,1352.18 
  1413.92,1355.94 1422.7,1359.32 1431.48,1362.35 1440.26,1365.07 1449.05,1367.5 1457.83,1369.66 1466.61,1371.58 1475.39,1373.27 1484.17,1374.77 1492.96,1376.09 
  1501.74,1377.24 1510.52,1378.26 1519.3,1379.14 1528.09,1379.91 1536.87,1380.58 1545.65,1381.15 1554.43,1381.65 1563.22,1382.08 1572,1382.45 1580.78,1382.77 
  1589.56,1383.04 1598.35,1383.27 1607.13,1383.46 1615.91,1383.63 1624.69,1383.76 1633.48,1383.88 1642.26,1383.98 1651.04,1384.06 1659.82,1384.13 1668.61,1384.19 
  1677.39,1384.24 
  "/>
<path clip-path="url(#clip670)" d="
M1623.16 335.029 L2281.38 335.029 L2281.38 93.1086 L1623.16 93.1086  Z
  " fill="#ffffff" fill-rule="evenodd" fill-opacity="1"/>
<polyline clip-path="url(#clip670)" style="stroke:#000000; stroke-width:4; stroke-opacity:1; fill:none" points="
  1623.16,335.029 2281.38,335.029 2281.38,93.1086 1623.16,93.1086 1623.16,335.029 
  "/>
<polyline clip-path="url(#clip670)" style="stroke:#009af9; stroke-width:4; stroke-opacity:1; fill:none" points="
  1646.95,153.589 1789.69,153.589 
  "/>
<path clip-path="url(#clip670)" d="M 0 0 M1839.04 165.938 L1839.04 156.656 L1831.4 156.656 L1831.4 152.813 L1843.67 152.813 L1843.67 167.651 Q1840.96 169.572 1837.69 170.568 Q1834.43 171.54 1830.73 171.54 Q1822.62 171.54 1818.04 166.818 Q1813.48 162.072 1813.48 153.623 Q1813.48 145.151 1818.04 140.429 Q1822.62 135.684 1830.73 135.684 Q1834.11 135.684 1837.14 136.517 Q1840.19 137.35 1842.76 138.971 L1842.76 143.947 Q1840.17 141.748 1837.25 140.637 Q1834.34 139.526 1831.12 139.526 Q1824.78 139.526 1821.58 143.068 Q1818.41 146.609 1818.41 153.623 Q1818.41 160.614 1821.58 164.156 Q1824.78 167.697 1831.12 167.697 Q1833.6 167.697 1835.54 167.281 Q1837.49 166.841 1839.04 165.938 Z" fill="#000000" fill-rule="evenodd" fill-opacity="1" /><path clip-path="url(#clip670)" d="M 0 0 M1859.92 157.836 Q1854.75 157.836 1852.76 159.017 Q1850.77 160.197 1850.77 163.045 Q1850.77 165.313 1852.25 166.656 Q1853.76 167.975 1856.33 167.975 Q1859.87 167.975 1862 165.475 Q1864.15 162.952 1864.15 158.785 L1864.15 157.836 L1859.92 157.836 M1868.41 156.077 L1868.41 170.869 L1864.15 170.869 L1864.15 166.933 Q1862.69 169.295 1860.52 170.429 Q1858.34 171.54 1855.19 171.54 Q1851.21 171.54 1848.85 169.318 Q1846.51 167.072 1846.51 163.322 Q1846.51 158.947 1849.43 156.725 Q1852.37 154.503 1858.18 154.503 L1864.15 154.503 L1864.15 154.086 Q1864.15 151.147 1862.21 149.549 Q1860.29 147.929 1856.79 147.929 Q1854.57 147.929 1852.46 148.461 Q1850.36 148.994 1848.41 150.059 L1848.41 146.123 Q1850.75 145.221 1852.95 144.781 Q1855.15 144.318 1857.23 144.318 Q1862.86 144.318 1865.63 147.234 Q1868.41 150.151 1868.41 156.077 Z" fill="#000000" fill-rule="evenodd" fill-opacity="1" /><path clip-path="url(#clip670)" d="M 0 0 M1872.44 160.637 L1872.44 144.943 L1876.7 144.943 L1876.7 160.475 Q1876.7 164.156 1878.13 166.008 Q1879.57 167.836 1882.44 167.836 Q1885.89 167.836 1887.88 165.637 Q1889.89 163.438 1889.89 159.642 L1889.89 144.943 L1894.15 144.943 L1894.15 170.869 L1889.89 170.869 L1889.89 166.887 Q1888.34 169.248 1886.28 170.406 Q1884.24 171.54 1881.54 171.54 Q1877.07 171.54 1874.75 168.762 Q1872.44 165.984 1872.44 160.637 M1883.16 144.318 L1883.16 144.318 Z" fill="#000000" fill-rule="evenodd" fill-opacity="1" /><path clip-path="url(#clip670)" d="M 0 0 M1915.15 145.707 L1915.15 149.734 Q1913.34 148.809 1911.4 148.346 Q1909.45 147.883 1907.37 147.883 Q1904.2 147.883 1902.6 148.855 Q1901.03 149.827 1901.03 151.771 Q1901.03 153.253 1902.16 154.109 Q1903.3 154.943 1906.72 155.707 L1908.18 156.031 Q1912.72 157.003 1914.61 158.785 Q1916.54 160.545 1916.54 163.716 Q1916.54 167.327 1913.67 169.433 Q1910.82 171.54 1905.82 171.54 Q1903.74 171.54 1901.47 171.123 Q1899.22 170.73 1896.72 169.92 L1896.72 165.521 Q1899.08 166.748 1901.37 167.373 Q1903.67 167.975 1905.91 167.975 Q1908.92 167.975 1910.54 166.957 Q1912.16 165.915 1912.16 164.04 Q1912.16 162.304 1910.98 161.378 Q1909.82 160.452 1905.86 159.596 L1904.38 159.248 Q1900.43 158.415 1898.67 156.702 Q1896.91 154.966 1896.91 151.957 Q1896.91 148.299 1899.5 146.309 Q1902.09 144.318 1906.86 144.318 Q1909.22 144.318 1911.3 144.665 Q1913.39 145.012 1915.15 145.707 Z" fill="#000000" fill-rule="evenodd" fill-opacity="1" /><path clip-path="url(#clip670)" d="M 0 0 M1937.53 145.707 L1937.53 149.734 Q1935.73 148.809 1933.78 148.346 Q1931.84 147.883 1929.75 147.883 Q1926.58 147.883 1924.99 148.855 Q1923.41 149.827 1923.41 151.771 Q1923.41 153.253 1924.55 154.109 Q1925.68 154.943 1929.11 155.707 L1930.56 156.031 Q1935.1 157.003 1937 158.785 Q1938.92 160.545 1938.92 163.716 Q1938.92 167.327 1936.05 169.433 Q1933.2 171.54 1928.2 171.54 Q1926.12 171.54 1923.85 171.123 Q1921.61 170.73 1919.11 169.92 L1919.11 165.521 Q1921.47 166.748 1923.76 167.373 Q1926.05 167.975 1928.3 167.975 Q1931.3 167.975 1932.92 166.957 Q1934.55 165.915 1934.55 164.04 Q1934.55 162.304 1933.36 161.378 Q1932.21 160.452 1928.25 159.596 L1926.77 159.248 Q1922.81 158.415 1921.05 156.702 Q1919.29 154.966 1919.29 151.957 Q1919.29 148.299 1921.88 146.309 Q1924.48 144.318 1929.24 144.318 Q1931.61 144.318 1933.69 144.665 Q1935.77 145.012 1937.53 145.707 Z" fill="#000000" fill-rule="evenodd" fill-opacity="1" /><path clip-path="url(#clip670)" d="M 0 0 M1953.62 134.897 Q1950.52 140.221 1949.01 145.429 Q1947.51 150.637 1947.51 155.984 Q1947.51 161.332 1949.01 166.586 Q1950.54 171.818 1953.62 177.119 L1949.92 177.119 Q1946.44 171.679 1944.71 166.424 Q1942.99 161.17 1942.99 155.984 Q1942.99 150.822 1944.71 145.591 Q1946.42 140.36 1949.92 134.897 L1953.62 134.897 Z" fill="#000000" fill-rule="evenodd" fill-opacity="1" /><path clip-path="url(#clip670)" d="M 0 0 M1957.65 180.73 L1957.65 144.943 L1961.91 144.943 L1961.91 161.054 Q1961.91 164.41 1963.5 166.123 Q1965.1 167.836 1968.23 167.836 Q1971.65 167.836 1973.36 165.892 Q1975.1 163.947 1975.1 160.058 L1975.1 144.943 L1979.36 144.943 L1979.36 164.896 Q1979.36 166.285 1979.75 166.957 Q1980.17 167.605 1981.03 167.605 Q1981.23 167.605 1981.61 167.489 Q1981.98 167.35 1982.62 167.072 L1982.62 170.498 Q1981.67 171.031 1980.82 171.285 Q1979.98 171.54 1979.17 171.54 Q1977.58 171.54 1976.63 170.637 Q1975.68 169.734 1975.33 167.883 Q1974.17 169.711 1972.48 170.637 Q1970.82 171.54 1968.55 171.54 Q1966.19 171.54 1964.52 170.637 Q1962.88 169.734 1961.91 167.929 L1961.91 180.73 L1957.65 180.73 Z" fill="#000000" fill-rule="evenodd" fill-opacity="1" /><path clip-path="url(#clip670)" d="M 0 0 M2002.72 149.341 L2032.39 149.341 L2032.39 153.23 L2002.72 153.23 L2002.72 149.341 M2002.72 158.785 L2032.39 158.785 L2032.39 162.721 L2002.72 162.721 L2002.72 158.785 Z" fill="#000000" fill-rule="evenodd" fill-opacity="1" /><path clip-path="url(#clip670)" d="M 0 0 M2062.53 139.387 Q2058.92 139.387 2057.09 142.952 Q2055.29 146.494 2055.29 153.623 Q2055.29 160.73 2057.09 164.295 Q2058.92 167.836 2062.53 167.836 Q2066.16 167.836 2067.97 164.295 Q2069.8 160.73 2069.8 153.623 Q2069.8 146.494 2067.97 142.952 Q2066.16 139.387 2062.53 139.387 M2062.53 135.684 Q2068.34 135.684 2071.4 140.29 Q2074.48 144.873 2074.48 153.623 Q2074.48 162.35 2071.4 166.957 Q2068.34 171.54 2062.53 171.54 Q2056.72 171.54 2053.64 166.957 Q2050.59 162.35 2050.59 153.623 Q2050.59 144.873 2053.64 140.29 Q2056.72 135.684 2062.53 135.684 Z" fill="#000000" fill-rule="evenodd" fill-opacity="1" /><path clip-path="url(#clip670)" d="M 0 0 M2080.03 164.989 L2084.91 164.989 L2084.91 168.97 L2081.12 176.378 L2078.13 176.378 L2080.03 168.97 L2080.03 164.989 Z" fill="#000000" fill-rule="evenodd" fill-opacity="1" /><path clip-path="url(#clip670)" d="M 0 0 M2114.5 148.322 Q2110.98 148.322 2109.08 150.869 Q2107.09 153.531 2107.09 157.929 Q2107.09 162.582 2109.06 165.267 Q2111.05 167.929 2114.5 167.929 Q2117.9 167.929 2119.89 165.244 Q2121.88 162.558 2121.88 157.929 Q2121.88 153.693 2119.89 150.869 Q2118.06 148.322 2114.5 148.322 M2114.5 144.943 L2128.64 144.943 L2128.64 149.202 L2123.87 149.202 Q2126.4 152.813 2126.4 157.929 Q2126.4 164.295 2123.22 167.906 Q2120.05 171.54 2114.5 171.54 Q2108.92 171.54 2105.77 167.906 Q2102.6 164.295 2102.6 157.929 Q2102.6 151.517 2105.77 147.929 Q2108.39 144.943 2114.5 144.943 Z" fill="#000000" fill-rule="evenodd" fill-opacity="1" /><path clip-path="url(#clip670)" d="M 0 0 M2148.73 149.341 L2178.41 149.341 L2178.41 153.23 L2148.73 153.23 L2148.73 149.341 M2148.73 158.785 L2178.41 158.785 L2178.41 162.721 L2148.73 162.721 L2148.73 158.785 Z" fill="#000000" fill-rule="evenodd" fill-opacity="1" /><path clip-path="url(#clip670)" d="M 0 0 M2199.36 166.933 L2207 166.933 L2207 140.568 L2198.69 142.235 L2198.69 137.975 L2206.95 136.309 L2211.63 136.309 L2211.63 166.933 L2219.27 166.933 L2219.27 170.869 L2199.36 170.869 L2199.36 166.933 Z" fill="#000000" fill-rule="evenodd" fill-opacity="1" /><path clip-path="url(#clip670)" d="M 0 0 M2223.06 134.897 L2226.77 134.897 Q2230.24 140.36 2231.95 145.591 Q2233.69 150.822 2233.69 155.984 Q2233.69 161.17 2231.95 166.424 Q2230.24 171.679 2226.77 177.119 L2223.06 177.119 Q2226.14 171.818 2227.65 166.586 Q2229.17 161.332 2229.17 155.984 Q2229.17 150.637 2227.65 145.429 Q2226.14 140.221 2223.06 134.897 Z" fill="#000000" fill-rule="evenodd" fill-opacity="1" /><polyline clip-path="url(#clip670)" style="stroke:#ff0000; stroke-width:4; stroke-opacity:1; fill:none" points="
  1646.95,214.069 1789.69,214.069 
  "/>
<path clip-path="url(#clip670)" d="M 0 0 M1839.04 226.418 L1839.04 217.136 L1831.4 217.136 L1831.4 213.293 L1843.67 213.293 L1843.67 228.131 Q1840.96 230.052 1837.69 231.048 Q1834.43 232.02 1830.73 232.02 Q1822.62 232.02 1818.04 227.298 Q1813.48 222.552 1813.48 214.103 Q1813.48 205.631 1818.04 200.909 Q1822.62 196.164 1830.73 196.164 Q1834.11 196.164 1837.14 196.997 Q1840.19 197.83 1842.76 199.451 L1842.76 204.427 Q1840.17 202.228 1837.25 201.117 Q1834.34 200.006 1831.12 200.006 Q1824.78 200.006 1821.58 203.548 Q1818.41 207.089 1818.41 214.103 Q1818.41 221.094 1821.58 224.636 Q1824.78 228.177 1831.12 228.177 Q1833.6 228.177 1835.54 227.761 Q1837.49 227.321 1839.04 226.418 Z" fill="#000000" fill-rule="evenodd" fill-opacity="1" /><path clip-path="url(#clip670)" d="M 0 0 M1859.92 218.316 Q1854.75 218.316 1852.76 219.497 Q1850.77 220.677 1850.77 223.525 Q1850.77 225.793 1852.25 227.136 Q1853.76 228.455 1856.33 228.455 Q1859.87 228.455 1862 225.955 Q1864.15 223.432 1864.15 219.265 L1864.15 218.316 L1859.92 218.316 M1868.41 216.557 L1868.41 231.349 L1864.15 231.349 L1864.15 227.413 Q1862.69 229.775 1860.52 230.909 Q1858.34 232.02 1855.19 232.02 Q1851.21 232.02 1848.85 229.798 Q1846.51 227.552 1846.51 223.802 Q1846.51 219.427 1849.43 217.205 Q1852.37 214.983 1858.18 214.983 L1864.15 214.983 L1864.15 214.566 Q1864.15 211.627 1862.21 210.029 Q1860.29 208.409 1856.79 208.409 Q1854.57 208.409 1852.46 208.941 Q1850.36 209.474 1848.41 210.539 L1848.41 206.603 Q1850.75 205.701 1852.95 205.261 Q1855.15 204.798 1857.23 204.798 Q1862.86 204.798 1865.63 207.714 Q1868.41 210.631 1868.41 216.557 Z" fill="#000000" fill-rule="evenodd" fill-opacity="1" /><path clip-path="url(#clip670)" d="M 0 0 M1872.44 221.117 L1872.44 205.423 L1876.7 205.423 L1876.7 220.955 Q1876.7 224.636 1878.13 226.488 Q1879.57 228.316 1882.44 228.316 Q1885.89 228.316 1887.88 226.117 Q1889.89 223.918 1889.89 220.122 L1889.89 205.423 L1894.15 205.423 L1894.15 231.349 L1889.89 231.349 L1889.89 227.367 Q1888.34 229.728 1886.28 230.886 Q1884.24 232.02 1881.54 232.02 Q1877.07 232.02 1874.75 229.242 Q1872.44 226.464 1872.44 221.117 M1883.16 204.798 L1883.16 204.798 Z" fill="#000000" fill-rule="evenodd" fill-opacity="1" /><path clip-path="url(#clip670)" d="M 0 0 M1915.15 206.187 L1915.15 210.214 Q1913.34 209.289 1911.4 208.826 Q1909.45 208.363 1907.37 208.363 Q1904.2 208.363 1902.6 209.335 Q1901.03 210.307 1901.03 212.251 Q1901.03 213.733 1902.16 214.589 Q1903.3 215.423 1906.72 216.187 L1908.18 216.511 Q1912.72 217.483 1914.61 219.265 Q1916.54 221.025 1916.54 224.196 Q1916.54 227.807 1913.67 229.913 Q1910.82 232.02 1905.82 232.02 Q1903.74 232.02 1901.47 231.603 Q1899.22 231.21 1896.72 230.4 L1896.72 226.001 Q1899.08 227.228 1901.37 227.853 Q1903.67 228.455 1905.91 228.455 Q1908.92 228.455 1910.54 227.437 Q1912.16 226.395 1912.16 224.52 Q1912.16 222.784 1910.98 221.858 Q1909.82 220.932 1905.86 220.076 L1904.38 219.728 Q1900.43 218.895 1898.67 217.182 Q1896.91 215.446 1896.91 212.437 Q1896.91 208.779 1899.5 206.789 Q1902.09 204.798 1906.86 204.798 Q1909.22 204.798 1911.3 205.145 Q1913.39 205.492 1915.15 206.187 Z" fill="#000000" fill-rule="evenodd" fill-opacity="1" /><path clip-path="url(#clip670)" d="M 0 0 M1937.53 206.187 L1937.53 210.214 Q1935.73 209.289 1933.78 208.826 Q1931.84 208.363 1929.75 208.363 Q1926.58 208.363 1924.99 209.335 Q1923.41 210.307 1923.41 212.251 Q1923.41 213.733 1924.55 214.589 Q1925.68 215.423 1929.11 216.187 L1930.56 216.511 Q1935.1 217.483 1937 219.265 Q1938.92 221.025 1938.92 224.196 Q1938.92 227.807 1936.05 229.913 Q1933.2 232.02 1928.2 232.02 Q1926.12 232.02 1923.85 231.603 Q1921.61 231.21 1919.11 230.4 L1919.11 226.001 Q1921.47 227.228 1923.76 227.853 Q1926.05 228.455 1928.3 228.455 Q1931.3 228.455 1932.92 227.437 Q1934.55 226.395 1934.55 224.52 Q1934.55 222.784 1933.36 221.858 Q1932.21 220.932 1928.25 220.076 L1926.77 219.728 Q1922.81 218.895 1921.05 217.182 Q1919.29 215.446 1919.29 212.437 Q1919.29 208.779 1921.88 206.789 Q1924.48 204.798 1929.24 204.798 Q1931.61 204.798 1933.69 205.145 Q1935.77 205.492 1937.53 206.187 Z" fill="#000000" fill-rule="evenodd" fill-opacity="1" /><path clip-path="url(#clip670)" d="M 0 0 M1953.62 195.377 Q1950.52 200.701 1949.01 205.909 Q1947.51 211.117 1947.51 216.464 Q1947.51 221.812 1949.01 227.066 Q1950.54 232.298 1953.62 237.599 L1949.92 237.599 Q1946.44 232.159 1944.71 226.904 Q1942.99 221.65 1942.99 216.464 Q1942.99 211.302 1944.71 206.071 Q1946.42 200.84 1949.92 195.377 L1953.62 195.377 Z" fill="#000000" fill-rule="evenodd" fill-opacity="1" /><path clip-path="url(#clip670)" d="M 0 0 M1957.65 241.21 L1957.65 205.423 L1961.91 205.423 L1961.91 221.534 Q1961.91 224.89 1963.5 226.603 Q1965.1 228.316 1968.23 228.316 Q1971.65 228.316 1973.36 226.372 Q1975.1 224.427 1975.1 220.538 L1975.1 205.423 L1979.36 205.423 L1979.36 225.376 Q1979.36 226.765 1979.75 227.437 Q1980.17 228.085 1981.03 228.085 Q1981.23 228.085 1981.61 227.969 Q1981.98 227.83 1982.62 227.552 L1982.62 230.978 Q1981.67 231.511 1980.82 231.765 Q1979.98 232.02 1979.17 232.02 Q1977.58 232.02 1976.63 231.117 Q1975.68 230.214 1975.33 228.363 Q1974.17 230.191 1972.48 231.117 Q1970.82 232.02 1968.55 232.02 Q1966.19 232.02 1964.52 231.117 Q1962.88 230.214 1961.91 228.409 L1961.91 241.21 L1957.65 241.21 Z" fill="#000000" fill-rule="evenodd" fill-opacity="1" /><path clip-path="url(#clip670)" d="M 0 0 M2002.72 209.821 L2032.39 209.821 L2032.39 213.71 L2002.72 213.71 L2002.72 209.821 M2002.72 219.265 L2032.39 219.265 L2032.39 223.201 L2002.72 223.201 L2002.72 219.265 Z" fill="#000000" fill-rule="evenodd" fill-opacity="1" /><path clip-path="url(#clip670)" d="M 0 0 M2065.38 200.863 L2053.57 219.312 L2065.38 219.312 L2065.38 200.863 M2064.15 196.789 L2070.03 196.789 L2070.03 219.312 L2074.96 219.312 L2074.96 223.201 L2070.03 223.201 L2070.03 231.349 L2065.38 231.349 L2065.38 223.201 L2049.78 223.201 L2049.78 218.687 L2064.15 196.789 Z" fill="#000000" fill-rule="evenodd" fill-opacity="1" /><path clip-path="url(#clip670)" d="M 0 0 M2080.52 225.469 L2085.4 225.469 L2085.4 229.45 L2081.6 236.858 L2078.62 236.858 L2080.52 229.45 L2080.52 225.469 Z" fill="#000000" fill-rule="evenodd" fill-opacity="1" /><path clip-path="url(#clip670)" d="M 0 0 M2114.98 208.802 Q2111.47 208.802 2109.57 211.349 Q2107.58 214.011 2107.58 218.409 Q2107.58 223.062 2109.54 225.747 Q2111.54 228.409 2114.98 228.409 Q2118.39 228.409 2120.38 225.724 Q2122.37 223.038 2122.37 218.409 Q2122.37 214.173 2120.38 211.349 Q2118.55 208.802 2114.98 208.802 M2114.98 205.423 L2129.13 205.423 L2129.13 209.682 L2124.36 209.682 Q2126.88 213.293 2126.88 218.409 Q2126.88 224.775 2123.71 228.386 Q2120.54 232.02 2114.98 232.02 Q2109.41 232.02 2106.26 228.386 Q2103.09 224.775 2103.09 218.409 Q2103.09 211.997 2106.26 208.409 Q2108.87 205.423 2114.98 205.423 Z" fill="#000000" fill-rule="evenodd" fill-opacity="1" /><path clip-path="url(#clip670)" d="M 0 0 M2149.22 209.821 L2178.9 209.821 L2178.9 213.71 L2149.22 213.71 L2149.22 209.821 M2149.22 219.265 L2178.9 219.265 L2178.9 223.201 L2149.22 223.201 L2149.22 219.265 Z" fill="#000000" fill-rule="evenodd" fill-opacity="1" /><path clip-path="url(#clip670)" d="M 0 0 M2203.06 227.413 L2219.38 227.413 L2219.38 231.349 L2197.44 231.349 L2197.44 227.413 Q2200.1 224.659 2204.68 220.029 Q2209.29 215.376 2210.47 214.034 Q2212.72 211.511 2213.59 209.775 Q2214.5 208.015 2214.5 206.326 Q2214.5 203.571 2212.55 201.835 Q2210.63 200.099 2207.53 200.099 Q2205.33 200.099 2202.88 200.863 Q2200.45 201.627 2197.67 203.177 L2197.67 198.455 Q2200.49 197.321 2202.95 196.742 Q2205.4 196.164 2207.44 196.164 Q2212.81 196.164 2216 198.849 Q2219.2 201.534 2219.2 206.025 Q2219.2 208.154 2218.39 210.076 Q2217.6 211.974 2215.49 214.566 Q2214.91 215.238 2211.81 218.455 Q2208.71 221.65 2203.06 227.413 Z" fill="#000000" fill-rule="evenodd" fill-opacity="1" /><path clip-path="url(#clip670)" d="M 0 0 M2223.18 195.377 L2226.88 195.377 Q2230.35 200.84 2232.07 206.071 Q2233.8 211.302 2233.8 216.464 Q2233.8 221.65 2232.07 226.904 Q2230.35 232.159 2226.88 237.599 L2223.18 237.599 Q2226.26 232.298 2227.76 227.066 Q2229.29 221.812 2229.29 216.464 Q2229.29 211.117 2227.76 205.909 Q2226.26 200.701 2223.18 195.377 Z" fill="#000000" fill-rule="evenodd" fill-opacity="1" /><polyline clip-path="url(#clip670)" style="stroke:#3da44d; stroke-width:4; stroke-opacity:1; fill:none" stroke-dasharray="16, 10" points="
  1646.95,274.549 1789.69,274.549 
  "/>
<path clip-path="url(#clip670)" d="M 0 0 M1835.19 276.181 L1835.19 291.829 L1830.93 291.829 L1830.93 276.319 Q1830.93 272.639 1829.5 270.81 Q1828.06 268.982 1825.19 268.982 Q1821.74 268.982 1819.75 271.181 Q1817.76 273.38 1817.76 277.176 L1817.76 291.829 L1813.48 291.829 L1813.48 265.903 L1817.76 265.903 L1817.76 269.931 Q1819.29 267.593 1821.35 266.435 Q1823.43 265.278 1826.14 265.278 Q1830.61 265.278 1832.9 268.056 Q1835.19 270.81 1835.19 276.181 Z" fill="#000000" fill-rule="evenodd" fill-opacity="1" /><path clip-path="url(#clip670)" d="M 0 0 M1861.84 277.801 L1861.84 279.884 L1842.25 279.884 Q1842.53 284.282 1844.89 286.597 Q1847.28 288.889 1851.51 288.889 Q1853.97 288.889 1856.26 288.287 Q1858.57 287.685 1860.84 286.481 L1860.84 290.509 Q1858.55 291.481 1856.14 291.991 Q1853.74 292.5 1851.26 292.5 Q1845.06 292.5 1841.42 288.889 Q1837.81 285.278 1837.81 279.12 Q1837.81 272.755 1841.24 269.028 Q1844.68 265.278 1850.52 265.278 Q1855.75 265.278 1858.78 268.657 Q1861.84 272.014 1861.84 277.801 M1857.58 276.551 Q1857.53 273.056 1855.61 270.972 Q1853.71 268.889 1850.56 268.889 Q1847 268.889 1844.85 270.903 Q1842.72 272.917 1842.39 276.574 L1857.58 276.551 Z" fill="#000000" fill-rule="evenodd" fill-opacity="1" /><path clip-path="url(#clip670)" d="M 0 0 M1863.83 265.903 L1868.09 265.903 L1873.41 286.134 L1878.71 265.903 L1883.74 265.903 L1889.06 286.134 L1894.36 265.903 L1898.62 265.903 L1891.84 291.829 L1886.81 291.829 L1881.24 270.579 L1875.63 291.829 L1870.61 291.829 L1863.83 265.903 Z" fill="#000000" fill-rule="evenodd" fill-opacity="1" /><path clip-path="url(#clip670)" d="M 0 0 M1918.16 255.81 L1922.42 255.81 L1922.42 291.829 L1918.16 291.829 L1918.16 255.81 Z" fill="#000000" fill-rule="evenodd" fill-opacity="1" /><path clip-path="url(#clip670)" d="M 0 0 M1938.67 278.796 Q1933.5 278.796 1931.51 279.977 Q1929.52 281.157 1929.52 284.005 Q1929.52 286.273 1931 287.616 Q1932.51 288.935 1935.08 288.935 Q1938.62 288.935 1940.75 286.435 Q1942.9 283.912 1942.9 279.745 L1942.9 278.796 L1938.67 278.796 M1947.16 277.037 L1947.16 291.829 L1942.9 291.829 L1942.9 287.893 Q1941.44 290.255 1939.27 291.389 Q1937.09 292.5 1933.94 292.5 Q1929.96 292.5 1927.6 290.278 Q1925.26 288.032 1925.26 284.282 Q1925.26 279.907 1928.18 277.685 Q1931.12 275.463 1936.93 275.463 L1942.9 275.463 L1942.9 275.046 Q1942.9 272.107 1940.96 270.509 Q1939.04 268.889 1935.54 268.889 Q1933.32 268.889 1931.21 269.421 Q1929.11 269.954 1927.16 271.019 L1927.16 267.083 Q1929.5 266.181 1931.7 265.741 Q1933.9 265.278 1935.98 265.278 Q1941.61 265.278 1944.38 268.194 Q1947.16 271.111 1947.16 277.037 Z" fill="#000000" fill-rule="evenodd" fill-opacity="1" /><path clip-path="url(#clip670)" d="M 0 0 M1970.24 278.889 Q1970.24 274.19 1968.3 271.528 Q1966.37 268.843 1962.99 268.843 Q1959.61 268.843 1957.67 271.528 Q1955.75 274.19 1955.75 278.889 Q1955.75 283.588 1957.67 286.273 Q1959.61 288.935 1962.99 288.935 Q1966.37 288.935 1968.3 286.273 Q1970.24 283.588 1970.24 278.889 M1955.75 269.838 Q1957.09 267.523 1959.13 266.412 Q1961.19 265.278 1964.04 265.278 Q1968.76 265.278 1971.7 269.028 Q1974.66 272.778 1974.66 278.889 Q1974.66 285 1971.7 288.75 Q1968.76 292.5 1964.04 292.5 Q1961.19 292.5 1959.13 291.389 Q1957.09 290.255 1955.75 287.94 L1955.75 291.829 L1951.47 291.829 L1951.47 255.81 L1955.75 255.81 L1955.75 269.838 Z" fill="#000000" fill-rule="evenodd" fill-opacity="1" /><path clip-path="url(#clip670)" d="M 0 0 M2001.3 277.801 L2001.3 279.884 L1981.72 279.884 Q1982 284.282 1984.36 286.597 Q1986.74 288.889 1990.98 288.889 Q1993.43 288.889 1995.73 288.287 Q1998.04 287.685 2000.31 286.481 L2000.31 290.509 Q1998.02 291.481 1995.61 291.991 Q1993.2 292.5 1990.73 292.5 Q1984.52 292.5 1980.89 288.889 Q1977.28 285.278 1977.28 279.12 Q1977.28 272.755 1980.7 269.028 Q1984.15 265.278 1989.98 265.278 Q1995.22 265.278 1998.25 268.657 Q2001.3 272.014 2001.3 277.801 M1997.04 276.551 Q1997 273.056 1995.08 270.972 Q1993.18 268.889 1990.03 268.889 Q1986.47 268.889 1984.31 270.903 Q1982.18 272.917 1981.86 276.574 L1997.04 276.551 Z" fill="#000000" fill-rule="evenodd" fill-opacity="1" /><path clip-path="url(#clip670)" d="M 0 0 M2005.77 255.81 L2010.03 255.81 L2010.03 291.829 L2005.77 291.829 L2005.77 255.81 Z" fill="#000000" fill-rule="evenodd" fill-opacity="1" /></svg>
