<?xml version="1.0" encoding="utf-8"?>
<svg xmlns="http://www.w3.org/2000/svg" xmlns:xlink="http://www.w3.org/1999/xlink" width="600" height="400" viewBox="0 0 2400 1600">
<defs>
  <clipPath id="clip160">
    <rect x="0" y="0" width="2400" height="1600"/>
  </clipPath>
</defs>
<path clip-path="url(#clip160)" d="
M0 1600 L2400 1600 L2400 0 L0 0  Z
  " fill="#ffffff" fill-rule="evenodd" fill-opacity="1"/>
<defs>
  <clipPath id="clip161">
    <rect x="480" y="0" width="1681" height="1600"/>
  </clipPath>
</defs>
<path clip-path="url(#clip160)" d="
M219.033 1423.18 L2352.76 1423.18 L2352.76 47.2441 L219.033 47.2441  Z
  " fill="#ffffff" fill-rule="evenodd" fill-opacity="1"/>
<defs>
  <clipPath id="clip162">
    <rect x="219" y="47" width="2135" height="1377"/>
  </clipPath>
</defs>
<polyline clip-path="url(#clip162)" style="stroke:#000000; stroke-linecap:butt; stroke-linejoin:round; stroke-width:2; stroke-opacity:0.1; fill:none" points="
  328.518,1423.18 328.518,47.2441 
  "/>
<polyline clip-path="url(#clip162)" style="stroke:#000000; stroke-linecap:butt; stroke-linejoin:round; stroke-width:2; stroke-opacity:0.1; fill:none" points="
  819.48,1423.18 819.48,47.2441 
  "/>
<polyline clip-path="url(#clip162)" style="stroke:#000000; stroke-linecap:butt; stroke-linejoin:round; stroke-width:2; stroke-opacity:0.1; fill:none" points="
  1310.44,1423.18 1310.44,47.2441 
  "/>
<polyline clip-path="url(#clip162)" style="stroke:#000000; stroke-linecap:butt; stroke-linejoin:round; stroke-width:2; stroke-opacity:0.1; fill:none" points="
  1801.41,1423.18 1801.41,47.2441 
  "/>
<polyline clip-path="url(#clip162)" style="stroke:#000000; stroke-linecap:butt; stroke-linejoin:round; stroke-width:2; stroke-opacity:0.1; fill:none" points="
  2292.37,1423.18 2292.37,47.2441 
  "/>
<polyline clip-path="url(#clip160)" style="stroke:#000000; stroke-linecap:butt; stroke-linejoin:round; stroke-width:4; stroke-opacity:1; fill:none" points="
  219.033,1423.18 2352.76,1423.18 
  "/>
<polyline clip-path="url(#clip160)" style="stroke:#000000; stroke-linecap:butt; stroke-linejoin:round; stroke-width:4; stroke-opacity:1; fill:none" points="
  328.518,1423.18 328.518,1404.28 
  "/>
<polyline clip-path="url(#clip160)" style="stroke:#000000; stroke-linecap:butt; stroke-linejoin:round; stroke-width:4; stroke-opacity:1; fill:none" points="
  819.48,1423.18 819.48,1404.28 
  "/>
<polyline clip-path="url(#clip160)" style="stroke:#000000; stroke-linecap:butt; stroke-linejoin:round; stroke-width:4; stroke-opacity:1; fill:none" points="
  1310.44,1423.18 1310.44,1404.28 
  "/>
<polyline clip-path="url(#clip160)" style="stroke:#000000; stroke-linecap:butt; stroke-linejoin:round; stroke-width:4; stroke-opacity:1; fill:none" points="
  1801.41,1423.18 1801.41,1404.28 
  "/>
<polyline clip-path="url(#clip160)" style="stroke:#000000; stroke-linecap:butt; stroke-linejoin:round; stroke-width:4; stroke-opacity:1; fill:none" points="
  2292.37,1423.18 2292.37,1404.28 
  "/>
<path clip-path="url(#clip160)" d="M332.765 1466.95 Q336.122 1467.66 337.997 1469.93 Q339.895 1472.2 339.895 1475.53 Q339.895 1480.65 336.376 1483.45 Q332.858 1486.25 326.376 1486.25 Q324.2 1486.25 321.886 1485.81 Q319.594 1485.39 317.14 1484.54 L317.14 1480.02 Q319.085 1481.16 321.4 1481.74 Q323.714 1482.32 326.237 1482.32 Q330.636 1482.32 332.927 1480.58 Q335.242 1478.84 335.242 1475.53 Q335.242 1472.48 333.089 1470.77 Q330.96 1469.03 327.14 1469.03 L323.113 1469.03 L323.113 1465.19 L327.325 1465.19 Q330.775 1465.19 332.603 1463.82 Q334.432 1462.43 334.432 1459.84 Q334.432 1457.18 332.534 1455.77 Q330.659 1454.33 327.14 1454.33 Q325.219 1454.33 323.02 1454.75 Q320.821 1455.16 318.182 1456.04 L318.182 1451.88 Q320.844 1451.14 323.159 1450.77 Q325.497 1450.39 327.557 1450.39 Q332.881 1450.39 335.983 1452.83 Q339.085 1455.23 339.085 1459.35 Q339.085 1462.22 337.441 1464.21 Q335.798 1466.18 332.765 1466.95 Z" fill="#000000" fill-rule="evenodd" fill-opacity="1" /><path clip-path="url(#clip160)" d="M822.489 1455.09 L810.684 1473.54 L822.489 1473.54 L822.489 1455.09 M821.262 1451.02 L827.142 1451.02 L827.142 1473.54 L832.073 1473.54 L832.073 1477.43 L827.142 1477.43 L827.142 1485.58 L822.489 1485.58 L822.489 1477.43 L806.888 1477.43 L806.888 1472.92 L821.262 1451.02 Z" fill="#000000" fill-rule="evenodd" fill-opacity="1" /><path clip-path="url(#clip160)" d="M1300.72 1451.02 L1319.08 1451.02 L1319.08 1454.96 L1305 1454.96 L1305 1463.43 Q1306.02 1463.08 1307.04 1462.92 Q1308.06 1462.73 1309.08 1462.73 Q1314.86 1462.73 1318.24 1465.9 Q1321.62 1469.08 1321.62 1474.49 Q1321.62 1480.07 1318.15 1483.17 Q1314.68 1486.25 1308.36 1486.25 Q1306.18 1486.25 1303.91 1485.88 Q1301.67 1485.51 1299.26 1484.77 L1299.26 1480.07 Q1301.35 1481.2 1303.57 1481.76 Q1305.79 1482.32 1308.27 1482.32 Q1312.27 1482.32 1314.61 1480.21 Q1316.95 1478.1 1316.95 1474.49 Q1316.95 1470.88 1314.61 1468.77 Q1312.27 1466.67 1308.27 1466.67 Q1306.39 1466.67 1304.52 1467.08 Q1302.66 1467.5 1300.72 1468.38 L1300.72 1451.02 Z" fill="#000000" fill-rule="evenodd" fill-opacity="1" /><path clip-path="url(#clip160)" d="M1801.81 1466.44 Q1798.66 1466.44 1796.81 1468.59 Q1794.98 1470.74 1794.98 1474.49 Q1794.98 1478.22 1796.81 1480.39 Q1798.66 1482.55 1801.81 1482.55 Q1804.96 1482.55 1806.79 1480.39 Q1808.64 1478.22 1808.64 1474.49 Q1808.64 1470.74 1806.79 1468.59 Q1804.96 1466.44 1801.81 1466.44 M1811.09 1451.78 L1811.09 1456.04 Q1809.33 1455.21 1807.53 1454.77 Q1805.75 1454.33 1803.99 1454.33 Q1799.36 1454.33 1796.9 1457.45 Q1794.47 1460.58 1794.12 1466.9 Q1795.49 1464.89 1797.55 1463.82 Q1799.61 1462.73 1802.09 1462.73 Q1807.3 1462.73 1810.31 1465.9 Q1813.34 1469.05 1813.34 1474.49 Q1813.34 1479.82 1810.19 1483.03 Q1807.04 1486.25 1801.81 1486.25 Q1795.81 1486.25 1792.64 1481.67 Q1789.47 1477.06 1789.47 1468.33 Q1789.47 1460.14 1793.36 1455.28 Q1797.25 1450.39 1803.8 1450.39 Q1805.56 1450.39 1807.34 1450.74 Q1809.15 1451.09 1811.09 1451.78 Z" fill="#000000" fill-rule="evenodd" fill-opacity="1" /><path clip-path="url(#clip160)" d="M2281.26 1451.02 L2303.48 1451.02 L2303.48 1453.01 L2290.93 1485.58 L2286.05 1485.58 L2297.85 1454.96 L2281.26 1454.96 L2281.26 1451.02 Z" fill="#000000" fill-rule="evenodd" fill-opacity="1" /><path clip-path="url(#clip160)" d="M1103.69 1525.81 L1103.69 1543.66 L1111.78 1543.66 Q1116.26 1543.66 1118.72 1541.34 Q1121.17 1539.02 1121.17 1534.72 Q1121.17 1530.45 1118.72 1528.13 Q1116.26 1525.81 1111.78 1525.81 L1103.69 1525.81 M1097.26 1520.52 L1111.78 1520.52 Q1119.77 1520.52 1123.84 1524.15 Q1127.95 1527.75 1127.95 1534.72 Q1127.95 1541.75 1123.84 1545.35 Q1119.77 1548.95 1111.78 1548.95 L1103.69 1548.95 L1103.69 1568.04 L1097.26 1568.04 L1097.26 1520.52 Z" fill="#000000" fill-rule="evenodd" fill-opacity="1" /><path clip-path="url(#clip160)" d="M1164.48 1548.76 L1164.48 1551.62 L1137.56 1551.62 Q1137.94 1557.67 1141.19 1560.85 Q1144.46 1564 1150.29 1564 Q1153.66 1564 1156.81 1563.17 Q1160 1562.35 1163.12 1560.69 L1163.12 1566.23 Q1159.96 1567.57 1156.65 1568.27 Q1153.34 1568.97 1149.94 1568.97 Q1141.41 1568.97 1136.41 1564 Q1131.45 1559.04 1131.45 1550.57 Q1131.45 1541.82 1136.16 1536.69 Q1140.9 1531.54 1148.92 1531.54 Q1156.11 1531.54 1160.28 1536.18 Q1164.48 1540.8 1164.48 1548.76 M1158.63 1547.04 Q1158.56 1542.23 1155.92 1539.37 Q1153.31 1536.5 1148.98 1536.5 Q1144.08 1536.5 1141.12 1539.27 Q1138.19 1542.04 1137.75 1547.07 L1158.63 1547.04 Z" fill="#000000" fill-rule="evenodd" fill-opacity="1" /><path clip-path="url(#clip160)" d="M1179.89 1522.27 L1179.89 1532.4 L1191.95 1532.4 L1191.95 1536.95 L1179.89 1536.95 L1179.89 1556.3 Q1179.89 1560.66 1181.07 1561.9 Q1182.28 1563.14 1185.94 1563.14 L1191.95 1563.14 L1191.95 1568.04 L1185.94 1568.04 Q1179.16 1568.04 1176.58 1565.53 Q1174 1562.98 1174 1556.3 L1174 1536.95 L1169.7 1536.95 L1169.7 1532.4 L1174 1532.4 L1174 1522.27 L1179.89 1522.27 Z" fill="#000000" fill-rule="evenodd" fill-opacity="1" /><path clip-path="url(#clip160)" d="M1215.86 1550.12 Q1208.76 1550.12 1206.02 1551.75 Q1203.28 1553.37 1203.28 1557.29 Q1203.28 1560.4 1205.32 1562.25 Q1207.39 1564.07 1210.92 1564.07 Q1215.79 1564.07 1218.72 1560.63 Q1221.68 1557.16 1221.68 1551.43 L1221.68 1550.12 L1215.86 1550.12 M1227.54 1547.71 L1227.54 1568.04 L1221.68 1568.04 L1221.68 1562.63 Q1219.68 1565.88 1216.68 1567.44 Q1213.69 1568.97 1209.36 1568.97 Q1203.89 1568.97 1200.64 1565.91 Q1197.43 1562.82 1197.43 1557.67 Q1197.43 1551.65 1201.44 1548.6 Q1205.48 1545.54 1213.47 1545.54 L1221.68 1545.54 L1221.68 1544.97 Q1221.68 1540.93 1219.01 1538.73 Q1216.36 1536.5 1211.56 1536.5 Q1208.5 1536.5 1205.61 1537.23 Q1202.71 1537.97 1200.04 1539.43 L1200.04 1534.02 Q1203.25 1532.78 1206.28 1532.17 Q1209.3 1531.54 1212.16 1531.54 Q1219.9 1531.54 1223.72 1535.55 Q1227.54 1539.56 1227.54 1547.71 Z" fill="#000000" fill-rule="evenodd" fill-opacity="1" /><path clip-path="url(#clip160)" d="M1239.6 1518.52 L1245.46 1518.52 L1245.46 1568.04 L1239.6 1568.04 L1239.6 1518.52 Z" fill="#000000" fill-rule="evenodd" fill-opacity="1" /><path clip-path="url(#clip160)" d="M1278.43 1518.52 L1284.29 1518.52 L1284.29 1568.04 L1278.43 1568.04 L1278.43 1518.52 Z" fill="#000000" fill-rule="evenodd" fill-opacity="1" /><path clip-path="url(#clip160)" d="M1327.03 1548.76 L1327.03 1551.62 L1300.11 1551.62 Q1300.49 1557.67 1303.73 1560.85 Q1307.01 1564 1312.84 1564 Q1316.21 1564 1319.36 1563.17 Q1322.54 1562.35 1325.66 1560.69 L1325.66 1566.23 Q1322.51 1567.57 1319.2 1568.27 Q1315.89 1568.97 1312.49 1568.97 Q1303.96 1568.97 1298.96 1564 Q1293.99 1559.04 1293.99 1550.57 Q1293.99 1541.82 1298.71 1536.69 Q1303.45 1531.54 1311.47 1531.54 Q1318.66 1531.54 1322.83 1536.18 Q1327.03 1540.8 1327.03 1548.76 M1321.18 1547.04 Q1321.11 1542.23 1318.47 1539.37 Q1315.86 1536.5 1311.53 1536.5 Q1306.63 1536.5 1303.67 1539.27 Q1300.74 1542.04 1300.3 1547.07 L1321.18 1547.04 Z" fill="#000000" fill-rule="evenodd" fill-opacity="1" /><path clip-path="url(#clip160)" d="M1366.28 1546.53 L1366.28 1568.04 L1360.42 1568.04 L1360.42 1546.72 Q1360.42 1541.66 1358.45 1539.14 Q1356.47 1536.63 1352.53 1536.63 Q1347.79 1536.63 1345.05 1539.65 Q1342.31 1542.68 1342.31 1547.9 L1342.31 1568.04 L1336.42 1568.04 L1336.42 1532.4 L1342.31 1532.4 L1342.31 1537.93 Q1344.41 1534.72 1347.24 1533.13 Q1350.11 1531.54 1353.83 1531.54 Q1359.98 1531.54 1363.13 1535.36 Q1366.28 1539.14 1366.28 1546.53 Z" fill="#000000" fill-rule="evenodd" fill-opacity="1" /><path clip-path="url(#clip160)" d="M1401.42 1549.81 Q1401.42 1543.44 1398.77 1539.94 Q1396.16 1536.44 1391.42 1536.44 Q1386.71 1536.44 1384.07 1539.94 Q1381.46 1543.44 1381.46 1549.81 Q1381.46 1556.14 1384.07 1559.64 Q1386.71 1563.14 1391.42 1563.14 Q1396.16 1563.14 1398.77 1559.64 Q1401.42 1556.14 1401.42 1549.81 M1407.27 1563.62 Q1407.27 1572.72 1403.23 1577.15 Q1399.19 1581.6 1390.85 1581.6 Q1387.76 1581.6 1385.02 1581.13 Q1382.29 1580.68 1379.71 1579.72 L1379.71 1574.03 Q1382.29 1575.43 1384.8 1576.1 Q1387.32 1576.76 1389.93 1576.76 Q1395.69 1576.76 1398.55 1573.74 Q1401.42 1570.75 1401.42 1564.67 L1401.42 1561.77 Q1399.6 1564.92 1396.77 1566.48 Q1393.94 1568.04 1389.99 1568.04 Q1383.43 1568.04 1379.42 1563.05 Q1375.41 1558.05 1375.41 1549.81 Q1375.41 1541.53 1379.42 1536.53 Q1383.43 1531.54 1389.99 1531.54 Q1393.94 1531.54 1396.77 1533.1 Q1399.6 1534.66 1401.42 1537.81 L1401.42 1532.4 L1407.27 1532.4 L1407.27 1563.62 Z" fill="#000000" fill-rule="evenodd" fill-opacity="1" /><path clip-path="url(#clip160)" d="M1425.13 1522.27 L1425.13 1532.4 L1437.19 1532.4 L1437.19 1536.95 L1425.13 1536.95 L1425.13 1556.3 Q1425.13 1560.66 1426.31 1561.9 Q1427.52 1563.14 1431.18 1563.14 L1437.19 1563.14 L1437.19 1568.04 L1431.18 1568.04 Q1424.4 1568.04 1421.82 1565.53 Q1419.24 1562.98 1419.24 1556.3 L1419.24 1536.95 L1414.94 1536.95 L1414.94 1532.4 L1419.24 1532.4 L1419.24 1522.27 L1425.13 1522.27 Z" fill="#000000" fill-rule="evenodd" fill-opacity="1" /><path clip-path="url(#clip160)" d="M1474.53 1546.53 L1474.53 1568.04 L1468.67 1568.04 L1468.67 1546.72 Q1468.67 1541.66 1466.7 1539.14 Q1464.72 1536.63 1460.78 1536.63 Q1456.03 1536.63 1453.3 1539.65 Q1450.56 1542.68 1450.56 1547.9 L1450.56 1568.04 L1444.67 1568.04 L1444.67 1518.52 L1450.56 1518.52 L1450.56 1537.93 Q1452.66 1534.72 1455.49 1533.13 Q1458.36 1531.54 1462.08 1531.54 Q1468.22 1531.54 1471.38 1535.36 Q1474.53 1539.14 1474.53 1546.53 Z" fill="#000000" fill-rule="evenodd" fill-opacity="1" /><polyline clip-path="url(#clip162)" style="stroke:#000000; stroke-linecap:butt; stroke-linejoin:round; stroke-width:2; stroke-opacity:0.1; fill:none" points="
  219.033,1307.88 2352.76,1307.88 
  "/>
<polyline clip-path="url(#clip162)" style="stroke:#000000; stroke-linecap:butt; stroke-linejoin:round; stroke-width:2; stroke-opacity:0.1; fill:none" points="
  219.033,926.102 2352.76,926.102 
  "/>
<polyline clip-path="url(#clip162)" style="stroke:#000000; stroke-linecap:butt; stroke-linejoin:round; stroke-width:2; stroke-opacity:0.1; fill:none" points="
  219.033,544.322 2352.76,544.322 
  "/>
<polyline clip-path="url(#clip162)" style="stroke:#000000; stroke-linecap:butt; stroke-linejoin:round; stroke-width:2; stroke-opacity:0.1; fill:none" points="
  219.033,162.542 2352.76,162.542 
  "/>
<polyline clip-path="url(#clip160)" style="stroke:#000000; stroke-linecap:butt; stroke-linejoin:round; stroke-width:4; stroke-opacity:1; fill:none" points="
  219.033,1423.18 219.033,47.2441 
  "/>
<polyline clip-path="url(#clip160)" style="stroke:#000000; stroke-linecap:butt; stroke-linejoin:round; stroke-width:4; stroke-opacity:1; fill:none" points="
  219.033,1307.88 237.931,1307.88 
  "/>
<polyline clip-path="url(#clip160)" style="stroke:#000000; stroke-linecap:butt; stroke-linejoin:round; stroke-width:4; stroke-opacity:1; fill:none" points="
  219.033,926.102 237.931,926.102 
  "/>
<polyline clip-path="url(#clip160)" style="stroke:#000000; stroke-linecap:butt; stroke-linejoin:round; stroke-width:4; stroke-opacity:1; fill:none" points="
  219.033,544.322 237.931,544.322 
  "/>
<polyline clip-path="url(#clip160)" style="stroke:#000000; stroke-linecap:butt; stroke-linejoin:round; stroke-width:4; stroke-opacity:1; fill:none" points="
  219.033,162.542 237.931,162.542 
  "/>
<path clip-path="url(#clip160)" d="M116.668 1321.23 L124.306 1321.23 L124.306 1294.86 L115.996 1296.53 L115.996 1292.27 L124.26 1290.6 L128.936 1290.6 L128.936 1321.23 L136.575 1321.23 L136.575 1325.16 L116.668 1325.16 L116.668 1321.23 Z" fill="#000000" fill-rule="evenodd" fill-opacity="1" /><path clip-path="url(#clip160)" d="M146.019 1319.28 L150.903 1319.28 L150.903 1325.16 L146.019 1325.16 L146.019 1319.28 Z" fill="#000000" fill-rule="evenodd" fill-opacity="1" /><path clip-path="url(#clip160)" d="M171.089 1293.68 Q167.477 1293.68 165.649 1297.25 Q163.843 1300.79 163.843 1307.92 Q163.843 1315.02 165.649 1318.59 Q167.477 1322.13 171.089 1322.13 Q174.723 1322.13 176.528 1318.59 Q178.357 1315.02 178.357 1307.92 Q178.357 1300.79 176.528 1297.25 Q174.723 1293.68 171.089 1293.68 M171.089 1289.98 Q176.899 1289.98 179.954 1294.58 Q183.033 1299.17 183.033 1307.92 Q183.033 1316.64 179.954 1321.25 Q176.899 1325.83 171.089 1325.83 Q165.278 1325.83 162.2 1321.25 Q159.144 1316.64 159.144 1307.92 Q159.144 1299.17 162.2 1294.58 Q165.278 1289.98 171.089 1289.98 Z" fill="#000000" fill-rule="evenodd" fill-opacity="1" /><path clip-path="url(#clip160)" d="M117.663 939.447 L125.302 939.447 L125.302 913.081 L116.992 914.748 L116.992 910.489 L125.255 908.822 L129.931 908.822 L129.931 939.447 L137.57 939.447 L137.57 943.382 L117.663 943.382 L117.663 939.447 Z" fill="#000000" fill-rule="evenodd" fill-opacity="1" /><path clip-path="url(#clip160)" d="M147.015 937.502 L151.899 937.502 L151.899 943.382 L147.015 943.382 L147.015 937.502 Z" fill="#000000" fill-rule="evenodd" fill-opacity="1" /><path clip-path="url(#clip160)" d="M162.13 908.822 L180.487 908.822 L180.487 912.757 L166.413 912.757 L166.413 921.229 Q167.431 920.882 168.45 920.72 Q169.468 920.535 170.487 920.535 Q176.274 920.535 179.653 923.706 Q183.033 926.878 183.033 932.294 Q183.033 937.873 179.561 940.975 Q176.089 944.053 169.769 944.053 Q167.593 944.053 165.325 943.683 Q163.079 943.313 160.672 942.572 L160.672 937.873 Q162.755 939.007 164.977 939.563 Q167.2 940.118 169.677 940.118 Q173.681 940.118 176.019 938.012 Q178.357 935.905 178.357 932.294 Q178.357 928.683 176.019 926.577 Q173.681 924.47 169.677 924.47 Q167.802 924.47 165.927 924.887 Q164.075 925.303 162.13 926.183 L162.13 908.822 Z" fill="#000000" fill-rule="evenodd" fill-opacity="1" /><path clip-path="url(#clip160)" d="M119.885 557.667 L136.204 557.667 L136.204 561.602 L114.26 561.602 L114.26 557.667 Q116.922 554.912 121.505 550.282 Q126.112 545.63 127.292 544.287 Q129.538 541.764 130.417 540.028 Q131.32 538.269 131.32 536.579 Q131.32 533.824 129.376 532.088 Q127.455 530.352 124.353 530.352 Q122.154 530.352 119.7 531.116 Q117.269 531.88 114.492 533.431 L114.492 528.709 Q117.316 527.574 119.769 526.996 Q122.223 526.417 124.26 526.417 Q129.63 526.417 132.825 529.102 Q136.019 531.787 136.019 536.278 Q136.019 538.408 135.209 540.329 Q134.422 542.227 132.316 544.82 Q131.737 545.491 128.635 548.708 Q125.533 551.903 119.885 557.667 Z" fill="#000000" fill-rule="evenodd" fill-opacity="1" /><path clip-path="url(#clip160)" d="M146.019 555.722 L150.903 555.722 L150.903 561.602 L146.019 561.602 L146.019 555.722 Z" fill="#000000" fill-rule="evenodd" fill-opacity="1" /><path clip-path="url(#clip160)" d="M171.089 530.121 Q167.477 530.121 165.649 533.685 Q163.843 537.227 163.843 544.357 Q163.843 551.463 165.649 555.028 Q167.477 558.569 171.089 558.569 Q174.723 558.569 176.528 555.028 Q178.357 551.463 178.357 544.357 Q178.357 537.227 176.528 533.685 Q174.723 530.121 171.089 530.121 M171.089 526.417 Q176.899 526.417 179.954 531.023 Q183.033 535.607 183.033 544.357 Q183.033 553.083 179.954 557.69 Q176.899 562.273 171.089 562.273 Q165.278 562.273 162.2 557.69 Q159.144 553.083 159.144 544.357 Q159.144 535.607 162.2 531.023 Q165.278 526.417 171.089 526.417 Z" fill="#000000" fill-rule="evenodd" fill-opacity="1" /><path clip-path="url(#clip160)" d="M120.88 175.887 L137.2 175.887 L137.2 179.822 L115.256 179.822 L115.256 175.887 Q117.918 173.132 122.501 168.502 Q127.107 163.85 128.288 162.507 Q130.533 159.984 131.413 158.248 Q132.316 156.488 132.316 154.799 Q132.316 152.044 130.371 150.308 Q128.45 148.572 125.348 148.572 Q123.149 148.572 120.695 149.336 Q118.265 150.1 115.487 151.651 L115.487 146.928 Q118.311 145.794 120.765 145.215 Q123.218 144.637 125.255 144.637 Q130.626 144.637 133.82 147.322 Q137.015 150.007 137.015 154.498 Q137.015 156.627 136.204 158.549 Q135.417 160.447 133.311 163.039 Q132.732 163.711 129.63 166.928 Q126.529 170.123 120.88 175.887 Z" fill="#000000" fill-rule="evenodd" fill-opacity="1" /><path clip-path="url(#clip160)" d="M147.015 173.942 L151.899 173.942 L151.899 179.822 L147.015 179.822 L147.015 173.942 Z" fill="#000000" fill-rule="evenodd" fill-opacity="1" /><path clip-path="url(#clip160)" d="M162.13 145.262 L180.487 145.262 L180.487 149.197 L166.413 149.197 L166.413 157.669 Q167.431 157.322 168.45 157.16 Q169.468 156.975 170.487 156.975 Q176.274 156.975 179.653 160.146 Q183.033 163.317 183.033 168.734 Q183.033 174.312 179.561 177.414 Q176.089 180.493 169.769 180.493 Q167.593 180.493 165.325 180.123 Q163.079 179.752 160.672 179.012 L160.672 174.312 Q162.755 175.447 164.977 176.002 Q167.2 176.558 169.677 176.558 Q173.681 176.558 176.019 174.451 Q178.357 172.345 178.357 168.734 Q178.357 165.123 176.019 163.016 Q173.681 160.91 169.677 160.91 Q167.802 160.91 165.927 161.326 Q164.075 161.743 162.13 162.623 L162.13 145.262 Z" fill="#000000" fill-rule="evenodd" fill-opacity="1" /><path clip-path="url(#clip160)" d="M21.7677 903.362 L39.6235 903.362 L39.6235 895.278 Q39.6235 890.79 37.3 888.339 Q34.9765 885.888 30.6797 885.888 Q26.4147 885.888 24.0912 888.339 Q21.7677 890.79 21.7677 895.278 L21.7677 903.362 M16.4842 909.791 L16.4842 895.278 Q16.4842 887.289 20.1126 883.215 Q23.7092 879.109 30.6797 879.109 Q37.7138 879.109 41.3104 883.215 Q44.907 887.289 44.907 895.278 L44.907 903.362 L64.0042 903.362 L64.0042 909.791 L16.4842 909.791 Z" fill="#000000" fill-rule="evenodd" fill-opacity="1" /><path clip-path="url(#clip160)" d="M44.7161 842.57 L47.5806 842.57 L47.5806 869.497 Q53.6281 869.115 56.8109 865.868 Q59.9619 862.59 59.9619 856.765 Q59.9619 853.391 59.1344 850.24 Q58.3069 847.057 56.6518 843.938 L62.1899 843.938 Q63.5267 847.089 64.227 850.399 Q64.9272 853.71 64.9272 857.115 Q64.9272 865.645 59.9619 870.642 Q54.9967 875.608 46.5303 875.608 Q37.7774 875.608 32.6531 870.897 Q27.4968 866.155 27.4968 858.134 Q27.4968 850.941 32.1438 846.771 Q36.7589 842.57 44.7161 842.57 M42.9973 848.426 Q38.1912 848.49 35.3266 851.131 Q32.4621 853.741 32.4621 858.07 Q32.4621 862.972 35.2312 865.932 Q38.0002 868.86 43.0292 869.306 L42.9973 848.426 Z" fill="#000000" fill-rule="evenodd" fill-opacity="1" /><path clip-path="url(#clip160)" d="M18.2347 827.165 L28.3562 827.165 L28.3562 815.102 L32.9077 815.102 L32.9077 827.165 L52.2594 827.165 Q56.6199 827.165 57.8613 825.987 Q59.1026 824.777 59.1026 821.117 L59.1026 815.102 L64.0042 815.102 L64.0042 821.117 Q64.0042 827.897 61.4897 830.475 Q58.9434 833.053 52.2594 833.053 L32.9077 833.053 L32.9077 837.35 L28.3562 837.35 L28.3562 833.053 L18.2347 833.053 L18.2347 827.165 Z" fill="#000000" fill-rule="evenodd" fill-opacity="1" /><path clip-path="url(#clip160)" d="M46.0847 791.198 Q46.0847 798.296 47.7079 801.033 Q49.3312 803.771 53.2461 803.771 Q56.3653 803.771 58.2114 801.734 Q60.0256 799.665 60.0256 796.132 Q60.0256 791.262 56.5881 788.334 Q53.1188 785.374 47.3897 785.374 L46.0847 785.374 L46.0847 791.198 M43.6657 779.517 L64.0042 779.517 L64.0042 785.374 L58.5933 785.374 Q61.8398 787.379 63.3994 790.371 Q64.9272 793.363 64.9272 797.691 Q64.9272 803.166 61.8716 806.412 Q58.7843 809.627 53.6281 809.627 Q47.6125 809.627 44.5569 805.617 Q41.5014 801.574 41.5014 793.585 L41.5014 785.374 L40.9285 785.374 Q36.8862 785.374 34.6901 788.047 Q32.4621 790.689 32.4621 795.495 Q32.4621 798.551 33.1941 801.447 Q33.9262 804.344 35.3903 807.017 L29.9795 807.017 Q28.7381 803.802 28.1334 800.779 Q27.4968 797.755 27.4968 794.89 Q27.4968 787.156 31.5072 783.337 Q35.5176 779.517 43.6657 779.517 Z" fill="#000000" fill-rule="evenodd" fill-opacity="1" /><path clip-path="url(#clip160)" d="M14.479 767.454 L14.479 761.598 L64.0042 761.598 L64.0042 767.454 L14.479 767.454 Z" fill="#000000" fill-rule="evenodd" fill-opacity="1" /><path clip-path="url(#clip160)" d="M28.3562 732.029 L28.3562 726.173 L56.1743 718.852 L28.3562 711.563 L28.3562 704.657 L56.1743 697.336 L28.3562 690.047 L28.3562 684.191 L64.0042 693.517 L64.0042 700.423 L34.7856 708.094 L64.0042 715.797 L64.0042 722.703 L28.3562 732.029 Z" fill="#000000" fill-rule="evenodd" fill-opacity="1" /><path clip-path="url(#clip160)" d="M28.3562 675.311 L28.3562 669.454 L64.0042 669.454 L64.0042 675.311 L28.3562 675.311 M14.479 675.311 L14.479 669.454 L21.895 669.454 L21.895 675.311 L14.479 675.311 Z" fill="#000000" fill-rule="evenodd" fill-opacity="1" /><path clip-path="url(#clip160)" d="M33.7671 633.743 L14.479 633.743 L14.479 627.886 L64.0042 627.886 L64.0042 633.743 L58.657 633.743 Q61.8398 635.589 63.3994 638.421 Q64.9272 641.222 64.9272 645.169 Q64.9272 651.63 59.771 655.704 Q54.6147 659.747 46.212 659.747 Q37.8093 659.747 32.6531 655.704 Q27.4968 651.63 27.4968 645.169 Q27.4968 641.222 29.0564 638.421 Q30.5842 635.589 33.7671 633.743 M46.212 653.699 Q52.6732 653.699 56.3653 651.057 Q60.0256 648.384 60.0256 643.737 Q60.0256 639.09 56.3653 636.416 Q52.6732 633.743 46.212 633.743 Q39.7508 633.743 36.0905 636.416 Q32.3984 639.09 32.3984 643.737 Q32.3984 648.384 36.0905 651.057 Q39.7508 653.699 46.212 653.699 Z" fill="#000000" fill-rule="evenodd" fill-opacity="1" /><path clip-path="url(#clip160)" d="M18.2347 610.03 L28.3562 610.03 L28.3562 597.967 L32.9077 597.967 L32.9077 610.03 L52.2594 610.03 Q56.6199 610.03 57.8613 608.853 Q59.1026 607.643 59.1026 603.983 L59.1026 597.967 L64.0042 597.967 L64.0042 603.983 Q64.0042 610.762 61.4897 613.341 Q58.9434 615.919 52.2594 615.919 L32.9077 615.919 L32.9077 620.215 L28.3562 620.215 L28.3562 615.919 L18.2347 615.919 L18.2347 610.03 Z" fill="#000000" fill-rule="evenodd" fill-opacity="1" /><path clip-path="url(#clip160)" d="M42.4881 560.632 L64.0042 560.632 L64.0042 566.489 L42.679 566.489 Q37.6183 566.489 35.1038 568.462 Q32.5894 570.436 32.5894 574.382 Q32.5894 579.125 35.6131 581.862 Q38.6368 584.599 43.8567 584.599 L64.0042 584.599 L64.0042 590.488 L14.479 590.488 L14.479 584.599 L33.8944 584.599 Q30.6797 582.499 29.0883 579.666 Q27.4968 576.801 27.4968 573.077 Q27.4968 566.935 31.3163 563.783 Q35.1038 560.632 42.4881 560.632 Z" fill="#000000" fill-rule="evenodd" fill-opacity="1" /><circle clip-path="url(#clip162)" cx="1163.15" cy="1002.46" r="14" fill="#009af9" fill-rule="evenodd" fill-opacity="1" stroke="#000000" stroke-opacity="1" stroke-width="3.2"/>
<circle clip-path="url(#clip162)" cx="1064.96" cy="926.102" r="14" fill="#009af9" fill-rule="evenodd" fill-opacity="1" stroke="#000000" stroke-opacity="1" stroke-width="3.2"/>
<circle clip-path="url(#clip162)" cx="1261.35" cy="926.102" r="14" fill="#009af9" fill-rule="evenodd" fill-opacity="1" stroke="#000000" stroke-opacity="1" stroke-width="3.2"/>
<circle clip-path="url(#clip162)" cx="819.48" cy="1078.81" r="14" fill="#009af9" fill-rule="evenodd" fill-opacity="1" stroke="#000000" stroke-opacity="1" stroke-width="3.2"/>
<circle clip-path="url(#clip162)" cx="1114.06" cy="926.102" r="14" fill="#009af9" fill-rule="evenodd" fill-opacity="1" stroke="#000000" stroke-opacity="1" stroke-width="3.2"/>
<circle clip-path="url(#clip162)" cx="1064.96" cy="1078.81" r="14" fill="#009af9" fill-rule="evenodd" fill-opacity="1" stroke="#000000" stroke-opacity="1" stroke-width="3.2"/>
<circle clip-path="url(#clip162)" cx="1163.15" cy="849.746" r="14" fill="#009af9" fill-rule="evenodd" fill-opacity="1" stroke="#000000" stroke-opacity="1" stroke-width="3.2"/>
<circle clip-path="url(#clip162)" cx="475.806" cy="1307.88" r="14" fill="#009af9" fill-rule="evenodd" fill-opacity="1" stroke="#000000" stroke-opacity="1" stroke-width="3.2"/>
<circle clip-path="url(#clip162)" cx="1114.06" cy="1078.81" r="14" fill="#009af9" fill-rule="evenodd" fill-opacity="1" stroke="#000000" stroke-opacity="1" stroke-width="3.2"/>
<circle clip-path="url(#clip162)" cx="770.384" cy="1002.46" r="14" fill="#009af9" fill-rule="evenodd" fill-opacity="1" stroke="#000000" stroke-opacity="1" stroke-width="3.2"/>
<circle clip-path="url(#clip162)" cx="573.999" cy="1307.88" r="14" fill="#009af9" fill-rule="evenodd" fill-opacity="1" stroke="#000000" stroke-opacity="1" stroke-width="3.2"/>
<circle clip-path="url(#clip162)" cx="917.673" cy="926.102" r="14" fill="#009af9" fill-rule="evenodd" fill-opacity="1" stroke="#000000" stroke-opacity="1" stroke-width="3.2"/>
<circle clip-path="url(#clip162)" cx="819.48" cy="1307.88" r="14" fill="#009af9" fill-rule="evenodd" fill-opacity="1" stroke="#000000" stroke-opacity="1" stroke-width="3.2"/>
<circle clip-path="url(#clip162)" cx="1163.15" cy="1002.46" r="14" fill="#009af9" fill-rule="evenodd" fill-opacity="1" stroke="#000000" stroke-opacity="1" stroke-width="3.2"/>
<circle clip-path="url(#clip162)" cx="623.095" cy="1078.81" r="14" fill="#009af9" fill-rule="evenodd" fill-opacity="1" stroke="#000000" stroke-opacity="1" stroke-width="3.2"/>
<circle clip-path="url(#clip162)" cx="1015.87" cy="1002.46" r="14" fill="#009af9" fill-rule="evenodd" fill-opacity="1" stroke="#000000" stroke-opacity="1" stroke-width="3.2"/>
<circle clip-path="url(#clip162)" cx="1064.96" cy="926.102" r="14" fill="#009af9" fill-rule="evenodd" fill-opacity="1" stroke="#000000" stroke-opacity="1" stroke-width="3.2"/>
<circle clip-path="url(#clip162)" cx="868.576" cy="1307.88" r="14" fill="#009af9" fill-rule="evenodd" fill-opacity="1" stroke="#000000" stroke-opacity="1" stroke-width="3.2"/>
<circle clip-path="url(#clip162)" cx="1064.96" cy="926.102" r="14" fill="#009af9" fill-rule="evenodd" fill-opacity="1" stroke="#000000" stroke-opacity="1" stroke-width="3.2"/>
<circle clip-path="url(#clip162)" cx="770.384" cy="1231.53" r="14" fill="#009af9" fill-rule="evenodd" fill-opacity="1" stroke="#000000" stroke-opacity="1" stroke-width="3.2"/>
<circle clip-path="url(#clip162)" cx="1212.25" cy="697.034" r="14" fill="#009af9" fill-rule="evenodd" fill-opacity="1" stroke="#000000" stroke-opacity="1" stroke-width="3.2"/>
<circle clip-path="url(#clip162)" cx="819.48" cy="1078.81" r="14" fill="#009af9" fill-rule="evenodd" fill-opacity="1" stroke="#000000" stroke-opacity="1" stroke-width="3.2"/>
<circle clip-path="url(#clip162)" cx="1261.35" cy="926.102" r="14" fill="#009af9" fill-rule="evenodd" fill-opacity="1" stroke="#000000" stroke-opacity="1" stroke-width="3.2"/>
<circle clip-path="url(#clip162)" cx="1163.15" cy="1155.17" r="14" fill="#009af9" fill-rule="evenodd" fill-opacity="1" stroke="#000000" stroke-opacity="1" stroke-width="3.2"/>
<circle clip-path="url(#clip162)" cx="966.769" cy="1078.81" r="14" fill="#009af9" fill-rule="evenodd" fill-opacity="1" stroke="#000000" stroke-opacity="1" stroke-width="3.2"/>
<circle clip-path="url(#clip162)" cx="1015.87" cy="1002.46" r="14" fill="#009af9" fill-rule="evenodd" fill-opacity="1" stroke="#000000" stroke-opacity="1" stroke-width="3.2"/>
<circle clip-path="url(#clip162)" cx="1212.25" cy="1002.46" r="14" fill="#009af9" fill-rule="evenodd" fill-opacity="1" stroke="#000000" stroke-opacity="1" stroke-width="3.2"/>
<circle clip-path="url(#clip162)" cx="1310.44" cy="773.39" r="14" fill="#009af9" fill-rule="evenodd" fill-opacity="1" stroke="#000000" stroke-opacity="1" stroke-width="3.2"/>
<circle clip-path="url(#clip162)" cx="1064.96" cy="926.102" r="14" fill="#009af9" fill-rule="evenodd" fill-opacity="1" stroke="#000000" stroke-opacity="1" stroke-width="3.2"/>
<circle clip-path="url(#clip162)" cx="573.999" cy="1307.88" r="14" fill="#009af9" fill-rule="evenodd" fill-opacity="1" stroke="#000000" stroke-opacity="1" stroke-width="3.2"/>
<circle clip-path="url(#clip162)" cx="721.288" cy="1231.53" r="14" fill="#009af9" fill-rule="evenodd" fill-opacity="1" stroke="#000000" stroke-opacity="1" stroke-width="3.2"/>
<circle clip-path="url(#clip162)" cx="672.191" cy="1307.88" r="14" fill="#009af9" fill-rule="evenodd" fill-opacity="1" stroke="#000000" stroke-opacity="1" stroke-width="3.2"/>
<circle clip-path="url(#clip162)" cx="770.384" cy="1155.17" r="14" fill="#009af9" fill-rule="evenodd" fill-opacity="1" stroke="#000000" stroke-opacity="1" stroke-width="3.2"/>
<circle clip-path="url(#clip162)" cx="1359.54" cy="849.746" r="14" fill="#009af9" fill-rule="evenodd" fill-opacity="1" stroke="#000000" stroke-opacity="1" stroke-width="3.2"/>
<circle clip-path="url(#clip162)" cx="1064.96" cy="926.102" r="14" fill="#009af9" fill-rule="evenodd" fill-opacity="1" stroke="#000000" stroke-opacity="1" stroke-width="3.2"/>
<circle clip-path="url(#clip162)" cx="1064.96" cy="849.746" r="14" fill="#009af9" fill-rule="evenodd" fill-opacity="1" stroke="#000000" stroke-opacity="1" stroke-width="3.2"/>
<circle clip-path="url(#clip162)" cx="1163.15" cy="926.102" r="14" fill="#009af9" fill-rule="evenodd" fill-opacity="1" stroke="#000000" stroke-opacity="1" stroke-width="3.2"/>
<circle clip-path="url(#clip162)" cx="1015.87" cy="1078.81" r="14" fill="#009af9" fill-rule="evenodd" fill-opacity="1" stroke="#000000" stroke-opacity="1" stroke-width="3.2"/>
<circle clip-path="url(#clip162)" cx="868.576" cy="1078.81" r="14" fill="#009af9" fill-rule="evenodd" fill-opacity="1" stroke="#000000" stroke-opacity="1" stroke-width="3.2"/>
<circle clip-path="url(#clip162)" cx="819.48" cy="1078.81" r="14" fill="#009af9" fill-rule="evenodd" fill-opacity="1" stroke="#000000" stroke-opacity="1" stroke-width="3.2"/>
<circle clip-path="url(#clip162)" cx="1015.87" cy="1155.17" r="14" fill="#009af9" fill-rule="evenodd" fill-opacity="1" stroke="#000000" stroke-opacity="1" stroke-width="3.2"/>
<circle clip-path="url(#clip162)" cx="1114.06" cy="1002.46" r="14" fill="#009af9" fill-rule="evenodd" fill-opacity="1" stroke="#000000" stroke-opacity="1" stroke-width="3.2"/>
<circle clip-path="url(#clip162)" cx="819.48" cy="1155.17" r="14" fill="#009af9" fill-rule="evenodd" fill-opacity="1" stroke="#000000" stroke-opacity="1" stroke-width="3.2"/>
<circle clip-path="url(#clip162)" cx="475.806" cy="1307.88" r="14" fill="#009af9" fill-rule="evenodd" fill-opacity="1" stroke="#000000" stroke-opacity="1" stroke-width="3.2"/>
<circle clip-path="url(#clip162)" cx="917.673" cy="1078.81" r="14" fill="#009af9" fill-rule="evenodd" fill-opacity="1" stroke="#000000" stroke-opacity="1" stroke-width="3.2"/>
<circle clip-path="url(#clip162)" cx="917.673" cy="1155.17" r="14" fill="#009af9" fill-rule="evenodd" fill-opacity="1" stroke="#000000" stroke-opacity="1" stroke-width="3.2"/>
<circle clip-path="url(#clip162)" cx="917.673" cy="1078.81" r="14" fill="#009af9" fill-rule="evenodd" fill-opacity="1" stroke="#000000" stroke-opacity="1" stroke-width="3.2"/>
<circle clip-path="url(#clip162)" cx="966.769" cy="1078.81" r="14" fill="#009af9" fill-rule="evenodd" fill-opacity="1" stroke="#000000" stroke-opacity="1" stroke-width="3.2"/>
<circle clip-path="url(#clip162)" cx="328.518" cy="1231.53" r="14" fill="#009af9" fill-rule="evenodd" fill-opacity="1" stroke="#000000" stroke-opacity="1" stroke-width="3.2"/>
<circle clip-path="url(#clip162)" cx="868.576" cy="1078.81" r="14" fill="#009af9" fill-rule="evenodd" fill-opacity="1" stroke="#000000" stroke-opacity="1" stroke-width="3.2"/>
<circle clip-path="url(#clip162)" cx="1801.41" cy="162.542" r="14" fill="#e26f46" fill-rule="evenodd" fill-opacity="1" stroke="#000000" stroke-opacity="1" stroke-width="3.2"/>
<circle clip-path="url(#clip162)" cx="1359.54" cy="620.678" r="14" fill="#e26f46" fill-rule="evenodd" fill-opacity="1" stroke="#000000" stroke-opacity="1" stroke-width="3.2"/>
<circle clip-path="url(#clip162)" cx="1752.31" cy="467.966" r="14" fill="#e26f46" fill-rule="evenodd" fill-opacity="1" stroke="#000000" stroke-opacity="1" stroke-width="3.2"/>
<circle clip-path="url(#clip162)" cx="1605.02" cy="697.034" r="14" fill="#e26f46" fill-rule="evenodd" fill-opacity="1" stroke="#000000" stroke-opacity="1" stroke-width="3.2"/>
<circle clip-path="url(#clip162)" cx="1703.21" cy="391.61" r="14" fill="#e26f46" fill-rule="evenodd" fill-opacity="1" stroke="#000000" stroke-opacity="1" stroke-width="3.2"/>
<circle clip-path="url(#clip162)" cx="2095.98" cy="467.966" r="14" fill="#e26f46" fill-rule="evenodd" fill-opacity="1" stroke="#000000" stroke-opacity="1" stroke-width="3.2"/>
<circle clip-path="url(#clip162)" cx="1064.96" cy="773.39" r="14" fill="#e26f46" fill-rule="evenodd" fill-opacity="1" stroke="#000000" stroke-opacity="1" stroke-width="3.2"/>
<circle clip-path="url(#clip162)" cx="1948.69" cy="697.034" r="14" fill="#e26f46" fill-rule="evenodd" fill-opacity="1" stroke="#000000" stroke-opacity="1" stroke-width="3.2"/>
<circle clip-path="url(#clip162)" cx="1703.21" cy="697.034" r="14" fill="#e26f46" fill-rule="evenodd" fill-opacity="1" stroke="#000000" stroke-opacity="1" stroke-width="3.2"/>
<circle clip-path="url(#clip162)" cx="1850.5" cy="162.542" r="14" fill="#e26f46" fill-rule="evenodd" fill-opacity="1" stroke="#000000" stroke-opacity="1" stroke-width="3.2"/>
<circle clip-path="url(#clip162)" cx="1359.54" cy="544.322" r="14" fill="#e26f46" fill-rule="evenodd" fill-opacity="1" stroke="#000000" stroke-opacity="1" stroke-width="3.2"/>
<circle clip-path="url(#clip162)" cx="1457.73" cy="620.678" r="14" fill="#e26f46" fill-rule="evenodd" fill-opacity="1" stroke="#000000" stroke-opacity="1" stroke-width="3.2"/>
<circle clip-path="url(#clip162)" cx="1555.92" cy="467.966" r="14" fill="#e26f46" fill-rule="evenodd" fill-opacity="1" stroke="#000000" stroke-opacity="1" stroke-width="3.2"/>
<circle clip-path="url(#clip162)" cx="1310.44" cy="544.322" r="14" fill="#e26f46" fill-rule="evenodd" fill-opacity="1" stroke="#000000" stroke-opacity="1" stroke-width="3.2"/>
<circle clip-path="url(#clip162)" cx="1359.54" cy="238.898" r="14" fill="#e26f46" fill-rule="evenodd" fill-opacity="1" stroke="#000000" stroke-opacity="1" stroke-width="3.2"/>
<circle clip-path="url(#clip162)" cx="1457.73" cy="315.254" r="14" fill="#e26f46" fill-rule="evenodd" fill-opacity="1" stroke="#000000" stroke-opacity="1" stroke-width="3.2"/>
<circle clip-path="url(#clip162)" cx="1555.92" cy="697.034" r="14" fill="#e26f46" fill-rule="evenodd" fill-opacity="1" stroke="#000000" stroke-opacity="1" stroke-width="3.2"/>
<circle clip-path="url(#clip162)" cx="2145.08" cy="391.61" r="14" fill="#e26f46" fill-rule="evenodd" fill-opacity="1" stroke="#000000" stroke-opacity="1" stroke-width="3.2"/>
<circle clip-path="url(#clip162)" cx="2243.27" cy="315.254" r="14" fill="#e26f46" fill-rule="evenodd" fill-opacity="1" stroke="#000000" stroke-opacity="1" stroke-width="3.2"/>
<circle clip-path="url(#clip162)" cx="1310.44" cy="926.102" r="14" fill="#e26f46" fill-rule="evenodd" fill-opacity="1" stroke="#000000" stroke-opacity="1" stroke-width="3.2"/>
<circle clip-path="url(#clip162)" cx="1654.12" cy="315.254" r="14" fill="#e26f46" fill-rule="evenodd" fill-opacity="1" stroke="#000000" stroke-opacity="1" stroke-width="3.2"/>
<circle clip-path="url(#clip162)" cx="1261.35" cy="544.322" r="14" fill="#e26f46" fill-rule="evenodd" fill-opacity="1" stroke="#000000" stroke-opacity="1" stroke-width="3.2"/>
<circle clip-path="url(#clip162)" cx="2145.08" cy="544.322" r="14" fill="#e26f46" fill-rule="evenodd" fill-opacity="1" stroke="#000000" stroke-opacity="1" stroke-width="3.2"/>
<circle clip-path="url(#clip162)" cx="1261.35" cy="697.034" r="14" fill="#e26f46" fill-rule="evenodd" fill-opacity="1" stroke="#000000" stroke-opacity="1" stroke-width="3.2"/>
<circle clip-path="url(#clip162)" cx="1654.12" cy="467.966" r="14" fill="#e26f46" fill-rule="evenodd" fill-opacity="1" stroke="#000000" stroke-opacity="1" stroke-width="3.2"/>
<circle clip-path="url(#clip162)" cx="1801.41" cy="697.034" r="14" fill="#e26f46" fill-rule="evenodd" fill-opacity="1" stroke="#000000" stroke-opacity="1" stroke-width="3.2"/>
<circle clip-path="url(#clip162)" cx="1212.25" cy="697.034" r="14" fill="#e26f46" fill-rule="evenodd" fill-opacity="1" stroke="#000000" stroke-opacity="1" stroke-width="3.2"/>
<circle clip-path="url(#clip162)" cx="1261.35" cy="697.034" r="14" fill="#e26f46" fill-rule="evenodd" fill-opacity="1" stroke="#000000" stroke-opacity="1" stroke-width="3.2"/>
<circle clip-path="url(#clip162)" cx="1605.02" cy="467.966" r="14" fill="#e26f46" fill-rule="evenodd" fill-opacity="1" stroke="#000000" stroke-opacity="1" stroke-width="3.2"/>
<circle clip-path="url(#clip162)" cx="1703.21" cy="849.746" r="14" fill="#e26f46" fill-rule="evenodd" fill-opacity="1" stroke="#000000" stroke-opacity="1" stroke-width="3.2"/>
<circle clip-path="url(#clip162)" cx="1850.5" cy="620.678" r="14" fill="#e26f46" fill-rule="evenodd" fill-opacity="1" stroke="#000000" stroke-opacity="1" stroke-width="3.2"/>
<circle clip-path="url(#clip162)" cx="1997.79" cy="544.322" r="14" fill="#e26f46" fill-rule="evenodd" fill-opacity="1" stroke="#000000" stroke-opacity="1" stroke-width="3.2"/>
<circle clip-path="url(#clip162)" cx="1605.02" cy="391.61" r="14" fill="#e26f46" fill-rule="evenodd" fill-opacity="1" stroke="#000000" stroke-opacity="1" stroke-width="3.2"/>
<circle clip-path="url(#clip162)" cx="1359.54" cy="926.102" r="14" fill="#e26f46" fill-rule="evenodd" fill-opacity="1" stroke="#000000" stroke-opacity="1" stroke-width="3.2"/>
<circle clip-path="url(#clip162)" cx="1605.02" cy="1002.46" r="14" fill="#e26f46" fill-rule="evenodd" fill-opacity="1" stroke="#000000" stroke-opacity="1" stroke-width="3.2"/>
<circle clip-path="url(#clip162)" cx="1850.5" cy="315.254" r="14" fill="#e26f46" fill-rule="evenodd" fill-opacity="1" stroke="#000000" stroke-opacity="1" stroke-width="3.2"/>
<circle clip-path="url(#clip162)" cx="1605.02" cy="238.898" r="14" fill="#e26f46" fill-rule="evenodd" fill-opacity="1" stroke="#000000" stroke-opacity="1" stroke-width="3.2"/>
<circle clip-path="url(#clip162)" cx="1555.92" cy="697.034" r="14" fill="#e26f46" fill-rule="evenodd" fill-opacity="1" stroke="#000000" stroke-opacity="1" stroke-width="3.2"/>
<circle clip-path="url(#clip162)" cx="1212.25" cy="697.034" r="14" fill="#e26f46" fill-rule="evenodd" fill-opacity="1" stroke="#000000" stroke-opacity="1" stroke-width="3.2"/>
<circle clip-path="url(#clip162)" cx="1506.83" cy="467.966" r="14" fill="#e26f46" fill-rule="evenodd" fill-opacity="1" stroke="#000000" stroke-opacity="1" stroke-width="3.2"/>
<circle clip-path="url(#clip162)" cx="1605.02" cy="238.898" r="14" fill="#e26f46" fill-rule="evenodd" fill-opacity="1" stroke="#000000" stroke-opacity="1" stroke-width="3.2"/>
<circle clip-path="url(#clip162)" cx="1359.54" cy="315.254" r="14" fill="#e26f46" fill-rule="evenodd" fill-opacity="1" stroke="#000000" stroke-opacity="1" stroke-width="3.2"/>
<circle clip-path="url(#clip162)" cx="1359.54" cy="620.678" r="14" fill="#e26f46" fill-rule="evenodd" fill-opacity="1" stroke="#000000" stroke-opacity="1" stroke-width="3.2"/>
<circle clip-path="url(#clip162)" cx="1752.31" cy="315.254" r="14" fill="#e26f46" fill-rule="evenodd" fill-opacity="1" stroke="#000000" stroke-opacity="1" stroke-width="3.2"/>
<circle clip-path="url(#clip162)" cx="1654.12" cy="162.542" r="14" fill="#e26f46" fill-rule="evenodd" fill-opacity="1" stroke="#000000" stroke-opacity="1" stroke-width="3.2"/>
<circle clip-path="url(#clip162)" cx="1408.64" cy="315.254" r="14" fill="#e26f46" fill-rule="evenodd" fill-opacity="1" stroke="#000000" stroke-opacity="1" stroke-width="3.2"/>
<circle clip-path="url(#clip162)" cx="1310.44" cy="620.678" r="14" fill="#e26f46" fill-rule="evenodd" fill-opacity="1" stroke="#000000" stroke-opacity="1" stroke-width="3.2"/>
<circle clip-path="url(#clip162)" cx="1408.64" cy="544.322" r="14" fill="#e26f46" fill-rule="evenodd" fill-opacity="1" stroke="#000000" stroke-opacity="1" stroke-width="3.2"/>
<circle clip-path="url(#clip162)" cx="1506.83" cy="315.254" r="14" fill="#e26f46" fill-rule="evenodd" fill-opacity="1" stroke="#000000" stroke-opacity="1" stroke-width="3.2"/>
<circle clip-path="url(#clip162)" cx="1359.54" cy="697.034" r="14" fill="#e26f46" fill-rule="evenodd" fill-opacity="1" stroke="#000000" stroke-opacity="1" stroke-width="3.2"/>
<polyline clip-path="url(#clip162)" style="stroke:#000000; stroke-linecap:butt; stroke-linejoin:round; stroke-width:12; stroke-opacity:1; fill:none" points="
  279.421,-17.8068 2292.37,1706.67 
  "/>
<path clip-path="url(#clip160)" d="
M290.157 300.469 L777.838 300.469 L777.838 93.1086 L290.157 93.1086  Z
  " fill="#ffffff" fill-rule="evenodd" fill-opacity="1"/>
<polyline clip-path="url(#clip160)" style="stroke:#000000; stroke-linecap:butt; stroke-linejoin:round; stroke-width:4; stroke-opacity:1; fill:none" points="
  290.157,300.469 777.838,300.469 777.838,93.1086 290.157,93.1086 290.157,300.469 
  "/>
<circle clip-path="url(#clip160)" cx="384.989" cy="144.949" r="23" fill="#009af9" fill-rule="evenodd" fill-opacity="1" stroke="#000000" stroke-opacity="1" stroke-width="5.12"/>
<path clip-path="url(#clip160)" d="M479.821 136.303 L484.335 136.303 L492.437 158.062 L500.539 136.303 L505.053 136.303 L495.33 162.229 L489.543 162.229 L479.821 136.303 Z" fill="#000000" fill-rule="evenodd" fill-opacity="1" /><path clip-path="url(#clip160)" d="M533.108 148.201 L533.108 150.284 L513.525 150.284 Q513.803 154.682 516.164 156.997 Q518.548 159.289 522.784 159.289 Q525.238 159.289 527.529 158.687 Q529.844 158.085 532.113 156.881 L532.113 160.909 Q529.821 161.881 527.414 162.391 Q525.006 162.9 522.529 162.9 Q516.326 162.9 512.691 159.289 Q509.08 155.678 509.08 149.52 Q509.08 143.155 512.506 139.428 Q515.955 135.678 521.789 135.678 Q527.02 135.678 530.053 139.057 Q533.108 142.414 533.108 148.201 M528.849 146.951 Q528.803 143.456 526.881 141.372 Q524.983 139.289 521.835 139.289 Q518.27 139.289 516.117 141.303 Q513.988 143.317 513.664 146.974 L528.849 146.951 Z" fill="#000000" fill-rule="evenodd" fill-opacity="1" /><path clip-path="url(#clip160)" d="M555.122 140.284 Q554.404 139.868 553.548 139.682 Q552.714 139.474 551.696 139.474 Q548.085 139.474 546.14 141.835 Q544.219 144.173 544.219 148.571 L544.219 162.229 L539.937 162.229 L539.937 136.303 L544.219 136.303 L544.219 140.331 Q545.562 137.969 547.714 136.835 Q549.867 135.678 552.946 135.678 Q553.386 135.678 553.918 135.747 Q554.451 135.794 555.099 135.909 L555.122 140.284 Z" fill="#000000" fill-rule="evenodd" fill-opacity="1" /><path clip-path="url(#clip160)" d="M576.117 137.067 L576.117 141.094 Q574.312 140.169 572.367 139.706 Q570.423 139.243 568.339 139.243 Q565.168 139.243 563.571 140.215 Q561.997 141.187 561.997 143.131 Q561.997 144.613 563.131 145.469 Q564.265 146.303 567.691 147.067 L569.15 147.391 Q573.687 148.363 575.585 150.145 Q577.506 151.905 577.506 155.076 Q577.506 158.687 574.636 160.793 Q571.788 162.9 566.788 162.9 Q564.705 162.9 562.437 162.483 Q560.191 162.09 557.691 161.28 L557.691 156.881 Q560.052 158.108 562.344 158.733 Q564.636 159.335 566.881 159.335 Q569.89 159.335 571.511 158.317 Q573.131 157.275 573.131 155.4 Q573.131 153.664 571.95 152.738 Q570.793 151.812 566.835 150.956 L565.353 150.608 Q561.395 149.775 559.636 148.062 Q557.876 146.326 557.876 143.317 Q557.876 139.659 560.469 137.669 Q563.062 135.678 567.83 135.678 Q570.191 135.678 572.275 136.025 Q574.358 136.372 576.117 137.067 Z" fill="#000000" fill-rule="evenodd" fill-opacity="1" /><path clip-path="url(#clip160)" d="M584.288 136.303 L588.548 136.303 L588.548 162.229 L584.288 162.229 L584.288 136.303 M584.288 126.21 L588.548 126.21 L588.548 131.604 L584.288 131.604 L584.288 126.21 Z" fill="#000000" fill-rule="evenodd" fill-opacity="1" /><path clip-path="url(#clip160)" d="M616.117 137.298 L616.117 141.28 Q614.311 140.284 612.483 139.798 Q610.677 139.289 608.825 139.289 Q604.682 139.289 602.39 141.928 Q600.098 144.544 600.098 149.289 Q600.098 154.034 602.39 156.673 Q604.682 159.289 608.825 159.289 Q610.677 159.289 612.483 158.803 Q614.311 158.293 616.117 157.298 L616.117 161.233 Q614.334 162.067 612.413 162.483 Q610.515 162.9 608.362 162.9 Q602.506 162.9 599.057 159.219 Q595.608 155.539 595.608 149.289 Q595.608 142.946 599.08 139.312 Q602.575 135.678 608.64 135.678 Q610.608 135.678 612.483 136.095 Q614.358 136.488 616.117 137.298 Z" fill="#000000" fill-rule="evenodd" fill-opacity="1" /><path clip-path="url(#clip160)" d="M633.57 139.289 Q630.145 139.289 628.154 141.974 Q626.163 144.636 626.163 149.289 Q626.163 153.942 628.131 156.627 Q630.121 159.289 633.57 159.289 Q636.973 159.289 638.964 156.604 Q640.955 153.918 640.955 149.289 Q640.955 144.682 638.964 141.997 Q636.973 139.289 633.57 139.289 M633.57 135.678 Q639.126 135.678 642.297 139.289 Q645.469 142.9 645.469 149.289 Q645.469 155.655 642.297 159.289 Q639.126 162.9 633.57 162.9 Q627.992 162.9 624.821 159.289 Q621.672 155.655 621.672 149.289 Q621.672 142.9 624.821 139.289 Q627.992 135.678 633.57 135.678 Z" fill="#000000" fill-rule="evenodd" fill-opacity="1" /><path clip-path="url(#clip160)" d="M652.529 126.21 L656.788 126.21 L656.788 162.229 L652.529 162.229 L652.529 126.21 Z" fill="#000000" fill-rule="evenodd" fill-opacity="1" /><path clip-path="url(#clip160)" d="M675.746 139.289 Q672.32 139.289 670.33 141.974 Q668.339 144.636 668.339 149.289 Q668.339 153.942 670.306 156.627 Q672.297 159.289 675.746 159.289 Q679.149 159.289 681.14 156.604 Q683.13 153.918 683.13 149.289 Q683.13 144.682 681.14 141.997 Q679.149 139.289 675.746 139.289 M675.746 135.678 Q681.302 135.678 684.473 139.289 Q687.644 142.9 687.644 149.289 Q687.644 155.655 684.473 159.289 Q681.302 162.9 675.746 162.9 Q670.168 162.9 666.996 159.289 Q663.848 155.655 663.848 149.289 Q663.848 142.9 666.996 139.289 Q670.168 135.678 675.746 135.678 Z" fill="#000000" fill-rule="evenodd" fill-opacity="1" /><path clip-path="url(#clip160)" d="M709.727 140.284 Q709.01 139.868 708.153 139.682 Q707.32 139.474 706.302 139.474 Q702.69 139.474 700.746 141.835 Q698.825 144.173 698.825 148.571 L698.825 162.229 L694.542 162.229 L694.542 136.303 L698.825 136.303 L698.825 140.331 Q700.167 137.969 702.32 136.835 Q704.473 135.678 707.552 135.678 Q707.991 135.678 708.524 135.747 Q709.056 135.794 709.704 135.909 L709.727 140.284 Z" fill="#000000" fill-rule="evenodd" fill-opacity="1" /><circle clip-path="url(#clip160)" cx="384.989" cy="196.789" r="23" fill="#e26f46" fill-rule="evenodd" fill-opacity="1" stroke="#000000" stroke-opacity="1" stroke-width="5.12"/>
<path clip-path="url(#clip160)" d="M479.821 188.143 L484.335 188.143 L492.437 209.902 L500.539 188.143 L505.053 188.143 L495.33 214.069 L489.543 214.069 L479.821 188.143 Z" fill="#000000" fill-rule="evenodd" fill-opacity="1" /><path clip-path="url(#clip160)" d="M510.932 188.143 L515.191 188.143 L515.191 214.069 L510.932 214.069 L510.932 188.143 M510.932 178.05 L515.191 178.05 L515.191 183.444 L510.932 183.444 L510.932 178.05 Z" fill="#000000" fill-rule="evenodd" fill-opacity="1" /><path clip-path="url(#clip160)" d="M539.127 192.124 Q538.409 191.708 537.552 191.522 Q536.719 191.314 535.701 191.314 Q532.09 191.314 530.145 193.675 Q528.224 196.013 528.224 200.411 L528.224 214.069 L523.941 214.069 L523.941 188.143 L528.224 188.143 L528.224 192.171 Q529.566 189.809 531.719 188.675 Q533.872 187.518 536.951 187.518 Q537.39 187.518 537.923 187.587 Q538.455 187.634 539.103 187.749 L539.127 192.124 Z" fill="#000000" fill-rule="evenodd" fill-opacity="1" /><path clip-path="url(#clip160)" d="M559.821 200.805 Q559.821 196.175 557.9 193.629 Q556.001 191.083 552.552 191.083 Q549.126 191.083 547.205 193.629 Q545.307 196.175 545.307 200.805 Q545.307 205.411 547.205 207.958 Q549.126 210.504 552.552 210.504 Q556.001 210.504 557.9 207.958 Q559.821 205.411 559.821 200.805 M564.08 210.851 Q564.08 217.471 561.14 220.689 Q558.201 223.93 552.136 223.93 Q549.89 223.93 547.9 223.582 Q545.909 223.258 544.034 222.564 L544.034 218.42 Q545.909 219.439 547.738 219.925 Q549.566 220.411 551.464 220.411 Q555.654 220.411 557.738 218.212 Q559.821 216.036 559.821 211.615 L559.821 209.508 Q558.501 211.8 556.441 212.934 Q554.381 214.069 551.511 214.069 Q546.742 214.069 543.826 210.434 Q540.909 206.8 540.909 200.805 Q540.909 194.786 543.826 191.152 Q546.742 187.518 551.511 187.518 Q554.381 187.518 556.441 188.652 Q558.501 189.786 559.821 192.078 L559.821 188.143 L564.08 188.143 L564.08 210.851 Z" fill="#000000" fill-rule="evenodd" fill-opacity="1" /><path clip-path="url(#clip160)" d="M572.853 188.143 L577.112 188.143 L577.112 214.069 L572.853 214.069 L572.853 188.143 M572.853 178.05 L577.112 178.05 L577.112 183.444 L572.853 183.444 L572.853 178.05 Z" fill="#000000" fill-rule="evenodd" fill-opacity="1" /><path clip-path="url(#clip160)" d="M607.575 198.421 L607.575 214.069 L603.316 214.069 L603.316 198.559 Q603.316 194.879 601.881 193.05 Q600.446 191.222 597.575 191.222 Q594.126 191.222 592.136 193.421 Q590.145 195.62 590.145 199.416 L590.145 214.069 L585.862 214.069 L585.862 188.143 L590.145 188.143 L590.145 192.171 Q591.673 189.833 593.733 188.675 Q595.816 187.518 598.524 187.518 Q602.992 187.518 605.284 190.296 Q607.575 193.05 607.575 198.421 Z" fill="#000000" fill-rule="evenodd" fill-opacity="1" /><path clip-path="url(#clip160)" d="M616.071 188.143 L620.33 188.143 L620.33 214.069 L616.071 214.069 L616.071 188.143 M616.071 178.05 L620.33 178.05 L620.33 183.444 L616.071 183.444 L616.071 178.05 Z" fill="#000000" fill-rule="evenodd" fill-opacity="1" /><path clip-path="url(#clip160)" d="M647.899 189.138 L647.899 193.12 Q646.094 192.124 644.265 191.638 Q642.459 191.129 640.607 191.129 Q636.464 191.129 634.172 193.768 Q631.881 196.384 631.881 201.129 Q631.881 205.874 634.172 208.513 Q636.464 211.129 640.607 211.129 Q642.459 211.129 644.265 210.643 Q646.094 210.133 647.899 209.138 L647.899 213.073 Q646.117 213.907 644.195 214.323 Q642.297 214.74 640.145 214.74 Q634.288 214.74 630.839 211.059 Q627.39 207.379 627.39 201.129 Q627.39 194.786 630.862 191.152 Q634.358 187.518 640.422 187.518 Q642.39 187.518 644.265 187.935 Q646.14 188.328 647.899 189.138 Z" fill="#000000" fill-rule="evenodd" fill-opacity="1" /><path clip-path="url(#clip160)" d="M667.089 201.036 Q661.927 201.036 659.936 202.217 Q657.945 203.397 657.945 206.245 Q657.945 208.513 659.427 209.856 Q660.931 211.175 663.501 211.175 Q667.043 211.175 669.172 208.675 Q671.325 206.152 671.325 201.985 L671.325 201.036 L667.089 201.036 M675.584 199.277 L675.584 214.069 L671.325 214.069 L671.325 210.133 Q669.867 212.495 667.691 213.629 Q665.515 214.74 662.367 214.74 Q658.385 214.74 656.024 212.518 Q653.686 210.272 653.686 206.522 Q653.686 202.147 656.603 199.925 Q659.543 197.703 665.353 197.703 L671.325 197.703 L671.325 197.286 Q671.325 194.347 669.38 192.749 Q667.459 191.129 663.964 191.129 Q661.742 191.129 659.635 191.661 Q657.529 192.194 655.584 193.259 L655.584 189.323 Q657.922 188.421 660.121 187.981 Q662.32 187.518 664.404 187.518 Q670.029 187.518 672.806 190.434 Q675.584 193.351 675.584 199.277 Z" fill="#000000" fill-rule="evenodd" fill-opacity="1" /><polyline clip-path="url(#clip160)" style="stroke:#000000; stroke-linecap:butt; stroke-linejoin:round; stroke-width:4; stroke-opacity:1; fill:none" points="
  313.865,248.629 456.113,248.629 
  "/>
<path clip-path="url(#clip160)" d="M502.067 232.483 L502.067 237.043 Q499.405 235.77 497.043 235.145 Q494.682 234.52 492.483 234.52 Q488.664 234.52 486.581 236.001 Q484.52 237.483 484.52 240.214 Q484.52 242.506 485.886 243.687 Q487.275 244.844 491.118 245.562 L493.942 246.14 Q499.173 247.136 501.65 249.659 Q504.15 252.159 504.15 256.372 Q504.15 261.395 500.77 263.987 Q497.414 266.58 490.909 266.58 Q488.456 266.58 485.678 266.024 Q482.923 265.469 479.96 264.381 L479.96 259.566 Q482.807 261.163 485.539 261.973 Q488.27 262.784 490.909 262.784 Q494.914 262.784 497.09 261.21 Q499.266 259.636 499.266 256.719 Q499.266 254.173 497.692 252.737 Q496.141 251.302 492.576 250.585 L489.729 250.029 Q484.497 248.987 482.159 246.765 Q479.821 244.543 479.821 240.585 Q479.821 236.001 483.039 233.362 Q486.28 230.724 491.951 230.724 Q494.381 230.724 496.905 231.163 Q499.428 231.603 502.067 232.483 Z" fill="#000000" fill-rule="evenodd" fill-opacity="1" /><path clip-path="url(#clip160)" d="M533.432 251.881 L533.432 253.964 L513.849 253.964 Q514.127 258.362 516.488 260.677 Q518.872 262.969 523.108 262.969 Q525.562 262.969 527.853 262.367 Q530.168 261.765 532.437 260.561 L532.437 264.589 Q530.145 265.561 527.738 266.071 Q525.33 266.58 522.853 266.58 Q516.65 266.58 513.016 262.969 Q509.404 259.358 509.404 253.2 Q509.404 246.835 512.83 243.108 Q516.279 239.358 522.113 239.358 Q527.344 239.358 530.377 242.737 Q533.432 246.094 533.432 251.881 M529.173 250.631 Q529.127 247.136 527.205 245.052 Q525.307 242.969 522.159 242.969 Q518.594 242.969 516.441 244.983 Q514.312 246.997 513.988 250.654 L529.173 250.631 Z" fill="#000000" fill-rule="evenodd" fill-opacity="1" /><path clip-path="url(#clip160)" d="M544.543 262.02 L544.543 275.77 L540.261 275.77 L540.261 239.983 L544.543 239.983 L544.543 243.918 Q545.886 241.603 547.923 240.492 Q549.983 239.358 552.83 239.358 Q557.552 239.358 560.492 243.108 Q563.455 246.858 563.455 252.969 Q563.455 259.08 560.492 262.83 Q557.552 266.58 552.83 266.58 Q549.983 266.58 547.923 265.469 Q545.886 264.335 544.543 262.02 M559.034 252.969 Q559.034 248.27 557.089 245.608 Q555.168 242.923 551.789 242.923 Q548.409 242.923 546.464 245.608 Q544.543 248.27 544.543 252.969 Q544.543 257.668 546.464 260.353 Q548.409 263.015 551.789 263.015 Q555.168 263.015 557.089 260.353 Q559.034 257.668 559.034 252.969 Z" fill="#000000" fill-rule="evenodd" fill-opacity="1" /><path clip-path="url(#clip160)" d="M582.298 252.876 Q577.136 252.876 575.145 254.057 Q573.154 255.237 573.154 258.085 Q573.154 260.353 574.636 261.696 Q576.14 263.015 578.71 263.015 Q582.251 263.015 584.381 260.515 Q586.534 257.992 586.534 253.825 L586.534 252.876 L582.298 252.876 M590.793 251.117 L590.793 265.909 L586.534 265.909 L586.534 261.973 Q585.075 264.335 582.899 265.469 Q580.724 266.58 577.575 266.58 Q573.594 266.58 571.233 264.358 Q568.895 262.112 568.895 258.362 Q568.895 253.987 571.812 251.765 Q574.751 249.543 580.562 249.543 L586.534 249.543 L586.534 249.126 Q586.534 246.187 584.589 244.589 Q582.668 242.969 579.173 242.969 Q576.95 242.969 574.844 243.501 Q572.737 244.034 570.793 245.099 L570.793 241.163 Q573.131 240.261 575.33 239.821 Q577.529 239.358 579.612 239.358 Q585.237 239.358 588.015 242.274 Q590.793 245.191 590.793 251.117 Z" fill="#000000" fill-rule="evenodd" fill-opacity="1" /><path clip-path="url(#clip160)" d="M614.589 243.964 Q613.872 243.548 613.015 243.362 Q612.182 243.154 611.163 243.154 Q607.552 243.154 605.608 245.515 Q603.686 247.853 603.686 252.251 L603.686 265.909 L599.404 265.909 L599.404 239.983 L603.686 239.983 L603.686 244.011 Q605.029 241.649 607.182 240.515 Q609.334 239.358 612.413 239.358 Q612.853 239.358 613.385 239.427 Q613.918 239.474 614.566 239.589 L614.589 243.964 Z" fill="#000000" fill-rule="evenodd" fill-opacity="1" /><path clip-path="url(#clip160)" d="M630.839 252.876 Q625.677 252.876 623.686 254.057 Q621.696 255.237 621.696 258.085 Q621.696 260.353 623.177 261.696 Q624.682 263.015 627.251 263.015 Q630.793 263.015 632.922 260.515 Q635.075 257.992 635.075 253.825 L635.075 252.876 L630.839 252.876 M639.334 251.117 L639.334 265.909 L635.075 265.909 L635.075 261.973 Q633.617 264.335 631.441 265.469 Q629.265 266.58 626.117 266.58 Q622.135 266.58 619.774 264.358 Q617.436 262.112 617.436 258.362 Q617.436 253.987 620.353 251.765 Q623.293 249.543 629.103 249.543 L635.075 249.543 L635.075 249.126 Q635.075 246.187 633.131 244.589 Q631.209 242.969 627.714 242.969 Q625.492 242.969 623.385 243.501 Q621.279 244.034 619.334 245.099 L619.334 241.163 Q621.672 240.261 623.871 239.821 Q626.071 239.358 628.154 239.358 Q633.779 239.358 636.557 242.274 Q639.334 245.191 639.334 251.117 Z" fill="#000000" fill-rule="evenodd" fill-opacity="1" /><path clip-path="url(#clip160)" d="M652.32 232.622 L652.32 239.983 L661.093 239.983 L661.093 243.293 L652.32 243.293 L652.32 257.367 Q652.32 260.538 653.177 261.441 Q654.056 262.344 656.719 262.344 L661.093 262.344 L661.093 265.909 L656.719 265.909 Q651.788 265.909 649.913 264.08 Q648.038 262.228 648.038 257.367 L648.038 243.293 L644.913 243.293 L644.913 239.983 L648.038 239.983 L648.038 232.622 L652.32 232.622 Z" fill="#000000" fill-rule="evenodd" fill-opacity="1" /><path clip-path="url(#clip160)" d="M666.695 239.983 L670.955 239.983 L670.955 265.909 L666.695 265.909 L666.695 239.983 M666.695 229.89 L670.955 229.89 L670.955 235.284 L666.695 235.284 L666.695 229.89 Z" fill="#000000" fill-rule="evenodd" fill-opacity="1" /><path clip-path="url(#clip160)" d="M689.913 242.969 Q686.487 242.969 684.496 245.654 Q682.505 248.316 682.505 252.969 Q682.505 257.622 684.473 260.307 Q686.464 262.969 689.913 262.969 Q693.316 262.969 695.306 260.284 Q697.297 257.598 697.297 252.969 Q697.297 248.362 695.306 245.677 Q693.316 242.969 689.913 242.969 M689.913 239.358 Q695.468 239.358 698.64 242.969 Q701.811 246.58 701.811 252.969 Q701.811 259.335 698.64 262.969 Q695.468 266.58 689.913 266.58 Q684.334 266.58 681.163 262.969 Q678.015 259.335 678.015 252.969 Q678.015 246.58 681.163 242.969 Q684.334 239.358 689.913 239.358 Z" fill="#000000" fill-rule="evenodd" fill-opacity="1" /><path clip-path="url(#clip160)" d="M730.422 250.261 L730.422 265.909 L726.163 265.909 L726.163 250.399 Q726.163 246.719 724.727 244.89 Q723.292 243.062 720.422 243.062 Q716.973 243.062 714.982 245.261 Q712.991 247.46 712.991 251.256 L712.991 265.909 L708.709 265.909 L708.709 239.983 L712.991 239.983 L712.991 244.011 Q714.519 241.673 716.579 240.515 Q718.663 239.358 721.371 239.358 Q725.839 239.358 728.13 242.136 Q730.422 244.89 730.422 250.261 Z" fill="#000000" fill-rule="evenodd" fill-opacity="1" /></svg>
