<?xml version="1.0" encoding="utf-8"?>
<svg xmlns="http://www.w3.org/2000/svg" xmlns:xlink="http://www.w3.org/1999/xlink" width="600" height="400" viewBox="0 0 2400 1600">
<defs>
  <clipPath id="clip490">
    <rect x="0" y="0" width="2400" height="1600"/>
  </clipPath>
</defs>
<path clip-path="url(#clip490)" d="
M0 1600 L2400 1600 L2400 0 L0 0  Z
  " fill="#ffffff" fill-rule="evenodd" fill-opacity="1"/>
<defs>
  <clipPath id="clip491">
    <rect x="480" y="0" width="1681" height="1600"/>
  </clipPath>
</defs>
<path clip-path="url(#clip490)" d="
M102.74 1505.26 L2352.76 1505.26 L2352.76 47.2441 L102.74 47.2441  Z
  " fill="#ffffff" fill-rule="evenodd" fill-opacity="1"/>
<defs>
  <clipPath id="clip492">
    <rect x="102" y="47" width="2251" height="1459"/>
  </clipPath>
</defs>
<polyline clip-path="url(#clip492)" style="stroke:#000000; stroke-width:2; stroke-opacity:0.1; fill:none" points="
  166.42,1505.26 166.42,47.2441 
  "/>
<polyline clip-path="url(#clip492)" style="stroke:#000000; stroke-width:2; stroke-opacity:0.1; fill:none" points="
  520.196,1505.26 520.196,47.2441 
  "/>
<polyline clip-path="url(#clip492)" style="stroke:#000000; stroke-width:2; stroke-opacity:0.1; fill:none" points="
  873.972,1505.26 873.972,47.2441 
  "/>
<polyline clip-path="url(#clip492)" style="stroke:#000000; stroke-width:2; stroke-opacity:0.1; fill:none" points="
  1227.75,1505.26 1227.75,47.2441 
  "/>
<polyline clip-path="url(#clip492)" style="stroke:#000000; stroke-width:2; stroke-opacity:0.1; fill:none" points="
  1581.52,1505.26 1581.52,47.2441 
  "/>
<polyline clip-path="url(#clip492)" style="stroke:#000000; stroke-width:2; stroke-opacity:0.1; fill:none" points="
  1935.3,1505.26 1935.3,47.2441 
  "/>
<polyline clip-path="url(#clip492)" style="stroke:#000000; stroke-width:2; stroke-opacity:0.1; fill:none" points="
  2289.08,1505.26 2289.08,47.2441 
  "/>
<polyline clip-path="url(#clip490)" style="stroke:#000000; stroke-width:4; stroke-opacity:1; fill:none" points="
  102.74,1505.26 2352.76,1505.26 
  "/>
<polyline clip-path="url(#clip490)" style="stroke:#000000; stroke-width:4; stroke-opacity:1; fill:none" points="
  166.42,1505.26 166.42,1487.76 
  "/>
<polyline clip-path="url(#clip490)" style="stroke:#000000; stroke-width:4; stroke-opacity:1; fill:none" points="
  520.196,1505.26 520.196,1487.76 
  "/>
<polyline clip-path="url(#clip490)" style="stroke:#000000; stroke-width:4; stroke-opacity:1; fill:none" points="
  873.972,1505.26 873.972,1487.76 
  "/>
<polyline clip-path="url(#clip490)" style="stroke:#000000; stroke-width:4; stroke-opacity:1; fill:none" points="
  1227.75,1505.26 1227.75,1487.76 
  "/>
<polyline clip-path="url(#clip490)" style="stroke:#000000; stroke-width:4; stroke-opacity:1; fill:none" points="
  1581.52,1505.26 1581.52,1487.76 
  "/>
<polyline clip-path="url(#clip490)" style="stroke:#000000; stroke-width:4; stroke-opacity:1; fill:none" points="
  1935.3,1505.26 1935.3,1487.76 
  "/>
<polyline clip-path="url(#clip490)" style="stroke:#000000; stroke-width:4; stroke-opacity:1; fill:none" points="
  2289.08,1505.26 2289.08,1487.76 
  "/>
<path clip-path="url(#clip490)" d="M 0 0 M125.679 1549.1 L155.355 1549.1 L155.355 1553.04 L125.679 1553.04 L125.679 1549.1 Z" fill="#000000" fill-rule="evenodd" fill-opacity="1" /><path clip-path="url(#clip490)" d="M 0 0 M161.235 1562 L168.874 1562 L168.874 1535.63 L160.563 1537.3 L160.563 1533.04 L168.827 1531.37 L173.503 1531.37 L173.503 1562 L181.142 1562 L181.142 1565.93 L161.235 1565.93 L161.235 1562 Z" fill="#000000" fill-rule="evenodd" fill-opacity="1" /><path clip-path="url(#clip490)" d="M 0 0 M186.258 1531.37 L204.614 1531.37 L204.614 1535.31 L190.54 1535.31 L190.54 1543.78 Q191.559 1543.43 192.577 1543.27 Q193.596 1543.08 194.614 1543.08 Q200.401 1543.08 203.781 1546.26 Q207.16 1549.43 207.16 1554.84 Q207.16 1560.42 203.688 1563.52 Q200.216 1566.6 193.897 1566.6 Q191.721 1566.6 189.452 1566.23 Q187.207 1565.86 184.799 1565.12 L184.799 1560.42 Q186.883 1561.56 189.105 1562.11 Q191.327 1562.67 193.804 1562.67 Q197.809 1562.67 200.147 1560.56 Q202.484 1558.46 202.484 1554.84 Q202.484 1551.23 200.147 1549.13 Q197.809 1547.02 193.804 1547.02 Q191.929 1547.02 190.054 1547.44 Q188.202 1547.85 186.258 1548.73 L186.258 1531.37 Z" fill="#000000" fill-rule="evenodd" fill-opacity="1" /><path clip-path="url(#clip490)" d="M 0 0 M478.958 1549.1 L508.633 1549.1 L508.633 1553.04 L478.958 1553.04 L478.958 1549.1 Z" fill="#000000" fill-rule="evenodd" fill-opacity="1" /><path clip-path="url(#clip490)" d="M 0 0 M514.513 1562 L522.152 1562 L522.152 1535.63 L513.842 1537.3 L513.842 1533.04 L522.106 1531.37 L526.782 1531.37 L526.782 1562 L534.42 1562 L534.42 1565.93 L514.513 1565.93 L514.513 1562 Z" fill="#000000" fill-rule="evenodd" fill-opacity="1" /><path clip-path="url(#clip490)" d="M 0 0 M549.49 1534.45 Q545.879 1534.45 544.05 1538.02 Q542.244 1541.56 542.244 1548.69 Q542.244 1555.79 544.05 1559.36 Q545.879 1562.9 549.49 1562.9 Q553.124 1562.9 554.93 1559.36 Q556.758 1555.79 556.758 1548.69 Q556.758 1541.56 554.93 1538.02 Q553.124 1534.45 549.49 1534.45 M549.49 1530.75 Q555.3 1530.75 558.355 1535.35 Q561.434 1539.94 561.434 1548.69 Q561.434 1557.41 558.355 1562.02 Q555.3 1566.6 549.49 1566.6 Q543.68 1566.6 540.601 1562.02 Q537.545 1557.41 537.545 1548.69 Q537.545 1539.94 540.601 1535.35 Q543.68 1530.75 549.49 1530.75 Z" fill="#000000" fill-rule="evenodd" fill-opacity="1" /><path clip-path="url(#clip490)" d="M 0 0 M846.125 1549.1 L875.801 1549.1 L875.801 1553.04 L846.125 1553.04 L846.125 1549.1 Z" fill="#000000" fill-rule="evenodd" fill-opacity="1" /><path clip-path="url(#clip490)" d="M 0 0 M880.916 1531.37 L899.273 1531.37 L899.273 1535.31 L885.199 1535.31 L885.199 1543.78 Q886.217 1543.43 887.236 1543.27 Q888.254 1543.08 889.273 1543.08 Q895.06 1543.08 898.439 1546.26 Q901.819 1549.43 901.819 1554.84 Q901.819 1560.42 898.347 1563.52 Q894.875 1566.6 888.555 1566.6 Q886.379 1566.6 884.111 1566.23 Q881.865 1565.86 879.458 1565.12 L879.458 1560.42 Q881.541 1561.56 883.764 1562.11 Q885.986 1562.67 888.463 1562.67 Q892.467 1562.67 894.805 1560.56 Q897.143 1558.46 897.143 1554.84 Q897.143 1551.23 894.805 1549.13 Q892.467 1547.02 888.463 1547.02 Q886.588 1547.02 884.713 1547.44 Q882.861 1547.85 880.916 1548.73 L880.916 1531.37 Z" fill="#000000" fill-rule="evenodd" fill-opacity="1" /><path clip-path="url(#clip490)" d="M 0 0 M1227.75 1534.45 Q1224.14 1534.45 1222.31 1538.02 Q1220.5 1541.56 1220.5 1548.69 Q1220.5 1555.79 1222.31 1559.36 Q1224.14 1562.9 1227.75 1562.9 Q1231.38 1562.9 1233.19 1559.36 Q1235.02 1555.79 1235.02 1548.69 Q1235.02 1541.56 1233.19 1538.02 Q1231.38 1534.45 1227.75 1534.45 M1227.75 1530.75 Q1233.56 1530.75 1236.61 1535.35 Q1239.69 1539.94 1239.69 1548.69 Q1239.69 1557.41 1236.61 1562.02 Q1233.56 1566.6 1227.75 1566.6 Q1221.94 1566.6 1218.86 1562.02 Q1215.8 1557.41 1215.8 1548.69 Q1215.8 1539.94 1218.86 1535.35 Q1221.94 1530.75 1227.75 1530.75 Z" fill="#000000" fill-rule="evenodd" fill-opacity="1" /><path clip-path="url(#clip490)" d="M 0 0 M1571.8 1531.37 L1590.16 1531.37 L1590.16 1535.31 L1576.08 1535.31 L1576.08 1543.78 Q1577.1 1543.43 1578.12 1543.27 Q1579.14 1543.08 1580.16 1543.08 Q1585.95 1543.08 1589.32 1546.26 Q1592.7 1549.43 1592.7 1554.84 Q1592.7 1560.42 1589.23 1563.52 Q1585.76 1566.6 1579.44 1566.6 Q1577.26 1566.6 1575 1566.23 Q1572.75 1565.86 1570.34 1565.12 L1570.34 1560.42 Q1572.43 1561.56 1574.65 1562.11 Q1576.87 1562.67 1579.35 1562.67 Q1583.35 1562.67 1585.69 1560.56 Q1588.03 1558.46 1588.03 1554.84 Q1588.03 1551.23 1585.69 1549.13 Q1583.35 1547.02 1579.35 1547.02 Q1577.47 1547.02 1575.6 1547.44 Q1573.75 1547.85 1571.8 1548.73 L1571.8 1531.37 Z" fill="#000000" fill-rule="evenodd" fill-opacity="1" /><path clip-path="url(#clip490)" d="M 0 0 M1912.18 1562 L1919.81 1562 L1919.81 1535.63 L1911.5 1537.3 L1911.5 1533.04 L1919.77 1531.37 L1924.44 1531.37 L1924.44 1562 L1932.08 1562 L1932.08 1565.93 L1912.18 1565.93 L1912.18 1562 Z" fill="#000000" fill-rule="evenodd" fill-opacity="1" /><path clip-path="url(#clip490)" d="M 0 0 M1947.15 1534.45 Q1943.54 1534.45 1941.71 1538.02 Q1939.91 1541.56 1939.91 1548.69 Q1939.91 1555.79 1941.71 1559.36 Q1943.54 1562.9 1947.15 1562.9 Q1950.79 1562.9 1952.59 1559.36 Q1954.42 1555.79 1954.42 1548.69 Q1954.42 1541.56 1952.59 1538.02 Q1950.79 1534.45 1947.15 1534.45 M1947.15 1530.75 Q1952.96 1530.75 1956.02 1535.35 Q1959.1 1539.94 1959.1 1548.69 Q1959.1 1557.41 1956.02 1562.02 Q1952.96 1566.6 1947.15 1566.6 Q1941.34 1566.6 1938.26 1562.02 Q1935.21 1557.41 1935.21 1548.69 Q1935.21 1539.94 1938.26 1535.35 Q1941.34 1530.75 1947.15 1530.75 Z" fill="#000000" fill-rule="evenodd" fill-opacity="1" /><path clip-path="url(#clip490)" d="M 0 0 M2266.45 1562 L2274.09 1562 L2274.09 1535.63 L2265.78 1537.3 L2265.78 1533.04 L2274.04 1531.37 L2278.72 1531.37 L2278.72 1562 L2286.36 1562 L2286.36 1565.93 L2266.45 1565.93 L2266.45 1562 Z" fill="#000000" fill-rule="evenodd" fill-opacity="1" /><path clip-path="url(#clip490)" d="M 0 0 M2291.47 1531.37 L2309.83 1531.37 L2309.83 1535.31 L2295.75 1535.31 L2295.75 1543.78 Q2296.77 1543.43 2297.79 1543.27 Q2298.81 1543.08 2299.83 1543.08 Q2305.62 1543.08 2309 1546.26 Q2312.37 1549.43 2312.37 1554.84 Q2312.37 1560.42 2308.9 1563.52 Q2305.43 1566.6 2299.11 1566.6 Q2296.93 1566.6 2294.67 1566.23 Q2292.42 1565.86 2290.01 1565.12 L2290.01 1560.42 Q2292.1 1561.56 2294.32 1562.11 Q2296.54 1562.67 2299.02 1562.67 Q2303.02 1562.67 2305.36 1560.56 Q2307.7 1558.46 2307.7 1554.84 Q2307.7 1551.23 2305.36 1549.13 Q2303.02 1547.02 2299.02 1547.02 Q2297.14 1547.02 2295.27 1547.44 Q2293.42 1547.85 2291.47 1548.73 L2291.47 1531.37 Z" fill="#000000" fill-rule="evenodd" fill-opacity="1" /><path clip-path="url(#clip490)" d="M 0 0 M1244.36 1602.48 L1231.47 1619.82 L1245.03 1638.12 L1238.12 1638.12 L1227.75 1624.12 L1217.37 1638.12 L1210.47 1638.12 L1224.31 1619.47 L1211.64 1602.48 L1218.55 1602.48 L1228 1615.18 L1237.46 1602.48 L1244.36 1602.48 Z" fill="#000000" fill-rule="evenodd" fill-opacity="1" /><polyline clip-path="url(#clip492)" style="stroke:#000000; stroke-width:2; stroke-opacity:0.1; fill:none" points="
  102.74,1464 2352.76,1464 
  "/>
<polyline clip-path="url(#clip492)" style="stroke:#000000; stroke-width:2; stroke-opacity:0.1; fill:none" points="
  102.74,1119.21 2352.76,1119.21 
  "/>
<polyline clip-path="url(#clip492)" style="stroke:#000000; stroke-width:2; stroke-opacity:0.1; fill:none" points="
  102.74,774.429 2352.76,774.429 
  "/>
<polyline clip-path="url(#clip492)" style="stroke:#000000; stroke-width:2; stroke-opacity:0.1; fill:none" points="
  102.74,429.645 2352.76,429.645 
  "/>
<polyline clip-path="url(#clip492)" style="stroke:#000000; stroke-width:2; stroke-opacity:0.1; fill:none" points="
  102.74,84.8619 2352.76,84.8619 
  "/>
<polyline clip-path="url(#clip490)" style="stroke:#000000; stroke-width:4; stroke-opacity:1; fill:none" points="
  102.74,1505.26 102.74,47.2441 
  "/>
<polyline clip-path="url(#clip490)" style="stroke:#000000; stroke-width:4; stroke-opacity:1; fill:none" points="
  102.74,1464 129.74,1464 
  "/>
<polyline clip-path="url(#clip490)" style="stroke:#000000; stroke-width:4; stroke-opacity:1; fill:none" points="
  102.74,1119.21 129.74,1119.21 
  "/>
<polyline clip-path="url(#clip490)" style="stroke:#000000; stroke-width:4; stroke-opacity:1; fill:none" points="
  102.74,774.429 129.74,774.429 
  "/>
<polyline clip-path="url(#clip490)" style="stroke:#000000; stroke-width:4; stroke-opacity:1; fill:none" points="
  102.74,429.645 129.74,429.645 
  "/>
<polyline clip-path="url(#clip490)" style="stroke:#000000; stroke-width:4; stroke-opacity:1; fill:none" points="
  102.74,84.8619 129.74,84.8619 
  "/>
<path clip-path="url(#clip490)" d="M 0 0 M17.8284 1449.79 Q14.2173 1449.79 12.3886 1453.36 Q10.5831 1456.9 10.5831 1464.03 Q10.5831 1471.14 12.3886 1474.7 Q14.2173 1478.24 17.8284 1478.24 Q21.4626 1478.24 23.2682 1474.7 Q25.0969 1471.14 25.0969 1464.03 Q25.0969 1456.9 23.2682 1453.36 Q21.4626 1449.79 17.8284 1449.79 M17.8284 1446.09 Q23.6385 1446.09 26.6941 1450.7 Q29.7728 1455.28 29.7728 1464.03 Q29.7728 1472.76 26.6941 1477.36 Q23.6385 1481.95 17.8284 1481.95 Q12.0182 1481.95 8.93954 1477.36 Q5.884 1472.76 5.884 1464.03 Q5.884 1455.28 8.93954 1450.7 Q12.0182 1446.09 17.8284 1446.09 Z" fill="#000000" fill-rule="evenodd" fill-opacity="1" /><path clip-path="url(#clip490)" d="M 0 0 M34.8422 1475.4 L39.7264 1475.4 L39.7264 1481.28 L34.8422 1481.28 L34.8422 1475.4 Z" fill="#000000" fill-rule="evenodd" fill-opacity="1" /><path clip-path="url(#clip490)" d="M 0 0 M54.7958 1449.79 Q51.1847 1449.79 49.356 1453.36 Q47.5504 1456.9 47.5504 1464.03 Q47.5504 1471.14 49.356 1474.7 Q51.1847 1478.24 54.7958 1478.24 Q58.43 1478.24 60.2356 1474.7 Q62.0643 1471.14 62.0643 1464.03 Q62.0643 1456.9 60.2356 1453.36 Q58.43 1449.79 54.7958 1449.79 M54.7958 1446.09 Q60.6059 1446.09 63.6615 1450.7 Q66.7402 1455.28 66.7402 1464.03 Q66.7402 1472.76 63.6615 1477.36 Q60.6059 1481.95 54.7958 1481.95 Q48.9856 1481.95 45.9069 1477.36 Q42.8514 1472.76 42.8514 1464.03 Q42.8514 1455.28 45.9069 1450.7 Q48.9856 1446.09 54.7958 1446.09 Z" fill="#000000" fill-rule="evenodd" fill-opacity="1" /><path clip-path="url(#clip490)" d="M 0 0 M19.0552 1105.01 Q15.4441 1105.01 13.6154 1108.58 Q11.8099 1112.12 11.8099 1119.25 Q11.8099 1126.35 13.6154 1129.92 Q15.4441 1133.46 19.0552 1133.46 Q22.6895 1133.46 24.495 1129.92 Q26.3237 1126.35 26.3237 1119.25 Q26.3237 1112.12 24.495 1108.58 Q22.6895 1105.01 19.0552 1105.01 M19.0552 1101.31 Q24.8654 1101.31 27.9209 1105.91 Q30.9996 1110.5 30.9996 1119.25 Q30.9996 1127.97 27.9209 1132.58 Q24.8654 1137.16 19.0552 1137.16 Q13.2451 1137.16 10.1664 1132.58 Q7.11085 1127.97 7.11085 1119.25 Q7.11085 1110.5 10.1664 1105.91 Q13.2451 1101.31 19.0552 1101.31 Z" fill="#000000" fill-rule="evenodd" fill-opacity="1" /><path clip-path="url(#clip490)" d="M 0 0 M36.069 1130.61 L40.9533 1130.61 L40.9533 1136.49 L36.069 1136.49 L36.069 1130.61 Z" fill="#000000" fill-rule="evenodd" fill-opacity="1" /><path clip-path="url(#clip490)" d="M 0 0 M46.8329 1132.56 L54.4717 1132.56 L54.4717 1106.19 L46.1616 1107.86 L46.1616 1103.6 L54.4254 1101.93 L59.1013 1101.93 L59.1013 1132.56 L66.7402 1132.56 L66.7402 1136.49 L46.8329 1136.49 L46.8329 1132.56 Z" fill="#000000" fill-rule="evenodd" fill-opacity="1" /><path clip-path="url(#clip490)" d="M 0 0 M19.4256 760.227 Q15.8145 760.227 13.9858 763.792 Q12.1803 767.334 12.1803 774.463 Q12.1803 781.57 13.9858 785.135 Q15.8145 788.676 19.4256 788.676 Q23.0598 788.676 24.8654 785.135 Q26.6941 781.57 26.6941 774.463 Q26.6941 767.334 24.8654 763.792 Q23.0598 760.227 19.4256 760.227 M19.4256 756.524 Q25.2358 756.524 28.2913 761.13 Q31.37 765.713 31.37 774.463 Q31.37 783.19 28.2913 787.797 Q25.2358 792.38 19.4256 792.38 Q13.6154 792.38 10.5368 787.797 Q7.48122 783.19 7.48122 774.463 Q7.48122 765.713 10.5368 761.13 Q13.6154 756.524 19.4256 756.524 Z" fill="#000000" fill-rule="evenodd" fill-opacity="1" /><path clip-path="url(#clip490)" d="M 0 0 M36.4394 785.829 L41.3236 785.829 L41.3236 791.709 L36.4394 791.709 L36.4394 785.829 Z" fill="#000000" fill-rule="evenodd" fill-opacity="1" /><path clip-path="url(#clip490)" d="M 0 0 M50.4208 787.773 L66.7402 787.773 L66.7402 791.709 L44.7958 791.709 L44.7958 787.773 Q47.4579 785.019 52.0412 780.389 Q56.6476 775.736 57.8282 774.394 Q60.0735 771.871 60.9532 770.135 Q61.8559 768.375 61.8559 766.686 Q61.8559 763.931 59.9115 762.195 Q57.9902 760.459 54.8884 760.459 Q52.6893 760.459 50.2356 761.223 Q47.8051 761.986 45.0273 763.537 L45.0273 758.815 Q47.8514 757.681 50.3051 757.102 Q52.7588 756.524 54.7958 756.524 Q60.1661 756.524 63.3605 759.209 Q66.555 761.894 66.555 766.385 Q66.555 768.514 65.7448 770.436 Q64.9578 772.334 62.8513 774.926 Q62.2726 775.598 59.1708 778.815 Q56.0689 782.01 50.4208 787.773 Z" fill="#000000" fill-rule="evenodd" fill-opacity="1" /><path clip-path="url(#clip490)" d="M 0 0 M18.4765 415.444 Q14.8654 415.444 13.0367 419.009 Q11.2312 422.55 11.2312 429.68 Q11.2312 436.786 13.0367 440.351 Q14.8654 443.893 18.4765 443.893 Q22.1108 443.893 23.9163 440.351 Q25.745 436.786 25.745 429.68 Q25.745 422.55 23.9163 419.009 Q22.1108 415.444 18.4765 415.444 M18.4765 411.74 Q24.2867 411.74 27.3422 416.347 Q30.4209 420.93 30.4209 429.68 Q30.4209 438.407 27.3422 443.013 Q24.2867 447.596 18.4765 447.596 Q12.6664 447.596 9.58769 443.013 Q6.53215 438.407 6.53215 429.68 Q6.53215 420.93 9.58769 416.347 Q12.6664 411.74 18.4765 411.74 Z" fill="#000000" fill-rule="evenodd" fill-opacity="1" /><path clip-path="url(#clip490)" d="M 0 0 M35.4903 441.046 L40.3746 441.046 L40.3746 446.925 L35.4903 446.925 L35.4903 441.046 Z" fill="#000000" fill-rule="evenodd" fill-opacity="1" /><path clip-path="url(#clip490)" d="M 0 0 M59.6106 428.291 Q62.967 429.009 64.842 431.277 Q66.7402 433.546 66.7402 436.879 Q66.7402 441.995 63.2217 444.796 Q59.7032 447.596 53.2217 447.596 Q51.0458 447.596 48.731 447.157 Q46.4393 446.74 43.9856 445.884 L43.9856 441.37 Q45.9301 442.504 48.2449 443.083 Q50.5597 443.661 53.0828 443.661 Q57.4809 443.661 59.7726 441.925 Q62.0874 440.189 62.0874 436.879 Q62.0874 433.823 59.9346 432.11 Q57.805 430.374 53.9856 430.374 L49.9578 430.374 L49.9578 426.532 L54.1708 426.532 Q57.6198 426.532 59.4485 425.166 Q61.2772 423.777 61.2772 421.185 Q61.2772 418.523 59.3791 417.111 Q57.5041 415.675 53.9856 415.675 Q52.0643 415.675 49.8652 416.092 Q47.6662 416.509 45.0273 417.388 L45.0273 413.222 Q47.6893 412.481 50.0041 412.111 Q52.3421 411.74 54.4023 411.74 Q59.7263 411.74 62.8281 414.171 Q65.93 416.578 65.93 420.698 Q65.93 423.569 64.2865 425.56 Q62.643 427.527 59.6106 428.291 Z" fill="#000000" fill-rule="evenodd" fill-opacity="1" /><path clip-path="url(#clip490)" d="M 0 0 M17.3423 70.6605 Q13.7312 70.6605 11.9025 74.2253 Q10.0969 77.767 10.0969 84.8966 Q10.0969 92.003 11.9025 95.5678 Q13.7312 99.1095 17.3423 99.1095 Q20.9765 99.1095 22.7821 95.5678 Q24.6108 92.003 24.6108 84.8966 Q24.6108 77.767 22.7821 74.2253 Q20.9765 70.6605 17.3423 70.6605 M17.3423 66.9569 Q23.1524 66.9569 26.208 71.5633 Q29.2867 76.1466 29.2867 84.8966 Q29.2867 93.6234 26.208 98.2298 Q23.1524 102.813 17.3423 102.813 Q11.5321 102.813 8.45343 98.2298 Q5.39789 93.6234 5.39789 84.8966 Q5.39789 76.1466 8.45343 71.5633 Q11.5321 66.9569 17.3423 66.9569 Z" fill="#000000" fill-rule="evenodd" fill-opacity="1" /><path clip-path="url(#clip490)" d="M 0 0 M34.3561 96.2623 L39.2403 96.2623 L39.2403 102.142 L34.3561 102.142 L34.3561 96.2623 Z" fill="#000000" fill-rule="evenodd" fill-opacity="1" /><path clip-path="url(#clip490)" d="M 0 0 M57.1569 71.6559 L45.3514 90.1049 L57.1569 90.1049 L57.1569 71.6559 M55.93 67.5819 L61.8096 67.5819 L61.8096 90.1049 L66.7402 90.1049 L66.7402 93.9937 L61.8096 93.9937 L61.8096 102.142 L57.1569 102.142 L57.1569 93.9937 L41.5551 93.9937 L41.5551 89.4799 L55.93 67.5819 Z" fill="#000000" fill-rule="evenodd" fill-opacity="1" /><path clip-path="url(#clip490)" d="M 0 0 M-70.3833 803.147 L-65.5135 803.147 L-65.5135 808.749 Q-65.5135 811.9 -64.2404 813.141 Q-62.9673 814.351 -59.6571 814.351 L-56.5061 814.351 L-56.5061 804.707 L-51.9546 804.707 L-51.9546 814.351 L-20.8581 814.351 L-20.8581 820.239 L-51.9546 820.239 L-51.9546 825.841 L-56.5061 825.841 L-56.5061 820.239 L-58.9887 820.239 Q-64.9406 820.239 -67.6461 817.47 Q-70.3833 814.701 -70.3833 808.685 L-70.3833 803.147 Z" fill="#000000" fill-rule="evenodd" fill-opacity="1" /><path clip-path="url(#clip490)" d="M 0 0 M-70.3196 782.936 Q-62.9991 787.201 -55.8377 789.27 Q-48.6762 791.339 -41.3239 791.339 Q-33.9715 791.339 -26.7464 789.27 Q-19.5531 787.169 -12.2644 782.936 L-12.2644 788.029 Q-19.7441 792.803 -26.9692 795.19 Q-34.1943 797.545 -41.3239 797.545 Q-48.4216 797.545 -55.6149 795.19 Q-62.8081 792.835 -70.3196 788.029 L-70.3196 782.936 Z" fill="#000000" fill-rule="evenodd" fill-opacity="1" /><path clip-path="url(#clip490)" d="M 0 0 M-56.5061 747.161 L-39.1595 760.051 L-20.8581 746.492 L-20.8581 753.399 L-34.8627 763.775 L-20.8581 774.151 L-20.8581 781.058 L-39.5096 767.213 L-56.5061 779.88 L-56.5061 772.974 L-43.8065 763.521 L-56.5061 754.067 L-56.5061 747.161 Z" fill="#000000" fill-rule="evenodd" fill-opacity="1" /><path clip-path="url(#clip490)" d="M 0 0 M-70.3196 741.272 L-70.3196 736.18 Q-62.8081 731.406 -55.6149 729.05 Q-48.4216 726.663 -41.3239 726.663 Q-34.1943 726.663 -26.9692 729.05 Q-19.7441 731.406 -12.2644 736.18 L-12.2644 741.272 Q-19.5531 737.039 -26.7464 734.97 Q-33.9715 732.87 -41.3239 732.87 Q-48.6762 732.87 -55.8377 734.97 Q-62.9991 737.039 -70.3196 741.272 Z" fill="#000000" fill-rule="evenodd" fill-opacity="1" /><polyline clip-path="url(#clip492)" style="stroke:#009af9; stroke-width:8; stroke-opacity:1; fill:none" points="
  166.42,1464 173.495,1464 180.571,1464 187.646,1464 194.722,1464 201.797,1464 208.873,1464 215.948,1464 223.024,1464 230.1,1464 
  237.175,1464 244.251,1464 251.326,1464 258.402,1464 265.477,1464 272.553,1464 279.628,1464 286.704,1464 293.779,1464 300.855,1464 
  307.93,1464 315.006,1464 322.081,1464 329.157,1464 336.232,1464 343.308,1464 350.383,1464 357.459,1464 364.534,1464 371.61,1464 
  378.685,1464 385.761,1464 392.837,1464 399.912,1464 406.988,1464 414.063,1464 421.139,1464 428.214,1464 435.29,1464 442.365,1464 
  449.441,1464 456.516,1464 463.592,1464 470.667,1464 477.743,1464 484.818,1464 491.894,1464 498.969,1464 506.045,1464 513.12,1464 
  520.196,1464 527.271,1464 534.347,1464 541.422,1464 548.498,1464 555.574,1464 562.649,1464 569.725,1464 576.8,1464 583.876,1464 
  590.951,1464 598.027,1464 605.102,1464 612.178,1464 619.253,1464 626.329,1464 633.404,1464 640.48,1464 647.555,1464 654.631,1464 
  661.706,1464 668.782,1464 675.857,1464 682.933,1464 690.008,1464 697.084,1464 704.159,1464 711.235,1464 718.311,1464 725.386,1464 
  732.462,1464 739.537,1464 746.613,1464 753.688,1464 760.764,1464 767.839,1464 774.915,1464 781.99,1464 789.066,1464 796.141,1464 
  803.217,1464 810.292,1464 817.368,1464 824.443,1464 831.519,1464 838.594,1463.99 845.67,1463.99 852.745,1463.99 859.821,1463.99 866.896,1463.99 
  873.972,1463.99 881.047,1463.99 888.123,1463.98 895.199,1463.97 902.274,1463.96 909.35,1463.94 916.425,1463.91 923.501,1463.86 930.576,1463.79 937.652,1463.69 
  944.727,1463.53 951.803,1463.31 958.878,1462.99 965.954,1462.53 973.029,1461.89 980.105,1460.99 987.18,1459.75 994.256,1458.06 1001.33,1455.78 1008.41,1452.73 
  1015.48,1448.71 1022.56,1443.47 1029.63,1436.7 1036.71,1428.07 1043.78,1417.16 1050.86,1403.56 1057.94,1386.78 1065.01,1366.33 1072.09,1341.68 1079.16,1312.35 
  1086.24,1277.84 1093.31,1237.76 1100.39,1191.79 1107.46,1139.73 1114.54,1081.56 1121.62,1017.44 1128.69,947.76 1135.77,873.145 1142.84,794.474 1149.92,712.877 
  1156.99,629.72 1164.07,546.578 1171.14,465.187 1178.22,387.396 1185.29,315.092 1192.37,250.133 1199.45,194.261 1206.52,149.034 1213.6,115.745 1220.67,95.369 
  1227.75,88.5087 1234.82,95.369 1241.9,115.745 1248.97,149.034 1256.05,194.261 1263.13,250.133 1270.2,315.092 1277.28,387.396 1284.35,465.187 1291.43,546.578 
  1298.5,629.72 1305.58,712.877 1312.65,794.474 1319.73,873.145 1326.81,947.76 1333.88,1017.44 1340.96,1081.56 1348.03,1139.73 1355.11,1191.79 1362.18,1237.76 
  1369.26,1277.84 1376.33,1312.35 1383.41,1341.68 1390.49,1366.33 1397.56,1386.78 1404.64,1403.56 1411.71,1417.16 1418.79,1428.07 1425.86,1436.7 1432.94,1443.47 
  1440.01,1448.71 1447.09,1452.73 1454.16,1455.78 1461.24,1458.06 1468.32,1459.75 1475.39,1460.99 1482.47,1461.89 1489.54,1462.53 1496.62,1462.99 1503.69,1463.31 
  1510.77,1463.53 1517.84,1463.69 1524.92,1463.79 1532,1463.86 1539.07,1463.91 1546.15,1463.94 1553.22,1463.96 1560.3,1463.97 1567.37,1463.98 1574.45,1463.99 
  1581.52,1463.99 1588.6,1463.99 1595.68,1463.99 1602.75,1463.99 1609.83,1463.99 1616.9,1463.99 1623.98,1464 1631.05,1464 1638.13,1464 1645.2,1464 
  1652.28,1464 1659.35,1464 1666.43,1464 1673.51,1464 1680.58,1464 1687.66,1464 1694.73,1464 1701.81,1464 1708.88,1464 1715.96,1464 
  1723.03,1464 1730.11,1464 1737.19,1464 1744.26,1464 1751.34,1464 1758.41,1464 1765.49,1464 1772.56,1464 1779.64,1464 1786.71,1464 
  1793.79,1464 1800.87,1464 1807.94,1464 1815.02,1464 1822.09,1464 1829.17,1464 1836.24,1464 1843.32,1464 1850.39,1464 1857.47,1464 
  1864.54,1464 1871.62,1464 1878.7,1464 1885.77,1464 1892.85,1464 1899.92,1464 1907,1464 1914.07,1464 1921.15,1464 1928.22,1464 
  1935.3,1464 1942.38,1464 1949.45,1464 1956.53,1464 1963.6,1464 1970.68,1464 1977.75,1464 1984.83,1464 1991.9,1464 1998.98,1464 
  2006.06,1464 2013.13,1464 2020.21,1464 2027.28,1464 2034.36,1464 2041.43,1464 2048.51,1464 2055.58,1464 2062.66,1464 2069.74,1464 
  2076.81,1464 2083.89,1464 2090.96,1464 2098.04,1464 2105.11,1464 2112.19,1464 2119.26,1464 2126.34,1464 2133.41,1464 2140.49,1464 
  2147.57,1464 2154.64,1464 2161.72,1464 2168.79,1464 2175.87,1464 2182.94,1464 2190.02,1464 2197.09,1464 2204.17,1464 2211.25,1464 
  2218.32,1464 2225.4,1464 2232.47,1464 2239.55,1464 2246.62,1464 2253.7,1464 2260.77,1464 2267.85,1464 2274.93,1464 2282,1464 
  2289.08,1464 
  "/>
<polyline clip-path="url(#clip492)" style="stroke:#e26f46; stroke-width:8; stroke-opacity:1; fill:none" points="
  166.42,1464 173.495,1464 180.571,1464 187.646,1464 194.722,1464 201.797,1464 208.873,1464 215.948,1464 223.024,1464 230.1,1464 
  237.175,1464 244.251,1464 251.326,1464 258.402,1464 265.477,1464 272.553,1464 279.628,1464 286.704,1464 293.779,1464 300.855,1464 
  307.93,1464 315.006,1464 322.081,1464 329.157,1464 336.232,1464 343.308,1464 350.383,1464 357.459,1464 364.534,1464 371.61,1464 
  378.685,1464 385.761,1464 392.837,1464 399.912,1464 406.988,1464 414.063,1464 421.139,1464 428.214,1464 435.29,1464 442.365,1464 
  449.441,1464 456.516,1464 463.592,1464 470.667,1464 477.743,1464 484.818,1464 491.894,1464 498.969,1464 506.045,1464 513.12,1464 
  520.196,1464 527.271,1464 534.347,1464 541.422,1464 548.498,1464 555.574,1464 562.649,1464 569.725,1464 576.8,1464 583.876,1464 
  590.951,1464 598.027,1464 605.102,1464 612.178,1464 619.253,1464 626.329,1464 633.404,1464 640.48,1464 647.555,1464 654.631,1464 
  661.706,1464 668.782,1464 675.857,1464 682.933,1464 690.008,1464 697.084,1464 704.159,1464 711.235,1464 718.311,1464 725.386,1464 
  732.462,1464 739.537,1464 746.613,1463.99 753.688,1463.99 760.764,1463.99 767.839,1463.99 774.915,1463.99 781.99,1463.99 789.066,1463.99 796.141,1463.99 
  803.217,1463.99 810.292,1463.99 817.368,1463.99 824.443,1463.99 831.519,1463.99 838.594,1463.99 845.67,1463.98 852.745,1463.98 859.821,1463.98 866.896,1463.97 
  873.972,1463.97 881.047,1463.96 888.123,1463.95 895.199,1463.94 902.274,1463.93 909.35,1463.91 916.425,1463.89 923.501,1463.87 930.576,1463.84 937.652,1463.81 
  944.727,1463.76 951.803,1463.71 958.878,1463.65 965.954,1463.58 973.029,1463.49 980.105,1463.39 987.18,1463.26 994.256,1463.12 1001.33,1462.94 1008.41,1462.73 
  1015.48,1462.49 1022.56,1462.21 1029.63,1461.87 1036.71,1461.48 1043.78,1461.03 1050.86,1460.5 1057.94,1459.89 1065.01,1459.18 1072.09,1458.36 1079.16,1457.43 
  1086.24,1456.36 1093.31,1455.13 1100.39,1453.73 1107.46,1452.15 1114.54,1450.35 1121.62,1448.32 1128.69,1446.03 1135.77,1443.46 1142.84,1440.58 1149.92,1437.36 
  1156.99,1433.78 1164.07,1429.8 1171.14,1425.39 1178.22,1420.52 1185.29,1415.16 1192.37,1409.28 1199.45,1402.84 1206.52,1395.81 1213.6,1388.17 1220.67,1379.88 
  1227.75,1370.92 1234.82,1361.26 1241.9,1350.88 1248.97,1339.76 1256.05,1327.89 1263.13,1315.26 1270.2,1301.86 1277.28,1287.7 1284.35,1272.78 1291.43,1257.11 
  1298.5,1240.72 1305.58,1223.63 1312.65,1205.88 1319.73,1187.51 1326.81,1168.57 1333.88,1149.12 1340.96,1129.23 1348.03,1108.98 1355.11,1088.44 1362.18,1067.7 
  1369.26,1046.86 1376.33,1026.02 1383.41,1005.29 1390.49,984.772 1397.56,964.591 1404.64,944.859 1411.71,925.695 1418.79,907.218 1425.86,889.544 1432.94,872.789 
  1440.01,857.064 1447.09,842.477 1454.16,829.128 1461.24,817.112 1468.32,806.514 1475.39,797.412 1482.47,789.87 1489.54,783.946 1496.62,779.682 1503.69,777.111 
  1510.77,776.252 1517.84,777.111 1524.92,779.682 1532,783.946 1539.07,789.87 1546.15,797.412 1553.22,806.514 1560.3,817.112 1567.37,829.128 1574.45,842.477 
  1581.52,857.064 1588.6,872.789 1595.68,889.544 1602.75,907.218 1609.83,925.695 1616.9,944.859 1623.98,964.591 1631.05,984.772 1638.13,1005.29 1645.2,1026.02 
  1652.28,1046.86 1659.35,1067.7 1666.43,1088.44 1673.51,1108.98 1680.58,1129.23 1687.66,1149.12 1694.73,1168.57 1701.81,1187.51 1708.88,1205.88 1715.96,1223.63 
  1723.03,1240.72 1730.11,1257.11 1737.19,1272.78 1744.26,1287.7 1751.34,1301.86 1758.41,1315.26 1765.49,1327.89 1772.56,1339.76 1779.64,1350.88 1786.71,1361.26 
  1793.79,1370.92 1800.87,1379.88 1807.94,1388.17 1815.02,1395.81 1822.09,1402.84 1829.17,1409.28 1836.24,1415.16 1843.32,1420.52 1850.39,1425.39 1857.47,1429.8 
  1864.54,1433.78 1871.62,1437.36 1878.7,1440.58 1885.77,1443.46 1892.85,1446.03 1899.92,1448.32 1907,1450.35 1914.07,1452.15 1921.15,1453.73 1928.22,1455.13 
  1935.3,1456.36 1942.38,1457.43 1949.45,1458.36 1956.53,1459.18 1963.6,1459.89 1970.68,1460.5 1977.75,1461.03 1984.83,1461.48 1991.9,1461.87 1998.98,1462.21 
  2006.06,1462.49 2013.13,1462.73 2020.21,1462.94 2027.28,1463.12 2034.36,1463.26 2041.43,1463.39 2048.51,1463.49 2055.58,1463.58 2062.66,1463.65 2069.74,1463.71 
  2076.81,1463.76 2083.89,1463.81 2090.96,1463.84 2098.04,1463.87 2105.11,1463.89 2112.19,1463.91 2119.26,1463.93 2126.34,1463.94 2133.41,1463.95 2140.49,1463.96 
  2147.57,1463.97 2154.64,1463.97 2161.72,1463.98 2168.79,1463.98 2175.87,1463.98 2182.94,1463.99 2190.02,1463.99 2197.09,1463.99 2204.17,1463.99 2211.25,1463.99 
  2218.32,1463.99 2225.4,1463.99 2232.47,1463.99 2239.55,1463.99 2246.62,1463.99 2253.7,1463.99 2260.77,1463.99 2267.85,1463.99 2274.93,1463.99 2282,1464 
  2289.08,1464 
  "/>
<polyline clip-path="url(#clip492)" style="stroke:#3da44d; stroke-width:8; stroke-opacity:1; fill:none" points="
  166.42,1464 173.495,1464 180.571,1464 187.646,1464 194.722,1464 201.797,1464 208.873,1464 215.948,1464 223.024,1464 230.1,1464 
  237.175,1464 244.251,1464 251.326,1463.99 258.402,1463.99 265.477,1463.99 272.553,1463.99 279.628,1463.99 286.704,1463.99 293.779,1463.99 300.855,1463.99 
  307.93,1463.99 315.006,1463.99 322.081,1463.99 329.157,1463.99 336.232,1463.99 343.308,1463.99 350.383,1463.98 357.459,1463.98 364.534,1463.98 371.61,1463.97 
  378.685,1463.97 385.761,1463.96 392.837,1463.95 399.912,1463.94 406.988,1463.93 414.063,1463.91 421.139,1463.89 428.214,1463.87 435.29,1463.84 442.365,1463.81 
  449.441,1463.76 456.516,1463.71 463.592,1463.65 470.667,1463.58 477.743,1463.49 484.818,1463.39 491.894,1463.26 498.969,1463.12 506.045,1462.94 513.12,1462.73 
  520.196,1462.49 527.271,1462.21 534.347,1461.87 541.422,1461.48 548.498,1461.03 555.574,1460.5 562.649,1459.89 569.725,1459.18 576.8,1458.36 583.876,1457.43 
  590.951,1456.36 598.027,1455.13 605.102,1453.73 612.178,1452.15 619.253,1450.35 626.329,1448.32 633.404,1446.03 640.48,1443.46 647.555,1440.58 654.631,1437.36 
  661.706,1433.78 668.782,1429.8 675.857,1425.39 682.933,1420.52 690.008,1415.16 697.084,1409.28 704.159,1402.84 711.235,1395.81 718.311,1388.17 725.386,1379.88 
  732.462,1370.92 739.537,1361.26 746.613,1350.88 753.688,1339.76 760.764,1327.89 767.839,1315.26 774.915,1301.86 781.99,1287.7 789.066,1272.78 796.141,1257.11 
  803.217,1240.72 810.292,1223.63 817.368,1205.88 824.443,1187.51 831.519,1168.57 838.594,1149.12 845.67,1129.23 852.745,1108.98 859.821,1088.44 866.896,1067.7 
  873.972,1046.86 881.047,1026.02 888.123,1005.29 895.199,984.772 902.274,964.591 909.35,944.859 916.425,925.695 923.501,907.218 930.576,889.544 937.652,872.789 
  944.727,857.064 951.803,842.477 958.878,829.128 965.954,817.112 973.029,806.514 980.105,797.412 987.18,789.87 994.256,783.946 1001.33,779.682 1008.41,777.111 
  1015.48,776.252 1022.56,777.111 1029.63,779.682 1036.71,783.946 1043.78,789.87 1050.86,797.412 1057.94,806.514 1065.01,817.112 1072.09,829.128 1079.16,842.477 
  1086.24,857.064 1093.31,872.789 1100.39,889.544 1107.46,907.218 1114.54,925.695 1121.62,944.859 1128.69,964.591 1135.77,984.772 1142.84,1005.29 1149.92,1026.02 
  1156.99,1046.86 1164.07,1067.7 1171.14,1088.44 1178.22,1108.98 1185.29,1129.23 1192.37,1149.12 1199.45,1168.57 1206.52,1187.51 1213.6,1205.88 1220.67,1223.63 
  1227.75,1240.72 1234.82,1257.11 1241.9,1272.78 1248.97,1287.7 1256.05,1301.86 1263.13,1315.26 1270.2,1327.89 1277.28,1339.76 1284.35,1350.88 1291.43,1361.26 
  1298.5,1370.92 1305.58,1379.88 1312.65,1388.17 1319.73,1395.81 1326.81,1402.84 1333.88,1409.28 1340.96,1415.16 1348.03,1420.52 1355.11,1425.39 1362.18,1429.8 
  1369.26,1433.78 1376.33,1437.36 1383.41,1440.58 1390.49,1443.46 1397.56,1446.03 1404.64,1448.32 1411.71,1450.35 1418.79,1452.15 1425.86,1453.73 1432.94,1455.13 
  1440.01,1456.36 1447.09,1457.43 1454.16,1458.36 1461.24,1459.18 1468.32,1459.89 1475.39,1460.5 1482.47,1461.03 1489.54,1461.48 1496.62,1461.87 1503.69,1462.21 
  1510.77,1462.49 1517.84,1462.73 1524.92,1462.94 1532,1463.12 1539.07,1463.26 1546.15,1463.39 1553.22,1463.49 1560.3,1463.58 1567.37,1463.65 1574.45,1463.71 
  1581.52,1463.76 1588.6,1463.81 1595.68,1463.84 1602.75,1463.87 1609.83,1463.89 1616.9,1463.91 1623.98,1463.93 1631.05,1463.94 1638.13,1463.95 1645.2,1463.96 
  1652.28,1463.97 1659.35,1463.97 1666.43,1463.98 1673.51,1463.98 1680.58,1463.98 1687.66,1463.99 1694.73,1463.99 1701.81,1463.99 1708.88,1463.99 1715.96,1463.99 
  1723.03,1463.99 1730.11,1463.99 1737.19,1463.99 1744.26,1463.99 1751.34,1463.99 1758.41,1463.99 1765.49,1463.99 1772.56,1463.99 1779.64,1463.99 1786.71,1464 
  1793.79,1464 1800.87,1464 1807.94,1464 1815.02,1464 1822.09,1464 1829.17,1464 1836.24,1464 1843.32,1464 1850.39,1464 1857.47,1464 
  1864.54,1464 1871.62,1464 1878.7,1464 1885.77,1464 1892.85,1464 1899.92,1464 1907,1464 1914.07,1464 1921.15,1464 1928.22,1464 
  1935.3,1464 1942.38,1464 1949.45,1464 1956.53,1464 1963.6,1464 1970.68,1464 1977.75,1464 1984.83,1464 1991.9,1464 1998.98,1464 
  2006.06,1464 2013.13,1464 2020.21,1464 2027.28,1464 2034.36,1464 2041.43,1464 2048.51,1464 2055.58,1464 2062.66,1464 2069.74,1464 
  2076.81,1464 2083.89,1464 2090.96,1464 2098.04,1464 2105.11,1464 2112.19,1464 2119.26,1464 2126.34,1464 2133.41,1464 2140.49,1464 
  2147.57,1464 2154.64,1464 2161.72,1464 2168.79,1464 2175.87,1464 2182.94,1464 2190.02,1464 2197.09,1464 2204.17,1464 2211.25,1464 
  2218.32,1464 2225.4,1464 2232.47,1464 2239.55,1464 2246.62,1464 2253.7,1464 2260.77,1464 2267.85,1464 2274.93,1464 2282,1464 
  2289.08,1464 
  "/>
<path clip-path="url(#clip490)" d="
M1752.36 337.765 L2277.76 337.765 L2277.76 95.8446 L1752.36 95.8446  Z
  " fill="#ffffff" fill-rule="evenodd" fill-opacity="1"/>
<polyline clip-path="url(#clip490)" style="stroke:#000000; stroke-width:4; stroke-opacity:1; fill:none" points="
  1752.36,337.765 2277.76,337.765 2277.76,95.8446 1752.36,95.8446 1752.36,337.765 
  "/>
<polyline clip-path="url(#clip490)" style="stroke:#009af9; stroke-width:4; stroke-opacity:1; fill:none" points="
  1777.36,156.325 1927.36,156.325 
  "/>
<path clip-path="url(#clip490)" d="M 0 0 M1952.36 183.466 L1952.36 147.679 L1956.62 147.679 L1956.62 163.79 Q1956.62 167.146 1958.22 168.859 Q1959.82 170.572 1962.94 170.572 Q1966.37 170.572 1968.08 168.628 Q1969.82 166.683 1969.82 162.794 L1969.82 147.679 L1974.08 147.679 L1974.08 167.632 Q1974.08 169.021 1974.47 169.693 Q1974.89 170.341 1975.74 170.341 Q1975.95 170.341 1976.32 170.225 Q1976.69 170.086 1977.34 169.808 L1977.34 173.234 Q1976.39 173.767 1975.53 174.021 Q1974.7 174.276 1973.89 174.276 Q1972.29 174.276 1971.34 173.373 Q1970.4 172.47 1970.05 170.619 Q1968.89 172.447 1967.2 173.373 Q1965.53 174.276 1963.27 174.276 Q1960.9 174.276 1959.24 173.373 Q1957.59 172.47 1956.62 170.665 L1956.62 183.466 L1952.36 183.466 Z" fill="#000000" fill-rule="evenodd" fill-opacity="1" /><path clip-path="url(#clip490)" d="M 0 0 M1997.43 152.077 L2027.11 152.077 L2027.11 155.966 L1997.43 155.966 L1997.43 152.077 M1997.43 161.521 L2027.11 161.521 L2027.11 165.457 L1997.43 165.457 L1997.43 161.521 Z" fill="#000000" fill-rule="evenodd" fill-opacity="1" /><path clip-path="url(#clip490)" d="M 0 0 M2057.25 142.123 Q2053.64 142.123 2051.81 145.688 Q2050 149.23 2050 156.359 Q2050 163.466 2051.81 167.031 Q2053.64 170.572 2057.25 170.572 Q2060.88 170.572 2062.69 167.031 Q2064.52 163.466 2064.52 156.359 Q2064.52 149.23 2062.69 145.688 Q2060.88 142.123 2057.25 142.123 M2057.25 138.42 Q2063.06 138.42 2066.11 143.026 Q2069.19 147.609 2069.19 156.359 Q2069.19 165.086 2066.11 169.693 Q2063.06 174.276 2057.25 174.276 Q2051.44 174.276 2048.36 169.693 Q2045.3 165.086 2045.3 156.359 Q2045.3 147.609 2048.36 143.026 Q2051.44 138.42 2057.25 138.42 Z" fill="#000000" fill-rule="evenodd" fill-opacity="1" /><path clip-path="url(#clip490)" d="M 0 0 M2074.75 167.725 L2079.63 167.725 L2079.63 171.706 L2075.83 179.114 L2072.85 179.114 L2074.75 171.706 L2074.75 167.725 Z" fill="#000000" fill-rule="evenodd" fill-opacity="1" /><path clip-path="url(#clip490)" d="M 0 0 M2109.21 151.058 Q2105.7 151.058 2103.8 153.605 Q2101.81 156.267 2101.81 160.665 Q2101.81 165.318 2103.77 168.003 Q2105.76 170.665 2109.21 170.665 Q2112.62 170.665 2114.61 167.98 Q2116.6 165.294 2116.6 160.665 Q2116.6 156.429 2114.61 153.605 Q2112.78 151.058 2109.21 151.058 M2109.21 147.679 L2123.36 147.679 L2123.36 151.938 L2118.59 151.938 Q2121.11 155.549 2121.11 160.665 Q2121.11 167.031 2117.94 170.642 Q2114.77 174.276 2109.21 174.276 Q2103.64 174.276 2100.49 170.642 Q2097.32 167.031 2097.32 160.665 Q2097.32 154.253 2100.49 150.665 Q2103.1 147.679 2109.21 147.679 Z" fill="#000000" fill-rule="evenodd" fill-opacity="1" /><path clip-path="url(#clip490)" d="M 0 0 M2143.45 152.077 L2173.13 152.077 L2173.13 155.966 L2143.45 155.966 L2143.45 152.077 M2143.45 161.521 L2173.13 161.521 L2173.13 165.457 L2143.45 165.457 L2143.45 161.521 Z" fill="#000000" fill-rule="evenodd" fill-opacity="1" /><path clip-path="url(#clip490)" d="M 0 0 M2194.07 169.669 L2201.71 169.669 L2201.71 143.304 L2193.4 144.971 L2193.4 140.711 L2201.67 139.045 L2206.34 139.045 L2206.34 169.669 L2213.98 169.669 L2213.98 173.605 L2194.07 173.605 L2194.07 169.669 Z" fill="#000000" fill-rule="evenodd" fill-opacity="1" /><polyline clip-path="url(#clip490)" style="stroke:#e26f46; stroke-width:4; stroke-opacity:1; fill:none" points="
  1777.36,216.805 1927.36,216.805 
  "/>
<path clip-path="url(#clip490)" d="M 0 0 M1952.36 243.946 L1952.36 208.159 L1956.62 208.159 L1956.62 224.27 Q1956.62 227.626 1958.22 229.339 Q1959.82 231.052 1962.94 231.052 Q1966.37 231.052 1968.08 229.108 Q1969.82 227.163 1969.82 223.274 L1969.82 208.159 L1974.08 208.159 L1974.08 228.112 Q1974.08 229.501 1974.47 230.173 Q1974.89 230.821 1975.74 230.821 Q1975.95 230.821 1976.32 230.705 Q1976.69 230.566 1977.34 230.288 L1977.34 233.714 Q1976.39 234.247 1975.53 234.501 Q1974.7 234.756 1973.89 234.756 Q1972.29 234.756 1971.34 233.853 Q1970.4 232.95 1970.05 231.099 Q1968.89 232.927 1967.2 233.853 Q1965.53 234.756 1963.27 234.756 Q1960.9 234.756 1959.24 233.853 Q1957.59 232.95 1956.62 231.145 L1956.62 243.946 L1952.36 243.946 Z" fill="#000000" fill-rule="evenodd" fill-opacity="1" /><path clip-path="url(#clip490)" d="M 0 0 M1997.43 212.557 L2027.11 212.557 L2027.11 216.446 L1997.43 216.446 L1997.43 212.557 M1997.43 222.001 L2027.11 222.001 L2027.11 225.937 L1997.43 225.937 L1997.43 222.001 Z" fill="#000000" fill-rule="evenodd" fill-opacity="1" /><path clip-path="url(#clip490)" d="M 0 0 M2060.09 203.599 L2048.29 222.048 L2060.09 222.048 L2060.09 203.599 M2058.87 199.525 L2064.75 199.525 L2064.75 222.048 L2069.68 222.048 L2069.68 225.937 L2064.75 225.937 L2064.75 234.085 L2060.09 234.085 L2060.09 225.937 L2044.49 225.937 L2044.49 221.423 L2058.87 199.525 Z" fill="#000000" fill-rule="evenodd" fill-opacity="1" /><path clip-path="url(#clip490)" d="M 0 0 M2075.23 228.205 L2080.12 228.205 L2080.12 232.186 L2076.32 239.594 L2073.33 239.594 L2075.23 232.186 L2075.23 228.205 Z" fill="#000000" fill-rule="evenodd" fill-opacity="1" /><path clip-path="url(#clip490)" d="M 0 0 M2109.7 211.538 Q2106.18 211.538 2104.28 214.085 Q2102.29 216.747 2102.29 221.145 Q2102.29 225.798 2104.26 228.483 Q2106.25 231.145 2109.7 231.145 Q2113.1 231.145 2115.09 228.46 Q2117.08 225.774 2117.08 221.145 Q2117.08 216.909 2115.09 214.085 Q2113.26 211.538 2109.7 211.538 M2109.7 208.159 L2123.84 208.159 L2123.84 212.418 L2119.08 212.418 Q2121.6 216.029 2121.6 221.145 Q2121.6 227.511 2118.43 231.122 Q2115.26 234.756 2109.7 234.756 Q2104.12 234.756 2100.97 231.122 Q2097.8 227.511 2097.8 221.145 Q2097.8 214.733 2100.97 211.145 Q2103.59 208.159 2109.7 208.159 Z" fill="#000000" fill-rule="evenodd" fill-opacity="1" /><path clip-path="url(#clip490)" d="M 0 0 M2143.94 212.557 L2173.61 212.557 L2173.61 216.446 L2143.94 216.446 L2143.94 212.557 M2143.94 222.001 L2173.61 222.001 L2173.61 225.937 L2143.94 225.937 L2143.94 222.001 Z" fill="#000000" fill-rule="evenodd" fill-opacity="1" /><path clip-path="url(#clip490)" d="M 0 0 M2197.78 230.149 L2214.1 230.149 L2214.1 234.085 L2192.15 234.085 L2192.15 230.149 Q2194.82 227.395 2199.4 222.765 Q2204.01 218.112 2205.19 216.77 Q2207.43 214.247 2208.31 212.511 Q2209.21 210.751 2209.21 209.062 Q2209.21 206.307 2207.27 204.571 Q2205.35 202.835 2202.25 202.835 Q2200.05 202.835 2197.59 203.599 Q2195.16 204.363 2192.38 205.913 L2192.38 201.191 Q2195.21 200.057 2197.66 199.478 Q2200.12 198.9 2202.15 198.9 Q2207.52 198.9 2210.72 201.585 Q2213.91 204.27 2213.91 208.761 Q2213.91 210.89 2213.1 212.812 Q2212.32 214.71 2210.21 217.302 Q2209.63 217.974 2206.53 221.191 Q2203.43 224.386 2197.78 230.149 Z" fill="#000000" fill-rule="evenodd" fill-opacity="1" /><polyline clip-path="url(#clip490)" style="stroke:#3da44d; stroke-width:4; stroke-opacity:1; fill:none" points="
  1777.36,277.285 1927.36,277.285 
  "/>
<path clip-path="url(#clip490)" d="M 0 0 M1952.36 304.426 L1952.36 268.639 L1956.62 268.639 L1956.62 284.75 Q1956.62 288.106 1958.22 289.819 Q1959.82 291.532 1962.94 291.532 Q1966.37 291.532 1968.08 289.588 Q1969.82 287.643 1969.82 283.754 L1969.82 268.639 L1974.08 268.639 L1974.08 288.592 Q1974.08 289.981 1974.47 290.653 Q1974.89 291.301 1975.74 291.301 Q1975.95 291.301 1976.32 291.185 Q1976.69 291.046 1977.34 290.768 L1977.34 294.194 Q1976.39 294.727 1975.53 294.981 Q1974.7 295.236 1973.89 295.236 Q1972.29 295.236 1971.34 294.333 Q1970.4 293.43 1970.05 291.579 Q1968.89 293.407 1967.2 294.333 Q1965.53 295.236 1963.27 295.236 Q1960.9 295.236 1959.24 294.333 Q1957.59 293.43 1956.62 291.625 L1956.62 304.426 L1952.36 304.426 Z" fill="#000000" fill-rule="evenodd" fill-opacity="1" /><path clip-path="url(#clip490)" d="M 0 0 M1997.43 273.037 L2027.11 273.037 L2027.11 276.926 L1997.43 276.926 L1997.43 273.037 M1997.43 282.481 L2027.11 282.481 L2027.11 286.417 L1997.43 286.417 L1997.43 282.481 Z" fill="#000000" fill-rule="evenodd" fill-opacity="1" /><path clip-path="url(#clip490)" d="M 0 0 M2044.49 279.68 L2056.97 279.68 L2056.97 283.477 L2044.49 283.477 L2044.49 279.68 Z" fill="#000000" fill-rule="evenodd" fill-opacity="1" /><path clip-path="url(#clip490)" d="M 0 0 M2076.2 275.93 Q2079.56 276.648 2081.44 278.917 Q2083.33 281.185 2083.33 284.518 Q2083.33 289.634 2079.82 292.435 Q2076.3 295.236 2069.82 295.236 Q2067.64 295.236 2065.33 294.796 Q2063.03 294.379 2060.58 293.523 L2060.58 289.009 Q2062.52 290.143 2064.84 290.722 Q2067.15 291.301 2069.68 291.301 Q2074.08 291.301 2076.37 289.565 Q2078.68 287.829 2078.68 284.518 Q2078.68 281.463 2076.53 279.75 Q2074.4 278.014 2070.58 278.014 L2066.55 278.014 L2066.55 274.171 L2070.77 274.171 Q2074.21 274.171 2076.04 272.805 Q2077.87 271.417 2077.87 268.824 Q2077.87 266.162 2075.97 264.75 Q2074.1 263.315 2070.58 263.315 Q2068.66 263.315 2066.46 263.731 Q2064.26 264.148 2061.62 265.028 L2061.62 260.861 Q2064.28 260.12 2066.6 259.75 Q2068.94 259.38 2071 259.38 Q2076.32 259.38 2079.42 261.81 Q2082.52 264.218 2082.52 268.338 Q2082.52 271.208 2080.88 273.199 Q2079.24 275.167 2076.2 275.93 Z" fill="#000000" fill-rule="evenodd" fill-opacity="1" /><path clip-path="url(#clip490)" d="M 0 0 M2088.89 288.685 L2093.77 288.685 L2093.77 292.666 L2089.98 300.074 L2086.99 300.074 L2088.89 292.666 L2088.89 288.685 Z" fill="#000000" fill-rule="evenodd" fill-opacity="1" /><path clip-path="url(#clip490)" d="M 0 0 M2123.36 272.018 Q2119.84 272.018 2117.94 274.565 Q2115.95 277.227 2115.95 281.625 Q2115.95 286.278 2117.92 288.963 Q2119.91 291.625 2123.36 291.625 Q2126.76 291.625 2128.75 288.94 Q2130.74 286.254 2130.74 281.625 Q2130.74 277.389 2128.75 274.565 Q2126.92 272.018 2123.36 272.018 M2123.36 268.639 L2137.5 268.639 L2137.5 272.898 L2132.73 272.898 Q2135.26 276.509 2135.26 281.625 Q2135.26 287.991 2132.08 291.602 Q2128.91 295.236 2123.36 295.236 Q2117.78 295.236 2114.63 291.602 Q2111.46 287.991 2111.46 281.625 Q2111.46 275.213 2114.63 271.625 Q2117.25 268.639 2123.36 268.639 Z" fill="#000000" fill-rule="evenodd" fill-opacity="1" /><path clip-path="url(#clip490)" d="M 0 0 M2157.59 273.037 L2187.27 273.037 L2187.27 276.926 L2157.59 276.926 L2157.59 273.037 M2157.59 282.481 L2187.27 282.481 L2187.27 286.417 L2157.59 286.417 L2157.59 282.481 Z" fill="#000000" fill-rule="evenodd" fill-opacity="1" /><path clip-path="url(#clip490)" d="M 0 0 M2211.44 290.629 L2227.76 290.629 L2227.76 294.565 L2205.81 294.565 L2205.81 290.629 Q2208.47 287.875 2213.06 283.245 Q2217.66 278.592 2218.84 277.25 Q2221.09 274.727 2221.97 272.991 Q2222.87 271.231 2222.87 269.542 Q2222.87 266.787 2220.93 265.051 Q2219.01 263.315 2215.9 263.315 Q2213.7 263.315 2211.25 264.079 Q2208.82 264.843 2206.04 266.393 L2206.04 261.671 Q2208.87 260.537 2211.32 259.958 Q2213.77 259.38 2215.81 259.38 Q2221.18 259.38 2224.38 262.065 Q2227.57 264.75 2227.57 269.241 Q2227.57 271.37 2226.76 273.292 Q2225.97 275.19 2223.87 277.782 Q2223.29 278.454 2220.19 281.671 Q2217.08 284.866 2211.44 290.629 Z" fill="#000000" fill-rule="evenodd" fill-opacity="1" /></svg>
