<?xml version="1.0" encoding="utf-8"?>
<svg xmlns="http://www.w3.org/2000/svg" xmlns:xlink="http://www.w3.org/1999/xlink" width="600" height="400" viewBox="0 0 2400 1600">
<defs>
  <clipPath id="clip610">
    <rect x="0" y="0" width="2400" height="1600"/>
  </clipPath>
</defs>
<path clip-path="url(#clip610)" d="
M0 1600 L2400 1600 L2400 0 L0 0  Z
  " fill="#ffffff" fill-rule="evenodd" fill-opacity="1"/>
<defs>
  <clipPath id="clip611">
    <rect x="480" y="0" width="1681" height="1600"/>
  </clipPath>
</defs>
<path clip-path="url(#clip610)" d="
M249.542 1423.18 L2352.76 1423.18 L2352.76 47.2441 L249.542 47.2441  Z
  " fill="#ffffff" fill-rule="evenodd" fill-opacity="1"/>
<defs>
  <clipPath id="clip612">
    <rect x="249" y="47" width="2104" height="1377"/>
  </clipPath>
</defs>
<polyline clip-path="url(#clip612)" style="stroke:#000000; stroke-linecap:round; stroke-linejoin:round; stroke-width:2; stroke-opacity:0.1; fill:none" points="
  301.098,1423.18 301.098,47.2441 
  "/>
<polyline clip-path="url(#clip612)" style="stroke:#000000; stroke-linecap:round; stroke-linejoin:round; stroke-width:2; stroke-opacity:0.1; fill:none" points="
  699.525,1423.18 699.525,47.2441 
  "/>
<polyline clip-path="url(#clip612)" style="stroke:#000000; stroke-linecap:round; stroke-linejoin:round; stroke-width:2; stroke-opacity:0.1; fill:none" points="
  1097.95,1423.18 1097.95,47.2441 
  "/>
<polyline clip-path="url(#clip612)" style="stroke:#000000; stroke-linecap:round; stroke-linejoin:round; stroke-width:2; stroke-opacity:0.1; fill:none" points="
  1496.38,1423.18 1496.38,47.2441 
  "/>
<polyline clip-path="url(#clip612)" style="stroke:#000000; stroke-linecap:round; stroke-linejoin:round; stroke-width:2; stroke-opacity:0.1; fill:none" points="
  1894.8,1423.18 1894.8,47.2441 
  "/>
<polyline clip-path="url(#clip612)" style="stroke:#000000; stroke-linecap:round; stroke-linejoin:round; stroke-width:2; stroke-opacity:0.1; fill:none" points="
  2293.23,1423.18 2293.23,47.2441 
  "/>
<polyline clip-path="url(#clip610)" style="stroke:#000000; stroke-linecap:round; stroke-linejoin:round; stroke-width:4; stroke-opacity:1; fill:none" points="
  249.542,1423.18 2352.76,1423.18 
  "/>
<polyline clip-path="url(#clip610)" style="stroke:#000000; stroke-linecap:round; stroke-linejoin:round; stroke-width:4; stroke-opacity:1; fill:none" points="
  301.098,1423.18 301.098,1404.28 
  "/>
<polyline clip-path="url(#clip610)" style="stroke:#000000; stroke-linecap:round; stroke-linejoin:round; stroke-width:4; stroke-opacity:1; fill:none" points="
  699.525,1423.18 699.525,1404.28 
  "/>
<polyline clip-path="url(#clip610)" style="stroke:#000000; stroke-linecap:round; stroke-linejoin:round; stroke-width:4; stroke-opacity:1; fill:none" points="
  1097.95,1423.18 1097.95,1404.28 
  "/>
<polyline clip-path="url(#clip610)" style="stroke:#000000; stroke-linecap:round; stroke-linejoin:round; stroke-width:4; stroke-opacity:1; fill:none" points="
  1496.38,1423.18 1496.38,1404.28 
  "/>
<polyline clip-path="url(#clip610)" style="stroke:#000000; stroke-linecap:round; stroke-linejoin:round; stroke-width:4; stroke-opacity:1; fill:none" points="
  1894.8,1423.18 1894.8,1404.28 
  "/>
<polyline clip-path="url(#clip610)" style="stroke:#000000; stroke-linecap:round; stroke-linejoin:round; stroke-width:4; stroke-opacity:1; fill:none" points="
  2293.23,1423.18 2293.23,1404.28 
  "/>
<path clip-path="url(#clip610)" d="M301.098 1454.1 Q297.487 1454.1 295.659 1457.66 Q293.853 1461.2 293.853 1468.33 Q293.853 1475.44 295.659 1479.01 Q297.487 1482.55 301.098 1482.55 Q304.733 1482.55 306.538 1479.01 Q308.367 1475.44 308.367 1468.33 Q308.367 1461.2 306.538 1457.66 Q304.733 1454.1 301.098 1454.1 M301.098 1450.39 Q306.909 1450.39 309.964 1455 Q313.043 1459.58 313.043 1468.33 Q313.043 1477.06 309.964 1481.67 Q306.909 1486.25 301.098 1486.25 Q295.288 1486.25 292.21 1481.67 Q289.154 1477.06 289.154 1468.33 Q289.154 1459.58 292.21 1455 Q295.288 1450.39 301.098 1450.39 Z" fill="#000000" fill-rule="evenodd" fill-opacity="1" /><path clip-path="url(#clip610)" d="M674.224 1451.02 L692.581 1451.02 L692.581 1454.96 L678.507 1454.96 L678.507 1463.43 Q679.525 1463.08 680.544 1462.92 Q681.562 1462.73 682.581 1462.73 Q688.368 1462.73 691.747 1465.9 Q695.127 1469.08 695.127 1474.49 Q695.127 1480.07 691.655 1483.17 Q688.182 1486.25 681.863 1486.25 Q679.687 1486.25 677.419 1485.88 Q675.173 1485.51 672.766 1484.77 L672.766 1480.07 Q674.849 1481.2 677.071 1481.76 Q679.294 1482.32 681.77 1482.32 Q685.775 1482.32 688.113 1480.21 Q690.451 1478.1 690.451 1474.49 Q690.451 1470.88 688.113 1468.77 Q685.775 1466.67 681.77 1466.67 Q679.895 1466.67 678.02 1467.08 Q676.169 1467.5 674.224 1468.38 L674.224 1451.02 Z" fill="#000000" fill-rule="evenodd" fill-opacity="1" /><path clip-path="url(#clip610)" d="M714.34 1454.1 Q710.729 1454.1 708.9 1457.66 Q707.094 1461.2 707.094 1468.33 Q707.094 1475.44 708.9 1479.01 Q710.729 1482.55 714.34 1482.55 Q717.974 1482.55 719.779 1479.01 Q721.608 1475.44 721.608 1468.33 Q721.608 1461.2 719.779 1457.66 Q717.974 1454.1 714.34 1454.1 M714.34 1450.39 Q720.15 1450.39 723.205 1455 Q726.284 1459.58 726.284 1468.33 Q726.284 1477.06 723.205 1481.67 Q720.15 1486.25 714.34 1486.25 Q708.53 1486.25 705.451 1481.67 Q702.395 1477.06 702.395 1468.33 Q702.395 1459.58 705.451 1455 Q708.53 1450.39 714.34 1450.39 Z" fill="#000000" fill-rule="evenodd" fill-opacity="1" /><path clip-path="url(#clip610)" d="M1057.56 1481.64 L1065.2 1481.64 L1065.2 1455.28 L1056.89 1456.95 L1056.89 1452.69 L1065.15 1451.02 L1069.83 1451.02 L1069.83 1481.64 L1077.47 1481.64 L1077.47 1485.58 L1057.56 1485.58 L1057.56 1481.64 Z" fill="#000000" fill-rule="evenodd" fill-opacity="1" /><path clip-path="url(#clip610)" d="M1096.91 1454.1 Q1093.3 1454.1 1091.47 1457.66 Q1089.66 1461.2 1089.66 1468.33 Q1089.66 1475.44 1091.47 1479.01 Q1093.3 1482.55 1096.91 1482.55 Q1100.54 1482.55 1102.35 1479.01 Q1104.18 1475.44 1104.18 1468.33 Q1104.18 1461.2 1102.35 1457.66 Q1100.54 1454.1 1096.91 1454.1 M1096.91 1450.39 Q1102.72 1450.39 1105.78 1455 Q1108.85 1459.58 1108.85 1468.33 Q1108.85 1477.06 1105.78 1481.67 Q1102.72 1486.25 1096.91 1486.25 Q1091.1 1486.25 1088.02 1481.67 Q1084.97 1477.06 1084.97 1468.33 Q1084.97 1459.58 1088.02 1455 Q1091.1 1450.39 1096.91 1450.39 Z" fill="#000000" fill-rule="evenodd" fill-opacity="1" /><path clip-path="url(#clip610)" d="M1127.07 1454.1 Q1123.46 1454.1 1121.63 1457.66 Q1119.83 1461.2 1119.83 1468.33 Q1119.83 1475.44 1121.63 1479.01 Q1123.46 1482.55 1127.07 1482.55 Q1130.71 1482.55 1132.51 1479.01 Q1134.34 1475.44 1134.34 1468.33 Q1134.34 1461.2 1132.51 1457.66 Q1130.71 1454.1 1127.07 1454.1 M1127.07 1450.39 Q1132.88 1450.39 1135.94 1455 Q1139.02 1459.58 1139.02 1468.33 Q1139.02 1477.06 1135.94 1481.67 Q1132.88 1486.25 1127.07 1486.25 Q1121.26 1486.25 1118.18 1481.67 Q1115.13 1477.06 1115.13 1468.33 Q1115.13 1459.58 1118.18 1455 Q1121.26 1450.39 1127.07 1450.39 Z" fill="#000000" fill-rule="evenodd" fill-opacity="1" /><path clip-path="url(#clip610)" d="M1455.98 1481.64 L1463.62 1481.64 L1463.62 1455.28 L1455.31 1456.95 L1455.31 1452.69 L1463.58 1451.02 L1468.25 1451.02 L1468.25 1481.64 L1475.89 1481.64 L1475.89 1485.58 L1455.98 1485.58 L1455.98 1481.64 Z" fill="#000000" fill-rule="evenodd" fill-opacity="1" /><path clip-path="url(#clip610)" d="M1485.38 1451.02 L1503.74 1451.02 L1503.74 1454.96 L1489.67 1454.96 L1489.67 1463.43 Q1490.68 1463.08 1491.7 1462.92 Q1492.72 1462.73 1493.74 1462.73 Q1499.53 1462.73 1502.91 1465.9 Q1506.29 1469.08 1506.29 1474.49 Q1506.29 1480.07 1502.81 1483.17 Q1499.34 1486.25 1493.02 1486.25 Q1490.85 1486.25 1488.58 1485.88 Q1486.33 1485.51 1483.92 1484.77 L1483.92 1480.07 Q1486.01 1481.2 1488.23 1481.76 Q1490.45 1482.32 1492.93 1482.32 Q1496.93 1482.32 1499.27 1480.21 Q1501.61 1478.1 1501.61 1474.49 Q1501.61 1470.88 1499.27 1468.77 Q1496.93 1466.67 1492.93 1466.67 Q1491.05 1466.67 1489.18 1467.08 Q1487.33 1467.5 1485.38 1468.38 L1485.38 1451.02 Z" fill="#000000" fill-rule="evenodd" fill-opacity="1" /><path clip-path="url(#clip610)" d="M1525.5 1454.1 Q1521.89 1454.1 1520.06 1457.66 Q1518.25 1461.2 1518.25 1468.33 Q1518.25 1475.44 1520.06 1479.01 Q1521.89 1482.55 1525.5 1482.55 Q1529.13 1482.55 1530.94 1479.01 Q1532.77 1475.44 1532.77 1468.33 Q1532.77 1461.2 1530.94 1457.66 Q1529.13 1454.1 1525.5 1454.1 M1525.5 1450.39 Q1531.31 1450.39 1534.36 1455 Q1537.44 1459.58 1537.44 1468.33 Q1537.44 1477.06 1534.36 1481.67 Q1531.31 1486.25 1525.5 1486.25 Q1519.69 1486.25 1516.61 1481.67 Q1513.55 1477.06 1513.55 1468.33 Q1513.55 1459.58 1516.61 1455 Q1519.69 1450.39 1525.5 1450.39 Z" fill="#000000" fill-rule="evenodd" fill-opacity="1" /><path clip-path="url(#clip610)" d="M1858.5 1481.64 L1874.82 1481.64 L1874.82 1485.58 L1852.87 1485.58 L1852.87 1481.64 Q1855.53 1478.89 1860.12 1474.26 Q1864.72 1469.61 1865.9 1468.27 Q1868.15 1465.74 1869.03 1464.01 Q1869.93 1462.25 1869.93 1460.56 Q1869.93 1457.8 1867.99 1456.07 Q1866.07 1454.33 1862.96 1454.33 Q1860.77 1454.33 1858.31 1455.09 Q1855.88 1455.86 1853.1 1457.41 L1853.1 1452.69 Q1855.93 1451.55 1858.38 1450.97 Q1860.83 1450.39 1862.87 1450.39 Q1868.24 1450.39 1871.44 1453.08 Q1874.63 1455.77 1874.63 1460.26 Q1874.63 1462.39 1873.82 1464.31 Q1873.03 1466.2 1870.93 1468.8 Q1870.35 1469.47 1867.25 1472.69 Q1864.14 1475.88 1858.5 1481.64 Z" fill="#000000" fill-rule="evenodd" fill-opacity="1" /><path clip-path="url(#clip610)" d="M1894.63 1454.1 Q1891.02 1454.1 1889.19 1457.66 Q1887.39 1461.2 1887.39 1468.33 Q1887.39 1475.44 1889.19 1479.01 Q1891.02 1482.55 1894.63 1482.55 Q1898.27 1482.55 1900.07 1479.01 Q1901.9 1475.44 1901.9 1468.33 Q1901.9 1461.2 1900.07 1457.66 Q1898.27 1454.1 1894.63 1454.1 M1894.63 1450.39 Q1900.44 1450.39 1903.5 1455 Q1906.58 1459.58 1906.58 1468.33 Q1906.58 1477.06 1903.5 1481.67 Q1900.44 1486.25 1894.63 1486.25 Q1888.82 1486.25 1885.74 1481.67 Q1882.69 1477.06 1882.69 1468.33 Q1882.69 1459.58 1885.74 1455 Q1888.82 1450.39 1894.63 1450.39 Z" fill="#000000" fill-rule="evenodd" fill-opacity="1" /><path clip-path="url(#clip610)" d="M1924.79 1454.1 Q1921.18 1454.1 1919.35 1457.66 Q1917.55 1461.2 1917.55 1468.33 Q1917.55 1475.44 1919.35 1479.01 Q1921.18 1482.55 1924.79 1482.55 Q1928.43 1482.55 1930.23 1479.01 Q1932.06 1475.44 1932.06 1468.33 Q1932.06 1461.2 1930.23 1457.66 Q1928.43 1454.1 1924.79 1454.1 M1924.79 1450.39 Q1930.6 1450.39 1933.66 1455 Q1936.74 1459.58 1936.74 1468.33 Q1936.74 1477.06 1933.66 1481.67 Q1930.6 1486.25 1924.79 1486.25 Q1918.98 1486.25 1915.9 1481.67 Q1912.85 1477.06 1912.85 1468.33 Q1912.85 1459.58 1915.9 1455 Q1918.98 1450.39 1924.79 1450.39 Z" fill="#000000" fill-rule="evenodd" fill-opacity="1" /><path clip-path="url(#clip610)" d="M2256.92 1481.64 L2273.24 1481.64 L2273.24 1485.58 L2251.3 1485.58 L2251.3 1481.64 Q2253.96 1478.89 2258.54 1474.26 Q2263.15 1469.61 2264.33 1468.27 Q2266.58 1465.74 2267.46 1464.01 Q2268.36 1462.25 2268.36 1460.56 Q2268.36 1457.8 2266.41 1456.07 Q2264.49 1454.33 2261.39 1454.33 Q2259.19 1454.33 2256.74 1455.09 Q2254.31 1455.86 2251.53 1457.41 L2251.53 1452.69 Q2254.35 1451.55 2256.81 1450.97 Q2259.26 1450.39 2261.3 1450.39 Q2266.67 1450.39 2269.86 1453.08 Q2273.06 1455.77 2273.06 1460.26 Q2273.06 1462.39 2272.25 1464.31 Q2271.46 1466.2 2269.35 1468.8 Q2268.78 1469.47 2265.67 1472.69 Q2262.57 1475.88 2256.92 1481.64 Z" fill="#000000" fill-rule="evenodd" fill-opacity="1" /><path clip-path="url(#clip610)" d="M2283.1 1451.02 L2301.46 1451.02 L2301.46 1454.96 L2287.39 1454.96 L2287.39 1463.43 Q2288.4 1463.08 2289.42 1462.92 Q2290.44 1462.73 2291.46 1462.73 Q2297.25 1462.73 2300.63 1465.9 Q2304.01 1469.08 2304.01 1474.49 Q2304.01 1480.07 2300.53 1483.17 Q2297.06 1486.25 2290.74 1486.25 Q2288.57 1486.25 2286.3 1485.88 Q2284.05 1485.51 2281.65 1484.77 L2281.65 1480.07 Q2283.73 1481.2 2285.95 1481.76 Q2288.17 1482.32 2290.65 1482.32 Q2294.65 1482.32 2296.99 1480.21 Q2299.33 1478.1 2299.33 1474.49 Q2299.33 1470.88 2296.99 1468.77 Q2294.65 1466.67 2290.65 1466.67 Q2288.77 1466.67 2286.9 1467.08 Q2285.05 1467.5 2283.1 1468.38 L2283.1 1451.02 Z" fill="#000000" fill-rule="evenodd" fill-opacity="1" /><path clip-path="url(#clip610)" d="M2323.22 1454.1 Q2319.61 1454.1 2317.78 1457.66 Q2315.97 1461.2 2315.97 1468.33 Q2315.97 1475.44 2317.78 1479.01 Q2319.61 1482.55 2323.22 1482.55 Q2326.85 1482.55 2328.66 1479.01 Q2330.49 1475.44 2330.49 1468.33 Q2330.49 1461.2 2328.66 1457.66 Q2326.85 1454.1 2323.22 1454.1 M2323.22 1450.39 Q2329.03 1450.39 2332.08 1455 Q2335.16 1459.58 2335.16 1468.33 Q2335.16 1477.06 2332.08 1481.67 Q2329.03 1486.25 2323.22 1486.25 Q2317.41 1486.25 2314.33 1481.67 Q2311.27 1477.06 2311.27 1468.33 Q2311.27 1459.58 2314.33 1455 Q2317.41 1450.39 2323.22 1450.39 Z" fill="#000000" fill-rule="evenodd" fill-opacity="1" /><path clip-path="url(#clip610)" d="M1168.87 1520.52 L1175.3 1520.52 L1175.3 1568.04 L1168.87 1568.04 L1168.87 1520.52 Z" fill="#000000" fill-rule="evenodd" fill-opacity="1" /><path clip-path="url(#clip610)" d="M1193.63 1522.27 L1193.63 1532.4 L1205.7 1532.4 L1205.7 1536.95 L1193.63 1536.95 L1193.63 1556.3 Q1193.63 1560.66 1194.81 1561.9 Q1196.02 1563.14 1199.68 1563.14 L1205.7 1563.14 L1205.7 1568.04 L1199.68 1568.04 Q1192.9 1568.04 1190.32 1565.53 Q1187.74 1562.98 1187.74 1556.3 L1187.74 1536.95 L1183.45 1536.95 L1183.45 1532.4 L1187.74 1532.4 L1187.74 1522.27 L1193.63 1522.27 Z" fill="#000000" fill-rule="evenodd" fill-opacity="1" /><path clip-path="url(#clip610)" d="M1243.89 1548.76 L1243.89 1551.62 L1216.96 1551.62 Q1217.34 1557.67 1220.59 1560.85 Q1223.87 1564 1229.69 1564 Q1233.07 1564 1236.22 1563.17 Q1239.4 1562.35 1242.52 1560.69 L1242.52 1566.23 Q1239.37 1567.57 1236.06 1568.27 Q1232.75 1568.97 1229.34 1568.97 Q1220.81 1568.97 1215.82 1564 Q1210.85 1559.04 1210.85 1550.57 Q1210.85 1541.82 1215.56 1536.69 Q1220.3 1531.54 1228.33 1531.54 Q1235.52 1531.54 1239.69 1536.18 Q1243.89 1540.8 1243.89 1548.76 M1238.03 1547.04 Q1237.97 1542.23 1235.33 1539.37 Q1232.72 1536.5 1228.39 1536.5 Q1223.49 1536.5 1220.53 1539.27 Q1217.6 1542.04 1217.15 1547.07 L1238.03 1547.04 Z" fill="#000000" fill-rule="evenodd" fill-opacity="1" /><path clip-path="url(#clip610)" d="M1274.16 1537.87 Q1273.17 1537.3 1271.99 1537.04 Q1270.85 1536.76 1269.45 1536.76 Q1264.48 1536.76 1261.81 1540 Q1259.17 1543.22 1259.17 1549.27 L1259.17 1568.04 L1253.28 1568.04 L1253.28 1532.4 L1259.17 1532.4 L1259.17 1537.93 Q1261.01 1534.69 1263.97 1533.13 Q1266.93 1531.54 1271.17 1531.54 Q1271.77 1531.54 1272.5 1531.63 Q1273.24 1531.7 1274.13 1531.85 L1274.16 1537.87 Z" fill="#000000" fill-rule="evenodd" fill-opacity="1" /><path clip-path="url(#clip610)" d="M1296.5 1550.12 Q1289.4 1550.12 1286.67 1551.75 Q1283.93 1553.37 1283.93 1557.29 Q1283.93 1560.4 1285.97 1562.25 Q1288.04 1564.07 1291.57 1564.07 Q1296.44 1564.07 1299.37 1560.63 Q1302.33 1557.16 1302.33 1551.43 L1302.33 1550.12 L1296.5 1550.12 M1308.18 1547.71 L1308.18 1568.04 L1302.33 1568.04 L1302.33 1562.63 Q1300.32 1565.88 1297.33 1567.44 Q1294.34 1568.97 1290.01 1568.97 Q1284.53 1568.97 1281.29 1565.91 Q1278.07 1562.82 1278.07 1557.67 Q1278.07 1551.65 1282.08 1548.6 Q1286.13 1545.54 1294.11 1545.54 L1302.33 1545.54 L1302.33 1544.97 Q1302.33 1540.93 1299.65 1538.73 Q1297.01 1536.5 1292.21 1536.5 Q1289.15 1536.5 1286.25 1537.23 Q1283.36 1537.97 1280.68 1539.43 L1280.68 1534.02 Q1283.9 1532.78 1286.92 1532.17 Q1289.95 1531.54 1292.81 1531.54 Q1300.54 1531.54 1304.36 1535.55 Q1308.18 1539.56 1308.18 1547.71 Z" fill="#000000" fill-rule="evenodd" fill-opacity="1" /><path clip-path="url(#clip610)" d="M1326.04 1522.27 L1326.04 1532.4 L1338.1 1532.4 L1338.1 1536.95 L1326.04 1536.95 L1326.04 1556.3 Q1326.04 1560.66 1327.22 1561.9 Q1328.43 1563.14 1332.09 1563.14 L1338.1 1563.14 L1338.1 1568.04 L1332.09 1568.04 Q1325.31 1568.04 1322.73 1565.53 Q1320.15 1562.98 1320.15 1556.3 L1320.15 1536.95 L1315.85 1536.95 L1315.85 1532.4 L1320.15 1532.4 L1320.15 1522.27 L1326.04 1522.27 Z" fill="#000000" fill-rule="evenodd" fill-opacity="1" /><path clip-path="url(#clip610)" d="M1345.8 1532.4 L1351.66 1532.4 L1351.66 1568.04 L1345.8 1568.04 L1345.8 1532.4 M1345.8 1518.52 L1351.66 1518.52 L1351.66 1525.93 L1345.8 1525.93 L1345.8 1518.52 Z" fill="#000000" fill-rule="evenodd" fill-opacity="1" /><path clip-path="url(#clip610)" d="M1377.73 1536.5 Q1373.02 1536.5 1370.28 1540.19 Q1367.54 1543.85 1367.54 1550.25 Q1367.54 1556.65 1370.25 1560.34 Q1372.99 1564 1377.73 1564 Q1382.41 1564 1385.14 1560.31 Q1387.88 1556.62 1387.88 1550.25 Q1387.88 1543.92 1385.14 1540.23 Q1382.41 1536.5 1377.73 1536.5 M1377.73 1531.54 Q1385.37 1531.54 1389.73 1536.5 Q1394.09 1541.47 1394.09 1550.25 Q1394.09 1559 1389.73 1564 Q1385.37 1568.97 1377.73 1568.97 Q1370.06 1568.97 1365.7 1564 Q1361.37 1559 1361.37 1550.25 Q1361.37 1541.47 1365.7 1536.5 Q1370.06 1531.54 1377.73 1531.54 Z" fill="#000000" fill-rule="evenodd" fill-opacity="1" /><path clip-path="url(#clip610)" d="M1433.43 1546.53 L1433.43 1568.04 L1427.57 1568.04 L1427.57 1546.72 Q1427.57 1541.66 1425.6 1539.14 Q1423.63 1536.63 1419.68 1536.63 Q1414.94 1536.63 1412.2 1539.65 Q1409.46 1542.68 1409.46 1547.9 L1409.46 1568.04 L1403.57 1568.04 L1403.57 1532.4 L1409.46 1532.4 L1409.46 1537.93 Q1411.56 1534.72 1414.39 1533.13 Q1417.26 1531.54 1420.98 1531.54 Q1427.13 1531.54 1430.28 1535.36 Q1433.43 1539.14 1433.43 1546.53 Z" fill="#000000" fill-rule="evenodd" fill-opacity="1" /><polyline clip-path="url(#clip612)" style="stroke:#000000; stroke-linecap:round; stroke-linejoin:round; stroke-width:2; stroke-opacity:0.1; fill:none" points="
  249.542,1409.69 2352.76,1409.69 
  "/>
<polyline clip-path="url(#clip612)" style="stroke:#000000; stroke-linecap:round; stroke-linejoin:round; stroke-width:2; stroke-opacity:0.1; fill:none" points="
  249.542,1072.45 2352.76,1072.45 
  "/>
<polyline clip-path="url(#clip612)" style="stroke:#000000; stroke-linecap:round; stroke-linejoin:round; stroke-width:2; stroke-opacity:0.1; fill:none" points="
  249.542,735.212 2352.76,735.212 
  "/>
<polyline clip-path="url(#clip612)" style="stroke:#000000; stroke-linecap:round; stroke-linejoin:round; stroke-width:2; stroke-opacity:0.1; fill:none" points="
  249.542,397.973 2352.76,397.973 
  "/>
<polyline clip-path="url(#clip612)" style="stroke:#000000; stroke-linecap:round; stroke-linejoin:round; stroke-width:2; stroke-opacity:0.1; fill:none" points="
  249.542,60.7337 2352.76,60.7337 
  "/>
<polyline clip-path="url(#clip610)" style="stroke:#000000; stroke-linecap:round; stroke-linejoin:round; stroke-width:4; stroke-opacity:1; fill:none" points="
  249.542,1423.18 249.542,47.2441 
  "/>
<polyline clip-path="url(#clip610)" style="stroke:#000000; stroke-linecap:round; stroke-linejoin:round; stroke-width:4; stroke-opacity:1; fill:none" points="
  249.542,1409.69 268.44,1409.69 
  "/>
<polyline clip-path="url(#clip610)" style="stroke:#000000; stroke-linecap:round; stroke-linejoin:round; stroke-width:4; stroke-opacity:1; fill:none" points="
  249.542,1072.45 268.44,1072.45 
  "/>
<polyline clip-path="url(#clip610)" style="stroke:#000000; stroke-linecap:round; stroke-linejoin:round; stroke-width:4; stroke-opacity:1; fill:none" points="
  249.542,735.212 268.44,735.212 
  "/>
<polyline clip-path="url(#clip610)" style="stroke:#000000; stroke-linecap:round; stroke-linejoin:round; stroke-width:4; stroke-opacity:1; fill:none" points="
  249.542,397.973 268.44,397.973 
  "/>
<polyline clip-path="url(#clip610)" style="stroke:#000000; stroke-linecap:round; stroke-linejoin:round; stroke-width:4; stroke-opacity:1; fill:none" points="
  249.542,60.7337 268.44,60.7337 
  "/>
<path clip-path="url(#clip610)" d="M126.205 1395.49 Q122.593 1395.49 120.765 1399.05 Q118.959 1402.6 118.959 1409.72 Q118.959 1416.83 120.765 1420.4 Q122.593 1423.94 126.205 1423.94 Q129.839 1423.94 131.644 1420.4 Q133.473 1416.83 133.473 1409.72 Q133.473 1402.6 131.644 1399.05 Q129.839 1395.49 126.205 1395.49 M126.205 1391.79 Q132.015 1391.79 135.07 1396.39 Q138.149 1400.98 138.149 1409.72 Q138.149 1418.45 135.07 1423.06 Q132.015 1427.64 126.205 1427.64 Q120.394 1427.64 117.316 1423.06 Q114.26 1418.45 114.26 1409.72 Q114.26 1400.98 117.316 1396.39 Q120.394 1391.79 126.205 1391.79 Z" fill="#000000" fill-rule="evenodd" fill-opacity="1" /><path clip-path="url(#clip610)" d="M146.366 1421.09 L151.251 1421.09 L151.251 1426.97 L146.366 1426.97 L146.366 1421.09 Z" fill="#000000" fill-rule="evenodd" fill-opacity="1" /><path clip-path="url(#clip610)" d="M171.436 1395.49 Q167.825 1395.49 165.996 1399.05 Q164.19 1402.6 164.19 1409.72 Q164.19 1416.83 165.996 1420.4 Q167.825 1423.94 171.436 1423.94 Q175.07 1423.94 176.876 1420.4 Q178.704 1416.83 178.704 1409.72 Q178.704 1402.6 176.876 1399.05 Q175.07 1395.49 171.436 1395.49 M171.436 1391.79 Q177.246 1391.79 180.301 1396.39 Q183.38 1400.98 183.38 1409.72 Q183.38 1418.45 180.301 1423.06 Q177.246 1427.64 171.436 1427.64 Q165.626 1427.64 162.547 1423.06 Q159.491 1418.45 159.491 1409.72 Q159.491 1400.98 162.547 1396.39 Q165.626 1391.79 171.436 1391.79 Z" fill="#000000" fill-rule="evenodd" fill-opacity="1" /><path clip-path="url(#clip610)" d="M201.598 1395.49 Q197.987 1395.49 196.158 1399.05 Q194.352 1402.6 194.352 1409.72 Q194.352 1416.83 196.158 1420.4 Q197.987 1423.94 201.598 1423.94 Q205.232 1423.94 207.037 1420.4 Q208.866 1416.83 208.866 1409.72 Q208.866 1402.6 207.037 1399.05 Q205.232 1395.49 201.598 1395.49 M201.598 1391.79 Q207.408 1391.79 210.463 1396.39 Q213.542 1400.98 213.542 1409.72 Q213.542 1418.45 210.463 1423.06 Q207.408 1427.64 201.598 1427.64 Q195.787 1427.64 192.709 1423.06 Q189.653 1418.45 189.653 1409.72 Q189.653 1400.98 192.709 1396.39 Q195.787 1391.79 201.598 1391.79 Z" fill="#000000" fill-rule="evenodd" fill-opacity="1" /><path clip-path="url(#clip610)" d="M127.2 1058.25 Q123.589 1058.25 121.76 1061.81 Q119.955 1065.36 119.955 1072.49 Q119.955 1079.59 121.76 1083.16 Q123.589 1086.7 127.2 1086.7 Q130.834 1086.7 132.64 1083.16 Q134.468 1079.59 134.468 1072.49 Q134.468 1065.36 132.64 1061.81 Q130.834 1058.25 127.2 1058.25 M127.2 1054.55 Q133.01 1054.55 136.066 1059.15 Q139.144 1063.74 139.144 1072.49 Q139.144 1081.21 136.066 1085.82 Q133.01 1090.4 127.2 1090.4 Q121.39 1090.4 118.311 1085.82 Q115.256 1081.21 115.256 1072.49 Q115.256 1063.74 118.311 1059.15 Q121.39 1054.55 127.2 1054.55 Z" fill="#000000" fill-rule="evenodd" fill-opacity="1" /><path clip-path="url(#clip610)" d="M147.362 1083.85 L152.246 1083.85 L152.246 1089.73 L147.362 1089.73 L147.362 1083.85 Z" fill="#000000" fill-rule="evenodd" fill-opacity="1" /><path clip-path="url(#clip610)" d="M166.459 1085.8 L182.778 1085.8 L182.778 1089.73 L160.834 1089.73 L160.834 1085.8 Q163.496 1083.04 168.079 1078.41 Q172.686 1073.76 173.866 1072.42 Q176.112 1069.89 176.991 1068.16 Q177.894 1066.4 177.894 1064.71 Q177.894 1061.95 175.95 1060.22 Q174.028 1058.48 170.927 1058.48 Q168.727 1058.48 166.274 1059.25 Q163.843 1060.01 161.065 1061.56 L161.065 1056.84 Q163.89 1055.7 166.343 1055.12 Q168.797 1054.55 170.834 1054.55 Q176.204 1054.55 179.399 1057.23 Q182.593 1059.92 182.593 1064.41 Q182.593 1066.54 181.783 1068.46 Q180.996 1070.36 178.889 1072.95 Q178.311 1073.62 175.209 1076.84 Q172.107 1080.03 166.459 1085.8 Z" fill="#000000" fill-rule="evenodd" fill-opacity="1" /><path clip-path="url(#clip610)" d="M192.639 1055.17 L210.996 1055.17 L210.996 1059.11 L196.922 1059.11 L196.922 1067.58 Q197.94 1067.23 198.959 1067.07 Q199.977 1066.88 200.996 1066.88 Q206.783 1066.88 210.162 1070.06 Q213.542 1073.23 213.542 1078.64 Q213.542 1084.22 210.07 1087.32 Q206.598 1090.4 200.278 1090.4 Q198.102 1090.4 195.834 1090.03 Q193.588 1089.66 191.181 1088.92 L191.181 1084.22 Q193.264 1085.36 195.487 1085.91 Q197.709 1086.47 200.186 1086.47 Q204.19 1086.47 206.528 1084.36 Q208.866 1082.25 208.866 1078.64 Q208.866 1075.03 206.528 1072.93 Q204.19 1070.82 200.186 1070.82 Q198.311 1070.82 196.436 1071.24 Q194.584 1071.65 192.639 1072.53 L192.639 1055.17 Z" fill="#000000" fill-rule="evenodd" fill-opacity="1" /><path clip-path="url(#clip610)" d="M126.205 721.011 Q122.593 721.011 120.765 724.575 Q118.959 728.117 118.959 735.247 Q118.959 742.353 120.765 745.918 Q122.593 749.46 126.205 749.46 Q129.839 749.46 131.644 745.918 Q133.473 742.353 133.473 735.247 Q133.473 728.117 131.644 724.575 Q129.839 721.011 126.205 721.011 M126.205 717.307 Q132.015 717.307 135.07 721.913 Q138.149 726.497 138.149 735.247 Q138.149 743.973 135.07 748.58 Q132.015 753.163 126.205 753.163 Q120.394 753.163 117.316 748.58 Q114.26 743.973 114.26 735.247 Q114.26 726.497 117.316 721.913 Q120.394 717.307 126.205 717.307 Z" fill="#000000" fill-rule="evenodd" fill-opacity="1" /><path clip-path="url(#clip610)" d="M146.366 746.612 L151.251 746.612 L151.251 752.492 L146.366 752.492 L146.366 746.612 Z" fill="#000000" fill-rule="evenodd" fill-opacity="1" /><path clip-path="url(#clip610)" d="M161.482 717.932 L179.839 717.932 L179.839 721.867 L165.765 721.867 L165.765 730.339 Q166.783 729.992 167.802 729.83 Q168.82 729.645 169.839 729.645 Q175.626 729.645 179.005 732.816 Q182.385 735.987 182.385 741.404 Q182.385 746.983 178.913 750.085 Q175.44 753.163 169.121 753.163 Q166.945 753.163 164.677 752.793 Q162.431 752.423 160.024 751.682 L160.024 746.983 Q162.107 748.117 164.329 748.673 Q166.552 749.228 169.028 749.228 Q173.033 749.228 175.371 747.122 Q177.709 745.015 177.709 741.404 Q177.709 737.793 175.371 735.687 Q173.033 733.58 169.028 733.58 Q167.153 733.58 165.278 733.997 Q163.427 734.413 161.482 735.293 L161.482 717.932 Z" fill="#000000" fill-rule="evenodd" fill-opacity="1" /><path clip-path="url(#clip610)" d="M201.598 721.011 Q197.987 721.011 196.158 724.575 Q194.352 728.117 194.352 735.247 Q194.352 742.353 196.158 745.918 Q197.987 749.46 201.598 749.46 Q205.232 749.46 207.037 745.918 Q208.866 742.353 208.866 735.247 Q208.866 728.117 207.037 724.575 Q205.232 721.011 201.598 721.011 M201.598 717.307 Q207.408 717.307 210.463 721.913 Q213.542 726.497 213.542 735.247 Q213.542 743.973 210.463 748.58 Q207.408 753.163 201.598 753.163 Q195.787 753.163 192.709 748.58 Q189.653 743.973 189.653 735.247 Q189.653 726.497 192.709 721.913 Q195.787 717.307 201.598 717.307 Z" fill="#000000" fill-rule="evenodd" fill-opacity="1" /><path clip-path="url(#clip610)" d="M127.2 383.772 Q123.589 383.772 121.76 387.336 Q119.955 390.878 119.955 398.008 Q119.955 405.114 121.76 408.679 Q123.589 412.22 127.2 412.22 Q130.834 412.22 132.64 408.679 Q134.468 405.114 134.468 398.008 Q134.468 390.878 132.64 387.336 Q130.834 383.772 127.2 383.772 M127.2 380.068 Q133.01 380.068 136.066 384.674 Q139.144 389.258 139.144 398.008 Q139.144 406.734 136.066 411.341 Q133.01 415.924 127.2 415.924 Q121.39 415.924 118.311 411.341 Q115.256 406.734 115.256 398.008 Q115.256 389.258 118.311 384.674 Q121.39 380.068 127.2 380.068 Z" fill="#000000" fill-rule="evenodd" fill-opacity="1" /><path clip-path="url(#clip610)" d="M147.362 409.373 L152.246 409.373 L152.246 415.253 L147.362 415.253 L147.362 409.373 Z" fill="#000000" fill-rule="evenodd" fill-opacity="1" /><path clip-path="url(#clip610)" d="M161.251 380.693 L183.473 380.693 L183.473 382.684 L170.927 415.253 L166.042 415.253 L177.848 384.628 L161.251 384.628 L161.251 380.693 Z" fill="#000000" fill-rule="evenodd" fill-opacity="1" /><path clip-path="url(#clip610)" d="M192.639 380.693 L210.996 380.693 L210.996 384.628 L196.922 384.628 L196.922 393.1 Q197.94 392.753 198.959 392.591 Q199.977 392.406 200.996 392.406 Q206.783 392.406 210.162 395.577 Q213.542 398.748 213.542 404.165 Q213.542 409.744 210.07 412.845 Q206.598 415.924 200.278 415.924 Q198.102 415.924 195.834 415.554 Q193.588 415.183 191.181 414.443 L191.181 409.744 Q193.264 410.878 195.487 411.433 Q197.709 411.989 200.186 411.989 Q204.19 411.989 206.528 409.882 Q208.866 407.776 208.866 404.165 Q208.866 400.554 206.528 398.447 Q204.19 396.341 200.186 396.341 Q198.311 396.341 196.436 396.758 Q194.584 397.174 192.639 398.054 L192.639 380.693 Z" fill="#000000" fill-rule="evenodd" fill-opacity="1" /><path clip-path="url(#clip610)" d="M117.015 74.0785 L124.654 74.0785 L124.654 47.7129 L116.343 49.3796 L116.343 45.1203 L124.607 43.4537 L129.283 43.4537 L129.283 74.0785 L136.922 74.0785 L136.922 78.0137 L117.015 78.0137 L117.015 74.0785 Z" fill="#000000" fill-rule="evenodd" fill-opacity="1" /><path clip-path="url(#clip610)" d="M146.366 72.1341 L151.251 72.1341 L151.251 78.0137 L146.366 78.0137 L146.366 72.1341 Z" fill="#000000" fill-rule="evenodd" fill-opacity="1" /><path clip-path="url(#clip610)" d="M171.436 46.5323 Q167.825 46.5323 165.996 50.0971 Q164.19 53.6388 164.19 60.7684 Q164.19 67.8748 165.996 71.4396 Q167.825 74.9813 171.436 74.9813 Q175.07 74.9813 176.876 71.4396 Q178.704 67.8748 178.704 60.7684 Q178.704 53.6388 176.876 50.0971 Q175.07 46.5323 171.436 46.5323 M171.436 42.8287 Q177.246 42.8287 180.301 47.4351 Q183.38 52.0184 183.38 60.7684 Q183.38 69.4952 180.301 74.1016 Q177.246 78.685 171.436 78.685 Q165.626 78.685 162.547 74.1016 Q159.491 69.4952 159.491 60.7684 Q159.491 52.0184 162.547 47.4351 Q165.626 42.8287 171.436 42.8287 Z" fill="#000000" fill-rule="evenodd" fill-opacity="1" /><path clip-path="url(#clip610)" d="M201.598 46.5323 Q197.987 46.5323 196.158 50.0971 Q194.352 53.6388 194.352 60.7684 Q194.352 67.8748 196.158 71.4396 Q197.987 74.9813 201.598 74.9813 Q205.232 74.9813 207.037 71.4396 Q208.866 67.8748 208.866 60.7684 Q208.866 53.6388 207.037 50.0971 Q205.232 46.5323 201.598 46.5323 M201.598 42.8287 Q207.408 42.8287 210.463 47.4351 Q213.542 52.0184 213.542 60.7684 Q213.542 69.4952 210.463 74.1016 Q207.408 78.685 201.598 78.685 Q195.787 78.685 192.709 74.1016 Q189.653 69.4952 189.653 60.7684 Q189.653 52.0184 192.709 47.4351 Q195.787 42.8287 201.598 42.8287 Z" fill="#000000" fill-rule="evenodd" fill-opacity="1" /><path clip-path="url(#clip610)" d="M16.4842 955.927 L16.4842 915.727 L21.895 915.727 L21.895 932.597 L64.0042 932.597 L64.0042 939.058 L21.895 939.058 L21.895 955.927 L16.4842 955.927 Z" fill="#000000" fill-rule="evenodd" fill-opacity="1" /><path clip-path="url(#clip610)" d="M44.7161 890.36 L47.5806 890.36 L47.5806 917.287 Q53.6281 916.905 56.8109 913.659 Q59.9619 910.38 59.9619 904.556 Q59.9619 901.182 59.1344 898.031 Q58.3069 894.848 56.6518 891.729 L62.1899 891.729 Q63.5267 894.88 64.227 898.19 Q64.9272 901.5 64.9272 904.906 Q64.9272 913.436 59.9619 918.433 Q54.9967 923.398 46.5303 923.398 Q37.7774 923.398 32.6531 918.688 Q27.4968 913.945 27.4968 905.924 Q27.4968 898.731 32.1438 894.562 Q36.7589 890.36 44.7161 890.36 M42.9973 896.217 Q38.1912 896.28 35.3266 898.922 Q32.4621 901.532 32.4621 905.861 Q32.4621 910.762 35.2312 913.722 Q38.0002 916.651 43.0292 917.096 L42.9973 896.217 Z" fill="#000000" fill-rule="evenodd" fill-opacity="1" /><path clip-path="url(#clip610)" d="M29.4065 858.022 L34.9447 858.022 Q33.6716 860.505 33.035 863.179 Q32.3984 865.852 32.3984 868.717 Q32.3984 873.077 33.7352 875.273 Q35.072 877.438 37.7456 877.438 Q39.7826 877.438 40.9603 875.878 Q42.1061 874.319 43.1565 869.608 L43.6021 867.603 Q44.9389 861.364 47.3897 858.754 Q49.8086 856.113 54.1691 856.113 Q59.1344 856.113 62.0308 860.059 Q64.9272 863.974 64.9272 870.849 Q64.9272 873.714 64.3543 876.833 Q63.8132 879.92 62.6992 883.358 L56.6518 883.358 Q58.3387 880.111 59.198 876.96 Q60.0256 873.809 60.0256 870.722 Q60.0256 866.584 58.6251 864.356 Q57.1929 862.128 54.6147 862.128 Q52.2276 862.128 50.9545 863.751 Q49.6813 865.343 48.5037 870.786 L48.0262 872.823 Q46.8804 878.265 44.5251 880.684 Q42.138 883.103 38.0002 883.103 Q32.9713 883.103 30.2341 879.538 Q27.4968 875.974 27.4968 869.417 Q27.4968 866.17 27.9743 863.306 Q28.4517 860.441 29.4065 858.022 Z" fill="#000000" fill-rule="evenodd" fill-opacity="1" /><path clip-path="url(#clip610)" d="M18.2347 840.994 L28.3562 840.994 L28.3562 828.931 L32.9077 828.931 L32.9077 840.994 L52.2594 840.994 Q56.6199 840.994 57.8613 839.816 Q59.1026 838.607 59.1026 834.947 L59.1026 828.931 L64.0042 828.931 L64.0042 834.947 Q64.0042 841.726 61.4897 844.304 Q58.9434 846.882 52.2594 846.882 L32.9077 846.882 L32.9077 851.179 L28.3562 851.179 L28.3562 846.882 L18.2347 846.882 L18.2347 840.994 Z" fill="#000000" fill-rule="evenodd" fill-opacity="1" /><path clip-path="url(#clip610)" d="M46.0847 784.307 Q46.0847 791.405 47.7079 794.142 Q49.3312 796.88 53.2461 796.88 Q56.3653 796.88 58.2114 794.843 Q60.0256 792.774 60.0256 789.241 Q60.0256 784.371 56.5881 781.443 Q53.1188 778.483 47.3897 778.483 L46.0847 778.483 L46.0847 784.307 M43.6657 772.626 L64.0042 772.626 L64.0042 778.483 L58.5933 778.483 Q61.8398 780.488 63.3994 783.48 Q64.9272 786.472 64.9272 790.801 Q64.9272 796.275 61.8716 799.522 Q58.7843 802.736 53.6281 802.736 Q47.6125 802.736 44.5569 798.726 Q41.5014 794.684 41.5014 786.695 L41.5014 778.483 L40.9285 778.483 Q36.8862 778.483 34.6901 781.156 Q32.4621 783.798 32.4621 788.604 Q32.4621 791.66 33.1941 794.556 Q33.9262 797.453 35.3903 800.126 L29.9795 800.126 Q28.7381 796.912 28.1334 793.888 Q27.4968 790.864 27.4968 788 Q27.4968 780.265 31.5072 776.446 Q35.5176 772.626 43.6657 772.626 Z" fill="#000000" fill-rule="evenodd" fill-opacity="1" /><path clip-path="url(#clip610)" d="M29.7248 734.91 L35.1993 734.91 Q33.8307 737.392 33.1623 739.907 Q32.4621 742.389 32.4621 744.936 Q32.4621 750.633 36.0905 753.784 Q39.6872 756.935 46.212 756.935 Q52.7369 756.935 56.3653 753.784 Q59.9619 750.633 59.9619 744.936 Q59.9619 742.389 59.2935 739.907 Q58.5933 737.392 57.2247 734.91 L62.6355 734.91 Q63.7814 737.36 64.3543 740.002 Q64.9272 742.612 64.9272 745.572 Q64.9272 753.625 59.8664 758.367 Q54.8057 763.11 46.212 763.11 Q37.491 763.11 32.4939 758.335 Q27.4968 753.529 27.4968 745.19 Q27.4968 742.485 28.0697 739.907 Q28.6108 737.329 29.7248 734.91 Z" fill="#000000" fill-rule="evenodd" fill-opacity="1" /><path clip-path="url(#clip610)" d="M29.7248 699.071 L35.1993 699.071 Q33.8307 701.553 33.1623 704.068 Q32.4621 706.55 32.4621 709.097 Q32.4621 714.794 36.0905 717.945 Q39.6872 721.096 46.212 721.096 Q52.7369 721.096 56.3653 717.945 Q59.9619 714.794 59.9619 709.097 Q59.9619 706.55 59.2935 704.068 Q58.5933 701.553 57.2247 699.071 L62.6355 699.071 Q63.7814 701.521 64.3543 704.163 Q64.9272 706.773 64.9272 709.733 Q64.9272 717.786 59.8664 722.528 Q54.8057 727.271 46.212 727.271 Q37.491 727.271 32.4939 722.496 Q27.4968 717.69 27.4968 709.351 Q27.4968 706.646 28.0697 704.068 Q28.6108 701.49 29.7248 699.071 Z" fill="#000000" fill-rule="evenodd" fill-opacity="1" /><path clip-path="url(#clip610)" d="M49.9359 689.49 L28.3562 689.49 L28.3562 683.634 L49.7131 683.634 Q54.7739 683.634 57.3202 681.66 Q59.8346 679.687 59.8346 675.74 Q59.8346 670.998 56.8109 668.261 Q53.7872 665.492 48.5673 665.492 L28.3562 665.492 L28.3562 659.635 L64.0042 659.635 L64.0042 665.492 L58.5296 665.492 Q61.7762 667.624 63.3676 670.457 Q64.9272 673.258 64.9272 676.982 Q64.9272 683.125 61.1078 686.307 Q57.2883 689.49 49.9359 689.49 M27.4968 674.754 L27.4968 674.754 Z" fill="#000000" fill-rule="evenodd" fill-opacity="1" /><path clip-path="url(#clip610)" d="M33.8307 626.915 Q33.2578 627.902 33.0032 629.08 Q32.7167 630.226 32.7167 631.626 Q32.7167 636.591 35.9632 639.265 Q39.1779 641.907 45.2253 641.907 L64.0042 641.907 L64.0042 647.795 L28.3562 647.795 L28.3562 641.907 L33.8944 641.907 Q30.6479 640.061 29.0883 637.101 Q27.4968 634.14 27.4968 629.907 Q27.4968 629.303 27.5923 628.57 Q27.656 627.838 27.8151 626.947 L33.8307 626.915 Z" fill="#000000" fill-rule="evenodd" fill-opacity="1" /><path clip-path="url(#clip610)" d="M46.0847 604.572 Q46.0847 611.67 47.7079 614.407 Q49.3312 617.144 53.2461 617.144 Q56.3653 617.144 58.2114 615.107 Q60.0256 613.038 60.0256 609.505 Q60.0256 604.635 56.5881 601.707 Q53.1188 598.747 47.3897 598.747 L46.0847 598.747 L46.0847 604.572 M43.6657 592.891 L64.0042 592.891 L64.0042 598.747 L58.5933 598.747 Q61.8398 600.752 63.3994 603.744 Q64.9272 606.736 64.9272 611.065 Q64.9272 616.539 61.8716 619.786 Q58.7843 623 53.6281 623 Q47.6125 623 44.5569 618.99 Q41.5014 614.948 41.5014 606.959 L41.5014 598.747 L40.9285 598.747 Q36.8862 598.747 34.6901 601.421 Q32.4621 604.062 32.4621 608.869 Q32.4621 611.924 33.1941 614.821 Q33.9262 617.717 35.3903 620.391 L29.9795 620.391 Q28.7381 617.176 28.1334 614.152 Q27.4968 611.128 27.4968 608.264 Q27.4968 600.53 31.5072 596.71 Q35.5176 592.891 43.6657 592.891 Z" fill="#000000" fill-rule="evenodd" fill-opacity="1" /><path clip-path="url(#clip610)" d="M29.7248 555.174 L35.1993 555.174 Q33.8307 557.656 33.1623 560.171 Q32.4621 562.654 32.4621 565.2 Q32.4621 570.897 36.0905 574.048 Q39.6872 577.199 46.212 577.199 Q52.7369 577.199 56.3653 574.048 Q59.9619 570.897 59.9619 565.2 Q59.9619 562.654 59.2935 560.171 Q58.5933 557.656 57.2247 555.174 L62.6355 555.174 Q63.7814 557.625 64.3543 560.266 Q64.9272 562.876 64.9272 565.836 Q64.9272 573.889 59.8664 578.631 Q54.8057 583.374 46.212 583.374 Q37.491 583.374 32.4939 578.6 Q27.4968 573.794 27.4968 565.454 Q27.4968 562.749 28.0697 560.171 Q28.6108 557.593 29.7248 555.174 Z" fill="#000000" fill-rule="evenodd" fill-opacity="1" /><path clip-path="url(#clip610)" d="M67.3143 530.157 Q73.68 532.639 75.6216 534.995 Q77.5631 537.35 77.5631 541.297 L77.5631 545.975 L72.6615 545.975 L72.6615 542.538 Q72.6615 540.119 71.5157 538.782 Q70.3699 537.445 66.1048 535.822 L63.4312 534.772 L28.3562 549.19 L28.3562 542.984 L56.238 531.844 L28.3562 520.704 L28.3562 514.497 L67.3143 530.157 Z" fill="#000000" fill-rule="evenodd" fill-opacity="1" /><polyline clip-path="url(#clip612)" style="stroke:#009af9; stroke-linecap:round; stroke-linejoin:round; stroke-width:4; stroke-opacity:1; fill:none" points="
  309.067,735.212 317.035,735.212 325.004,735.212 332.973,735.212 340.941,735.212 348.91,735.212 356.878,690.247 364.847,645.282 372.815,645.282 380.784,645.282 
  388.752,645.282 396.721,645.282 404.689,645.282 412.658,645.282 420.626,645.282 428.595,645.282 436.563,645.282 444.532,600.316 452.5,465.421 460.469,285.56 
  468.438,240.595 476.406,240.595 484.375,240.595 492.343,240.595 500.312,240.595 508.28,240.595 516.249,240.595 524.217,240.595 532.186,240.595 540.154,240.595 
  548.123,240.595 556.091,240.595 564.06,240.595 572.028,195.629 579.997,195.629 587.966,195.629 595.934,195.629 603.903,150.664 611.871,150.664 619.84,150.664 
  627.808,150.664 635.777,150.664 643.745,150.664 651.714,150.664 659.682,150.664 667.651,195.629 675.619,195.629 683.588,240.595 691.556,285.56 699.525,285.56 
  707.493,285.56 715.462,285.56 723.431,285.56 731.399,285.56 739.368,285.56 747.336,285.56 755.305,285.56 763.273,285.56 771.242,285.56 779.21,285.56 
  787.179,285.56 795.147,285.56 803.116,285.56 811.084,285.56 819.053,285.56 827.021,285.56 834.99,285.56 842.958,285.56 850.927,285.56 858.896,285.56 
  866.864,285.56 874.833,285.56 882.801,285.56 890.77,285.56 898.738,285.56 906.707,285.56 914.675,285.56 922.644,285.56 930.612,285.56 938.581,285.56 
  946.549,285.56 954.518,285.56 962.486,285.56 970.455,285.56 978.423,285.56 986.392,285.56 994.361,285.56 1002.33,285.56 1010.3,285.56 1018.27,285.56 
  1026.23,285.56 1034.2,285.56 1042.17,285.56 1050.14,285.56 1058.11,285.56 1066.08,285.56 1074.05,285.56 1082.01,285.56 1089.98,285.56 1097.95,285.56 
  1105.92,285.56 1113.89,285.56 1121.86,285.56 1129.83,285.56 1137.79,285.56 1145.76,285.56 1153.73,285.56 1161.7,240.595 1169.67,240.595 1177.64,240.595 
  1185.61,240.595 1193.57,195.629 1201.54,195.629 1209.51,195.629 1217.48,195.629 1225.45,195.629 1233.42,195.629 1241.38,195.629 1249.35,195.629 1257.32,195.629 
  1265.29,195.629 1273.26,195.629 1281.23,195.629 1289.2,195.629 1297.16,195.629 1305.13,195.629 1313.1,195.629 1321.07,195.629 1329.04,195.629 1337.01,195.629 
  1344.98,195.629 1352.94,195.629 1360.91,195.629 1368.88,195.629 1376.85,195.629 1384.82,195.629 1392.79,195.629 1400.76,195.629 1408.72,195.629 1416.69,195.629 
  1424.66,195.629 1432.63,195.629 1440.6,195.629 1448.57,195.629 1456.54,195.629 1464.5,195.629 1472.47,195.629 1480.44,195.629 1488.41,195.629 1496.38,195.629 
  1504.35,195.629 1512.32,195.629 1520.28,195.629 1528.25,195.629 1536.22,195.629 1544.19,195.629 1552.16,195.629 1560.13,195.629 1568.09,195.629 1576.06,195.629 
  1584.03,195.629 1592,195.629 1599.97,195.629 1607.94,195.629 1615.91,195.629 1623.87,195.629 1631.84,195.629 1639.81,195.629 1647.78,195.629 1655.75,195.629 
  1663.72,195.629 1671.69,195.629 1679.65,195.629 1687.62,195.629 1695.59,195.629 1703.56,195.629 1711.53,195.629 1719.5,195.629 1727.47,195.629 1735.43,195.629 
  1743.4,195.629 1751.37,195.629 1759.34,195.629 1767.31,195.629 1775.28,195.629 1783.25,195.629 1791.21,195.629 1799.18,195.629 1807.15,195.629 1815.12,195.629 
  1823.09,195.629 1831.06,195.629 1839.02,195.629 1846.99,195.629 1854.96,195.629 1862.93,195.629 1870.9,195.629 1878.87,195.629 1886.84,195.629 1894.8,195.629 
  1902.77,195.629 1910.74,195.629 1918.71,195.629 1926.68,195.629 1934.65,195.629 1942.62,195.629 1950.58,195.629 1958.55,195.629 1966.52,195.629 1974.49,195.629 
  1982.46,195.629 1990.43,195.629 1998.4,195.629 2006.36,195.629 2014.33,195.629 2022.3,195.629 2030.27,195.629 2038.24,195.629 2046.21,195.629 2054.18,195.629 
  2062.14,195.629 2070.11,195.629 2078.08,195.629 2086.05,195.629 2094.02,195.629 2101.99,195.629 2109.95,195.629 2117.92,195.629 2125.89,195.629 2133.86,195.629 
  2141.83,195.629 2149.8,195.629 2157.77,195.629 2165.73,195.629 2173.7,195.629 2181.67,195.629 2189.64,195.629 2197.61,195.629 2205.58,195.629 2213.55,195.629 
  2221.51,195.629 2229.48,195.629 2237.45,195.629 2245.42,195.629 2253.39,195.629 2261.36,195.629 2269.33,195.629 2277.29,195.629 2285.26,195.629 2293.23,150.664 
  
  "/>
</svg>
