<?xml version="1.0" encoding="utf-8"?>
<svg xmlns="http://www.w3.org/2000/svg" xmlns:xlink="http://www.w3.org/1999/xlink" width="600" height="400" viewBox="0 0 2400 1600">
<defs>
  <clipPath id="clip380">
    <rect x="0" y="0" width="2400" height="1600"/>
  </clipPath>
</defs>
<path clip-path="url(#clip380)" d="M0 1600 L2400 1600 L2400 0 L0 0  Z" fill="#ffffff" fill-rule="evenodd" fill-opacity="1"/>
<defs>
  <clipPath id="clip381">
    <rect x="480" y="0" width="1681" height="1600"/>
  </clipPath>
</defs>
<path clip-path="url(#clip380)" d="M156.112 1486.45 L2352.76 1486.45 L2352.76 47.2441 L156.112 47.2441  Z" fill="#ffffff" fill-rule="evenodd" fill-opacity="1"/>
<defs>
  <clipPath id="clip382">
    <rect x="156" y="47" width="2198" height="1440"/>
  </clipPath>
</defs>
<polyline clip-path="url(#clip382)" style="stroke:#000000; stroke-linecap:round; stroke-linejoin:round; stroke-width:2; stroke-opacity:0.1; fill:none" points="218.281,1486.45 218.281,47.2441 "/>
<polyline clip-path="url(#clip382)" style="stroke:#000000; stroke-linecap:round; stroke-linejoin:round; stroke-width:2; stroke-opacity:0.1; fill:none" points="736.358,1486.45 736.358,47.2441 "/>
<polyline clip-path="url(#clip382)" style="stroke:#000000; stroke-linecap:round; stroke-linejoin:round; stroke-width:2; stroke-opacity:0.1; fill:none" points="1254.43,1486.45 1254.43,47.2441 "/>
<polyline clip-path="url(#clip382)" style="stroke:#000000; stroke-linecap:round; stroke-linejoin:round; stroke-width:2; stroke-opacity:0.1; fill:none" points="1772.51,1486.45 1772.51,47.2441 "/>
<polyline clip-path="url(#clip382)" style="stroke:#000000; stroke-linecap:round; stroke-linejoin:round; stroke-width:2; stroke-opacity:0.1; fill:none" points="2290.59,1486.45 2290.59,47.2441 "/>
<polyline clip-path="url(#clip380)" style="stroke:#000000; stroke-linecap:round; stroke-linejoin:round; stroke-width:4; stroke-opacity:1; fill:none" points="156.112,1486.45 2352.76,1486.45 "/>
<polyline clip-path="url(#clip380)" style="stroke:#000000; stroke-linecap:round; stroke-linejoin:round; stroke-width:4; stroke-opacity:1; fill:none" points="218.281,1486.45 218.281,1467.55 "/>
<polyline clip-path="url(#clip380)" style="stroke:#000000; stroke-linecap:round; stroke-linejoin:round; stroke-width:4; stroke-opacity:1; fill:none" points="736.358,1486.45 736.358,1467.55 "/>
<polyline clip-path="url(#clip380)" style="stroke:#000000; stroke-linecap:round; stroke-linejoin:round; stroke-width:4; stroke-opacity:1; fill:none" points="1254.43,1486.45 1254.43,1467.55 "/>
<polyline clip-path="url(#clip380)" style="stroke:#000000; stroke-linecap:round; stroke-linejoin:round; stroke-width:4; stroke-opacity:1; fill:none" points="1772.51,1486.45 1772.51,1467.55 "/>
<polyline clip-path="url(#clip380)" style="stroke:#000000; stroke-linecap:round; stroke-linejoin:round; stroke-width:4; stroke-opacity:1; fill:none" points="2290.59,1486.45 2290.59,1467.55 "/>
<path clip-path="url(#clip380)" d="M164.809 1532.02 L194.485 1532.02 L194.485 1535.95 L164.809 1535.95 L164.809 1532.02 Z" fill="#000000" fill-rule="nonzero" fill-opacity="1" /><path clip-path="url(#clip380)" d="M205.388 1544.91 L213.027 1544.91 L213.027 1518.55 L204.717 1520.21 L204.717 1515.95 L212.98 1514.29 L217.656 1514.29 L217.656 1544.91 L225.295 1544.91 L225.295 1548.85 L205.388 1548.85 L205.388 1544.91 Z" fill="#000000" fill-rule="nonzero" fill-opacity="1" /><path clip-path="url(#clip380)" d="M234.74 1542.97 L239.624 1542.97 L239.624 1548.85 L234.74 1548.85 L234.74 1542.97 Z" fill="#000000" fill-rule="nonzero" fill-opacity="1" /><path clip-path="url(#clip380)" d="M259.809 1517.37 Q256.198 1517.37 254.369 1520.93 Q252.564 1524.47 252.564 1531.6 Q252.564 1538.71 254.369 1542.27 Q256.198 1545.82 259.809 1545.82 Q263.443 1545.82 265.249 1542.27 Q267.077 1538.71 267.077 1531.6 Q267.077 1524.47 265.249 1520.93 Q263.443 1517.37 259.809 1517.37 M259.809 1513.66 Q265.619 1513.66 268.675 1518.27 Q271.753 1522.85 271.753 1531.6 Q271.753 1540.33 268.675 1544.94 Q265.619 1549.52 259.809 1549.52 Q253.999 1549.52 250.92 1544.94 Q247.864 1540.33 247.864 1531.6 Q247.864 1522.85 250.92 1518.27 Q253.999 1513.66 259.809 1513.66 Z" fill="#000000" fill-rule="nonzero" fill-opacity="1" /><path clip-path="url(#clip380)" d="M683.383 1532.02 L713.059 1532.02 L713.059 1535.95 L683.383 1535.95 L683.383 1532.02 Z" fill="#000000" fill-rule="nonzero" fill-opacity="1" /><path clip-path="url(#clip380)" d="M733.152 1517.37 Q729.541 1517.37 727.712 1520.93 Q725.906 1524.47 725.906 1531.6 Q725.906 1538.71 727.712 1542.27 Q729.541 1545.82 733.152 1545.82 Q736.786 1545.82 738.591 1542.27 Q740.42 1538.71 740.42 1531.6 Q740.42 1524.47 738.591 1520.93 Q736.786 1517.37 733.152 1517.37 M733.152 1513.66 Q738.962 1513.66 742.017 1518.27 Q745.096 1522.85 745.096 1531.6 Q745.096 1540.33 742.017 1544.94 Q738.962 1549.52 733.152 1549.52 Q727.341 1549.52 724.263 1544.94 Q721.207 1540.33 721.207 1531.6 Q721.207 1522.85 724.263 1518.27 Q727.341 1513.66 733.152 1513.66 Z" fill="#000000" fill-rule="nonzero" fill-opacity="1" /><path clip-path="url(#clip380)" d="M753.314 1542.97 L758.198 1542.97 L758.198 1548.85 L753.314 1548.85 L753.314 1542.97 Z" fill="#000000" fill-rule="nonzero" fill-opacity="1" /><path clip-path="url(#clip380)" d="M768.429 1514.29 L786.786 1514.29 L786.786 1518.22 L772.712 1518.22 L772.712 1526.7 Q773.73 1526.35 774.749 1526.19 Q775.767 1526 776.786 1526 Q782.573 1526 785.952 1529.17 Q789.332 1532.34 789.332 1537.76 Q789.332 1543.34 785.86 1546.44 Q782.387 1549.52 776.068 1549.52 Q773.892 1549.52 771.624 1549.15 Q769.378 1548.78 766.971 1548.04 L766.971 1543.34 Q769.054 1544.47 771.276 1545.03 Q773.499 1545.58 775.975 1545.58 Q779.98 1545.58 782.318 1543.48 Q784.656 1541.37 784.656 1537.76 Q784.656 1534.15 782.318 1532.04 Q779.98 1529.94 775.975 1529.94 Q774.101 1529.94 772.226 1530.35 Q770.374 1530.77 768.429 1531.65 L768.429 1514.29 Z" fill="#000000" fill-rule="nonzero" fill-opacity="1" /><path clip-path="url(#clip380)" d="M1231.82 1517.37 Q1228.21 1517.37 1226.38 1520.93 Q1224.57 1524.47 1224.57 1531.6 Q1224.57 1538.71 1226.38 1542.27 Q1228.21 1545.82 1231.82 1545.82 Q1235.45 1545.82 1237.26 1542.27 Q1239.09 1538.71 1239.09 1531.6 Q1239.09 1524.47 1237.26 1520.93 Q1235.45 1517.37 1231.82 1517.37 M1231.82 1513.66 Q1237.63 1513.66 1240.68 1518.27 Q1243.76 1522.85 1243.76 1531.6 Q1243.76 1540.33 1240.68 1544.94 Q1237.63 1549.52 1231.82 1549.52 Q1226.01 1549.52 1222.93 1544.94 Q1219.87 1540.33 1219.87 1531.6 Q1219.87 1522.85 1222.93 1518.27 Q1226.01 1513.66 1231.82 1513.66 Z" fill="#000000" fill-rule="nonzero" fill-opacity="1" /><path clip-path="url(#clip380)" d="M1251.98 1542.97 L1256.86 1542.97 L1256.86 1548.85 L1251.98 1548.85 L1251.98 1542.97 Z" fill="#000000" fill-rule="nonzero" fill-opacity="1" /><path clip-path="url(#clip380)" d="M1277.05 1517.37 Q1273.44 1517.37 1271.61 1520.93 Q1269.8 1524.47 1269.8 1531.6 Q1269.8 1538.71 1271.61 1542.27 Q1273.44 1545.82 1277.05 1545.82 Q1280.68 1545.82 1282.49 1542.27 Q1284.32 1538.71 1284.32 1531.6 Q1284.32 1524.47 1282.49 1520.93 Q1280.68 1517.37 1277.05 1517.37 M1277.05 1513.66 Q1282.86 1513.66 1285.92 1518.27 Q1288.99 1522.85 1288.99 1531.6 Q1288.99 1540.33 1285.92 1544.94 Q1282.86 1549.52 1277.05 1549.52 Q1271.24 1549.52 1268.16 1544.94 Q1265.11 1540.33 1265.11 1531.6 Q1265.11 1522.85 1268.16 1518.27 Q1271.24 1513.66 1277.05 1513.66 Z" fill="#000000" fill-rule="nonzero" fill-opacity="1" /><path clip-path="url(#clip380)" d="M1750.39 1517.37 Q1746.78 1517.37 1744.95 1520.93 Q1743.15 1524.47 1743.15 1531.6 Q1743.15 1538.71 1744.95 1542.27 Q1746.78 1545.82 1750.39 1545.82 Q1754.03 1545.82 1755.83 1542.27 Q1757.66 1538.71 1757.66 1531.6 Q1757.66 1524.47 1755.83 1520.93 Q1754.03 1517.37 1750.39 1517.37 M1750.39 1513.66 Q1756.2 1513.66 1759.26 1518.27 Q1762.34 1522.85 1762.34 1531.6 Q1762.34 1540.33 1759.26 1544.94 Q1756.2 1549.52 1750.39 1549.52 Q1744.58 1549.52 1741.5 1544.94 Q1738.45 1540.33 1738.45 1531.6 Q1738.45 1522.85 1741.5 1518.27 Q1744.58 1513.66 1750.39 1513.66 Z" fill="#000000" fill-rule="nonzero" fill-opacity="1" /><path clip-path="url(#clip380)" d="M1770.55 1542.97 L1775.44 1542.97 L1775.44 1548.85 L1770.55 1548.85 L1770.55 1542.97 Z" fill="#000000" fill-rule="nonzero" fill-opacity="1" /><path clip-path="url(#clip380)" d="M1785.67 1514.29 L1804.03 1514.29 L1804.03 1518.22 L1789.95 1518.22 L1789.95 1526.7 Q1790.97 1526.35 1791.99 1526.19 Q1793.01 1526 1794.03 1526 Q1799.81 1526 1803.19 1529.17 Q1806.57 1532.34 1806.57 1537.76 Q1806.57 1543.34 1803.1 1546.44 Q1799.63 1549.52 1793.31 1549.52 Q1791.13 1549.52 1788.86 1549.15 Q1786.62 1548.78 1784.21 1548.04 L1784.21 1543.34 Q1786.3 1544.47 1788.52 1545.03 Q1790.74 1545.58 1793.22 1545.58 Q1797.22 1545.58 1799.56 1543.48 Q1801.9 1541.37 1801.9 1537.76 Q1801.9 1534.15 1799.56 1532.04 Q1797.22 1529.94 1793.22 1529.94 Q1791.34 1529.94 1789.47 1530.35 Q1787.61 1530.77 1785.67 1531.65 L1785.67 1514.29 Z" fill="#000000" fill-rule="nonzero" fill-opacity="1" /><path clip-path="url(#clip380)" d="M2257.74 1544.91 L2265.38 1544.91 L2265.38 1518.55 L2257.07 1520.21 L2257.07 1515.95 L2265.33 1514.29 L2270.01 1514.29 L2270.01 1544.91 L2277.65 1544.91 L2277.65 1548.85 L2257.74 1548.85 L2257.74 1544.91 Z" fill="#000000" fill-rule="nonzero" fill-opacity="1" /><path clip-path="url(#clip380)" d="M2287.09 1542.97 L2291.98 1542.97 L2291.98 1548.85 L2287.09 1548.85 L2287.09 1542.97 Z" fill="#000000" fill-rule="nonzero" fill-opacity="1" /><path clip-path="url(#clip380)" d="M2312.16 1517.37 Q2308.55 1517.37 2306.72 1520.93 Q2304.92 1524.47 2304.92 1531.6 Q2304.92 1538.71 2306.72 1542.27 Q2308.55 1545.82 2312.16 1545.82 Q2315.79 1545.82 2317.6 1542.27 Q2319.43 1538.71 2319.43 1531.6 Q2319.43 1524.47 2317.6 1520.93 Q2315.79 1517.37 2312.16 1517.37 M2312.16 1513.66 Q2317.97 1513.66 2321.03 1518.27 Q2324.11 1522.85 2324.11 1531.6 Q2324.11 1540.33 2321.03 1544.94 Q2317.97 1549.52 2312.16 1549.52 Q2306.35 1549.52 2303.27 1544.94 Q2300.22 1540.33 2300.22 1531.6 Q2300.22 1522.85 2303.27 1518.27 Q2306.35 1513.66 2312.16 1513.66 Z" fill="#000000" fill-rule="nonzero" fill-opacity="1" /><polyline clip-path="url(#clip382)" style="stroke:#000000; stroke-linecap:round; stroke-linejoin:round; stroke-width:2; stroke-opacity:0.1; fill:none" points="156.112,1445.72 2352.76,1445.72 "/>
<polyline clip-path="url(#clip382)" style="stroke:#000000; stroke-linecap:round; stroke-linejoin:round; stroke-width:2; stroke-opacity:0.1; fill:none" points="156.112,1144 2352.76,1144 "/>
<polyline clip-path="url(#clip382)" style="stroke:#000000; stroke-linecap:round; stroke-linejoin:round; stroke-width:2; stroke-opacity:0.1; fill:none" points="156.112,842.276 2352.76,842.276 "/>
<polyline clip-path="url(#clip382)" style="stroke:#000000; stroke-linecap:round; stroke-linejoin:round; stroke-width:2; stroke-opacity:0.1; fill:none" points="156.112,540.556 2352.76,540.556 "/>
<polyline clip-path="url(#clip382)" style="stroke:#000000; stroke-linecap:round; stroke-linejoin:round; stroke-width:2; stroke-opacity:0.1; fill:none" points="156.112,238.836 2352.76,238.836 "/>
<polyline clip-path="url(#clip380)" style="stroke:#000000; stroke-linecap:round; stroke-linejoin:round; stroke-width:4; stroke-opacity:1; fill:none" points="156.112,1486.45 156.112,47.2441 "/>
<polyline clip-path="url(#clip380)" style="stroke:#000000; stroke-linecap:round; stroke-linejoin:round; stroke-width:4; stroke-opacity:1; fill:none" points="156.112,1445.72 175.01,1445.72 "/>
<polyline clip-path="url(#clip380)" style="stroke:#000000; stroke-linecap:round; stroke-linejoin:round; stroke-width:4; stroke-opacity:1; fill:none" points="156.112,1144 175.01,1144 "/>
<polyline clip-path="url(#clip380)" style="stroke:#000000; stroke-linecap:round; stroke-linejoin:round; stroke-width:4; stroke-opacity:1; fill:none" points="156.112,842.276 175.01,842.276 "/>
<polyline clip-path="url(#clip380)" style="stroke:#000000; stroke-linecap:round; stroke-linejoin:round; stroke-width:4; stroke-opacity:1; fill:none" points="156.112,540.556 175.01,540.556 "/>
<polyline clip-path="url(#clip380)" style="stroke:#000000; stroke-linecap:round; stroke-linejoin:round; stroke-width:4; stroke-opacity:1; fill:none" points="156.112,238.836 175.01,238.836 "/>
<path clip-path="url(#clip380)" d="M62.9365 1431.51 Q59.3254 1431.51 57.4967 1435.08 Q55.6912 1438.62 55.6912 1445.75 Q55.6912 1452.86 57.4967 1456.42 Q59.3254 1459.96 62.9365 1459.96 Q66.5707 1459.96 68.3763 1456.42 Q70.205 1452.86 70.205 1445.75 Q70.205 1438.62 68.3763 1435.08 Q66.5707 1431.51 62.9365 1431.51 M62.9365 1427.81 Q68.7467 1427.81 71.8022 1432.42 Q74.8809 1437 74.8809 1445.75 Q74.8809 1454.48 71.8022 1459.08 Q68.7467 1463.67 62.9365 1463.67 Q57.1264 1463.67 54.0477 1459.08 Q50.9921 1454.48 50.9921 1445.75 Q50.9921 1437 54.0477 1432.42 Q57.1264 1427.81 62.9365 1427.81 Z" fill="#000000" fill-rule="nonzero" fill-opacity="1" /><path clip-path="url(#clip380)" d="M83.0984 1457.12 L87.9827 1457.12 L87.9827 1463 L83.0984 1463 L83.0984 1457.12 Z" fill="#000000" fill-rule="nonzero" fill-opacity="1" /><path clip-path="url(#clip380)" d="M108.168 1431.51 Q104.557 1431.51 102.728 1435.08 Q100.922 1438.62 100.922 1445.75 Q100.922 1452.86 102.728 1456.42 Q104.557 1459.96 108.168 1459.96 Q111.802 1459.96 113.608 1456.42 Q115.436 1452.86 115.436 1445.75 Q115.436 1438.62 113.608 1435.08 Q111.802 1431.51 108.168 1431.51 M108.168 1427.81 Q113.978 1427.81 117.033 1432.42 Q120.112 1437 120.112 1445.75 Q120.112 1454.48 117.033 1459.08 Q113.978 1463.67 108.168 1463.67 Q102.358 1463.67 99.2789 1459.08 Q96.2234 1454.48 96.2234 1445.75 Q96.2234 1437 99.2789 1432.42 Q102.358 1427.81 108.168 1427.81 Z" fill="#000000" fill-rule="nonzero" fill-opacity="1" /><path clip-path="url(#clip380)" d="M63.9319 1129.79 Q60.3208 1129.79 58.4921 1133.36 Q56.6865 1136.9 56.6865 1144.03 Q56.6865 1151.14 58.4921 1154.7 Q60.3208 1158.24 63.9319 1158.24 Q67.5661 1158.24 69.3717 1154.7 Q71.2004 1151.14 71.2004 1144.03 Q71.2004 1136.9 69.3717 1133.36 Q67.5661 1129.79 63.9319 1129.79 M63.9319 1126.09 Q69.742 1126.09 72.7976 1130.7 Q75.8763 1135.28 75.8763 1144.03 Q75.8763 1152.76 72.7976 1157.36 Q69.742 1161.95 63.9319 1161.95 Q58.1217 1161.95 55.043 1157.36 Q51.9875 1152.76 51.9875 1144.03 Q51.9875 1135.28 55.043 1130.7 Q58.1217 1126.09 63.9319 1126.09 Z" fill="#000000" fill-rule="nonzero" fill-opacity="1" /><path clip-path="url(#clip380)" d="M84.0938 1155.4 L88.978 1155.4 L88.978 1161.28 L84.0938 1161.28 L84.0938 1155.4 Z" fill="#000000" fill-rule="nonzero" fill-opacity="1" /><path clip-path="url(#clip380)" d="M99.2095 1126.72 L117.566 1126.72 L117.566 1130.65 L103.492 1130.65 L103.492 1139.12 Q104.51 1138.78 105.529 1138.61 Q106.547 1138.43 107.566 1138.43 Q113.353 1138.43 116.733 1141.6 Q120.112 1144.77 120.112 1150.19 Q120.112 1155.77 116.64 1158.87 Q113.168 1161.95 106.848 1161.95 Q104.672 1161.95 102.404 1161.58 Q100.159 1161.21 97.7511 1160.47 L97.7511 1155.77 Q99.8345 1156.9 102.057 1157.46 Q104.279 1158.01 106.756 1158.01 Q110.76 1158.01 113.098 1155.91 Q115.436 1153.8 115.436 1150.19 Q115.436 1146.58 113.098 1144.47 Q110.76 1142.36 106.756 1142.36 Q104.881 1142.36 103.006 1142.78 Q101.154 1143.2 99.2095 1144.08 L99.2095 1126.72 Z" fill="#000000" fill-rule="nonzero" fill-opacity="1" /><path clip-path="url(#clip380)" d="M53.7467 855.621 L61.3856 855.621 L61.3856 829.255 L53.0754 830.922 L53.0754 826.663 L61.3393 824.996 L66.0152 824.996 L66.0152 855.621 L73.654 855.621 L73.654 859.556 L53.7467 859.556 L53.7467 855.621 Z" fill="#000000" fill-rule="nonzero" fill-opacity="1" /><path clip-path="url(#clip380)" d="M83.0984 853.676 L87.9827 853.676 L87.9827 859.556 L83.0984 859.556 L83.0984 853.676 Z" fill="#000000" fill-rule="nonzero" fill-opacity="1" /><path clip-path="url(#clip380)" d="M108.168 828.075 Q104.557 828.075 102.728 831.639 Q100.922 835.181 100.922 842.311 Q100.922 849.417 102.728 852.982 Q104.557 856.524 108.168 856.524 Q111.802 856.524 113.608 852.982 Q115.436 849.417 115.436 842.311 Q115.436 835.181 113.608 831.639 Q111.802 828.075 108.168 828.075 M108.168 824.371 Q113.978 824.371 117.033 828.977 Q120.112 833.561 120.112 842.311 Q120.112 851.037 117.033 855.644 Q113.978 860.227 108.168 860.227 Q102.358 860.227 99.2789 855.644 Q96.2234 851.037 96.2234 842.311 Q96.2234 833.561 99.2789 828.977 Q102.358 824.371 108.168 824.371 Z" fill="#000000" fill-rule="nonzero" fill-opacity="1" /><path clip-path="url(#clip380)" d="M54.7421 553.901 L62.381 553.901 L62.381 527.535 L54.0708 529.202 L54.0708 524.943 L62.3347 523.276 L67.0106 523.276 L67.0106 553.901 L74.6494 553.901 L74.6494 557.836 L54.7421 557.836 L54.7421 553.901 Z" fill="#000000" fill-rule="nonzero" fill-opacity="1" /><path clip-path="url(#clip380)" d="M84.0938 551.956 L88.978 551.956 L88.978 557.836 L84.0938 557.836 L84.0938 551.956 Z" fill="#000000" fill-rule="nonzero" fill-opacity="1" /><path clip-path="url(#clip380)" d="M99.2095 523.276 L117.566 523.276 L117.566 527.211 L103.492 527.211 L103.492 535.683 Q104.51 535.336 105.529 535.174 Q106.547 534.989 107.566 534.989 Q113.353 534.989 116.733 538.16 Q120.112 541.332 120.112 546.748 Q120.112 552.327 116.64 555.429 Q113.168 558.507 106.848 558.507 Q104.672 558.507 102.404 558.137 Q100.159 557.767 97.7511 557.026 L97.7511 552.327 Q99.8345 553.461 102.057 554.017 Q104.279 554.572 106.756 554.572 Q110.76 554.572 113.098 552.466 Q115.436 550.359 115.436 546.748 Q115.436 543.137 113.098 541.031 Q110.76 538.924 106.756 538.924 Q104.881 538.924 103.006 539.341 Q101.154 539.757 99.2095 540.637 L99.2095 523.276 Z" fill="#000000" fill-rule="nonzero" fill-opacity="1" /><path clip-path="url(#clip380)" d="M56.9643 252.181 L73.2837 252.181 L73.2837 256.116 L51.3393 256.116 L51.3393 252.181 Q54.0014 249.426 58.5847 244.797 Q63.1911 240.144 64.3717 238.801 Q66.617 236.278 67.4967 234.542 Q68.3994 232.783 68.3994 231.093 Q68.3994 228.339 66.455 226.602 Q64.5337 224.866 61.4319 224.866 Q59.2328 224.866 56.7791 225.63 Q54.3486 226.394 51.5708 227.945 L51.5708 223.223 Q54.3949 222.089 56.8486 221.51 Q59.3023 220.931 61.3393 220.931 Q66.7096 220.931 69.9041 223.616 Q73.0985 226.302 73.0985 230.792 Q73.0985 232.922 72.2883 234.843 Q71.5013 236.741 69.3948 239.334 Q68.8161 240.005 65.7143 243.223 Q62.6124 246.417 56.9643 252.181 Z" fill="#000000" fill-rule="nonzero" fill-opacity="1" /><path clip-path="url(#clip380)" d="M83.0984 250.237 L87.9827 250.237 L87.9827 256.116 L83.0984 256.116 L83.0984 250.237 Z" fill="#000000" fill-rule="nonzero" fill-opacity="1" /><path clip-path="url(#clip380)" d="M108.168 224.635 Q104.557 224.635 102.728 228.2 Q100.922 231.741 100.922 238.871 Q100.922 245.977 102.728 249.542 Q104.557 253.084 108.168 253.084 Q111.802 253.084 113.608 249.542 Q115.436 245.977 115.436 238.871 Q115.436 231.741 113.608 228.2 Q111.802 224.635 108.168 224.635 M108.168 220.931 Q113.978 220.931 117.033 225.538 Q120.112 230.121 120.112 238.871 Q120.112 247.598 117.033 252.204 Q113.978 256.788 108.168 256.788 Q102.358 256.788 99.2789 252.204 Q96.2234 247.598 96.2234 238.871 Q96.2234 230.121 99.2789 225.538 Q102.358 220.931 108.168 220.931 Z" fill="#000000" fill-rule="nonzero" fill-opacity="1" /><polyline clip-path="url(#clip382)" style="stroke:#009af9; stroke-linecap:round; stroke-linejoin:round; stroke-width:4; stroke-opacity:1; fill:none" points="218.281,1294.86 228.643,1300.83 239.004,1306.68 249.366,1312.42 259.727,1318.03 270.089,1323.52 280.45,1328.89 290.812,1334.14 301.174,1339.27 311.535,1344.28 321.897,1349.17 332.258,1353.93 342.62,1358.58 352.981,1363.1 363.343,1367.51 373.704,1371.79 384.066,1375.96 394.427,1380 404.789,1383.92 415.15,1387.73 425.512,1391.41 435.873,1394.97 446.235,1398.41 456.596,1401.72 466.958,1404.92 477.319,1408 487.681,1410.96 498.043,1413.79 508.404,1416.51 518.766,1419.1 529.127,1421.58 539.489,1423.93 549.85,1426.16 560.212,1428.28 570.573,1430.27 580.935,1432.14 591.296,1433.89 601.658,1435.52 612.019,1437.03 622.381,1438.41 632.742,1439.68 643.104,1440.83 653.465,1441.85 663.827,1442.76 674.188,1443.54 684.55,1444.21 694.912,1444.75 705.273,1445.17 715.635,1445.47 725.996,1445.66 736.358,1445.72 746.719,1445.66 757.081,1445.47 767.442,1445.17 777.804,1444.75 788.165,1444.21 798.527,1443.54 808.888,1442.76 819.25,1441.85 829.611,1440.83 839.973,1439.68 850.334,1438.41 860.696,1437.03 871.058,1435.52 881.419,1433.89 891.781,1432.14 902.142,1430.27 912.504,1428.28 922.865,1426.16 933.227,1423.93 943.588,1421.58 953.95,1419.1 964.311,1416.51 974.673,1413.79 985.034,1410.96 995.396,1408 1005.76,1404.92 1016.12,1401.72 1026.48,1398.41 1036.84,1394.97 1047.2,1391.41 1057.56,1387.73 1067.93,1383.92 1078.29,1380 1088.65,1375.96 1099.01,1371.79 1109.37,1367.51 1119.73,1363.1 1130.1,1358.58 1140.46,1353.93 1150.82,1349.17 1161.18,1344.28 1171.54,1339.27 1181.9,1334.14 1192.26,1328.89 1202.63,1323.52 1212.99,1318.03 1223.35,1312.42 1233.71,1306.68 1244.07,1300.83 1254.43,1294.86 1264.8,1288.76 1275.16,1282.55 1285.52,1276.21 1295.88,1269.75 1306.24,1263.18 1316.6,1256.48 1326.96,1249.66 1337.33,1242.72 1347.69,1235.66 1358.05,1228.48 1368.41,1221.18 1378.77,1213.75 1389.13,1206.21 1399.5,1198.55 1409.86,1190.76 1420.22,1182.86 1430.58,1174.83 1440.94,1166.69 1451.3,1158.42 1461.66,1150.03 1472.03,1141.52 1482.39,1132.89 1492.75,1124.14 1503.11,1115.27 1513.47,1106.28 1523.83,1097.17 1534.2,1087.94 1544.56,1078.58 1554.92,1069.11 1565.28,1059.51 1575.64,1049.8 1586,1039.96 1596.36,1030.01 1606.73,1019.93 1617.09,1009.73 1627.45,999.412 1637.81,988.972 1648.17,978.412 1658.53,967.731 1668.9,956.93 1679.26,946.007 1689.62,934.964 1699.98,923.801 1710.34,912.516 1720.7,901.111 1731.06,889.586 1741.43,877.939 1751.79,866.172 1762.15,854.284 1772.51,842.276 1782.87,830.147 1793.23,817.897 1803.59,805.526 1813.96,793.035 1824.32,780.423 1834.68,767.691 1845.04,754.838 1855.4,741.864 1865.76,728.769 1876.13,715.554 1886.49,702.218 1896.85,688.761 1907.21,675.183 1917.57,661.485 1927.93,647.667 1938.29,633.727 1948.66,619.667 1959.02,605.486 1969.38,591.185 1979.74,576.762 1990.1,562.22 2000.46,547.556 2010.83,532.772 2021.19,517.867 2031.55,502.841 2041.91,487.695 2052.27,472.428 2062.63,457.04 2072.99,441.532 2083.36,425.903 2093.72,410.153 2104.08,394.282 2114.44,378.291 2124.8,362.179 2135.16,345.947 2145.53,329.594 2155.89,313.12 2166.25,296.525 2176.61,279.81 2186.97,262.974 2197.33,246.017 2207.69,228.94 2218.06,211.742 2228.42,194.423 2238.78,176.984 2249.14,159.424 2259.5,141.743 2269.86,123.941 2280.23,106.019 2290.59,87.9763 "/>
<path clip-path="url(#clip380)" d="M229.334 198.898 L501.428 198.898 L501.428 95.2176 L229.334 95.2176  Z" fill="#ffffff" fill-rule="evenodd" fill-opacity="1"/>
<polyline clip-path="url(#clip380)" style="stroke:#000000; stroke-linecap:round; stroke-linejoin:round; stroke-width:4; stroke-opacity:1; fill:none" points="229.334,198.898 501.428,198.898 501.428,95.2176 229.334,95.2176 229.334,198.898 "/>
<polyline clip-path="url(#clip380)" style="stroke:#009af9; stroke-linecap:round; stroke-linejoin:round; stroke-width:4; stroke-opacity:1; fill:none" points="253.741,147.058 400.184,147.058 "/>
<path clip-path="url(#clip380)" d="M438.433 166.745 Q436.628 171.375 434.915 172.787 Q433.202 174.199 430.332 174.199 L426.929 174.199 L426.929 170.634 L429.429 170.634 Q431.188 170.634 432.16 169.8 Q433.132 168.967 434.313 165.865 L435.077 163.921 L424.591 138.412 L429.105 138.412 L437.206 158.689 L445.308 138.412 L449.822 138.412 L438.433 166.745 Z" fill="#000000" fill-rule="nonzero" fill-opacity="1" /><path clip-path="url(#clip380)" d="M457.114 160.402 L464.753 160.402 L464.753 134.037 L456.442 135.703 L456.442 131.444 L464.706 129.778 L469.382 129.778 L469.382 160.402 L477.021 160.402 L477.021 164.338 L457.114 164.338 L457.114 160.402 Z" fill="#000000" fill-rule="nonzero" fill-opacity="1" /></svg>
