<?xml version="1.0" encoding="utf-8"?>
<svg xmlns="http://www.w3.org/2000/svg" xmlns:xlink="http://www.w3.org/1999/xlink" width="600" height="400" viewBox="0 0 2400 1600">
<defs>
  <clipPath id="clip200">
    <rect x="0" y="0" width="2400" height="1600"/>
  </clipPath>
</defs>
<path clip-path="url(#clip200)" d="M0 1600 L2400 1600 L2400 0 L0 0  Z" fill="#ffffff" fill-rule="evenodd" fill-opacity="1"/>
<defs>
  <clipPath id="clip201">
    <rect x="480" y="0" width="1681" height="1600"/>
  </clipPath>
</defs>
<defs>
  <clipPath id="clip202">
    <rect x="141" y="47" width="2212" height="1440"/>
  </clipPath>
</defs>
<path clip-path="url(#clip202)" d="M1175.22 817.464 L1175.22 790.286 L1195.61 776.697 L1230.92 784.542 L1230.92 811.721 L1210.53 825.31 L1175.22 817.464  Z" fill="#ffffff" fill-rule="evenodd" fill-opacity="1"/>
<polyline clip-path="url(#clip202)" style="stroke:#000000; stroke-linecap:round; stroke-linejoin:round; stroke-width:2; stroke-opacity:0.1; fill:none" points="848.633,1251.43 1264.1,891.627 1264.1,172.025 "/>
<polyline clip-path="url(#clip202)" style="stroke:#000000; stroke-linecap:round; stroke-linejoin:round; stroke-width:2; stroke-opacity:0.1; fill:none" points="1025.18,1302.39 1440.64,942.59 1440.64,222.988 "/>
<polyline clip-path="url(#clip202)" style="stroke:#000000; stroke-linecap:round; stroke-linejoin:round; stroke-width:2; stroke-opacity:0.1; fill:none" points="1201.72,1353.35 1617.18,993.554 1617.18,273.952 "/>
<polyline clip-path="url(#clip202)" style="stroke:#000000; stroke-linecap:round; stroke-linejoin:round; stroke-width:2; stroke-opacity:0.1; fill:none" points="1378.26,1404.32 1793.72,1044.52 1793.72,324.915 "/>
<polyline clip-path="url(#clip200)" style="stroke:#000000; stroke-linecap:round; stroke-linejoin:round; stroke-width:4; stroke-opacity:1; fill:none" points="679.772,1202.68 1399.37,1410.41 "/>
<polyline clip-path="url(#clip200)" style="stroke:#000000; stroke-linecap:round; stroke-linejoin:round; stroke-width:4; stroke-opacity:1; fill:none" points="848.633,1251.43 853.619,1247.11 "/>
<polyline clip-path="url(#clip200)" style="stroke:#000000; stroke-linecap:round; stroke-linejoin:round; stroke-width:4; stroke-opacity:1; fill:none" points="1025.18,1302.39 1030.16,1298.07 "/>
<polyline clip-path="url(#clip200)" style="stroke:#000000; stroke-linecap:round; stroke-linejoin:round; stroke-width:4; stroke-opacity:1; fill:none" points="1201.72,1353.35 1206.7,1349.04 "/>
<polyline clip-path="url(#clip200)" style="stroke:#000000; stroke-linecap:round; stroke-linejoin:round; stroke-width:4; stroke-opacity:1; fill:none" points="1378.26,1404.32 1383.25,1400 "/>
<path clip-path="url(#clip200)" d="M750.511 1279.99 L780.187 1279.99 L780.187 1283.93 L750.511 1283.93 L750.511 1279.99 Z" fill="#000000" fill-rule="nonzero" fill-opacity="1" /><path clip-path="url(#clip200)" d="M791.09 1292.89 L798.729 1292.89 L798.729 1266.52 L790.419 1268.19 L790.419 1263.93 L798.682 1262.26 L803.358 1262.26 L803.358 1292.89 L810.997 1292.89 L810.997 1296.82 L791.09 1296.82 L791.09 1292.89 Z" fill="#000000" fill-rule="nonzero" fill-opacity="1" /><path clip-path="url(#clip200)" d="M830.441 1265.34 Q826.83 1265.34 825.002 1268.91 Q823.196 1272.45 823.196 1279.58 Q823.196 1286.68 825.002 1290.25 Q826.83 1293.79 830.441 1293.79 Q834.076 1293.79 835.881 1290.25 Q837.71 1286.68 837.71 1279.58 Q837.71 1272.45 835.881 1268.91 Q834.076 1265.34 830.441 1265.34 M830.441 1261.64 Q836.252 1261.64 839.307 1266.24 Q842.386 1270.83 842.386 1279.58 Q842.386 1288.3 839.307 1292.91 Q836.252 1297.49 830.441 1297.49 Q824.631 1297.49 821.553 1292.91 Q818.497 1288.3 818.497 1279.58 Q818.497 1270.83 821.553 1266.24 Q824.631 1261.64 830.441 1261.64 Z" fill="#000000" fill-rule="nonzero" fill-opacity="1" /><path clip-path="url(#clip200)" d="M1006.98 1316.3 Q1003.37 1316.3 1001.54 1319.87 Q999.739 1323.41 999.739 1330.54 Q999.739 1337.65 1001.54 1341.21 Q1003.37 1344.75 1006.98 1344.75 Q1010.62 1344.75 1012.42 1341.21 Q1014.25 1337.65 1014.25 1330.54 Q1014.25 1323.41 1012.42 1319.87 Q1010.62 1316.3 1006.98 1316.3 M1006.98 1312.6 Q1012.79 1312.6 1015.85 1317.21 Q1018.93 1321.79 1018.93 1330.54 Q1018.93 1339.27 1015.85 1343.87 Q1012.79 1348.46 1006.98 1348.46 Q1001.17 1348.46 998.095 1343.87 Q995.04 1339.27 995.04 1330.54 Q995.04 1321.79 998.095 1317.21 Q1001.17 1312.6 1006.98 1312.6 Z" fill="#000000" fill-rule="nonzero" fill-opacity="1" /><path clip-path="url(#clip200)" d="M1144.17 1394.81 L1151.81 1394.81 L1151.81 1368.45 L1143.5 1370.11 L1143.5 1365.86 L1151.77 1364.19 L1156.44 1364.19 L1156.44 1394.81 L1164.08 1394.81 L1164.08 1398.75 L1144.17 1398.75 L1144.17 1394.81 Z" fill="#000000" fill-rule="nonzero" fill-opacity="1" /><path clip-path="url(#clip200)" d="M1183.53 1367.27 Q1179.92 1367.27 1178.09 1370.83 Q1176.28 1374.37 1176.28 1381.5 Q1176.28 1388.61 1178.09 1392.17 Q1179.92 1395.72 1183.53 1395.72 Q1187.16 1395.72 1188.97 1392.17 Q1190.79 1388.61 1190.79 1381.5 Q1190.79 1374.37 1188.97 1370.83 Q1187.16 1367.27 1183.53 1367.27 M1183.53 1363.56 Q1189.34 1363.56 1192.39 1368.17 Q1195.47 1372.75 1195.47 1381.5 Q1195.47 1390.23 1192.39 1394.84 Q1189.34 1399.42 1183.53 1399.42 Q1177.72 1399.42 1174.64 1394.84 Q1171.58 1390.23 1171.58 1381.5 Q1171.58 1372.75 1174.64 1368.17 Q1177.72 1363.56 1183.53 1363.56 Z" fill="#000000" fill-rule="nonzero" fill-opacity="1" /><path clip-path="url(#clip200)" d="M1323.93 1445.78 L1340.25 1445.78 L1340.25 1449.71 L1318.31 1449.71 L1318.31 1445.78 Q1320.97 1443.02 1325.56 1438.39 Q1330.16 1433.74 1331.34 1432.4 Q1333.59 1429.87 1334.47 1428.14 Q1335.37 1426.38 1335.37 1424.69 Q1335.37 1421.93 1333.43 1420.2 Q1331.5 1418.46 1328.4 1418.46 Q1326.2 1418.46 1323.75 1419.23 Q1321.32 1419.99 1318.54 1421.54 L1318.54 1416.82 Q1321.37 1415.68 1323.82 1415.11 Q1326.27 1414.53 1328.31 1414.53 Q1333.68 1414.53 1336.87 1417.21 Q1340.07 1419.9 1340.07 1424.39 Q1340.07 1426.52 1339.26 1428.44 Q1338.47 1430.34 1336.37 1432.93 Q1335.79 1433.6 1332.68 1436.82 Q1329.58 1440.01 1323.93 1445.78 Z" fill="#000000" fill-rule="nonzero" fill-opacity="1" /><path clip-path="url(#clip200)" d="M1360.07 1418.23 Q1356.46 1418.23 1354.63 1421.8 Q1352.82 1425.34 1352.82 1432.47 Q1352.82 1439.57 1354.63 1443.14 Q1356.46 1446.68 1360.07 1446.68 Q1363.7 1446.68 1365.51 1443.14 Q1367.34 1439.57 1367.34 1432.47 Q1367.34 1425.34 1365.51 1421.8 Q1363.7 1418.23 1360.07 1418.23 M1360.07 1414.53 Q1365.88 1414.53 1368.93 1419.13 Q1372.01 1423.72 1372.01 1432.47 Q1372.01 1441.19 1368.93 1445.8 Q1365.88 1450.38 1360.07 1450.38 Q1354.26 1450.38 1351.18 1445.8 Q1348.12 1441.19 1348.12 1432.47 Q1348.12 1423.72 1351.18 1419.13 Q1354.26 1414.53 1360.07 1414.53 Z" fill="#000000" fill-rule="nonzero" fill-opacity="1" /><polyline clip-path="url(#clip202)" style="stroke:#000000; stroke-linecap:round; stroke-linejoin:round; stroke-width:2; stroke-opacity:0.1; fill:none" points="1440.33,1374.94 720.729,1167.21 720.729,447.611 "/>
<polyline clip-path="url(#clip202)" style="stroke:#000000; stroke-linecap:round; stroke-linejoin:round; stroke-width:2; stroke-opacity:0.1; fill:none" points="1518.79,1307 799.186,1099.27 799.186,379.665 "/>
<polyline clip-path="url(#clip202)" style="stroke:#000000; stroke-linecap:round; stroke-linejoin:round; stroke-width:2; stroke-opacity:0.1; fill:none" points="1597.25,1239.05 877.643,1031.32 877.643,311.719 "/>
<polyline clip-path="url(#clip202)" style="stroke:#000000; stroke-linecap:round; stroke-linejoin:round; stroke-width:2; stroke-opacity:0.1; fill:none" points="1675.7,1171.11 956.1,963.375 956.1,243.773 "/>
<polyline clip-path="url(#clip202)" style="stroke:#000000; stroke-linecap:round; stroke-linejoin:round; stroke-width:2; stroke-opacity:0.1; fill:none" points="1754.16,1103.16 1034.56,895.429 1034.56,175.827 "/>
<polyline clip-path="url(#clip200)" style="stroke:#000000; stroke-linecap:round; stroke-linejoin:round; stroke-width:4; stroke-opacity:1; fill:none" points="1399.37,1410.41 1814.84,1050.61 "/>
<polyline clip-path="url(#clip200)" style="stroke:#000000; stroke-linecap:round; stroke-linejoin:round; stroke-width:4; stroke-opacity:1; fill:none" points="1440.33,1374.94 1431.7,1372.45 "/>
<polyline clip-path="url(#clip200)" style="stroke:#000000; stroke-linecap:round; stroke-linejoin:round; stroke-width:4; stroke-opacity:1; fill:none" points="1518.79,1307 1510.15,1304.5 "/>
<polyline clip-path="url(#clip200)" style="stroke:#000000; stroke-linecap:round; stroke-linejoin:round; stroke-width:4; stroke-opacity:1; fill:none" points="1597.25,1239.05 1588.61,1236.56 "/>
<polyline clip-path="url(#clip200)" style="stroke:#000000; stroke-linecap:round; stroke-linejoin:round; stroke-width:4; stroke-opacity:1; fill:none" points="1675.7,1171.11 1667.07,1168.61 "/>
<polyline clip-path="url(#clip200)" style="stroke:#000000; stroke-linecap:round; stroke-linejoin:round; stroke-width:4; stroke-opacity:1; fill:none" points="1754.16,1103.16 1745.52,1100.67 "/>
<path clip-path="url(#clip200)" d="M1456.31 1399.36 L1485.98 1399.36 L1485.98 1403.29 L1456.31 1403.29 L1456.31 1399.36 Z" fill="#000000" fill-rule="nonzero" fill-opacity="1" /><path clip-path="url(#clip200)" d="M1500.1 1412.25 L1516.42 1412.25 L1516.42 1416.19 L1494.48 1416.19 L1494.48 1412.25 Q1497.14 1409.5 1501.72 1404.87 Q1506.33 1400.22 1507.51 1398.87 Q1509.75 1396.35 1510.63 1394.61 Q1511.54 1392.85 1511.54 1391.16 Q1511.54 1388.41 1509.59 1386.67 Q1507.67 1384.94 1504.57 1384.94 Q1502.37 1384.94 1499.92 1385.7 Q1497.49 1386.47 1494.71 1388.02 L1494.71 1383.29 Q1497.53 1382.16 1499.99 1381.58 Q1502.44 1381 1504.48 1381 Q1509.85 1381 1513.04 1383.69 Q1516.24 1386.37 1516.24 1390.86 Q1516.24 1392.99 1515.43 1394.91 Q1514.64 1396.81 1512.53 1399.4 Q1511.95 1400.08 1508.85 1403.29 Q1505.75 1406.49 1500.1 1412.25 Z" fill="#000000" fill-rule="nonzero" fill-opacity="1" /><path clip-path="url(#clip200)" d="M1536.24 1384.71 Q1532.62 1384.71 1530.8 1388.27 Q1528.99 1391.81 1528.99 1398.94 Q1528.99 1406.05 1530.8 1409.61 Q1532.62 1413.15 1536.24 1413.15 Q1539.87 1413.15 1541.68 1409.61 Q1543.5 1406.05 1543.5 1398.94 Q1543.5 1391.81 1541.68 1388.27 Q1539.87 1384.71 1536.24 1384.71 M1536.24 1381 Q1542.05 1381 1545.1 1385.61 Q1548.18 1390.19 1548.18 1398.94 Q1548.18 1407.67 1545.1 1412.28 Q1542.05 1416.86 1536.24 1416.86 Q1530.43 1416.86 1527.35 1412.28 Q1524.29 1407.67 1524.29 1398.94 Q1524.29 1390.19 1527.35 1385.61 Q1530.43 1381 1536.24 1381 Z" fill="#000000" fill-rule="nonzero" fill-opacity="1" /><path clip-path="url(#clip200)" d="M1534.76 1331.41 L1564.44 1331.41 L1564.44 1335.35 L1534.76 1335.35 L1534.76 1331.41 Z" fill="#000000" fill-rule="nonzero" fill-opacity="1" /><path clip-path="url(#clip200)" d="M1575.34 1344.31 L1582.98 1344.31 L1582.98 1317.94 L1574.67 1319.61 L1574.67 1315.35 L1582.93 1313.68 L1587.61 1313.68 L1587.61 1344.31 L1595.25 1344.31 L1595.25 1348.24 L1575.34 1348.24 L1575.34 1344.31 Z" fill="#000000" fill-rule="nonzero" fill-opacity="1" /><path clip-path="url(#clip200)" d="M1614.69 1316.76 Q1611.08 1316.76 1609.25 1320.32 Q1607.45 1323.87 1607.45 1331 Q1607.45 1338.1 1609.25 1341.67 Q1611.08 1345.21 1614.69 1345.21 Q1618.33 1345.21 1620.13 1341.67 Q1621.96 1338.1 1621.96 1331 Q1621.96 1323.87 1620.13 1320.32 Q1618.33 1316.76 1614.69 1316.76 M1614.69 1313.06 Q1620.5 1313.06 1623.56 1317.66 Q1626.64 1322.25 1626.64 1331 Q1626.64 1339.72 1623.56 1344.33 Q1620.5 1348.91 1614.69 1348.91 Q1608.88 1348.91 1605.8 1344.33 Q1602.75 1339.72 1602.75 1331 Q1602.75 1322.25 1605.8 1317.66 Q1608.88 1313.06 1614.69 1313.06 Z" fill="#000000" fill-rule="nonzero" fill-opacity="1" /><path clip-path="url(#clip200)" d="M1625.16 1248.81 Q1621.55 1248.81 1619.72 1252.38 Q1617.92 1255.92 1617.92 1263.05 Q1617.92 1270.16 1619.72 1273.72 Q1621.55 1277.26 1625.16 1277.26 Q1628.8 1277.26 1630.6 1273.72 Q1632.43 1270.16 1632.43 1263.05 Q1632.43 1255.92 1630.6 1252.38 Q1628.8 1248.81 1625.16 1248.81 M1625.16 1245.11 Q1630.97 1245.11 1634.03 1249.72 Q1637.11 1254.3 1637.11 1263.05 Q1637.11 1271.78 1634.03 1276.38 Q1630.97 1280.97 1625.16 1280.97 Q1619.35 1280.97 1616.28 1276.38 Q1613.22 1271.78 1613.22 1263.05 Q1613.22 1254.3 1616.28 1249.72 Q1619.35 1245.11 1625.16 1245.11 Z" fill="#000000" fill-rule="nonzero" fill-opacity="1" /><path clip-path="url(#clip200)" d="M1692.35 1208.41 L1699.99 1208.41 L1699.99 1182.05 L1691.68 1183.72 L1691.68 1179.46 L1699.94 1177.79 L1704.62 1177.79 L1704.62 1208.41 L1712.26 1208.41 L1712.26 1212.35 L1692.35 1212.35 L1692.35 1208.41 Z" fill="#000000" fill-rule="nonzero" fill-opacity="1" /><path clip-path="url(#clip200)" d="M1731.7 1180.87 Q1728.09 1180.87 1726.26 1184.43 Q1724.45 1187.97 1724.45 1195.1 Q1724.45 1202.21 1726.26 1205.78 Q1728.09 1209.32 1731.7 1209.32 Q1735.33 1209.32 1737.14 1205.78 Q1738.97 1202.21 1738.97 1195.1 Q1738.97 1187.97 1737.14 1184.43 Q1735.33 1180.87 1731.7 1180.87 M1731.7 1177.16 Q1737.51 1177.16 1740.57 1181.77 Q1743.64 1186.35 1743.64 1195.1 Q1743.64 1203.83 1740.57 1208.44 Q1737.51 1213.02 1731.7 1213.02 Q1725.89 1213.02 1722.81 1208.44 Q1719.76 1203.83 1719.76 1195.1 Q1719.76 1186.35 1722.81 1181.77 Q1725.89 1177.16 1731.7 1177.16 Z" fill="#000000" fill-rule="nonzero" fill-opacity="1" /><path clip-path="url(#clip200)" d="M1775.76 1140.47 L1792.08 1140.47 L1792.08 1144.4 L1770.13 1144.4 L1770.13 1140.47 Q1772.8 1137.71 1777.38 1133.08 Q1781.99 1128.43 1783.17 1127.09 Q1785.41 1124.57 1786.29 1122.83 Q1787.19 1121.07 1787.19 1119.38 Q1787.19 1116.63 1785.25 1114.89 Q1783.33 1113.15 1780.23 1113.15 Q1778.03 1113.15 1775.57 1113.92 Q1773.14 1114.68 1770.37 1116.23 L1770.37 1111.51 Q1773.19 1110.38 1775.64 1109.8 Q1778.1 1109.22 1780.13 1109.22 Q1785.5 1109.22 1788.7 1111.9 Q1791.89 1114.59 1791.89 1119.08 Q1791.89 1121.21 1791.08 1123.13 Q1790.3 1125.03 1788.19 1127.62 Q1787.61 1128.29 1784.51 1131.51 Q1781.41 1134.7 1775.76 1140.47 Z" fill="#000000" fill-rule="nonzero" fill-opacity="1" /><path clip-path="url(#clip200)" d="M1811.89 1112.92 Q1808.28 1112.92 1806.45 1116.49 Q1804.65 1120.03 1804.65 1127.16 Q1804.65 1134.26 1806.45 1137.83 Q1808.28 1141.37 1811.89 1141.37 Q1815.53 1141.37 1817.33 1137.83 Q1819.16 1134.26 1819.16 1127.16 Q1819.16 1120.03 1817.33 1116.49 Q1815.53 1112.92 1811.89 1112.92 M1811.89 1109.22 Q1817.7 1109.22 1820.76 1113.83 Q1823.84 1118.41 1823.84 1127.16 Q1823.84 1135.89 1820.76 1140.49 Q1817.7 1145.07 1811.89 1145.07 Q1806.08 1145.07 1803 1140.49 Q1799.95 1135.89 1799.95 1127.16 Q1799.95 1118.41 1803 1113.83 Q1806.08 1109.22 1811.89 1109.22 Z" fill="#000000" fill-rule="nonzero" fill-opacity="1" /><polyline clip-path="url(#clip202)" style="stroke:#000000; stroke-linecap:round; stroke-linejoin:round; stroke-width:2; stroke-opacity:0.1; fill:none" points="679.772,1182.32 1095.23,822.515 1814.84,1030.25 "/>
<polyline clip-path="url(#clip202)" style="stroke:#000000; stroke-linecap:round; stroke-linejoin:round; stroke-width:2; stroke-opacity:0.1; fill:none" points="679.772,1041.8 1095.23,681.997 1814.84,889.728 "/>
<polyline clip-path="url(#clip202)" style="stroke:#000000; stroke-linecap:round; stroke-linejoin:round; stroke-width:2; stroke-opacity:0.1; fill:none" points="679.772,901.279 1095.23,541.478 1814.84,749.21 "/>
<polyline clip-path="url(#clip202)" style="stroke:#000000; stroke-linecap:round; stroke-linejoin:round; stroke-width:2; stroke-opacity:0.1; fill:none" points="679.772,760.761 1095.23,400.96 1814.84,608.691 "/>
<polyline clip-path="url(#clip202)" style="stroke:#000000; stroke-linecap:round; stroke-linejoin:round; stroke-width:2; stroke-opacity:0.1; fill:none" points="679.772,620.243 1095.23,260.442 1814.84,468.173 "/>
<polyline clip-path="url(#clip200)" style="stroke:#000000; stroke-linecap:round; stroke-linejoin:round; stroke-width:4; stroke-opacity:1; fill:none" points="679.772,1202.68 679.772,483.08 "/>
<polyline clip-path="url(#clip200)" style="stroke:#000000; stroke-linecap:round; stroke-linejoin:round; stroke-width:4; stroke-opacity:1; fill:none" points="679.772,1182.32 684.758,1178 "/>
<polyline clip-path="url(#clip200)" style="stroke:#000000; stroke-linecap:round; stroke-linejoin:round; stroke-width:4; stroke-opacity:1; fill:none" points="679.772,1041.8 684.758,1037.48 "/>
<polyline clip-path="url(#clip200)" style="stroke:#000000; stroke-linecap:round; stroke-linejoin:round; stroke-width:4; stroke-opacity:1; fill:none" points="679.772,901.279 684.758,896.962 "/>
<polyline clip-path="url(#clip200)" style="stroke:#000000; stroke-linecap:round; stroke-linejoin:round; stroke-width:4; stroke-opacity:1; fill:none" points="679.772,760.761 684.758,756.444 "/>
<polyline clip-path="url(#clip200)" style="stroke:#000000; stroke-linecap:round; stroke-linejoin:round; stroke-width:4; stroke-opacity:1; fill:none" points="679.772,620.243 684.758,615.925 "/>
<path clip-path="url(#clip200)" d="M639.028 1168.11 Q635.417 1168.11 633.588 1171.68 Q631.783 1175.22 631.783 1182.35 Q631.783 1189.46 633.588 1193.02 Q635.417 1196.56 639.028 1196.56 Q642.662 1196.56 644.468 1193.02 Q646.296 1189.46 646.296 1182.35 Q646.296 1175.22 644.468 1171.68 Q642.662 1168.11 639.028 1168.11 M639.028 1164.41 Q644.838 1164.41 647.894 1169.02 Q650.972 1173.6 650.972 1182.35 Q650.972 1191.08 647.894 1195.68 Q644.838 1200.27 639.028 1200.27 Q633.218 1200.27 630.139 1195.68 Q627.084 1191.08 627.084 1182.35 Q627.084 1173.6 630.139 1169.02 Q633.218 1164.41 639.028 1164.41 Z" fill="#000000" fill-rule="nonzero" fill-opacity="1" /><path clip-path="url(#clip200)" d="M599.676 1055.14 L607.315 1055.14 L607.315 1028.78 L599.005 1030.44 L599.005 1026.18 L607.269 1024.52 L611.945 1024.52 L611.945 1055.14 L619.584 1055.14 L619.584 1059.08 L599.676 1059.08 L599.676 1055.14 Z" fill="#000000" fill-rule="nonzero" fill-opacity="1" /><path clip-path="url(#clip200)" d="M639.028 1027.6 Q635.417 1027.6 633.588 1031.16 Q631.783 1034.7 631.783 1041.83 Q631.783 1048.94 633.588 1052.5 Q635.417 1056.05 639.028 1056.05 Q642.662 1056.05 644.468 1052.5 Q646.296 1048.94 646.296 1041.83 Q646.296 1034.7 644.468 1031.16 Q642.662 1027.6 639.028 1027.6 M639.028 1023.89 Q644.838 1023.89 647.894 1028.5 Q650.972 1033.08 650.972 1041.83 Q650.972 1050.56 647.894 1055.17 Q644.838 1059.75 639.028 1059.75 Q633.218 1059.75 630.139 1055.17 Q627.084 1050.56 627.084 1041.83 Q627.084 1033.08 630.139 1028.5 Q633.218 1023.89 639.028 1023.89 Z" fill="#000000" fill-rule="nonzero" fill-opacity="1" /><path clip-path="url(#clip200)" d="M602.894 914.624 L619.213 914.624 L619.213 918.559 L597.269 918.559 L597.269 914.624 Q599.931 911.87 604.514 907.24 Q609.121 902.587 610.301 901.245 Q612.547 898.722 613.426 896.985 Q614.329 895.226 614.329 893.536 Q614.329 890.782 612.385 889.046 Q610.463 887.31 607.361 887.31 Q605.162 887.31 602.709 888.073 Q600.278 888.837 597.5 890.388 L597.5 885.666 Q600.324 884.532 602.778 883.953 Q605.232 883.374 607.269 883.374 Q612.639 883.374 615.834 886.06 Q619.028 888.745 619.028 893.235 Q619.028 895.365 618.218 897.286 Q617.431 899.184 615.324 901.777 Q614.746 902.448 611.644 905.666 Q608.542 908.86 602.894 914.624 Z" fill="#000000" fill-rule="nonzero" fill-opacity="1" /><path clip-path="url(#clip200)" d="M639.028 887.078 Q635.417 887.078 633.588 890.643 Q631.783 894.185 631.783 901.314 Q631.783 908.421 633.588 911.985 Q635.417 915.527 639.028 915.527 Q642.662 915.527 644.468 911.985 Q646.296 908.421 646.296 901.314 Q646.296 894.185 644.468 890.643 Q642.662 887.078 639.028 887.078 M639.028 883.374 Q644.838 883.374 647.894 887.981 Q650.972 892.564 650.972 901.314 Q650.972 910.041 647.894 914.647 Q644.838 919.231 639.028 919.231 Q633.218 919.231 630.139 914.647 Q627.084 910.041 627.084 901.314 Q627.084 892.564 630.139 887.981 Q633.218 883.374 639.028 883.374 Z" fill="#000000" fill-rule="nonzero" fill-opacity="1" /><path clip-path="url(#clip200)" d="M613.033 759.407 Q616.389 760.125 618.264 762.393 Q620.162 764.662 620.162 767.995 Q620.162 773.111 616.644 775.912 Q613.125 778.712 606.644 778.712 Q604.468 778.712 602.153 778.273 Q599.861 777.856 597.408 777 L597.408 772.486 Q599.352 773.62 601.667 774.199 Q603.982 774.777 606.505 774.777 Q610.903 774.777 613.195 773.041 Q615.51 771.305 615.51 767.995 Q615.51 764.939 613.357 763.226 Q611.227 761.49 607.408 761.49 L603.38 761.49 L603.38 757.648 L607.593 757.648 Q611.042 757.648 612.871 756.282 Q614.699 754.893 614.699 752.301 Q614.699 749.639 612.801 748.227 Q610.926 746.791 607.408 746.791 Q605.486 746.791 603.287 747.208 Q601.088 747.625 598.449 748.504 L598.449 744.338 Q601.111 743.597 603.426 743.227 Q605.764 742.856 607.824 742.856 Q613.148 742.856 616.25 745.287 Q619.352 747.694 619.352 751.814 Q619.352 754.685 617.709 756.676 Q616.065 758.643 613.033 759.407 Z" fill="#000000" fill-rule="nonzero" fill-opacity="1" /><path clip-path="url(#clip200)" d="M639.028 746.56 Q635.417 746.56 633.588 750.125 Q631.783 753.666 631.783 760.796 Q631.783 767.902 633.588 771.467 Q635.417 775.009 639.028 775.009 Q642.662 775.009 644.468 771.467 Q646.296 767.902 646.296 760.796 Q646.296 753.666 644.468 750.125 Q642.662 746.56 639.028 746.56 M639.028 742.856 Q644.838 742.856 647.894 747.463 Q650.972 752.046 650.972 760.796 Q650.972 769.523 647.894 774.129 Q644.838 778.712 639.028 778.712 Q633.218 778.712 630.139 774.129 Q627.084 769.523 627.084 760.796 Q627.084 752.046 630.139 747.463 Q633.218 742.856 639.028 742.856 Z" fill="#000000" fill-rule="nonzero" fill-opacity="1" /><path clip-path="url(#clip200)" d="M611.713 607.037 L599.908 625.486 L611.713 625.486 L611.713 607.037 M610.486 602.963 L616.366 602.963 L616.366 625.486 L621.297 625.486 L621.297 629.375 L616.366 629.375 L616.366 637.523 L611.713 637.523 L611.713 629.375 L596.111 629.375 L596.111 624.861 L610.486 602.963 Z" fill="#000000" fill-rule="nonzero" fill-opacity="1" /><path clip-path="url(#clip200)" d="M639.028 606.042 Q635.417 606.042 633.588 609.607 Q631.783 613.148 631.783 620.278 Q631.783 627.384 633.588 630.949 Q635.417 634.491 639.028 634.491 Q642.662 634.491 644.468 630.949 Q646.296 627.384 646.296 620.278 Q646.296 613.148 644.468 609.607 Q642.662 606.042 639.028 606.042 M639.028 602.338 Q644.838 602.338 647.894 606.944 Q650.972 611.528 650.972 620.278 Q650.972 629.005 647.894 633.611 Q644.838 638.194 639.028 638.194 Q633.218 638.194 630.139 633.611 Q627.084 629.005 627.084 620.278 Q627.084 611.528 630.139 606.944 Q633.218 602.338 639.028 602.338 Z" fill="#000000" fill-rule="nonzero" fill-opacity="1" /><polyline clip-path="url(#clip202)" style="stroke:#009af9; stroke-linecap:round; stroke-linejoin:round; stroke-width:4; stroke-opacity:1; fill:none" points="1240.7,1115.76 1240.7,1115.75 1240.72,1115.67 1240.86,1114.99 1241.26,1113.71 1242.02,1112.12 1243.45,1110.17 1246,1107.84 1250.5,1105 1258.37,1101.23 1272.54,1095.34 1297.58,1084.9 1339.53,1065.29 1411.25,1024.11 1527.6,934.097 1681.28,751.912 1759.13,514.465 1619.3,464.512 1408.59,579.49 1256.23,675.011 1145,730.161 1090.33,751.121 1054.06,765.597 1031.62,773.657 1008.3,773.753 988.029,759.264 981.819,731.879 999.136,716.188 1027.03,732.064 1033.18,759.658 1010.22,776.406 982.477,754.454 988.295,717.932 1019.93,721.828 1035.53,757.144 1015.22,778.507 980.907,755.21 987.996,715.402 1023.35,722.434 1037.02,761.232 1010.93,780.764 976.991,750.285 991.578,710.943 1028.84,725.555 1038.2,765.892 1005.31,782.139 973.603,745.356 994.691,707.468 1033.01,727.681 1039.69,769.351 1001.85,783.628 970.866,742.827 995.641,704.548 1035.51,727.389 1042.12,770.921 1001.97,786.538 968.581,744.3 993.455,701.804 1035.93,723.738 1045.74,769.829 1007.15,791.141 967.538,751.442 987.025,699.976 1033.08,716.131 1050.07,765.096 1018.23,795.464 969.959,764.527 975.82,702.113 1025.11,705.169 1053.67,756.747 1032.73,795.821 976.496,779.13 963.392,712.394 1012.19,694.477 1054.56,742.918 1047.45,789.627 984.865,791.408 955.572,729.396 998.768,687.497 1048.66,721.672 1059.02,776.738 1014.15,807.313 960.107,767.035 970.096,690.636 1028.08,694.67 1064.4,752.696 1048.18,802.553 982.402,799.554 947.59,725.976 994.934,678.2 1052.61,713.916 1069.24,773.801 1031.8,816.476 966.839,791.632 948.951,700.929 1008.86,675.449 1066.9,730.542 1070.97,789.434 1012.42,822.805 949.573,775.308 959.198,678.093 1028.09,678.375 1077.05,743.674 1070.43,805.375 993.069,823.848 935.218,753.611 971.939,663.133 1044.29,683.092 1085.43,752.386 1072.87,815.613 1001.37,834.522 931.612,763.891 958.452,660.452 1037.76,670.016 1089.43,740.501 1087.04,809.895 1010.36,845.385 934.285,787.537 943.127,660.353 1027.89,655.223 1093.59,729.655 1099.85,804.306 1042.17,855.912 957.492,829.399 912.651,693.379 991.861,634.49 1078.92,688.3 1112.72,765.484 1099.76,833.309 1039.9,868.964 941.645,828.975 902.816,687.383 988.775,622.417 1081.47,675.758 1122.69,755.517 1120,826.149 1073.57,876.529 985.673,875.435 889.019,754.965 933.191,619.601 1043.51,627.163 1118.9,708.138 1142.63,792.355 1124.06,861.884 1073.39,899.727 958.425,882.675 868.988,737.052 939.355,593.132 1057.35,615.584 1135.58,702.252 1163.93,785.821 1157.26,860.518 1128.76,904.889 1051.58,936.354 908.003,877.261 844.084,681.67 945.873,559.133 1077.06,598.914 1156.05,686.094 1189.67,758.787 1202.57,823.795 1203.52,859.41 1198.65,900.711 1187.93,933.508 1161.36,969.308 1089.59,1001.4 946.65,979.19 799.242,797.704 852.214,531.486 1030.66,508.227 1170.72,614.085 1253.15,737.762 1281.07,795.408 1310.18,836.236 1353.46,853.456 1435.82,829.68 1558.4,712.167 1571.53,605.339 1457.53,625.376 1344.17,699.22 1288.94,758.518 1271.91,805.074 1276.81,850.391 1298.63,879.442 1354.21,889.807 1482.46,826.469 1605.89,667.536 1558.68,573.4 1411.37,636.796 1297.51,718.216 1244.31,781.122 1226.27,831.22 1219.52,872.813 1215.45,906.683 1210.71,936.504 1201.9,966.585 1183.34,995.82 1138.6,1024.48 1030.79,1036.29 850.134,943.732 762.793,650.024 899.998,466.595 1082.68,504.695 1195.18,601.842 1269.78,702.217 1305.59,761.531 1337.37,799.289 1379.4,813.169 1448.11,790.485 1535.53,700.989 1534.07,630.135 1447.47,648.829 1356.52,713.154 1321.33,764.38 1323.75,808.562 1365.31,830.715 1447.68,803.537 1552.21,690.002 1530.88,616.335 1420.62,657.081 1332.24,727.362 1301.8,785.438 1312.1,830.124 1354.78,850.106 1450.67,817.309 1568,687.859 1544.21,601.733 1419.13,648.962 1319.45,725.084 1280.74,787.736 1280.19,834.826 1302.54,869.334 1356.15,880.696 1484,817.817 1601.61,660.712 1543.5,581.025 1401.35,646.631 1297.73,723.866 1251.17,784.557 1237.04,834.28 1235.03,871.617 1237.78,904.525 1245.42,933.633 1263.03,958.05 1315.1,968.209 1429.29,922.669 1612.98,745.932 1661.35,539.24 1502.01,559.034 1330.38,662.163 1236.33,726.107 1176.14,779.088 1143.07,822.186 1112.5,857.558 1063.91,884.143 983.836,877.12 890.603,769.062 912.088,634.419 1015.35,611.588 1105.45,683.115 1141.59,763.709 1140.72,832.083 1108.44,884.174 1037.23,908.712 910.09,843.561 870.725,672.239 978.633,584.126 1089.67,638.725 1150.33,726.258 1168.49,798.54 1160.32,865.089 1132.68,908.448 1060.28,940.809 917.186,892.146 837.746,703.664 926.818,558.961 1061.81,583.321 1150.41,669.89 1191.19,747.875 1208.47,819.681 1211.35,863.124 1209.67,900.118 1203.78,933.951 1190.66,966.315 1155.88,1001.12 1071.48,1025.16 903.372,975.914 770.17,735.801 857.014,501.162 1039.7,492.937 1172.93,592.004 1253.67,697.809 1290.61,762.754 1320.84,805.926 1359.4,826.143 1425.32,813.739 1524.89,732.502 1558.46,632.716 1477.87,628.285 1374.19,689.373 1318.64,745.831 1301.97,795.684 1326.43,841.004 1376.22,847.63 1499.82,777.703 1579.38,647.512 1501.9,609.308 1385.92,670.716 1308.62,737.833 1280.33,793.014 1285.68,846.045 1311.74,873.051 1383.48,873.533 1525,778.614 1606.8,620.646 1518.81,588.323 1384,658.608 1296.16,726.571 1255.95,778.134 1239.77,829.859 1237.75,864.796 1241.03,898.746 1249.75,927.253 1270.3,951.341 1328.98,957.752 1455.66,898.758 1629.83,710.246 1638.24,533.12 1448.86,590.681 1293.22,689.757 1207.11,754.843 1166.01,802.543 1136.6,844.879 1099.99,879.41 1036.05,897.612 931.36,852.358 875.294,705.74 950.466,598.601 1060.56,626.381 1128.92,705.003 1154.78,783.426 1146.46,855.641 1114.05,899.199 1030.85,923.046 897.576,847.551 861.316,658.213 981.253,570.37 1098.8,631.393 1162.41,721.747 1183.12,788.851 1185,850.722 1173.36,895.779 1142.99,937.501 1070.61,967.994 912.855,920.436 814.872,720.749 898.731,540.934 1048.31,549.174 1154.73,638.526 1210.72,727.055 1237.47,798.173 1252.1,846.436 1267.26,880.979 1294.25,906.881 1347.73,912.484 1465.05,857.832 1607.4,698.481 1605.17,560.563 1450.15,605.549 1308.59,697.383 1240.5,757.995 1207.74,810.372 1189.46,857.538 1172.54,895.101 1141.11,933.447 1080.57,961.29 949.93,939.565 828.122,780.213 878.487,560.669 1029.76,544.922 1150.36,639.37 1208.71,733.645 1233.3,804.32 1246.36,853.492 1259.09,887.958 1282.25,915.748 1328.22,926.398 1433.24,888.239 1590.86,738.565 1634,566.659 1480.93,584.447 1334.95,673.326 1249.47,738.72 1204.49,792.585 1178.31,845.122 1158.16,882.166 1119.77,920.785 1051.07,942.039 914.467,890.013 837.375,713.153 931.061,556.98 1062.52,583.16 1153.03,672.79 1192.98,751.2 1209.81,824.815 1212.28,866.982 1210.56,903.804 1204.88,936.979 1192.1,969.115 1157.87,1003.76 1075.51,1028 907.009,981.754 768.503,743.771 851.23,501.689 1036.34,488.626 1173.28,588.886 1256,696.229 1293.36,760.842 1324.35,803.768 1363.6,822.901 1430.38,808.444 1527.8,725.07 1553.15,631.327 1470.47,633.073 1369.01,695.477 1318.73,750.406 1306.4,799.075 1335.16,839.17 1392,839.779 1517.86,754.991 1574.37,632.497 1480.78,619.656 1371.16,683.794 1305.35,747.404 1284.85,798.984 1297.53,849.139 1331.72,869.912 1426.41,848.564 1563.13,723.335 1583.84,593.773 1451.62,621.369 1331.75,700.339 1278.33,753.846 1257.14,793.897 1249.82,834.993 1252.5,869.072 1264,900.257 1289.42,923.288 1355.98,924.329 1500.35,841.216 1635.84,657.042 1579.21,548.422 1411.78,622.7 1281.66,710.688 1209.82,780.991 1183.38,828.323 1161.78,870.5 1129.34,909.089 1068.49,936.31 948.937,911.581 844.801,757.481 902.623,575.057 1037.79,573.014 1140.55,660.909 1188.31,749.279 1203.61,813.368 1206.18,860.433 1202.51,900.206 1192.31,936.129 1168.76,971.378 1099.52,1006.23 957.833,990.838 798.026,811.323 843.035,531.685 1029.73,501.897 1176.11,612.514 1253.58,725.083 1285.69,787.872 1315.07,827.93 1359.28,844.996 1439.19,821.019 1555.56,706.813 1562.45,609.498 1452.67,631.558 1343.82,704.331 1294.02,762.197 1281.28,809.48 1293.96,852.011 1328.27,873.998 1414.77,857.895 1555.28,738.936 1595.68,599.089 1469.67,610.229 1346.44,686.62 1276.85,750.95 1251.94,795.958 1243.55,843.231 1245.41,876.247 1255.04,909.522 1275.43,933.936 1332.1,942.458 1462.78,881.813 1625.07,700.903 1621.4,540.823 1441.45,600.26 1290.39,697.979 1211.17,763.928 1176.08,812.725 1150.82,855.276 1116.56,892.802 1055.27,916.968 943.634,885.857 858.856,736.269 923.567,586.929 1045.64,596.793 1133.23,679.66 1171.85,763.808 1179.21,828.386 1169,880.599 1140.95,923.192 1072.98,955.543 921.291,913.874 824.792,726.64 902.616,552.191 1046.2,559.053 1149.43,646.879 1200.61,731.006 1224.75,802.928 1235.19,852.053 1242.87,886.333 1254.9,917.559 1276.74,940.245 1326.01,947.356 1437.79,901.912 1602.96,741.424 1649.26,553.684 1483.7,575.212 1329.23,669.4 1238.54,734.834 1187.19,788.213 1156.25,837.354 1128.81,873.817 1078.71,905.431 992.767,904.4 878.102,793.108 887.217,628.564 1004.24,585.709 1113.56,661.922 1160.56,747.189 1171.76,813.146 1161.45,872.178 1132.15,914.757 1058.46,945.243 912.329,892.671 834.365,701.539 925.564,554.973 1062.08,579.475 1152.09,666.376 1193.89,743.84 1213.22,817.092 1217.83,861.507 1218.77,897.897 1218.03,925.383 1215.61,953.489 1210.63,979.177 1197.48,1007.76 1164.95,1035.09 1085.49,1055.84 915.091,1016.74 751.075,778.129 818.977,493.756 1022.34,457.219 1181.84,566.276 1278.1,682.983 1318.11,743.489 1353.74,782.555 1395.31,793.205 1460.37,766.789 1526.41,688.084 1507.81,642.046 1428.97,668.704 1361.21,723.874 1339.66,770.899 1360.97,803.974 1423.53,797.354 1515.9,720.811 1528.57,638.737 1442.21,656.456 1356.96,720.365 1329.31,772.042 1346.14,811.222 1405.54,813.505 1507.66,742.611 1547.14,638.92 1460.12,641.726 1365.35,703.558 1320.81,760.703 1319.72,807.014 1361.31,833.153 1442.03,809.044 1553.5,691.567 1534.18,614.449 1420.17,656.118 1329.69,727.953 1298.66,787.351 1308.67,832.624 1350.18,853.782 1445.15,823.854 1568.14,693.442 1551.7,599.338 1423.9,644.424 1318.83,722.826 1277.27,786.332 1274.02,832.952 1291.87,870.228 1335.13,888.365 1443.65,852.171 1586.38,704.997 1586.05,577.305 1438.19,621.964 1311.44,707.852 1252.13,771.474 1231.72,820.246 1224.35,864.44 1221.69,898.574 1219.91,927.781 1217.93,952.453 1214.2,977.958 1206.56,1002.24 1188.05,1027.17 1142.88,1051.17 1029.36,1060.25 839.948,964.041 743.369,643.124 888.414,444.627 1084.46,482.763 1203.86,582.565 1286.89,686.557 1324.97,742.718 1359.29,778.19 1399.92,787.428 1461.14,761.734 1521.44,689.204 1504.44,646.465 1430.66,670.627 1366.09,723.234 1345.91,768.308 1368.82,798.991 1432.89,787.755 1518.19,709.649 1515.9,640.823 1430.83,666.142 1354.86,729.029 1336.67,778.189 1367.47,809.723 1439.19,792.281 1533.61,695.79 1514.27,631.827 1416.68,669.609 1342.76,734.34 1325.37,787.65 1357.76,821.377 1429.87,807.186 1539.05,703.844 1532.15,623.232 1425.72,657.825 1337.66,728.219 1310.52,785.472 1327.5,827.717 1381.38,837.606 1492.99,775.661 1570.64,647.1 1492.39,617.829 1381.1,679.08 1312.12,743.785 1290.79,797.564 1309.08,848.419 1350.93,863.286 1467.08,816.498 1582.52,676.719 1542.15,592.43 1409.44,649.12 1309.11,725.603 1267.04,788.812 1260.79,833.638 1270.45,873.188 1296.2,900.404 1360.85,904.325 1517.67,809.017 1628.23,632.346 1558.2,563.678 1407.62,632.767 1295.24,710.664 1237.82,767.792 1210.81,818.683 1196.34,862.149 1182.31,898.859 1157.27,936.211 1108.31,967.58 999.088,971.517 849.17,857.274 825.658,614.972 977.906,518.768 1120.37,592.78 1197.36,686.952 1236.58,767.868 1258.69,829.818 1275.66,864.676 1307.73,891.69 1366.23,893.072 1492.81,822.868 1611.78,663.7 1565.45,568.902 1418.68,629.947 1300.07,712.407 1243.62,772.737 1221.06,823.136 1210.7,866.602 1203.14,899.925 1190.48,935.754 1167.33,968.359 1113.65,998.969 992.288,999.37 827.775,870.36 806.782,591.218 982.11,491.149 1136.11,575.144 1220.03,674.177 1265.69,755.89 1295.47,811.965 1325.61,841.002 1381.51,847.06 1477.26,798.452 1576.14,668.965 1538.35,601.152 1419.5,648.342 1324.52,719.341 1283.24,777.449 1276.8,823.189 1291.81,861.438 1329.46,882.034 1421.82,860.214 1565.44,731.981 1598.41,590.922 1464.63,609.792 1338.75,689.034 1269.6,752.903 1243.09,800.804 1233.43,848.981 1232.5,881.905 1234.99,913.551 1241.17,940.811 1255.68,965.198 1297.55,979.039 1390.77,951.472 1571.73,807.381 1683.58,573.404 1568.67,527.218 1384.7,624.249 1262.56,703.72 1183.94,762.471 1147.19,802.677 1115.91,840.165 1075.93,868.472 1009.25,874.543 916.478,805.764 900.634,673.396 983.336,615.382 1081.25,667.08 1125.19,740.879 1131.96,812.619 1097.71,873.104 1030.57,893.978 909.657,822.204 887.236,663.79 993.03,599.578 1095.14,661.461 1143.7,746.539 1151.65,817.472 1128.26,878.124 1075.1,913.381 952.79,892.946 858.781,742.037 929.496,582.906 1054.29,600.85 1140.5,689.227 1175.48,774.445 1179.42,843.745 1165.91,892.209 1129.82,935.15 1043.37,959.902 885.547,882.382 827.074,663.39 943.711,536.134 1085.22,581.743 1169.63,671.496 1211.84,753.145 1232.73,826.01 1241.8,866.269 1253.02,900.782 1272.14,927.223 1312.84,940.753 1405.22,914.644 1568.93,780.036 1654.74,583.777 1541.47,552.648 1378.59,639.815 1271.75,712.965 1208.07,770.546 1176.78,817.432 1154.12,856.973 1121.76,894.254 1065.5,919.921 959.496,900.545 860.131,765.071 901.752,596.433 1026.07,583.185 1127,665.075 1172.8,752.358 1184.07,811.322 1179.97,867.513 1162.68,910.017 1119.81,949.321 1012.32,963.287 862.189,860.366 832.898,623.615 982.587,529.781 1119.1,603.528 1193.2,698.822 1227.44,777.043 1245.1,838.179 1256.74,873.072 1277.93,905.163 1315.61,920.865 1402.96,900.345 1558.09,776.699 1640.19,595.634 1534.83,563.445 1381.44,644.522 1279.65,716.302 1222.73,772.872 1194.79,822.736 1177.43,862.862 1154.13,901.921 1113.16,935.716 1029.42,950.887 886.958,872.689 832.76,673.021 951.066,543.485 1083.77,588.909 1167.14,680.207 1205.09,758.521 1221.93,826.574 1227.53,866.585 1231.84,900.647 1236.91,928.252 1246.38,953.892 1265.85,973.327 1312.03,978.5 1421.09,935.445 1597.87,775.875 1679.71,552.09 1541.53,537.105 1361.87,638.612 1251.39,711.019 1178.68,766.926 1143.38,806.726 1112.23,843.002 1070.23,870.049 1000.91,871.87 909.317,791.517 906.569,661.697 994.634,617.032 1089.53,677.429 1127.85,751.941 1129.18,822.023 1092.36,875.95 1017.63,892.068 901.437,807.359 895.238,648.555 1005,602.912 1105.6,675.424 1146.6,760.621 1148.42,830.576 1119.66,885.623 1054.78,916.057 922.954,868.156 859.144,696.333 960.208,576.372 1077.87,619.143 1150.2,708.638 1175.98,784.678 1175.48,856.409 1158.39,900.773 1111.35,942.795 1002.26,952.175 854.936,832.96 851.608,604.106 1003.73,542.686 1134.6,630.051 1197.94,726.36 1222.99,798.47 1234.45,852.72 1242.09,887.951 1254.14,919.841 1276.33,942.728 1327.23,949.219 1443.78,899.693 1611,731.391 1645.54,547.026 1472.42,580.5 1318.34,676.026 1231.68,739.346 1182.67,791.787 1151.71,840.451 1122.62,876.264 1068.47,905.468 976.615,895.535 872.921,771.113 902.122,614.153 1020.21,593.309 1119.06,672.428 1161.39,758.545 1168.33,824.609 1153.19,880.504 1115.24,921.665 1021.94,940.214 879.551,848.674 850.306,640.334 984.432,553.493 1109.47,621.628 1176.73,714.467 1201.85,783.958 1210.16,838.635 1210.96,875.934 1207.87,911.723 1200.46,943.321 1183.17,976.031 1134.26,1011.05 1027.97,1023.08 848.63,925.022 775.827,639.194 916.624,475.815 1091.16,522.625 1195.52,618.165 1262.84,714.64 1296.6,774.812 1326.17,812.168 1368.65,827.981 1440.21,806.892 1541.52,709.611 1551.23,622.68 1457.95,636.626 1356.14,703.775 1310.64,758.382 1301.82,806.025 1327.48,843.135 1383.39,847.294 1505.66,773.034 1580.79,641.671 1498.51,609.871 1382.49,672.583 1306.88,738.891 1279.11,793.164 1284.22,847.355 1309.19,874.274 1379.55,876.435 1519.95,785.528 1608.63,624.911 1525.82,585.19 1389.26,654.343 1297.72,723.739 1255.06,776.412 1237.78,827.197 1234.55,864.024 1235.97,895.851 1241.54,925.702 1253.75,951.14 1285.87,969.615 1365.26,956.251 1528.58,846.454 1673.34,621.089 1601.63,523.214 1416.6,606.764 1274.9,698.428 1191.41,761.819 1154.4,804.249 1123.6,843.982 1084.17,874.66 1016.47,884.581 916.603,819.584 890.522,678.099 975.264,606.716 1078.02,653.517 1129.57,729.887 1142.99,803.388 1116.92,872.182 1063.7,903.127 939.374,869.945 867.369,717.695 951.37,588.844 1065.36,620.579 1138.91,707.157 1164.81,787.134 1156.63,865.005 1128.16,907.02 1046.57,937.734 903.231,873.644 844.416,673.76 966.781,555.643 1092.39,609.557 1167.74,703.505 1195.67,773.818 1205.19,831.823 1205.58,868.557 1200.5,908.088 1189.47,940.903 1162.18,976.3 1085.15,1007.97 937.242,980.201 790.384,782.153 860.573,517.121 1041.9,507.865 1176.81,614.036 1260.3,739.205 1288.48,794.416 1320.17,833.12 1367.46,845.718 1456.19,811.167 1566.17,687.844 1550.43,604.398 1434.41,641.074 1330.65,715.746 1287.77,773.973 1280.95,820.483 1297.87,858.884 1339.49,876.967 1441.07,844.793 1576.62,708.22 1580.84,586.105 1443.12,623.708 1320.69,706.42 1263.8,768.616 1246.14,812.666 1241.96,854.376 1245.4,888.057 1256.31,918.766 1280.72,941.801 1352.47,941.433 1498.46,856.771 1649.43,652.624 1588.07,536.969 1406.63,619.809 1270.44,710.592 1189.84,785.49 1164.18,825.611 1135.47,867.813 1094.63,900.003 1016.71,910.948 896.897,830.599 870.001,663.152 974.737,580.675 1088.85,634.153 1149.86,717.862 1171.32,789.688 1167.75,857.941 1146.62,901.954 1090.59,940.589 965.788,930.317 842.494,781.163 888.807,573.528 1034.72,562.617 1147.16,656.915 1199.31,752.936 1216.14,819.887 1221.47,867.747 1223.38,903.453 1224.43,931.897 1225.36,953.765 1227,976.355 1230.09,996.32 1237.39,1014.6 1254.86,1026.86 1299.23,1025.1 1412.08,975.954 1604.97,805.135 1714.56,535.937 1571.68,506.994 1367.35,622.122 1240.96,701.104 1151.85,755.357 1112.35,785.558 1077.45,813.807 1039.26,829.458 984.353,818.513 935.384,751.518 951.882,676.439 1016.79,666.851 1071.95,718.115 1086.09,779.46 1054.63,829.596 987.502,828.14 927.039,741.574 965.697,658.18 1043.44,675.401 1088.91,742.098 1085.99,809.213 1013.3,844.633 938.109,791.932 939.36,665.959 1021.48,653.379 1090.65,725.718 1099.8,798.707 1049.93,852.425 967.862,835.662 911.016,709.383 980.78,635.773 1068.88,678.484 1109.34,754.658 1102.7,824.289 1044.86,866.31 952.273,836.797 902.076,698.223 981.319,623.997 1074.99,670.862 1119.46,749.764 1119.16,821.608 1072.2,874.322 986.403,873.285 890.565,752.522 935.772,620.954 1044.93,630.436 1118.1,711.001 1140.07,794.483 1118.44,863.926 1063.92,898.802 943.904,869.019 870.747,714.948 956.092,591.95 1068.62,627.163 1138.61,714.075 1161.18,793.281 1147.92,870.193 1113.22,910.219 1014.05,929.062 878.116,830.417 866.938,625.877 1002.4,566.458 1121.75,646.664 1170.88,723.418 1190.27,781.823 1196.4,833.99 1193.3,877.027 1181.58,916.127 1155.35,952.612 1086.89,985.117 941.644,960.063 808.508,782.383 870.437,536.522 1037.14,525.747 1165.06,626.871 1235.42,736.815 1262.43,800.746 1283.75,843.459 1315.69,871.345 1374.93,873.628 1491.89,808.425 1599.46,659.798 1548.69,582.407 1413.3,640.616 1307.62,717.031 1258.5,776.272 1243.15,821.496 1240.41,859.923 1244.13,893.591 1254.58,923.079 1278.63,946.112 1349.43,946.05 1493.08,864.512 1649.64,659.425 1597.13,533.602 1412.03,615.16 1269.76,709.247 1189.82,780.521 1159.76,825.086 1129.5,866.969 1083.76,898.754 999.353,901.953 884.188,798.079 888.007,635.164 1002.34,589.374 1110.36,663.615 1156.62,748.388 1166.6,815.995 1152.79,875.124 1116.95,916.701 1027.58,937.791 885.798,853.129 850.035,649.385 979.909,555.844 1103.92,619.591 1172.62,712.153 1197.75,780.467 1205.98,836.297 1205.95,873.323 1200.51,912.114 1188.82,944.979 1159.66,980.358 1078.23,1010.37 925.049,974.882 785.071,762.321 852.089,522.551 1029.26,501.342 1165.84,600.563 1243.72,706.26 1278.64,773.021 1305.89,817.436 1341.99,841.615 1405.51,836.103 1513.3,761.502 1577.3,639.899 1504.55,610.212 1390.83,668.827 1315.84,732.113 1285.06,785.997 1286.11,834.608 1309.32,865.045 1367.79,872.834 1493.74,804.39 1599.15,652.377 1532.07,587.065 1396.97,652.061 1300.25,725.929 1257.56,784.084 1245.58,831.419 1246.03,867.323 1254.61,901.897 1273.73,927.998 1323.97,940.044 1451.7,886.868 1614.46,715.565 1626.72,545.67 1449.84,596.569 1300.44,692.232 1221.64,755.795 1183.07,806.691 1157.67,851.674 1127.55,889.559 1072.55,918.664 971.369,906.829 862.617,775.273 895.116,602.273 1021.39,581.114 1126.61,664.327 1173.23,753.146 1184.33,812.218 1179.98,868.686 1162.35,911.177 1118.46,950.483 1007.74,962.784 858.134,854.603 835.91,615.591 988.206,530.333 1124.67,608.569 1196.35,703.912 1229.16,781.213 1246.17,840.194 1258.34,875.164 1280.57,906.252 1321.05,920.362 1414.48,893.98 1570.44,760.781 1636.94,584.331 1500.74,577.098 1354.7,662.051 1261.71,731.443 1213.5,786.848 1187.66,840.332 1170.72,877.281 1140.12,917.714 1086.42,946.664 970.385,936.56 845.126,800.059 869.276,587.54 1012.69,550.328 1033.27,558.197 "/>
</svg>
