<?xml version="1.0" encoding="utf-8"?>
<svg xmlns="http://www.w3.org/2000/svg" xmlns:xlink="http://www.w3.org/1999/xlink" width="600" height="400" viewBox="0 0 2400 1600">
<defs>
  <clipPath id="clip810">
    <rect x="0" y="0" width="2400" height="1600"/>
  </clipPath>
</defs>
<path clip-path="url(#clip810)" d="M0 1600 L2400 1600 L2400 0 L0 0  Z" fill="#ffffff" fill-rule="evenodd" fill-opacity="1"/>
<defs>
  <clipPath id="clip811">
    <rect x="480" y="0" width="1681" height="1600"/>
  </clipPath>
</defs>
<path clip-path="url(#clip810)" d="M219.38 1423.18 L2352.76 1423.18 L2352.76 47.2441 L219.38 47.2441  Z" fill="#ffffff" fill-rule="evenodd" fill-opacity="1"/>
<defs>
  <clipPath id="clip812">
    <rect x="219" y="47" width="2134" height="1377"/>
  </clipPath>
</defs>
<polyline clip-path="url(#clip812)" style="stroke:#000000; stroke-linecap:round; stroke-linejoin:round; stroke-width:2; stroke-opacity:0.1; fill:none" points="617.209,1423.18 617.209,47.2441 "/>
<polyline clip-path="url(#clip812)" style="stroke:#000000; stroke-linecap:round; stroke-linejoin:round; stroke-width:2; stroke-opacity:0.1; fill:none" points="1048.73,1423.18 1048.73,47.2441 "/>
<polyline clip-path="url(#clip812)" style="stroke:#000000; stroke-linecap:round; stroke-linejoin:round; stroke-width:2; stroke-opacity:0.1; fill:none" points="1480.25,1423.18 1480.25,47.2441 "/>
<polyline clip-path="url(#clip812)" style="stroke:#000000; stroke-linecap:round; stroke-linejoin:round; stroke-width:2; stroke-opacity:0.1; fill:none" points="1911.77,1423.18 1911.77,47.2441 "/>
<polyline clip-path="url(#clip812)" style="stroke:#000000; stroke-linecap:round; stroke-linejoin:round; stroke-width:2; stroke-opacity:0.1; fill:none" points="2343.3,1423.18 2343.3,47.2441 "/>
<polyline clip-path="url(#clip810)" style="stroke:#000000; stroke-linecap:round; stroke-linejoin:round; stroke-width:4; stroke-opacity:1; fill:none" points="219.38,1423.18 2352.76,1423.18 "/>
<polyline clip-path="url(#clip810)" style="stroke:#000000; stroke-linecap:round; stroke-linejoin:round; stroke-width:4; stroke-opacity:1; fill:none" points="617.209,1423.18 617.209,1404.28 "/>
<polyline clip-path="url(#clip810)" style="stroke:#000000; stroke-linecap:round; stroke-linejoin:round; stroke-width:4; stroke-opacity:1; fill:none" points="1048.73,1423.18 1048.73,1404.28 "/>
<polyline clip-path="url(#clip810)" style="stroke:#000000; stroke-linecap:round; stroke-linejoin:round; stroke-width:4; stroke-opacity:1; fill:none" points="1480.25,1423.18 1480.25,1404.28 "/>
<polyline clip-path="url(#clip810)" style="stroke:#000000; stroke-linecap:round; stroke-linejoin:round; stroke-width:4; stroke-opacity:1; fill:none" points="1911.77,1423.18 1911.77,1404.28 "/>
<polyline clip-path="url(#clip810)" style="stroke:#000000; stroke-linecap:round; stroke-linejoin:round; stroke-width:4; stroke-opacity:1; fill:none" points="2343.3,1423.18 2343.3,1404.28 "/>
<path clip-path="url(#clip810)" d="M587.151 1468.75 L616.827 1468.75 L616.827 1472.69 L587.151 1472.69 L587.151 1468.75 Z" fill="#000000" fill-rule="nonzero" fill-opacity="1" /><path clip-path="url(#clip810)" d="M630.947 1481.64 L647.267 1481.64 L647.267 1485.58 L625.322 1485.58 L625.322 1481.64 Q627.984 1478.89 632.568 1474.26 Q637.174 1469.61 638.355 1468.27 Q640.6 1465.74 641.48 1464.01 Q642.382 1462.25 642.382 1460.56 Q642.382 1457.8 640.438 1456.07 Q638.517 1454.33 635.415 1454.33 Q633.216 1454.33 630.762 1455.09 Q628.332 1455.86 625.554 1457.41 L625.554 1452.69 Q628.378 1451.55 630.832 1450.97 Q633.285 1450.39 635.322 1450.39 Q640.693 1450.39 643.887 1453.08 Q647.081 1455.77 647.081 1460.26 Q647.081 1462.39 646.271 1464.31 Q645.484 1466.2 643.378 1468.8 Q642.799 1469.47 639.697 1472.69 Q636.595 1475.88 630.947 1481.64 Z" fill="#000000" fill-rule="nonzero" fill-opacity="1" /><path clip-path="url(#clip810)" d="M1048.73 1454.1 Q1045.12 1454.1 1043.29 1457.66 Q1041.49 1461.2 1041.49 1468.33 Q1041.49 1475.44 1043.29 1479.01 Q1045.12 1482.55 1048.73 1482.55 Q1052.37 1482.55 1054.17 1479.01 Q1056 1475.44 1056 1468.33 Q1056 1461.2 1054.17 1457.66 Q1052.37 1454.1 1048.73 1454.1 M1048.73 1450.39 Q1054.54 1450.39 1057.6 1455 Q1060.68 1459.58 1060.68 1468.33 Q1060.68 1477.06 1057.6 1481.67 Q1054.54 1486.25 1048.73 1486.25 Q1042.92 1486.25 1039.84 1481.67 Q1036.79 1477.06 1036.79 1468.33 Q1036.79 1459.58 1039.84 1455 Q1042.92 1450.39 1048.73 1450.39 Z" fill="#000000" fill-rule="nonzero" fill-opacity="1" /><path clip-path="url(#clip810)" d="M1474.91 1481.64 L1491.23 1481.64 L1491.23 1485.58 L1469.28 1485.58 L1469.28 1481.64 Q1471.94 1478.89 1476.53 1474.26 Q1481.13 1469.61 1482.31 1468.27 Q1484.56 1465.74 1485.44 1464.01 Q1486.34 1462.25 1486.34 1460.56 Q1486.34 1457.8 1484.4 1456.07 Q1482.48 1454.33 1479.37 1454.33 Q1477.17 1454.33 1474.72 1455.09 Q1472.29 1455.86 1469.51 1457.41 L1469.51 1452.69 Q1472.34 1451.55 1474.79 1450.97 Q1477.24 1450.39 1479.28 1450.39 Q1484.65 1450.39 1487.85 1453.08 Q1491.04 1455.77 1491.04 1460.26 Q1491.04 1462.39 1490.23 1464.31 Q1489.44 1466.2 1487.34 1468.8 Q1486.76 1469.47 1483.66 1472.69 Q1480.55 1475.88 1474.91 1481.64 Z" fill="#000000" fill-rule="nonzero" fill-opacity="1" /><path clip-path="url(#clip810)" d="M1914.78 1455.09 L1902.98 1473.54 L1914.78 1473.54 L1914.78 1455.09 M1913.56 1451.02 L1919.44 1451.02 L1919.44 1473.54 L1924.37 1473.54 L1924.37 1477.43 L1919.44 1477.43 L1919.44 1485.58 L1914.78 1485.58 L1914.78 1477.43 L1899.18 1477.43 L1899.18 1472.92 L1913.56 1451.02 Z" fill="#000000" fill-rule="nonzero" fill-opacity="1" /><path clip-path="url(#clip810)" d="M2343.7 1466.44 Q2340.55 1466.44 2338.7 1468.59 Q2336.87 1470.74 2336.87 1474.49 Q2336.87 1478.22 2338.7 1480.39 Q2340.55 1482.55 2343.7 1482.55 Q2346.85 1482.55 2348.68 1480.39 Q2350.53 1478.22 2350.53 1474.49 Q2350.53 1470.74 2348.68 1468.59 Q2346.85 1466.44 2343.7 1466.44 M2352.98 1451.78 L2352.98 1456.04 Q2351.23 1455.21 2349.42 1454.77 Q2347.64 1454.33 2345.88 1454.33 Q2341.25 1454.33 2338.79 1457.45 Q2336.36 1460.58 2336.02 1466.9 Q2337.38 1464.89 2339.44 1463.82 Q2341.5 1462.73 2343.98 1462.73 Q2349.19 1462.73 2352.2 1465.9 Q2355.23 1469.05 2355.23 1474.49 Q2355.23 1479.82 2352.08 1483.03 Q2348.93 1486.25 2343.7 1486.25 Q2337.71 1486.25 2334.54 1481.67 Q2331.36 1477.06 2331.36 1468.33 Q2331.36 1460.14 2335.25 1455.28 Q2339.14 1450.39 2345.69 1450.39 Q2347.45 1450.39 2349.23 1450.74 Q2351.04 1451.09 2352.98 1451.78 Z" fill="#000000" fill-rule="nonzero" fill-opacity="1" /><path clip-path="url(#clip810)" d="M1302.68 1532.4 L1289.79 1549.74 L1303.35 1568.04 L1296.44 1568.04 L1286.07 1554.04 L1275.69 1568.04 L1268.79 1568.04 L1282.63 1549.39 L1269.96 1532.4 L1276.87 1532.4 L1286.32 1545.1 L1295.78 1532.4 L1302.68 1532.4 Z" fill="#000000" fill-rule="nonzero" fill-opacity="1" /><polyline clip-path="url(#clip812)" style="stroke:#000000; stroke-linecap:round; stroke-linejoin:round; stroke-width:2; stroke-opacity:0.1; fill:none" points="219.38,1423.18 2352.76,1423.18 "/>
<polyline clip-path="url(#clip812)" style="stroke:#000000; stroke-linecap:round; stroke-linejoin:round; stroke-width:2; stroke-opacity:0.1; fill:none" points="219.38,1078.52 2352.76,1078.52 "/>
<polyline clip-path="url(#clip812)" style="stroke:#000000; stroke-linecap:round; stroke-linejoin:round; stroke-width:2; stroke-opacity:0.1; fill:none" points="219.38,733.852 2352.76,733.852 "/>
<polyline clip-path="url(#clip812)" style="stroke:#000000; stroke-linecap:round; stroke-linejoin:round; stroke-width:2; stroke-opacity:0.1; fill:none" points="219.38,389.188 2352.76,389.188 "/>
<polyline clip-path="url(#clip810)" style="stroke:#000000; stroke-linecap:round; stroke-linejoin:round; stroke-width:4; stroke-opacity:1; fill:none" points="219.38,1423.18 219.38,47.2441 "/>
<polyline clip-path="url(#clip810)" style="stroke:#000000; stroke-linecap:round; stroke-linejoin:round; stroke-width:4; stroke-opacity:1; fill:none" points="219.38,1423.18 238.278,1423.18 "/>
<polyline clip-path="url(#clip810)" style="stroke:#000000; stroke-linecap:round; stroke-linejoin:round; stroke-width:4; stroke-opacity:1; fill:none" points="219.38,1078.52 238.278,1078.52 "/>
<polyline clip-path="url(#clip810)" style="stroke:#000000; stroke-linecap:round; stroke-linejoin:round; stroke-width:4; stroke-opacity:1; fill:none" points="219.38,733.852 238.278,733.852 "/>
<polyline clip-path="url(#clip810)" style="stroke:#000000; stroke-linecap:round; stroke-linejoin:round; stroke-width:4; stroke-opacity:1; fill:none" points="219.38,389.188 238.278,389.188 "/>
<path clip-path="url(#clip810)" d="M126.205 1408.98 Q122.593 1408.98 120.765 1412.54 Q118.959 1416.08 118.959 1423.21 Q118.959 1430.32 120.765 1433.89 Q122.593 1437.43 126.205 1437.43 Q129.839 1437.43 131.644 1433.89 Q133.473 1430.32 133.473 1423.21 Q133.473 1416.08 131.644 1412.54 Q129.839 1408.98 126.205 1408.98 M126.205 1405.27 Q132.015 1405.27 135.07 1409.88 Q138.149 1414.46 138.149 1423.21 Q138.149 1431.94 135.07 1436.55 Q132.015 1441.13 126.205 1441.13 Q120.394 1441.13 117.316 1436.55 Q114.26 1431.94 114.26 1423.21 Q114.26 1414.46 117.316 1409.88 Q120.394 1405.27 126.205 1405.27 Z" fill="#000000" fill-rule="nonzero" fill-opacity="1" /><path clip-path="url(#clip810)" d="M146.366 1434.58 L151.251 1434.58 L151.251 1440.46 L146.366 1440.46 L146.366 1434.58 Z" fill="#000000" fill-rule="nonzero" fill-opacity="1" /><path clip-path="url(#clip810)" d="M171.436 1408.98 Q167.825 1408.98 165.996 1412.54 Q164.19 1416.08 164.19 1423.21 Q164.19 1430.32 165.996 1433.89 Q167.825 1437.43 171.436 1437.43 Q175.07 1437.43 176.876 1433.89 Q178.704 1430.32 178.704 1423.21 Q178.704 1416.08 176.876 1412.54 Q175.07 1408.98 171.436 1408.98 M171.436 1405.27 Q177.246 1405.27 180.301 1409.88 Q183.38 1414.46 183.38 1423.21 Q183.38 1431.94 180.301 1436.55 Q177.246 1441.13 171.436 1441.13 Q165.626 1441.13 162.547 1436.55 Q159.491 1431.94 159.491 1423.21 Q159.491 1414.46 162.547 1409.88 Q165.626 1405.27 171.436 1405.27 Z" fill="#000000" fill-rule="nonzero" fill-opacity="1" /><path clip-path="url(#clip810)" d="M127.431 1064.31 Q123.82 1064.31 121.992 1067.88 Q120.186 1071.42 120.186 1078.55 Q120.186 1085.66 121.992 1089.22 Q123.82 1092.76 127.431 1092.76 Q131.066 1092.76 132.871 1089.22 Q134.7 1085.66 134.7 1078.55 Q134.7 1071.42 132.871 1067.88 Q131.066 1064.31 127.431 1064.31 M127.431 1060.61 Q133.242 1060.61 136.297 1065.22 Q139.376 1069.8 139.376 1078.55 Q139.376 1087.28 136.297 1091.88 Q133.242 1096.47 127.431 1096.47 Q121.621 1096.47 118.543 1091.88 Q115.487 1087.28 115.487 1078.55 Q115.487 1069.8 118.543 1065.22 Q121.621 1060.61 127.431 1060.61 Z" fill="#000000" fill-rule="nonzero" fill-opacity="1" /><path clip-path="url(#clip810)" d="M147.593 1089.92 L152.478 1089.92 L152.478 1095.8 L147.593 1095.8 L147.593 1089.92 Z" fill="#000000" fill-rule="nonzero" fill-opacity="1" /><path clip-path="url(#clip810)" d="M163.473 1091.86 L171.112 1091.86 L171.112 1065.5 L162.802 1067.16 L162.802 1062.9 L171.065 1061.24 L175.741 1061.24 L175.741 1091.86 L183.38 1091.86 L183.38 1095.8 L163.473 1095.8 L163.473 1091.86 Z" fill="#000000" fill-rule="nonzero" fill-opacity="1" /><path clip-path="url(#clip810)" d="M127.802 719.651 Q124.191 719.651 122.362 723.216 Q120.556 726.757 120.556 733.887 Q120.556 740.993 122.362 744.558 Q124.191 748.1 127.802 748.1 Q131.436 748.1 133.242 744.558 Q135.07 740.993 135.07 733.887 Q135.07 726.757 133.242 723.216 Q131.436 719.651 127.802 719.651 M127.802 715.947 Q133.612 715.947 136.667 720.554 Q139.746 725.137 139.746 733.887 Q139.746 742.614 136.667 747.22 Q133.612 751.804 127.802 751.804 Q121.992 751.804 118.913 747.22 Q115.857 742.614 115.857 733.887 Q115.857 725.137 118.913 720.554 Q121.992 715.947 127.802 715.947 Z" fill="#000000" fill-rule="nonzero" fill-opacity="1" /><path clip-path="url(#clip810)" d="M147.964 745.253 L152.848 745.253 L152.848 751.132 L147.964 751.132 L147.964 745.253 Z" fill="#000000" fill-rule="nonzero" fill-opacity="1" /><path clip-path="url(#clip810)" d="M167.061 747.197 L183.38 747.197 L183.38 751.132 L161.436 751.132 L161.436 747.197 Q164.098 744.442 168.681 739.813 Q173.288 735.16 174.468 733.817 Q176.714 731.294 177.593 729.558 Q178.496 727.799 178.496 726.109 Q178.496 723.355 176.551 721.618 Q174.63 719.882 171.528 719.882 Q169.329 719.882 166.876 720.646 Q164.445 721.41 161.667 722.961 L161.667 718.239 Q164.491 717.105 166.945 716.526 Q169.399 715.947 171.436 715.947 Q176.806 715.947 180.001 718.632 Q183.195 721.318 183.195 725.808 Q183.195 727.938 182.385 729.859 Q181.598 731.757 179.491 734.35 Q178.913 735.021 175.811 738.239 Q172.709 741.433 167.061 747.197 Z" fill="#000000" fill-rule="nonzero" fill-opacity="1" /><path clip-path="url(#clip810)" d="M126.853 374.987 Q123.242 374.987 121.413 378.552 Q119.607 382.094 119.607 389.223 Q119.607 396.33 121.413 399.894 Q123.242 403.436 126.853 403.436 Q130.487 403.436 132.292 399.894 Q134.121 396.33 134.121 389.223 Q134.121 382.094 132.292 378.552 Q130.487 374.987 126.853 374.987 M126.853 371.283 Q132.663 371.283 135.718 375.89 Q138.797 380.473 138.797 389.223 Q138.797 397.95 135.718 402.556 Q132.663 407.14 126.853 407.14 Q121.043 407.14 117.964 402.556 Q114.908 397.95 114.908 389.223 Q114.908 380.473 117.964 375.89 Q121.043 371.283 126.853 371.283 Z" fill="#000000" fill-rule="nonzero" fill-opacity="1" /><path clip-path="url(#clip810)" d="M147.015 400.589 L151.899 400.589 L151.899 406.468 L147.015 406.468 L147.015 400.589 Z" fill="#000000" fill-rule="nonzero" fill-opacity="1" /><path clip-path="url(#clip810)" d="M176.251 387.834 Q179.607 388.552 181.482 390.82 Q183.38 393.089 183.38 396.422 Q183.38 401.538 179.862 404.339 Q176.343 407.14 169.862 407.14 Q167.686 407.14 165.371 406.7 Q163.079 406.283 160.626 405.427 L160.626 400.913 Q162.57 402.047 164.885 402.626 Q167.2 403.205 169.723 403.205 Q174.121 403.205 176.413 401.468 Q178.727 399.732 178.727 396.422 Q178.727 393.367 176.575 391.654 Q174.445 389.918 170.626 389.918 L166.598 389.918 L166.598 386.075 L170.811 386.075 Q174.26 386.075 176.089 384.709 Q177.917 383.32 177.917 380.728 Q177.917 378.066 176.019 376.654 Q174.144 375.219 170.626 375.219 Q168.704 375.219 166.505 375.635 Q164.306 376.052 161.667 376.932 L161.667 372.765 Q164.329 372.024 166.644 371.654 Q168.982 371.283 171.042 371.283 Q176.366 371.283 179.468 373.714 Q182.57 376.121 182.57 380.242 Q182.57 383.112 180.926 385.103 Q179.283 387.07 176.251 387.834 Z" fill="#000000" fill-rule="nonzero" fill-opacity="1" /><path clip-path="url(#clip810)" d="M58.657 821.133 L77.5631 821.133 L77.5631 827.021 L28.3562 827.021 L28.3562 821.133 L33.7671 821.133 Q30.5842 819.287 29.0564 816.486 Q27.4968 813.653 27.4968 809.738 Q27.4968 803.245 32.6531 799.203 Q37.8093 795.129 46.212 795.129 Q54.6147 795.129 59.771 799.203 Q64.9272 803.245 64.9272 809.738 Q64.9272 813.653 63.3994 816.486 Q61.8398 819.287 58.657 821.133 M46.212 801.208 Q39.7508 801.208 36.0905 803.882 Q32.3984 806.524 32.3984 811.171 Q32.3984 815.818 36.0905 818.491 Q39.7508 821.133 46.212 821.133 Q52.6732 821.133 56.3653 818.491 Q60.0256 815.818 60.0256 811.171 Q60.0256 806.524 56.3653 803.882 Q52.6732 801.208 46.212 801.208 Z" fill="#000000" fill-rule="nonzero" fill-opacity="1" /><path clip-path="url(#clip810)" d="M33.7671 761.964 L14.479 761.964 L14.479 756.107 L64.0042 756.107 L64.0042 761.964 L58.657 761.964 Q61.8398 763.81 63.3994 766.643 Q64.9272 769.444 64.9272 773.39 Q64.9272 779.851 59.771 783.926 Q54.6147 787.968 46.212 787.968 Q37.8093 787.968 32.6531 783.926 Q27.4968 779.851 27.4968 773.39 Q27.4968 769.444 29.0564 766.643 Q30.5842 763.81 33.7671 761.964 M46.212 781.92 Q52.6732 781.92 56.3653 779.279 Q60.0256 776.605 60.0256 771.958 Q60.0256 767.311 56.3653 764.637 Q52.6732 761.964 46.212 761.964 Q39.7508 761.964 36.0905 764.637 Q32.3984 767.311 32.3984 771.958 Q32.3984 776.605 36.0905 779.279 Q39.7508 781.92 46.212 781.92 Z" fill="#000000" fill-rule="nonzero" fill-opacity="1" /><path clip-path="url(#clip810)" d="M14.479 725.998 L19.3487 725.998 L19.3487 731.599 Q19.3487 734.75 20.6219 735.992 Q21.895 737.201 25.2052 737.201 L28.3562 737.201 L28.3562 727.557 L32.9077 727.557 L32.9077 737.201 L64.0042 737.201 L64.0042 743.09 L32.9077 743.09 L32.9077 748.691 L28.3562 748.691 L28.3562 743.09 L25.8736 743.09 Q19.9216 743.09 17.2162 740.32 Q14.479 737.551 14.479 731.536 L14.479 725.998 Z" fill="#000000" fill-rule="nonzero" fill-opacity="1" /><path clip-path="url(#clip810)" d="M14.5426 707.028 Q21.8632 711.293 29.0246 713.362 Q36.186 715.431 43.5384 715.431 Q50.8908 715.431 58.1159 713.362 Q65.3091 711.261 72.5979 707.028 L72.5979 712.12 Q65.1182 716.895 57.8931 719.282 Q50.668 721.637 43.5384 721.637 Q36.4406 721.637 29.2474 719.282 Q22.0542 716.926 14.5426 712.12 L14.5426 707.028 Z" fill="#000000" fill-rule="nonzero" fill-opacity="1" /><path clip-path="url(#clip810)" d="M28.3562 666.033 L45.7028 678.923 L64.0042 665.364 L64.0042 672.271 L49.9996 682.647 L64.0042 693.023 L64.0042 699.93 L45.3526 686.085 L28.3562 698.752 L28.3562 691.846 L41.0558 682.393 L28.3562 672.939 L28.3562 666.033 Z" fill="#000000" fill-rule="nonzero" fill-opacity="1" /><path clip-path="url(#clip810)" d="M14.5426 658.012 L14.5426 652.919 Q22.0542 648.145 29.2474 645.79 Q36.4406 643.403 43.5384 643.403 Q50.668 643.403 57.8931 645.79 Q65.1182 648.145 72.5979 652.919 L72.5979 658.012 Q65.3091 653.779 58.1159 651.71 Q50.8908 649.609 43.5384 649.609 Q36.186 649.609 29.0246 651.71 Q21.8632 653.779 14.5426 658.012 Z" fill="#000000" fill-rule="nonzero" fill-opacity="1" /><path clip-path="url(#clip812)" d="M336.72 1422.91 L336.72 1423.18 L358.296 1423.18 L358.296 1422.91 L336.72 1422.91 L336.72 1422.91  Z" fill="#009af9" fill-rule="evenodd" fill-opacity="0.5"/>
<polyline clip-path="url(#clip812)" style="stroke:#000000; stroke-linecap:round; stroke-linejoin:round; stroke-width:4; stroke-opacity:0.5; fill:none" points="336.72,1422.91 336.72,1423.18 358.296,1423.18 358.296,1422.91 336.72,1422.91 "/>
<path clip-path="url(#clip812)" d="M358.296 1422.36 L358.296 1423.18 L379.872 1423.18 L379.872 1422.36 L358.296 1422.36 L358.296 1422.36  Z" fill="#009af9" fill-rule="evenodd" fill-opacity="0.5"/>
<polyline clip-path="url(#clip812)" style="stroke:#000000; stroke-linecap:round; stroke-linejoin:round; stroke-width:4; stroke-opacity:0.5; fill:none" points="358.296,1422.36 358.296,1423.18 379.872,1423.18 379.872,1422.36 358.296,1422.36 "/>
<path clip-path="url(#clip812)" d="M379.872 1422.91 L379.872 1423.18 L401.448 1423.18 L401.448 1422.91 L379.872 1422.91 L379.872 1422.91  Z" fill="#009af9" fill-rule="evenodd" fill-opacity="0.5"/>
<polyline clip-path="url(#clip812)" style="stroke:#000000; stroke-linecap:round; stroke-linejoin:round; stroke-width:4; stroke-opacity:0.5; fill:none" points="379.872,1422.91 379.872,1423.18 401.448,1423.18 401.448,1422.91 379.872,1422.91 "/>
<path clip-path="url(#clip812)" d="M401.448 1422.08 L401.448 1423.18 L423.024 1423.18 L423.024 1422.08 L401.448 1422.08 L401.448 1422.08  Z" fill="#009af9" fill-rule="evenodd" fill-opacity="0.5"/>
<polyline clip-path="url(#clip812)" style="stroke:#000000; stroke-linecap:round; stroke-linejoin:round; stroke-width:4; stroke-opacity:0.5; fill:none" points="401.448,1422.08 401.448,1423.18 423.024,1423.18 423.024,1422.08 401.448,1422.08 "/>
<path clip-path="url(#clip812)" d="M423.024 1422.91 L423.024 1423.18 L444.6 1423.18 L444.6 1422.91 L423.024 1422.91 L423.024 1422.91  Z" fill="#009af9" fill-rule="evenodd" fill-opacity="0.5"/>
<polyline clip-path="url(#clip812)" style="stroke:#000000; stroke-linecap:round; stroke-linejoin:round; stroke-width:4; stroke-opacity:0.5; fill:none" points="423.024,1422.91 423.024,1423.18 444.6,1423.18 444.6,1422.91 423.024,1422.91 "/>
<path clip-path="url(#clip812)" d="M444.6 1421.53 L444.6 1423.18 L466.176 1423.18 L466.176 1421.53 L444.6 1421.53 L444.6 1421.53  Z" fill="#009af9" fill-rule="evenodd" fill-opacity="0.5"/>
<polyline clip-path="url(#clip812)" style="stroke:#000000; stroke-linecap:round; stroke-linejoin:round; stroke-width:4; stroke-opacity:0.5; fill:none" points="444.6,1421.53 444.6,1423.18 466.176,1423.18 466.176,1421.53 444.6,1421.53 "/>
<path clip-path="url(#clip812)" d="M466.176 1421.53 L466.176 1423.18 L487.752 1423.18 L487.752 1421.53 L466.176 1421.53 L466.176 1421.53  Z" fill="#009af9" fill-rule="evenodd" fill-opacity="0.5"/>
<polyline clip-path="url(#clip812)" style="stroke:#000000; stroke-linecap:round; stroke-linejoin:round; stroke-width:4; stroke-opacity:0.5; fill:none" points="466.176,1421.53 466.176,1423.18 487.752,1423.18 487.752,1421.53 466.176,1421.53 "/>
<path clip-path="url(#clip812)" d="M487.752 1421.53 L487.752 1423.18 L509.328 1423.18 L509.328 1421.53 L487.752 1421.53 L487.752 1421.53  Z" fill="#009af9" fill-rule="evenodd" fill-opacity="0.5"/>
<polyline clip-path="url(#clip812)" style="stroke:#000000; stroke-linecap:round; stroke-linejoin:round; stroke-width:4; stroke-opacity:0.5; fill:none" points="487.752,1421.53 487.752,1423.18 509.328,1423.18 509.328,1421.53 487.752,1421.53 "/>
<path clip-path="url(#clip812)" d="M509.328 1421.81 L509.328 1423.18 L530.905 1423.18 L530.905 1421.81 L509.328 1421.81 L509.328 1421.81  Z" fill="#009af9" fill-rule="evenodd" fill-opacity="0.5"/>
<polyline clip-path="url(#clip812)" style="stroke:#000000; stroke-linecap:round; stroke-linejoin:round; stroke-width:4; stroke-opacity:0.5; fill:none" points="509.328,1421.81 509.328,1423.18 530.905,1423.18 530.905,1421.81 509.328,1421.81 "/>
<path clip-path="url(#clip812)" d="M530.905 1417.97 L530.905 1423.18 L552.481 1423.18 L552.481 1417.97 L530.905 1417.97 L530.905 1417.97  Z" fill="#009af9" fill-rule="evenodd" fill-opacity="0.5"/>
<polyline clip-path="url(#clip812)" style="stroke:#000000; stroke-linecap:round; stroke-linejoin:round; stroke-width:4; stroke-opacity:0.5; fill:none" points="530.905,1417.97 530.905,1423.18 552.481,1423.18 552.481,1417.97 530.905,1417.97 "/>
<path clip-path="url(#clip812)" d="M552.481 1416.6 L552.481 1423.18 L574.057 1423.18 L574.057 1416.6 L552.481 1416.6 L552.481 1416.6  Z" fill="#009af9" fill-rule="evenodd" fill-opacity="0.5"/>
<polyline clip-path="url(#clip812)" style="stroke:#000000; stroke-linecap:round; stroke-linejoin:round; stroke-width:4; stroke-opacity:0.5; fill:none" points="552.481,1416.6 552.481,1423.18 574.057,1423.18 574.057,1416.6 552.481,1416.6 "/>
<path clip-path="url(#clip812)" d="M574.057 1413.31 L574.057 1423.18 L595.633 1423.18 L595.633 1413.31 L574.057 1413.31 L574.057 1413.31  Z" fill="#009af9" fill-rule="evenodd" fill-opacity="0.5"/>
<polyline clip-path="url(#clip812)" style="stroke:#000000; stroke-linecap:round; stroke-linejoin:round; stroke-width:4; stroke-opacity:0.5; fill:none" points="574.057,1413.31 574.057,1423.18 595.633,1423.18 595.633,1413.31 574.057,1413.31 "/>
<path clip-path="url(#clip812)" d="M595.633 1410.57 L595.633 1423.18 L617.209 1423.18 L617.209 1410.57 L595.633 1410.57 L595.633 1410.57  Z" fill="#009af9" fill-rule="evenodd" fill-opacity="0.5"/>
<polyline clip-path="url(#clip812)" style="stroke:#000000; stroke-linecap:round; stroke-linejoin:round; stroke-width:4; stroke-opacity:0.5; fill:none" points="595.633,1410.57 595.633,1423.18 617.209,1423.18 617.209,1410.57 595.633,1410.57 "/>
<path clip-path="url(#clip812)" d="M617.209 1400.7 L617.209 1423.18 L638.785 1423.18 L638.785 1400.7 L617.209 1400.7 L617.209 1400.7  Z" fill="#009af9" fill-rule="evenodd" fill-opacity="0.5"/>
<polyline clip-path="url(#clip812)" style="stroke:#000000; stroke-linecap:round; stroke-linejoin:round; stroke-width:4; stroke-opacity:0.5; fill:none" points="617.209,1400.7 617.209,1423.18 638.785,1423.18 638.785,1400.7 617.209,1400.7 "/>
<path clip-path="url(#clip812)" d="M638.785 1401.25 L638.785 1423.18 L660.361 1423.18 L660.361 1401.25 L638.785 1401.25 L638.785 1401.25  Z" fill="#009af9" fill-rule="evenodd" fill-opacity="0.5"/>
<polyline clip-path="url(#clip812)" style="stroke:#000000; stroke-linecap:round; stroke-linejoin:round; stroke-width:4; stroke-opacity:0.5; fill:none" points="638.785,1401.25 638.785,1423.18 660.361,1423.18 660.361,1401.25 638.785,1401.25 "/>
<path clip-path="url(#clip812)" d="M660.361 1391.1 L660.361 1423.18 L681.937 1423.18 L681.937 1391.1 L660.361 1391.1 L660.361 1391.1  Z" fill="#009af9" fill-rule="evenodd" fill-opacity="0.5"/>
<polyline clip-path="url(#clip812)" style="stroke:#000000; stroke-linecap:round; stroke-linejoin:round; stroke-width:4; stroke-opacity:0.5; fill:none" points="660.361,1391.1 660.361,1423.18 681.937,1423.18 681.937,1391.1 660.361,1391.1 "/>
<path clip-path="url(#clip812)" d="M681.937 1387.54 L681.937 1423.18 L703.513 1423.18 L703.513 1387.54 L681.937 1387.54 L681.937 1387.54  Z" fill="#009af9" fill-rule="evenodd" fill-opacity="0.5"/>
<polyline clip-path="url(#clip812)" style="stroke:#000000; stroke-linecap:round; stroke-linejoin:round; stroke-width:4; stroke-opacity:0.5; fill:none" points="681.937,1387.54 681.937,1423.18 703.513,1423.18 703.513,1387.54 681.937,1387.54 "/>
<path clip-path="url(#clip812)" d="M703.513 1368.08 L703.513 1423.18 L725.089 1423.18 L725.089 1368.08 L703.513 1368.08 L703.513 1368.08  Z" fill="#009af9" fill-rule="evenodd" fill-opacity="0.5"/>
<polyline clip-path="url(#clip812)" style="stroke:#000000; stroke-linecap:round; stroke-linejoin:round; stroke-width:4; stroke-opacity:0.5; fill:none" points="703.513,1368.08 703.513,1423.18 725.089,1423.18 725.089,1368.08 703.513,1368.08 "/>
<path clip-path="url(#clip812)" d="M725.089 1361.77 L725.089 1423.18 L746.666 1423.18 L746.666 1361.77 L725.089 1361.77 L725.089 1361.77  Z" fill="#009af9" fill-rule="evenodd" fill-opacity="0.5"/>
<polyline clip-path="url(#clip812)" style="stroke:#000000; stroke-linecap:round; stroke-linejoin:round; stroke-width:4; stroke-opacity:0.5; fill:none" points="725.089,1361.77 725.089,1423.18 746.666,1423.18 746.666,1361.77 725.089,1361.77 "/>
<path clip-path="url(#clip812)" d="M746.666 1335.45 L746.666 1423.18 L768.242 1423.18 L768.242 1335.45 L746.666 1335.45 L746.666 1335.45  Z" fill="#009af9" fill-rule="evenodd" fill-opacity="0.5"/>
<polyline clip-path="url(#clip812)" style="stroke:#000000; stroke-linecap:round; stroke-linejoin:round; stroke-width:4; stroke-opacity:0.5; fill:none" points="746.666,1335.45 746.666,1423.18 768.242,1423.18 768.242,1335.45 746.666,1335.45 "/>
<path clip-path="url(#clip812)" d="M768.242 1306.67 L768.242 1423.18 L789.818 1423.18 L789.818 1306.67 L768.242 1306.67 L768.242 1306.67  Z" fill="#009af9" fill-rule="evenodd" fill-opacity="0.5"/>
<polyline clip-path="url(#clip812)" style="stroke:#000000; stroke-linecap:round; stroke-linejoin:round; stroke-width:4; stroke-opacity:0.5; fill:none" points="768.242,1306.67 768.242,1423.18 789.818,1423.18 789.818,1306.67 768.242,1306.67 "/>
<path clip-path="url(#clip812)" d="M789.818 1281.72 L789.818 1423.18 L811.394 1423.18 L811.394 1281.72 L789.818 1281.72 L789.818 1281.72  Z" fill="#009af9" fill-rule="evenodd" fill-opacity="0.5"/>
<polyline clip-path="url(#clip812)" style="stroke:#000000; stroke-linecap:round; stroke-linejoin:round; stroke-width:4; stroke-opacity:0.5; fill:none" points="789.818,1281.72 789.818,1423.18 811.394,1423.18 811.394,1281.72 789.818,1281.72 "/>
<path clip-path="url(#clip812)" d="M811.394 1249.92 L811.394 1423.18 L832.97 1423.18 L832.97 1249.92 L811.394 1249.92 L811.394 1249.92  Z" fill="#009af9" fill-rule="evenodd" fill-opacity="0.5"/>
<polyline clip-path="url(#clip812)" style="stroke:#000000; stroke-linecap:round; stroke-linejoin:round; stroke-width:4; stroke-opacity:0.5; fill:none" points="811.394,1249.92 811.394,1423.18 832.97,1423.18 832.97,1249.92 811.394,1249.92 "/>
<path clip-path="url(#clip812)" d="M832.97 1219.49 L832.97 1423.18 L854.546 1423.18 L854.546 1219.49 L832.97 1219.49 L832.97 1219.49  Z" fill="#009af9" fill-rule="evenodd" fill-opacity="0.5"/>
<polyline clip-path="url(#clip812)" style="stroke:#000000; stroke-linecap:round; stroke-linejoin:round; stroke-width:4; stroke-opacity:0.5; fill:none" points="832.97,1219.49 832.97,1423.18 854.546,1423.18 854.546,1219.49 832.97,1219.49 "/>
<path clip-path="url(#clip812)" d="M854.546 1179.46 L854.546 1423.18 L876.122 1423.18 L876.122 1179.46 L854.546 1179.46 L854.546 1179.46  Z" fill="#009af9" fill-rule="evenodd" fill-opacity="0.5"/>
<polyline clip-path="url(#clip812)" style="stroke:#000000; stroke-linecap:round; stroke-linejoin:round; stroke-width:4; stroke-opacity:0.5; fill:none" points="854.546,1179.46 854.546,1423.18 876.122,1423.18 876.122,1179.46 854.546,1179.46 "/>
<path clip-path="url(#clip812)" d="M876.122 1126.55 L876.122 1423.18 L897.698 1423.18 L897.698 1126.55 L876.122 1126.55 L876.122 1126.55  Z" fill="#009af9" fill-rule="evenodd" fill-opacity="0.5"/>
<polyline clip-path="url(#clip812)" style="stroke:#000000; stroke-linecap:round; stroke-linejoin:round; stroke-width:4; stroke-opacity:0.5; fill:none" points="876.122,1126.55 876.122,1423.18 897.698,1423.18 897.698,1126.55 876.122,1126.55 "/>
<path clip-path="url(#clip812)" d="M897.698 1060.21 L897.698 1423.18 L919.274 1423.18 L919.274 1060.21 L897.698 1060.21 L897.698 1060.21  Z" fill="#009af9" fill-rule="evenodd" fill-opacity="0.5"/>
<polyline clip-path="url(#clip812)" style="stroke:#000000; stroke-linecap:round; stroke-linejoin:round; stroke-width:4; stroke-opacity:0.5; fill:none" points="897.698,1060.21 897.698,1423.18 919.274,1423.18 919.274,1060.21 897.698,1060.21 "/>
<path clip-path="url(#clip812)" d="M919.274 1008.12 L919.274 1423.18 L940.85 1423.18 L940.85 1008.12 L919.274 1008.12 L919.274 1008.12  Z" fill="#009af9" fill-rule="evenodd" fill-opacity="0.5"/>
<polyline clip-path="url(#clip812)" style="stroke:#000000; stroke-linecap:round; stroke-linejoin:round; stroke-width:4; stroke-opacity:0.5; fill:none" points="919.274,1008.12 919.274,1423.18 940.85,1423.18 940.85,1008.12 919.274,1008.12 "/>
<path clip-path="url(#clip812)" d="M940.85 943.151 L940.85 1423.18 L962.427 1423.18 L962.427 943.151 L940.85 943.151 L940.85 943.151  Z" fill="#009af9" fill-rule="evenodd" fill-opacity="0.5"/>
<polyline clip-path="url(#clip812)" style="stroke:#000000; stroke-linecap:round; stroke-linejoin:round; stroke-width:4; stroke-opacity:0.5; fill:none" points="940.85,943.151 940.85,1423.18 962.427,1423.18 962.427,943.151 940.85,943.151 "/>
<path clip-path="url(#clip812)" d="M962.427 877.631 L962.427 1423.18 L984.003 1423.18 L984.003 877.631 L962.427 877.631 L962.427 877.631  Z" fill="#009af9" fill-rule="evenodd" fill-opacity="0.5"/>
<polyline clip-path="url(#clip812)" style="stroke:#000000; stroke-linecap:round; stroke-linejoin:round; stroke-width:4; stroke-opacity:0.5; fill:none" points="962.427,877.631 962.427,1423.18 984.003,1423.18 984.003,877.631 962.427,877.631 "/>
<path clip-path="url(#clip812)" d="M984.003 788.259 L984.003 1423.18 L1005.58 1423.18 L1005.58 788.259 L984.003 788.259 L984.003 788.259  Z" fill="#009af9" fill-rule="evenodd" fill-opacity="0.5"/>
<polyline clip-path="url(#clip812)" style="stroke:#000000; stroke-linecap:round; stroke-linejoin:round; stroke-width:4; stroke-opacity:0.5; fill:none" points="984.003,788.259 984.003,1423.18 1005.58,1423.18 1005.58,788.259 984.003,788.259 "/>
<path clip-path="url(#clip812)" d="M1005.58 699.436 L1005.58 1423.18 L1027.15 1423.18 L1027.15 699.436 L1005.58 699.436 L1005.58 699.436  Z" fill="#009af9" fill-rule="evenodd" fill-opacity="0.5"/>
<polyline clip-path="url(#clip812)" style="stroke:#000000; stroke-linecap:round; stroke-linejoin:round; stroke-width:4; stroke-opacity:0.5; fill:none" points="1005.58,699.436 1005.58,1423.18 1027.15,1423.18 1027.15,699.436 1005.58,699.436 "/>
<path clip-path="url(#clip812)" d="M1027.15 670.102 L1027.15 1423.18 L1048.73 1423.18 L1048.73 670.102 L1027.15 670.102 L1027.15 670.102  Z" fill="#009af9" fill-rule="evenodd" fill-opacity="0.5"/>
<polyline clip-path="url(#clip812)" style="stroke:#000000; stroke-linecap:round; stroke-linejoin:round; stroke-width:4; stroke-opacity:0.5; fill:none" points="1027.15,670.102 1027.15,1423.18 1048.73,1423.18 1048.73,670.102 1027.15,670.102 "/>
<path clip-path="url(#clip812)" d="M1048.73 555.236 L1048.73 1423.18 L1070.31 1423.18 L1070.31 555.236 L1048.73 555.236 L1048.73 555.236  Z" fill="#009af9" fill-rule="evenodd" fill-opacity="0.5"/>
<polyline clip-path="url(#clip812)" style="stroke:#000000; stroke-linecap:round; stroke-linejoin:round; stroke-width:4; stroke-opacity:0.5; fill:none" points="1048.73,555.236 1048.73,1423.18 1070.31,1423.18 1070.31,555.236 1048.73,555.236 "/>
<path clip-path="url(#clip812)" d="M1070.31 489.441 L1070.31 1423.18 L1091.88 1423.18 L1091.88 489.441 L1070.31 489.441 L1070.31 489.441  Z" fill="#009af9" fill-rule="evenodd" fill-opacity="0.5"/>
<polyline clip-path="url(#clip812)" style="stroke:#000000; stroke-linecap:round; stroke-linejoin:round; stroke-width:4; stroke-opacity:0.5; fill:none" points="1070.31,489.441 1070.31,1423.18 1091.88,1423.18 1091.88,489.441 1070.31,489.441 "/>
<path clip-path="url(#clip812)" d="M1091.88 373.203 L1091.88 1423.18 L1113.46 1423.18 L1113.46 373.203 L1091.88 373.203 L1091.88 373.203  Z" fill="#009af9" fill-rule="evenodd" fill-opacity="0.5"/>
<polyline clip-path="url(#clip812)" style="stroke:#000000; stroke-linecap:round; stroke-linejoin:round; stroke-width:4; stroke-opacity:0.5; fill:none" points="1091.88,373.203 1091.88,1423.18 1113.46,1423.18 1113.46,373.203 1091.88,373.203 "/>
<path clip-path="url(#clip812)" d="M1113.46 275.607 L1113.46 1423.18 L1135.04 1423.18 L1135.04 275.607 L1113.46 275.607 L1113.46 275.607  Z" fill="#009af9" fill-rule="evenodd" fill-opacity="0.5"/>
<polyline clip-path="url(#clip812)" style="stroke:#000000; stroke-linecap:round; stroke-linejoin:round; stroke-width:4; stroke-opacity:0.5; fill:none" points="1113.46,275.607 1113.46,1423.18 1135.04,1423.18 1135.04,275.607 1113.46,275.607 "/>
<path clip-path="url(#clip812)" d="M1135.04 230.647 L1135.04 1423.18 L1156.61 1423.18 L1156.61 230.647 L1135.04 230.647 L1135.04 230.647  Z" fill="#009af9" fill-rule="evenodd" fill-opacity="0.5"/>
<polyline clip-path="url(#clip812)" style="stroke:#000000; stroke-linecap:round; stroke-linejoin:round; stroke-width:4; stroke-opacity:0.5; fill:none" points="1135.04,230.647 1135.04,1423.18 1156.61,1423.18 1156.61,230.647 1135.04,230.647 "/>
<path clip-path="url(#clip812)" d="M1156.61 203.507 L1156.61 1423.18 L1178.19 1423.18 L1178.19 203.507 L1156.61 203.507 L1156.61 203.507  Z" fill="#009af9" fill-rule="evenodd" fill-opacity="0.5"/>
<polyline clip-path="url(#clip812)" style="stroke:#000000; stroke-linecap:round; stroke-linejoin:round; stroke-width:4; stroke-opacity:0.5; fill:none" points="1156.61,203.507 1156.61,1423.18 1178.19,1423.18 1178.19,203.507 1156.61,203.507 "/>
<path clip-path="url(#clip812)" d="M1178.19 138.809 L1178.19 1423.18 L1199.76 1423.18 L1199.76 138.809 L1178.19 138.809 L1178.19 138.809  Z" fill="#009af9" fill-rule="evenodd" fill-opacity="0.5"/>
<polyline clip-path="url(#clip812)" style="stroke:#000000; stroke-linecap:round; stroke-linejoin:round; stroke-width:4; stroke-opacity:0.5; fill:none" points="1178.19,138.809 1178.19,1423.18 1199.76,1423.18 1199.76,138.809 1178.19,138.809 "/>
<path clip-path="url(#clip812)" d="M1199.76 101.525 L1199.76 1423.18 L1221.34 1423.18 L1221.34 101.525 L1199.76 101.525 L1199.76 101.525  Z" fill="#009af9" fill-rule="evenodd" fill-opacity="0.5"/>
<polyline clip-path="url(#clip812)" style="stroke:#000000; stroke-linecap:round; stroke-linejoin:round; stroke-width:4; stroke-opacity:0.5; fill:none" points="1199.76,101.525 1199.76,1423.18 1221.34,1423.18 1221.34,101.525 1199.76,101.525 "/>
<path clip-path="url(#clip812)" d="M1221.34 72.4655 L1221.34 1423.18 L1242.92 1423.18 L1242.92 72.4655 L1221.34 72.4655 L1221.34 72.4655  Z" fill="#009af9" fill-rule="evenodd" fill-opacity="0.5"/>
<polyline clip-path="url(#clip812)" style="stroke:#000000; stroke-linecap:round; stroke-linejoin:round; stroke-width:4; stroke-opacity:0.5; fill:none" points="1221.34,72.4655 1221.34,1423.18 1242.92,1423.18 1242.92,72.4655 1221.34,72.4655 "/>
<path clip-path="url(#clip812)" d="M1242.92 47.2441 L1242.92 1423.18 L1264.49 1423.18 L1264.49 47.2441 L1242.92 47.2441 L1242.92 47.2441  Z" fill="#009af9" fill-rule="evenodd" fill-opacity="0.5"/>
<polyline clip-path="url(#clip812)" style="stroke:#000000; stroke-linecap:round; stroke-linejoin:round; stroke-width:4; stroke-opacity:0.5; fill:none" points="1242.92,47.2441 1242.92,1423.18 1264.49,1423.18 1264.49,47.2441 1242.92,47.2441 "/>
<path clip-path="url(#clip812)" d="M1264.49 59.3065 L1264.49 1423.18 L1286.07 1423.18 L1286.07 59.3065 L1264.49 59.3065 L1264.49 59.3065  Z" fill="#009af9" fill-rule="evenodd" fill-opacity="0.5"/>
<polyline clip-path="url(#clip812)" style="stroke:#000000; stroke-linecap:round; stroke-linejoin:round; stroke-width:4; stroke-opacity:0.5; fill:none" points="1264.49,59.3065 1264.49,1423.18 1286.07,1423.18 1286.07,59.3065 1264.49,59.3065 "/>
<path clip-path="url(#clip812)" d="M1286.07 68.3533 L1286.07 1423.18 L1307.64 1423.18 L1307.64 68.3533 L1286.07 68.3533 L1286.07 68.3533  Z" fill="#009af9" fill-rule="evenodd" fill-opacity="0.5"/>
<polyline clip-path="url(#clip812)" style="stroke:#000000; stroke-linecap:round; stroke-linejoin:round; stroke-width:4; stroke-opacity:0.5; fill:none" points="1286.07,68.3533 1286.07,1423.18 1307.64,1423.18 1307.64,68.3533 1286.07,68.3533 "/>
<path clip-path="url(#clip812)" d="M1307.64 100.702 L1307.64 1423.18 L1329.22 1423.18 L1329.22 100.702 L1307.64 100.702 L1307.64 100.702  Z" fill="#009af9" fill-rule="evenodd" fill-opacity="0.5"/>
<polyline clip-path="url(#clip812)" style="stroke:#000000; stroke-linecap:round; stroke-linejoin:round; stroke-width:4; stroke-opacity:0.5; fill:none" points="1307.64,100.702 1307.64,1423.18 1329.22,1423.18 1329.22,100.702 1307.64,100.702 "/>
<path clip-path="url(#clip812)" d="M1329.22 89.1883 L1329.22 1423.18 L1350.8 1423.18 L1350.8 89.1883 L1329.22 89.1883 L1329.22 89.1883  Z" fill="#009af9" fill-rule="evenodd" fill-opacity="0.5"/>
<polyline clip-path="url(#clip812)" style="stroke:#000000; stroke-linecap:round; stroke-linejoin:round; stroke-width:4; stroke-opacity:0.5; fill:none" points="1329.22,89.1883 1329.22,1423.18 1350.8,1423.18 1350.8,89.1883 1329.22,89.1883 "/>
<path clip-path="url(#clip812)" d="M1350.8 202.136 L1350.8 1423.18 L1372.37 1423.18 L1372.37 202.136 L1350.8 202.136 L1350.8 202.136  Z" fill="#009af9" fill-rule="evenodd" fill-opacity="0.5"/>
<polyline clip-path="url(#clip812)" style="stroke:#000000; stroke-linecap:round; stroke-linejoin:round; stroke-width:4; stroke-opacity:0.5; fill:none" points="1350.8,202.136 1350.8,1423.18 1372.37,1423.18 1372.37,202.136 1350.8,202.136 "/>
<path clip-path="url(#clip812)" d="M1372.37 244.08 L1372.37 1423.18 L1393.95 1423.18 L1393.95 244.08 L1372.37 244.08 L1372.37 244.08  Z" fill="#009af9" fill-rule="evenodd" fill-opacity="0.5"/>
<polyline clip-path="url(#clip812)" style="stroke:#000000; stroke-linecap:round; stroke-linejoin:round; stroke-width:4; stroke-opacity:0.5; fill:none" points="1372.37,244.08 1372.37,1423.18 1393.95,1423.18 1393.95,244.08 1372.37,244.08 "/>
<path clip-path="url(#clip812)" d="M1393.95 302.473 L1393.95 1423.18 L1415.52 1423.18 L1415.52 302.473 L1393.95 302.473 L1393.95 302.473  Z" fill="#009af9" fill-rule="evenodd" fill-opacity="0.5"/>
<polyline clip-path="url(#clip812)" style="stroke:#000000; stroke-linecap:round; stroke-linejoin:round; stroke-width:4; stroke-opacity:0.5; fill:none" points="1393.95,302.473 1393.95,1423.18 1415.52,1423.18 1415.52,302.473 1393.95,302.473 "/>
<path clip-path="url(#clip812)" d="M1415.52 384.169 L1415.52 1423.18 L1437.1 1423.18 L1437.1 384.169 L1415.52 384.169 L1415.52 384.169  Z" fill="#009af9" fill-rule="evenodd" fill-opacity="0.5"/>
<polyline clip-path="url(#clip812)" style="stroke:#000000; stroke-linecap:round; stroke-linejoin:round; stroke-width:4; stroke-opacity:0.5; fill:none" points="1415.52,384.169 1415.52,1423.18 1437.1,1423.18 1437.1,384.169 1415.52,384.169 "/>
<path clip-path="url(#clip812)" d="M1437.1 462.574 L1437.1 1423.18 L1458.68 1423.18 L1458.68 462.574 L1437.1 462.574 L1437.1 462.574  Z" fill="#009af9" fill-rule="evenodd" fill-opacity="0.5"/>
<polyline clip-path="url(#clip812)" style="stroke:#000000; stroke-linecap:round; stroke-linejoin:round; stroke-width:4; stroke-opacity:0.5; fill:none" points="1437.1,462.574 1437.1,1423.18 1458.68,1423.18 1458.68,462.574 1437.1,462.574 "/>
<path clip-path="url(#clip812)" d="M1458.68 537.964 L1458.68 1423.18 L1480.25 1423.18 L1480.25 537.964 L1458.68 537.964 L1458.68 537.964  Z" fill="#009af9" fill-rule="evenodd" fill-opacity="0.5"/>
<polyline clip-path="url(#clip812)" style="stroke:#000000; stroke-linecap:round; stroke-linejoin:round; stroke-width:4; stroke-opacity:0.5; fill:none" points="1458.68,537.964 1458.68,1423.18 1480.25,1423.18 1480.25,537.964 1458.68,537.964 "/>
<path clip-path="url(#clip812)" d="M1480.25 608.146 L1480.25 1423.18 L1501.83 1423.18 L1501.83 608.146 L1480.25 608.146 L1480.25 608.146  Z" fill="#009af9" fill-rule="evenodd" fill-opacity="0.5"/>
<polyline clip-path="url(#clip812)" style="stroke:#000000; stroke-linecap:round; stroke-linejoin:round; stroke-width:4; stroke-opacity:0.5; fill:none" points="1480.25,608.146 1480.25,1423.18 1501.83,1423.18 1501.83,608.146 1480.25,608.146 "/>
<path clip-path="url(#clip812)" d="M1501.83 717.53 L1501.83 1423.18 L1523.41 1423.18 L1523.41 717.53 L1501.83 717.53 L1501.83 717.53  Z" fill="#009af9" fill-rule="evenodd" fill-opacity="0.5"/>
<polyline clip-path="url(#clip812)" style="stroke:#000000; stroke-linecap:round; stroke-linejoin:round; stroke-width:4; stroke-opacity:0.5; fill:none" points="1501.83,717.53 1501.83,1423.18 1523.41,1423.18 1523.41,717.53 1501.83,717.53 "/>
<path clip-path="url(#clip812)" d="M1523.41 816.496 L1523.41 1423.18 L1544.98 1423.18 L1544.98 816.496 L1523.41 816.496 L1523.41 816.496  Z" fill="#009af9" fill-rule="evenodd" fill-opacity="0.5"/>
<polyline clip-path="url(#clip812)" style="stroke:#000000; stroke-linecap:round; stroke-linejoin:round; stroke-width:4; stroke-opacity:0.5; fill:none" points="1523.41,816.496 1523.41,1423.18 1544.98,1423.18 1544.98,816.496 1523.41,816.496 "/>
<path clip-path="url(#clip812)" d="M1544.98 875.986 L1544.98 1423.18 L1566.56 1423.18 L1566.56 875.986 L1544.98 875.986 L1544.98 875.986  Z" fill="#009af9" fill-rule="evenodd" fill-opacity="0.5"/>
<polyline clip-path="url(#clip812)" style="stroke:#000000; stroke-linecap:round; stroke-linejoin:round; stroke-width:4; stroke-opacity:0.5; fill:none" points="1544.98,875.986 1544.98,1423.18 1566.56,1423.18 1566.56,875.986 1544.98,875.986 "/>
<path clip-path="url(#clip812)" d="M1566.56 928.896 L1566.56 1423.18 L1588.13 1423.18 L1588.13 928.896 L1566.56 928.896 L1566.56 928.896  Z" fill="#009af9" fill-rule="evenodd" fill-opacity="0.5"/>
<polyline clip-path="url(#clip812)" style="stroke:#000000; stroke-linecap:round; stroke-linejoin:round; stroke-width:4; stroke-opacity:0.5; fill:none" points="1566.56,928.896 1566.56,1423.18 1588.13,1423.18 1588.13,928.896 1566.56,928.896 "/>
<path clip-path="url(#clip812)" d="M1588.13 992.772 L1588.13 1423.18 L1609.71 1423.18 L1609.71 992.772 L1588.13 992.772 L1588.13 992.772  Z" fill="#009af9" fill-rule="evenodd" fill-opacity="0.5"/>
<polyline clip-path="url(#clip812)" style="stroke:#000000; stroke-linecap:round; stroke-linejoin:round; stroke-width:4; stroke-opacity:0.5; fill:none" points="1588.13,992.772 1588.13,1423.18 1609.71,1423.18 1609.71,992.772 1588.13,992.772 "/>
<path clip-path="url(#clip812)" d="M1609.71 1067.89 L1609.71 1423.18 L1631.29 1423.18 L1631.29 1067.89 L1609.71 1067.89 L1609.71 1067.89  Z" fill="#009af9" fill-rule="evenodd" fill-opacity="0.5"/>
<polyline clip-path="url(#clip812)" style="stroke:#000000; stroke-linecap:round; stroke-linejoin:round; stroke-width:4; stroke-opacity:0.5; fill:none" points="1609.71,1067.89 1609.71,1423.18 1631.29,1423.18 1631.29,1067.89 1609.71,1067.89 "/>
<path clip-path="url(#clip812)" d="M1631.29 1135.33 L1631.29 1423.18 L1652.86 1423.18 L1652.86 1135.33 L1631.29 1135.33 L1631.29 1135.33  Z" fill="#009af9" fill-rule="evenodd" fill-opacity="0.5"/>
<polyline clip-path="url(#clip812)" style="stroke:#000000; stroke-linecap:round; stroke-linejoin:round; stroke-width:4; stroke-opacity:0.5; fill:none" points="1631.29,1135.33 1631.29,1423.18 1652.86,1423.18 1652.86,1135.33 1631.29,1135.33 "/>
<path clip-path="url(#clip812)" d="M1652.86 1163.84 L1652.86 1423.18 L1674.44 1423.18 L1674.44 1163.84 L1652.86 1163.84 L1652.86 1163.84  Z" fill="#009af9" fill-rule="evenodd" fill-opacity="0.5"/>
<polyline clip-path="url(#clip812)" style="stroke:#000000; stroke-linecap:round; stroke-linejoin:round; stroke-width:4; stroke-opacity:0.5; fill:none" points="1652.86,1163.84 1652.86,1423.18 1674.44,1423.18 1674.44,1163.84 1652.86,1163.84 "/>
<path clip-path="url(#clip812)" d="M1674.44 1219.76 L1674.44 1423.18 L1696.01 1423.18 L1696.01 1219.76 L1674.44 1219.76 L1674.44 1219.76  Z" fill="#009af9" fill-rule="evenodd" fill-opacity="0.5"/>
<polyline clip-path="url(#clip812)" style="stroke:#000000; stroke-linecap:round; stroke-linejoin:round; stroke-width:4; stroke-opacity:0.5; fill:none" points="1674.44,1219.76 1674.44,1423.18 1696.01,1423.18 1696.01,1219.76 1674.44,1219.76 "/>
<path clip-path="url(#clip812)" d="M1696.01 1261.16 L1696.01 1423.18 L1717.59 1423.18 L1717.59 1261.16 L1696.01 1261.16 L1696.01 1261.16  Z" fill="#009af9" fill-rule="evenodd" fill-opacity="0.5"/>
<polyline clip-path="url(#clip812)" style="stroke:#000000; stroke-linecap:round; stroke-linejoin:round; stroke-width:4; stroke-opacity:0.5; fill:none" points="1696.01,1261.16 1696.01,1423.18 1717.59,1423.18 1717.59,1261.16 1696.01,1261.16 "/>
<path clip-path="url(#clip812)" d="M1717.59 1288.85 L1717.59 1423.18 L1739.17 1423.18 L1739.17 1288.85 L1717.59 1288.85 L1717.59 1288.85  Z" fill="#009af9" fill-rule="evenodd" fill-opacity="0.5"/>
<polyline clip-path="url(#clip812)" style="stroke:#000000; stroke-linecap:round; stroke-linejoin:round; stroke-width:4; stroke-opacity:0.5; fill:none" points="1717.59,1288.85 1717.59,1423.18 1739.17,1423.18 1739.17,1288.85 1717.59,1288.85 "/>
<path clip-path="url(#clip812)" d="M1739.17 1306.12 L1739.17 1423.18 L1760.74 1423.18 L1760.74 1306.12 L1739.17 1306.12 L1739.17 1306.12  Z" fill="#009af9" fill-rule="evenodd" fill-opacity="0.5"/>
<polyline clip-path="url(#clip812)" style="stroke:#000000; stroke-linecap:round; stroke-linejoin:round; stroke-width:4; stroke-opacity:0.5; fill:none" points="1739.17,1306.12 1739.17,1423.18 1760.74,1423.18 1760.74,1306.12 1739.17,1306.12 "/>
<path clip-path="url(#clip812)" d="M1760.74 1337.37 L1760.74 1423.18 L1782.32 1423.18 L1782.32 1337.37 L1760.74 1337.37 L1760.74 1337.37  Z" fill="#009af9" fill-rule="evenodd" fill-opacity="0.5"/>
<polyline clip-path="url(#clip812)" style="stroke:#000000; stroke-linecap:round; stroke-linejoin:round; stroke-width:4; stroke-opacity:0.5; fill:none" points="1760.74,1337.37 1760.74,1423.18 1782.32,1423.18 1782.32,1337.37 1760.74,1337.37 "/>
<path clip-path="url(#clip812)" d="M1782.32 1351.63 L1782.32 1423.18 L1803.89 1423.18 L1803.89 1351.63 L1782.32 1351.63 L1782.32 1351.63  Z" fill="#009af9" fill-rule="evenodd" fill-opacity="0.5"/>
<polyline clip-path="url(#clip812)" style="stroke:#000000; stroke-linecap:round; stroke-linejoin:round; stroke-width:4; stroke-opacity:0.5; fill:none" points="1782.32,1351.63 1782.32,1423.18 1803.89,1423.18 1803.89,1351.63 1782.32,1351.63 "/>
<path clip-path="url(#clip812)" d="M1803.89 1374.11 L1803.89 1423.18 L1825.47 1423.18 L1825.47 1374.11 L1803.89 1374.11 L1803.89 1374.11  Z" fill="#009af9" fill-rule="evenodd" fill-opacity="0.5"/>
<polyline clip-path="url(#clip812)" style="stroke:#000000; stroke-linecap:round; stroke-linejoin:round; stroke-width:4; stroke-opacity:0.5; fill:none" points="1803.89,1374.11 1803.89,1423.18 1825.47,1423.18 1825.47,1374.11 1803.89,1374.11 "/>
<path clip-path="url(#clip812)" d="M1825.47 1383.15 L1825.47 1423.18 L1847.05 1423.18 L1847.05 1383.15 L1825.47 1383.15 L1825.47 1383.15  Z" fill="#009af9" fill-rule="evenodd" fill-opacity="0.5"/>
<polyline clip-path="url(#clip812)" style="stroke:#000000; stroke-linecap:round; stroke-linejoin:round; stroke-width:4; stroke-opacity:0.5; fill:none" points="1825.47,1383.15 1825.47,1423.18 1847.05,1423.18 1847.05,1383.15 1825.47,1383.15 "/>
<path clip-path="url(#clip812)" d="M1847.05 1389.19 L1847.05 1423.18 L1868.62 1423.18 L1868.62 1389.19 L1847.05 1389.19 L1847.05 1389.19  Z" fill="#009af9" fill-rule="evenodd" fill-opacity="0.5"/>
<polyline clip-path="url(#clip812)" style="stroke:#000000; stroke-linecap:round; stroke-linejoin:round; stroke-width:4; stroke-opacity:0.5; fill:none" points="1847.05,1389.19 1847.05,1423.18 1868.62,1423.18 1868.62,1389.19 1847.05,1389.19 "/>
<path clip-path="url(#clip812)" d="M1868.62 1399.88 L1868.62 1423.18 L1890.2 1423.18 L1890.2 1399.88 L1868.62 1399.88 L1868.62 1399.88  Z" fill="#009af9" fill-rule="evenodd" fill-opacity="0.5"/>
<polyline clip-path="url(#clip812)" style="stroke:#000000; stroke-linecap:round; stroke-linejoin:round; stroke-width:4; stroke-opacity:0.5; fill:none" points="1868.62,1399.88 1868.62,1423.18 1890.2,1423.18 1890.2,1399.88 1868.62,1399.88 "/>
<path clip-path="url(#clip812)" d="M1890.2 1406.73 L1890.2 1423.18 L1911.77 1423.18 L1911.77 1406.73 L1890.2 1406.73 L1890.2 1406.73  Z" fill="#009af9" fill-rule="evenodd" fill-opacity="0.5"/>
<polyline clip-path="url(#clip812)" style="stroke:#000000; stroke-linecap:round; stroke-linejoin:round; stroke-width:4; stroke-opacity:0.5; fill:none" points="1890.2,1406.73 1890.2,1423.18 1911.77,1423.18 1911.77,1406.73 1890.2,1406.73 "/>
<path clip-path="url(#clip812)" d="M1911.77 1407.01 L1911.77 1423.18 L1933.35 1423.18 L1933.35 1407.01 L1911.77 1407.01 L1911.77 1407.01  Z" fill="#009af9" fill-rule="evenodd" fill-opacity="0.5"/>
<polyline clip-path="url(#clip812)" style="stroke:#000000; stroke-linecap:round; stroke-linejoin:round; stroke-width:4; stroke-opacity:0.5; fill:none" points="1911.77,1407.01 1911.77,1423.18 1933.35,1423.18 1933.35,1407.01 1911.77,1407.01 "/>
<path clip-path="url(#clip812)" d="M1933.35 1411.94 L1933.35 1423.18 L1954.93 1423.18 L1954.93 1411.94 L1933.35 1411.94 L1933.35 1411.94  Z" fill="#009af9" fill-rule="evenodd" fill-opacity="0.5"/>
<polyline clip-path="url(#clip812)" style="stroke:#000000; stroke-linecap:round; stroke-linejoin:round; stroke-width:4; stroke-opacity:0.5; fill:none" points="1933.35,1411.94 1933.35,1423.18 1954.93,1423.18 1954.93,1411.94 1933.35,1411.94 "/>
<path clip-path="url(#clip812)" d="M1954.93 1416.33 L1954.93 1423.18 L1976.5 1423.18 L1976.5 1416.33 L1954.93 1416.33 L1954.93 1416.33  Z" fill="#009af9" fill-rule="evenodd" fill-opacity="0.5"/>
<polyline clip-path="url(#clip812)" style="stroke:#000000; stroke-linecap:round; stroke-linejoin:round; stroke-width:4; stroke-opacity:0.5; fill:none" points="1954.93,1416.33 1954.93,1423.18 1976.5,1423.18 1976.5,1416.33 1954.93,1416.33 "/>
<path clip-path="url(#clip812)" d="M1976.5 1418.79 L1976.5 1423.18 L1998.08 1423.18 L1998.08 1418.79 L1976.5 1418.79 L1976.5 1418.79  Z" fill="#009af9" fill-rule="evenodd" fill-opacity="0.5"/>
<polyline clip-path="url(#clip812)" style="stroke:#000000; stroke-linecap:round; stroke-linejoin:round; stroke-width:4; stroke-opacity:0.5; fill:none" points="1976.5,1418.79 1976.5,1423.18 1998.08,1423.18 1998.08,1418.79 1976.5,1418.79 "/>
<path clip-path="url(#clip812)" d="M1998.08 1417.7 L1998.08 1423.18 L2019.66 1423.18 L2019.66 1417.7 L1998.08 1417.7 L1998.08 1417.7  Z" fill="#009af9" fill-rule="evenodd" fill-opacity="0.5"/>
<polyline clip-path="url(#clip812)" style="stroke:#000000; stroke-linecap:round; stroke-linejoin:round; stroke-width:4; stroke-opacity:0.5; fill:none" points="1998.08,1417.7 1998.08,1423.18 2019.66,1423.18 2019.66,1417.7 1998.08,1417.7 "/>
<path clip-path="url(#clip812)" d="M2019.66 1420.71 L2019.66 1423.18 L2041.23 1423.18 L2041.23 1420.71 L2019.66 1420.71 L2019.66 1420.71  Z" fill="#009af9" fill-rule="evenodd" fill-opacity="0.5"/>
<polyline clip-path="url(#clip812)" style="stroke:#000000; stroke-linecap:round; stroke-linejoin:round; stroke-width:4; stroke-opacity:0.5; fill:none" points="2019.66,1420.71 2019.66,1423.18 2041.23,1423.18 2041.23,1420.71 2019.66,1420.71 "/>
<path clip-path="url(#clip812)" d="M2041.23 1421.26 L2041.23 1423.18 L2062.81 1423.18 L2062.81 1421.26 L2041.23 1421.26 L2041.23 1421.26  Z" fill="#009af9" fill-rule="evenodd" fill-opacity="0.5"/>
<polyline clip-path="url(#clip812)" style="stroke:#000000; stroke-linecap:round; stroke-linejoin:round; stroke-width:4; stroke-opacity:0.5; fill:none" points="2041.23,1421.26 2041.23,1423.18 2062.81,1423.18 2062.81,1421.26 2041.23,1421.26 "/>
<path clip-path="url(#clip812)" d="M2062.81 1422.63 L2062.81 1423.18 L2084.38 1423.18 L2084.38 1422.63 L2062.81 1422.63 L2062.81 1422.63  Z" fill="#009af9" fill-rule="evenodd" fill-opacity="0.5"/>
<polyline clip-path="url(#clip812)" style="stroke:#000000; stroke-linecap:round; stroke-linejoin:round; stroke-width:4; stroke-opacity:0.5; fill:none" points="2062.81,1422.63 2062.81,1423.18 2084.38,1423.18 2084.38,1422.63 2062.81,1422.63 "/>
<path clip-path="url(#clip812)" d="M2084.38 1422.08 L2084.38 1423.18 L2105.96 1423.18 L2105.96 1422.08 L2084.38 1422.08 L2084.38 1422.08  Z" fill="#009af9" fill-rule="evenodd" fill-opacity="0.5"/>
<polyline clip-path="url(#clip812)" style="stroke:#000000; stroke-linecap:round; stroke-linejoin:round; stroke-width:4; stroke-opacity:0.5; fill:none" points="2084.38,1422.08 2084.38,1423.18 2105.96,1423.18 2105.96,1422.08 2084.38,1422.08 "/>
<path clip-path="url(#clip812)" d="M2105.96 1423.18 L2105.96 1423.18 L2127.54 1423.18 L2127.54 1423.18 L2105.96 1423.18 L2105.96 1423.18  Z" fill="#009af9" fill-rule="evenodd" fill-opacity="0.5"/>
<polyline clip-path="url(#clip812)" style="stroke:#000000; stroke-linecap:round; stroke-linejoin:round; stroke-width:4; stroke-opacity:0.5; fill:none" points="2105.96,1423.18 2105.96,1423.18 2127.54,1423.18 2105.96,1423.18 "/>
<path clip-path="url(#clip812)" d="M2127.54 1422.36 L2127.54 1423.18 L2149.11 1423.18 L2149.11 1422.36 L2127.54 1422.36 L2127.54 1422.36  Z" fill="#009af9" fill-rule="evenodd" fill-opacity="0.5"/>
<polyline clip-path="url(#clip812)" style="stroke:#000000; stroke-linecap:round; stroke-linejoin:round; stroke-width:4; stroke-opacity:0.5; fill:none" points="2127.54,1422.36 2127.54,1423.18 2149.11,1423.18 2149.11,1422.36 2127.54,1422.36 "/>
<path clip-path="url(#clip812)" d="M2149.11 1422.63 L2149.11 1423.18 L2170.69 1423.18 L2170.69 1422.63 L2149.11 1422.63 L2149.11 1422.63  Z" fill="#009af9" fill-rule="evenodd" fill-opacity="0.5"/>
<polyline clip-path="url(#clip812)" style="stroke:#000000; stroke-linecap:round; stroke-linejoin:round; stroke-width:4; stroke-opacity:0.5; fill:none" points="2149.11,1422.63 2149.11,1423.18 2170.69,1423.18 2170.69,1422.63 2149.11,1422.63 "/>
<path clip-path="url(#clip812)" d="M2170.69 1423.18 L2170.69 1423.18 L2192.26 1423.18 L2192.26 1423.18 L2170.69 1423.18 L2170.69 1423.18  Z" fill="#009af9" fill-rule="evenodd" fill-opacity="0.5"/>
<polyline clip-path="url(#clip812)" style="stroke:#000000; stroke-linecap:round; stroke-linejoin:round; stroke-width:4; stroke-opacity:0.5; fill:none" points="2170.69,1423.18 2170.69,1423.18 2192.26,1423.18 2170.69,1423.18 "/>
<path clip-path="url(#clip812)" d="M2192.26 1422.63 L2192.26 1423.18 L2213.84 1423.18 L2213.84 1422.63 L2192.26 1422.63 L2192.26 1422.63  Z" fill="#009af9" fill-rule="evenodd" fill-opacity="0.5"/>
<polyline clip-path="url(#clip812)" style="stroke:#000000; stroke-linecap:round; stroke-linejoin:round; stroke-width:4; stroke-opacity:0.5; fill:none" points="2192.26,1422.63 2192.26,1423.18 2213.84,1423.18 2213.84,1422.63 2192.26,1422.63 "/>
<path clip-path="url(#clip812)" d="M2213.84 1422.91 L2213.84 1423.18 L2235.42 1423.18 L2235.42 1422.91 L2213.84 1422.91 L2213.84 1422.91  Z" fill="#009af9" fill-rule="evenodd" fill-opacity="0.5"/>
<polyline clip-path="url(#clip812)" style="stroke:#000000; stroke-linecap:round; stroke-linejoin:round; stroke-width:4; stroke-opacity:0.5; fill:none" points="2213.84,1422.91 2213.84,1423.18 2235.42,1423.18 2235.42,1422.91 2213.84,1422.91 "/>
<circle clip-path="url(#clip812)" style="fill:#009af9; stroke:none; fill-opacity:0" cx="347.508" cy="1422.91" r="2"/>
<circle clip-path="url(#clip812)" style="fill:#009af9; stroke:none; fill-opacity:0" cx="369.084" cy="1422.36" r="2"/>
<circle clip-path="url(#clip812)" style="fill:#009af9; stroke:none; fill-opacity:0" cx="390.66" cy="1422.91" r="2"/>
<circle clip-path="url(#clip812)" style="fill:#009af9; stroke:none; fill-opacity:0" cx="412.236" cy="1422.08" r="2"/>
<circle clip-path="url(#clip812)" style="fill:#009af9; stroke:none; fill-opacity:0" cx="433.812" cy="1422.91" r="2"/>
<circle clip-path="url(#clip812)" style="fill:#009af9; stroke:none; fill-opacity:0" cx="455.388" cy="1421.53" r="2"/>
<circle clip-path="url(#clip812)" style="fill:#009af9; stroke:none; fill-opacity:0" cx="476.964" cy="1421.53" r="2"/>
<circle clip-path="url(#clip812)" style="fill:#009af9; stroke:none; fill-opacity:0" cx="498.54" cy="1421.53" r="2"/>
<circle clip-path="url(#clip812)" style="fill:#009af9; stroke:none; fill-opacity:0" cx="520.116" cy="1421.81" r="2"/>
<circle clip-path="url(#clip812)" style="fill:#009af9; stroke:none; fill-opacity:0" cx="541.693" cy="1417.97" r="2"/>
<circle clip-path="url(#clip812)" style="fill:#009af9; stroke:none; fill-opacity:0" cx="563.269" cy="1416.6" r="2"/>
<circle clip-path="url(#clip812)" style="fill:#009af9; stroke:none; fill-opacity:0" cx="584.845" cy="1413.31" r="2"/>
<circle clip-path="url(#clip812)" style="fill:#009af9; stroke:none; fill-opacity:0" cx="606.421" cy="1410.57" r="2"/>
<circle clip-path="url(#clip812)" style="fill:#009af9; stroke:none; fill-opacity:0" cx="627.997" cy="1400.7" r="2"/>
<circle clip-path="url(#clip812)" style="fill:#009af9; stroke:none; fill-opacity:0" cx="649.573" cy="1401.25" r="2"/>
<circle clip-path="url(#clip812)" style="fill:#009af9; stroke:none; fill-opacity:0" cx="671.149" cy="1391.1" r="2"/>
<circle clip-path="url(#clip812)" style="fill:#009af9; stroke:none; fill-opacity:0" cx="692.725" cy="1387.54" r="2"/>
<circle clip-path="url(#clip812)" style="fill:#009af9; stroke:none; fill-opacity:0" cx="714.301" cy="1368.08" r="2"/>
<circle clip-path="url(#clip812)" style="fill:#009af9; stroke:none; fill-opacity:0" cx="735.877" cy="1361.77" r="2"/>
<circle clip-path="url(#clip812)" style="fill:#009af9; stroke:none; fill-opacity:0" cx="757.454" cy="1335.45" r="2"/>
<circle clip-path="url(#clip812)" style="fill:#009af9; stroke:none; fill-opacity:0" cx="779.03" cy="1306.67" r="2"/>
<circle clip-path="url(#clip812)" style="fill:#009af9; stroke:none; fill-opacity:0" cx="800.606" cy="1281.72" r="2"/>
<circle clip-path="url(#clip812)" style="fill:#009af9; stroke:none; fill-opacity:0" cx="822.182" cy="1249.92" r="2"/>
<circle clip-path="url(#clip812)" style="fill:#009af9; stroke:none; fill-opacity:0" cx="843.758" cy="1219.49" r="2"/>
<circle clip-path="url(#clip812)" style="fill:#009af9; stroke:none; fill-opacity:0" cx="865.334" cy="1179.46" r="2"/>
<circle clip-path="url(#clip812)" style="fill:#009af9; stroke:none; fill-opacity:0" cx="886.91" cy="1126.55" r="2"/>
<circle clip-path="url(#clip812)" style="fill:#009af9; stroke:none; fill-opacity:0" cx="908.486" cy="1060.21" r="2"/>
<circle clip-path="url(#clip812)" style="fill:#009af9; stroke:none; fill-opacity:0" cx="930.062" cy="1008.12" r="2"/>
<circle clip-path="url(#clip812)" style="fill:#009af9; stroke:none; fill-opacity:0" cx="951.638" cy="943.151" r="2"/>
<circle clip-path="url(#clip812)" style="fill:#009af9; stroke:none; fill-opacity:0" cx="973.215" cy="877.631" r="2"/>
<circle clip-path="url(#clip812)" style="fill:#009af9; stroke:none; fill-opacity:0" cx="994.791" cy="788.259" r="2"/>
<circle clip-path="url(#clip812)" style="fill:#009af9; stroke:none; fill-opacity:0" cx="1016.37" cy="699.436" r="2"/>
<circle clip-path="url(#clip812)" style="fill:#009af9; stroke:none; fill-opacity:0" cx="1037.94" cy="670.102" r="2"/>
<circle clip-path="url(#clip812)" style="fill:#009af9; stroke:none; fill-opacity:0" cx="1059.52" cy="555.236" r="2"/>
<circle clip-path="url(#clip812)" style="fill:#009af9; stroke:none; fill-opacity:0" cx="1081.1" cy="489.441" r="2"/>
<circle clip-path="url(#clip812)" style="fill:#009af9; stroke:none; fill-opacity:0" cx="1102.67" cy="373.203" r="2"/>
<circle clip-path="url(#clip812)" style="fill:#009af9; stroke:none; fill-opacity:0" cx="1124.25" cy="275.607" r="2"/>
<circle clip-path="url(#clip812)" style="fill:#009af9; stroke:none; fill-opacity:0" cx="1145.82" cy="230.647" r="2"/>
<circle clip-path="url(#clip812)" style="fill:#009af9; stroke:none; fill-opacity:0" cx="1167.4" cy="203.507" r="2"/>
<circle clip-path="url(#clip812)" style="fill:#009af9; stroke:none; fill-opacity:0" cx="1188.98" cy="138.809" r="2"/>
<circle clip-path="url(#clip812)" style="fill:#009af9; stroke:none; fill-opacity:0" cx="1210.55" cy="101.525" r="2"/>
<circle clip-path="url(#clip812)" style="fill:#009af9; stroke:none; fill-opacity:0" cx="1232.13" cy="72.4655" r="2"/>
<circle clip-path="url(#clip812)" style="fill:#009af9; stroke:none; fill-opacity:0" cx="1253.7" cy="47.2441" r="2"/>
<circle clip-path="url(#clip812)" style="fill:#009af9; stroke:none; fill-opacity:0" cx="1275.28" cy="59.3065" r="2"/>
<circle clip-path="url(#clip812)" style="fill:#009af9; stroke:none; fill-opacity:0" cx="1296.86" cy="68.3533" r="2"/>
<circle clip-path="url(#clip812)" style="fill:#009af9; stroke:none; fill-opacity:0" cx="1318.43" cy="100.702" r="2"/>
<circle clip-path="url(#clip812)" style="fill:#009af9; stroke:none; fill-opacity:0" cx="1340.01" cy="89.1883" r="2"/>
<circle clip-path="url(#clip812)" style="fill:#009af9; stroke:none; fill-opacity:0" cx="1361.58" cy="202.136" r="2"/>
<circle clip-path="url(#clip812)" style="fill:#009af9; stroke:none; fill-opacity:0" cx="1383.16" cy="244.08" r="2"/>
<circle clip-path="url(#clip812)" style="fill:#009af9; stroke:none; fill-opacity:0" cx="1404.74" cy="302.473" r="2"/>
<circle clip-path="url(#clip812)" style="fill:#009af9; stroke:none; fill-opacity:0" cx="1426.31" cy="384.169" r="2"/>
<circle clip-path="url(#clip812)" style="fill:#009af9; stroke:none; fill-opacity:0" cx="1447.89" cy="462.574" r="2"/>
<circle clip-path="url(#clip812)" style="fill:#009af9; stroke:none; fill-opacity:0" cx="1469.46" cy="537.964" r="2"/>
<circle clip-path="url(#clip812)" style="fill:#009af9; stroke:none; fill-opacity:0" cx="1491.04" cy="608.146" r="2"/>
<circle clip-path="url(#clip812)" style="fill:#009af9; stroke:none; fill-opacity:0" cx="1512.62" cy="717.53" r="2"/>
<circle clip-path="url(#clip812)" style="fill:#009af9; stroke:none; fill-opacity:0" cx="1534.19" cy="816.496" r="2"/>
<circle clip-path="url(#clip812)" style="fill:#009af9; stroke:none; fill-opacity:0" cx="1555.77" cy="875.986" r="2"/>
<circle clip-path="url(#clip812)" style="fill:#009af9; stroke:none; fill-opacity:0" cx="1577.35" cy="928.896" r="2"/>
<circle clip-path="url(#clip812)" style="fill:#009af9; stroke:none; fill-opacity:0" cx="1598.92" cy="992.772" r="2"/>
<circle clip-path="url(#clip812)" style="fill:#009af9; stroke:none; fill-opacity:0" cx="1620.5" cy="1067.89" r="2"/>
<circle clip-path="url(#clip812)" style="fill:#009af9; stroke:none; fill-opacity:0" cx="1642.07" cy="1135.33" r="2"/>
<circle clip-path="url(#clip812)" style="fill:#009af9; stroke:none; fill-opacity:0" cx="1663.65" cy="1163.84" r="2"/>
<circle clip-path="url(#clip812)" style="fill:#009af9; stroke:none; fill-opacity:0" cx="1685.23" cy="1219.76" r="2"/>
<circle clip-path="url(#clip812)" style="fill:#009af9; stroke:none; fill-opacity:0" cx="1706.8" cy="1261.16" r="2"/>
<circle clip-path="url(#clip812)" style="fill:#009af9; stroke:none; fill-opacity:0" cx="1728.38" cy="1288.85" r="2"/>
<circle clip-path="url(#clip812)" style="fill:#009af9; stroke:none; fill-opacity:0" cx="1749.95" cy="1306.12" r="2"/>
<circle clip-path="url(#clip812)" style="fill:#009af9; stroke:none; fill-opacity:0" cx="1771.53" cy="1337.37" r="2"/>
<circle clip-path="url(#clip812)" style="fill:#009af9; stroke:none; fill-opacity:0" cx="1793.11" cy="1351.63" r="2"/>
<circle clip-path="url(#clip812)" style="fill:#009af9; stroke:none; fill-opacity:0" cx="1814.68" cy="1374.11" r="2"/>
<circle clip-path="url(#clip812)" style="fill:#009af9; stroke:none; fill-opacity:0" cx="1836.26" cy="1383.15" r="2"/>
<circle clip-path="url(#clip812)" style="fill:#009af9; stroke:none; fill-opacity:0" cx="1857.83" cy="1389.19" r="2"/>
<circle clip-path="url(#clip812)" style="fill:#009af9; stroke:none; fill-opacity:0" cx="1879.41" cy="1399.88" r="2"/>
<circle clip-path="url(#clip812)" style="fill:#009af9; stroke:none; fill-opacity:0" cx="1900.99" cy="1406.73" r="2"/>
<circle clip-path="url(#clip812)" style="fill:#009af9; stroke:none; fill-opacity:0" cx="1922.56" cy="1407.01" r="2"/>
<circle clip-path="url(#clip812)" style="fill:#009af9; stroke:none; fill-opacity:0" cx="1944.14" cy="1411.94" r="2"/>
<circle clip-path="url(#clip812)" style="fill:#009af9; stroke:none; fill-opacity:0" cx="1965.72" cy="1416.33" r="2"/>
<circle clip-path="url(#clip812)" style="fill:#009af9; stroke:none; fill-opacity:0" cx="1987.29" cy="1418.79" r="2"/>
<circle clip-path="url(#clip812)" style="fill:#009af9; stroke:none; fill-opacity:0" cx="2008.87" cy="1417.7" r="2"/>
<circle clip-path="url(#clip812)" style="fill:#009af9; stroke:none; fill-opacity:0" cx="2030.44" cy="1420.71" r="2"/>
<circle clip-path="url(#clip812)" style="fill:#009af9; stroke:none; fill-opacity:0" cx="2052.02" cy="1421.26" r="2"/>
<circle clip-path="url(#clip812)" style="fill:#009af9; stroke:none; fill-opacity:0" cx="2073.6" cy="1422.63" r="2"/>
<circle clip-path="url(#clip812)" style="fill:#009af9; stroke:none; fill-opacity:0" cx="2095.17" cy="1422.08" r="2"/>
<circle clip-path="url(#clip812)" style="fill:#009af9; stroke:none; fill-opacity:0" cx="2116.75" cy="1423.18" r="2"/>
<circle clip-path="url(#clip812)" style="fill:#009af9; stroke:none; fill-opacity:0" cx="2138.32" cy="1422.36" r="2"/>
<circle clip-path="url(#clip812)" style="fill:#009af9; stroke:none; fill-opacity:0" cx="2159.9" cy="1422.63" r="2"/>
<circle clip-path="url(#clip812)" style="fill:#009af9; stroke:none; fill-opacity:0" cx="2181.48" cy="1423.18" r="2"/>
<circle clip-path="url(#clip812)" style="fill:#009af9; stroke:none; fill-opacity:0" cx="2203.05" cy="1422.63" r="2"/>
<circle clip-path="url(#clip812)" style="fill:#009af9; stroke:none; fill-opacity:0" cx="2224.63" cy="1422.91" r="2"/>
<polyline clip-path="url(#clip812)" style="stroke:#000000; stroke-linecap:round; stroke-linejoin:round; stroke-width:16; stroke-opacity:1; fill:none" points="341.229,1423.03 360.304,1422.97 379.378,1422.88 398.452,1422.74 417.527,1422.56 436.601,1422.31 455.676,1421.96 474.75,1421.49 493.824,1420.85 512.899,1419.99 531.973,1418.86 551.048,1417.37 570.122,1415.43 589.196,1412.92 608.271,1409.7 627.345,1405.61 646.42,1400.46 665.494,1394.03 684.568,1386.06 703.643,1376.29 722.717,1364.41 741.792,1350.09 760.866,1332.98 779.94,1312.74 799.015,1289.01 818.089,1261.45 837.164,1229.75 856.238,1193.64 875.312,1152.9 894.387,1107.41 913.461,1057.14 932.536,1002.17 951.61,942.705 970.684,879.116 989.759,811.908 1008.83,741.744 1027.91,669.44 1046.98,595.954 1066.06,522.372 1085.13,449.882 1104.21,379.745 1123.28,313.263 1142.35,251.735 1161.43,196.423 1180.5,148.499 1199.58,109.015 1218.65,78.8557 1237.73,58.7098 1256.8,49.0436 1275.87,50.0823 1294.95,61.8018 1314.02,83.9292 1333.1,115.954 1352.17,157.146 1371.25,206.585 1390.32,263.195 1409.4,325.782 1428.47,393.074 1447.54,463.767 1466.62,536.565 1485.69,610.218 1504.77,683.556 1523.84,755.516 1542.92,825.167 1561.99,891.722 1581.07,954.547 1600.14,1013.16 1619.21,1067.24 1638.29,1116.59 1657.36,1161.15 1676.44,1200.98 1695.51,1236.22 1714.59,1267.1 1733.66,1293.89 1752.73,1316.92 1771.81,1336.53 1790.88,1353.06 1809.96,1366.89 1829.03,1378.34 1848.11,1387.74 1867.18,1395.38 1886.26,1401.55 1905.33,1406.48 1924.4,1410.39 1943.48,1413.46 1962.55,1415.85 1981.63,1417.69 2000.7,1419.11 2019.78,1420.18 2038.85,1420.99 2057.93,1421.59 2077,1422.03 2096.07,1422.36 2115.15,1422.6 2134.22,1422.77 2153.3,1422.9 2172.37,1422.98 2191.45,1423.04 2210.52,1423.09 2229.59,1423.12 "/>
<path clip-path="url(#clip810)" d="M1676.11 248.629 L2281.64 248.629 L2281.64 93.1086 L1676.11 93.1086  Z" fill="#ffffff" fill-rule="evenodd" fill-opacity="1"/>
<polyline clip-path="url(#clip810)" style="stroke:#000000; stroke-linecap:round; stroke-linejoin:round; stroke-width:4; stroke-opacity:1; fill:none" points="1676.11,248.629 2281.64,248.629 2281.64,93.1086 1676.11,93.1086 1676.11,248.629 "/>
<path clip-path="url(#clip810)" d="M1699.81 165.685 L1842.04 165.685 L1842.04 124.213 L1699.81 124.213 L1699.81 165.685  Z" fill="#009af9" fill-rule="evenodd" fill-opacity="0.5"/>
<polyline clip-path="url(#clip810)" style="stroke:#000000; stroke-linecap:round; stroke-linejoin:round; stroke-width:4; stroke-opacity:1; fill:none" points="1699.81,165.685 1842.04,165.685 1842.04,124.213 1699.81,124.213 1699.81,165.685 "/>
<path clip-path="url(#clip810)" d="M1887.99 128.803 L1887.99 133.363 Q1885.33 132.09 1882.96 131.465 Q1880.6 130.84 1878.4 130.84 Q1874.58 130.84 1872.5 132.321 Q1870.44 133.803 1870.44 136.534 Q1870.44 138.826 1871.81 140.007 Q1873.2 141.164 1877.04 141.882 L1879.86 142.46 Q1885.09 143.456 1887.57 145.979 Q1890.07 148.479 1890.07 152.692 Q1890.07 157.715 1886.69 160.307 Q1883.33 162.9 1876.83 162.9 Q1874.38 162.9 1871.6 162.344 Q1868.84 161.789 1865.88 160.701 L1865.88 155.886 Q1868.73 157.483 1871.46 158.293 Q1874.19 159.104 1876.83 159.104 Q1880.83 159.104 1883.01 157.53 Q1885.19 155.956 1885.19 153.039 Q1885.19 150.493 1883.61 149.057 Q1882.06 147.622 1878.5 146.905 L1875.65 146.349 Q1870.42 145.307 1868.08 143.085 Q1865.74 140.863 1865.74 136.905 Q1865.74 132.321 1868.96 129.682 Q1872.2 127.044 1877.87 127.044 Q1880.3 127.044 1882.83 127.483 Q1885.35 127.923 1887.99 128.803 Z" fill="#000000" fill-rule="nonzero" fill-opacity="1" /><path clip-path="url(#clip810)" d="M1908.96 149.196 Q1903.8 149.196 1901.81 150.377 Q1899.82 151.557 1899.82 154.405 Q1899.82 156.673 1901.3 158.016 Q1902.8 159.335 1905.37 159.335 Q1908.91 159.335 1911.04 156.835 Q1913.2 154.312 1913.2 150.145 L1913.2 149.196 L1908.96 149.196 M1917.45 147.437 L1917.45 162.229 L1913.2 162.229 L1913.2 158.293 Q1911.74 160.655 1909.56 161.789 Q1907.39 162.9 1904.24 162.9 Q1900.26 162.9 1897.89 160.678 Q1895.56 158.432 1895.56 154.682 Q1895.56 150.307 1898.47 148.085 Q1901.41 145.863 1907.22 145.863 L1913.2 145.863 L1913.2 145.446 Q1913.2 142.507 1911.25 140.909 Q1909.33 139.289 1905.83 139.289 Q1903.61 139.289 1901.51 139.821 Q1899.4 140.354 1897.46 141.419 L1897.46 137.483 Q1899.79 136.581 1901.99 136.141 Q1904.19 135.678 1906.27 135.678 Q1911.9 135.678 1914.68 138.594 Q1917.45 141.511 1917.45 147.437 Z" fill="#000000" fill-rule="nonzero" fill-opacity="1" /><path clip-path="url(#clip810)" d="M1946.41 141.28 Q1948.01 138.409 1950.23 137.044 Q1952.45 135.678 1955.46 135.678 Q1959.51 135.678 1961.71 138.525 Q1963.91 141.349 1963.91 146.581 L1963.91 162.229 L1959.63 162.229 L1959.63 146.719 Q1959.63 142.993 1958.31 141.187 Q1956.99 139.382 1954.28 139.382 Q1950.97 139.382 1949.05 141.581 Q1947.13 143.78 1947.13 147.576 L1947.13 162.229 L1942.85 162.229 L1942.85 146.719 Q1942.85 142.969 1941.53 141.187 Q1940.21 139.382 1937.45 139.382 Q1934.19 139.382 1932.27 141.604 Q1930.35 143.803 1930.35 147.576 L1930.35 162.229 L1926.07 162.229 L1926.07 136.303 L1930.35 136.303 L1930.35 140.331 Q1931.81 137.946 1933.84 136.812 Q1935.88 135.678 1938.68 135.678 Q1941.51 135.678 1943.47 137.113 Q1945.46 138.548 1946.41 141.28 Z" fill="#000000" fill-rule="nonzero" fill-opacity="1" /><path clip-path="url(#clip810)" d="M1976.53 158.34 L1976.53 172.09 L1972.25 172.09 L1972.25 136.303 L1976.53 136.303 L1976.53 140.238 Q1977.87 137.923 1979.91 136.812 Q1981.97 135.678 1984.82 135.678 Q1989.54 135.678 1992.48 139.428 Q1995.44 143.178 1995.44 149.289 Q1995.44 155.4 1992.48 159.15 Q1989.54 162.9 1984.82 162.9 Q1981.97 162.9 1979.91 161.789 Q1977.87 160.655 1976.53 158.34 M1991.02 149.289 Q1991.02 144.59 1989.07 141.928 Q1987.15 139.243 1983.77 139.243 Q1980.39 139.243 1978.45 141.928 Q1976.53 144.59 1976.53 149.289 Q1976.53 153.988 1978.45 156.673 Q1980.39 159.335 1983.77 159.335 Q1987.15 159.335 1989.07 156.673 Q1991.02 153.988 1991.02 149.289 Z" fill="#000000" fill-rule="nonzero" fill-opacity="1" /><path clip-path="url(#clip810)" d="M2002.5 126.21 L2006.76 126.21 L2006.76 162.229 L2002.5 162.229 L2002.5 126.21 Z" fill="#000000" fill-rule="nonzero" fill-opacity="1" /><path clip-path="url(#clip810)" d="M2037.85 148.201 L2037.85 150.284 L2018.26 150.284 Q2018.54 154.682 2020.9 156.997 Q2023.29 159.289 2027.52 159.289 Q2029.98 159.289 2032.27 158.687 Q2034.58 158.085 2036.85 156.881 L2036.85 160.909 Q2034.56 161.881 2032.15 162.391 Q2029.75 162.9 2027.27 162.9 Q2021.07 162.9 2017.43 159.289 Q2013.82 155.678 2013.82 149.52 Q2013.82 143.155 2017.25 139.428 Q2020.7 135.678 2026.53 135.678 Q2031.76 135.678 2034.79 139.057 Q2037.85 142.414 2037.85 148.201 M2033.59 146.951 Q2033.54 143.456 2031.62 141.372 Q2029.72 139.289 2026.57 139.289 Q2023.01 139.289 2020.86 141.303 Q2018.73 143.317 2018.4 146.974 L2033.59 146.951 Z" fill="#000000" fill-rule="nonzero" fill-opacity="1" /><path clip-path="url(#clip810)" d="M2061.9 140.238 L2061.9 126.21 L2066.16 126.21 L2066.16 162.229 L2061.9 162.229 L2061.9 158.34 Q2060.56 160.655 2058.5 161.789 Q2056.46 162.9 2053.59 162.9 Q2048.89 162.9 2045.93 159.15 Q2042.99 155.4 2042.99 149.289 Q2042.99 143.178 2045.93 139.428 Q2048.89 135.678 2053.59 135.678 Q2056.46 135.678 2058.5 136.812 Q2060.56 137.923 2061.9 140.238 M2047.38 149.289 Q2047.38 153.988 2049.31 156.673 Q2051.25 159.335 2054.63 159.335 Q2058.01 159.335 2059.95 156.673 Q2061.9 153.988 2061.9 149.289 Q2061.9 144.59 2059.95 141.928 Q2058.01 139.243 2054.63 139.243 Q2051.25 139.243 2049.31 141.928 Q2047.38 144.59 2047.38 149.289 Z" fill="#000000" fill-rule="nonzero" fill-opacity="1" /><path clip-path="url(#clip810)" d="M2107.06 140.238 L2107.06 126.21 L2111.32 126.21 L2111.32 162.229 L2107.06 162.229 L2107.06 158.34 Q2105.72 160.655 2103.66 161.789 Q2101.62 162.9 2098.75 162.9 Q2094.05 162.9 2091.09 159.15 Q2088.15 155.4 2088.15 149.289 Q2088.15 143.178 2091.09 139.428 Q2094.05 135.678 2098.75 135.678 Q2101.62 135.678 2103.66 136.812 Q2105.72 137.923 2107.06 140.238 M2092.55 149.289 Q2092.55 153.988 2094.47 156.673 Q2096.41 159.335 2099.79 159.335 Q2103.17 159.335 2105.12 156.673 Q2107.06 153.988 2107.06 149.289 Q2107.06 144.59 2105.12 141.928 Q2103.17 139.243 2099.79 139.243 Q2096.41 139.243 2094.47 141.928 Q2092.55 144.59 2092.55 149.289 Z" fill="#000000" fill-rule="nonzero" fill-opacity="1" /><path clip-path="url(#clip810)" d="M2142.27 148.201 L2142.27 150.284 L2122.69 150.284 Q2122.96 154.682 2125.32 156.997 Q2127.71 159.289 2131.94 159.289 Q2134.4 159.289 2136.69 158.687 Q2139 158.085 2141.27 156.881 L2141.27 160.909 Q2138.98 161.881 2136.57 162.391 Q2134.17 162.9 2131.69 162.9 Q2125.49 162.9 2121.85 159.289 Q2118.24 155.678 2118.24 149.52 Q2118.24 143.155 2121.67 139.428 Q2125.12 135.678 2130.95 135.678 Q2136.18 135.678 2139.21 139.057 Q2142.27 142.414 2142.27 148.201 M2138.01 146.951 Q2137.96 143.456 2136.04 141.372 Q2134.14 139.289 2131 139.289 Q2127.43 139.289 2125.28 141.303 Q2123.15 143.317 2122.82 146.974 L2138.01 146.951 Z" fill="#000000" fill-rule="nonzero" fill-opacity="1" /><path clip-path="url(#clip810)" d="M2170.81 146.581 L2170.81 162.229 L2166.55 162.229 L2166.55 146.719 Q2166.55 143.039 2165.12 141.21 Q2163.68 139.382 2160.81 139.382 Q2157.36 139.382 2155.37 141.581 Q2153.38 143.78 2153.38 147.576 L2153.38 162.229 L2149.1 162.229 L2149.1 136.303 L2153.38 136.303 L2153.38 140.331 Q2154.91 137.993 2156.97 136.835 Q2159.05 135.678 2161.76 135.678 Q2166.23 135.678 2168.52 138.456 Q2170.81 141.21 2170.81 146.581 Z" fill="#000000" fill-rule="nonzero" fill-opacity="1" /><path clip-path="url(#clip810)" d="M2195.83 137.067 L2195.83 141.094 Q2194.03 140.169 2192.08 139.706 Q2190.14 139.243 2188.06 139.243 Q2184.88 139.243 2183.29 140.215 Q2181.71 141.187 2181.71 143.131 Q2181.71 144.613 2182.85 145.469 Q2183.98 146.303 2187.41 147.067 L2188.87 147.391 Q2193.4 148.363 2195.3 150.145 Q2197.22 151.905 2197.22 155.076 Q2197.22 158.687 2194.35 160.793 Q2191.5 162.9 2186.5 162.9 Q2184.42 162.9 2182.15 162.483 Q2179.91 162.09 2177.41 161.28 L2177.41 156.881 Q2179.77 158.108 2182.06 158.733 Q2184.35 159.335 2186.6 159.335 Q2189.61 159.335 2191.23 158.317 Q2192.85 157.275 2192.85 155.4 Q2192.85 153.664 2191.67 152.738 Q2190.51 151.812 2186.55 150.956 L2185.07 150.608 Q2181.11 149.775 2179.35 148.062 Q2177.59 146.326 2177.59 143.317 Q2177.59 139.659 2180.18 137.669 Q2182.78 135.678 2187.55 135.678 Q2189.91 135.678 2191.99 136.025 Q2194.07 136.372 2195.83 137.067 Z" fill="#000000" fill-rule="nonzero" fill-opacity="1" /><path clip-path="url(#clip810)" d="M2204 136.303 L2208.26 136.303 L2208.26 162.229 L2204 162.229 L2204 136.303 M2204 126.21 L2208.26 126.21 L2208.26 131.604 L2204 131.604 L2204 126.21 Z" fill="#000000" fill-rule="nonzero" fill-opacity="1" /><path clip-path="url(#clip810)" d="M2221.39 128.942 L2221.39 136.303 L2230.16 136.303 L2230.16 139.613 L2221.39 139.613 L2221.39 153.687 Q2221.39 156.858 2222.24 157.761 Q2223.12 158.664 2225.79 158.664 L2230.16 158.664 L2230.16 162.229 L2225.79 162.229 Q2220.86 162.229 2218.98 160.4 Q2217.11 158.548 2217.11 153.687 L2217.11 139.613 L2213.98 139.613 L2213.98 136.303 L2217.11 136.303 L2217.11 128.942 L2221.39 128.942 Z" fill="#000000" fill-rule="nonzero" fill-opacity="1" /><path clip-path="url(#clip810)" d="M2246.55 164.636 Q2244.74 169.266 2243.03 170.678 Q2241.32 172.09 2238.45 172.09 L2235.05 172.09 L2235.05 168.525 L2237.55 168.525 Q2239.31 168.525 2240.28 167.692 Q2241.25 166.858 2242.43 163.756 L2243.19 161.812 L2232.71 136.303 L2237.22 136.303 L2245.32 156.581 L2253.43 136.303 L2257.94 136.303 L2246.55 164.636 Z" fill="#000000" fill-rule="nonzero" fill-opacity="1" /><polyline clip-path="url(#clip810)" style="stroke:#000000; stroke-linecap:round; stroke-linejoin:round; stroke-width:16; stroke-opacity:1; fill:none" points="1699.81,196.789 1842.04,196.789 "/>
<path clip-path="url(#clip810)" d="M1865.74 179.509 L1894.98 179.509 L1894.98 183.444 L1882.71 183.444 L1882.71 214.069 L1878.01 214.069 L1878.01 183.444 L1865.74 183.444 L1865.74 179.509 Z" fill="#000000" fill-rule="nonzero" fill-opacity="1" /><path clip-path="url(#clip810)" d="M1907.36 192.124 Q1906.64 191.708 1905.79 191.522 Q1904.95 191.314 1903.94 191.314 Q1900.33 191.314 1898.38 193.675 Q1896.46 196.013 1896.46 200.411 L1896.46 214.069 L1892.18 214.069 L1892.18 188.143 L1896.46 188.143 L1896.46 192.171 Q1897.8 189.809 1899.96 188.675 Q1902.11 187.518 1905.19 187.518 Q1905.63 187.518 1906.16 187.587 Q1906.69 187.634 1907.34 187.749 L1907.36 192.124 Z" fill="#000000" fill-rule="nonzero" fill-opacity="1" /><path clip-path="url(#clip810)" d="M1911.39 203.837 L1911.39 188.143 L1915.65 188.143 L1915.65 203.675 Q1915.65 207.356 1917.08 209.208 Q1918.52 211.036 1921.39 211.036 Q1924.84 211.036 1926.83 208.837 Q1928.84 206.638 1928.84 202.842 L1928.84 188.143 L1933.1 188.143 L1933.1 214.069 L1928.84 214.069 L1928.84 210.087 Q1927.29 212.448 1925.23 213.606 Q1923.2 214.74 1920.49 214.74 Q1916.02 214.74 1913.7 211.962 Q1911.39 209.184 1911.39 203.837 M1922.11 187.518 L1922.11 187.518 Z" fill="#000000" fill-rule="nonzero" fill-opacity="1" /><path clip-path="url(#clip810)" d="M1964.05 200.041 L1964.05 202.124 L1944.47 202.124 Q1944.75 206.522 1947.11 208.837 Q1949.49 211.129 1953.73 211.129 Q1956.18 211.129 1958.47 210.527 Q1960.79 209.925 1963.06 208.721 L1963.06 212.749 Q1960.76 213.721 1958.36 214.231 Q1955.95 214.74 1953.47 214.74 Q1947.27 214.74 1943.64 211.129 Q1940.02 207.518 1940.02 201.36 Q1940.02 194.995 1943.45 191.268 Q1946.9 187.518 1952.73 187.518 Q1957.96 187.518 1961 190.897 Q1964.05 194.254 1964.05 200.041 M1959.79 198.791 Q1959.75 195.296 1957.83 193.212 Q1955.93 191.129 1952.78 191.129 Q1949.21 191.129 1947.06 193.143 Q1944.93 195.157 1944.61 198.814 L1959.79 198.791 Z" fill="#000000" fill-rule="nonzero" fill-opacity="1" /><path clip-path="url(#clip810)" d="M2003.17 192.078 L2003.17 178.05 L2007.43 178.05 L2007.43 214.069 L2003.17 214.069 L2003.17 210.18 Q2001.83 212.495 1999.77 213.629 Q1997.73 214.74 1994.86 214.74 Q1990.16 214.74 1987.2 210.99 Q1984.26 207.24 1984.26 201.129 Q1984.26 195.018 1987.2 191.268 Q1990.16 187.518 1994.86 187.518 Q1997.73 187.518 1999.77 188.652 Q2001.83 189.763 2003.17 192.078 M1988.66 201.129 Q1988.66 205.828 1990.58 208.513 Q1992.52 211.175 1995.9 211.175 Q1999.28 211.175 2001.23 208.513 Q2003.17 205.828 2003.17 201.129 Q2003.17 196.43 2001.23 193.768 Q1999.28 191.083 1995.9 191.083 Q1992.52 191.083 1990.58 193.768 Q1988.66 196.43 1988.66 201.129 Z" fill="#000000" fill-rule="nonzero" fill-opacity="1" /><path clip-path="url(#clip810)" d="M2038.38 200.041 L2038.38 202.124 L2018.8 202.124 Q2019.07 206.522 2021.44 208.837 Q2023.82 211.129 2028.06 211.129 Q2030.51 211.129 2032.8 210.527 Q2035.12 209.925 2037.38 208.721 L2037.38 212.749 Q2035.09 213.721 2032.69 214.231 Q2030.28 214.74 2027.8 214.74 Q2021.6 214.74 2017.96 211.129 Q2014.35 207.518 2014.35 201.36 Q2014.35 194.995 2017.78 191.268 Q2021.23 187.518 2027.06 187.518 Q2032.29 187.518 2035.32 190.897 Q2038.38 194.254 2038.38 200.041 M2034.12 198.791 Q2034.07 195.296 2032.15 193.212 Q2030.26 191.129 2027.11 191.129 Q2023.54 191.129 2021.39 193.143 Q2019.26 195.157 2018.94 198.814 L2034.12 198.791 Z" fill="#000000" fill-rule="nonzero" fill-opacity="1" /><path clip-path="url(#clip810)" d="M2066.92 198.421 L2066.92 214.069 L2062.66 214.069 L2062.66 198.559 Q2062.66 194.879 2061.23 193.05 Q2059.79 191.222 2056.92 191.222 Q2053.47 191.222 2051.48 193.421 Q2049.49 195.62 2049.49 199.416 L2049.49 214.069 L2045.21 214.069 L2045.21 188.143 L2049.49 188.143 L2049.49 192.171 Q2051.02 189.833 2053.08 188.675 Q2055.16 187.518 2057.87 187.518 Q2062.34 187.518 2064.63 190.296 Q2066.92 193.05 2066.92 198.421 Z" fill="#000000" fill-rule="nonzero" fill-opacity="1" /><path clip-path="url(#clip810)" d="M2091.94 188.907 L2091.94 192.934 Q2090.14 192.009 2088.19 191.546 Q2086.25 191.083 2084.17 191.083 Q2081 191.083 2079.4 192.055 Q2077.82 193.027 2077.82 194.971 Q2077.82 196.453 2078.96 197.309 Q2080.09 198.143 2083.52 198.907 L2084.98 199.231 Q2089.51 200.203 2091.41 201.985 Q2093.33 203.745 2093.33 206.916 Q2093.33 210.527 2090.46 212.633 Q2087.62 214.74 2082.62 214.74 Q2080.53 214.74 2078.26 214.323 Q2076.02 213.93 2073.52 213.12 L2073.52 208.721 Q2075.88 209.948 2078.17 210.573 Q2080.46 211.175 2082.71 211.175 Q2085.72 211.175 2087.34 210.157 Q2088.96 209.115 2088.96 207.24 Q2088.96 205.504 2087.78 204.578 Q2086.62 203.652 2082.66 202.796 L2081.18 202.448 Q2077.22 201.615 2075.46 199.902 Q2073.7 198.166 2073.7 195.157 Q2073.7 191.499 2076.3 189.509 Q2078.89 187.518 2083.66 187.518 Q2086.02 187.518 2088.1 187.865 Q2090.19 188.212 2091.94 188.907 Z" fill="#000000" fill-rule="nonzero" fill-opacity="1" /><path clip-path="url(#clip810)" d="M2100.12 188.143 L2104.38 188.143 L2104.38 214.069 L2100.12 214.069 L2100.12 188.143 M2100.12 178.05 L2104.38 178.05 L2104.38 183.444 L2100.12 183.444 L2100.12 178.05 Z" fill="#000000" fill-rule="nonzero" fill-opacity="1" /><path clip-path="url(#clip810)" d="M2117.5 180.782 L2117.5 188.143 L2126.27 188.143 L2126.27 191.453 L2117.5 191.453 L2117.5 205.527 Q2117.5 208.698 2118.36 209.601 Q2119.24 210.504 2121.9 210.504 L2126.27 210.504 L2126.27 214.069 L2121.9 214.069 Q2116.97 214.069 2115.09 212.24 Q2113.22 210.388 2113.22 205.527 L2113.22 191.453 L2110.09 191.453 L2110.09 188.143 L2113.22 188.143 L2113.22 180.782 L2117.5 180.782 Z" fill="#000000" fill-rule="nonzero" fill-opacity="1" /><path clip-path="url(#clip810)" d="M2142.66 216.476 Q2140.86 221.106 2139.14 222.518 Q2137.43 223.93 2134.56 223.93 L2131.16 223.93 L2131.16 220.365 L2133.66 220.365 Q2135.42 220.365 2136.39 219.532 Q2137.36 218.698 2138.54 215.596 L2139.31 213.652 L2128.82 188.143 L2133.33 188.143 L2141.44 208.421 L2149.54 188.143 L2154.05 188.143 L2142.66 216.476 Z" fill="#000000" fill-rule="nonzero" fill-opacity="1" /></svg>
