<?xml version="1.0" encoding="utf-8"?>
<svg xmlns="http://www.w3.org/2000/svg" xmlns:xlink="http://www.w3.org/1999/xlink" width="600" height="400" viewBox="0 0 2400 1600">
<defs>
  <clipPath id="clip520">
    <rect x="0" y="0" width="2400" height="1600"/>
  </clipPath>
</defs>
<path clip-path="url(#clip520)" d="M0 1600 L2400 1600 L2400 0 L0 0  Z" fill="#ffffff" fill-rule="evenodd" fill-opacity="1"/>
<defs>
  <clipPath id="clip521">
    <rect x="480" y="0" width="1681" height="1600"/>
  </clipPath>
</defs>
<path clip-path="url(#clip520)" d="M219.866 1423.18 L2352.76 1423.18 L2352.76 47.2441 L219.866 47.2441  Z" fill="#ffffff" fill-rule="evenodd" fill-opacity="1"/>
<defs>
  <clipPath id="clip522">
    <rect x="219" y="47" width="2134" height="1377"/>
  </clipPath>
</defs>
<polyline clip-path="url(#clip522)" style="stroke:#000000; stroke-linecap:round; stroke-linejoin:round; stroke-width:2; stroke-opacity:0.1; fill:none" points="384.636,1423.18 384.636,47.2441 "/>
<polyline clip-path="url(#clip522)" style="stroke:#000000; stroke-linecap:round; stroke-linejoin:round; stroke-width:2; stroke-opacity:0.1; fill:none" points="859.202,1423.18 859.202,47.2441 "/>
<polyline clip-path="url(#clip522)" style="stroke:#000000; stroke-linecap:round; stroke-linejoin:round; stroke-width:2; stroke-opacity:0.1; fill:none" points="1333.77,1423.18 1333.77,47.2441 "/>
<polyline clip-path="url(#clip522)" style="stroke:#000000; stroke-linecap:round; stroke-linejoin:round; stroke-width:2; stroke-opacity:0.1; fill:none" points="1808.33,1423.18 1808.33,47.2441 "/>
<polyline clip-path="url(#clip522)" style="stroke:#000000; stroke-linecap:round; stroke-linejoin:round; stroke-width:2; stroke-opacity:0.1; fill:none" points="2282.9,1423.18 2282.9,47.2441 "/>
<polyline clip-path="url(#clip522)" style="stroke:#000000; stroke-linecap:round; stroke-linejoin:round; stroke-width:2; stroke-opacity:0.1; fill:none" points="219.866,1423.18 2352.76,1423.18 "/>
<polyline clip-path="url(#clip522)" style="stroke:#000000; stroke-linecap:round; stroke-linejoin:round; stroke-width:2; stroke-opacity:0.1; fill:none" points="219.866,1077.93 2352.76,1077.93 "/>
<polyline clip-path="url(#clip522)" style="stroke:#000000; stroke-linecap:round; stroke-linejoin:round; stroke-width:2; stroke-opacity:0.1; fill:none" points="219.866,732.674 2352.76,732.674 "/>
<polyline clip-path="url(#clip522)" style="stroke:#000000; stroke-linecap:round; stroke-linejoin:round; stroke-width:2; stroke-opacity:0.1; fill:none" points="219.866,387.421 2352.76,387.421 "/>
<polyline clip-path="url(#clip520)" style="stroke:#000000; stroke-linecap:round; stroke-linejoin:round; stroke-width:4; stroke-opacity:1; fill:none" points="219.866,1423.18 2352.76,1423.18 "/>
<polyline clip-path="url(#clip520)" style="stroke:#000000; stroke-linecap:round; stroke-linejoin:round; stroke-width:4; stroke-opacity:1; fill:none" points="384.636,1423.18 384.636,1404.28 "/>
<polyline clip-path="url(#clip520)" style="stroke:#000000; stroke-linecap:round; stroke-linejoin:round; stroke-width:4; stroke-opacity:1; fill:none" points="859.202,1423.18 859.202,1404.28 "/>
<polyline clip-path="url(#clip520)" style="stroke:#000000; stroke-linecap:round; stroke-linejoin:round; stroke-width:4; stroke-opacity:1; fill:none" points="1333.77,1423.18 1333.77,1404.28 "/>
<polyline clip-path="url(#clip520)" style="stroke:#000000; stroke-linecap:round; stroke-linejoin:round; stroke-width:4; stroke-opacity:1; fill:none" points="1808.33,1423.18 1808.33,1404.28 "/>
<polyline clip-path="url(#clip520)" style="stroke:#000000; stroke-linecap:round; stroke-linejoin:round; stroke-width:4; stroke-opacity:1; fill:none" points="2282.9,1423.18 2282.9,1404.28 "/>
<path clip-path="url(#clip520)" d="M384.636 1454.1 Q381.025 1454.1 379.196 1457.66 Q377.39 1461.2 377.39 1468.33 Q377.39 1475.44 379.196 1479.01 Q381.025 1482.55 384.636 1482.55 Q388.27 1482.55 390.075 1479.01 Q391.904 1475.44 391.904 1468.33 Q391.904 1461.2 390.075 1457.66 Q388.27 1454.1 384.636 1454.1 M384.636 1450.39 Q390.446 1450.39 393.501 1455 Q396.58 1459.58 396.58 1468.33 Q396.58 1477.06 393.501 1481.67 Q390.446 1486.25 384.636 1486.25 Q378.825 1486.25 375.747 1481.67 Q372.691 1477.06 372.691 1468.33 Q372.691 1459.58 375.747 1455 Q378.825 1450.39 384.636 1450.39 Z" fill="#000000" fill-rule="nonzero" fill-opacity="1" /><path clip-path="url(#clip520)" d="M849.584 1481.64 L857.222 1481.64 L857.222 1455.28 L848.912 1456.95 L848.912 1452.69 L857.176 1451.02 L861.852 1451.02 L861.852 1481.64 L869.491 1481.64 L869.491 1485.58 L849.584 1485.58 L849.584 1481.64 Z" fill="#000000" fill-rule="nonzero" fill-opacity="1" /><path clip-path="url(#clip520)" d="M1328.42 1481.64 L1344.74 1481.64 L1344.74 1485.58 L1322.8 1485.58 L1322.8 1481.64 Q1325.46 1478.89 1330.04 1474.26 Q1334.65 1469.61 1335.83 1468.27 Q1338.07 1465.74 1338.95 1464.01 Q1339.86 1462.25 1339.86 1460.56 Q1339.86 1457.8 1337.91 1456.07 Q1335.99 1454.33 1332.89 1454.33 Q1330.69 1454.33 1328.24 1455.09 Q1325.8 1455.86 1323.03 1457.41 L1323.03 1452.69 Q1325.85 1451.55 1328.3 1450.97 Q1330.76 1450.39 1332.8 1450.39 Q1338.17 1450.39 1341.36 1453.08 Q1344.55 1455.77 1344.55 1460.26 Q1344.55 1462.39 1343.74 1464.31 Q1342.96 1466.2 1340.85 1468.8 Q1340.27 1469.47 1337.17 1472.69 Q1334.07 1475.88 1328.42 1481.64 Z" fill="#000000" fill-rule="nonzero" fill-opacity="1" /><path clip-path="url(#clip520)" d="M1812.58 1466.95 Q1815.94 1467.66 1817.81 1469.93 Q1819.71 1472.2 1819.71 1475.53 Q1819.71 1480.65 1816.19 1483.45 Q1812.67 1486.25 1806.19 1486.25 Q1804.02 1486.25 1801.7 1485.81 Q1799.41 1485.39 1796.96 1484.54 L1796.96 1480.02 Q1798.9 1481.16 1801.22 1481.74 Q1803.53 1482.32 1806.05 1482.32 Q1810.45 1482.32 1812.74 1480.58 Q1815.06 1478.84 1815.06 1475.53 Q1815.06 1472.48 1812.91 1470.77 Q1810.78 1469.03 1806.96 1469.03 L1802.93 1469.03 L1802.93 1465.19 L1807.14 1465.19 Q1810.59 1465.19 1812.42 1463.82 Q1814.25 1462.43 1814.25 1459.84 Q1814.25 1457.18 1812.35 1455.77 Q1810.47 1454.33 1806.96 1454.33 Q1805.04 1454.33 1802.84 1454.75 Q1800.64 1455.16 1798 1456.04 L1798 1451.88 Q1800.66 1451.14 1802.97 1450.77 Q1805.31 1450.39 1807.37 1450.39 Q1812.7 1450.39 1815.8 1452.83 Q1818.9 1455.23 1818.9 1459.35 Q1818.9 1462.22 1817.26 1464.21 Q1815.61 1466.18 1812.58 1466.95 Z" fill="#000000" fill-rule="nonzero" fill-opacity="1" /><path clip-path="url(#clip520)" d="M2285.91 1455.09 L2274.1 1473.54 L2285.91 1473.54 L2285.91 1455.09 M2284.68 1451.02 L2290.56 1451.02 L2290.56 1473.54 L2295.49 1473.54 L2295.49 1477.43 L2290.56 1477.43 L2290.56 1485.58 L2285.91 1485.58 L2285.91 1477.43 L2270.31 1477.43 L2270.31 1472.92 L2284.68 1451.02 Z" fill="#000000" fill-rule="nonzero" fill-opacity="1" /><path clip-path="url(#clip520)" d="M1302.93 1532.4 L1290.04 1549.74 L1303.59 1568.04 L1296.69 1568.04 L1286.31 1554.04 L1275.93 1568.04 L1269.03 1568.04 L1282.87 1549.39 L1270.21 1532.4 L1277.11 1532.4 L1286.57 1545.1 L1296.02 1532.4 L1302.93 1532.4 Z" fill="#000000" fill-rule="nonzero" fill-opacity="1" /><polyline clip-path="url(#clip520)" style="stroke:#000000; stroke-linecap:round; stroke-linejoin:round; stroke-width:4; stroke-opacity:1; fill:none" points="219.866,1423.18 219.866,47.2441 "/>
<polyline clip-path="url(#clip520)" style="stroke:#000000; stroke-linecap:round; stroke-linejoin:round; stroke-width:4; stroke-opacity:1; fill:none" points="219.866,1423.18 238.764,1423.18 "/>
<polyline clip-path="url(#clip520)" style="stroke:#000000; stroke-linecap:round; stroke-linejoin:round; stroke-width:4; stroke-opacity:1; fill:none" points="219.866,1077.93 238.764,1077.93 "/>
<polyline clip-path="url(#clip520)" style="stroke:#000000; stroke-linecap:round; stroke-linejoin:round; stroke-width:4; stroke-opacity:1; fill:none" points="219.866,732.674 238.764,732.674 "/>
<polyline clip-path="url(#clip520)" style="stroke:#000000; stroke-linecap:round; stroke-linejoin:round; stroke-width:4; stroke-opacity:1; fill:none" points="219.866,387.421 238.764,387.421 "/>
<path clip-path="url(#clip520)" d="M126.691 1408.98 Q123.08 1408.98 121.251 1412.54 Q119.445 1416.08 119.445 1423.21 Q119.445 1430.32 121.251 1433.89 Q123.08 1437.43 126.691 1437.43 Q130.325 1437.43 132.13 1433.89 Q133.959 1430.32 133.959 1423.21 Q133.959 1416.08 132.13 1412.54 Q130.325 1408.98 126.691 1408.98 M126.691 1405.27 Q132.501 1405.27 135.556 1409.88 Q138.635 1414.46 138.635 1423.21 Q138.635 1431.94 135.556 1436.55 Q132.501 1441.13 126.691 1441.13 Q120.88 1441.13 117.802 1436.55 Q114.746 1431.94 114.746 1423.21 Q114.746 1414.46 117.802 1409.88 Q120.88 1405.27 126.691 1405.27 Z" fill="#000000" fill-rule="nonzero" fill-opacity="1" /><path clip-path="url(#clip520)" d="M146.853 1434.58 L151.737 1434.58 L151.737 1440.46 L146.853 1440.46 L146.853 1434.58 Z" fill="#000000" fill-rule="nonzero" fill-opacity="1" /><path clip-path="url(#clip520)" d="M171.922 1408.98 Q168.311 1408.98 166.482 1412.54 Q164.677 1416.08 164.677 1423.21 Q164.677 1430.32 166.482 1433.89 Q168.311 1437.43 171.922 1437.43 Q175.556 1437.43 177.362 1433.89 Q179.19 1430.32 179.19 1423.21 Q179.19 1416.08 177.362 1412.54 Q175.556 1408.98 171.922 1408.98 M171.922 1405.27 Q177.732 1405.27 180.788 1409.88 Q183.866 1414.46 183.866 1423.21 Q183.866 1431.94 180.788 1436.55 Q177.732 1441.13 171.922 1441.13 Q166.112 1441.13 163.033 1436.55 Q159.978 1431.94 159.978 1423.21 Q159.978 1414.46 163.033 1409.88 Q166.112 1405.27 171.922 1405.27 Z" fill="#000000" fill-rule="nonzero" fill-opacity="1" /><path clip-path="url(#clip520)" d="M128.288 1063.73 Q124.677 1063.73 122.848 1067.29 Q121.043 1070.83 121.043 1077.96 Q121.043 1085.07 122.848 1088.63 Q124.677 1092.17 128.288 1092.17 Q131.922 1092.17 133.728 1088.63 Q135.556 1085.07 135.556 1077.96 Q135.556 1070.83 133.728 1067.29 Q131.922 1063.73 128.288 1063.73 M128.288 1060.02 Q134.098 1060.02 137.154 1064.63 Q140.232 1069.21 140.232 1077.96 Q140.232 1086.69 137.154 1091.3 Q134.098 1095.88 128.288 1095.88 Q122.478 1095.88 119.399 1091.3 Q116.343 1086.69 116.343 1077.96 Q116.343 1069.21 119.399 1064.63 Q122.478 1060.02 128.288 1060.02 Z" fill="#000000" fill-rule="nonzero" fill-opacity="1" /><path clip-path="url(#clip520)" d="M148.45 1089.33 L153.334 1089.33 L153.334 1095.21 L148.45 1095.21 L148.45 1089.33 Z" fill="#000000" fill-rule="nonzero" fill-opacity="1" /><path clip-path="url(#clip520)" d="M167.547 1091.27 L183.866 1091.27 L183.866 1095.21 L161.922 1095.21 L161.922 1091.27 Q164.584 1088.52 169.167 1083.89 Q173.774 1079.23 174.954 1077.89 Q177.2 1075.37 178.079 1073.63 Q178.982 1071.87 178.982 1070.18 Q178.982 1067.43 177.038 1065.69 Q175.116 1063.96 172.014 1063.96 Q169.815 1063.96 167.362 1064.72 Q164.931 1065.48 162.153 1067.04 L162.153 1062.31 Q164.977 1061.18 167.431 1060.6 Q169.885 1060.02 171.922 1060.02 Q177.292 1060.02 180.487 1062.71 Q183.681 1065.39 183.681 1069.88 Q183.681 1072.01 182.871 1073.93 Q182.084 1075.83 179.977 1078.42 Q179.399 1079.1 176.297 1082.31 Q173.195 1085.51 167.547 1091.27 Z" fill="#000000" fill-rule="nonzero" fill-opacity="1" /><path clip-path="url(#clip520)" d="M126.205 718.473 Q122.593 718.473 120.765 722.038 Q118.959 725.579 118.959 732.709 Q118.959 739.815 120.765 743.38 Q122.593 746.922 126.205 746.922 Q129.839 746.922 131.644 743.38 Q133.473 739.815 133.473 732.709 Q133.473 725.579 131.644 722.038 Q129.839 718.473 126.205 718.473 M126.205 714.769 Q132.015 714.769 135.07 719.376 Q138.149 723.959 138.149 732.709 Q138.149 741.436 135.07 746.042 Q132.015 750.626 126.205 750.626 Q120.394 750.626 117.316 746.042 Q114.26 741.436 114.26 732.709 Q114.26 723.959 117.316 719.376 Q120.394 714.769 126.205 714.769 Z" fill="#000000" fill-rule="nonzero" fill-opacity="1" /><path clip-path="url(#clip520)" d="M146.366 744.075 L151.251 744.075 L151.251 749.954 L146.366 749.954 L146.366 744.075 Z" fill="#000000" fill-rule="nonzero" fill-opacity="1" /><path clip-path="url(#clip520)" d="M174.283 719.468 L162.477 737.917 L174.283 737.917 L174.283 719.468 M173.056 715.394 L178.936 715.394 L178.936 737.917 L183.866 737.917 L183.866 741.806 L178.936 741.806 L178.936 749.954 L174.283 749.954 L174.283 741.806 L158.681 741.806 L158.681 737.292 L173.056 715.394 Z" fill="#000000" fill-rule="nonzero" fill-opacity="1" /><path clip-path="url(#clip520)" d="M126.529 373.22 Q122.918 373.22 121.089 376.785 Q119.283 380.327 119.283 387.456 Q119.283 394.563 121.089 398.127 Q122.918 401.669 126.529 401.669 Q130.163 401.669 131.968 398.127 Q133.797 394.563 133.797 387.456 Q133.797 380.327 131.968 376.785 Q130.163 373.22 126.529 373.22 M126.529 369.516 Q132.339 369.516 135.394 374.123 Q138.473 378.706 138.473 387.456 Q138.473 396.183 135.394 400.789 Q132.339 405.373 126.529 405.373 Q120.718 405.373 117.64 400.789 Q114.584 396.183 114.584 387.456 Q114.584 378.706 117.64 374.123 Q120.718 369.516 126.529 369.516 Z" fill="#000000" fill-rule="nonzero" fill-opacity="1" /><path clip-path="url(#clip520)" d="M146.691 398.822 L151.575 398.822 L151.575 404.701 L146.691 404.701 L146.691 398.822 Z" fill="#000000" fill-rule="nonzero" fill-opacity="1" /><path clip-path="url(#clip520)" d="M172.339 385.558 Q169.19 385.558 167.339 387.711 Q165.51 389.864 165.51 393.614 Q165.51 397.34 167.339 399.516 Q169.19 401.669 172.339 401.669 Q175.487 401.669 177.315 399.516 Q179.167 397.34 179.167 393.614 Q179.167 389.864 177.315 387.711 Q175.487 385.558 172.339 385.558 M181.621 370.905 L181.621 375.165 Q179.862 374.331 178.056 373.891 Q176.274 373.452 174.514 373.452 Q169.885 373.452 167.431 376.577 Q165.001 379.702 164.653 386.021 Q166.019 384.007 168.079 382.942 Q170.139 381.854 172.616 381.854 Q177.825 381.854 180.834 385.026 Q183.866 388.174 183.866 393.614 Q183.866 398.938 180.718 402.155 Q177.57 405.373 172.339 405.373 Q166.343 405.373 163.172 400.789 Q160.001 396.183 160.001 387.456 Q160.001 379.262 163.89 374.401 Q167.778 369.516 174.329 369.516 Q176.089 369.516 177.871 369.864 Q179.676 370.211 181.621 370.905 Z" fill="#000000" fill-rule="nonzero" fill-opacity="1" /><path clip-path="url(#clip520)" d="M58.657 821.133 L77.5631 821.133 L77.5631 827.021 L28.3562 827.021 L28.3562 821.133 L33.7671 821.133 Q30.5842 819.287 29.0564 816.486 Q27.4968 813.653 27.4968 809.738 Q27.4968 803.245 32.6531 799.203 Q37.8093 795.129 46.212 795.129 Q54.6147 795.129 59.771 799.203 Q64.9272 803.245 64.9272 809.738 Q64.9272 813.653 63.3994 816.486 Q61.8398 819.287 58.657 821.133 M46.212 801.208 Q39.7508 801.208 36.0905 803.882 Q32.3984 806.524 32.3984 811.171 Q32.3984 815.818 36.0905 818.491 Q39.7508 821.133 46.212 821.133 Q52.6732 821.133 56.3653 818.491 Q60.0256 815.818 60.0256 811.171 Q60.0256 806.524 56.3653 803.882 Q52.6732 801.208 46.212 801.208 Z" fill="#000000" fill-rule="nonzero" fill-opacity="1" /><path clip-path="url(#clip520)" d="M33.7671 761.964 L14.479 761.964 L14.479 756.107 L64.0042 756.107 L64.0042 761.964 L58.657 761.964 Q61.8398 763.81 63.3994 766.643 Q64.9272 769.444 64.9272 773.39 Q64.9272 779.851 59.771 783.926 Q54.6147 787.968 46.212 787.968 Q37.8093 787.968 32.6531 783.926 Q27.4968 779.851 27.4968 773.39 Q27.4968 769.444 29.0564 766.643 Q30.5842 763.81 33.7671 761.964 M46.212 781.92 Q52.6732 781.92 56.3653 779.279 Q60.0256 776.605 60.0256 771.958 Q60.0256 767.311 56.3653 764.637 Q52.6732 761.964 46.212 761.964 Q39.7508 761.964 36.0905 764.637 Q32.3984 767.311 32.3984 771.958 Q32.3984 776.605 36.0905 779.279 Q39.7508 781.92 46.212 781.92 Z" fill="#000000" fill-rule="nonzero" fill-opacity="1" /><path clip-path="url(#clip520)" d="M14.479 725.998 L19.3487 725.998 L19.3487 731.599 Q19.3487 734.75 20.6219 735.992 Q21.895 737.201 25.2052 737.201 L28.3562 737.201 L28.3562 727.557 L32.9077 727.557 L32.9077 737.201 L64.0042 737.201 L64.0042 743.09 L32.9077 743.09 L32.9077 748.691 L28.3562 748.691 L28.3562 743.09 L25.8736 743.09 Q19.9216 743.09 17.2162 740.32 Q14.479 737.551 14.479 731.536 L14.479 725.998 Z" fill="#000000" fill-rule="nonzero" fill-opacity="1" /><path clip-path="url(#clip520)" d="M14.5426 707.028 Q21.8632 711.293 29.0246 713.362 Q36.186 715.431 43.5384 715.431 Q50.8908 715.431 58.1159 713.362 Q65.3091 711.261 72.5979 707.028 L72.5979 712.12 Q65.1182 716.895 57.8931 719.282 Q50.668 721.637 43.5384 721.637 Q36.4406 721.637 29.2474 719.282 Q22.0542 716.926 14.5426 712.12 L14.5426 707.028 Z" fill="#000000" fill-rule="nonzero" fill-opacity="1" /><path clip-path="url(#clip520)" d="M28.3562 666.033 L45.7028 678.923 L64.0042 665.364 L64.0042 672.271 L49.9996 682.647 L64.0042 693.023 L64.0042 699.93 L45.3526 686.085 L28.3562 698.752 L28.3562 691.846 L41.0558 682.393 L28.3562 672.939 L28.3562 666.033 Z" fill="#000000" fill-rule="nonzero" fill-opacity="1" /><path clip-path="url(#clip520)" d="M14.5426 658.012 L14.5426 652.919 Q22.0542 648.145 29.2474 645.79 Q36.4406 643.403 43.5384 643.403 Q50.668 643.403 57.8931 645.79 Q65.1182 648.145 72.5979 652.919 L72.5979 658.012 Q65.3091 653.779 58.1159 651.71 Q50.8908 649.609 43.5384 649.609 Q36.186 649.609 29.0246 651.71 Q21.8632 653.779 14.5426 658.012 Z" fill="#000000" fill-rule="nonzero" fill-opacity="1" /><path clip-path="url(#clip522)" d="M337.179 1421.45 L337.179 1423.18 L384.636 1423.18 L384.636 1421.45 L337.179 1421.45 L337.179 1421.45  Z" fill="#009af9" fill-rule="evenodd" fill-opacity="0.5"/>
<polyline clip-path="url(#clip522)" style="stroke:#000000; stroke-linecap:round; stroke-linejoin:round; stroke-width:4; stroke-opacity:0.5; fill:none" points="337.179,1421.45 337.179,1423.18 384.636,1423.18 384.636,1421.45 337.179,1421.45 "/>
<path clip-path="url(#clip522)" d="M384.636 1421.45 L384.636 1423.18 L432.092 1423.18 L432.092 1421.45 L384.636 1421.45 L384.636 1421.45  Z" fill="#009af9" fill-rule="evenodd" fill-opacity="0.5"/>
<polyline clip-path="url(#clip522)" style="stroke:#000000; stroke-linecap:round; stroke-linejoin:round; stroke-width:4; stroke-opacity:0.5; fill:none" points="384.636,1421.45 384.636,1423.18 432.092,1423.18 432.092,1421.45 384.636,1421.45 "/>
<path clip-path="url(#clip522)" d="M432.092 1419.73 L432.092 1423.18 L479.549 1423.18 L479.549 1419.73 L432.092 1419.73 L432.092 1419.73  Z" fill="#009af9" fill-rule="evenodd" fill-opacity="0.5"/>
<polyline clip-path="url(#clip522)" style="stroke:#000000; stroke-linecap:round; stroke-linejoin:round; stroke-width:4; stroke-opacity:0.5; fill:none" points="432.092,1419.73 432.092,1423.18 479.549,1423.18 479.549,1419.73 432.092,1419.73 "/>
<path clip-path="url(#clip522)" d="M479.549 1416.27 L479.549 1423.18 L527.005 1423.18 L527.005 1416.27 L479.549 1416.27 L479.549 1416.27  Z" fill="#009af9" fill-rule="evenodd" fill-opacity="0.5"/>
<polyline clip-path="url(#clip522)" style="stroke:#000000; stroke-linecap:round; stroke-linejoin:round; stroke-width:4; stroke-opacity:0.5; fill:none" points="479.549,1416.27 479.549,1423.18 527.005,1423.18 527.005,1416.27 479.549,1416.27 "/>
<path clip-path="url(#clip522)" d="M527.005 1418 L527.005 1423.18 L574.462 1423.18 L574.462 1418 L527.005 1418 L527.005 1418  Z" fill="#009af9" fill-rule="evenodd" fill-opacity="0.5"/>
<polyline clip-path="url(#clip522)" style="stroke:#000000; stroke-linecap:round; stroke-linejoin:round; stroke-width:4; stroke-opacity:0.5; fill:none" points="527.005,1418 527.005,1423.18 574.462,1423.18 574.462,1418 527.005,1418 "/>
<path clip-path="url(#clip522)" d="M574.462 1409.37 L574.462 1423.18 L621.919 1423.18 L621.919 1409.37 L574.462 1409.37 L574.462 1409.37  Z" fill="#009af9" fill-rule="evenodd" fill-opacity="0.5"/>
<polyline clip-path="url(#clip522)" style="stroke:#000000; stroke-linecap:round; stroke-linejoin:round; stroke-width:4; stroke-opacity:0.5; fill:none" points="574.462,1409.37 574.462,1423.18 621.919,1423.18 621.919,1409.37 574.462,1409.37 "/>
<path clip-path="url(#clip522)" d="M621.919 1399.01 L621.919 1423.18 L669.375 1423.18 L669.375 1399.01 L621.919 1399.01 L621.919 1399.01  Z" fill="#009af9" fill-rule="evenodd" fill-opacity="0.5"/>
<polyline clip-path="url(#clip522)" style="stroke:#000000; stroke-linecap:round; stroke-linejoin:round; stroke-width:4; stroke-opacity:0.5; fill:none" points="621.919,1399.01 621.919,1423.18 669.375,1423.18 669.375,1399.01 621.919,1399.01 "/>
<path clip-path="url(#clip522)" d="M669.375 1380.02 L669.375 1423.18 L716.832 1423.18 L716.832 1380.02 L669.375 1380.02 L669.375 1380.02  Z" fill="#009af9" fill-rule="evenodd" fill-opacity="0.5"/>
<polyline clip-path="url(#clip522)" style="stroke:#000000; stroke-linecap:round; stroke-linejoin:round; stroke-width:4; stroke-opacity:0.5; fill:none" points="669.375,1380.02 669.375,1423.18 716.832,1423.18 716.832,1380.02 669.375,1380.02 "/>
<path clip-path="url(#clip522)" d="M716.832 1374.84 L716.832 1423.18 L764.288 1423.18 L764.288 1374.84 L716.832 1374.84 L716.832 1374.84  Z" fill="#009af9" fill-rule="evenodd" fill-opacity="0.5"/>
<polyline clip-path="url(#clip522)" style="stroke:#000000; stroke-linecap:round; stroke-linejoin:round; stroke-width:4; stroke-opacity:0.5; fill:none" points="716.832,1374.84 716.832,1423.18 764.288,1423.18 764.288,1374.84 716.832,1374.84 "/>
<path clip-path="url(#clip522)" d="M764.288 1342.05 L764.288 1423.18 L811.745 1423.18 L811.745 1342.05 L764.288 1342.05 L764.288 1342.05  Z" fill="#009af9" fill-rule="evenodd" fill-opacity="0.5"/>
<polyline clip-path="url(#clip522)" style="stroke:#000000; stroke-linecap:round; stroke-linejoin:round; stroke-width:4; stroke-opacity:0.5; fill:none" points="764.288,1342.05 764.288,1423.18 811.745,1423.18 811.745,1342.05 764.288,1342.05 "/>
<path clip-path="url(#clip522)" d="M811.745 1272.99 L811.745 1423.18 L859.202 1423.18 L859.202 1272.99 L811.745 1272.99 L811.745 1272.99  Z" fill="#009af9" fill-rule="evenodd" fill-opacity="0.5"/>
<polyline clip-path="url(#clip522)" style="stroke:#000000; stroke-linecap:round; stroke-linejoin:round; stroke-width:4; stroke-opacity:0.5; fill:none" points="811.745,1272.99 811.745,1423.18 859.202,1423.18 859.202,1272.99 811.745,1272.99 "/>
<path clip-path="url(#clip522)" d="M859.202 1216.03 L859.202 1423.18 L906.658 1423.18 L906.658 1216.03 L859.202 1216.03 L859.202 1216.03  Z" fill="#009af9" fill-rule="evenodd" fill-opacity="0.5"/>
<polyline clip-path="url(#clip522)" style="stroke:#000000; stroke-linecap:round; stroke-linejoin:round; stroke-width:4; stroke-opacity:0.5; fill:none" points="859.202,1216.03 859.202,1423.18 906.658,1423.18 906.658,1216.03 859.202,1216.03 "/>
<path clip-path="url(#clip522)" d="M906.658 1107.27 L906.658 1423.18 L954.115 1423.18 L954.115 1107.27 L906.658 1107.27 L906.658 1107.27  Z" fill="#009af9" fill-rule="evenodd" fill-opacity="0.5"/>
<polyline clip-path="url(#clip522)" style="stroke:#000000; stroke-linecap:round; stroke-linejoin:round; stroke-width:4; stroke-opacity:0.5; fill:none" points="906.658,1107.27 906.658,1423.18 954.115,1423.18 954.115,1107.27 906.658,1107.27 "/>
<path clip-path="url(#clip522)" d="M954.115 979.53 L954.115 1423.18 L1001.57 1423.18 L1001.57 979.53 L954.115 979.53 L954.115 979.53  Z" fill="#009af9" fill-rule="evenodd" fill-opacity="0.5"/>
<polyline clip-path="url(#clip522)" style="stroke:#000000; stroke-linecap:round; stroke-linejoin:round; stroke-width:4; stroke-opacity:0.5; fill:none" points="954.115,979.53 954.115,1423.18 1001.57,1423.18 1001.57,979.53 954.115,979.53 "/>
<path clip-path="url(#clip522)" d="M1001.57 850.06 L1001.57 1423.18 L1049.03 1423.18 L1049.03 850.06 L1001.57 850.06 L1001.57 850.06  Z" fill="#009af9" fill-rule="evenodd" fill-opacity="0.5"/>
<polyline clip-path="url(#clip522)" style="stroke:#000000; stroke-linecap:round; stroke-linejoin:round; stroke-width:4; stroke-opacity:0.5; fill:none" points="1001.57,850.06 1001.57,1423.18 1049.03,1423.18 1049.03,850.06 1001.57,850.06 "/>
<path clip-path="url(#clip522)" d="M1049.03 656.719 L1049.03 1423.18 L1096.48 1423.18 L1096.48 656.719 L1049.03 656.719 L1049.03 656.719  Z" fill="#009af9" fill-rule="evenodd" fill-opacity="0.5"/>
<polyline clip-path="url(#clip522)" style="stroke:#000000; stroke-linecap:round; stroke-linejoin:round; stroke-width:4; stroke-opacity:0.5; fill:none" points="1049.03,656.719 1049.03,1423.18 1096.48,1423.18 1096.48,656.719 1049.03,656.719 "/>
<path clip-path="url(#clip522)" d="M1096.48 490.997 L1096.48 1423.18 L1143.94 1423.18 L1143.94 490.997 L1096.48 490.997 L1096.48 490.997  Z" fill="#009af9" fill-rule="evenodd" fill-opacity="0.5"/>
<polyline clip-path="url(#clip522)" style="stroke:#000000; stroke-linecap:round; stroke-linejoin:round; stroke-width:4; stroke-opacity:0.5; fill:none" points="1096.48,490.997 1096.48,1423.18 1143.94,1423.18 1143.94,490.997 1096.48,490.997 "/>
<path clip-path="url(#clip522)" d="M1143.94 428.852 L1143.94 1423.18 L1191.4 1423.18 L1191.4 428.852 L1143.94 428.852 L1143.94 428.852  Z" fill="#009af9" fill-rule="evenodd" fill-opacity="0.5"/>
<polyline clip-path="url(#clip522)" style="stroke:#000000; stroke-linecap:round; stroke-linejoin:round; stroke-width:4; stroke-opacity:0.5; fill:none" points="1143.94,428.852 1143.94,1423.18 1191.4,1423.18 1191.4,428.852 1143.94,428.852 "/>
<path clip-path="url(#clip522)" d="M1191.4 163.007 L1191.4 1423.18 L1238.85 1423.18 L1238.85 163.007 L1191.4 163.007 L1191.4 163.007  Z" fill="#009af9" fill-rule="evenodd" fill-opacity="0.5"/>
<polyline clip-path="url(#clip522)" style="stroke:#000000; stroke-linecap:round; stroke-linejoin:round; stroke-width:4; stroke-opacity:0.5; fill:none" points="1191.4,163.007 1191.4,1423.18 1238.85,1423.18 1238.85,163.007 1191.4,163.007 "/>
<path clip-path="url(#clip522)" d="M1238.85 138.839 L1238.85 1423.18 L1286.31 1423.18 L1286.31 138.839 L1238.85 138.839 L1238.85 138.839  Z" fill="#009af9" fill-rule="evenodd" fill-opacity="0.5"/>
<polyline clip-path="url(#clip522)" style="stroke:#000000; stroke-linecap:round; stroke-linejoin:round; stroke-width:4; stroke-opacity:0.5; fill:none" points="1238.85,138.839 1238.85,1423.18 1286.31,1423.18 1286.31,138.839 1238.85,138.839 "/>
<path clip-path="url(#clip522)" d="M1286.31 59.4313 L1286.31 1423.18 L1333.77 1423.18 L1333.77 59.4313 L1286.31 59.4313 L1286.31 59.4313  Z" fill="#009af9" fill-rule="evenodd" fill-opacity="0.5"/>
<polyline clip-path="url(#clip522)" style="stroke:#000000; stroke-linecap:round; stroke-linejoin:round; stroke-width:4; stroke-opacity:0.5; fill:none" points="1286.31,59.4313 1286.31,1423.18 1333.77,1423.18 1333.77,59.4313 1286.31,59.4313 "/>
<path clip-path="url(#clip522)" d="M1333.77 119.851 L1333.77 1423.18 L1381.22 1423.18 L1381.22 119.851 L1333.77 119.851 L1333.77 119.851  Z" fill="#009af9" fill-rule="evenodd" fill-opacity="0.5"/>
<polyline clip-path="url(#clip522)" style="stroke:#000000; stroke-linecap:round; stroke-linejoin:round; stroke-width:4; stroke-opacity:0.5; fill:none" points="1333.77,119.851 1333.77,1423.18 1381.22,1423.18 1381.22,119.851 1333.77,119.851 "/>
<path clip-path="url(#clip522)" d="M1381.22 78.4202 L1381.22 1423.18 L1428.68 1423.18 L1428.68 78.4202 L1381.22 78.4202 L1381.22 78.4202  Z" fill="#009af9" fill-rule="evenodd" fill-opacity="0.5"/>
<polyline clip-path="url(#clip522)" style="stroke:#000000; stroke-linecap:round; stroke-linejoin:round; stroke-width:4; stroke-opacity:0.5; fill:none" points="1381.22,78.4202 1381.22,1423.18 1428.68,1423.18 1428.68,78.4202 1381.22,78.4202 "/>
<path clip-path="url(#clip522)" d="M1428.68 225.153 L1428.68 1423.18 L1476.14 1423.18 L1476.14 225.153 L1428.68 225.153 L1428.68 225.153  Z" fill="#009af9" fill-rule="evenodd" fill-opacity="0.5"/>
<polyline clip-path="url(#clip522)" style="stroke:#000000; stroke-linecap:round; stroke-linejoin:round; stroke-width:4; stroke-opacity:0.5; fill:none" points="1428.68,225.153 1428.68,1423.18 1476.14,1423.18 1476.14,225.153 1428.68,225.153 "/>
<path clip-path="url(#clip522)" d="M1476.14 297.656 L1476.14 1423.18 L1523.59 1423.18 L1523.59 297.656 L1476.14 297.656 L1476.14 297.656  Z" fill="#009af9" fill-rule="evenodd" fill-opacity="0.5"/>
<polyline clip-path="url(#clip522)" style="stroke:#000000; stroke-linecap:round; stroke-linejoin:round; stroke-width:4; stroke-opacity:0.5; fill:none" points="1476.14,297.656 1476.14,1423.18 1523.59,1423.18 1523.59,297.656 1476.14,297.656 "/>
<path clip-path="url(#clip522)" d="M1523.59 475.461 L1523.59 1423.18 L1571.05 1423.18 L1571.05 475.461 L1523.59 475.461 L1523.59 475.461  Z" fill="#009af9" fill-rule="evenodd" fill-opacity="0.5"/>
<polyline clip-path="url(#clip522)" style="stroke:#000000; stroke-linecap:round; stroke-linejoin:round; stroke-width:4; stroke-opacity:0.5; fill:none" points="1523.59,475.461 1523.59,1423.18 1571.05,1423.18 1571.05,475.461 1523.59,475.461 "/>
<path clip-path="url(#clip522)" d="M1571.05 585.942 L1571.05 1423.18 L1618.51 1423.18 L1618.51 585.942 L1571.05 585.942 L1571.05 585.942  Z" fill="#009af9" fill-rule="evenodd" fill-opacity="0.5"/>
<polyline clip-path="url(#clip522)" style="stroke:#000000; stroke-linecap:round; stroke-linejoin:round; stroke-width:4; stroke-opacity:0.5; fill:none" points="1571.05,585.942 1571.05,1423.18 1618.51,1423.18 1618.51,585.942 1571.05,585.942 "/>
<path clip-path="url(#clip522)" d="M1618.51 836.25 L1618.51 1423.18 L1665.96 1423.18 L1665.96 836.25 L1618.51 836.25 L1618.51 836.25  Z" fill="#009af9" fill-rule="evenodd" fill-opacity="0.5"/>
<polyline clip-path="url(#clip522)" style="stroke:#000000; stroke-linecap:round; stroke-linejoin:round; stroke-width:4; stroke-opacity:0.5; fill:none" points="1618.51,836.25 1618.51,1423.18 1665.96,1423.18 1665.96,836.25 1618.51,836.25 "/>
<path clip-path="url(#clip522)" d="M1665.96 981.256 L1665.96 1423.18 L1713.42 1423.18 L1713.42 981.256 L1665.96 981.256 L1665.96 981.256  Z" fill="#009af9" fill-rule="evenodd" fill-opacity="0.5"/>
<polyline clip-path="url(#clip522)" style="stroke:#000000; stroke-linecap:round; stroke-linejoin:round; stroke-width:4; stroke-opacity:0.5; fill:none" points="1665.96,981.256 1665.96,1423.18 1713.42,1423.18 1713.42,981.256 1665.96,981.256 "/>
<path clip-path="url(#clip522)" d="M1713.42 1110.73 L1713.42 1423.18 L1760.88 1423.18 L1760.88 1110.73 L1713.42 1110.73 L1713.42 1110.73  Z" fill="#009af9" fill-rule="evenodd" fill-opacity="0.5"/>
<polyline clip-path="url(#clip522)" style="stroke:#000000; stroke-linecap:round; stroke-linejoin:round; stroke-width:4; stroke-opacity:0.5; fill:none" points="1713.42,1110.73 1713.42,1423.18 1760.88,1423.18 1760.88,1110.73 1713.42,1110.73 "/>
<path clip-path="url(#clip522)" d="M1760.88 1195.31 L1760.88 1423.18 L1808.33 1423.18 L1808.33 1195.31 L1760.88 1195.31 L1760.88 1195.31  Z" fill="#009af9" fill-rule="evenodd" fill-opacity="0.5"/>
<polyline clip-path="url(#clip522)" style="stroke:#000000; stroke-linecap:round; stroke-linejoin:round; stroke-width:4; stroke-opacity:0.5; fill:none" points="1760.88,1195.31 1760.88,1423.18 1808.33,1423.18 1808.33,1195.31 1760.88,1195.31 "/>
<path clip-path="url(#clip522)" d="M1808.33 1271.27 L1808.33 1423.18 L1855.79 1423.18 L1855.79 1271.27 L1808.33 1271.27 L1808.33 1271.27  Z" fill="#009af9" fill-rule="evenodd" fill-opacity="0.5"/>
<polyline clip-path="url(#clip522)" style="stroke:#000000; stroke-linecap:round; stroke-linejoin:round; stroke-width:4; stroke-opacity:0.5; fill:none" points="1808.33,1271.27 1808.33,1423.18 1855.79,1423.18 1855.79,1271.27 1808.33,1271.27 "/>
<path clip-path="url(#clip522)" d="M1855.79 1305.79 L1855.79 1423.18 L1903.25 1423.18 L1903.25 1305.79 L1855.79 1305.79 L1855.79 1305.79  Z" fill="#009af9" fill-rule="evenodd" fill-opacity="0.5"/>
<polyline clip-path="url(#clip522)" style="stroke:#000000; stroke-linecap:round; stroke-linejoin:round; stroke-width:4; stroke-opacity:0.5; fill:none" points="1855.79,1305.79 1855.79,1423.18 1903.25,1423.18 1903.25,1305.79 1855.79,1305.79 "/>
<path clip-path="url(#clip522)" d="M1903.25 1348.95 L1903.25 1423.18 L1950.7 1423.18 L1950.7 1348.95 L1903.25 1348.95 L1903.25 1348.95  Z" fill="#009af9" fill-rule="evenodd" fill-opacity="0.5"/>
<polyline clip-path="url(#clip522)" style="stroke:#000000; stroke-linecap:round; stroke-linejoin:round; stroke-width:4; stroke-opacity:0.5; fill:none" points="1903.25,1348.95 1903.25,1423.18 1950.7,1423.18 1950.7,1348.95 1903.25,1348.95 "/>
<path clip-path="url(#clip522)" d="M1950.7 1385.2 L1950.7 1423.18 L1998.16 1423.18 L1998.16 1385.2 L1950.7 1385.2 L1950.7 1385.2  Z" fill="#009af9" fill-rule="evenodd" fill-opacity="0.5"/>
<polyline clip-path="url(#clip522)" style="stroke:#000000; stroke-linecap:round; stroke-linejoin:round; stroke-width:4; stroke-opacity:0.5; fill:none" points="1950.7,1385.2 1950.7,1423.18 1998.16,1423.18 1998.16,1385.2 1950.7,1385.2 "/>
<path clip-path="url(#clip522)" d="M1998.16 1409.37 L1998.16 1423.18 L2045.62 1423.18 L2045.62 1409.37 L1998.16 1409.37 L1998.16 1409.37  Z" fill="#009af9" fill-rule="evenodd" fill-opacity="0.5"/>
<polyline clip-path="url(#clip522)" style="stroke:#000000; stroke-linecap:round; stroke-linejoin:round; stroke-width:4; stroke-opacity:0.5; fill:none" points="1998.16,1409.37 1998.16,1423.18 2045.62,1423.18 2045.62,1409.37 1998.16,1409.37 "/>
<path clip-path="url(#clip522)" d="M2045.62 1412.82 L2045.62 1423.18 L2093.07 1423.18 L2093.07 1412.82 L2045.62 1412.82 L2045.62 1412.82  Z" fill="#009af9" fill-rule="evenodd" fill-opacity="0.5"/>
<polyline clip-path="url(#clip522)" style="stroke:#000000; stroke-linecap:round; stroke-linejoin:round; stroke-width:4; stroke-opacity:0.5; fill:none" points="2045.62,1412.82 2045.62,1423.18 2093.07,1423.18 2093.07,1412.82 2045.62,1412.82 "/>
<path clip-path="url(#clip522)" d="M2093.07 1416.27 L2093.07 1423.18 L2140.53 1423.18 L2140.53 1416.27 L2093.07 1416.27 L2093.07 1416.27  Z" fill="#009af9" fill-rule="evenodd" fill-opacity="0.5"/>
<polyline clip-path="url(#clip522)" style="stroke:#000000; stroke-linecap:round; stroke-linejoin:round; stroke-width:4; stroke-opacity:0.5; fill:none" points="2093.07,1416.27 2093.07,1423.18 2140.53,1423.18 2140.53,1416.27 2093.07,1416.27 "/>
<path clip-path="url(#clip522)" d="M2140.53 1421.45 L2140.53 1423.18 L2187.99 1423.18 L2187.99 1421.45 L2140.53 1421.45 L2140.53 1421.45  Z" fill="#009af9" fill-rule="evenodd" fill-opacity="0.5"/>
<polyline clip-path="url(#clip522)" style="stroke:#000000; stroke-linecap:round; stroke-linejoin:round; stroke-width:4; stroke-opacity:0.5; fill:none" points="2140.53,1421.45 2140.53,1423.18 2187.99,1423.18 2187.99,1421.45 2140.53,1421.45 "/>
<path clip-path="url(#clip522)" d="M2187.99 1421.45 L2187.99 1423.18 L2235.44 1423.18 L2235.44 1421.45 L2187.99 1421.45 L2187.99 1421.45  Z" fill="#009af9" fill-rule="evenodd" fill-opacity="0.5"/>
<polyline clip-path="url(#clip522)" style="stroke:#000000; stroke-linecap:round; stroke-linejoin:round; stroke-width:4; stroke-opacity:0.5; fill:none" points="2187.99,1421.45 2187.99,1423.18 2235.44,1423.18 2235.44,1421.45 2187.99,1421.45 "/>
<circle clip-path="url(#clip522)" style="fill:#009af9; stroke:none; fill-opacity:0" cx="360.907" cy="1421.45" r="2"/>
<circle clip-path="url(#clip522)" style="fill:#009af9; stroke:none; fill-opacity:0" cx="408.364" cy="1421.45" r="2"/>
<circle clip-path="url(#clip522)" style="fill:#009af9; stroke:none; fill-opacity:0" cx="455.821" cy="1419.73" r="2"/>
<circle clip-path="url(#clip522)" style="fill:#009af9; stroke:none; fill-opacity:0" cx="503.277" cy="1416.27" r="2"/>
<circle clip-path="url(#clip522)" style="fill:#009af9; stroke:none; fill-opacity:0" cx="550.734" cy="1418" r="2"/>
<circle clip-path="url(#clip522)" style="fill:#009af9; stroke:none; fill-opacity:0" cx="598.19" cy="1409.37" r="2"/>
<circle clip-path="url(#clip522)" style="fill:#009af9; stroke:none; fill-opacity:0" cx="645.647" cy="1399.01" r="2"/>
<circle clip-path="url(#clip522)" style="fill:#009af9; stroke:none; fill-opacity:0" cx="693.104" cy="1380.02" r="2"/>
<circle clip-path="url(#clip522)" style="fill:#009af9; stroke:none; fill-opacity:0" cx="740.56" cy="1374.84" r="2"/>
<circle clip-path="url(#clip522)" style="fill:#009af9; stroke:none; fill-opacity:0" cx="788.017" cy="1342.05" r="2"/>
<circle clip-path="url(#clip522)" style="fill:#009af9; stroke:none; fill-opacity:0" cx="835.473" cy="1272.99" r="2"/>
<circle clip-path="url(#clip522)" style="fill:#009af9; stroke:none; fill-opacity:0" cx="882.93" cy="1216.03" r="2"/>
<circle clip-path="url(#clip522)" style="fill:#009af9; stroke:none; fill-opacity:0" cx="930.387" cy="1107.27" r="2"/>
<circle clip-path="url(#clip522)" style="fill:#009af9; stroke:none; fill-opacity:0" cx="977.843" cy="979.53" r="2"/>
<circle clip-path="url(#clip522)" style="fill:#009af9; stroke:none; fill-opacity:0" cx="1025.3" cy="850.06" r="2"/>
<circle clip-path="url(#clip522)" style="fill:#009af9; stroke:none; fill-opacity:0" cx="1072.76" cy="656.719" r="2"/>
<circle clip-path="url(#clip522)" style="fill:#009af9; stroke:none; fill-opacity:0" cx="1120.21" cy="490.997" r="2"/>
<circle clip-path="url(#clip522)" style="fill:#009af9; stroke:none; fill-opacity:0" cx="1167.67" cy="428.852" r="2"/>
<circle clip-path="url(#clip522)" style="fill:#009af9; stroke:none; fill-opacity:0" cx="1215.13" cy="163.007" r="2"/>
<circle clip-path="url(#clip522)" style="fill:#009af9; stroke:none; fill-opacity:0" cx="1262.58" cy="138.839" r="2"/>
<circle clip-path="url(#clip522)" style="fill:#009af9; stroke:none; fill-opacity:0" cx="1310.04" cy="59.4313" r="2"/>
<circle clip-path="url(#clip522)" style="fill:#009af9; stroke:none; fill-opacity:0" cx="1357.5" cy="119.851" r="2"/>
<circle clip-path="url(#clip522)" style="fill:#009af9; stroke:none; fill-opacity:0" cx="1404.95" cy="78.4202" r="2"/>
<circle clip-path="url(#clip522)" style="fill:#009af9; stroke:none; fill-opacity:0" cx="1452.41" cy="225.153" r="2"/>
<circle clip-path="url(#clip522)" style="fill:#009af9; stroke:none; fill-opacity:0" cx="1499.87" cy="297.656" r="2"/>
<circle clip-path="url(#clip522)" style="fill:#009af9; stroke:none; fill-opacity:0" cx="1547.32" cy="475.461" r="2"/>
<circle clip-path="url(#clip522)" style="fill:#009af9; stroke:none; fill-opacity:0" cx="1594.78" cy="585.942" r="2"/>
<circle clip-path="url(#clip522)" style="fill:#009af9; stroke:none; fill-opacity:0" cx="1642.24" cy="836.25" r="2"/>
<circle clip-path="url(#clip522)" style="fill:#009af9; stroke:none; fill-opacity:0" cx="1689.69" cy="981.256" r="2"/>
<circle clip-path="url(#clip522)" style="fill:#009af9; stroke:none; fill-opacity:0" cx="1737.15" cy="1110.73" r="2"/>
<circle clip-path="url(#clip522)" style="fill:#009af9; stroke:none; fill-opacity:0" cx="1784.61" cy="1195.31" r="2"/>
<circle clip-path="url(#clip522)" style="fill:#009af9; stroke:none; fill-opacity:0" cx="1832.06" cy="1271.27" r="2"/>
<circle clip-path="url(#clip522)" style="fill:#009af9; stroke:none; fill-opacity:0" cx="1879.52" cy="1305.79" r="2"/>
<circle clip-path="url(#clip522)" style="fill:#009af9; stroke:none; fill-opacity:0" cx="1926.98" cy="1348.95" r="2"/>
<circle clip-path="url(#clip522)" style="fill:#009af9; stroke:none; fill-opacity:0" cx="1974.43" cy="1385.2" r="2"/>
<circle clip-path="url(#clip522)" style="fill:#009af9; stroke:none; fill-opacity:0" cx="2021.89" cy="1409.37" r="2"/>
<circle clip-path="url(#clip522)" style="fill:#009af9; stroke:none; fill-opacity:0" cx="2069.35" cy="1412.82" r="2"/>
<circle clip-path="url(#clip522)" style="fill:#009af9; stroke:none; fill-opacity:0" cx="2116.8" cy="1416.27" r="2"/>
<circle clip-path="url(#clip522)" style="fill:#009af9; stroke:none; fill-opacity:0" cx="2164.26" cy="1421.45" r="2"/>
<circle clip-path="url(#clip522)" style="fill:#009af9; stroke:none; fill-opacity:0" cx="2211.71" cy="1421.45" r="2"/>
<polyline clip-path="url(#clip522)" style="stroke:#e26f46; stroke-linecap:round; stroke-linejoin:round; stroke-width:8; stroke-opacity:1; fill:none" points="454.276,1421.81 463.394,1421.61 472.513,1421.37 525.918,1419.17 579.324,1414.76 604.168,1411.48 629.012,1407.11 662.313,1399 695.613,1387.51 709.371,1381.53 723.13,1374.72 736.888,1366.98 750.646,1358.22 763.44,1349.07 776.234,1338.89 789.028,1327.58 801.821,1315.08 817.882,1297.55 833.943,1277.85 850.003,1255.82 866.064,1231.34 880.471,1207.19 894.877,1180.89 909.283,1152.39 923.69,1121.64 940.18,1083.68 956.67,1042.78 973.16,998.998 989.651,952.454 1001.98,915.956 1014.3,878.099 1026.63,838.991 1038.96,798.762 1070.49,691.814 1102.02,581.516 1130.8,480.997 1159.58,383.847 1167.77,357.282 1175.95,331.336 1184.14,306.087 1192.33,281.612 1200.52,257.987 1208.71,235.286 1216.9,213.582 1225.08,192.944 1238.07,162.575 1251.05,135.31 1264.03,111.382 1277.01,90.9954 1285.08,80.1947 1293.14,70.8665 1301.21,63.0427 1309.27,56.7501 1317.34,52.0103 1325.4,48.8397 1333.46,47.2491 1341.53,47.2441 1353.88,50.309 1366.23,57.0675 1378.59,67.465 1390.94,81.4178 1399.65,93.3307 1408.35,106.908 1417.06,122.097 1425.77,138.839 1434.47,157.068 1443.18,176.715 1451.89,197.705 1460.6,219.961 1473.61,255.402 1486.62,293.196 1499.64,333.046 1512.65,374.644 1542.25,474.111 1571.85,577.383 1601.16,680.042 1630.48,780.113 1646.6,833.138 1662.73,884.281 1678.85,933.255 1694.98,979.827 1707.29,1013.67 1719.61,1045.94 1731.93,1076.61 1744.24,1105.63 1759.79,1139.91 1775.33,1171.56 1790.87,1200.64 1806.41,1227.19 1820.79,1249.59 1835.16,1269.98 1849.54,1288.48 1863.91,1305.17 1878.74,1320.62 1893.57,1334.39 1908.39,1346.62 1923.22,1357.41 1938.24,1367.03 1953.27,1375.43 1968.3,1382.73 1983.33,1389.06 2014.71,1399.57 2046.09,1407.12 2070.81,1411.47 2095.54,1414.74 2151.84,1419.33 2208.14,1421.52 2214.45,1421.67 2220.77,1421.81 "/>
</svg>
