<?xml version="1.0" encoding="utf-8"?>
<svg xmlns="http://www.w3.org/2000/svg" xmlns:xlink="http://www.w3.org/1999/xlink" width="600" height="400" viewBox="0 0 2400 1600">
<defs>
  <clipPath id="clip850">
    <rect x="0" y="0" width="2400" height="1600"/>
  </clipPath>
</defs>
<path clip-path="url(#clip850)" d="
M0 1600 L2400 1600 L2400 0 L0 0  Z
  " fill="#ffffff" fill-rule="evenodd" fill-opacity="1"/>
<defs>
  <clipPath id="clip851">
    <rect x="480" y="0" width="1681" height="1600"/>
  </clipPath>
</defs>
<path clip-path="url(#clip850)" d="
M224.098 1486.45 L2352.76 1486.45 L2352.76 47.2441 L224.098 47.2441  Z
  " fill="#ffffff" fill-rule="evenodd" fill-opacity="1"/>
<defs>
  <clipPath id="clip852">
    <rect x="224" y="47" width="2130" height="1440"/>
  </clipPath>
</defs>
<polyline clip-path="url(#clip852)" style="stroke:#000000; stroke-width:2; stroke-opacity:0.1; fill:none" points="
  434.246,1486.45 434.246,47.2441 
  "/>
<polyline clip-path="url(#clip852)" style="stroke:#000000; stroke-width:2; stroke-opacity:0.1; fill:none" points="
  743.53,1486.45 743.53,47.2441 
  "/>
<polyline clip-path="url(#clip852)" style="stroke:#000000; stroke-width:2; stroke-opacity:0.1; fill:none" points="
  1052.81,1486.45 1052.81,47.2441 
  "/>
<polyline clip-path="url(#clip852)" style="stroke:#000000; stroke-width:2; stroke-opacity:0.1; fill:none" points="
  1362.1,1486.45 1362.1,47.2441 
  "/>
<polyline clip-path="url(#clip852)" style="stroke:#000000; stroke-width:2; stroke-opacity:0.1; fill:none" points="
  1671.38,1486.45 1671.38,47.2441 
  "/>
<polyline clip-path="url(#clip852)" style="stroke:#000000; stroke-width:2; stroke-opacity:0.1; fill:none" points="
  1980.67,1486.45 1980.67,47.2441 
  "/>
<polyline clip-path="url(#clip852)" style="stroke:#000000; stroke-width:2; stroke-opacity:0.1; fill:none" points="
  2289.95,1486.45 2289.95,47.2441 
  "/>
<polyline clip-path="url(#clip850)" style="stroke:#000000; stroke-width:4; stroke-opacity:1; fill:none" points="
  224.098,1486.45 2352.76,1486.45 
  "/>
<polyline clip-path="url(#clip850)" style="stroke:#000000; stroke-width:4; stroke-opacity:1; fill:none" points="
  434.246,1486.45 434.246,1469.18 
  "/>
<polyline clip-path="url(#clip850)" style="stroke:#000000; stroke-width:4; stroke-opacity:1; fill:none" points="
  743.53,1486.45 743.53,1469.18 
  "/>
<polyline clip-path="url(#clip850)" style="stroke:#000000; stroke-width:4; stroke-opacity:1; fill:none" points="
  1052.81,1486.45 1052.81,1469.18 
  "/>
<polyline clip-path="url(#clip850)" style="stroke:#000000; stroke-width:4; stroke-opacity:1; fill:none" points="
  1362.1,1486.45 1362.1,1469.18 
  "/>
<polyline clip-path="url(#clip850)" style="stroke:#000000; stroke-width:4; stroke-opacity:1; fill:none" points="
  1671.38,1486.45 1671.38,1469.18 
  "/>
<polyline clip-path="url(#clip850)" style="stroke:#000000; stroke-width:4; stroke-opacity:1; fill:none" points="
  1980.67,1486.45 1980.67,1469.18 
  "/>
<polyline clip-path="url(#clip850)" style="stroke:#000000; stroke-width:4; stroke-opacity:1; fill:none" points="
  2289.95,1486.45 2289.95,1469.18 
  "/>
<path clip-path="url(#clip850)" d="M 0 0 M366.191 1530.29 L395.866 1530.29 L395.866 1534.23 L366.191 1534.23 L366.191 1530.29 Z" fill="#000000" fill-rule="evenodd" fill-opacity="1" /><path clip-path="url(#clip850)" d="M 0 0 M415.959 1515.64 Q412.348 1515.64 410.519 1519.2 Q408.713 1522.75 408.713 1529.87 Q408.713 1536.98 410.519 1540.55 Q412.348 1544.09 415.959 1544.09 Q419.593 1544.09 421.399 1540.55 Q423.227 1536.98 423.227 1529.87 Q423.227 1522.75 421.399 1519.2 Q419.593 1515.64 415.959 1515.64 M415.959 1511.93 Q421.769 1511.93 424.824 1516.54 Q427.903 1521.12 427.903 1529.87 Q427.903 1538.6 424.824 1543.21 Q421.769 1547.79 415.959 1547.79 Q410.149 1547.79 407.07 1543.21 Q404.014 1538.6 404.014 1529.87 Q404.014 1521.12 407.07 1516.54 Q410.149 1511.93 415.959 1511.93 Z" fill="#000000" fill-rule="evenodd" fill-opacity="1" /><path clip-path="url(#clip850)" d="M 0 0 M436.121 1541.24 L441.005 1541.24 L441.005 1547.12 L436.121 1547.12 L436.121 1541.24 Z" fill="#000000" fill-rule="evenodd" fill-opacity="1" /><path clip-path="url(#clip850)" d="M 0 0 M461.19 1515.64 Q457.579 1515.64 455.75 1519.2 Q453.945 1522.75 453.945 1529.87 Q453.945 1536.98 455.75 1540.55 Q457.579 1544.09 461.19 1544.09 Q464.824 1544.09 466.63 1540.55 Q468.459 1536.98 468.459 1529.87 Q468.459 1522.75 466.63 1519.2 Q464.824 1515.64 461.19 1515.64 M461.19 1511.93 Q467 1511.93 470.056 1516.54 Q473.134 1521.12 473.134 1529.87 Q473.134 1538.6 470.056 1543.21 Q467 1547.79 461.19 1547.79 Q455.38 1547.79 452.301 1543.21 Q449.246 1538.6 449.246 1529.87 Q449.246 1521.12 452.301 1516.54 Q455.38 1511.93 461.19 1511.93 Z" fill="#000000" fill-rule="evenodd" fill-opacity="1" /><path clip-path="url(#clip850)" d="M 0 0 M481.398 1512.56 L499.755 1512.56 L499.755 1516.5 L485.681 1516.5 L485.681 1524.97 Q486.699 1524.62 487.718 1524.46 Q488.736 1524.27 489.755 1524.27 Q495.542 1524.27 498.921 1527.44 Q502.301 1530.62 502.301 1536.03 Q502.301 1541.61 498.829 1544.71 Q495.357 1547.79 489.037 1547.79 Q486.861 1547.79 484.593 1547.42 Q482.347 1547.05 479.94 1546.31 L479.94 1541.61 Q482.023 1542.74 484.245 1543.3 Q486.468 1543.86 488.945 1543.86 Q492.949 1543.86 495.287 1541.75 Q497.625 1539.64 497.625 1536.03 Q497.625 1532.42 495.287 1530.31 Q492.949 1528.21 488.945 1528.21 Q487.07 1528.21 485.195 1528.62 Q483.343 1529.04 481.398 1529.92 L481.398 1512.56 Z" fill="#000000" fill-rule="evenodd" fill-opacity="1" /><path clip-path="url(#clip850)" d="M 0 0 M705.833 1515.64 Q702.222 1515.64 700.394 1519.2 Q698.588 1522.75 698.588 1529.87 Q698.588 1536.98 700.394 1540.55 Q702.222 1544.09 705.833 1544.09 Q709.468 1544.09 711.273 1540.55 Q713.102 1536.98 713.102 1529.87 Q713.102 1522.75 711.273 1519.2 Q709.468 1515.64 705.833 1515.64 M705.833 1511.93 Q711.644 1511.93 714.699 1516.54 Q717.778 1521.12 717.778 1529.87 Q717.778 1538.6 714.699 1543.21 Q711.644 1547.79 705.833 1547.79 Q700.023 1547.79 696.945 1543.21 Q693.889 1538.6 693.889 1529.87 Q693.889 1521.12 696.945 1516.54 Q700.023 1511.93 705.833 1511.93 Z" fill="#000000" fill-rule="evenodd" fill-opacity="1" /><path clip-path="url(#clip850)" d="M 0 0 M725.995 1541.24 L730.88 1541.24 L730.88 1547.12 L725.995 1547.12 L725.995 1541.24 Z" fill="#000000" fill-rule="evenodd" fill-opacity="1" /><path clip-path="url(#clip850)" d="M 0 0 M751.065 1515.64 Q747.454 1515.64 745.625 1519.2 Q743.819 1522.75 743.819 1529.87 Q743.819 1536.98 745.625 1540.55 Q747.454 1544.09 751.065 1544.09 Q754.699 1544.09 756.504 1540.55 Q758.333 1536.98 758.333 1529.87 Q758.333 1522.75 756.504 1519.2 Q754.699 1515.64 751.065 1515.64 M751.065 1511.93 Q756.875 1511.93 759.93 1516.54 Q763.009 1521.12 763.009 1529.87 Q763.009 1538.6 759.93 1543.21 Q756.875 1547.79 751.065 1547.79 Q745.255 1547.79 742.176 1543.21 Q739.12 1538.6 739.12 1529.87 Q739.12 1521.12 742.176 1516.54 Q745.255 1511.93 751.065 1511.93 Z" fill="#000000" fill-rule="evenodd" fill-opacity="1" /><path clip-path="url(#clip850)" d="M 0 0 M781.227 1515.64 Q777.615 1515.64 775.787 1519.2 Q773.981 1522.75 773.981 1529.87 Q773.981 1536.98 775.787 1540.55 Q777.615 1544.09 781.227 1544.09 Q784.861 1544.09 786.666 1540.55 Q788.495 1536.98 788.495 1529.87 Q788.495 1522.75 786.666 1519.2 Q784.861 1515.64 781.227 1515.64 M781.227 1511.93 Q787.037 1511.93 790.092 1516.54 Q793.171 1521.12 793.171 1529.87 Q793.171 1538.6 790.092 1543.21 Q787.037 1547.79 781.227 1547.79 Q775.416 1547.79 772.338 1543.21 Q769.282 1538.6 769.282 1529.87 Q769.282 1521.12 772.338 1516.54 Q775.416 1511.93 781.227 1511.93 Z" fill="#000000" fill-rule="evenodd" fill-opacity="1" /><path clip-path="url(#clip850)" d="M 0 0 M1015.62 1515.64 Q1012 1515.64 1010.18 1519.2 Q1008.37 1522.75 1008.37 1529.87 Q1008.37 1536.98 1010.18 1540.55 Q1012 1544.09 1015.62 1544.09 Q1019.25 1544.09 1021.06 1540.55 Q1022.88 1536.98 1022.88 1529.87 Q1022.88 1522.75 1021.06 1519.2 Q1019.25 1515.64 1015.62 1515.64 M1015.62 1511.93 Q1021.43 1511.93 1024.48 1516.54 Q1027.56 1521.12 1027.56 1529.87 Q1027.56 1538.6 1024.48 1543.21 Q1021.43 1547.79 1015.62 1547.79 Q1009.81 1547.79 1006.73 1543.21 Q1003.67 1538.6 1003.67 1529.87 Q1003.67 1521.12 1006.73 1516.54 Q1009.81 1511.93 1015.62 1511.93 Z" fill="#000000" fill-rule="evenodd" fill-opacity="1" /><path clip-path="url(#clip850)" d="M 0 0 M1035.78 1541.24 L1040.66 1541.24 L1040.66 1547.12 L1035.78 1547.12 L1035.78 1541.24 Z" fill="#000000" fill-rule="evenodd" fill-opacity="1" /><path clip-path="url(#clip850)" d="M 0 0 M1060.85 1515.64 Q1057.24 1515.64 1055.41 1519.2 Q1053.6 1522.75 1053.6 1529.87 Q1053.6 1536.98 1055.41 1540.55 Q1057.24 1544.09 1060.85 1544.09 Q1064.48 1544.09 1066.29 1540.55 Q1068.12 1536.98 1068.12 1529.87 Q1068.12 1522.75 1066.29 1519.2 Q1064.48 1515.64 1060.85 1515.64 M1060.85 1511.93 Q1066.66 1511.93 1069.71 1516.54 Q1072.79 1521.12 1072.79 1529.87 Q1072.79 1538.6 1069.71 1543.21 Q1066.66 1547.79 1060.85 1547.79 Q1055.04 1547.79 1051.96 1543.21 Q1048.9 1538.6 1048.9 1529.87 Q1048.9 1521.12 1051.96 1516.54 Q1055.04 1511.93 1060.85 1511.93 Z" fill="#000000" fill-rule="evenodd" fill-opacity="1" /><path clip-path="url(#clip850)" d="M 0 0 M1081.05 1512.56 L1099.41 1512.56 L1099.41 1516.5 L1085.34 1516.5 L1085.34 1524.97 Q1086.36 1524.62 1087.37 1524.46 Q1088.39 1524.27 1089.41 1524.27 Q1095.2 1524.27 1098.58 1527.44 Q1101.96 1530.62 1101.96 1536.03 Q1101.96 1541.61 1098.49 1544.71 Q1095.01 1547.79 1088.69 1547.79 Q1086.52 1547.79 1084.25 1547.42 Q1082 1547.05 1079.6 1546.31 L1079.6 1541.61 Q1081.68 1542.74 1083.9 1543.3 Q1086.12 1543.86 1088.6 1543.86 Q1092.61 1543.86 1094.94 1541.75 Q1097.28 1539.64 1097.28 1536.03 Q1097.28 1532.42 1094.94 1530.31 Q1092.61 1528.21 1088.6 1528.21 Q1086.73 1528.21 1084.85 1528.62 Q1083 1529.04 1081.05 1529.92 L1081.05 1512.56 Z" fill="#000000" fill-rule="evenodd" fill-opacity="1" /><path clip-path="url(#clip850)" d="M 0 0 M1324.4 1515.64 Q1320.79 1515.64 1318.96 1519.2 Q1317.16 1522.75 1317.16 1529.87 Q1317.16 1536.98 1318.96 1540.55 Q1320.79 1544.09 1324.4 1544.09 Q1328.04 1544.09 1329.84 1540.55 Q1331.67 1536.98 1331.67 1529.87 Q1331.67 1522.75 1329.84 1519.2 Q1328.04 1515.64 1324.4 1515.64 M1324.4 1511.93 Q1330.21 1511.93 1333.27 1516.54 Q1336.35 1521.12 1336.35 1529.87 Q1336.35 1538.6 1333.27 1543.21 Q1330.21 1547.79 1324.4 1547.79 Q1318.59 1547.79 1315.51 1543.21 Q1312.46 1538.6 1312.46 1529.87 Q1312.46 1521.12 1315.51 1516.54 Q1318.59 1511.93 1324.4 1511.93 Z" fill="#000000" fill-rule="evenodd" fill-opacity="1" /><path clip-path="url(#clip850)" d="M 0 0 M1344.56 1541.24 L1349.45 1541.24 L1349.45 1547.12 L1344.56 1547.12 L1344.56 1541.24 Z" fill="#000000" fill-rule="evenodd" fill-opacity="1" /><path clip-path="url(#clip850)" d="M 0 0 M1360.44 1543.18 L1368.08 1543.18 L1368.08 1516.82 L1359.77 1518.49 L1359.77 1514.23 L1368.04 1512.56 L1372.71 1512.56 L1372.71 1543.18 L1380.35 1543.18 L1380.35 1547.12 L1360.44 1547.12 L1360.44 1543.18 Z" fill="#000000" fill-rule="evenodd" fill-opacity="1" /><path clip-path="url(#clip850)" d="M 0 0 M1399.8 1515.64 Q1396.18 1515.64 1394.36 1519.2 Q1392.55 1522.75 1392.55 1529.87 Q1392.55 1536.98 1394.36 1540.55 Q1396.18 1544.09 1399.8 1544.09 Q1403.43 1544.09 1405.23 1540.55 Q1407.06 1536.98 1407.06 1529.87 Q1407.06 1522.75 1405.23 1519.2 Q1403.43 1515.64 1399.8 1515.64 M1399.8 1511.93 Q1405.61 1511.93 1408.66 1516.54 Q1411.74 1521.12 1411.74 1529.87 Q1411.74 1538.6 1408.66 1543.21 Q1405.61 1547.79 1399.8 1547.79 Q1393.98 1547.79 1390.91 1543.21 Q1387.85 1538.6 1387.85 1529.87 Q1387.85 1521.12 1390.91 1516.54 Q1393.98 1511.93 1399.8 1511.93 Z" fill="#000000" fill-rule="evenodd" fill-opacity="1" /><path clip-path="url(#clip850)" d="M 0 0 M1634.18 1515.64 Q1630.57 1515.64 1628.74 1519.2 Q1626.94 1522.75 1626.94 1529.87 Q1626.94 1536.98 1628.74 1540.55 Q1630.57 1544.09 1634.18 1544.09 Q1637.82 1544.09 1639.62 1540.55 Q1641.45 1536.98 1641.45 1529.87 Q1641.45 1522.75 1639.62 1519.2 Q1637.82 1515.64 1634.18 1515.64 M1634.18 1511.93 Q1639.99 1511.93 1643.05 1516.54 Q1646.13 1521.12 1646.13 1529.87 Q1646.13 1538.6 1643.05 1543.21 Q1639.99 1547.79 1634.18 1547.79 Q1628.37 1547.79 1625.3 1543.21 Q1622.24 1538.6 1622.24 1529.87 Q1622.24 1521.12 1625.3 1516.54 Q1628.37 1511.93 1634.18 1511.93 Z" fill="#000000" fill-rule="evenodd" fill-opacity="1" /><path clip-path="url(#clip850)" d="M 0 0 M1654.35 1541.24 L1659.23 1541.24 L1659.23 1547.12 L1654.35 1547.12 L1654.35 1541.24 Z" fill="#000000" fill-rule="evenodd" fill-opacity="1" /><path clip-path="url(#clip850)" d="M 0 0 M1670.23 1543.18 L1677.86 1543.18 L1677.86 1516.82 L1669.55 1518.49 L1669.55 1514.23 L1677.82 1512.56 L1682.49 1512.56 L1682.49 1543.18 L1690.13 1543.18 L1690.13 1547.12 L1670.23 1547.12 L1670.23 1543.18 Z" fill="#000000" fill-rule="evenodd" fill-opacity="1" /><path clip-path="url(#clip850)" d="M 0 0 M1699.62 1512.56 L1717.98 1512.56 L1717.98 1516.5 L1703.91 1516.5 L1703.91 1524.97 Q1704.92 1524.62 1705.94 1524.46 Q1706.96 1524.27 1707.98 1524.27 Q1713.77 1524.27 1717.15 1527.44 Q1720.53 1530.62 1720.53 1536.03 Q1720.53 1541.61 1717.05 1544.71 Q1713.58 1547.79 1707.26 1547.79 Q1705.09 1547.79 1702.82 1547.42 Q1700.57 1547.05 1698.17 1546.31 L1698.17 1541.61 Q1700.25 1542.74 1702.47 1543.3 Q1704.69 1543.86 1707.17 1543.86 Q1711.17 1543.86 1713.51 1541.75 Q1715.85 1539.64 1715.85 1536.03 Q1715.85 1532.42 1713.51 1530.31 Q1711.17 1528.21 1707.17 1528.21 Q1705.29 1528.21 1703.42 1528.62 Q1701.57 1529.04 1699.62 1529.92 L1699.62 1512.56 Z" fill="#000000" fill-rule="evenodd" fill-opacity="1" /><path clip-path="url(#clip850)" d="M 0 0 M1942.97 1515.64 Q1939.36 1515.64 1937.53 1519.2 Q1935.73 1522.75 1935.73 1529.87 Q1935.73 1536.98 1937.53 1540.55 Q1939.36 1544.09 1942.97 1544.09 Q1946.6 1544.09 1948.41 1540.55 Q1950.24 1536.98 1950.24 1529.87 Q1950.24 1522.75 1948.41 1519.2 Q1946.6 1515.64 1942.97 1515.64 M1942.97 1511.93 Q1948.78 1511.93 1951.84 1516.54 Q1954.91 1521.12 1954.91 1529.87 Q1954.91 1538.6 1951.84 1543.21 Q1948.78 1547.79 1942.97 1547.79 Q1937.16 1547.79 1934.08 1543.21 Q1931.03 1538.6 1931.03 1529.87 Q1931.03 1521.12 1934.08 1516.54 Q1937.16 1511.93 1942.97 1511.93 Z" fill="#000000" fill-rule="evenodd" fill-opacity="1" /><path clip-path="url(#clip850)" d="M 0 0 M1963.13 1541.24 L1968.02 1541.24 L1968.02 1547.12 L1963.13 1547.12 L1963.13 1541.24 Z" fill="#000000" fill-rule="evenodd" fill-opacity="1" /><path clip-path="url(#clip850)" d="M 0 0 M1982.23 1543.18 L1998.55 1543.18 L1998.55 1547.12 L1976.6 1547.12 L1976.6 1543.18 Q1979.27 1540.43 1983.85 1535.8 Q1988.46 1531.15 1989.64 1529.81 Q1991.88 1527.28 1992.76 1525.55 Q1993.66 1523.79 1993.66 1522.1 Q1993.66 1519.34 1991.72 1517.61 Q1989.8 1515.87 1986.7 1515.87 Q1984.5 1515.87 1982.04 1516.63 Q1979.61 1517.4 1976.84 1518.95 L1976.84 1514.23 Q1979.66 1513.09 1982.11 1512.51 Q1984.57 1511.93 1986.6 1511.93 Q1991.97 1511.93 1995.17 1514.62 Q1998.36 1517.31 1998.36 1521.8 Q1998.36 1523.93 1997.55 1525.85 Q1996.77 1527.74 1994.66 1530.34 Q1994.08 1531.01 1990.98 1534.23 Q1987.88 1537.42 1982.23 1543.18 Z" fill="#000000" fill-rule="evenodd" fill-opacity="1" /><path clip-path="url(#clip850)" d="M 0 0 M2018.36 1515.64 Q2014.75 1515.64 2012.92 1519.2 Q2011.12 1522.75 2011.12 1529.87 Q2011.12 1536.98 2012.92 1540.55 Q2014.75 1544.09 2018.36 1544.09 Q2022 1544.09 2023.8 1540.55 Q2025.63 1536.98 2025.63 1529.87 Q2025.63 1522.75 2023.8 1519.2 Q2022 1515.64 2018.36 1515.64 M2018.36 1511.93 Q2024.17 1511.93 2027.23 1516.54 Q2030.31 1521.12 2030.31 1529.87 Q2030.31 1538.6 2027.23 1543.21 Q2024.17 1547.79 2018.36 1547.79 Q2012.55 1547.79 2009.47 1543.21 Q2006.42 1538.6 2006.42 1529.87 Q2006.42 1521.12 2009.47 1516.54 Q2012.55 1511.93 2018.36 1511.93 Z" fill="#000000" fill-rule="evenodd" fill-opacity="1" /><path clip-path="url(#clip850)" d="M 0 0 M2252.75 1515.64 Q2249.14 1515.64 2247.31 1519.2 Q2245.51 1522.75 2245.51 1529.87 Q2245.51 1536.98 2247.31 1540.55 Q2249.14 1544.09 2252.75 1544.09 Q2256.39 1544.09 2258.19 1540.55 Q2260.02 1536.98 2260.02 1529.87 Q2260.02 1522.75 2258.19 1519.2 Q2256.39 1515.64 2252.75 1515.64 M2252.75 1511.93 Q2258.56 1511.93 2261.62 1516.54 Q2264.7 1521.12 2264.7 1529.87 Q2264.7 1538.6 2261.62 1543.21 Q2258.56 1547.79 2252.75 1547.79 Q2246.94 1547.79 2243.86 1543.21 Q2240.81 1538.6 2240.81 1529.87 Q2240.81 1521.12 2243.86 1516.54 Q2246.94 1511.93 2252.75 1511.93 Z" fill="#000000" fill-rule="evenodd" fill-opacity="1" /><path clip-path="url(#clip850)" d="M 0 0 M2272.91 1541.24 L2277.8 1541.24 L2277.8 1547.12 L2272.91 1547.12 L2272.91 1541.24 Z" fill="#000000" fill-rule="evenodd" fill-opacity="1" /><path clip-path="url(#clip850)" d="M 0 0 M2292.01 1543.18 L2308.33 1543.18 L2308.33 1547.12 L2286.39 1547.12 L2286.39 1543.18 Q2289.05 1540.43 2293.63 1535.8 Q2298.24 1531.15 2299.42 1529.81 Q2301.66 1527.28 2302.54 1525.55 Q2303.45 1523.79 2303.45 1522.1 Q2303.45 1519.34 2301.5 1517.61 Q2299.58 1515.87 2296.48 1515.87 Q2294.28 1515.87 2291.83 1516.63 Q2289.4 1517.4 2286.62 1518.95 L2286.62 1514.23 Q2289.44 1513.09 2291.9 1512.51 Q2294.35 1511.93 2296.39 1511.93 Q2301.76 1511.93 2304.95 1514.62 Q2308.15 1517.31 2308.15 1521.8 Q2308.15 1523.93 2307.34 1525.85 Q2306.55 1527.74 2304.44 1530.34 Q2303.86 1531.01 2300.76 1534.23 Q2297.66 1537.42 2292.01 1543.18 Z" fill="#000000" fill-rule="evenodd" fill-opacity="1" /><path clip-path="url(#clip850)" d="M 0 0 M2318.19 1512.56 L2336.55 1512.56 L2336.55 1516.5 L2322.47 1516.5 L2322.47 1524.97 Q2323.49 1524.62 2324.51 1524.46 Q2325.53 1524.27 2326.55 1524.27 Q2332.34 1524.27 2335.71 1527.44 Q2339.09 1530.62 2339.09 1536.03 Q2339.09 1541.61 2335.62 1544.71 Q2332.15 1547.79 2325.83 1547.79 Q2323.65 1547.79 2321.39 1547.42 Q2319.14 1547.05 2316.73 1546.31 L2316.73 1541.61 Q2318.82 1542.74 2321.04 1543.3 Q2323.26 1543.86 2325.74 1543.86 Q2329.74 1543.86 2332.08 1541.75 Q2334.42 1539.64 2334.42 1536.03 Q2334.42 1532.42 2332.08 1530.31 Q2329.74 1528.21 2325.74 1528.21 Q2323.86 1528.21 2321.99 1528.62 Q2320.14 1529.04 2318.19 1529.92 L2318.19 1512.56 Z" fill="#000000" fill-rule="evenodd" fill-opacity="1" /><polyline clip-path="url(#clip852)" style="stroke:#000000; stroke-width:2; stroke-opacity:0.1; fill:none" points="
  224.098,1236.73 2352.76,1236.73 
  "/>
<polyline clip-path="url(#clip852)" style="stroke:#000000; stroke-width:2; stroke-opacity:0.1; fill:none" points="
  224.098,892.733 2352.76,892.733 
  "/>
<polyline clip-path="url(#clip852)" style="stroke:#000000; stroke-width:2; stroke-opacity:0.1; fill:none" points="
  224.098,548.735 2352.76,548.735 
  "/>
<polyline clip-path="url(#clip852)" style="stroke:#000000; stroke-width:2; stroke-opacity:0.1; fill:none" points="
  224.098,204.737 2352.76,204.737 
  "/>
<polyline clip-path="url(#clip850)" style="stroke:#000000; stroke-width:4; stroke-opacity:1; fill:none" points="
  224.098,1486.45 224.098,47.2441 
  "/>
<polyline clip-path="url(#clip850)" style="stroke:#000000; stroke-width:4; stroke-opacity:1; fill:none" points="
  224.098,1236.73 249.642,1236.73 
  "/>
<polyline clip-path="url(#clip850)" style="stroke:#000000; stroke-width:4; stroke-opacity:1; fill:none" points="
  224.098,892.733 249.642,892.733 
  "/>
<polyline clip-path="url(#clip850)" style="stroke:#000000; stroke-width:4; stroke-opacity:1; fill:none" points="
  224.098,548.735 249.642,548.735 
  "/>
<polyline clip-path="url(#clip850)" style="stroke:#000000; stroke-width:4; stroke-opacity:1; fill:none" points="
  224.098,204.737 249.642,204.737 
  "/>
<path clip-path="url(#clip850)" d="M 0 0 M50.9921 1237.18 L80.6679 1237.18 L80.6679 1241.12 L50.9921 1241.12 L50.9921 1237.18 Z" fill="#000000" fill-rule="evenodd" fill-opacity="1" /><path clip-path="url(#clip850)" d="M 0 0 M100.76 1222.53 Q97.1493 1222.53 95.3206 1226.09 Q93.515 1229.64 93.515 1236.77 Q93.515 1243.87 95.3206 1247.44 Q97.1493 1250.98 100.76 1250.98 Q104.395 1250.98 106.2 1247.44 Q108.029 1243.87 108.029 1236.77 Q108.029 1229.64 106.2 1226.09 Q104.395 1222.53 100.76 1222.53 M100.76 1218.83 Q106.571 1218.83 109.626 1223.43 Q112.705 1228.02 112.705 1236.77 Q112.705 1245.49 109.626 1250.1 Q106.571 1254.68 100.76 1254.68 Q94.9502 1254.68 91.8715 1250.1 Q88.816 1245.49 88.816 1236.77 Q88.816 1228.02 91.8715 1223.43 Q94.9502 1218.83 100.76 1218.83 Z" fill="#000000" fill-rule="evenodd" fill-opacity="1" /><path clip-path="url(#clip850)" d="M 0 0 M120.922 1248.13 L125.807 1248.13 L125.807 1254.01 L120.922 1254.01 L120.922 1248.13 Z" fill="#000000" fill-rule="evenodd" fill-opacity="1" /><path clip-path="url(#clip850)" d="M 0 0 M136.038 1219.45 L154.394 1219.45 L154.394 1223.39 L140.32 1223.39 L140.32 1231.86 Q141.339 1231.51 142.357 1231.35 Q143.376 1231.16 144.394 1231.16 Q150.181 1231.16 153.561 1234.34 Q156.941 1237.51 156.941 1242.92 Q156.941 1248.5 153.468 1251.6 Q149.996 1254.68 143.677 1254.68 Q141.501 1254.68 139.232 1254.31 Q136.987 1253.94 134.58 1253.2 L134.58 1248.5 Q136.663 1249.64 138.885 1250.19 Q141.107 1250.75 143.584 1250.75 Q147.589 1250.75 149.927 1248.64 Q152.265 1246.53 152.265 1242.92 Q152.265 1239.31 149.927 1237.21 Q147.589 1235.1 143.584 1235.1 Q141.709 1235.1 139.834 1235.52 Q137.982 1235.93 136.038 1236.81 L136.038 1219.45 Z" fill="#000000" fill-rule="evenodd" fill-opacity="1" /><path clip-path="url(#clip850)" d="M 0 0 M176.153 1222.53 Q172.542 1222.53 170.714 1226.09 Q168.908 1229.64 168.908 1236.77 Q168.908 1243.87 170.714 1247.44 Q172.542 1250.98 176.153 1250.98 Q179.788 1250.98 181.593 1247.44 Q183.422 1243.87 183.422 1236.77 Q183.422 1229.64 181.593 1226.09 Q179.788 1222.53 176.153 1222.53 M176.153 1218.83 Q181.964 1218.83 185.019 1223.43 Q188.098 1228.02 188.098 1236.77 Q188.098 1245.49 185.019 1250.1 Q181.964 1254.68 176.153 1254.68 Q170.343 1254.68 167.265 1250.1 Q164.209 1245.49 164.209 1236.77 Q164.209 1228.02 167.265 1223.43 Q170.343 1218.83 176.153 1218.83 Z" fill="#000000" fill-rule="evenodd" fill-opacity="1" /><path clip-path="url(#clip850)" d="M 0 0 M51.9875 893.185 L81.6633 893.185 L81.6633 897.12 L51.9875 897.12 L51.9875 893.185 Z" fill="#000000" fill-rule="evenodd" fill-opacity="1" /><path clip-path="url(#clip850)" d="M 0 0 M101.756 878.532 Q98.1447 878.532 96.316 882.097 Q94.5104 885.638 94.5104 892.768 Q94.5104 899.874 96.316 903.439 Q98.1447 906.981 101.756 906.981 Q105.39 906.981 107.196 903.439 Q109.024 899.874 109.024 892.768 Q109.024 885.638 107.196 882.097 Q105.39 878.532 101.756 878.532 M101.756 874.828 Q107.566 874.828 110.621 879.435 Q113.7 884.018 113.7 892.768 Q113.7 901.495 110.621 906.101 Q107.566 910.684 101.756 910.684 Q95.9456 910.684 92.8669 906.101 Q89.8114 901.495 89.8114 892.768 Q89.8114 884.018 92.8669 879.435 Q95.9456 874.828 101.756 874.828 Z" fill="#000000" fill-rule="evenodd" fill-opacity="1" /><path clip-path="url(#clip850)" d="M 0 0 M121.918 904.134 L126.802 904.134 L126.802 910.013 L121.918 910.013 L121.918 904.134 Z" fill="#000000" fill-rule="evenodd" fill-opacity="1" /><path clip-path="url(#clip850)" d="M 0 0 M149.834 879.527 L138.029 897.976 L149.834 897.976 L149.834 879.527 M148.607 875.453 L154.487 875.453 L154.487 897.976 L159.417 897.976 L159.417 901.865 L154.487 901.865 L154.487 910.013 L149.834 910.013 L149.834 901.865 L134.232 901.865 L134.232 897.351 L148.607 875.453 Z" fill="#000000" fill-rule="evenodd" fill-opacity="1" /><path clip-path="url(#clip850)" d="M 0 0 M167.195 875.453 L185.552 875.453 L185.552 879.388 L171.478 879.388 L171.478 887.86 Q172.496 887.513 173.515 887.351 Q174.533 887.166 175.552 887.166 Q181.339 887.166 184.718 890.337 Q188.098 893.509 188.098 898.925 Q188.098 904.504 184.626 907.606 Q181.153 910.684 174.834 910.684 Q172.658 910.684 170.39 910.314 Q168.144 909.944 165.737 909.203 L165.737 904.504 Q167.82 905.638 170.042 906.194 Q172.265 906.749 174.741 906.749 Q178.746 906.749 181.084 904.643 Q183.422 902.536 183.422 898.925 Q183.422 895.314 181.084 893.208 Q178.746 891.101 174.741 891.101 Q172.866 891.101 170.991 891.518 Q169.14 891.935 167.195 892.814 L167.195 875.453 Z" fill="#000000" fill-rule="evenodd" fill-opacity="1" /><path clip-path="url(#clip850)" d="M 0 0 M50.9921 549.187 L80.6679 549.187 L80.6679 553.122 L50.9921 553.122 L50.9921 549.187 Z" fill="#000000" fill-rule="evenodd" fill-opacity="1" /><path clip-path="url(#clip850)" d="M 0 0 M100.76 534.534 Q97.1493 534.534 95.3206 538.099 Q93.515 541.64 93.515 548.77 Q93.515 555.876 95.3206 559.441 Q97.1493 562.983 100.76 562.983 Q104.395 562.983 106.2 559.441 Q108.029 555.876 108.029 548.77 Q108.029 541.64 106.2 538.099 Q104.395 534.534 100.76 534.534 M100.76 530.83 Q106.571 530.83 109.626 535.437 Q112.705 540.02 112.705 548.77 Q112.705 557.497 109.626 562.103 Q106.571 566.687 100.76 566.687 Q94.9502 566.687 91.8715 562.103 Q88.816 557.497 88.816 548.77 Q88.816 540.02 91.8715 535.437 Q94.9502 530.83 100.76 530.83 Z" fill="#000000" fill-rule="evenodd" fill-opacity="1" /><path clip-path="url(#clip850)" d="M 0 0 M120.922 560.136 L125.807 560.136 L125.807 566.015 L120.922 566.015 L120.922 560.136 Z" fill="#000000" fill-rule="evenodd" fill-opacity="1" /><path clip-path="url(#clip850)" d="M 0 0 M148.839 535.529 L137.033 553.978 L148.839 553.978 L148.839 535.529 M147.612 531.455 L153.492 531.455 L153.492 553.978 L158.422 553.978 L158.422 557.867 L153.492 557.867 L153.492 566.015 L148.839 566.015 L148.839 557.867 L133.237 557.867 L133.237 553.353 L147.612 531.455 Z" fill="#000000" fill-rule="evenodd" fill-opacity="1" /><path clip-path="url(#clip850)" d="M 0 0 M176.153 534.534 Q172.542 534.534 170.714 538.099 Q168.908 541.64 168.908 548.77 Q168.908 555.876 170.714 559.441 Q172.542 562.983 176.153 562.983 Q179.788 562.983 181.593 559.441 Q183.422 555.876 183.422 548.77 Q183.422 541.64 181.593 538.099 Q179.788 534.534 176.153 534.534 M176.153 530.83 Q181.964 530.83 185.019 535.437 Q188.098 540.02 188.098 548.77 Q188.098 557.497 185.019 562.103 Q181.964 566.687 176.153 566.687 Q170.343 566.687 167.265 562.103 Q164.209 557.497 164.209 548.77 Q164.209 540.02 167.265 535.437 Q170.343 530.83 176.153 530.83 Z" fill="#000000" fill-rule="evenodd" fill-opacity="1" /><path clip-path="url(#clip850)" d="M 0 0 M51.9875 205.189 L81.6633 205.189 L81.6633 209.124 L51.9875 209.124 L51.9875 205.189 Z" fill="#000000" fill-rule="evenodd" fill-opacity="1" /><path clip-path="url(#clip850)" d="M 0 0 M101.756 190.536 Q98.1447 190.536 96.316 194.101 Q94.5104 197.642 94.5104 204.772 Q94.5104 211.879 96.316 215.443 Q98.1447 218.985 101.756 218.985 Q105.39 218.985 107.196 215.443 Q109.024 211.879 109.024 204.772 Q109.024 197.642 107.196 194.101 Q105.39 190.536 101.756 190.536 M101.756 186.832 Q107.566 186.832 110.621 191.439 Q113.7 196.022 113.7 204.772 Q113.7 213.499 110.621 218.105 Q107.566 222.689 101.756 222.689 Q95.9456 222.689 92.8669 218.105 Q89.8114 213.499 89.8114 204.772 Q89.8114 196.022 92.8669 191.439 Q95.9456 186.832 101.756 186.832 Z" fill="#000000" fill-rule="evenodd" fill-opacity="1" /><path clip-path="url(#clip850)" d="M 0 0 M121.918 216.138 L126.802 216.138 L126.802 222.017 L121.918 222.017 L121.918 216.138 Z" fill="#000000" fill-rule="evenodd" fill-opacity="1" /><path clip-path="url(#clip850)" d="M 0 0 M151.154 203.383 Q154.51 204.101 156.385 206.369 Q158.283 208.638 158.283 211.971 Q158.283 217.087 154.765 219.888 Q151.246 222.689 144.765 222.689 Q142.589 222.689 140.274 222.249 Q137.982 221.832 135.529 220.976 L135.529 216.462 Q137.473 217.596 139.788 218.175 Q142.103 218.753 144.626 218.753 Q149.024 218.753 151.316 217.017 Q153.63 215.281 153.63 211.971 Q153.63 208.916 151.478 207.203 Q149.348 205.467 145.529 205.467 L141.501 205.467 L141.501 201.624 L145.714 201.624 Q149.163 201.624 150.992 200.258 Q152.82 198.869 152.82 196.277 Q152.82 193.615 150.922 192.203 Q149.047 190.768 145.529 190.768 Q143.607 190.768 141.408 191.184 Q139.209 191.601 136.57 192.48 L136.57 188.314 Q139.232 187.573 141.547 187.203 Q143.885 186.832 145.945 186.832 Q151.269 186.832 154.371 189.263 Q157.473 191.67 157.473 195.791 Q157.473 198.661 155.83 200.652 Q154.186 202.619 151.154 203.383 Z" fill="#000000" fill-rule="evenodd" fill-opacity="1" /><path clip-path="url(#clip850)" d="M 0 0 M167.195 187.457 L185.552 187.457 L185.552 191.393 L171.478 191.393 L171.478 199.865 Q172.496 199.517 173.515 199.355 Q174.533 199.17 175.552 199.17 Q181.339 199.17 184.718 202.342 Q188.098 205.513 188.098 210.929 Q188.098 216.508 184.626 219.61 Q181.153 222.689 174.834 222.689 Q172.658 222.689 170.39 222.318 Q168.144 221.948 165.737 221.207 L165.737 216.508 Q167.82 217.642 170.042 218.198 Q172.265 218.753 174.741 218.753 Q178.746 218.753 181.084 216.647 Q183.422 214.541 183.422 210.929 Q183.422 207.318 181.084 205.212 Q178.746 203.105 174.741 203.105 Q172.866 203.105 170.991 203.522 Q169.14 203.939 167.195 204.818 L167.195 187.457 Z" fill="#000000" fill-rule="evenodd" fill-opacity="1" /><polyline clip-path="url(#clip852)" style="stroke:#009af9; stroke-width:4; stroke-opacity:1; fill:none" points="
  743.53,1236.73 747.707,1238.39 751.758,1240.24 755.675,1242.26 759.457,1244.45 763.097,1246.81 766.591,1249.33 769.936,1252.01 773.126,1254.83 776.16,1257.8 
  779.032,1260.91 781.738,1264.14 784.277,1267.51 786.644,1270.99 788.836,1274.58 790.85,1278.28 792.684,1282.08 794.335,1285.97 795.801,1289.95 797.078,1294.01 
  798.166,1298.14 799.062,1302.34 799.764,1306.59 800.271,1310.9 800.581,1315.25 800.693,1319.64 800.607,1324.06 800.32,1328.5 799.833,1332.96 799.146,1337.43 
  798.256,1341.9 797.165,1346.37 795.873,1350.82 794.379,1355.26 792.684,1359.66 790.788,1364.03 788.693,1368.37 786.399,1372.65 783.907,1376.88 781.218,1381.04 
  778.334,1385.14 775.257,1389.16 771.987,1393.09 768.528,1396.94 764.881,1400.69 761.049,1404.33 757.034,1407.87 752.838,1411.28 748.465,1414.57 743.916,1417.74 
  739.197,1420.76 734.309,1423.64 729.256,1426.38 724.041,1428.95 718.67,1431.37 713.144,1433.62 707.469,1435.69 701.648,1437.59 695.686,1439.3 689.587,1440.82 
  683.356,1442.14 676.998,1443.27 670.517,1444.19 663.918,1444.9 657.207,1445.39 650.389,1445.67 643.469,1445.72 636.453,1445.54 629.346,1445.13 622.154,1444.48 
  614.882,1443.59 607.537,1442.46 600.125,1441.08 592.651,1439.44 585.123,1437.56 577.545,1435.41 569.925,1433.01 562.269,1430.34 554.584,1427.41 546.875,1424.21 
  539.15,1420.75 531.416,1417.01 523.679,1413 515.946,1408.71 508.223,1404.15 500.519,1399.31 492.839,1394.19 485.191,1388.8 477.581,1383.12 470.017,1377.17 
  462.507,1370.94 455.056,1364.43 447.672,1357.64 440.362,1350.57 433.134,1343.22 425.994,1335.6 418.95,1327.7 412.008,1319.53 405.176,1311.09 398.461,1302.37 
  391.869,1293.39 385.409,1284.14 379.086,1274.63 372.908,1264.85 366.881,1254.82 361.013,1244.53 355.311,1233.99 349.781,1223.2 344.429,1212.17 339.263,1200.89 
  334.289,1189.37 329.513,1177.63 324.943,1165.65 320.583,1153.45 316.441,1141.03 312.523,1128.39 308.834,1115.55 305.382,1102.5 302.17,1089.25 299.206,1075.81 
  296.495,1062.18 294.042,1048.37 291.853,1034.39 289.933,1020.24 288.287,1005.93 286.92,991.459 285.838,976.843 285.045,962.085 284.545,947.194 284.343,932.175 
  284.443,917.038 284.85,901.789 285.567,886.436 286.599,870.987 287.948,855.449 289.62,839.832 291.615,824.144 293.939,808.392 296.594,792.585 299.583,776.732 
  302.908,760.841 306.573,744.922 310.578,728.983 314.927,713.033 319.622,697.081 324.663,681.136 330.053,665.207 335.793,649.305 341.883,633.437 348.326,617.614 
  355.122,601.844 362.27,586.138 369.773,570.505 377.629,554.954 385.838,539.495 394.401,524.138 403.317,508.892 412.585,493.767 422.205,478.773 432.175,463.919 
  442.493,449.215 453.159,434.671 464.171,420.296 475.526,406.101 487.223,392.094 499.259,378.285 511.631,364.685 524.338,351.301 537.375,338.145 550.739,325.225 
  564.428,312.55 578.437,300.131 592.764,287.976 607.402,276.095 622.349,264.496 637.601,253.188 653.151,242.182 668.996,231.485 685.13,221.106 701.549,211.053 
  718.246,201.337 735.217,191.964 752.455,182.943 769.954,174.282 787.708,165.99 805.711,158.074 823.955,150.541 842.436,143.401 861.144,136.66 880.074,130.325 
  899.218,124.403 918.569,118.903 938.118,113.829 957.859,109.19 977.783,104.991 997.882,101.239 1018.15,97.9405 1038.57,95.1004 1059.15,92.7249 1079.86,90.8196 
  1100.71,89.3896 1121.68,88.4402 1142.77,87.9763 1163.96,88.0024 1185.25,88.5232 1206.62,89.5427 1228.07,91.0651 1249.59,93.0941 1271.17,95.6334 1292.79,98.6861 
  1314.45,102.255 1336.14,106.344 1357.85,110.955 1379.56,116.09 1401.27,121.752 1422.97,127.942 1444.64,134.661 1466.28,141.913 1487.87,149.696 1509.41,158.013 
  1530.88,166.863 1552.27,176.247 1573.58,186.166 1594.78,196.618 1615.88,207.604 1636.86,219.122 1657.71,231.171 1678.41,243.751 1698.97,256.86 1719.36,270.495 
  1739.57,284.654 1759.6,299.336 1779.43,314.538 1799.06,330.256 1818.47,346.487 1837.65,363.229 1856.6,380.476 1875.29,398.225 1893.73,416.472 1911.89,435.213 
  1929.77,454.441 1947.36,474.153 1964.65,494.342 1981.63,515.004 1998.29,536.132 2014.61,557.72 2030.59,579.761 2046.22,602.249 2061.49,625.177 2076.39,648.538 
  2090.91,672.324 2105.03,696.527 2118.76,721.14 2132.08,746.154 2144.98,771.561 2157.46,797.351 2169.5,823.517 2181.1,850.049 2192.24,876.938 2202.93,904.173 
  2213.14,931.745 2222.88,959.645 2232.14,987.861 2240.91,1016.38 2249.17,1045.2 2256.94,1074.3 2264.18,1103.68 2270.91,1133.32 2277.12,1163.2 2282.79,1193.33 
  2287.92,1223.68 2292.51,1254.25 
  "/>
<circle clip-path="url(#clip852)" cx="2289.95" cy="1236.73" r="14" fill="#e26f46" fill-rule="evenodd" fill-opacity="1" stroke="#000000" stroke-opacity="1" stroke-width="3.2"/>
<path clip-path="url(#clip850)" d="
M1616.05 276.658 L2281.8 276.658 L2281.8 95.2176 L1616.05 95.2176  Z
  " fill="#ffffff" fill-rule="evenodd" fill-opacity="1"/>
<polyline clip-path="url(#clip850)" style="stroke:#000000; stroke-width:4; stroke-opacity:1; fill:none" points="
  1616.05,276.658 2281.8,276.658 2281.8,95.2176 1616.05,95.2176 1616.05,276.658 
  "/>
<polyline clip-path="url(#clip850)" style="stroke:#009af9; stroke-width:4; stroke-opacity:1; fill:none" points="
  1639.7,155.698 1781.61,155.698 
  "/>
<path clip-path="url(#clip850)" d="M 0 0 M1821.28 141.589 Q1816.19 141.589 1813.18 145.385 Q1810.19 149.181 1810.19 155.732 Q1810.19 162.26 1813.18 166.056 Q1816.19 169.853 1821.28 169.853 Q1826.37 169.853 1829.34 166.056 Q1832.32 162.26 1832.32 155.732 Q1832.32 149.181 1829.34 145.385 Q1826.37 141.589 1821.28 141.589 M1821.28 137.793 Q1828.55 137.793 1832.9 142.677 Q1837.25 147.538 1837.25 155.732 Q1837.25 163.904 1832.9 168.788 Q1828.55 173.649 1821.28 173.649 Q1813.99 173.649 1809.62 168.788 Q1805.26 163.927 1805.26 155.732 Q1805.26 147.538 1809.62 142.677 Q1813.99 137.793 1821.28 137.793 Z" fill="#000000" fill-rule="evenodd" fill-opacity="1" /><path clip-path="url(#clip850)" d="M 0 0 M1848.5 169.089 L1848.5 182.839 L1844.22 182.839 L1844.22 147.052 L1848.5 147.052 L1848.5 150.987 Q1849.85 148.672 1851.88 147.561 Q1853.94 146.427 1856.79 146.427 Q1861.51 146.427 1864.45 150.177 Q1867.42 153.927 1867.42 160.038 Q1867.42 166.149 1864.45 169.899 Q1861.51 173.649 1856.79 173.649 Q1853.94 173.649 1851.88 172.538 Q1849.85 171.403 1848.5 169.089 M1862.99 160.038 Q1862.99 155.339 1861.05 152.677 Q1859.13 149.992 1855.75 149.992 Q1852.37 149.992 1850.43 152.677 Q1848.5 155.339 1848.5 160.038 Q1848.5 164.737 1850.43 167.422 Q1852.37 170.084 1855.75 170.084 Q1859.13 170.084 1861.05 167.422 Q1862.99 164.737 1862.99 160.038 Z" fill="#000000" fill-rule="evenodd" fill-opacity="1" /><path clip-path="url(#clip850)" d="M 0 0 M1878.69 139.691 L1878.69 147.052 L1887.46 147.052 L1887.46 150.362 L1878.69 150.362 L1878.69 164.436 Q1878.69 167.607 1879.55 168.51 Q1880.42 169.413 1883.09 169.413 L1887.46 169.413 L1887.46 172.978 L1883.09 172.978 Q1878.16 172.978 1876.28 171.149 Q1874.41 169.297 1874.41 164.436 L1874.41 150.362 L1871.28 150.362 L1871.28 147.052 L1874.41 147.052 L1874.41 139.691 L1878.69 139.691 Z" fill="#000000" fill-rule="evenodd" fill-opacity="1" /><path clip-path="url(#clip850)" d="M 0 0 M1893.06 147.052 L1897.32 147.052 L1897.32 172.978 L1893.06 172.978 L1893.06 147.052 M1893.06 136.959 L1897.32 136.959 L1897.32 142.353 L1893.06 142.353 L1893.06 136.959 Z" fill="#000000" fill-rule="evenodd" fill-opacity="1" /><path clip-path="url(#clip850)" d="M 0 0 M1926.42 152.029 Q1928.02 149.158 1930.24 147.793 Q1932.46 146.427 1935.47 146.427 Q1939.52 146.427 1941.72 149.274 Q1943.92 152.098 1943.92 157.329 L1943.92 172.978 L1939.64 172.978 L1939.64 157.468 Q1939.64 153.742 1938.32 151.936 Q1937 150.13 1934.29 150.13 Q1930.98 150.13 1929.06 152.33 Q1927.14 154.529 1927.14 158.325 L1927.14 172.978 L1922.86 172.978 L1922.86 157.468 Q1922.86 153.718 1921.54 151.936 Q1920.22 150.13 1917.46 150.13 Q1914.2 150.13 1912.28 152.353 Q1910.36 154.552 1910.36 158.325 L1910.36 172.978 L1906.07 172.978 L1906.07 147.052 L1910.36 147.052 L1910.36 151.08 Q1911.81 148.695 1913.85 147.561 Q1915.89 146.427 1918.69 146.427 Q1921.51 146.427 1923.48 147.862 Q1925.47 149.297 1926.42 152.029 Z" fill="#000000" fill-rule="evenodd" fill-opacity="1" /><path clip-path="url(#clip850)" d="M 0 0 M1964.2 159.945 Q1959.04 159.945 1957.04 161.126 Q1955.05 162.306 1955.05 165.154 Q1955.05 167.422 1956.54 168.765 Q1958.04 170.084 1960.61 170.084 Q1964.15 170.084 1966.28 167.584 Q1968.43 165.061 1968.43 160.894 L1968.43 159.945 L1964.2 159.945 M1972.69 158.186 L1972.69 172.978 L1968.43 172.978 L1968.43 169.042 Q1966.98 171.403 1964.8 172.538 Q1962.62 173.649 1959.48 173.649 Q1955.49 173.649 1953.13 171.427 Q1950.79 169.181 1950.79 165.431 Q1950.79 161.056 1953.71 158.834 Q1956.65 156.612 1962.46 156.612 L1968.43 156.612 L1968.43 156.195 Q1968.43 153.255 1966.49 151.658 Q1964.57 150.038 1961.07 150.038 Q1958.85 150.038 1956.74 150.57 Q1954.64 151.103 1952.69 152.167 L1952.69 148.232 Q1955.03 147.33 1957.23 146.89 Q1959.43 146.427 1961.51 146.427 Q1967.14 146.427 1969.92 149.343 Q1972.69 152.26 1972.69 158.186 Z" fill="#000000" fill-rule="evenodd" fill-opacity="1" /><path clip-path="url(#clip850)" d="M 0 0 M1981.47 136.959 L1985.73 136.959 L1985.73 172.978 L1981.47 172.978 L1981.47 136.959 Z" fill="#000000" fill-rule="evenodd" fill-opacity="1" /><path clip-path="url(#clip850)" d="M 0 0 M2013.92 139.691 L2013.92 147.052 L2022.69 147.052 L2022.69 150.362 L2013.92 150.362 L2013.92 164.436 Q2013.92 167.607 2014.78 168.51 Q2015.66 169.413 2018.32 169.413 L2022.69 169.413 L2022.69 172.978 L2018.32 172.978 Q2013.39 172.978 2011.51 171.149 Q2009.64 169.297 2009.64 164.436 L2009.64 150.362 L2006.51 150.362 L2006.51 147.052 L2009.64 147.052 L2009.64 139.691 L2013.92 139.691 Z" fill="#000000" fill-rule="evenodd" fill-opacity="1" /><path clip-path="url(#clip850)" d="M 0 0 M2043.32 151.033 Q2042.6 150.617 2041.74 150.431 Q2040.91 150.223 2039.89 150.223 Q2036.28 150.223 2034.34 152.584 Q2032.41 154.922 2032.41 159.32 L2032.41 172.978 L2028.13 172.978 L2028.13 147.052 L2032.41 147.052 L2032.41 151.08 Q2033.76 148.718 2035.91 147.584 Q2038.06 146.427 2041.14 146.427 Q2041.58 146.427 2042.11 146.496 Q2042.65 146.543 2043.29 146.658 L2043.32 151.033 Z" fill="#000000" fill-rule="evenodd" fill-opacity="1" /><path clip-path="url(#clip850)" d="M 0 0 M2059.57 159.945 Q2054.41 159.945 2052.41 161.126 Q2050.42 162.306 2050.42 165.154 Q2050.42 167.422 2051.91 168.765 Q2053.41 170.084 2055.98 170.084 Q2059.52 170.084 2061.65 167.584 Q2063.8 165.061 2063.8 160.894 L2063.8 159.945 L2059.57 159.945 M2068.06 158.186 L2068.06 172.978 L2063.8 172.978 L2063.8 169.042 Q2062.35 171.403 2060.17 172.538 Q2057.99 173.649 2054.85 173.649 Q2050.86 173.649 2048.5 171.427 Q2046.16 169.181 2046.16 165.431 Q2046.16 161.056 2049.08 158.834 Q2052.02 156.612 2057.83 156.612 L2063.8 156.612 L2063.8 156.195 Q2063.8 153.255 2061.86 151.658 Q2059.94 150.038 2056.44 150.038 Q2054.22 150.038 2052.11 150.57 Q2050.01 151.103 2048.06 152.167 L2048.06 148.232 Q2050.4 147.33 2052.6 146.89 Q2054.8 146.427 2056.88 146.427 Q2062.51 146.427 2065.29 149.343 Q2068.06 152.26 2068.06 158.186 Z" fill="#000000" fill-rule="evenodd" fill-opacity="1" /><path clip-path="url(#clip850)" d="M 0 0 M2076.84 147.052 L2081.1 147.052 L2081.1 173.441 Q2081.1 178.394 2079.2 180.616 Q2077.32 182.839 2073.13 182.839 L2071.51 182.839 L2071.51 179.228 L2072.65 179.228 Q2075.08 179.228 2075.96 178.093 Q2076.84 176.982 2076.84 173.441 L2076.84 147.052 M2076.84 136.959 L2081.1 136.959 L2081.1 142.353 L2076.84 142.353 L2076.84 136.959 Z" fill="#000000" fill-rule="evenodd" fill-opacity="1" /><path clip-path="url(#clip850)" d="M 0 0 M2112.18 158.95 L2112.18 161.033 L2092.6 161.033 Q2092.88 165.431 2095.24 167.746 Q2097.62 170.038 2101.86 170.038 Q2104.31 170.038 2106.6 169.436 Q2108.92 168.834 2111.19 167.63 L2111.19 171.658 Q2108.9 172.63 2106.49 173.14 Q2104.08 173.649 2101.6 173.649 Q2095.4 173.649 2091.77 170.038 Q2088.16 166.427 2088.16 160.269 Q2088.16 153.904 2091.58 150.177 Q2095.03 146.427 2100.86 146.427 Q2106.1 146.427 2109.13 149.806 Q2112.18 153.163 2112.18 158.95 M2107.92 157.7 Q2107.88 154.205 2105.96 152.121 Q2104.06 150.038 2100.91 150.038 Q2097.35 150.038 2095.19 152.052 Q2093.06 154.066 2092.74 157.723 L2107.92 157.7 Z" fill="#000000" fill-rule="evenodd" fill-opacity="1" /><path clip-path="url(#clip850)" d="M 0 0 M2137.83 148.047 L2137.83 152.029 Q2136.03 151.033 2134.2 150.547 Q2132.39 150.038 2130.54 150.038 Q2126.4 150.038 2124.1 152.677 Q2121.81 155.292 2121.81 160.038 Q2121.81 164.783 2124.1 167.422 Q2126.4 170.038 2130.54 170.038 Q2132.39 170.038 2134.2 169.552 Q2136.03 169.042 2137.83 168.047 L2137.83 171.982 Q2136.05 172.816 2134.13 173.232 Q2132.23 173.649 2130.08 173.649 Q2124.22 173.649 2120.77 169.968 Q2117.32 166.288 2117.32 160.038 Q2117.32 153.695 2120.79 150.061 Q2124.29 146.427 2130.35 146.427 Q2132.32 146.427 2134.2 146.843 Q2136.07 147.237 2137.83 148.047 Z" fill="#000000" fill-rule="evenodd" fill-opacity="1" /><path clip-path="url(#clip850)" d="M 0 0 M2149.45 139.691 L2149.45 147.052 L2158.22 147.052 L2158.22 150.362 L2149.45 150.362 L2149.45 164.436 Q2149.45 167.607 2150.31 168.51 Q2151.19 169.413 2153.85 169.413 L2158.22 169.413 L2158.22 172.978 L2153.85 172.978 Q2148.92 172.978 2147.04 171.149 Q2145.17 169.297 2145.17 164.436 L2145.17 150.362 L2142.04 150.362 L2142.04 147.052 L2145.17 147.052 L2145.17 139.691 L2149.45 139.691 Z" fill="#000000" fill-rule="evenodd" fill-opacity="1" /><path clip-path="url(#clip850)" d="M 0 0 M2173.87 150.038 Q2170.45 150.038 2168.46 152.723 Q2166.47 155.385 2166.47 160.038 Q2166.47 164.691 2168.43 167.376 Q2170.42 170.038 2173.87 170.038 Q2177.28 170.038 2179.27 167.353 Q2181.26 164.667 2181.26 160.038 Q2181.26 155.431 2179.27 152.746 Q2177.28 150.038 2173.87 150.038 M2173.87 146.427 Q2179.43 146.427 2182.6 150.038 Q2185.77 153.649 2185.77 160.038 Q2185.77 166.404 2182.6 170.038 Q2179.43 173.649 2173.87 173.649 Q2168.29 173.649 2165.12 170.038 Q2161.97 166.404 2161.97 160.038 Q2161.97 153.649 2165.12 150.038 Q2168.29 146.427 2173.87 146.427 Z" fill="#000000" fill-rule="evenodd" fill-opacity="1" /><path clip-path="url(#clip850)" d="M 0 0 M2207.85 151.033 Q2207.14 150.617 2206.28 150.431 Q2205.45 150.223 2204.43 150.223 Q2200.82 150.223 2198.87 152.584 Q2196.95 154.922 2196.95 159.32 L2196.95 172.978 L2192.67 172.978 L2192.67 147.052 L2196.95 147.052 L2196.95 151.08 Q2198.29 148.718 2200.45 147.584 Q2202.6 146.427 2205.68 146.427 Q2206.12 146.427 2206.65 146.496 Q2207.18 146.543 2207.83 146.658 L2207.85 151.033 Z" fill="#000000" fill-rule="evenodd" fill-opacity="1" /><path clip-path="url(#clip850)" d="M 0 0 M2223.11 175.385 Q2221.3 180.015 2219.59 181.427 Q2217.88 182.839 2215.01 182.839 L2211.6 182.839 L2211.6 179.274 L2214.1 179.274 Q2215.86 179.274 2216.84 178.44 Q2217.81 177.607 2218.99 174.505 L2219.75 172.561 L2209.27 147.052 L2213.78 147.052 L2221.88 167.329 L2229.98 147.052 L2234.5 147.052 L2223.11 175.385 Z" fill="#000000" fill-rule="evenodd" fill-opacity="1" /><circle clip-path="url(#clip850)" cx="1710.66" cy="216.178" r="23" fill="#e26f46" fill-rule="evenodd" fill-opacity="1" stroke="#000000" stroke-opacity="1" stroke-width="5.12"/>
<path clip-path="url(#clip850)" d="M 0 0 M1805.26 198.898 L1834.5 198.898 L1834.5 202.833 L1822.23 202.833 L1822.23 233.458 L1817.53 233.458 L1817.53 202.833 L1805.26 202.833 L1805.26 198.898 Z" fill="#000000" fill-rule="evenodd" fill-opacity="1" /><path clip-path="url(#clip850)" d="M 0 0 M1842.76 220.425 Q1837.6 220.425 1835.61 221.606 Q1833.62 222.786 1833.62 225.634 Q1833.62 227.902 1835.1 229.245 Q1836.61 230.564 1839.18 230.564 Q1842.72 230.564 1844.85 228.064 Q1847 225.541 1847 221.374 L1847 220.425 L1842.76 220.425 M1851.26 218.666 L1851.26 233.458 L1847 233.458 L1847 229.522 Q1845.54 231.883 1843.36 233.018 Q1841.19 234.129 1838.04 234.129 Q1834.06 234.129 1831.7 231.907 Q1829.36 229.661 1829.36 225.911 Q1829.36 221.536 1832.28 219.314 Q1835.22 217.092 1841.03 217.092 L1847 217.092 L1847 216.675 Q1847 213.735 1845.05 212.138 Q1843.13 210.518 1839.64 210.518 Q1837.42 210.518 1835.31 211.05 Q1833.2 211.583 1831.26 212.647 L1831.26 208.712 Q1833.6 207.81 1835.8 207.37 Q1837.99 206.907 1840.08 206.907 Q1845.7 206.907 1848.48 209.823 Q1851.26 212.74 1851.26 218.666 Z" fill="#000000" fill-rule="evenodd" fill-opacity="1" /><path clip-path="url(#clip850)" d="M 0 0 M1875.05 211.513 Q1874.34 211.097 1873.48 210.911 Q1872.65 210.703 1871.63 210.703 Q1868.02 210.703 1866.07 213.064 Q1864.15 215.402 1864.15 219.8 L1864.15 233.458 L1859.87 233.458 L1859.87 207.532 L1864.15 207.532 L1864.15 211.56 Q1865.49 209.198 1867.65 208.064 Q1869.8 206.907 1872.88 206.907 Q1873.32 206.907 1873.85 206.976 Q1874.38 207.023 1875.03 207.138 L1875.05 211.513 Z" fill="#000000" fill-rule="evenodd" fill-opacity="1" /><path clip-path="url(#clip850)" d="M 0 0 M1895.75 220.194 Q1895.75 215.564 1893.83 213.018 Q1891.93 210.472 1888.48 210.472 Q1885.05 210.472 1883.13 213.018 Q1881.24 215.564 1881.24 220.194 Q1881.24 224.8 1883.13 227.346 Q1885.05 229.893 1888.48 229.893 Q1891.93 229.893 1893.83 227.346 Q1895.75 224.8 1895.75 220.194 M1900.01 230.24 Q1900.01 236.86 1897.07 240.078 Q1894.13 243.319 1888.06 243.319 Q1885.82 243.319 1883.83 242.971 Q1881.84 242.647 1879.96 241.953 L1879.96 237.809 Q1881.84 238.828 1883.67 239.314 Q1885.49 239.8 1887.39 239.8 Q1891.58 239.8 1893.67 237.601 Q1895.75 235.425 1895.75 231.004 L1895.75 228.897 Q1894.43 231.189 1892.37 232.323 Q1890.31 233.458 1887.44 233.458 Q1882.67 233.458 1879.75 229.823 Q1876.84 226.189 1876.84 220.194 Q1876.84 214.175 1879.75 210.541 Q1882.67 206.907 1887.44 206.907 Q1890.31 206.907 1892.37 208.041 Q1894.43 209.175 1895.75 211.467 L1895.75 207.532 L1900.01 207.532 L1900.01 230.24 Z" fill="#000000" fill-rule="evenodd" fill-opacity="1" /><path clip-path="url(#clip850)" d="M 0 0 M1930.96 219.43 L1930.96 221.513 L1911.37 221.513 Q1911.65 225.911 1914.01 228.226 Q1916.4 230.518 1920.63 230.518 Q1923.09 230.518 1925.38 229.916 Q1927.69 229.314 1929.96 228.11 L1929.96 232.138 Q1927.67 233.11 1925.26 233.62 Q1922.86 234.129 1920.38 234.129 Q1914.17 234.129 1910.54 230.518 Q1906.93 226.907 1906.93 220.749 Q1906.93 214.384 1910.36 210.657 Q1913.8 206.907 1919.64 206.907 Q1924.87 206.907 1927.9 210.286 Q1930.96 213.643 1930.96 219.43 M1926.7 218.18 Q1926.65 214.685 1924.73 212.601 Q1922.83 210.518 1919.68 210.518 Q1916.12 210.518 1913.97 212.532 Q1911.84 214.546 1911.51 218.203 L1926.7 218.18 Z" fill="#000000" fill-rule="evenodd" fill-opacity="1" /><path clip-path="url(#clip850)" d="M 0 0 M1942.16 200.171 L1942.16 207.532 L1950.93 207.532 L1950.93 210.842 L1942.16 210.842 L1942.16 224.916 Q1942.16 228.087 1943.02 228.99 Q1943.9 229.893 1946.56 229.893 L1950.93 229.893 L1950.93 233.458 L1946.56 233.458 Q1941.63 233.458 1939.75 231.629 Q1937.88 229.777 1937.88 224.916 L1937.88 210.842 L1934.75 210.842 L1934.75 207.532 L1937.88 207.532 L1937.88 200.171 L1942.16 200.171 Z" fill="#000000" fill-rule="evenodd" fill-opacity="1" /><path clip-path="url(#clip850)" d="M 0 0 M1975.73 229.569 L1975.73 243.319 L1971.44 243.319 L1971.44 207.532 L1975.73 207.532 L1975.73 211.467 Q1977.07 209.152 1979.1 208.041 Q1981.17 206.907 1984.01 206.907 Q1988.73 206.907 1991.67 210.657 Q1994.64 214.407 1994.64 220.518 Q1994.64 226.629 1991.67 230.379 Q1988.73 234.129 1984.01 234.129 Q1981.17 234.129 1979.1 233.018 Q1977.07 231.883 1975.73 229.569 M1990.22 220.518 Q1990.22 215.819 1988.27 213.157 Q1986.35 210.472 1982.97 210.472 Q1979.59 210.472 1977.65 213.157 Q1975.73 215.819 1975.73 220.518 Q1975.73 225.217 1977.65 227.902 Q1979.59 230.564 1982.97 230.564 Q1986.35 230.564 1988.27 227.902 Q1990.22 225.217 1990.22 220.518 Z" fill="#000000" fill-rule="evenodd" fill-opacity="1" /><path clip-path="url(#clip850)" d="M 0 0 M2011.74 210.518 Q2008.32 210.518 2006.33 213.203 Q2004.34 215.865 2004.34 220.518 Q2004.34 225.171 2006.3 227.856 Q2008.29 230.518 2011.74 230.518 Q2015.15 230.518 2017.14 227.833 Q2019.13 225.147 2019.13 220.518 Q2019.13 215.911 2017.14 213.226 Q2015.15 210.518 2011.74 210.518 M2011.74 206.907 Q2017.3 206.907 2020.47 210.518 Q2023.64 214.129 2023.64 220.518 Q2023.64 226.884 2020.47 230.518 Q2017.3 234.129 2011.74 234.129 Q2006.17 234.129 2002.99 230.518 Q1999.85 226.884 1999.85 220.518 Q1999.85 214.129 2002.99 210.518 Q2006.17 206.907 2011.74 206.907 Z" fill="#000000" fill-rule="evenodd" fill-opacity="1" /><path clip-path="url(#clip850)" d="M 0 0 M2030.7 207.532 L2034.96 207.532 L2034.96 233.458 L2030.7 233.458 L2030.7 207.532 M2030.7 197.439 L2034.96 197.439 L2034.96 202.833 L2030.7 202.833 L2030.7 197.439 Z" fill="#000000" fill-rule="evenodd" fill-opacity="1" /><path clip-path="url(#clip850)" d="M 0 0 M2065.42 217.809 L2065.42 233.458 L2061.16 233.458 L2061.16 217.948 Q2061.16 214.268 2059.73 212.439 Q2058.29 210.61 2055.42 210.61 Q2051.97 210.61 2049.98 212.81 Q2047.99 215.009 2047.99 218.805 L2047.99 233.458 L2043.71 233.458 L2043.71 207.532 L2047.99 207.532 L2047.99 211.56 Q2049.52 209.222 2051.58 208.064 Q2053.66 206.907 2056.37 206.907 Q2060.84 206.907 2063.13 209.685 Q2065.42 212.439 2065.42 217.809 Z" fill="#000000" fill-rule="evenodd" fill-opacity="1" /><path clip-path="url(#clip850)" d="M 0 0 M2078.13 200.171 L2078.13 207.532 L2086.91 207.532 L2086.91 210.842 L2078.13 210.842 L2078.13 224.916 Q2078.13 228.087 2078.99 228.99 Q2079.87 229.893 2082.53 229.893 L2086.91 229.893 L2086.91 233.458 L2082.53 233.458 Q2077.6 233.458 2075.72 231.629 Q2073.85 229.777 2073.85 224.916 L2073.85 210.842 L2070.72 210.842 L2070.72 207.532 L2073.85 207.532 L2073.85 200.171 L2078.13 200.171 Z" fill="#000000" fill-rule="evenodd" fill-opacity="1" /></svg>
