<?xml version="1.0" encoding="utf-8"?>
<svg xmlns="http://www.w3.org/2000/svg" xmlns:xlink="http://www.w3.org/1999/xlink" width="600" height="400" viewBox="0 0 2400 1600">
<defs>
  <clipPath id="clip430">
    <rect x="0" y="0" width="2400" height="1600"/>
  </clipPath>
</defs>
<path clip-path="url(#clip430)" d="
M0 1600 L2400 1600 L2400 0 L0 0  Z
  " fill="#ffffff" fill-rule="evenodd" fill-opacity="1"/>
<defs>
  <clipPath id="clip431">
    <rect x="480" y="0" width="1681" height="1600"/>
  </clipPath>
</defs>
<path clip-path="url(#clip430)" d="
M219.033 1423.18 L2352.76 1423.18 L2352.76 123.472 L219.033 123.472  Z
  " fill="#ffffff" fill-rule="evenodd" fill-opacity="1"/>
<defs>
  <clipPath id="clip432">
    <rect x="219" y="123" width="2135" height="1301"/>
  </clipPath>
</defs>
<polyline clip-path="url(#clip432)" style="stroke:#000000; stroke-width:2; stroke-opacity:0.1; fill:none" points="
  269.306,1423.18 269.306,123.472 
  "/>
<polyline clip-path="url(#clip432)" style="stroke:#000000; stroke-width:2; stroke-opacity:0.1; fill:none" points="
  775.071,1423.18 775.071,123.472 
  "/>
<polyline clip-path="url(#clip432)" style="stroke:#000000; stroke-width:2; stroke-opacity:0.1; fill:none" points="
  1280.84,1423.18 1280.84,123.472 
  "/>
<polyline clip-path="url(#clip432)" style="stroke:#000000; stroke-width:2; stroke-opacity:0.1; fill:none" points="
  1786.6,1423.18 1786.6,123.472 
  "/>
<polyline clip-path="url(#clip432)" style="stroke:#000000; stroke-width:2; stroke-opacity:0.1; fill:none" points="
  2292.37,1423.18 2292.37,123.472 
  "/>
<polyline clip-path="url(#clip430)" style="stroke:#000000; stroke-width:4; stroke-opacity:1; fill:none" points="
  219.033,1423.18 2352.76,1423.18 
  "/>
<polyline clip-path="url(#clip430)" style="stroke:#000000; stroke-width:4; stroke-opacity:1; fill:none" points="
  269.306,1423.18 269.306,1407.58 
  "/>
<polyline clip-path="url(#clip430)" style="stroke:#000000; stroke-width:4; stroke-opacity:1; fill:none" points="
  775.071,1423.18 775.071,1407.58 
  "/>
<polyline clip-path="url(#clip430)" style="stroke:#000000; stroke-width:4; stroke-opacity:1; fill:none" points="
  1280.84,1423.18 1280.84,1407.58 
  "/>
<polyline clip-path="url(#clip430)" style="stroke:#000000; stroke-width:4; stroke-opacity:1; fill:none" points="
  1786.6,1423.18 1786.6,1407.58 
  "/>
<polyline clip-path="url(#clip430)" style="stroke:#000000; stroke-width:4; stroke-opacity:1; fill:none" points="
  2292.37,1423.18 2292.37,1407.58 
  "/>
<path clip-path="url(#clip430)" d="M 0 0 M269.306 1452.37 Q265.695 1452.37 263.866 1455.94 Q262.061 1459.48 262.061 1466.61 Q262.061 1473.71 263.866 1477.28 Q265.695 1480.82 269.306 1480.82 Q272.94 1480.82 274.746 1477.28 Q276.574 1473.71 276.574 1466.61 Q276.574 1459.48 274.746 1455.94 Q272.94 1452.37 269.306 1452.37 M269.306 1448.67 Q275.116 1448.67 278.172 1453.27 Q281.25 1457.86 281.25 1466.61 Q281.25 1475.33 278.172 1479.94 Q275.116 1484.52 269.306 1484.52 Q263.496 1484.52 260.417 1479.94 Q257.362 1475.33 257.362 1466.61 Q257.362 1457.86 260.417 1453.27 Q263.496 1448.67 269.306 1448.67 Z" fill="#000000" fill-rule="evenodd" fill-opacity="1" /><path clip-path="url(#clip430)" d="M 0 0 M749.771 1449.29 L768.127 1449.29 L768.127 1453.23 L754.053 1453.23 L754.053 1461.7 Q755.071 1461.35 756.09 1461.19 Q757.109 1461 758.127 1461 Q763.914 1461 767.294 1464.18 Q770.673 1467.35 770.673 1472.76 Q770.673 1478.34 767.201 1481.44 Q763.729 1484.52 757.409 1484.52 Q755.234 1484.52 752.965 1484.15 Q750.72 1483.78 748.312 1483.04 L748.312 1478.34 Q750.396 1479.48 752.618 1480.03 Q754.84 1480.59 757.317 1480.59 Q761.321 1480.59 763.659 1478.48 Q765.997 1476.38 765.997 1472.76 Q765.997 1469.15 763.659 1467.05 Q761.321 1464.94 757.317 1464.94 Q755.442 1464.94 753.567 1465.36 Q751.715 1465.77 749.771 1466.65 L749.771 1449.29 Z" fill="#000000" fill-rule="evenodd" fill-opacity="1" /><path clip-path="url(#clip430)" d="M 0 0 M789.886 1452.37 Q786.275 1452.37 784.446 1455.94 Q782.641 1459.48 782.641 1466.61 Q782.641 1473.71 784.446 1477.28 Q786.275 1480.82 789.886 1480.82 Q793.52 1480.82 795.326 1477.28 Q797.155 1473.71 797.155 1466.61 Q797.155 1459.48 795.326 1455.94 Q793.52 1452.37 789.886 1452.37 M789.886 1448.67 Q795.696 1448.67 798.752 1453.27 Q801.831 1457.86 801.831 1466.61 Q801.831 1475.33 798.752 1479.94 Q795.696 1484.52 789.886 1484.52 Q784.076 1484.52 780.997 1479.94 Q777.942 1475.33 777.942 1466.61 Q777.942 1457.86 780.997 1453.27 Q784.076 1448.67 789.886 1448.67 Z" fill="#000000" fill-rule="evenodd" fill-opacity="1" /><path clip-path="url(#clip430)" d="M 0 0 M1240.44 1479.92 L1248.08 1479.92 L1248.08 1453.55 L1239.77 1455.22 L1239.77 1450.96 L1248.04 1449.29 L1252.71 1449.29 L1252.71 1479.92 L1260.35 1479.92 L1260.35 1483.85 L1240.44 1483.85 L1240.44 1479.92 Z" fill="#000000" fill-rule="evenodd" fill-opacity="1" /><path clip-path="url(#clip430)" d="M 0 0 M1279.8 1452.37 Q1276.18 1452.37 1274.36 1455.94 Q1272.55 1459.48 1272.55 1466.61 Q1272.55 1473.71 1274.36 1477.28 Q1276.18 1480.82 1279.8 1480.82 Q1283.43 1480.82 1285.23 1477.28 Q1287.06 1473.71 1287.06 1466.61 Q1287.06 1459.48 1285.23 1455.94 Q1283.43 1452.37 1279.8 1452.37 M1279.8 1448.67 Q1285.61 1448.67 1288.66 1453.27 Q1291.74 1457.86 1291.74 1466.61 Q1291.74 1475.33 1288.66 1479.94 Q1285.61 1484.52 1279.8 1484.52 Q1273.98 1484.52 1270.91 1479.94 Q1267.85 1475.33 1267.85 1466.61 Q1267.85 1457.86 1270.91 1453.27 Q1273.98 1448.67 1279.8 1448.67 Z" fill="#000000" fill-rule="evenodd" fill-opacity="1" /><path clip-path="url(#clip430)" d="M 0 0 M1309.96 1452.37 Q1306.35 1452.37 1304.52 1455.94 Q1302.71 1459.48 1302.71 1466.61 Q1302.71 1473.71 1304.52 1477.28 Q1306.35 1480.82 1309.96 1480.82 Q1313.59 1480.82 1315.4 1477.28 Q1317.23 1473.71 1317.23 1466.61 Q1317.23 1459.48 1315.4 1455.94 Q1313.59 1452.37 1309.96 1452.37 M1309.96 1448.67 Q1315.77 1448.67 1318.82 1453.27 Q1321.9 1457.86 1321.9 1466.61 Q1321.9 1475.33 1318.82 1479.94 Q1315.77 1484.52 1309.96 1484.52 Q1304.15 1484.52 1301.07 1479.94 Q1298.01 1475.33 1298.01 1466.61 Q1298.01 1457.86 1301.07 1453.27 Q1304.15 1448.67 1309.96 1448.67 Z" fill="#000000" fill-rule="evenodd" fill-opacity="1" /><path clip-path="url(#clip430)" d="M 0 0 M1746.21 1479.92 L1753.85 1479.92 L1753.85 1453.55 L1745.54 1455.22 L1745.54 1450.96 L1753.8 1449.29 L1758.48 1449.29 L1758.48 1479.92 L1766.12 1479.92 L1766.12 1483.85 L1746.21 1483.85 L1746.21 1479.92 Z" fill="#000000" fill-rule="evenodd" fill-opacity="1" /><path clip-path="url(#clip430)" d="M 0 0 M1775.61 1449.29 L1793.96 1449.29 L1793.96 1453.23 L1779.89 1453.23 L1779.89 1461.7 Q1780.91 1461.35 1781.93 1461.19 Q1782.94 1461 1783.96 1461 Q1789.75 1461 1793.13 1464.18 Q1796.51 1467.35 1796.51 1472.76 Q1796.51 1478.34 1793.04 1481.44 Q1789.57 1484.52 1783.25 1484.52 Q1781.07 1484.52 1778.8 1484.15 Q1776.56 1483.78 1774.15 1483.04 L1774.15 1478.34 Q1776.23 1479.48 1778.45 1480.03 Q1780.68 1480.59 1783.15 1480.59 Q1787.16 1480.59 1789.5 1478.48 Q1791.83 1476.38 1791.83 1472.76 Q1791.83 1469.15 1789.5 1467.05 Q1787.16 1464.94 1783.15 1464.94 Q1781.28 1464.94 1779.4 1465.36 Q1777.55 1465.77 1775.61 1466.65 L1775.61 1449.29 Z" fill="#000000" fill-rule="evenodd" fill-opacity="1" /><path clip-path="url(#clip430)" d="M 0 0 M1815.72 1452.37 Q1812.11 1452.37 1810.28 1455.94 Q1808.48 1459.48 1808.48 1466.61 Q1808.48 1473.71 1810.28 1477.28 Q1812.11 1480.82 1815.72 1480.82 Q1819.36 1480.82 1821.16 1477.28 Q1822.99 1473.71 1822.99 1466.61 Q1822.99 1459.48 1821.16 1455.94 Q1819.36 1452.37 1815.72 1452.37 M1815.72 1448.67 Q1821.53 1448.67 1824.59 1453.27 Q1827.67 1457.86 1827.67 1466.61 Q1827.67 1475.33 1824.59 1479.94 Q1821.53 1484.52 1815.72 1484.52 Q1809.91 1484.52 1806.83 1479.94 Q1803.78 1475.33 1803.78 1466.61 Q1803.78 1457.86 1806.83 1453.27 Q1809.91 1448.67 1815.72 1448.67 Z" fill="#000000" fill-rule="evenodd" fill-opacity="1" /><path clip-path="url(#clip430)" d="M 0 0 M2256.06 1479.92 L2272.38 1479.92 L2272.38 1483.85 L2250.43 1483.85 L2250.43 1479.92 Q2253.1 1477.16 2257.68 1472.53 Q2262.29 1467.88 2263.47 1466.54 Q2265.71 1464.01 2266.59 1462.28 Q2267.49 1460.52 2267.49 1458.83 Q2267.49 1456.07 2265.55 1454.34 Q2263.63 1452.6 2260.53 1452.6 Q2258.33 1452.6 2255.87 1453.37 Q2253.44 1454.13 2250.67 1455.68 L2250.67 1450.96 Q2253.49 1449.82 2255.94 1449.25 Q2258.4 1448.67 2260.43 1448.67 Q2265.81 1448.67 2269 1451.35 Q2272.19 1454.04 2272.19 1458.53 Q2272.19 1460.66 2271.38 1462.58 Q2270.6 1464.48 2268.49 1467.07 Q2267.91 1467.74 2264.81 1470.96 Q2261.71 1474.15 2256.06 1479.92 Z" fill="#000000" fill-rule="evenodd" fill-opacity="1" /><path clip-path="url(#clip430)" d="M 0 0 M2292.19 1452.37 Q2288.58 1452.37 2286.75 1455.94 Q2284.95 1459.48 2284.95 1466.61 Q2284.95 1473.71 2286.75 1477.28 Q2288.58 1480.82 2292.19 1480.82 Q2295.83 1480.82 2297.63 1477.28 Q2299.46 1473.71 2299.46 1466.61 Q2299.46 1459.48 2297.63 1455.94 Q2295.83 1452.37 2292.19 1452.37 M2292.19 1448.67 Q2298 1448.67 2301.06 1453.27 Q2304.14 1457.86 2304.14 1466.61 Q2304.14 1475.33 2301.06 1479.94 Q2298 1484.52 2292.19 1484.52 Q2286.38 1484.52 2283.31 1479.94 Q2280.25 1475.33 2280.25 1466.61 Q2280.25 1457.86 2283.31 1453.27 Q2286.38 1448.67 2292.19 1448.67 Z" fill="#000000" fill-rule="evenodd" fill-opacity="1" /><path clip-path="url(#clip430)" d="M 0 0 M2322.36 1452.37 Q2318.74 1452.37 2316.92 1455.94 Q2315.11 1459.48 2315.11 1466.61 Q2315.11 1473.71 2316.92 1477.28 Q2318.74 1480.82 2322.36 1480.82 Q2325.99 1480.82 2327.8 1477.28 Q2329.62 1473.71 2329.62 1466.61 Q2329.62 1459.48 2327.8 1455.94 Q2325.99 1452.37 2322.36 1452.37 M2322.36 1448.67 Q2328.17 1448.67 2331.22 1453.27 Q2334.3 1457.86 2334.3 1466.61 Q2334.3 1475.33 2331.22 1479.94 Q2328.17 1484.52 2322.36 1484.52 Q2316.55 1484.52 2313.47 1479.94 Q2310.41 1475.33 2310.41 1466.61 Q2310.41 1457.86 2313.47 1453.27 Q2316.55 1448.67 2322.36 1448.67 Z" fill="#000000" fill-rule="evenodd" fill-opacity="1" /><path clip-path="url(#clip430)" d="M 0 0 M1153.62 1520.52 L1160.04 1520.52 L1160.04 1568.04 L1153.62 1568.04 L1153.62 1520.52 Z" fill="#000000" fill-rule="evenodd" fill-opacity="1" /><path clip-path="url(#clip430)" d="M 0 0 M1178.38 1522.27 L1178.38 1532.4 L1190.44 1532.4 L1190.44 1536.95 L1178.38 1536.95 L1178.38 1556.3 Q1178.38 1560.66 1179.56 1561.9 Q1180.76 1563.14 1184.43 1563.14 L1190.44 1563.14 L1190.44 1568.04 L1184.43 1568.04 Q1177.65 1568.04 1175.07 1565.53 Q1172.49 1562.98 1172.49 1556.3 L1172.49 1536.95 L1168.19 1536.95 L1168.19 1532.4 L1172.49 1532.4 L1172.49 1522.27 L1178.38 1522.27 Z" fill="#000000" fill-rule="evenodd" fill-opacity="1" /><path clip-path="url(#clip430)" d="M 0 0 M1228.63 1548.76 L1228.63 1551.62 L1201.71 1551.62 Q1202.09 1557.67 1205.34 1560.85 Q1208.61 1564 1214.44 1564 Q1217.81 1564 1220.96 1563.17 Q1224.15 1562.35 1227.27 1560.69 L1227.27 1566.23 Q1224.12 1567.57 1220.81 1568.27 Q1217.49 1568.97 1214.09 1568.97 Q1205.56 1568.97 1200.56 1564 Q1195.6 1559.04 1195.6 1550.57 Q1195.6 1541.82 1200.31 1536.69 Q1205.05 1531.54 1213.07 1531.54 Q1220.26 1531.54 1224.43 1536.18 Q1228.63 1540.8 1228.63 1548.76 M1222.78 1547.04 Q1222.71 1542.23 1220.07 1539.37 Q1217.46 1536.5 1213.13 1536.5 Q1208.23 1536.5 1205.27 1539.27 Q1202.34 1542.04 1201.9 1547.07 L1222.78 1547.04 Z" fill="#000000" fill-rule="evenodd" fill-opacity="1" /><path clip-path="url(#clip430)" d="M 0 0 M1258.9 1537.87 Q1257.92 1537.3 1256.74 1537.04 Q1255.59 1536.76 1254.19 1536.76 Q1249.23 1536.76 1246.55 1540 Q1243.91 1543.22 1243.91 1549.27 L1243.91 1568.04 L1238.02 1568.04 L1238.02 1532.4 L1243.91 1532.4 L1243.91 1537.93 Q1245.76 1534.69 1248.72 1533.13 Q1251.68 1531.54 1255.91 1531.54 Q1256.52 1531.54 1257.25 1531.63 Q1257.98 1531.7 1258.87 1531.85 L1258.9 1537.87 Z" fill="#000000" fill-rule="evenodd" fill-opacity="1" /><path clip-path="url(#clip430)" d="M 0 0 M1281.25 1550.12 Q1274.15 1550.12 1271.41 1551.75 Q1268.68 1553.37 1268.68 1557.29 Q1268.68 1560.4 1270.71 1562.25 Q1272.78 1564.07 1276.31 1564.07 Q1281.18 1564.07 1284.11 1560.63 Q1287.07 1557.16 1287.07 1551.43 L1287.07 1550.12 L1281.25 1550.12 M1292.93 1547.71 L1292.93 1568.04 L1287.07 1568.04 L1287.07 1562.63 Q1285.07 1565.88 1282.07 1567.44 Q1279.08 1568.97 1274.75 1568.97 Q1269.28 1568.97 1266.03 1565.91 Q1262.82 1562.82 1262.82 1557.67 Q1262.82 1551.65 1266.83 1548.6 Q1270.87 1545.54 1278.86 1545.54 L1287.07 1545.54 L1287.07 1544.97 Q1287.07 1540.93 1284.4 1538.73 Q1281.76 1536.5 1276.95 1536.5 Q1273.9 1536.5 1271 1537.23 Q1268.1 1537.97 1265.43 1539.43 L1265.43 1534.02 Q1268.64 1532.78 1271.67 1532.17 Q1274.69 1531.54 1277.56 1531.54 Q1285.29 1531.54 1289.11 1535.55 Q1292.93 1539.56 1292.93 1547.71 Z" fill="#000000" fill-rule="evenodd" fill-opacity="1" /><path clip-path="url(#clip430)" d="M 0 0 M1310.78 1522.27 L1310.78 1532.4 L1322.85 1532.4 L1322.85 1536.95 L1310.78 1536.95 L1310.78 1556.3 Q1310.78 1560.66 1311.96 1561.9 Q1313.17 1563.14 1316.83 1563.14 L1322.85 1563.14 L1322.85 1568.04 L1316.83 1568.04 Q1310.05 1568.04 1307.47 1565.53 Q1304.9 1562.98 1304.9 1556.3 L1304.9 1536.95 L1300.6 1536.95 L1300.6 1532.4 L1304.9 1532.4 L1304.9 1522.27 L1310.78 1522.27 Z" fill="#000000" fill-rule="evenodd" fill-opacity="1" /><path clip-path="url(#clip430)" d="M 0 0 M1330.55 1532.4 L1336.41 1532.4 L1336.41 1568.04 L1330.55 1568.04 L1330.55 1532.4 M1330.55 1518.52 L1336.41 1518.52 L1336.41 1525.93 L1330.55 1525.93 L1330.55 1518.52 Z" fill="#000000" fill-rule="evenodd" fill-opacity="1" /><path clip-path="url(#clip430)" d="M 0 0 M1362.47 1536.5 Q1357.76 1536.5 1355.03 1540.19 Q1352.29 1543.85 1352.29 1550.25 Q1352.29 1556.65 1354.99 1560.34 Q1357.73 1564 1362.47 1564 Q1367.15 1564 1369.89 1560.31 Q1372.63 1556.62 1372.63 1550.25 Q1372.63 1543.92 1369.89 1540.23 Q1367.15 1536.5 1362.47 1536.5 M1362.47 1531.54 Q1370.11 1531.54 1374.47 1536.5 Q1378.83 1541.47 1378.83 1550.25 Q1378.83 1559 1374.47 1564 Q1370.11 1568.97 1362.47 1568.97 Q1354.8 1568.97 1350.44 1564 Q1346.11 1559 1346.11 1550.25 Q1346.11 1541.47 1350.44 1536.5 Q1354.8 1531.54 1362.47 1531.54 Z" fill="#000000" fill-rule="evenodd" fill-opacity="1" /><path clip-path="url(#clip430)" d="M 0 0 M1418.17 1546.53 L1418.17 1568.04 L1412.32 1568.04 L1412.32 1546.72 Q1412.32 1541.66 1410.34 1539.14 Q1408.37 1536.63 1404.42 1536.63 Q1399.68 1536.63 1396.94 1539.65 Q1394.21 1542.68 1394.21 1547.9 L1394.21 1568.04 L1388.32 1568.04 L1388.32 1532.4 L1394.21 1532.4 L1394.21 1537.93 Q1396.31 1534.72 1399.14 1533.13 Q1402 1531.54 1405.73 1531.54 Q1411.87 1531.54 1415.02 1535.36 Q1418.17 1539.14 1418.17 1546.53 Z" fill="#000000" fill-rule="evenodd" fill-opacity="1" /><polyline clip-path="url(#clip432)" style="stroke:#000000; stroke-width:2; stroke-opacity:0.1; fill:none" points="
  219.033,1182.92 2352.76,1182.92 
  "/>
<polyline clip-path="url(#clip432)" style="stroke:#000000; stroke-width:2; stroke-opacity:0.1; fill:none" points="
  219.033,919.244 2352.76,919.244 
  "/>
<polyline clip-path="url(#clip432)" style="stroke:#000000; stroke-width:2; stroke-opacity:0.1; fill:none" points="
  219.033,655.565 2352.76,655.565 
  "/>
<polyline clip-path="url(#clip432)" style="stroke:#000000; stroke-width:2; stroke-opacity:0.1; fill:none" points="
  219.033,391.886 2352.76,391.886 
  "/>
<polyline clip-path="url(#clip432)" style="stroke:#000000; stroke-width:2; stroke-opacity:0.1; fill:none" points="
  219.033,128.207 2352.76,128.207 
  "/>
<polyline clip-path="url(#clip430)" style="stroke:#000000; stroke-width:4; stroke-opacity:1; fill:none" points="
  219.033,1423.18 219.033,123.472 
  "/>
<polyline clip-path="url(#clip430)" style="stroke:#000000; stroke-width:4; stroke-opacity:1; fill:none" points="
  219.033,1182.92 244.638,1182.92 
  "/>
<polyline clip-path="url(#clip430)" style="stroke:#000000; stroke-width:4; stroke-opacity:1; fill:none" points="
  219.033,919.244 244.638,919.244 
  "/>
<polyline clip-path="url(#clip430)" style="stroke:#000000; stroke-width:4; stroke-opacity:1; fill:none" points="
  219.033,655.565 244.638,655.565 
  "/>
<polyline clip-path="url(#clip430)" style="stroke:#000000; stroke-width:4; stroke-opacity:1; fill:none" points="
  219.033,391.886 244.638,391.886 
  "/>
<polyline clip-path="url(#clip430)" style="stroke:#000000; stroke-width:4; stroke-opacity:1; fill:none" points="
  219.033,128.207 244.638,128.207 
  "/>
<path clip-path="url(#clip430)" d="M 0 0 M126.853 1168.72 Q123.242 1168.72 121.413 1172.29 Q119.607 1175.83 119.607 1182.96 Q119.607 1190.06 121.413 1193.63 Q123.242 1197.17 126.853 1197.17 Q130.487 1197.17 132.292 1193.63 Q134.121 1190.06 134.121 1182.96 Q134.121 1175.83 132.292 1172.29 Q130.487 1168.72 126.853 1168.72 M126.853 1165.02 Q132.663 1165.02 135.718 1169.62 Q138.797 1174.21 138.797 1182.96 Q138.797 1191.68 135.718 1196.29 Q132.663 1200.87 126.853 1200.87 Q121.043 1200.87 117.964 1196.29 Q114.908 1191.68 114.908 1182.96 Q114.908 1174.21 117.964 1169.62 Q121.043 1165.02 126.853 1165.02 Z" fill="#000000" fill-rule="evenodd" fill-opacity="1" /><path clip-path="url(#clip430)" d="M 0 0 M147.015 1194.32 L151.899 1194.32 L151.899 1200.2 L147.015 1200.2 L147.015 1194.32 Z" fill="#000000" fill-rule="evenodd" fill-opacity="1" /><path clip-path="url(#clip430)" d="M 0 0 M162.13 1165.64 L180.487 1165.64 L180.487 1169.58 L166.413 1169.58 L166.413 1178.05 Q167.431 1177.7 168.45 1177.54 Q169.468 1177.36 170.487 1177.36 Q176.274 1177.36 179.653 1180.53 Q183.033 1183.7 183.033 1189.12 Q183.033 1194.69 179.561 1197.8 Q176.089 1200.87 169.769 1200.87 Q167.593 1200.87 165.325 1200.5 Q163.079 1200.13 160.672 1199.39 L160.672 1194.69 Q162.755 1195.83 164.977 1196.38 Q167.2 1196.94 169.677 1196.94 Q173.681 1196.94 176.019 1194.83 Q178.357 1192.73 178.357 1189.12 Q178.357 1185.5 176.019 1183.4 Q173.681 1181.29 169.677 1181.29 Q167.802 1181.29 165.927 1181.71 Q164.075 1182.12 162.13 1183 L162.13 1165.64 Z" fill="#000000" fill-rule="evenodd" fill-opacity="1" /><path clip-path="url(#clip430)" d="M 0 0 M116.668 932.589 L124.306 932.589 L124.306 906.224 L115.996 907.89 L115.996 903.631 L124.26 901.964 L128.936 901.964 L128.936 932.589 L136.575 932.589 L136.575 936.524 L116.668 936.524 L116.668 932.589 Z" fill="#000000" fill-rule="evenodd" fill-opacity="1" /><path clip-path="url(#clip430)" d="M 0 0 M146.019 930.645 L150.903 930.645 L150.903 936.524 L146.019 936.524 L146.019 930.645 Z" fill="#000000" fill-rule="evenodd" fill-opacity="1" /><path clip-path="url(#clip430)" d="M 0 0 M171.089 905.043 Q167.477 905.043 165.649 908.608 Q163.843 912.15 163.843 919.279 Q163.843 926.386 165.649 929.95 Q167.477 933.492 171.089 933.492 Q174.723 933.492 176.528 929.95 Q178.357 926.386 178.357 919.279 Q178.357 912.15 176.528 908.608 Q174.723 905.043 171.089 905.043 M171.089 901.339 Q176.899 901.339 179.954 905.946 Q183.033 910.529 183.033 919.279 Q183.033 928.006 179.954 932.612 Q176.899 937.196 171.089 937.196 Q165.278 937.196 162.2 932.612 Q159.144 928.006 159.144 919.279 Q159.144 910.529 162.2 905.946 Q165.278 901.339 171.089 901.339 Z" fill="#000000" fill-rule="evenodd" fill-opacity="1" /><path clip-path="url(#clip430)" d="M 0 0 M117.663 668.91 L125.302 668.91 L125.302 642.545 L116.992 644.211 L116.992 639.952 L125.255 638.285 L129.931 638.285 L129.931 668.91 L137.57 668.91 L137.57 672.845 L117.663 672.845 L117.663 668.91 Z" fill="#000000" fill-rule="evenodd" fill-opacity="1" /><path clip-path="url(#clip430)" d="M 0 0 M147.015 666.966 L151.899 666.966 L151.899 672.845 L147.015 672.845 L147.015 666.966 Z" fill="#000000" fill-rule="evenodd" fill-opacity="1" /><path clip-path="url(#clip430)" d="M 0 0 M162.13 638.285 L180.487 638.285 L180.487 642.221 L166.413 642.221 L166.413 650.693 Q167.431 650.346 168.45 650.183 Q169.468 649.998 170.487 649.998 Q176.274 649.998 179.653 653.17 Q183.033 656.341 183.033 661.758 Q183.033 667.336 179.561 670.438 Q176.089 673.517 169.769 673.517 Q167.593 673.517 165.325 673.146 Q163.079 672.776 160.672 672.035 L160.672 667.336 Q162.755 668.47 164.977 669.026 Q167.2 669.582 169.677 669.582 Q173.681 669.582 176.019 667.475 Q178.357 665.369 178.357 661.758 Q178.357 658.146 176.019 656.04 Q173.681 653.933 169.677 653.933 Q167.802 653.933 165.927 654.35 Q164.075 654.767 162.13 655.646 L162.13 638.285 Z" fill="#000000" fill-rule="evenodd" fill-opacity="1" /><path clip-path="url(#clip430)" d="M 0 0 M119.885 405.231 L136.204 405.231 L136.204 409.166 L114.26 409.166 L114.26 405.231 Q116.922 402.477 121.505 397.847 Q126.112 393.194 127.292 391.852 Q129.538 389.329 130.417 387.592 Q131.32 385.833 131.32 384.143 Q131.32 381.389 129.376 379.653 Q127.455 377.917 124.353 377.917 Q122.154 377.917 119.7 378.681 Q117.269 379.444 114.492 380.995 L114.492 376.273 Q117.316 375.139 119.769 374.56 Q122.223 373.981 124.26 373.981 Q129.63 373.981 132.825 376.667 Q136.019 379.352 136.019 383.843 Q136.019 385.972 135.209 387.893 Q134.422 389.792 132.316 392.384 Q131.737 393.055 128.635 396.273 Q125.533 399.467 119.885 405.231 Z" fill="#000000" fill-rule="evenodd" fill-opacity="1" /><path clip-path="url(#clip430)" d="M 0 0 M146.019 403.287 L150.903 403.287 L150.903 409.166 L146.019 409.166 L146.019 403.287 Z" fill="#000000" fill-rule="evenodd" fill-opacity="1" /><path clip-path="url(#clip430)" d="M 0 0 M171.089 377.685 Q167.477 377.685 165.649 381.25 Q163.843 384.792 163.843 391.921 Q163.843 399.028 165.649 402.592 Q167.477 406.134 171.089 406.134 Q174.723 406.134 176.528 402.592 Q178.357 399.028 178.357 391.921 Q178.357 384.792 176.528 381.25 Q174.723 377.685 171.089 377.685 M171.089 373.981 Q176.899 373.981 179.954 378.588 Q183.033 383.171 183.033 391.921 Q183.033 400.648 179.954 405.254 Q176.899 409.838 171.089 409.838 Q165.278 409.838 162.2 405.254 Q159.144 400.648 159.144 391.921 Q159.144 383.171 162.2 378.588 Q165.278 373.981 171.089 373.981 Z" fill="#000000" fill-rule="evenodd" fill-opacity="1" /><path clip-path="url(#clip430)" d="M 0 0 M120.88 141.552 L137.2 141.552 L137.2 145.487 L115.256 145.487 L115.256 141.552 Q117.918 138.798 122.501 134.168 Q127.107 129.515 128.288 128.173 Q130.533 125.65 131.413 123.914 Q132.316 122.154 132.316 120.464 Q132.316 117.71 130.371 115.974 Q128.45 114.238 125.348 114.238 Q123.149 114.238 120.695 115.002 Q118.265 115.765 115.487 117.316 L115.487 112.594 Q118.311 111.46 120.765 110.881 Q123.218 110.302 125.255 110.302 Q130.626 110.302 133.82 112.988 Q137.015 115.673 137.015 120.164 Q137.015 122.293 136.204 124.214 Q135.417 126.113 133.311 128.705 Q132.732 129.376 129.63 132.594 Q126.529 135.788 120.88 141.552 Z" fill="#000000" fill-rule="evenodd" fill-opacity="1" /><path clip-path="url(#clip430)" d="M 0 0 M147.015 139.608 L151.899 139.608 L151.899 145.487 L147.015 145.487 L147.015 139.608 Z" fill="#000000" fill-rule="evenodd" fill-opacity="1" /><path clip-path="url(#clip430)" d="M 0 0 M162.13 110.927 L180.487 110.927 L180.487 114.863 L166.413 114.863 L166.413 123.335 Q167.431 122.988 168.45 122.826 Q169.468 122.64 170.487 122.64 Q176.274 122.64 179.653 125.812 Q183.033 128.983 183.033 134.4 Q183.033 139.978 179.561 143.08 Q176.089 146.159 169.769 146.159 Q167.593 146.159 165.325 145.788 Q163.079 145.418 160.672 144.677 L160.672 139.978 Q162.755 141.113 164.977 141.668 Q167.2 142.224 169.677 142.224 Q173.681 142.224 176.019 140.117 Q178.357 138.011 178.357 134.4 Q178.357 130.788 176.019 128.682 Q173.681 126.576 169.677 126.576 Q167.802 126.576 165.927 126.992 Q164.075 127.409 162.13 128.289 L162.13 110.927 Z" fill="#000000" fill-rule="evenodd" fill-opacity="1" /><path clip-path="url(#clip430)" d="M 0 0 M16.4842 982.344 L16.4842 975.915 L58.5933 975.915 L58.5933 952.775 L64.0042 952.775 L64.0042 982.344 L16.4842 982.344 Z" fill="#000000" fill-rule="evenodd" fill-opacity="1" /><path clip-path="url(#clip430)" d="M 0 0 M32.4621 933.614 Q32.4621 938.325 36.1542 941.062 Q39.8145 943.8 46.212 943.8 Q52.6095 943.8 56.3017 941.094 Q59.9619 938.357 59.9619 933.614 Q59.9619 928.936 56.2698 926.198 Q52.5777 923.461 46.212 923.461 Q39.8781 923.461 36.186 926.198 Q32.4621 928.936 32.4621 933.614 M27.4968 933.614 Q27.4968 925.976 32.4621 921.615 Q37.4273 917.255 46.212 917.255 Q54.9649 917.255 59.9619 921.615 Q64.9272 925.976 64.9272 933.614 Q64.9272 941.285 59.9619 945.646 Q54.9649 949.974 46.212 949.974 Q37.4273 949.974 32.4621 945.646 Q27.4968 941.285 27.4968 933.614 Z" fill="#000000" fill-rule="evenodd" fill-opacity="1" /><path clip-path="url(#clip430)" d="M 0 0 M29.4065 884.821 L34.9447 884.821 Q33.6716 887.304 33.035 889.978 Q32.3984 892.651 32.3984 895.516 Q32.3984 899.876 33.7352 902.072 Q35.072 904.237 37.7456 904.237 Q39.7826 904.237 40.9603 902.677 Q42.1061 901.118 43.1565 896.407 L43.6021 894.402 Q44.9389 888.163 47.3897 885.553 Q49.8086 882.912 54.1691 882.912 Q59.1344 882.912 62.0308 886.858 Q64.9272 890.773 64.9272 897.648 Q64.9272 900.513 64.3543 903.632 Q63.8132 906.719 62.6992 910.157 L56.6518 910.157 Q58.3387 906.91 59.198 903.759 Q60.0256 900.608 60.0256 897.521 Q60.0256 893.383 58.6251 891.155 Q57.1929 888.927 54.6147 888.927 Q52.2276 888.927 50.9545 890.55 Q49.6813 892.142 48.5037 897.585 L48.0262 899.622 Q46.8804 905.064 44.5251 907.483 Q42.138 909.902 38.0002 909.902 Q32.9713 909.902 30.2341 906.337 Q27.4968 902.773 27.4968 896.216 Q27.4968 892.969 27.9743 890.105 Q28.4517 887.24 29.4065 884.821 Z" fill="#000000" fill-rule="evenodd" fill-opacity="1" /><path clip-path="url(#clip430)" d="M 0 0 M29.4065 850.86 L34.9447 850.86 Q33.6716 853.343 33.035 856.017 Q32.3984 858.69 32.3984 861.555 Q32.3984 865.915 33.7352 868.111 Q35.072 870.276 37.7456 870.276 Q39.7826 870.276 40.9603 868.716 Q42.1061 867.156 43.1565 862.446 L43.6021 860.441 Q44.9389 854.202 47.3897 851.592 Q49.8086 848.951 54.1691 848.951 Q59.1344 848.951 62.0308 852.897 Q64.9272 856.812 64.9272 863.687 Q64.9272 866.552 64.3543 869.671 Q63.8132 872.758 62.6992 876.196 L56.6518 876.196 Q58.3387 872.949 59.198 869.798 Q60.0256 866.647 60.0256 863.56 Q60.0256 859.422 58.6251 857.194 Q57.1929 854.966 54.6147 854.966 Q52.2276 854.966 50.9545 856.589 Q49.6813 858.181 48.5037 863.624 L48.0262 865.661 Q46.8804 871.103 44.5251 873.522 Q42.138 875.941 38.0002 875.941 Q32.9713 875.941 30.2341 872.376 Q27.4968 868.812 27.4968 862.255 Q27.4968 859.008 27.9743 856.144 Q28.4517 853.279 29.4065 850.86 Z" fill="#000000" fill-rule="evenodd" fill-opacity="1" /><path clip-path="url(#clip430)" d="M 0 0 M14.479 800.858 L19.3487 800.858 L19.3487 806.459 Q19.3487 809.611 20.6219 810.852 Q21.895 812.061 25.2052 812.061 L28.3562 812.061 L28.3562 802.417 L32.9077 802.417 L32.9077 812.061 L64.0042 812.061 L64.0042 817.95 L32.9077 817.95 L32.9077 823.551 L28.3562 823.551 L28.3562 817.95 L25.8736 817.95 Q19.9216 817.95 17.2162 815.181 Q14.479 812.411 14.479 806.396 L14.479 800.858 Z" fill="#000000" fill-rule="evenodd" fill-opacity="1" /><path clip-path="url(#clip430)" d="M 0 0 M49.9359 796.561 L28.3562 796.561 L28.3562 790.704 L49.7131 790.704 Q54.7739 790.704 57.3202 788.731 Q59.8346 786.758 59.8346 782.811 Q59.8346 778.068 56.8109 775.331 Q53.7872 772.562 48.5673 772.562 L28.3562 772.562 L28.3562 766.706 L64.0042 766.706 L64.0042 772.562 L58.5296 772.562 Q61.7762 774.695 63.3676 777.527 Q64.9272 780.328 64.9272 784.052 Q64.9272 790.195 61.1078 793.378 Q57.2883 796.561 49.9359 796.561 M27.4968 781.824 L27.4968 781.824 Z" fill="#000000" fill-rule="evenodd" fill-opacity="1" /><path clip-path="url(#clip430)" d="M 0 0 M42.4881 725.01 L64.0042 725.01 L64.0042 730.867 L42.679 730.867 Q37.6183 730.867 35.1038 732.84 Q32.5894 734.813 32.5894 738.76 Q32.5894 743.503 35.6131 746.24 Q38.6368 748.977 43.8567 748.977 L64.0042 748.977 L64.0042 754.865 L28.3562 754.865 L28.3562 748.977 L33.8944 748.977 Q30.6797 746.876 29.0883 744.044 Q27.4968 741.179 27.4968 737.455 Q27.4968 731.312 31.3163 728.161 Q35.1038 725.01 42.4881 725.01 Z" fill="#000000" fill-rule="evenodd" fill-opacity="1" /><path clip-path="url(#clip430)" d="M 0 0 M29.7248 687.675 L35.1993 687.675 Q33.8307 690.158 33.1623 692.672 Q32.4621 695.155 32.4621 697.701 Q32.4621 703.399 36.0905 706.55 Q39.6872 709.701 46.212 709.701 Q52.7369 709.701 56.3653 706.55 Q59.9619 703.399 59.9619 697.701 Q59.9619 695.155 59.2935 692.672 Q58.5933 690.158 57.2247 687.675 L62.6355 687.675 Q63.7814 690.126 64.3543 692.768 Q64.9272 695.378 64.9272 698.338 Q64.9272 706.391 59.8664 711.133 Q54.8057 715.875 46.212 715.875 Q37.491 715.875 32.4939 711.101 Q27.4968 706.295 27.4968 697.956 Q27.4968 695.251 28.0697 692.672 Q28.6108 690.094 29.7248 687.675 Z" fill="#000000" fill-rule="evenodd" fill-opacity="1" /><path clip-path="url(#clip430)" d="M 0 0 M18.2347 671.697 L28.3562 671.697 L28.3562 659.634 L32.9077 659.634 L32.9077 671.697 L52.2594 671.697 Q56.6199 671.697 57.8613 670.52 Q59.1026 669.31 59.1026 665.65 L59.1026 659.634 L64.0042 659.634 L64.0042 665.65 Q64.0042 672.43 61.4897 675.008 Q58.9434 677.586 52.2594 677.586 L32.9077 677.586 L32.9077 681.883 L28.3562 681.883 L28.3562 677.586 L18.2347 677.586 L18.2347 671.697 Z" fill="#000000" fill-rule="evenodd" fill-opacity="1" /><path clip-path="url(#clip430)" d="M 0 0 M28.3562 651.932 L28.3562 646.076 L64.0042 646.076 L64.0042 651.932 L28.3562 651.932 M14.479 651.932 L14.479 646.076 L21.895 646.076 L21.895 651.932 L14.479 651.932 Z" fill="#000000" fill-rule="evenodd" fill-opacity="1" /><path clip-path="url(#clip430)" d="M 0 0 M32.4621 620.008 Q32.4621 624.719 36.1542 627.456 Q39.8145 630.193 46.212 630.193 Q52.6095 630.193 56.3017 627.488 Q59.9619 624.75 59.9619 620.008 Q59.9619 615.329 56.2698 612.592 Q52.5777 609.855 46.212 609.855 Q39.8781 609.855 36.186 612.592 Q32.4621 615.329 32.4621 620.008 M27.4968 620.008 Q27.4968 612.369 32.4621 608.009 Q37.4273 603.648 46.212 603.648 Q54.9649 603.648 59.9619 608.009 Q64.9272 612.369 64.9272 620.008 Q64.9272 627.679 59.9619 632.039 Q54.9649 636.368 46.212 636.368 Q37.4273 636.368 32.4621 632.039 Q27.4968 627.679 27.4968 620.008 Z" fill="#000000" fill-rule="evenodd" fill-opacity="1" /><path clip-path="url(#clip430)" d="M 0 0 M42.4881 564.308 L64.0042 564.308 L64.0042 570.164 L42.679 570.164 Q37.6183 570.164 35.1038 572.138 Q32.5894 574.111 32.5894 578.058 Q32.5894 582.8 35.6131 585.538 Q38.6368 588.275 43.8567 588.275 L64.0042 588.275 L64.0042 594.163 L28.3562 594.163 L28.3562 588.275 L33.8944 588.275 Q30.6797 586.174 29.0883 583.341 Q27.4968 580.477 27.4968 576.753 Q27.4968 570.61 31.3163 567.459 Q35.1038 564.308 42.4881 564.308 Z" fill="#000000" fill-rule="evenodd" fill-opacity="1" /><path clip-path="url(#clip430)" d="M 0 0 M620.756 12.096 L628.939 12.096 L628.939 65.6895 L658.389 65.6895 L658.389 72.576 L620.756 72.576 L620.756 12.096 Z" fill="#000000" fill-rule="evenodd" fill-opacity="1" /><path clip-path="url(#clip430)" d="M 0 0 M682.776 32.4315 Q676.78 32.4315 673.296 37.1306 Q669.813 41.7891 669.813 49.9314 Q669.813 58.0738 673.256 62.7728 Q676.74 67.4314 682.776 67.4314 Q688.73 67.4314 692.214 62.7323 Q695.698 58.0333 695.698 49.9314 Q695.698 41.8701 692.214 37.1711 Q688.73 32.4315 682.776 32.4315 M682.776 26.1121 Q692.498 26.1121 698.047 32.4315 Q703.597 38.7509 703.597 49.9314 Q703.597 61.0714 698.047 67.4314 Q692.498 73.7508 682.776 73.7508 Q673.013 73.7508 667.463 67.4314 Q661.954 61.0714 661.954 49.9314 Q661.954 38.7509 667.463 32.4315 Q673.013 26.1121 682.776 26.1121 Z" fill="#000000" fill-rule="evenodd" fill-opacity="1" /><path clip-path="url(#clip430)" d="M 0 0 M744.876 28.5427 L744.876 35.5912 Q741.716 33.9709 738.313 33.1607 Q734.911 32.3505 731.265 32.3505 Q725.715 32.3505 722.92 34.0519 Q720.165 35.7533 720.165 39.156 Q720.165 41.7486 722.15 43.2475 Q724.135 44.7058 730.131 46.0426 L732.683 46.6097 Q740.622 48.3111 743.944 51.4303 Q747.306 54.509 747.306 60.0587 Q747.306 66.3781 742.283 70.0644 Q737.301 73.7508 728.551 73.7508 Q724.905 73.7508 720.935 73.0216 Q717.006 72.3329 712.631 70.9151 L712.631 63.2184 Q716.763 65.3654 720.773 66.4591 Q724.783 67.5124 728.713 67.5124 Q733.979 67.5124 736.815 65.73 Q739.65 63.9071 739.65 60.6258 Q739.65 57.5877 737.584 55.9673 Q735.559 54.3469 728.632 52.8481 L726.039 52.2405 Q719.112 50.7821 716.033 47.7845 Q712.955 44.7463 712.955 39.4801 Q712.955 33.0797 717.492 29.5959 Q722.029 26.1121 730.374 26.1121 Q734.506 26.1121 738.151 26.7198 Q741.797 27.3274 744.876 28.5427 Z" fill="#000000" fill-rule="evenodd" fill-opacity="1" /><path clip-path="url(#clip430)" d="M 0 0 M788.099 28.5427 L788.099 35.5912 Q784.939 33.9709 781.537 33.1607 Q778.134 32.3505 774.488 32.3505 Q768.938 32.3505 766.143 34.0519 Q763.389 35.7533 763.389 39.156 Q763.389 41.7486 765.373 43.2475 Q767.358 44.7058 773.354 46.0426 L775.906 46.6097 Q783.846 48.3111 787.167 51.4303 Q790.53 54.509 790.53 60.0587 Q790.53 66.3781 785.506 70.0644 Q780.524 73.7508 771.774 73.7508 Q768.128 73.7508 764.158 73.0216 Q760.229 72.3329 755.854 70.9151 L755.854 63.2184 Q759.986 65.3654 763.996 66.4591 Q768.007 67.5124 771.936 67.5124 Q777.202 67.5124 780.038 65.73 Q782.873 63.9071 782.873 60.6258 Q782.873 57.5877 780.807 55.9673 Q778.782 54.3469 771.855 52.8481 L769.262 52.2405 Q762.335 50.7821 759.257 47.7845 Q756.178 44.7463 756.178 39.4801 Q756.178 33.0797 760.715 29.5959 Q765.252 26.1121 773.597 26.1121 Q777.729 26.1121 781.375 26.7198 Q785.02 27.3274 788.099 28.5427 Z" fill="#000000" fill-rule="evenodd" fill-opacity="1" /><path clip-path="url(#clip430)" d="M 0 0 M851.739 9.54393 L851.739 15.7418 L844.609 15.7418 Q840.599 15.7418 839.019 17.3622 Q837.48 18.9825 837.48 23.1955 L837.48 27.2059 L849.754 27.2059 L849.754 32.9987 L837.48 32.9987 L837.48 72.576 L829.985 72.576 L829.985 32.9987 L822.856 32.9987 L822.856 27.2059 L829.985 27.2059 L829.985 24.0462 Q829.985 16.471 833.51 13.0277 Q837.034 9.54393 844.69 9.54393 L851.739 9.54393 Z" fill="#000000" fill-rule="evenodd" fill-opacity="1" /><path clip-path="url(#clip430)" d="M 0 0 M857.207 54.671 L857.207 27.2059 L864.661 27.2059 L864.661 54.3874 Q864.661 60.8284 867.173 64.0691 Q869.684 67.2693 874.707 67.2693 Q880.743 67.2693 884.227 63.421 Q887.751 59.5726 887.751 52.9291 L887.751 27.2059 L895.205 27.2059 L895.205 72.576 L887.751 72.576 L887.751 65.6084 Q885.037 69.7404 881.432 71.7658 Q877.867 73.7508 873.128 73.7508 Q865.309 73.7508 861.258 68.8897 Q857.207 64.0286 857.207 54.671 M875.963 26.1121 L875.963 26.1121 Z" fill="#000000" fill-rule="evenodd" fill-opacity="1" /><path clip-path="url(#clip430)" d="M 0 0 M948.272 45.1919 L948.272 72.576 L940.818 72.576 L940.818 45.4349 Q940.818 38.994 938.307 35.7938 Q935.795 32.5936 930.772 32.5936 Q924.736 32.5936 921.252 36.4419 Q917.769 40.2903 917.769 46.9338 L917.769 72.576 L910.274 72.576 L910.274 27.2059 L917.769 27.2059 L917.769 34.2544 Q920.442 30.163 924.047 28.1376 Q927.693 26.1121 932.433 26.1121 Q940.251 26.1121 944.261 30.9732 Q948.272 35.7938 948.272 45.1919 Z" fill="#000000" fill-rule="evenodd" fill-opacity="1" /><path clip-path="url(#clip430)" d="M 0 0 M995.789 28.9478 L995.789 35.9153 Q992.629 34.1734 989.429 33.3227 Q986.269 32.4315 983.029 32.4315 Q975.777 32.4315 971.767 37.0496 Q967.757 41.6271 967.757 49.9314 Q967.757 58.2358 971.767 62.8538 Q975.777 67.4314 983.029 67.4314 Q986.269 67.4314 989.429 66.5807 Q992.629 65.6895 995.789 63.9476 L995.789 70.8341 Q992.67 72.2924 989.307 73.0216 Q985.986 73.7508 982.218 73.7508 Q971.97 73.7508 965.934 67.3098 Q959.898 60.8689 959.898 49.9314 Q959.898 38.832 965.974 32.472 Q972.091 26.1121 982.704 26.1121 Q986.148 26.1121 989.429 26.8413 Q992.71 27.5299 995.789 28.9478 Z" fill="#000000" fill-rule="evenodd" fill-opacity="1" /><path clip-path="url(#clip430)" d="M 0 0 M1016.12 14.324 L1016.12 27.2059 L1031.48 27.2059 L1031.48 32.9987 L1016.12 32.9987 L1016.12 57.6282 Q1016.12 63.1779 1017.62 64.7578 Q1019.16 66.3376 1023.82 66.3376 L1031.48 66.3376 L1031.48 72.576 L1023.82 72.576 Q1015.19 72.576 1011.91 69.3758 Q1008.63 66.1351 1008.63 57.6282 L1008.63 32.9987 L1003.16 32.9987 L1003.16 27.2059 L1008.63 27.2059 L1008.63 14.324 L1016.12 14.324 Z" fill="#000000" fill-rule="evenodd" fill-opacity="1" /><path clip-path="url(#clip430)" d="M 0 0 M1041.28 27.2059 L1048.73 27.2059 L1048.73 72.576 L1041.28 72.576 L1041.28 27.2059 M1041.28 9.54393 L1048.73 9.54393 L1048.73 18.9825 L1041.28 18.9825 L1041.28 9.54393 Z" fill="#000000" fill-rule="evenodd" fill-opacity="1" /><path clip-path="url(#clip430)" d="M 0 0 M1081.91 32.4315 Q1075.92 32.4315 1072.43 37.1306 Q1068.95 41.7891 1068.95 49.9314 Q1068.95 58.0738 1072.39 62.7728 Q1075.88 67.4314 1081.91 67.4314 Q1087.87 67.4314 1091.35 62.7323 Q1094.83 58.0333 1094.83 49.9314 Q1094.83 41.8701 1091.35 37.1711 Q1087.87 32.4315 1081.91 32.4315 M1081.91 26.1121 Q1091.63 26.1121 1097.18 32.4315 Q1102.73 38.7509 1102.73 49.9314 Q1102.73 61.0714 1097.18 67.4314 Q1091.63 73.7508 1081.91 73.7508 Q1072.15 73.7508 1066.6 67.4314 Q1061.09 61.0714 1061.09 49.9314 Q1061.09 38.7509 1066.6 32.4315 Q1072.15 26.1121 1081.91 26.1121 Z" fill="#000000" fill-rule="evenodd" fill-opacity="1" /><path clip-path="url(#clip430)" d="M 0 0 M1152.8 45.1919 L1152.8 72.576 L1145.35 72.576 L1145.35 45.4349 Q1145.35 38.994 1142.84 35.7938 Q1140.33 32.5936 1135.3 32.5936 Q1129.27 32.5936 1125.78 36.4419 Q1122.3 40.2903 1122.3 46.9338 L1122.3 72.576 L1114.8 72.576 L1114.8 27.2059 L1122.3 27.2059 L1122.3 34.2544 Q1124.97 30.163 1128.58 28.1376 Q1132.22 26.1121 1136.96 26.1121 Q1144.78 26.1121 1148.79 30.9732 Q1152.8 35.7938 1152.8 45.1919 Z" fill="#000000" fill-rule="evenodd" fill-opacity="1" /><path clip-path="url(#clip430)" d="M 0 0 M1211.62 32.4315 Q1205.63 32.4315 1202.14 37.1306 Q1198.66 41.7891 1198.66 49.9314 Q1198.66 58.0738 1202.1 62.7728 Q1205.59 67.4314 1211.62 67.4314 Q1217.58 67.4314 1221.06 62.7323 Q1224.54 58.0333 1224.54 49.9314 Q1224.54 41.8701 1221.06 37.1711 Q1217.58 32.4315 1211.62 32.4315 M1211.62 26.1121 Q1221.34 26.1121 1226.89 32.4315 Q1232.44 38.7509 1232.44 49.9314 Q1232.44 61.0714 1226.89 67.4314 Q1221.34 73.7508 1211.62 73.7508 Q1201.86 73.7508 1196.31 67.4314 Q1190.8 61.0714 1190.8 49.9314 Q1190.8 38.7509 1196.31 32.4315 Q1201.86 26.1121 1211.62 26.1121 Z" fill="#000000" fill-rule="evenodd" fill-opacity="1" /><path clip-path="url(#clip430)" d="M 0 0 M1282.51 45.1919 L1282.51 72.576 L1275.06 72.576 L1275.06 45.4349 Q1275.06 38.994 1272.55 35.7938 Q1270.04 32.5936 1265.01 32.5936 Q1258.98 32.5936 1255.49 36.4419 Q1252.01 40.2903 1252.01 46.9338 L1252.01 72.576 L1244.51 72.576 L1244.51 27.2059 L1252.01 27.2059 L1252.01 34.2544 Q1254.68 30.163 1258.29 28.1376 Q1261.93 26.1121 1266.67 26.1121 Q1274.49 26.1121 1278.5 30.9732 Q1282.51 35.7938 1282.51 45.1919 Z" fill="#000000" fill-rule="evenodd" fill-opacity="1" /><path clip-path="url(#clip430)" d="M 0 0 M1331.12 14.324 L1331.12 27.2059 L1346.48 27.2059 L1346.48 32.9987 L1331.12 32.9987 L1331.12 57.6282 Q1331.12 63.1779 1332.62 64.7578 Q1334.16 66.3376 1338.82 66.3376 L1346.48 66.3376 L1346.48 72.576 L1338.82 72.576 Q1330.19 72.576 1326.91 69.3758 Q1323.63 66.1351 1323.63 57.6282 L1323.63 32.9987 L1318.16 32.9987 L1318.16 27.2059 L1323.63 27.2059 L1323.63 14.324 L1331.12 14.324 Z" fill="#000000" fill-rule="evenodd" fill-opacity="1" /><path clip-path="url(#clip430)" d="M 0 0 M1393.99 45.1919 L1393.99 72.576 L1386.54 72.576 L1386.54 45.4349 Q1386.54 38.994 1384.03 35.7938 Q1381.52 32.5936 1376.49 32.5936 Q1370.46 32.5936 1366.97 36.4419 Q1363.49 40.2903 1363.49 46.9338 L1363.49 72.576 L1356 72.576 L1356 9.54393 L1363.49 9.54393 L1363.49 34.2544 Q1366.16 30.163 1369.77 28.1376 Q1373.41 26.1121 1378.15 26.1121 Q1385.97 26.1121 1389.98 30.9732 Q1393.99 35.7938 1393.99 45.1919 Z" fill="#000000" fill-rule="evenodd" fill-opacity="1" /><path clip-path="url(#clip430)" d="M 0 0 M1447.67 48.0275 L1447.67 51.6733 L1413.4 51.6733 Q1413.88 59.3701 1418.01 63.421 Q1422.19 67.4314 1429.6 67.4314 Q1433.89 67.4314 1437.9 66.3781 Q1441.96 65.3249 1445.93 63.2184 L1445.93 70.267 Q1441.91 71.9684 1437.7 72.8596 Q1433.49 73.7508 1429.15 73.7508 Q1418.3 73.7508 1411.94 67.4314 Q1405.62 61.1119 1405.62 50.3365 Q1405.62 39.1965 1411.61 32.6746 Q1417.65 26.1121 1427.86 26.1121 Q1437.01 26.1121 1442.32 32.0264 Q1447.67 37.9003 1447.67 48.0275 M1440.21 45.84 Q1440.13 39.7232 1436.77 36.0774 Q1433.45 32.4315 1427.94 32.4315 Q1421.7 32.4315 1417.93 35.9558 Q1414.21 39.4801 1413.64 45.8805 L1440.21 45.84 Z" fill="#000000" fill-rule="evenodd" fill-opacity="1" /><path clip-path="url(#clip430)" d="M 0 0 M1493.65 14.324 L1493.65 27.2059 L1509 27.2059 L1509 32.9987 L1493.65 32.9987 L1493.65 57.6282 Q1493.65 63.1779 1495.14 64.7578 Q1496.68 66.3376 1501.34 66.3376 L1509 66.3376 L1509 72.576 L1501.34 72.576 Q1492.71 72.576 1489.43 69.3758 Q1486.15 66.1351 1486.15 57.6282 L1486.15 32.9987 L1480.68 32.9987 L1480.68 27.2059 L1486.15 27.2059 L1486.15 14.324 L1493.65 14.324 Z" fill="#000000" fill-rule="evenodd" fill-opacity="1" /><path clip-path="url(#clip430)" d="M 0 0 M1545.09 34.1734 Q1543.84 33.4443 1542.34 33.1202 Q1540.88 32.7556 1539.1 32.7556 Q1532.78 32.7556 1529.37 36.8875 Q1526.01 40.9789 1526.01 48.6757 L1526.01 72.576 L1518.52 72.576 L1518.52 27.2059 L1526.01 27.2059 L1526.01 34.2544 Q1528.36 30.1225 1532.13 28.1376 Q1535.9 26.1121 1541.28 26.1121 Q1542.05 26.1121 1542.99 26.2337 Q1543.92 26.3147 1545.05 26.5172 L1545.09 34.1734 Z" fill="#000000" fill-rule="evenodd" fill-opacity="1" /><path clip-path="url(#clip430)" d="M 0 0 M1573.53 49.7694 Q1564.5 49.7694 1561.01 51.8354 Q1557.53 53.9013 1557.53 58.8839 Q1557.53 62.8538 1560.12 65.2034 Q1562.75 67.5124 1567.25 67.5124 Q1573.45 67.5124 1577.17 63.1374 Q1580.94 58.7219 1580.94 51.4303 L1580.94 49.7694 L1573.53 49.7694 M1588.4 46.6907 L1588.4 72.576 L1580.94 72.576 L1580.94 65.6895 Q1578.39 69.8214 1574.58 71.8063 Q1570.77 73.7508 1565.27 73.7508 Q1558.3 73.7508 1554.17 69.8619 Q1550.07 65.9325 1550.07 59.3701 Q1550.07 51.7138 1555.18 47.825 Q1560.32 43.9361 1570.49 43.9361 L1580.94 43.9361 L1580.94 43.2069 Q1580.94 38.0623 1577.54 35.2672 Q1574.18 32.4315 1568.06 32.4315 Q1564.17 32.4315 1560.48 33.3632 Q1556.8 34.295 1553.4 36.1584 L1553.4 29.2718 Q1557.49 27.692 1561.34 26.9223 Q1565.18 26.1121 1568.83 26.1121 Q1578.67 26.1121 1583.53 31.2163 Q1588.4 36.3204 1588.4 46.6907 Z" fill="#000000" fill-rule="evenodd" fill-opacity="1" /><path clip-path="url(#clip430)" d="M 0 0 M1603.75 27.2059 L1611.2 27.2059 L1611.2 72.576 L1603.75 72.576 L1603.75 27.2059 M1603.75 9.54393 L1611.2 9.54393 L1611.2 18.9825 L1603.75 18.9825 L1603.75 9.54393 Z" fill="#000000" fill-rule="evenodd" fill-opacity="1" /><path clip-path="url(#clip430)" d="M 0 0 M1664.51 45.1919 L1664.51 72.576 L1657.06 72.576 L1657.06 45.4349 Q1657.06 38.994 1654.55 35.7938 Q1652.04 32.5936 1647.01 32.5936 Q1640.98 32.5936 1637.49 36.4419 Q1634.01 40.2903 1634.01 46.9338 L1634.01 72.576 L1626.51 72.576 L1626.51 27.2059 L1634.01 27.2059 L1634.01 34.2544 Q1636.68 30.163 1640.29 28.1376 Q1643.93 26.1121 1648.67 26.1121 Q1656.49 26.1121 1660.5 30.9732 Q1664.51 35.7938 1664.51 45.1919 Z" fill="#000000" fill-rule="evenodd" fill-opacity="1" /><path clip-path="url(#clip430)" d="M 0 0 M1679.38 27.2059 L1686.83 27.2059 L1686.83 72.576 L1679.38 72.576 L1679.38 27.2059 M1679.38 9.54393 L1686.83 9.54393 L1686.83 18.9825 L1679.38 18.9825 L1679.38 9.54393 Z" fill="#000000" fill-rule="evenodd" fill-opacity="1" /><path clip-path="url(#clip430)" d="M 0 0 M1740.14 45.1919 L1740.14 72.576 L1732.69 72.576 L1732.69 45.4349 Q1732.69 38.994 1730.18 35.7938 Q1727.67 32.5936 1722.64 32.5936 Q1716.61 32.5936 1713.12 36.4419 Q1709.64 40.2903 1709.64 46.9338 L1709.64 72.576 L1702.15 72.576 L1702.15 27.2059 L1709.64 27.2059 L1709.64 34.2544 Q1712.31 30.163 1715.92 28.1376 Q1719.56 26.1121 1724.3 26.1121 Q1732.12 26.1121 1736.13 30.9732 Q1740.14 35.7938 1740.14 45.1919 Z" fill="#000000" fill-rule="evenodd" fill-opacity="1" /><path clip-path="url(#clip430)" d="M 0 0 M1784.86 49.3643 Q1784.86 41.2625 1781.5 36.8065 Q1778.18 32.3505 1772.14 32.3505 Q1766.15 32.3505 1762.79 36.8065 Q1759.47 41.2625 1759.47 49.3643 Q1759.47 57.4256 1762.79 61.8816 Q1766.15 66.3376 1772.14 66.3376 Q1778.18 66.3376 1781.5 61.8816 Q1784.86 57.4256 1784.86 49.3643 M1792.32 66.9452 Q1792.32 78.5308 1787.17 84.1616 Q1782.03 89.8329 1771.42 89.8329 Q1767.49 89.8329 1764 89.2252 Q1760.52 88.6581 1757.24 87.4428 L1757.24 80.1917 Q1760.52 81.9741 1763.72 82.8248 Q1766.92 83.6755 1770.24 83.6755 Q1777.57 83.6755 1781.22 79.8271 Q1784.86 76.0193 1784.86 68.282 L1784.86 64.5957 Q1782.56 68.6061 1778.95 70.5911 Q1775.34 72.576 1770.32 72.576 Q1761.98 72.576 1756.87 66.2161 Q1751.77 59.8562 1751.77 49.3643 Q1751.77 38.832 1756.87 32.472 Q1761.98 26.1121 1770.32 26.1121 Q1775.34 26.1121 1778.95 28.0971 Q1782.56 30.082 1784.86 34.0924 L1784.86 27.2059 L1792.32 27.2059 L1792.32 66.9452 Z" fill="#000000" fill-rule="evenodd" fill-opacity="1" /><path clip-path="url(#clip430)" d="M 0 0 M1862.97 28.5427 L1862.97 35.5912 Q1859.81 33.9709 1856.4 33.1607 Q1853 32.3505 1849.35 32.3505 Q1843.81 32.3505 1841.01 34.0519 Q1838.26 35.7533 1838.26 39.156 Q1838.26 41.7486 1840.24 43.2475 Q1842.23 44.7058 1848.22 46.0426 L1850.77 46.6097 Q1858.71 48.3111 1862.03 51.4303 Q1865.4 54.509 1865.4 60.0587 Q1865.4 66.3781 1860.37 70.0644 Q1855.39 73.7508 1846.64 73.7508 Q1843 73.7508 1839.03 73.0216 Q1835.1 72.3329 1830.72 70.9151 L1830.72 63.2184 Q1834.85 65.3654 1838.86 66.4591 Q1842.87 67.5124 1846.8 67.5124 Q1852.07 67.5124 1854.9 65.73 Q1857.74 63.9071 1857.74 60.6258 Q1857.74 57.5877 1855.67 55.9673 Q1853.65 54.3469 1846.72 52.8481 L1844.13 52.2405 Q1837.2 50.7821 1834.12 47.7845 Q1831.04 44.7463 1831.04 39.4801 Q1831.04 33.0797 1835.58 29.5959 Q1840.12 26.1121 1848.46 26.1121 Q1852.6 26.1121 1856.24 26.7198 Q1859.89 27.3274 1862.97 28.5427 Z" fill="#000000" fill-rule="evenodd" fill-opacity="1" /><path clip-path="url(#clip430)" d="M 0 0 M1916.07 48.0275 L1916.07 51.6733 L1881.8 51.6733 Q1882.29 59.3701 1886.42 63.421 Q1890.59 67.4314 1898.01 67.4314 Q1902.3 67.4314 1906.31 66.3781 Q1910.36 65.3249 1914.33 63.2184 L1914.33 70.267 Q1910.32 71.9684 1906.11 72.8596 Q1901.9 73.7508 1897.56 73.7508 Q1886.7 73.7508 1880.34 67.4314 Q1874.02 61.1119 1874.02 50.3365 Q1874.02 39.1965 1880.02 32.6746 Q1886.06 26.1121 1896.26 26.1121 Q1905.42 26.1121 1910.73 32.0264 Q1916.07 37.9003 1916.07 48.0275 M1908.62 45.84 Q1908.54 39.7232 1905.18 36.0774 Q1901.85 32.4315 1896.35 32.4315 Q1890.11 32.4315 1886.34 35.9558 Q1882.61 39.4801 1882.05 45.8805 L1908.62 45.84 Z" fill="#000000" fill-rule="evenodd" fill-opacity="1" /><path clip-path="url(#clip430)" d="M 0 0 M1935.68 14.324 L1935.68 27.2059 L1951.03 27.2059 L1951.03 32.9987 L1935.68 32.9987 L1935.68 57.6282 Q1935.68 63.1779 1937.18 64.7578 Q1938.72 66.3376 1943.38 66.3376 L1951.03 66.3376 L1951.03 72.576 L1943.38 72.576 Q1934.75 72.576 1931.47 69.3758 Q1928.19 66.1351 1928.19 57.6282 L1928.19 32.9987 L1922.72 32.9987 L1922.72 27.2059 L1928.19 27.2059 L1928.19 14.324 L1935.68 14.324 Z" fill="#000000" fill-rule="evenodd" fill-opacity="1" /><polyline clip-path="url(#clip432)" style="stroke:#009af9; stroke-width:4; stroke-opacity:1; fill:none" points="
  279.421,160.256 289.537,368.713 299.652,516.781 309.767,630.142 319.883,720.248 329.998,789.44 340.113,845.447 350.228,892.354 360.344,930.555 370.459,961.98 
  380.574,988.618 390.69,1011.21 400.805,1030.86 410.92,1047.91 421.036,1062.73 431.151,1075.46 441.266,1087.01 451.382,1097.53 461.497,1107.09 471.612,1115.77 
  481.727,1123.78 491.843,1131.18 501.958,1138.03 512.073,1144.44 522.189,1150.47 532.304,1156.23 542.419,1161.74 552.535,1166.98 562.65,1172.01 572.765,1176.95 
  582.881,1181.67 592.996,1186.17 603.111,1190.57 613.226,1194.91 623.342,1199.11 633.457,1203.26 643.572,1207.37 653.688,1211.37 663.803,1215.25 673.918,1219.03 
  684.034,1222.71 694.149,1226.31 704.264,1229.83 714.38,1233.26 724.495,1236.6 734.61,1239.87 744.725,1243.03 754.841,1246.06 764.956,1249.01 775.071,1251.9 
  785.187,1254.67 795.302,1257.35 805.417,1259.96 815.533,1262.5 825.648,1264.98 835.763,1267.39 845.879,1269.74 855.994,1272.04 866.109,1274.29 876.224,1276.49 
  886.34,1278.65 896.455,1280.76 906.57,1282.83 916.686,1284.85 926.801,1286.82 936.916,1288.75 947.032,1290.63 957.147,1292.47 967.262,1294.26 977.378,1296.02 
  987.493,1297.74 997.608,1299.43 1007.72,1301.07 1017.84,1302.69 1027.95,1304.27 1038.07,1305.82 1048.18,1307.34 1058.3,1308.84 1068.42,1310.31 1078.53,1311.75 
  1088.65,1313.16 1098.76,1314.55 1108.88,1315.92 1118.99,1317.27 1129.11,1318.59 1139.22,1319.89 1149.34,1321.17 1159.45,1322.42 1169.57,1323.65 1179.68,1324.86 
  1189.8,1326.04 1199.91,1327.21 1210.03,1328.35 1220.14,1329.48 1230.26,1330.58 1240.38,1331.66 1250.49,1332.73 1260.61,1333.77 1270.72,1334.8 1280.84,1335.8 
  1290.95,1336.79 1301.07,1337.76 1311.18,1338.72 1321.3,1339.66 1331.41,1340.58 1341.53,1341.49 1351.64,1342.38 1361.76,1343.26 1371.87,1344.12 1381.99,1344.97 
  1392.11,1345.8 1402.22,1346.62 1412.34,1347.43 1422.45,1348.22 1432.57,1349.01 1442.68,1349.78 1452.8,1350.53 1462.91,1351.28 1473.03,1352.01 1483.14,1352.73 
  1493.26,1353.44 1503.37,1354.13 1513.49,1354.82 1523.6,1355.5 1533.72,1356.16 1543.83,1356.82 1553.95,1357.46 1564.07,1358.1 1574.18,1358.72 1584.3,1359.34 
  1594.41,1359.94 1604.53,1360.54 1614.64,1361.13 1624.76,1361.71 1634.87,1362.28 1644.99,1362.83 1655.1,1363.37 1665.22,1363.91 1675.33,1364.43 1685.45,1364.95 
  1695.56,1365.47 1705.68,1365.97 1715.79,1366.47 1725.91,1366.96 1736.03,1367.44 1746.14,1367.92 1756.26,1368.39 1766.37,1368.85 1776.49,1369.31 1786.6,1369.76 
  1796.72,1370.21 1806.83,1370.64 1816.95,1371.08 1827.06,1371.51 1837.18,1371.93 1847.29,1372.34 1857.41,1372.75 1867.52,1373.16 1877.64,1373.56 1887.76,1373.96 
  1897.87,1374.35 1907.99,1374.73 1918.1,1375.11 1928.22,1375.49 1938.33,1375.86 1948.45,1376.22 1958.56,1376.59 1968.68,1376.94 1978.79,1377.3 1988.91,1377.64 
  1999.02,1377.99 2009.14,1378.33 2019.25,1378.67 2029.37,1379 2039.48,1379.33 2049.6,1379.65 2059.72,1379.97 2069.83,1380.29 2079.95,1380.6 2090.06,1380.91 
  2100.18,1381.22 2110.29,1381.52 2120.41,1381.81 2130.52,1382.11 2140.64,1382.4 2150.75,1382.69 2160.87,1382.97 2170.98,1383.25 2181.1,1383.53 2191.21,1383.8 
  2201.33,1384.07 2211.45,1384.34 2221.56,1384.61 2231.68,1384.87 2241.79,1385.13 2251.91,1385.39 2262.02,1385.65 2272.14,1385.9 2282.25,1386.15 2292.37,1386.4 
  
  "/>
</svg>
