<?xml version="1.0" encoding="utf-8"?>
<svg xmlns="http://www.w3.org/2000/svg" xmlns:xlink="http://www.w3.org/1999/xlink" width="600" height="400" viewBox="0 0 2400 1600">
<defs>
  <clipPath id="clip850">
    <rect x="0" y="0" width="2400" height="1600"/>
  </clipPath>
</defs>
<path clip-path="url(#clip850)" d="
M0 1600 L2400 1600 L2400 0 L0 0  Z
  " fill="#ffffff" fill-rule="evenodd" fill-opacity="1"/>
<defs>
  <clipPath id="clip851">
    <rect x="480" y="0" width="1681" height="1600"/>
  </clipPath>
</defs>
<path clip-path="url(#clip850)" d="
M211.602 1423.18 L2352.76 1423.18 L2352.76 47.2441 L211.602 47.2441  Z
  " fill="#ffffff" fill-rule="evenodd" fill-opacity="1"/>
<defs>
  <clipPath id="clip852">
    <rect x="211" y="47" width="2142" height="1377"/>
  </clipPath>
</defs>
<polyline clip-path="url(#clip852)" style="stroke:#000000; stroke-width:2; stroke-opacity:0.1; fill:none" points="
  475.956,1423.18 475.956,47.2441 
  "/>
<polyline clip-path="url(#clip852)" style="stroke:#000000; stroke-width:2; stroke-opacity:0.1; fill:none" points="
  894.773,1423.18 894.773,47.2441 
  "/>
<polyline clip-path="url(#clip852)" style="stroke:#000000; stroke-width:2; stroke-opacity:0.1; fill:none" points="
  1313.59,1423.18 1313.59,47.2441 
  "/>
<polyline clip-path="url(#clip852)" style="stroke:#000000; stroke-width:2; stroke-opacity:0.1; fill:none" points="
  1732.41,1423.18 1732.41,47.2441 
  "/>
<polyline clip-path="url(#clip852)" style="stroke:#000000; stroke-width:2; stroke-opacity:0.1; fill:none" points="
  2151.23,1423.18 2151.23,47.2441 
  "/>
<polyline clip-path="url(#clip850)" style="stroke:#000000; stroke-width:4; stroke-opacity:1; fill:none" points="
  211.602,1423.18 2352.76,1423.18 
  "/>
<polyline clip-path="url(#clip850)" style="stroke:#000000; stroke-width:4; stroke-opacity:1; fill:none" points="
  475.956,1423.18 475.956,1406.67 
  "/>
<polyline clip-path="url(#clip850)" style="stroke:#000000; stroke-width:4; stroke-opacity:1; fill:none" points="
  894.773,1423.18 894.773,1406.67 
  "/>
<polyline clip-path="url(#clip850)" style="stroke:#000000; stroke-width:4; stroke-opacity:1; fill:none" points="
  1313.59,1423.18 1313.59,1406.67 
  "/>
<polyline clip-path="url(#clip850)" style="stroke:#000000; stroke-width:4; stroke-opacity:1; fill:none" points="
  1732.41,1423.18 1732.41,1406.67 
  "/>
<polyline clip-path="url(#clip850)" style="stroke:#000000; stroke-width:4; stroke-opacity:1; fill:none" points="
  2151.23,1423.18 2151.23,1406.67 
  "/>
<path clip-path="url(#clip850)" d="M 0 0 M447.368 1467.02 L477.044 1467.02 L477.044 1470.96 L447.368 1470.96 L447.368 1467.02 Z" fill="#000000" fill-rule="evenodd" fill-opacity="1" /><path clip-path="url(#clip850)" d="M 0 0 M494.96 1453.37 L483.155 1471.81 L494.96 1471.81 L494.96 1453.37 M493.733 1449.29 L499.613 1449.29 L499.613 1471.81 L504.544 1471.81 L504.544 1475.7 L499.613 1475.7 L499.613 1483.85 L494.96 1483.85 L494.96 1475.7 L479.359 1475.7 L479.359 1471.19 L493.733 1449.29 Z" fill="#000000" fill-rule="evenodd" fill-opacity="1" /><path clip-path="url(#clip850)" d="M 0 0 M867.227 1467.02 L896.903 1467.02 L896.903 1470.96 L867.227 1470.96 L867.227 1467.02 Z" fill="#000000" fill-rule="evenodd" fill-opacity="1" /><path clip-path="url(#clip850)" d="M 0 0 M906 1479.92 L922.319 1479.92 L922.319 1483.85 L900.375 1483.85 L900.375 1479.92 Q903.037 1477.16 907.62 1472.53 Q912.227 1467.88 913.407 1466.54 Q915.653 1464.01 916.532 1462.28 Q917.435 1460.52 917.435 1458.83 Q917.435 1456.07 915.491 1454.34 Q913.569 1452.6 910.467 1452.6 Q908.268 1452.6 905.815 1453.37 Q903.384 1454.13 900.606 1455.68 L900.606 1450.96 Q903.43 1449.82 905.884 1449.25 Q908.338 1448.67 910.375 1448.67 Q915.745 1448.67 918.94 1451.35 Q922.134 1454.04 922.134 1458.53 Q922.134 1460.66 921.324 1462.58 Q920.537 1464.48 918.43 1467.07 Q917.852 1467.74 914.75 1470.96 Q911.648 1474.15 906 1479.92 Z" fill="#000000" fill-rule="evenodd" fill-opacity="1" /><path clip-path="url(#clip850)" d="M 0 0 M1313.59 1452.37 Q1309.98 1452.37 1308.15 1455.94 Q1306.35 1459.48 1306.35 1466.61 Q1306.35 1473.71 1308.15 1477.28 Q1309.98 1480.82 1313.59 1480.82 Q1317.22 1480.82 1319.03 1477.28 Q1320.86 1473.71 1320.86 1466.61 Q1320.86 1459.48 1319.03 1455.94 Q1317.22 1452.37 1313.59 1452.37 M1313.59 1448.67 Q1319.4 1448.67 1322.46 1453.27 Q1325.53 1457.86 1325.53 1466.61 Q1325.53 1475.33 1322.46 1479.94 Q1319.4 1484.52 1313.59 1484.52 Q1307.78 1484.52 1304.7 1479.94 Q1301.65 1475.33 1301.65 1466.61 Q1301.65 1457.86 1304.7 1453.27 Q1307.78 1448.67 1313.59 1448.67 Z" fill="#000000" fill-rule="evenodd" fill-opacity="1" /><path clip-path="url(#clip850)" d="M 0 0 M1727.06 1479.92 L1743.38 1479.92 L1743.38 1483.85 L1721.44 1483.85 L1721.44 1479.92 Q1724.1 1477.16 1728.68 1472.53 Q1733.29 1467.88 1734.47 1466.54 Q1736.71 1464.01 1737.59 1462.28 Q1738.5 1460.52 1738.5 1458.83 Q1738.5 1456.07 1736.55 1454.34 Q1734.63 1452.6 1731.53 1452.6 Q1729.33 1452.6 1726.88 1453.37 Q1724.44 1454.13 1721.67 1455.68 L1721.67 1450.96 Q1724.49 1449.82 1726.94 1449.25 Q1729.4 1448.67 1731.44 1448.67 Q1736.81 1448.67 1740 1451.35 Q1743.19 1454.04 1743.19 1458.53 Q1743.19 1460.66 1742.38 1462.58 Q1741.6 1464.48 1739.49 1467.07 Q1738.91 1467.74 1735.81 1470.96 Q1732.71 1474.15 1727.06 1479.92 Z" fill="#000000" fill-rule="evenodd" fill-opacity="1" /><path clip-path="url(#clip850)" d="M 0 0 M2154.23 1453.37 L2142.43 1471.81 L2154.23 1471.81 L2154.23 1453.37 M2153.01 1449.29 L2158.89 1449.29 L2158.89 1471.81 L2163.82 1471.81 L2163.82 1475.7 L2158.89 1475.7 L2158.89 1483.85 L2154.23 1483.85 L2154.23 1475.7 L2138.63 1475.7 L2138.63 1471.19 L2153.01 1449.29 Z" fill="#000000" fill-rule="evenodd" fill-opacity="1" /><path clip-path="url(#clip850)" d="M 0 0 M1298.79 1532.4 L1285.9 1549.74 L1299.46 1568.04 L1292.56 1568.04 L1282.18 1554.04 L1271.8 1568.04 L1264.9 1568.04 L1278.74 1549.39 L1266.07 1532.4 L1272.98 1532.4 L1282.43 1545.1 L1291.89 1532.4 L1298.79 1532.4 Z" fill="#000000" fill-rule="evenodd" fill-opacity="1" /><polyline clip-path="url(#clip852)" style="stroke:#000000; stroke-width:2; stroke-opacity:0.1; fill:none" points="
  211.602,1384.24 2352.76,1384.24 
  "/>
<polyline clip-path="url(#clip852)" style="stroke:#000000; stroke-width:2; stroke-opacity:0.1; fill:none" points="
  211.602,1058.85 2352.76,1058.85 
  "/>
<polyline clip-path="url(#clip852)" style="stroke:#000000; stroke-width:2; stroke-opacity:0.1; fill:none" points="
  211.602,733.456 2352.76,733.456 
  "/>
<polyline clip-path="url(#clip852)" style="stroke:#000000; stroke-width:2; stroke-opacity:0.1; fill:none" points="
  211.602,408.064 2352.76,408.064 
  "/>
<polyline clip-path="url(#clip852)" style="stroke:#000000; stroke-width:2; stroke-opacity:0.1; fill:none" points="
  211.602,82.6731 2352.76,82.6731 
  "/>
<polyline clip-path="url(#clip850)" style="stroke:#000000; stroke-width:4; stroke-opacity:1; fill:none" points="
  211.602,1423.18 211.602,47.2441 
  "/>
<polyline clip-path="url(#clip850)" style="stroke:#000000; stroke-width:4; stroke-opacity:1; fill:none" points="
  211.602,1384.24 237.296,1384.24 
  "/>
<polyline clip-path="url(#clip850)" style="stroke:#000000; stroke-width:4; stroke-opacity:1; fill:none" points="
  211.602,1058.85 237.296,1058.85 
  "/>
<polyline clip-path="url(#clip850)" style="stroke:#000000; stroke-width:4; stroke-opacity:1; fill:none" points="
  211.602,733.456 237.296,733.456 
  "/>
<polyline clip-path="url(#clip850)" style="stroke:#000000; stroke-width:4; stroke-opacity:1; fill:none" points="
  211.602,408.064 237.296,408.064 
  "/>
<polyline clip-path="url(#clip850)" style="stroke:#000000; stroke-width:4; stroke-opacity:1; fill:none" points="
  211.602,82.6731 237.296,82.6731 
  "/>
<path clip-path="url(#clip850)" d="M 0 0 M126.691 1370.04 Q123.08 1370.04 121.251 1373.6 Q119.445 1377.14 119.445 1384.27 Q119.445 1391.38 121.251 1394.94 Q123.08 1398.49 126.691 1398.49 Q130.325 1398.49 132.13 1394.94 Q133.959 1391.38 133.959 1384.27 Q133.959 1377.14 132.13 1373.6 Q130.325 1370.04 126.691 1370.04 M126.691 1366.33 Q132.501 1366.33 135.556 1370.94 Q138.635 1375.52 138.635 1384.27 Q138.635 1393 135.556 1397.61 Q132.501 1402.19 126.691 1402.19 Q120.88 1402.19 117.802 1397.61 Q114.746 1393 114.746 1384.27 Q114.746 1375.52 117.802 1370.94 Q120.88 1366.33 126.691 1366.33 Z" fill="#000000" fill-rule="evenodd" fill-opacity="1" /><path clip-path="url(#clip850)" d="M 0 0 M143.704 1395.64 L148.589 1395.64 L148.589 1401.52 L143.704 1401.52 L143.704 1395.64 Z" fill="#000000" fill-rule="evenodd" fill-opacity="1" /><path clip-path="url(#clip850)" d="M 0 0 M163.658 1370.04 Q160.047 1370.04 158.218 1373.6 Q156.413 1377.14 156.413 1384.27 Q156.413 1391.38 158.218 1394.94 Q160.047 1398.49 163.658 1398.49 Q167.292 1398.49 169.098 1394.94 Q170.927 1391.38 170.927 1384.27 Q170.927 1377.14 169.098 1373.6 Q167.292 1370.04 163.658 1370.04 M163.658 1366.33 Q169.468 1366.33 172.524 1370.94 Q175.602 1375.52 175.602 1384.27 Q175.602 1393 172.524 1397.61 Q169.468 1402.19 163.658 1402.19 Q157.848 1402.19 154.769 1397.61 Q151.714 1393 151.714 1384.27 Q151.714 1375.52 154.769 1370.94 Q157.848 1366.33 163.658 1366.33 Z" fill="#000000" fill-rule="evenodd" fill-opacity="1" /><path clip-path="url(#clip850)" d="M 0 0 M127.917 1044.65 Q124.306 1044.65 122.478 1048.21 Q120.672 1051.75 120.672 1058.88 Q120.672 1065.99 122.478 1069.55 Q124.306 1073.09 127.917 1073.09 Q131.552 1073.09 133.357 1069.55 Q135.186 1065.99 135.186 1058.88 Q135.186 1051.75 133.357 1048.21 Q131.552 1044.65 127.917 1044.65 M127.917 1040.94 Q133.728 1040.94 136.783 1045.55 Q139.862 1050.13 139.862 1058.88 Q139.862 1067.61 136.783 1072.21 Q133.728 1076.8 127.917 1076.8 Q122.107 1076.8 119.029 1072.21 Q115.973 1067.61 115.973 1058.88 Q115.973 1050.13 119.029 1045.55 Q122.107 1040.94 127.917 1040.94 Z" fill="#000000" fill-rule="evenodd" fill-opacity="1" /><path clip-path="url(#clip850)" d="M 0 0 M144.931 1070.25 L149.816 1070.25 L149.816 1076.13 L144.931 1076.13 L144.931 1070.25 Z" fill="#000000" fill-rule="evenodd" fill-opacity="1" /><path clip-path="url(#clip850)" d="M 0 0 M155.695 1072.19 L163.334 1072.19 L163.334 1045.83 L155.024 1047.49 L155.024 1043.23 L163.288 1041.57 L167.964 1041.57 L167.964 1072.19 L175.602 1072.19 L175.602 1076.13 L155.695 1076.13 L155.695 1072.19 Z" fill="#000000" fill-rule="evenodd" fill-opacity="1" /><path clip-path="url(#clip850)" d="M 0 0 M128.288 719.254 Q124.677 719.254 122.848 722.819 Q121.043 726.361 121.043 733.49 Q121.043 740.597 122.848 744.162 Q124.677 747.703 128.288 747.703 Q131.922 747.703 133.728 744.162 Q135.556 740.597 135.556 733.49 Q135.556 726.361 133.728 722.819 Q131.922 719.254 128.288 719.254 M128.288 715.551 Q134.098 715.551 137.154 720.157 Q140.232 724.74 140.232 733.49 Q140.232 742.217 137.154 746.824 Q134.098 751.407 128.288 751.407 Q122.478 751.407 119.399 746.824 Q116.343 742.217 116.343 733.49 Q116.343 724.74 119.399 720.157 Q122.478 715.551 128.288 715.551 Z" fill="#000000" fill-rule="evenodd" fill-opacity="1" /><path clip-path="url(#clip850)" d="M 0 0 M145.302 744.856 L150.186 744.856 L150.186 750.736 L145.302 750.736 L145.302 744.856 Z" fill="#000000" fill-rule="evenodd" fill-opacity="1" /><path clip-path="url(#clip850)" d="M 0 0 M159.283 746.801 L175.602 746.801 L175.602 750.736 L153.658 750.736 L153.658 746.801 Q156.32 744.046 160.903 739.416 Q165.51 734.764 166.69 733.421 Q168.936 730.898 169.815 729.162 Q170.718 727.402 170.718 725.713 Q170.718 722.958 168.774 721.222 Q166.852 719.486 163.751 719.486 Q161.552 719.486 159.098 720.25 Q156.667 721.014 153.89 722.565 L153.89 717.842 Q156.714 716.708 159.167 716.129 Q161.621 715.551 163.658 715.551 Q169.028 715.551 172.223 718.236 Q175.417 720.921 175.417 725.412 Q175.417 727.541 174.607 729.463 Q173.82 731.361 171.714 733.953 Q171.135 734.625 168.033 737.842 Q164.931 741.037 159.283 746.801 Z" fill="#000000" fill-rule="evenodd" fill-opacity="1" /><path clip-path="url(#clip850)" d="M 0 0 M127.339 393.863 Q123.728 393.863 121.899 397.428 Q120.093 400.97 120.093 408.099 Q120.093 415.206 121.899 418.77 Q123.728 422.312 127.339 422.312 Q130.973 422.312 132.779 418.77 Q134.607 415.206 134.607 408.099 Q134.607 400.97 132.779 397.428 Q130.973 393.863 127.339 393.863 M127.339 390.159 Q133.149 390.159 136.204 394.766 Q139.283 399.349 139.283 408.099 Q139.283 416.826 136.204 421.432 Q133.149 426.016 127.339 426.016 Q121.529 426.016 118.45 421.432 Q115.394 416.826 115.394 408.099 Q115.394 399.349 118.45 394.766 Q121.529 390.159 127.339 390.159 Z" fill="#000000" fill-rule="evenodd" fill-opacity="1" /><path clip-path="url(#clip850)" d="M 0 0 M144.353 419.465 L149.237 419.465 L149.237 425.344 L144.353 425.344 L144.353 419.465 Z" fill="#000000" fill-rule="evenodd" fill-opacity="1" /><path clip-path="url(#clip850)" d="M 0 0 M168.473 406.71 Q171.829 407.428 173.704 409.696 Q175.602 411.965 175.602 415.298 Q175.602 420.414 172.084 423.215 Q168.565 426.016 162.084 426.016 Q159.908 426.016 157.593 425.576 Q155.302 425.159 152.848 424.303 L152.848 419.789 Q154.792 420.923 157.107 421.502 Q159.422 422.081 161.945 422.081 Q166.343 422.081 168.635 420.344 Q170.95 418.608 170.95 415.298 Q170.95 412.243 168.797 410.53 Q166.667 408.794 162.848 408.794 L158.82 408.794 L158.82 404.951 L163.033 404.951 Q166.482 404.951 168.311 403.585 Q170.139 402.196 170.139 399.604 Q170.139 396.942 168.241 395.53 Q166.366 394.095 162.848 394.095 Q160.927 394.095 158.728 394.511 Q156.528 394.928 153.89 395.807 L153.89 391.641 Q156.552 390.9 158.866 390.53 Q161.204 390.159 163.265 390.159 Q168.589 390.159 171.69 392.59 Q174.792 394.997 174.792 399.118 Q174.792 401.988 173.149 403.979 Q171.505 405.946 168.473 406.71 Z" fill="#000000" fill-rule="evenodd" fill-opacity="1" /><path clip-path="url(#clip850)" d="M 0 0 M126.205 68.4718 Q122.593 68.4718 120.765 72.0366 Q118.959 75.5782 118.959 82.7078 Q118.959 89.8142 120.765 93.379 Q122.593 96.9207 126.205 96.9207 Q129.839 96.9207 131.644 93.379 Q133.473 89.8142 133.473 82.7078 Q133.473 75.5782 131.644 72.0366 Q129.839 68.4718 126.205 68.4718 M126.205 64.7681 Q132.015 64.7681 135.07 69.3745 Q138.149 73.9578 138.149 82.7078 Q138.149 91.4346 135.07 96.0411 Q132.015 100.624 126.205 100.624 Q120.394 100.624 117.316 96.0411 Q114.26 91.4346 114.26 82.7078 Q114.26 73.9578 117.316 69.3745 Q120.394 64.7681 126.205 64.7681 Z" fill="#000000" fill-rule="evenodd" fill-opacity="1" /><path clip-path="url(#clip850)" d="M 0 0 M143.218 94.0735 L148.103 94.0735 L148.103 99.9531 L143.218 99.9531 L143.218 94.0735 Z" fill="#000000" fill-rule="evenodd" fill-opacity="1" /><path clip-path="url(#clip850)" d="M 0 0 M166.019 69.4671 L154.214 87.9161 L166.019 87.9161 L166.019 69.4671 M164.792 65.3931 L170.672 65.3931 L170.672 87.9161 L175.602 87.9161 L175.602 91.805 L170.672 91.805 L170.672 99.9531 L166.019 99.9531 L166.019 91.805 L150.417 91.805 L150.417 87.2911 L164.792 65.3931 Z" fill="#000000" fill-rule="evenodd" fill-opacity="1" /><path clip-path="url(#clip850)" d="M 0 0 M58.657 813.335 L77.5631 813.335 L77.5631 819.223 L28.3562 819.223 L28.3562 813.335 L33.7671 813.335 Q30.5842 811.489 29.0564 808.688 Q27.4968 805.855 27.4968 801.94 Q27.4968 795.447 32.6531 791.405 Q37.8093 787.331 46.212 787.331 Q54.6147 787.331 59.771 791.405 Q64.9272 795.447 64.9272 801.94 Q64.9272 805.855 63.3994 808.688 Q61.8398 811.489 58.657 813.335 M46.212 793.41 Q39.7508 793.41 36.0905 796.084 Q32.3984 798.726 32.3984 803.373 Q32.3984 808.02 36.0905 810.693 Q39.7508 813.335 46.212 813.335 Q52.6732 813.335 56.3653 810.693 Q60.0256 808.02 60.0256 803.373 Q60.0256 798.726 56.3653 796.084 Q52.6732 793.41 46.212 793.41 Z" fill="#000000" fill-rule="evenodd" fill-opacity="1" /><path clip-path="url(#clip850)" d="M 0 0 M33.7671 757.731 L14.479 757.731 L14.479 751.874 L64.0042 751.874 L64.0042 757.731 L58.657 757.731 Q61.8398 759.577 63.3994 762.409 Q64.9272 765.21 64.9272 769.157 Q64.9272 775.618 59.771 779.692 Q54.6147 783.735 46.212 783.735 Q37.8093 783.735 32.6531 779.692 Q27.4968 775.618 27.4968 769.157 Q27.4968 765.21 29.0564 762.409 Q30.5842 759.577 33.7671 757.731 M46.212 777.687 Q52.6732 777.687 56.3653 775.045 Q60.0256 772.372 60.0256 767.725 Q60.0256 763.078 56.3653 760.404 Q52.6732 757.731 46.212 757.731 Q39.7508 757.731 36.0905 760.404 Q32.3984 763.078 32.3984 767.725 Q32.3984 772.372 36.0905 775.045 Q39.7508 777.687 46.212 777.687 Z" fill="#000000" fill-rule="evenodd" fill-opacity="1" /><path clip-path="url(#clip850)" d="M 0 0 M14.479 727.685 L19.3487 727.685 L19.3487 733.286 Q19.3487 736.437 20.6219 737.679 Q21.895 738.888 25.2052 738.888 L28.3562 738.888 L28.3562 729.244 L32.9077 729.244 L32.9077 738.888 L64.0042 738.888 L64.0042 744.776 L32.9077 744.776 L32.9077 750.378 L28.3562 750.378 L28.3562 744.776 L25.8736 744.776 Q19.9216 744.776 17.2162 742.007 Q14.479 739.238 14.479 733.223 L14.479 727.685 Z" fill="#000000" fill-rule="evenodd" fill-opacity="1" /><path clip-path="url(#clip850)" d="M 0 0 M14.5426 707.473 Q21.8632 711.738 29.0246 713.807 Q36.186 715.876 43.5384 715.876 Q50.8908 715.876 58.1159 713.807 Q65.3091 711.707 72.5979 707.473 L72.5979 712.566 Q65.1182 717.34 57.8931 719.727 Q50.668 722.083 43.5384 722.083 Q36.4406 722.083 29.2474 719.727 Q22.0542 717.372 14.5426 712.566 L14.5426 707.473 Z" fill="#000000" fill-rule="evenodd" fill-opacity="1" /><path clip-path="url(#clip850)" d="M 0 0 M28.3562 671.698 L45.7028 684.589 L64.0042 671.03 L64.0042 677.937 L49.9996 688.313 L64.0042 698.689 L64.0042 705.596 L45.3526 691.75 L28.3562 704.418 L28.3562 697.511 L41.0558 688.058 L28.3562 678.605 L28.3562 671.698 Z" fill="#000000" fill-rule="evenodd" fill-opacity="1" /><path clip-path="url(#clip850)" d="M 0 0 M14.5426 665.81 L14.5426 660.717 Q22.0542 655.943 29.2474 653.588 Q36.4406 651.201 43.5384 651.201 Q50.668 651.201 57.8931 653.588 Q65.1182 655.943 72.5979 660.717 L72.5979 665.81 Q65.3091 661.577 58.1159 659.508 Q50.8908 657.407 43.5384 657.407 Q36.186 657.407 29.0246 659.508 Q21.8632 661.577 14.5426 665.81 Z" fill="#000000" fill-rule="evenodd" fill-opacity="1" /><path clip-path="url(#clip852)" d="
M329.37 1383.98 L329.37 1384.24 L350.311 1384.24 L350.311 1383.98 L329.37 1383.98 L329.37 1383.98  Z
  " fill="#009af9" fill-rule="evenodd" fill-opacity="0.5"/>
<polyline clip-path="url(#clip852)" style="stroke:#000000; stroke-width:4; stroke-opacity:0.5; fill:none" points="
  329.37,1383.98 329.37,1384.24 350.311,1384.24 350.311,1383.98 329.37,1383.98 
  "/>
<path clip-path="url(#clip852)" d="
M350.311 1384.24 L350.311 1384.24 L371.251 1384.24 L371.251 1384.24 L350.311 1384.24 L350.311 1384.24  Z
  " fill="#009af9" fill-rule="evenodd" fill-opacity="0.5"/>
<polyline clip-path="url(#clip852)" style="stroke:#000000; stroke-width:4; stroke-opacity:0.5; fill:none" points="
  350.311,1384.24 350.311,1384.24 371.251,1384.24 350.311,1384.24 
  "/>
<path clip-path="url(#clip852)" d="
M371.251 1384.24 L371.251 1384.24 L392.192 1384.24 L392.192 1384.24 L371.251 1384.24 L371.251 1384.24  Z
  " fill="#009af9" fill-rule="evenodd" fill-opacity="0.5"/>
<polyline clip-path="url(#clip852)" style="stroke:#000000; stroke-width:4; stroke-opacity:0.5; fill:none" points="
  371.251,1384.24 371.251,1384.24 392.192,1384.24 371.251,1384.24 
  "/>
<path clip-path="url(#clip852)" d="
M392.192 1384.24 L392.192 1384.24 L413.133 1384.24 L413.133 1384.24 L392.192 1384.24 L392.192 1384.24  Z
  " fill="#009af9" fill-rule="evenodd" fill-opacity="0.5"/>
<polyline clip-path="url(#clip852)" style="stroke:#000000; stroke-width:4; stroke-opacity:0.5; fill:none" points="
  392.192,1384.24 392.192,1384.24 413.133,1384.24 392.192,1384.24 
  "/>
<path clip-path="url(#clip852)" d="
M413.133 1384.24 L413.133 1384.24 L434.074 1384.24 L434.074 1384.24 L413.133 1384.24 L413.133 1384.24  Z
  " fill="#009af9" fill-rule="evenodd" fill-opacity="0.5"/>
<polyline clip-path="url(#clip852)" style="stroke:#000000; stroke-width:4; stroke-opacity:0.5; fill:none" points="
  413.133,1384.24 413.133,1384.24 434.074,1384.24 413.133,1384.24 
  "/>
<path clip-path="url(#clip852)" d="
M434.074 1383.46 L434.074 1384.24 L455.015 1384.24 L455.015 1383.46 L434.074 1383.46 L434.074 1383.46  Z
  " fill="#009af9" fill-rule="evenodd" fill-opacity="0.5"/>
<polyline clip-path="url(#clip852)" style="stroke:#000000; stroke-width:4; stroke-opacity:0.5; fill:none" points="
  434.074,1383.46 434.074,1384.24 455.015,1384.24 455.015,1383.46 434.074,1383.46 
  "/>
<path clip-path="url(#clip852)" d="
M455.015 1383.72 L455.015 1384.24 L475.956 1384.24 L475.956 1383.72 L455.015 1383.72 L455.015 1383.72  Z
  " fill="#009af9" fill-rule="evenodd" fill-opacity="0.5"/>
<polyline clip-path="url(#clip852)" style="stroke:#000000; stroke-width:4; stroke-opacity:0.5; fill:none" points="
  455.015,1383.72 455.015,1384.24 475.956,1384.24 475.956,1383.72 455.015,1383.72 
  "/>
<path clip-path="url(#clip852)" d="
M475.956 1383.72 L475.956 1384.24 L496.897 1384.24 L496.897 1383.72 L475.956 1383.72 L475.956 1383.72  Z
  " fill="#009af9" fill-rule="evenodd" fill-opacity="0.5"/>
<polyline clip-path="url(#clip852)" style="stroke:#000000; stroke-width:4; stroke-opacity:0.5; fill:none" points="
  475.956,1383.72 475.956,1384.24 496.897,1384.24 496.897,1383.72 475.956,1383.72 
  "/>
<path clip-path="url(#clip852)" d="
M496.897 1382.68 L496.897 1384.24 L517.837 1384.24 L517.837 1382.68 L496.897 1382.68 L496.897 1382.68  Z
  " fill="#009af9" fill-rule="evenodd" fill-opacity="0.5"/>
<polyline clip-path="url(#clip852)" style="stroke:#000000; stroke-width:4; stroke-opacity:0.5; fill:none" points="
  496.897,1382.68 496.897,1384.24 517.837,1384.24 517.837,1382.68 496.897,1382.68 
  "/>
<path clip-path="url(#clip852)" d="
M517.837 1383.2 L517.837 1384.24 L538.778 1384.24 L538.778 1383.2 L517.837 1383.2 L517.837 1383.2  Z
  " fill="#009af9" fill-rule="evenodd" fill-opacity="0.5"/>
<polyline clip-path="url(#clip852)" style="stroke:#000000; stroke-width:4; stroke-opacity:0.5; fill:none" points="
  517.837,1383.2 517.837,1384.24 538.778,1384.24 538.778,1383.2 517.837,1383.2 
  "/>
<path clip-path="url(#clip852)" d="
M538.778 1382.68 L538.778 1384.24 L559.719 1384.24 L559.719 1382.68 L538.778 1382.68 L538.778 1382.68  Z
  " fill="#009af9" fill-rule="evenodd" fill-opacity="0.5"/>
<polyline clip-path="url(#clip852)" style="stroke:#000000; stroke-width:4; stroke-opacity:0.5; fill:none" points="
  538.778,1382.68 538.778,1384.24 559.719,1384.24 559.719,1382.68 538.778,1382.68 
  "/>
<path clip-path="url(#clip852)" d="
M559.719 1382.68 L559.719 1384.24 L580.66 1384.24 L580.66 1382.68 L559.719 1382.68 L559.719 1382.68  Z
  " fill="#009af9" fill-rule="evenodd" fill-opacity="0.5"/>
<polyline clip-path="url(#clip852)" style="stroke:#000000; stroke-width:4; stroke-opacity:0.5; fill:none" points="
  559.719,1382.68 559.719,1384.24 580.66,1384.24 580.66,1382.68 559.719,1382.68 
  "/>
<path clip-path="url(#clip852)" d="
M580.66 1382.42 L580.66 1384.24 L601.601 1384.24 L601.601 1382.42 L580.66 1382.42 L580.66 1382.42  Z
  " fill="#009af9" fill-rule="evenodd" fill-opacity="0.5"/>
<polyline clip-path="url(#clip852)" style="stroke:#000000; stroke-width:4; stroke-opacity:0.5; fill:none" points="
  580.66,1382.42 580.66,1384.24 601.601,1384.24 601.601,1382.42 580.66,1382.42 
  "/>
<path clip-path="url(#clip852)" d="
M601.601 1380.09 L601.601 1384.24 L622.542 1384.24 L622.542 1380.09 L601.601 1380.09 L601.601 1380.09  Z
  " fill="#009af9" fill-rule="evenodd" fill-opacity="0.5"/>
<polyline clip-path="url(#clip852)" style="stroke:#000000; stroke-width:4; stroke-opacity:0.5; fill:none" points="
  601.601,1380.09 601.601,1384.24 622.542,1384.24 622.542,1380.09 601.601,1380.09 
  "/>
<path clip-path="url(#clip852)" d="
M622.542 1378.02 L622.542 1384.24 L643.483 1384.24 L643.483 1378.02 L622.542 1378.02 L622.542 1378.02  Z
  " fill="#009af9" fill-rule="evenodd" fill-opacity="0.5"/>
<polyline clip-path="url(#clip852)" style="stroke:#000000; stroke-width:4; stroke-opacity:0.5; fill:none" points="
  622.542,1378.02 622.542,1384.24 643.483,1384.24 643.483,1378.02 622.542,1378.02 
  "/>
<path clip-path="url(#clip852)" d="
M643.483 1375.43 L643.483 1384.24 L664.424 1384.24 L664.424 1375.43 L643.483 1375.43 L643.483 1375.43  Z
  " fill="#009af9" fill-rule="evenodd" fill-opacity="0.5"/>
<polyline clip-path="url(#clip852)" style="stroke:#000000; stroke-width:4; stroke-opacity:0.5; fill:none" points="
  643.483,1375.43 643.483,1384.24 664.424,1384.24 664.424,1375.43 643.483,1375.43 
  "/>
<path clip-path="url(#clip852)" d="
M664.424 1371.29 L664.424 1384.24 L685.364 1384.24 L685.364 1371.29 L664.424 1371.29 L664.424 1371.29  Z
  " fill="#009af9" fill-rule="evenodd" fill-opacity="0.5"/>
<polyline clip-path="url(#clip852)" style="stroke:#000000; stroke-width:4; stroke-opacity:0.5; fill:none" points="
  664.424,1371.29 664.424,1384.24 685.364,1384.24 685.364,1371.29 664.424,1371.29 
  "/>
<path clip-path="url(#clip852)" d="
M685.364 1368.44 L685.364 1384.24 L706.305 1384.24 L706.305 1368.44 L685.364 1368.44 L685.364 1368.44  Z
  " fill="#009af9" fill-rule="evenodd" fill-opacity="0.5"/>
<polyline clip-path="url(#clip852)" style="stroke:#000000; stroke-width:4; stroke-opacity:0.5; fill:none" points="
  685.364,1368.44 685.364,1384.24 706.305,1384.24 706.305,1368.44 685.364,1368.44 
  "/>
<path clip-path="url(#clip852)" d="
M706.305 1359.37 L706.305 1384.24 L727.246 1384.24 L727.246 1359.37 L706.305 1359.37 L706.305 1359.37  Z
  " fill="#009af9" fill-rule="evenodd" fill-opacity="0.5"/>
<polyline clip-path="url(#clip852)" style="stroke:#000000; stroke-width:4; stroke-opacity:0.5; fill:none" points="
  706.305,1359.37 706.305,1384.24 727.246,1384.24 727.246,1359.37 706.305,1359.37 
  "/>
<path clip-path="url(#clip852)" d="
M727.246 1351.6 L727.246 1384.24 L748.187 1384.24 L748.187 1351.6 L727.246 1351.6 L727.246 1351.6  Z
  " fill="#009af9" fill-rule="evenodd" fill-opacity="0.5"/>
<polyline clip-path="url(#clip852)" style="stroke:#000000; stroke-width:4; stroke-opacity:0.5; fill:none" points="
  727.246,1351.6 727.246,1384.24 748.187,1384.24 748.187,1351.6 727.246,1351.6 
  "/>
<path clip-path="url(#clip852)" d="
M748.187 1343.83 L748.187 1384.24 L769.128 1384.24 L769.128 1343.83 L748.187 1343.83 L748.187 1343.83  Z
  " fill="#009af9" fill-rule="evenodd" fill-opacity="0.5"/>
<polyline clip-path="url(#clip852)" style="stroke:#000000; stroke-width:4; stroke-opacity:0.5; fill:none" points="
  748.187,1343.83 748.187,1384.24 769.128,1384.24 769.128,1343.83 748.187,1343.83 
  "/>
<path clip-path="url(#clip852)" d="
M769.128 1336.83 L769.128 1384.24 L790.069 1384.24 L790.069 1336.83 L769.128 1336.83 L769.128 1336.83  Z
  " fill="#009af9" fill-rule="evenodd" fill-opacity="0.5"/>
<polyline clip-path="url(#clip852)" style="stroke:#000000; stroke-width:4; stroke-opacity:0.5; fill:none" points="
  769.128,1336.83 769.128,1384.24 790.069,1384.24 790.069,1336.83 769.128,1336.83 
  "/>
<path clip-path="url(#clip852)" d="
M790.069 1324.92 L790.069 1384.24 L811.01 1384.24 L811.01 1324.92 L790.069 1324.92 L790.069 1324.92  Z
  " fill="#009af9" fill-rule="evenodd" fill-opacity="0.5"/>
<polyline clip-path="url(#clip852)" style="stroke:#000000; stroke-width:4; stroke-opacity:0.5; fill:none" points="
  790.069,1324.92 790.069,1384.24 811.01,1384.24 811.01,1324.92 790.069,1324.92 
  "/>
<path clip-path="url(#clip852)" d="
M811.01 1298.24 L811.01 1384.24 L831.951 1384.24 L831.951 1298.24 L811.01 1298.24 L811.01 1298.24  Z
  " fill="#009af9" fill-rule="evenodd" fill-opacity="0.5"/>
<polyline clip-path="url(#clip852)" style="stroke:#000000; stroke-width:4; stroke-opacity:0.5; fill:none" points="
  811.01,1298.24 811.01,1384.24 831.951,1384.24 831.951,1298.24 811.01,1298.24 
  "/>
<path clip-path="url(#clip852)" d="
M831.951 1276.22 L831.951 1384.24 L852.891 1384.24 L852.891 1276.22 L831.951 1276.22 L831.951 1276.22  Z
  " fill="#009af9" fill-rule="evenodd" fill-opacity="0.5"/>
<polyline clip-path="url(#clip852)" style="stroke:#000000; stroke-width:4; stroke-opacity:0.5; fill:none" points="
  831.951,1276.22 831.951,1384.24 852.891,1384.24 852.891,1276.22 831.951,1276.22 
  "/>
<path clip-path="url(#clip852)" d="
M852.891 1264.82 L852.891 1384.24 L873.832 1384.24 L873.832 1264.82 L852.891 1264.82 L852.891 1264.82  Z
  " fill="#009af9" fill-rule="evenodd" fill-opacity="0.5"/>
<polyline clip-path="url(#clip852)" style="stroke:#000000; stroke-width:4; stroke-opacity:0.5; fill:none" points="
  852.891,1264.82 852.891,1384.24 873.832,1384.24 873.832,1264.82 852.891,1264.82 
  "/>
<path clip-path="url(#clip852)" d="
M873.832 1228.82 L873.832 1384.24 L894.773 1384.24 L894.773 1228.82 L873.832 1228.82 L873.832 1228.82  Z
  " fill="#009af9" fill-rule="evenodd" fill-opacity="0.5"/>
<polyline clip-path="url(#clip852)" style="stroke:#000000; stroke-width:4; stroke-opacity:0.5; fill:none" points="
  873.832,1228.82 873.832,1384.24 894.773,1384.24 894.773,1228.82 873.832,1228.82 
  "/>
<path clip-path="url(#clip852)" d="
M894.773 1209.13 L894.773 1384.24 L915.714 1384.24 L915.714 1209.13 L894.773 1209.13 L894.773 1209.13  Z
  " fill="#009af9" fill-rule="evenodd" fill-opacity="0.5"/>
<polyline clip-path="url(#clip852)" style="stroke:#000000; stroke-width:4; stroke-opacity:0.5; fill:none" points="
  894.773,1209.13 894.773,1384.24 915.714,1384.24 915.714,1209.13 894.773,1209.13 
  "/>
<path clip-path="url(#clip852)" d="
M915.714 1154.21 L915.714 1384.24 L936.655 1384.24 L936.655 1154.21 L915.714 1154.21 L915.714 1154.21  Z
  " fill="#009af9" fill-rule="evenodd" fill-opacity="0.5"/>
<polyline clip-path="url(#clip852)" style="stroke:#000000; stroke-width:4; stroke-opacity:0.5; fill:none" points="
  915.714,1154.21 915.714,1384.24 936.655,1384.24 936.655,1154.21 915.714,1154.21 
  "/>
<path clip-path="url(#clip852)" d="
M936.655 1108.1 L936.655 1384.24 L957.596 1384.24 L957.596 1108.1 L936.655 1108.1 L936.655 1108.1  Z
  " fill="#009af9" fill-rule="evenodd" fill-opacity="0.5"/>
<polyline clip-path="url(#clip852)" style="stroke:#000000; stroke-width:4; stroke-opacity:0.5; fill:none" points="
  936.655,1108.1 936.655,1384.24 957.596,1384.24 957.596,1108.1 936.655,1108.1 
  "/>
<path clip-path="url(#clip852)" d="
M957.596 1042.83 L957.596 1384.24 L978.537 1384.24 L978.537 1042.83 L957.596 1042.83 L957.596 1042.83  Z
  " fill="#009af9" fill-rule="evenodd" fill-opacity="0.5"/>
<polyline clip-path="url(#clip852)" style="stroke:#000000; stroke-width:4; stroke-opacity:0.5; fill:none" points="
  957.596,1042.83 957.596,1384.24 978.537,1384.24 978.537,1042.83 957.596,1042.83 
  "/>
<path clip-path="url(#clip852)" d="
M978.537 992.313 L978.537 1384.24 L999.477 1384.24 L999.477 992.313 L978.537 992.313 L978.537 992.313  Z
  " fill="#009af9" fill-rule="evenodd" fill-opacity="0.5"/>
<polyline clip-path="url(#clip852)" style="stroke:#000000; stroke-width:4; stroke-opacity:0.5; fill:none" points="
  978.537,992.313 978.537,1384.24 999.477,1384.24 999.477,992.313 978.537,992.313 
  "/>
<path clip-path="url(#clip852)" d="
M999.477 963.819 L999.477 1384.24 L1020.42 1384.24 L1020.42 963.819 L999.477 963.819 L999.477 963.819  Z
  " fill="#009af9" fill-rule="evenodd" fill-opacity="0.5"/>
<polyline clip-path="url(#clip852)" style="stroke:#000000; stroke-width:4; stroke-opacity:0.5; fill:none" points="
  999.477,963.819 999.477,1384.24 1020.42,1384.24 1020.42,963.819 999.477,963.819 
  "/>
<path clip-path="url(#clip852)" d="
M1020.42 841.034 L1020.42 1384.24 L1041.36 1384.24 L1041.36 841.034 L1020.42 841.034 L1020.42 841.034  Z
  " fill="#009af9" fill-rule="evenodd" fill-opacity="0.5"/>
<polyline clip-path="url(#clip852)" style="stroke:#000000; stroke-width:4; stroke-opacity:0.5; fill:none" points="
  1020.42,841.034 1020.42,1384.24 1041.36,1384.24 1041.36,841.034 1020.42,841.034 
  "/>
<path clip-path="url(#clip852)" d="
M1041.36 787.413 L1041.36 1384.24 L1062.3 1384.24 L1062.3 787.413 L1041.36 787.413 L1041.36 787.413  Z
  " fill="#009af9" fill-rule="evenodd" fill-opacity="0.5"/>
<polyline clip-path="url(#clip852)" style="stroke:#000000; stroke-width:4; stroke-opacity:0.5; fill:none" points="
  1041.36,787.413 1041.36,1384.24 1062.3,1384.24 1062.3,787.413 1041.36,787.413 
  "/>
<path clip-path="url(#clip852)" d="
M1062.3 716.696 L1062.3 1384.24 L1083.24 1384.24 L1083.24 716.696 L1062.3 716.696 L1062.3 716.696  Z
  " fill="#009af9" fill-rule="evenodd" fill-opacity="0.5"/>
<polyline clip-path="url(#clip852)" style="stroke:#000000; stroke-width:4; stroke-opacity:0.5; fill:none" points="
  1062.3,716.696 1062.3,1384.24 1083.24,1384.24 1083.24,716.696 1062.3,716.696 
  "/>
<path clip-path="url(#clip852)" d="
M1083.24 634.84 L1083.24 1384.24 L1104.18 1384.24 L1104.18 634.84 L1083.24 634.84 L1083.24 634.84  Z
  " fill="#009af9" fill-rule="evenodd" fill-opacity="0.5"/>
<polyline clip-path="url(#clip852)" style="stroke:#000000; stroke-width:4; stroke-opacity:0.5; fill:none" points="
  1083.24,634.84 1083.24,1384.24 1104.18,1384.24 1104.18,634.84 1083.24,634.84 
  "/>
<path clip-path="url(#clip852)" d="
M1104.18 551.947 L1104.18 1384.24 L1125.12 1384.24 L1125.12 551.947 L1104.18 551.947 L1104.18 551.947  Z
  " fill="#009af9" fill-rule="evenodd" fill-opacity="0.5"/>
<polyline clip-path="url(#clip852)" style="stroke:#000000; stroke-width:4; stroke-opacity:0.5; fill:none" points="
  1104.18,551.947 1104.18,1384.24 1125.12,1384.24 1125.12,551.947 1104.18,551.947 
  "/>
<path clip-path="url(#clip852)" d="
M1125.12 465.688 L1125.12 1384.24 L1146.06 1384.24 L1146.06 465.688 L1125.12 465.688 L1125.12 465.688  Z
  " fill="#009af9" fill-rule="evenodd" fill-opacity="0.5"/>
<polyline clip-path="url(#clip852)" style="stroke:#000000; stroke-width:4; stroke-opacity:0.5; fill:none" points="
  1125.12,465.688 1125.12,1384.24 1146.06,1384.24 1146.06,465.688 1125.12,465.688 
  "/>
<path clip-path="url(#clip852)" d="
M1146.06 393.416 L1146.06 1384.24 L1167 1384.24 L1167 393.416 L1146.06 393.416 L1146.06 393.416  Z
  " fill="#009af9" fill-rule="evenodd" fill-opacity="0.5"/>
<polyline clip-path="url(#clip852)" style="stroke:#000000; stroke-width:4; stroke-opacity:0.5; fill:none" points="
  1146.06,393.416 1146.06,1384.24 1167,1384.24 1167,393.416 1146.06,393.416 
  "/>
<path clip-path="url(#clip852)" d="
M1167 331.246 L1167 1384.24 L1187.95 1384.24 L1187.95 331.246 L1167 331.246 L1167 331.246  Z
  " fill="#009af9" fill-rule="evenodd" fill-opacity="0.5"/>
<polyline clip-path="url(#clip852)" style="stroke:#000000; stroke-width:4; stroke-opacity:0.5; fill:none" points="
  1167,331.246 1167,1384.24 1187.95,1384.24 1187.95,331.246 1167,331.246 
  "/>
<path clip-path="url(#clip852)" d="
M1187.95 251.722 L1187.95 1384.24 L1208.89 1384.24 L1208.89 251.722 L1187.95 251.722 L1187.95 251.722  Z
  " fill="#009af9" fill-rule="evenodd" fill-opacity="0.5"/>
<polyline clip-path="url(#clip852)" style="stroke:#000000; stroke-width:4; stroke-opacity:0.5; fill:none" points="
  1187.95,251.722 1187.95,1384.24 1208.89,1384.24 1208.89,251.722 1187.95,251.722 
  "/>
<path clip-path="url(#clip852)" d="
M1208.89 197.842 L1208.89 1384.24 L1229.83 1384.24 L1229.83 197.842 L1208.89 197.842 L1208.89 197.842  Z
  " fill="#009af9" fill-rule="evenodd" fill-opacity="0.5"/>
<polyline clip-path="url(#clip852)" style="stroke:#000000; stroke-width:4; stroke-opacity:0.5; fill:none" points="
  1208.89,197.842 1208.89,1384.24 1229.83,1384.24 1229.83,197.842 1208.89,197.842 
  "/>
<path clip-path="url(#clip852)" d="
M1229.83 156.914 L1229.83 1384.24 L1250.77 1384.24 L1250.77 156.914 L1229.83 156.914 L1229.83 156.914  Z
  " fill="#009af9" fill-rule="evenodd" fill-opacity="0.5"/>
<polyline clip-path="url(#clip852)" style="stroke:#000000; stroke-width:4; stroke-opacity:0.5; fill:none" points="
  1229.83,156.914 1229.83,1384.24 1250.77,1384.24 1250.77,156.914 1229.83,156.914 
  "/>
<path clip-path="url(#clip852)" d="
M1250.77 98.3708 L1250.77 1384.24 L1271.71 1384.24 L1271.71 98.3708 L1250.77 98.3708 L1250.77 98.3708  Z
  " fill="#009af9" fill-rule="evenodd" fill-opacity="0.5"/>
<polyline clip-path="url(#clip852)" style="stroke:#000000; stroke-width:4; stroke-opacity:0.5; fill:none" points="
  1250.77,98.3708 1250.77,1384.24 1271.71,1384.24 1271.71,98.3708 1250.77,98.3708 
  "/>
<path clip-path="url(#clip852)" d="
M1271.71 129.714 L1271.71 1384.24 L1292.65 1384.24 L1292.65 129.714 L1271.71 129.714 L1271.71 129.714  Z
  " fill="#009af9" fill-rule="evenodd" fill-opacity="0.5"/>
<polyline clip-path="url(#clip852)" style="stroke:#000000; stroke-width:4; stroke-opacity:0.5; fill:none" points="
  1271.71,129.714 1271.71,1384.24 1292.65,1384.24 1292.65,129.714 1271.71,129.714 
  "/>
<path clip-path="url(#clip852)" d="
M1292.65 90.0816 L1292.65 1384.24 L1313.59 1384.24 L1313.59 90.0816 L1292.65 90.0816 L1292.65 90.0816  Z
  " fill="#009af9" fill-rule="evenodd" fill-opacity="0.5"/>
<polyline clip-path="url(#clip852)" style="stroke:#000000; stroke-width:4; stroke-opacity:0.5; fill:none" points="
  1292.65,90.0816 1292.65,1384.24 1313.59,1384.24 1313.59,90.0816 1292.65,90.0816 
  "/>
<path clip-path="url(#clip852)" d="
M1313.59 93.19 L1313.59 1384.24 L1334.53 1384.24 L1334.53 93.19 L1313.59 93.19 L1313.59 93.19  Z
  " fill="#009af9" fill-rule="evenodd" fill-opacity="0.5"/>
<polyline clip-path="url(#clip852)" style="stroke:#000000; stroke-width:4; stroke-opacity:0.5; fill:none" points="
  1313.59,93.19 1313.59,1384.24 1334.53,1384.24 1334.53,93.19 1313.59,93.19 
  "/>
<path clip-path="url(#clip852)" d="
M1334.53 87.4912 L1334.53 1384.24 L1355.47 1384.24 L1355.47 87.4912 L1334.53 87.4912 L1334.53 87.4912  Z
  " fill="#009af9" fill-rule="evenodd" fill-opacity="0.5"/>
<polyline clip-path="url(#clip852)" style="stroke:#000000; stroke-width:4; stroke-opacity:0.5; fill:none" points="
  1334.53,87.4912 1334.53,1384.24 1355.47,1384.24 1355.47,87.4912 1334.53,87.4912 
  "/>
<path clip-path="url(#clip852)" d="
M1355.47 107.696 L1355.47 1384.24 L1376.41 1384.24 L1376.41 107.696 L1355.47 107.696 L1355.47 107.696  Z
  " fill="#009af9" fill-rule="evenodd" fill-opacity="0.5"/>
<polyline clip-path="url(#clip852)" style="stroke:#000000; stroke-width:4; stroke-opacity:0.5; fill:none" points="
  1355.47,107.696 1355.47,1384.24 1376.41,1384.24 1376.41,107.696 1355.47,107.696 
  "/>
<path clip-path="url(#clip852)" d="
M1376.41 177.896 L1376.41 1384.24 L1397.35 1384.24 L1397.35 177.896 L1376.41 177.896 L1376.41 177.896  Z
  " fill="#009af9" fill-rule="evenodd" fill-opacity="0.5"/>
<polyline clip-path="url(#clip852)" style="stroke:#000000; stroke-width:4; stroke-opacity:0.5; fill:none" points="
  1376.41,177.896 1376.41,1384.24 1397.35,1384.24 1397.35,177.896 1376.41,177.896 
  "/>
<path clip-path="url(#clip852)" d="
M1397.35 220.119 L1397.35 1384.24 L1418.29 1384.24 L1418.29 220.119 L1397.35 220.119 L1397.35 220.119  Z
  " fill="#009af9" fill-rule="evenodd" fill-opacity="0.5"/>
<polyline clip-path="url(#clip852)" style="stroke:#000000; stroke-width:4; stroke-opacity:0.5; fill:none" points="
  1397.35,220.119 1397.35,1384.24 1418.29,1384.24 1418.29,220.119 1397.35,220.119 
  "/>
<path clip-path="url(#clip852)" d="
M1418.29 275.035 L1418.29 1384.24 L1439.24 1384.24 L1439.24 275.035 L1418.29 275.035 L1418.29 275.035  Z
  " fill="#009af9" fill-rule="evenodd" fill-opacity="0.5"/>
<polyline clip-path="url(#clip852)" style="stroke:#000000; stroke-width:4; stroke-opacity:0.5; fill:none" points="
  1418.29,275.035 1418.29,1384.24 1439.24,1384.24 1439.24,275.035 1418.29,275.035 
  "/>
<path clip-path="url(#clip852)" d="
M1439.24 330.987 L1439.24 1384.24 L1460.18 1384.24 L1460.18 330.987 L1439.24 330.987 L1439.24 330.987  Z
  " fill="#009af9" fill-rule="evenodd" fill-opacity="0.5"/>
<polyline clip-path="url(#clip852)" style="stroke:#000000; stroke-width:4; stroke-opacity:0.5; fill:none" points="
  1439.24,330.987 1439.24,1384.24 1460.18,1384.24 1460.18,330.987 1439.24,330.987 
  "/>
<path clip-path="url(#clip852)" d="
M1460.18 417.765 L1460.18 1384.24 L1481.12 1384.24 L1481.12 417.765 L1460.18 417.765 L1460.18 417.765  Z
  " fill="#009af9" fill-rule="evenodd" fill-opacity="0.5"/>
<polyline clip-path="url(#clip852)" style="stroke:#000000; stroke-width:4; stroke-opacity:0.5; fill:none" points="
  1460.18,417.765 1460.18,1384.24 1481.12,1384.24 1481.12,417.765 1460.18,417.765 
  "/>
<path clip-path="url(#clip852)" d="
M1481.12 473.977 L1481.12 1384.24 L1502.06 1384.24 L1502.06 473.977 L1481.12 473.977 L1481.12 473.977  Z
  " fill="#009af9" fill-rule="evenodd" fill-opacity="0.5"/>
<polyline clip-path="url(#clip852)" style="stroke:#000000; stroke-width:4; stroke-opacity:0.5; fill:none" points="
  1481.12,473.977 1481.12,1384.24 1502.06,1384.24 1502.06,473.977 1481.12,473.977 
  "/>
<path clip-path="url(#clip852)" d="
M1502.06 551.688 L1502.06 1384.24 L1523 1384.24 L1523 551.688 L1502.06 551.688 L1502.06 551.688  Z
  " fill="#009af9" fill-rule="evenodd" fill-opacity="0.5"/>
<polyline clip-path="url(#clip852)" style="stroke:#000000; stroke-width:4; stroke-opacity:0.5; fill:none" points="
  1502.06,551.688 1502.06,1384.24 1523,1384.24 1523,551.688 1502.06,551.688 
  "/>
<path clip-path="url(#clip852)" d="
M1523 635.358 L1523 1384.24 L1543.94 1384.24 L1543.94 635.358 L1523 635.358 L1523 635.358  Z
  " fill="#009af9" fill-rule="evenodd" fill-opacity="0.5"/>
<polyline clip-path="url(#clip852)" style="stroke:#000000; stroke-width:4; stroke-opacity:0.5; fill:none" points="
  1523,635.358 1523,1384.24 1543.94,1384.24 1543.94,635.358 1523,635.358 
  "/>
<path clip-path="url(#clip852)" d="
M1543.94 738.714 L1543.94 1384.24 L1564.88 1384.24 L1564.88 738.714 L1543.94 738.714 L1543.94 738.714  Z
  " fill="#009af9" fill-rule="evenodd" fill-opacity="0.5"/>
<polyline clip-path="url(#clip852)" style="stroke:#000000; stroke-width:4; stroke-opacity:0.5; fill:none" points="
  1543.94,738.714 1543.94,1384.24 1564.88,1384.24 1564.88,738.714 1543.94,738.714 
  "/>
<path clip-path="url(#clip852)" d="
M1564.88 797.257 L1564.88 1384.24 L1585.82 1384.24 L1585.82 797.257 L1564.88 797.257 L1564.88 797.257  Z
  " fill="#009af9" fill-rule="evenodd" fill-opacity="0.5"/>
<polyline clip-path="url(#clip852)" style="stroke:#000000; stroke-width:4; stroke-opacity:0.5; fill:none" points="
  1564.88,797.257 1564.88,1384.24 1585.82,1384.24 1585.82,797.257 1564.88,797.257 
  "/>
<path clip-path="url(#clip852)" d="
M1585.82 879.113 L1585.82 1384.24 L1606.76 1384.24 L1606.76 879.113 L1585.82 879.113 L1585.82 879.113  Z
  " fill="#009af9" fill-rule="evenodd" fill-opacity="0.5"/>
<polyline clip-path="url(#clip852)" style="stroke:#000000; stroke-width:4; stroke-opacity:0.5; fill:none" points="
  1585.82,879.113 1585.82,1384.24 1606.76,1384.24 1606.76,879.113 1585.82,879.113 
  "/>
<path clip-path="url(#clip852)" d="
M1606.76 919.264 L1606.76 1384.24 L1627.7 1384.24 L1627.7 919.264 L1606.76 919.264 L1606.76 919.264  Z
  " fill="#009af9" fill-rule="evenodd" fill-opacity="0.5"/>
<polyline clip-path="url(#clip852)" style="stroke:#000000; stroke-width:4; stroke-opacity:0.5; fill:none" points="
  1606.76,919.264 1606.76,1384.24 1627.7,1384.24 1627.7,919.264 1606.76,919.264 
  "/>
<path clip-path="url(#clip852)" d="
M1627.7 995.68 L1627.7 1384.24 L1648.64 1384.24 L1648.64 995.68 L1627.7 995.68 L1627.7 995.68  Z
  " fill="#009af9" fill-rule="evenodd" fill-opacity="0.5"/>
<polyline clip-path="url(#clip852)" style="stroke:#000000; stroke-width:4; stroke-opacity:0.5; fill:none" points="
  1627.7,995.68 1627.7,1384.24 1648.64,1384.24 1648.64,995.68 1627.7,995.68 
  "/>
<path clip-path="url(#clip852)" d="
M1648.64 1059.66 L1648.64 1384.24 L1669.59 1384.24 L1669.59 1059.66 L1648.64 1059.66 L1648.64 1059.66  Z
  " fill="#009af9" fill-rule="evenodd" fill-opacity="0.5"/>
<polyline clip-path="url(#clip852)" style="stroke:#000000; stroke-width:4; stroke-opacity:0.5; fill:none" points="
  1648.64,1059.66 1648.64,1384.24 1669.59,1384.24 1669.59,1059.66 1648.64,1059.66 
  "/>
<path clip-path="url(#clip852)" d="
M1669.59 1092.82 L1669.59 1384.24 L1690.53 1384.24 L1690.53 1092.82 L1669.59 1092.82 L1669.59 1092.82  Z
  " fill="#009af9" fill-rule="evenodd" fill-opacity="0.5"/>
<polyline clip-path="url(#clip852)" style="stroke:#000000; stroke-width:4; stroke-opacity:0.5; fill:none" points="
  1669.59,1092.82 1669.59,1384.24 1690.53,1384.24 1690.53,1092.82 1669.59,1092.82 
  "/>
<path clip-path="url(#clip852)" d="
M1690.53 1150.84 L1690.53 1384.24 L1711.47 1384.24 L1711.47 1150.84 L1690.53 1150.84 L1690.53 1150.84  Z
  " fill="#009af9" fill-rule="evenodd" fill-opacity="0.5"/>
<polyline clip-path="url(#clip852)" style="stroke:#000000; stroke-width:4; stroke-opacity:0.5; fill:none" points="
  1690.53,1150.84 1690.53,1384.24 1711.47,1384.24 1711.47,1150.84 1690.53,1150.84 
  "/>
<path clip-path="url(#clip852)" d="
M1711.47 1177.01 L1711.47 1384.24 L1732.41 1384.24 L1732.41 1177.01 L1711.47 1177.01 L1711.47 1177.01  Z
  " fill="#009af9" fill-rule="evenodd" fill-opacity="0.5"/>
<polyline clip-path="url(#clip852)" style="stroke:#000000; stroke-width:4; stroke-opacity:0.5; fill:none" points="
  1711.47,1177.01 1711.47,1384.24 1732.41,1384.24 1732.41,1177.01 1711.47,1177.01 
  "/>
<path clip-path="url(#clip852)" d="
M1732.41 1234.51 L1732.41 1384.24 L1753.35 1384.24 L1753.35 1234.51 L1732.41 1234.51 L1732.41 1234.51  Z
  " fill="#009af9" fill-rule="evenodd" fill-opacity="0.5"/>
<polyline clip-path="url(#clip852)" style="stroke:#000000; stroke-width:4; stroke-opacity:0.5; fill:none" points="
  1732.41,1234.51 1732.41,1384.24 1753.35,1384.24 1753.35,1234.51 1732.41,1234.51 
  "/>
<path clip-path="url(#clip852)" d="
M1753.35 1250.83 L1753.35 1384.24 L1774.29 1384.24 L1774.29 1250.83 L1753.35 1250.83 L1753.35 1250.83  Z
  " fill="#009af9" fill-rule="evenodd" fill-opacity="0.5"/>
<polyline clip-path="url(#clip852)" style="stroke:#000000; stroke-width:4; stroke-opacity:0.5; fill:none" points="
  1753.35,1250.83 1753.35,1384.24 1774.29,1384.24 1774.29,1250.83 1753.35,1250.83 
  "/>
<path clip-path="url(#clip852)" d="
M1774.29 1272.59 L1774.29 1384.24 L1795.23 1384.24 L1795.23 1272.59 L1774.29 1272.59 L1774.29 1272.59  Z
  " fill="#009af9" fill-rule="evenodd" fill-opacity="0.5"/>
<polyline clip-path="url(#clip852)" style="stroke:#000000; stroke-width:4; stroke-opacity:0.5; fill:none" points="
  1774.29,1272.59 1774.29,1384.24 1795.23,1384.24 1795.23,1272.59 1774.29,1272.59 
  "/>
<path clip-path="url(#clip852)" d="
M1795.23 1306.53 L1795.23 1384.24 L1816.17 1384.24 L1816.17 1306.53 L1795.23 1306.53 L1795.23 1306.53  Z
  " fill="#009af9" fill-rule="evenodd" fill-opacity="0.5"/>
<polyline clip-path="url(#clip852)" style="stroke:#000000; stroke-width:4; stroke-opacity:0.5; fill:none" points="
  1795.23,1306.53 1795.23,1384.24 1816.17,1384.24 1816.17,1306.53 1795.23,1306.53 
  "/>
<path clip-path="url(#clip852)" d="
M1816.17 1317.41 L1816.17 1384.24 L1837.11 1384.24 L1837.11 1317.41 L1816.17 1317.41 L1816.17 1317.41  Z
  " fill="#009af9" fill-rule="evenodd" fill-opacity="0.5"/>
<polyline clip-path="url(#clip852)" style="stroke:#000000; stroke-width:4; stroke-opacity:0.5; fill:none" points="
  1816.17,1317.41 1816.17,1384.24 1837.11,1384.24 1837.11,1317.41 1816.17,1317.41 
  "/>
<path clip-path="url(#clip852)" d="
M1837.11 1331.39 L1837.11 1384.24 L1858.05 1384.24 L1858.05 1331.39 L1837.11 1331.39 L1837.11 1331.39  Z
  " fill="#009af9" fill-rule="evenodd" fill-opacity="0.5"/>
<polyline clip-path="url(#clip852)" style="stroke:#000000; stroke-width:4; stroke-opacity:0.5; fill:none" points="
  1837.11,1331.39 1837.11,1384.24 1858.05,1384.24 1858.05,1331.39 1837.11,1331.39 
  "/>
<path clip-path="url(#clip852)" d="
M1858.05 1348.75 L1858.05 1384.24 L1878.99 1384.24 L1878.99 1348.75 L1858.05 1348.75 L1858.05 1348.75  Z
  " fill="#009af9" fill-rule="evenodd" fill-opacity="0.5"/>
<polyline clip-path="url(#clip852)" style="stroke:#000000; stroke-width:4; stroke-opacity:0.5; fill:none" points="
  1858.05,1348.75 1858.05,1384.24 1878.99,1384.24 1878.99,1348.75 1858.05,1348.75 
  "/>
<path clip-path="url(#clip852)" d="
M1878.99 1357.04 L1878.99 1384.24 L1899.93 1384.24 L1899.93 1357.04 L1878.99 1357.04 L1878.99 1357.04  Z
  " fill="#009af9" fill-rule="evenodd" fill-opacity="0.5"/>
<polyline clip-path="url(#clip852)" style="stroke:#000000; stroke-width:4; stroke-opacity:0.5; fill:none" points="
  1878.99,1357.04 1878.99,1384.24 1899.93,1384.24 1899.93,1357.04 1878.99,1357.04 
  "/>
<path clip-path="url(#clip852)" d="
M1899.93 1357.82 L1899.93 1384.24 L1920.88 1384.24 L1920.88 1357.82 L1899.93 1357.82 L1899.93 1357.82  Z
  " fill="#009af9" fill-rule="evenodd" fill-opacity="0.5"/>
<polyline clip-path="url(#clip852)" style="stroke:#000000; stroke-width:4; stroke-opacity:0.5; fill:none" points="
  1899.93,1357.82 1899.93,1384.24 1920.88,1384.24 1920.88,1357.82 1899.93,1357.82 
  "/>
<path clip-path="url(#clip852)" d="
M1920.88 1369.21 L1920.88 1384.24 L1941.82 1384.24 L1941.82 1369.21 L1920.88 1369.21 L1920.88 1369.21  Z
  " fill="#009af9" fill-rule="evenodd" fill-opacity="0.5"/>
<polyline clip-path="url(#clip852)" style="stroke:#000000; stroke-width:4; stroke-opacity:0.5; fill:none" points="
  1920.88,1369.21 1920.88,1384.24 1941.82,1384.24 1941.82,1369.21 1920.88,1369.21 
  "/>
<path clip-path="url(#clip852)" d="
M1941.82 1371.8 L1941.82 1384.24 L1962.76 1384.24 L1962.76 1371.8 L1941.82 1371.8 L1941.82 1371.8  Z
  " fill="#009af9" fill-rule="evenodd" fill-opacity="0.5"/>
<polyline clip-path="url(#clip852)" style="stroke:#000000; stroke-width:4; stroke-opacity:0.5; fill:none" points="
  1941.82,1371.8 1941.82,1384.24 1962.76,1384.24 1962.76,1371.8 1941.82,1371.8 
  "/>
<path clip-path="url(#clip852)" d="
M1962.76 1375.17 L1962.76 1384.24 L1983.7 1384.24 L1983.7 1375.17 L1962.76 1375.17 L1962.76 1375.17  Z
  " fill="#009af9" fill-rule="evenodd" fill-opacity="0.5"/>
<polyline clip-path="url(#clip852)" style="stroke:#000000; stroke-width:4; stroke-opacity:0.5; fill:none" points="
  1962.76,1375.17 1962.76,1384.24 1983.7,1384.24 1983.7,1375.17 1962.76,1375.17 
  "/>
<path clip-path="url(#clip852)" d="
M1983.7 1378.02 L1983.7 1384.24 L2004.64 1384.24 L2004.64 1378.02 L1983.7 1378.02 L1983.7 1378.02  Z
  " fill="#009af9" fill-rule="evenodd" fill-opacity="0.5"/>
<polyline clip-path="url(#clip852)" style="stroke:#000000; stroke-width:4; stroke-opacity:0.5; fill:none" points="
  1983.7,1378.02 1983.7,1384.24 2004.64,1384.24 2004.64,1378.02 1983.7,1378.02 
  "/>
<path clip-path="url(#clip852)" d="
M2004.64 1381.39 L2004.64 1384.24 L2025.58 1384.24 L2025.58 1381.39 L2004.64 1381.39 L2004.64 1381.39  Z
  " fill="#009af9" fill-rule="evenodd" fill-opacity="0.5"/>
<polyline clip-path="url(#clip852)" style="stroke:#000000; stroke-width:4; stroke-opacity:0.5; fill:none" points="
  2004.64,1381.39 2004.64,1384.24 2025.58,1384.24 2025.58,1381.39 2004.64,1381.39 
  "/>
<path clip-path="url(#clip852)" d="
M2025.58 1380.35 L2025.58 1384.24 L2046.52 1384.24 L2046.52 1380.35 L2025.58 1380.35 L2025.58 1380.35  Z
  " fill="#009af9" fill-rule="evenodd" fill-opacity="0.5"/>
<polyline clip-path="url(#clip852)" style="stroke:#000000; stroke-width:4; stroke-opacity:0.5; fill:none" points="
  2025.58,1380.35 2025.58,1384.24 2046.52,1384.24 2046.52,1380.35 2025.58,1380.35 
  "/>
<path clip-path="url(#clip852)" d="
M2046.52 1381.91 L2046.52 1384.24 L2067.46 1384.24 L2067.46 1381.91 L2046.52 1381.91 L2046.52 1381.91  Z
  " fill="#009af9" fill-rule="evenodd" fill-opacity="0.5"/>
<polyline clip-path="url(#clip852)" style="stroke:#000000; stroke-width:4; stroke-opacity:0.5; fill:none" points="
  2046.52,1381.91 2046.52,1384.24 2067.46,1384.24 2067.46,1381.91 2046.52,1381.91 
  "/>
<path clip-path="url(#clip852)" d="
M2067.46 1382.94 L2067.46 1384.24 L2088.4 1384.24 L2088.4 1382.94 L2067.46 1382.94 L2067.46 1382.94  Z
  " fill="#009af9" fill-rule="evenodd" fill-opacity="0.5"/>
<polyline clip-path="url(#clip852)" style="stroke:#000000; stroke-width:4; stroke-opacity:0.5; fill:none" points="
  2067.46,1382.94 2067.46,1384.24 2088.4,1384.24 2088.4,1382.94 2067.46,1382.94 
  "/>
<path clip-path="url(#clip852)" d="
M2088.4 1383.2 L2088.4 1384.24 L2109.34 1384.24 L2109.34 1383.2 L2088.4 1383.2 L2088.4 1383.2  Z
  " fill="#009af9" fill-rule="evenodd" fill-opacity="0.5"/>
<polyline clip-path="url(#clip852)" style="stroke:#000000; stroke-width:4; stroke-opacity:0.5; fill:none" points="
  2088.4,1383.2 2088.4,1384.24 2109.34,1384.24 2109.34,1383.2 2088.4,1383.2 
  "/>
<path clip-path="url(#clip852)" d="
M2109.34 1382.94 L2109.34 1384.24 L2130.28 1384.24 L2130.28 1382.94 L2109.34 1382.94 L2109.34 1382.94  Z
  " fill="#009af9" fill-rule="evenodd" fill-opacity="0.5"/>
<polyline clip-path="url(#clip852)" style="stroke:#000000; stroke-width:4; stroke-opacity:0.5; fill:none" points="
  2109.34,1382.94 2109.34,1384.24 2130.28,1384.24 2130.28,1382.94 2109.34,1382.94 
  "/>
<path clip-path="url(#clip852)" d="
M2130.28 1383.98 L2130.28 1384.24 L2151.23 1384.24 L2151.23 1383.98 L2130.28 1383.98 L2130.28 1383.98  Z
  " fill="#009af9" fill-rule="evenodd" fill-opacity="0.5"/>
<polyline clip-path="url(#clip852)" style="stroke:#000000; stroke-width:4; stroke-opacity:0.5; fill:none" points="
  2130.28,1383.98 2130.28,1384.24 2151.23,1384.24 2151.23,1383.98 2130.28,1383.98 
  "/>
<path clip-path="url(#clip852)" d="
M2151.23 1384.24 L2151.23 1384.24 L2172.17 1384.24 L2172.17 1384.24 L2151.23 1384.24 L2151.23 1384.24  Z
  " fill="#009af9" fill-rule="evenodd" fill-opacity="0.5"/>
<polyline clip-path="url(#clip852)" style="stroke:#000000; stroke-width:4; stroke-opacity:0.5; fill:none" points="
  2151.23,1384.24 2151.23,1384.24 2172.17,1384.24 2151.23,1384.24 
  "/>
<path clip-path="url(#clip852)" d="
M2172.17 1384.24 L2172.17 1384.24 L2193.11 1384.24 L2193.11 1384.24 L2172.17 1384.24 L2172.17 1384.24  Z
  " fill="#009af9" fill-rule="evenodd" fill-opacity="0.5"/>
<polyline clip-path="url(#clip852)" style="stroke:#000000; stroke-width:4; stroke-opacity:0.5; fill:none" points="
  2172.17,1384.24 2172.17,1384.24 2193.11,1384.24 2172.17,1384.24 
  "/>
<path clip-path="url(#clip852)" d="
M2193.11 1384.24 L2193.11 1384.24 L2214.05 1384.24 L2214.05 1384.24 L2193.11 1384.24 L2193.11 1384.24  Z
  " fill="#009af9" fill-rule="evenodd" fill-opacity="0.5"/>
<polyline clip-path="url(#clip852)" style="stroke:#000000; stroke-width:4; stroke-opacity:0.5; fill:none" points="
  2193.11,1384.24 2193.11,1384.24 2214.05,1384.24 2193.11,1384.24 
  "/>
<path clip-path="url(#clip852)" d="
M2214.05 1383.72 L2214.05 1384.24 L2234.99 1384.24 L2234.99 1383.72 L2214.05 1383.72 L2214.05 1383.72  Z
  " fill="#009af9" fill-rule="evenodd" fill-opacity="0.5"/>
<polyline clip-path="url(#clip852)" style="stroke:#000000; stroke-width:4; stroke-opacity:0.5; fill:none" points="
  2214.05,1383.72 2214.05,1384.24 2234.99,1384.24 2234.99,1383.72 2214.05,1383.72 
  "/>
<polyline clip-path="url(#clip852)" style="stroke:#000000; stroke-width:16; stroke-opacity:1; fill:none" points="
  345.504,1384.21 364.529,1384.19 383.554,1384.17 402.579,1384.14 421.604,1384.09 440.629,1384.02 459.654,1383.92 478.679,1383.78 497.704,1383.58 516.729,1383.31 
  535.754,1382.93 554.779,1382.41 573.804,1381.71 592.829,1380.76 611.854,1379.51 630.879,1377.85 649.904,1375.68 668.929,1372.88 687.954,1369.27 706.979,1364.69 
  726.004,1358.91 745.029,1351.69 764.054,1342.75 783.079,1331.8 802.104,1318.5 821.129,1302.5 840.154,1283.45 859.179,1260.98 878.204,1234.74 897.229,1204.4 
  916.254,1169.68 935.279,1130.37 954.304,1086.32 973.329,1037.5 992.354,983.996 1011.38,926.036 1030.4,863.995 1049.43,798.409 1068.45,729.977 1087.48,659.557 
  1106.5,588.156 1125.53,516.909 1144.55,447.053 1163.58,379.894 1182.6,316.77 1201.63,259.004 1220.65,207.863 1239.68,164.506 1258.7,129.947 1277.73,105.011 
  1296.75,90.3038 1315.78,86.1857 1334.8,92.7583 1353.83,109.86 1372.85,137.071 1391.88,173.735 1410.9,218.978 1429.93,271.75 1448.95,330.863 1467.98,395.034 
  1487,462.931 1506.03,533.222 1525.05,604.611 1544.08,675.882 1563.1,745.928 1582.13,813.776 1601.15,878.603 1620.18,939.747 1639.2,996.709 1658.23,1049.15 
  1677.25,1096.87 1696.28,1139.83 1715.3,1178.07 1734.33,1211.76 1753.35,1241.13 1772.38,1266.47 1791.4,1288.12 1810.43,1306.44 1829.45,1321.78 1848.48,1334.51 
  1867.5,1344.97 1886.53,1353.49 1905.55,1360.35 1924.58,1365.84 1943.6,1370.18 1962.63,1373.59 1981.65,1376.23 2000.68,1378.27 2019.7,1379.83 2038.73,1381.01 
  2057.75,1381.89 2076.78,1382.54 2095.8,1383.03 2114.83,1383.38 2133.85,1383.63 2152.88,1383.82 2171.9,1383.95 2190.93,1384.04 2209.95,1384.1 2228.98,1384.15 
  
  "/>
<path clip-path="url(#clip850)" d="
M1694.87 274.549 L2281.38 274.549 L2281.38 93.1086 L1694.87 93.1086  Z
  " fill="#ffffff" fill-rule="evenodd" fill-opacity="1"/>
<polyline clip-path="url(#clip850)" style="stroke:#000000; stroke-width:4; stroke-opacity:1; fill:none" points="
  1694.87,274.549 2281.38,274.549 2281.38,93.1086 1694.87,93.1086 1694.87,274.549 
  "/>
<path clip-path="url(#clip850)" d="
M1718.66 177.781 L1861.4 177.781 L1861.4 129.397 L1718.66 129.397 L1718.66 177.781  Z
  " fill="#009af9" fill-rule="evenodd" fill-opacity="0.5"/>
<polyline clip-path="url(#clip850)" style="stroke:#000000; stroke-width:4; stroke-opacity:1; fill:none" points="
  1718.66,177.781 1861.4,177.781 1861.4,129.397 1718.66,129.397 1718.66,177.781 
  "/>
<path clip-path="url(#clip850)" d="M 0 0 M1907.44 137.443 L1907.44 142.003 Q1904.78 140.73 1902.42 140.105 Q1900.05 139.48 1897.86 139.48 Q1894.04 139.48 1891.95 140.961 Q1889.89 142.443 1889.89 145.174 Q1889.89 147.466 1891.26 148.647 Q1892.65 149.804 1896.49 150.522 L1899.31 151.1 Q1904.55 152.096 1907.02 154.619 Q1909.52 157.119 1909.52 161.332 Q1909.52 166.355 1906.14 168.947 Q1902.79 171.54 1896.28 171.54 Q1893.83 171.54 1891.05 170.984 Q1888.3 170.429 1885.33 169.341 L1885.33 164.526 Q1888.18 166.123 1890.91 166.933 Q1893.64 167.744 1896.28 167.744 Q1900.29 167.744 1902.46 166.17 Q1904.64 164.596 1904.64 161.679 Q1904.64 159.133 1903.06 157.697 Q1901.51 156.262 1897.95 155.545 L1895.1 154.989 Q1889.87 153.947 1887.53 151.725 Q1885.19 149.503 1885.19 145.545 Q1885.19 140.961 1888.41 138.322 Q1891.65 135.684 1897.32 135.684 Q1899.75 135.684 1902.28 136.123 Q1904.8 136.563 1907.44 137.443 Z" fill="#000000" fill-rule="evenodd" fill-opacity="1" /><path clip-path="url(#clip850)" d="M 0 0 M1925.77 157.836 Q1920.61 157.836 1918.62 159.017 Q1916.63 160.197 1916.63 163.045 Q1916.63 165.313 1918.11 166.656 Q1919.61 167.975 1922.18 167.975 Q1925.73 167.975 1927.86 165.475 Q1930.01 162.952 1930.01 158.785 L1930.01 157.836 L1925.77 157.836 M1934.27 156.077 L1934.27 170.869 L1930.01 170.869 L1930.01 166.933 Q1928.55 169.295 1926.37 170.429 Q1924.2 171.54 1921.05 171.54 Q1917.07 171.54 1914.71 169.318 Q1912.37 167.072 1912.37 163.322 Q1912.37 158.947 1915.29 156.725 Q1918.23 154.503 1924.04 154.503 L1930.01 154.503 L1930.01 154.086 Q1930.01 151.147 1928.06 149.549 Q1926.14 147.929 1922.65 147.929 Q1920.42 147.929 1918.32 148.461 Q1916.21 148.994 1914.27 150.059 L1914.27 146.123 Q1916.61 145.221 1918.8 144.781 Q1921 144.318 1923.09 144.318 Q1928.71 144.318 1931.49 147.234 Q1934.27 150.151 1934.27 156.077 Z" fill="#000000" fill-rule="evenodd" fill-opacity="1" /><path clip-path="url(#clip850)" d="M 0 0 M1958.92 149.92 Q1960.52 147.049 1962.74 145.684 Q1964.96 144.318 1967.97 144.318 Q1972.02 144.318 1974.22 147.165 Q1976.42 149.989 1976.42 155.221 L1976.42 170.869 L1972.14 170.869 L1972.14 155.359 Q1972.14 151.633 1970.82 149.827 Q1969.5 148.022 1966.79 148.022 Q1963.48 148.022 1961.56 150.221 Q1959.64 152.42 1959.64 156.216 L1959.64 170.869 L1955.36 170.869 L1955.36 155.359 Q1955.36 151.609 1954.04 149.827 Q1952.72 148.022 1949.96 148.022 Q1946.7 148.022 1944.78 150.244 Q1942.86 152.443 1942.86 156.216 L1942.86 170.869 L1938.57 170.869 L1938.57 144.943 L1942.86 144.943 L1942.86 148.971 Q1944.31 146.586 1946.35 145.452 Q1948.39 144.318 1951.19 144.318 Q1954.01 144.318 1955.98 145.753 Q1957.97 147.188 1958.92 149.92 Z" fill="#000000" fill-rule="evenodd" fill-opacity="1" /><path clip-path="url(#clip850)" d="M 0 0 M1985.01 166.98 L1985.01 180.73 L1980.73 180.73 L1980.73 144.943 L1985.01 144.943 L1985.01 148.878 Q1986.35 146.563 1988.39 145.452 Q1990.45 144.318 1993.29 144.318 Q1998.02 144.318 2000.96 148.068 Q2003.92 151.818 2003.92 157.929 Q2003.92 164.04 2000.96 167.79 Q1998.02 171.54 1993.29 171.54 Q1990.45 171.54 1988.39 170.429 Q1986.35 169.295 1985.01 166.98 M1999.5 157.929 Q1999.5 153.23 1997.55 150.568 Q1995.63 147.883 1992.25 147.883 Q1988.87 147.883 1986.93 150.568 Q1985.01 153.23 1985.01 157.929 Q1985.01 162.628 1986.93 165.313 Q1988.87 167.975 1992.25 167.975 Q1995.63 167.975 1997.55 165.313 Q1999.5 162.628 1999.5 157.929 Z" fill="#000000" fill-rule="evenodd" fill-opacity="1" /><path clip-path="url(#clip850)" d="M 0 0 M2008.39 134.85 L2012.65 134.85 L2012.65 170.869 L2008.39 170.869 L2008.39 134.85 Z" fill="#000000" fill-rule="evenodd" fill-opacity="1" /><path clip-path="url(#clip850)" d="M 0 0 M2039.29 156.841 L2039.29 158.924 L2019.71 158.924 Q2019.98 163.322 2022.35 165.637 Q2024.73 167.929 2028.97 167.929 Q2031.42 167.929 2033.71 167.327 Q2036.03 166.725 2038.29 165.521 L2038.29 169.549 Q2036 170.521 2033.6 171.031 Q2031.19 171.54 2028.71 171.54 Q2022.51 171.54 2018.87 167.929 Q2015.26 164.318 2015.26 158.16 Q2015.26 151.795 2018.69 148.068 Q2022.14 144.318 2027.97 144.318 Q2033.2 144.318 2036.23 147.697 Q2039.29 151.054 2039.29 156.841 M2035.03 155.591 Q2034.98 152.096 2033.06 150.012 Q2031.17 147.929 2028.02 147.929 Q2024.45 147.929 2022.3 149.943 Q2020.17 151.957 2019.85 155.614 L2035.03 155.591 Z" fill="#000000" fill-rule="evenodd" fill-opacity="1" /><path clip-path="url(#clip850)" d="M 0 0 M2060.82 148.878 L2060.82 134.85 L2065.08 134.85 L2065.08 170.869 L2060.82 170.869 L2060.82 166.98 Q2059.48 169.295 2057.41 170.429 Q2055.38 171.54 2052.51 171.54 Q2047.81 171.54 2044.85 167.79 Q2041.91 164.04 2041.91 157.929 Q2041.91 151.818 2044.85 148.068 Q2047.81 144.318 2052.51 144.318 Q2055.38 144.318 2057.41 145.452 Q2059.48 146.563 2060.82 148.878 M2046.3 157.929 Q2046.3 162.628 2048.23 165.313 Q2050.17 167.975 2053.55 167.975 Q2056.93 167.975 2058.87 165.313 Q2060.82 162.628 2060.82 157.929 Q2060.82 153.23 2058.87 150.568 Q2056.93 147.883 2053.55 147.883 Q2050.17 147.883 2048.23 150.568 Q2046.3 153.23 2046.3 157.929 Z" fill="#000000" fill-rule="evenodd" fill-opacity="1" /><path clip-path="url(#clip850)" d="M 0 0 M2101.67 148.878 L2101.67 134.85 L2105.93 134.85 L2105.93 170.869 L2101.67 170.869 L2101.67 166.98 Q2100.33 169.295 2098.27 170.429 Q2096.23 171.54 2093.36 171.54 Q2088.66 171.54 2085.7 167.79 Q2082.76 164.04 2082.76 157.929 Q2082.76 151.818 2085.7 148.068 Q2088.66 144.318 2093.36 144.318 Q2096.23 144.318 2098.27 145.452 Q2100.33 146.563 2101.67 148.878 M2087.16 157.929 Q2087.16 162.628 2089.08 165.313 Q2091.03 167.975 2094.41 167.975 Q2097.79 167.975 2099.73 165.313 Q2101.67 162.628 2101.67 157.929 Q2101.67 153.23 2099.73 150.568 Q2097.79 147.883 2094.41 147.883 Q2091.03 147.883 2089.08 150.568 Q2087.16 153.23 2087.16 157.929 Z" fill="#000000" fill-rule="evenodd" fill-opacity="1" /><path clip-path="url(#clip850)" d="M 0 0 M2132.58 156.841 L2132.58 158.924 L2112.99 158.924 Q2113.27 163.322 2115.63 165.637 Q2118.02 167.929 2122.25 167.929 Q2124.71 167.929 2127 167.327 Q2129.31 166.725 2131.58 165.521 L2131.58 169.549 Q2129.29 170.521 2126.88 171.031 Q2124.47 171.54 2122 171.54 Q2115.79 171.54 2112.16 167.929 Q2108.55 164.318 2108.55 158.16 Q2108.55 151.795 2111.97 148.068 Q2115.42 144.318 2121.26 144.318 Q2126.49 144.318 2129.52 147.697 Q2132.58 151.054 2132.58 156.841 M2128.32 155.591 Q2128.27 152.096 2126.35 150.012 Q2124.45 147.929 2121.3 147.929 Q2117.74 147.929 2115.59 149.943 Q2113.46 151.957 2113.13 155.614 L2128.32 155.591 Z" fill="#000000" fill-rule="evenodd" fill-opacity="1" /><path clip-path="url(#clip850)" d="M 0 0 M2158.6 155.221 L2158.6 170.869 L2154.34 170.869 L2154.34 155.359 Q2154.34 151.679 2152.9 149.85 Q2151.47 148.022 2148.6 148.022 Q2145.15 148.022 2143.16 150.221 Q2141.16 152.42 2141.16 156.216 L2141.16 170.869 L2136.88 170.869 L2136.88 144.943 L2141.16 144.943 L2141.16 148.971 Q2142.69 146.633 2144.75 145.475 Q2146.84 144.318 2149.54 144.318 Q2154.01 144.318 2156.3 147.096 Q2158.6 149.85 2158.6 155.221 Z" fill="#000000" fill-rule="evenodd" fill-opacity="1" /><path clip-path="url(#clip850)" d="M 0 0 M2179.59 145.707 L2179.59 149.734 Q2177.78 148.809 2175.84 148.346 Q2173.9 147.883 2171.81 147.883 Q2168.64 147.883 2167.04 148.855 Q2165.47 149.827 2165.47 151.771 Q2165.47 153.253 2166.6 154.109 Q2167.74 154.943 2171.16 155.707 L2172.62 156.031 Q2177.16 157.003 2179.06 158.785 Q2180.98 160.545 2180.98 163.716 Q2180.98 167.327 2178.11 169.433 Q2175.26 171.54 2170.26 171.54 Q2168.18 171.54 2165.91 171.123 Q2163.66 170.73 2161.16 169.92 L2161.16 165.521 Q2163.53 166.748 2165.82 167.373 Q2168.11 167.975 2170.35 167.975 Q2173.36 167.975 2174.98 166.957 Q2176.6 165.915 2176.6 164.04 Q2176.6 162.304 2175.42 161.378 Q2174.27 160.452 2170.31 159.596 L2168.83 159.248 Q2164.87 158.415 2163.11 156.702 Q2161.35 154.966 2161.35 151.957 Q2161.35 148.299 2163.94 146.309 Q2166.53 144.318 2171.3 144.318 Q2173.66 144.318 2175.75 144.665 Q2177.83 145.012 2179.59 145.707 Z" fill="#000000" fill-rule="evenodd" fill-opacity="1" /><path clip-path="url(#clip850)" d="M 0 0 M2185.45 144.943 L2189.71 144.943 L2189.71 170.869 L2185.45 170.869 L2185.45 144.943 M2185.45 134.85 L2189.71 134.85 L2189.71 140.244 L2185.45 140.244 L2185.45 134.85 Z" fill="#000000" fill-rule="evenodd" fill-opacity="1" /><path clip-path="url(#clip850)" d="M 0 0 M2198.39 137.582 L2198.39 144.943 L2207.16 144.943 L2207.16 148.253 L2198.39 148.253 L2198.39 162.327 Q2198.39 165.498 2199.24 166.401 Q2200.12 167.304 2202.78 167.304 L2207.16 167.304 L2207.16 170.869 L2202.78 170.869 Q2197.85 170.869 2195.98 169.04 Q2194.1 167.188 2194.1 162.327 L2194.1 148.253 L2190.98 148.253 L2190.98 144.943 L2194.1 144.943 L2194.1 137.582 L2198.39 137.582 Z" fill="#000000" fill-rule="evenodd" fill-opacity="1" /><path clip-path="url(#clip850)" d="M 0 0 M2222.41 173.276 Q2220.61 177.906 2218.9 179.318 Q2217.18 180.73 2214.31 180.73 L2210.91 180.73 L2210.91 177.165 L2213.41 177.165 Q2215.17 177.165 2216.14 176.332 Q2217.11 175.498 2218.29 172.396 L2219.06 170.452 L2208.57 144.943 L2213.09 144.943 L2221.19 165.221 L2229.29 144.943 L2233.8 144.943 L2222.41 173.276 Z" fill="#000000" fill-rule="evenodd" fill-opacity="1" /><polyline clip-path="url(#clip850)" style="stroke:#000000; stroke-width:4; stroke-opacity:1; fill:none" points="
  1718.66,214.069 1861.4,214.069 
  "/>
<path clip-path="url(#clip850)" d="M 0 0 M1885.19 196.789 L1914.43 196.789 L1914.43 200.724 L1902.16 200.724 L1902.16 231.349 L1897.46 231.349 L1897.46 200.724 L1885.19 200.724 L1885.19 196.789 Z" fill="#000000" fill-rule="evenodd" fill-opacity="1" /><path clip-path="url(#clip850)" d="M 0 0 M1926.95 209.404 Q1926.24 208.988 1925.38 208.802 Q1924.55 208.594 1923.53 208.594 Q1919.92 208.594 1917.97 210.955 Q1916.05 213.293 1916.05 217.691 L1916.05 231.349 L1911.77 231.349 L1911.77 205.423 L1916.05 205.423 L1916.05 209.451 Q1917.39 207.089 1919.55 205.955 Q1921.7 204.798 1924.78 204.798 Q1925.22 204.798 1925.75 204.867 Q1926.28 204.914 1926.93 205.029 L1926.95 209.404 Z" fill="#000000" fill-rule="evenodd" fill-opacity="1" /><path clip-path="url(#clip850)" d="M 0 0 M1930.98 221.117 L1930.98 205.423 L1935.24 205.423 L1935.24 220.955 Q1935.24 224.636 1936.67 226.488 Q1938.11 228.316 1940.98 228.316 Q1944.43 228.316 1946.42 226.117 Q1948.43 223.918 1948.43 220.122 L1948.43 205.423 L1952.69 205.423 L1952.69 231.349 L1948.43 231.349 L1948.43 227.367 Q1946.88 229.728 1944.82 230.886 Q1942.79 232.02 1940.08 232.02 Q1935.61 232.02 1933.3 229.242 Q1930.98 226.464 1930.98 221.117 M1941.7 204.798 L1941.7 204.798 Z" fill="#000000" fill-rule="evenodd" fill-opacity="1" /><path clip-path="url(#clip850)" d="M 0 0 M1979.34 217.321 L1979.34 219.404 L1959.75 219.404 Q1960.03 223.802 1962.39 226.117 Q1964.78 228.409 1969.01 228.409 Q1971.47 228.409 1973.76 227.807 Q1976.07 227.205 1978.34 226.001 L1978.34 230.029 Q1976.05 231.001 1973.64 231.511 Q1971.23 232.02 1968.76 232.02 Q1962.55 232.02 1958.92 228.409 Q1955.31 224.798 1955.31 218.64 Q1955.31 212.275 1958.73 208.548 Q1962.18 204.798 1968.02 204.798 Q1973.25 204.798 1976.28 208.177 Q1979.34 211.534 1979.34 217.321 M1975.08 216.071 Q1975.03 212.576 1973.11 210.492 Q1971.21 208.409 1968.06 208.409 Q1964.5 208.409 1962.35 210.423 Q1960.22 212.437 1959.89 216.094 L1975.08 216.071 Z" fill="#000000" fill-rule="evenodd" fill-opacity="1" /><path clip-path="url(#clip850)" d="M 0 0 M2015.93 209.358 L2015.93 195.33 L2020.19 195.33 L2020.19 231.349 L2015.93 231.349 L2015.93 227.46 Q2014.59 229.775 2012.53 230.909 Q2010.49 232.02 2007.62 232.02 Q2002.92 232.02 1999.96 228.27 Q1997.02 224.52 1997.02 218.409 Q1997.02 212.298 1999.96 208.548 Q2002.92 204.798 2007.62 204.798 Q2010.49 204.798 2012.53 205.932 Q2014.59 207.043 2015.93 209.358 M2001.42 218.409 Q2001.42 223.108 2003.34 225.793 Q2005.29 228.455 2008.67 228.455 Q2012.04 228.455 2013.99 225.793 Q2015.93 223.108 2015.93 218.409 Q2015.93 213.71 2013.99 211.048 Q2012.04 208.363 2008.67 208.363 Q2005.29 208.363 2003.34 211.048 Q2001.42 213.71 2001.42 218.409 Z" fill="#000000" fill-rule="evenodd" fill-opacity="1" /><path clip-path="url(#clip850)" d="M 0 0 M2046.84 217.321 L2046.84 219.404 L2027.25 219.404 Q2027.53 223.802 2029.89 226.117 Q2032.28 228.409 2036.51 228.409 Q2038.97 228.409 2041.26 227.807 Q2043.57 227.205 2045.84 226.001 L2045.84 230.029 Q2043.55 231.001 2041.14 231.511 Q2038.73 232.02 2036.26 232.02 Q2030.05 232.02 2026.42 228.409 Q2022.81 224.798 2022.81 218.64 Q2022.81 212.275 2026.23 208.548 Q2029.68 204.798 2035.52 204.798 Q2040.75 204.798 2043.78 208.177 Q2046.84 211.534 2046.84 217.321 M2042.58 216.071 Q2042.53 212.576 2040.61 210.492 Q2038.71 208.409 2035.56 208.409 Q2032 208.409 2029.85 210.423 Q2027.72 212.437 2027.39 216.094 L2042.58 216.071 Z" fill="#000000" fill-rule="evenodd" fill-opacity="1" /><path clip-path="url(#clip850)" d="M 0 0 M2072.85 215.701 L2072.85 231.349 L2068.6 231.349 L2068.6 215.839 Q2068.6 212.159 2067.16 210.33 Q2065.73 208.502 2062.85 208.502 Q2059.41 208.502 2057.41 210.701 Q2055.42 212.9 2055.42 216.696 L2055.42 231.349 L2051.14 231.349 L2051.14 205.423 L2055.42 205.423 L2055.42 209.451 Q2056.95 207.113 2059.01 205.955 Q2061.1 204.798 2063.8 204.798 Q2068.27 204.798 2070.56 207.576 Q2072.85 210.33 2072.85 215.701 Z" fill="#000000" fill-rule="evenodd" fill-opacity="1" /><path clip-path="url(#clip850)" d="M 0 0 M2093.85 206.187 L2093.85 210.214 Q2092.04 209.289 2090.1 208.826 Q2088.16 208.363 2086.07 208.363 Q2082.9 208.363 2081.3 209.335 Q2079.73 210.307 2079.73 212.251 Q2079.73 213.733 2080.86 214.589 Q2082 215.423 2085.42 216.187 L2086.88 216.511 Q2091.42 217.483 2093.32 219.265 Q2095.24 221.025 2095.24 224.196 Q2095.24 227.807 2092.37 229.913 Q2089.52 232.02 2084.52 232.02 Q2082.44 232.02 2080.17 231.603 Q2077.92 231.21 2075.42 230.4 L2075.42 226.001 Q2077.79 227.228 2080.08 227.853 Q2082.37 228.455 2084.61 228.455 Q2087.62 228.455 2089.24 227.437 Q2090.86 226.395 2090.86 224.52 Q2090.86 222.784 2089.68 221.858 Q2088.53 220.932 2084.57 220.076 L2083.09 219.728 Q2079.13 218.895 2077.37 217.182 Q2075.61 215.446 2075.61 212.437 Q2075.61 208.779 2078.2 206.789 Q2080.79 204.798 2085.56 204.798 Q2087.92 204.798 2090.01 205.145 Q2092.09 205.492 2093.85 206.187 Z" fill="#000000" fill-rule="evenodd" fill-opacity="1" /><path clip-path="url(#clip850)" d="M 0 0 M2099.71 205.423 L2103.97 205.423 L2103.97 231.349 L2099.71 231.349 L2099.71 205.423 M2099.71 195.33 L2103.97 195.33 L2103.97 200.724 L2099.71 200.724 L2099.71 195.33 Z" fill="#000000" fill-rule="evenodd" fill-opacity="1" /><path clip-path="url(#clip850)" d="M 0 0 M2112.65 198.062 L2112.65 205.423 L2121.42 205.423 L2121.42 208.733 L2112.65 208.733 L2112.65 222.807 Q2112.65 225.978 2113.5 226.881 Q2114.38 227.784 2117.04 227.784 L2121.42 227.784 L2121.42 231.349 L2117.04 231.349 Q2112.11 231.349 2110.24 229.52 Q2108.36 227.668 2108.36 222.807 L2108.36 208.733 L2105.24 208.733 L2105.24 205.423 L2108.36 205.423 L2108.36 198.062 L2112.65 198.062 Z" fill="#000000" fill-rule="evenodd" fill-opacity="1" /><path clip-path="url(#clip850)" d="M 0 0 M2136.67 233.756 Q2134.87 238.386 2133.16 239.798 Q2131.44 241.21 2128.57 241.21 L2125.17 241.21 L2125.17 237.645 L2127.67 237.645 Q2129.43 237.645 2130.4 236.812 Q2131.37 235.978 2132.55 232.876 L2133.32 230.932 L2122.83 205.423 L2127.35 205.423 L2135.45 225.701 L2143.55 205.423 L2148.06 205.423 L2136.67 233.756 Z" fill="#000000" fill-rule="evenodd" fill-opacity="1" /></svg>
