<?xml version="1.0" encoding="utf-8"?>
<svg xmlns="http://www.w3.org/2000/svg" xmlns:xlink="http://www.w3.org/1999/xlink" width="600" height="400" viewBox="0 0 2400 1600">
<defs>
  <clipPath id="clip570">
    <rect x="0" y="0" width="2400" height="1600"/>
  </clipPath>
</defs>
<path clip-path="url(#clip570)" d="M0 1600 L2400 1600 L2400 0 L0 0  Z" fill="#ffffff" fill-rule="evenodd" fill-opacity="1"/>
<defs>
  <clipPath id="clip571">
    <rect x="480" y="0" width="1681" height="1600"/>
  </clipPath>
</defs>
<path clip-path="url(#clip570)" d="M216.436 1486.45 L2352.76 1486.45 L2352.76 47.2441 L216.436 47.2441  Z" fill="#ffffff" fill-rule="evenodd" fill-opacity="1"/>
<defs>
  <clipPath id="clip572">
    <rect x="216" y="47" width="2137" height="1440"/>
  </clipPath>
</defs>
<polyline clip-path="url(#clip572)" style="stroke:#000000; stroke-linecap:round; stroke-linejoin:round; stroke-width:2; stroke-opacity:0.1; fill:none" points="276.898,1486.45 276.898,47.2441 "/>
<polyline clip-path="url(#clip572)" style="stroke:#000000; stroke-linecap:round; stroke-linejoin:round; stroke-width:2; stroke-opacity:0.1; fill:none" points="948.697,1486.45 948.697,47.2441 "/>
<polyline clip-path="url(#clip572)" style="stroke:#000000; stroke-linecap:round; stroke-linejoin:round; stroke-width:2; stroke-opacity:0.1; fill:none" points="1620.5,1486.45 1620.5,47.2441 "/>
<polyline clip-path="url(#clip572)" style="stroke:#000000; stroke-linecap:round; stroke-linejoin:round; stroke-width:2; stroke-opacity:0.1; fill:none" points="2292.29,1486.45 2292.29,47.2441 "/>
<polyline clip-path="url(#clip572)" style="stroke:#000000; stroke-linecap:round; stroke-linejoin:round; stroke-width:2; stroke-opacity:0.1; fill:none" points="216.436,1252.35 2352.76,1252.35 "/>
<polyline clip-path="url(#clip572)" style="stroke:#000000; stroke-linecap:round; stroke-linejoin:round; stroke-width:2; stroke-opacity:0.1; fill:none" points="216.436,987.799 2352.76,987.799 "/>
<polyline clip-path="url(#clip572)" style="stroke:#000000; stroke-linecap:round; stroke-linejoin:round; stroke-width:2; stroke-opacity:0.1; fill:none" points="216.436,723.244 2352.76,723.244 "/>
<polyline clip-path="url(#clip572)" style="stroke:#000000; stroke-linecap:round; stroke-linejoin:round; stroke-width:2; stroke-opacity:0.1; fill:none" points="216.436,458.689 2352.76,458.689 "/>
<polyline clip-path="url(#clip572)" style="stroke:#000000; stroke-linecap:round; stroke-linejoin:round; stroke-width:2; stroke-opacity:0.1; fill:none" points="216.436,194.133 2352.76,194.133 "/>
<polyline clip-path="url(#clip570)" style="stroke:#000000; stroke-linecap:round; stroke-linejoin:round; stroke-width:4; stroke-opacity:1; fill:none" points="216.436,1486.45 2352.76,1486.45 "/>
<polyline clip-path="url(#clip570)" style="stroke:#000000; stroke-linecap:round; stroke-linejoin:round; stroke-width:4; stroke-opacity:1; fill:none" points="276.898,1486.45 276.898,1467.55 "/>
<polyline clip-path="url(#clip570)" style="stroke:#000000; stroke-linecap:round; stroke-linejoin:round; stroke-width:4; stroke-opacity:1; fill:none" points="948.697,1486.45 948.697,1467.55 "/>
<polyline clip-path="url(#clip570)" style="stroke:#000000; stroke-linecap:round; stroke-linejoin:round; stroke-width:4; stroke-opacity:1; fill:none" points="1620.5,1486.45 1620.5,1467.55 "/>
<polyline clip-path="url(#clip570)" style="stroke:#000000; stroke-linecap:round; stroke-linejoin:round; stroke-width:4; stroke-opacity:1; fill:none" points="2292.29,1486.45 2292.29,1467.55 "/>
<path clip-path="url(#clip570)" d="M267.28 1544.91 L274.919 1544.91 L274.919 1518.55 L266.608 1520.21 L266.608 1515.95 L274.872 1514.29 L279.548 1514.29 L279.548 1544.91 L287.187 1544.91 L287.187 1548.85 L267.28 1548.85 L267.28 1544.91 Z" fill="#000000" fill-rule="nonzero" fill-opacity="1" /><path clip-path="url(#clip570)" d="M943.349 1544.91 L959.669 1544.91 L959.669 1548.85 L937.724 1548.85 L937.724 1544.91 Q940.386 1542.16 944.97 1537.53 Q949.576 1532.88 950.757 1531.53 Q953.002 1529.01 953.882 1527.27 Q954.784 1525.51 954.784 1523.82 Q954.784 1521.07 952.84 1519.33 Q950.919 1517.6 947.817 1517.6 Q945.618 1517.6 943.164 1518.36 Q940.734 1519.13 937.956 1520.68 L937.956 1515.95 Q940.78 1514.82 943.234 1514.24 Q945.687 1513.66 947.724 1513.66 Q953.095 1513.66 956.289 1516.35 Q959.483 1519.03 959.483 1523.52 Q959.483 1525.65 958.673 1527.57 Q957.886 1529.47 955.78 1532.07 Q955.201 1532.74 952.099 1535.95 Q948.997 1539.15 943.349 1544.91 Z" fill="#000000" fill-rule="nonzero" fill-opacity="1" /><path clip-path="url(#clip570)" d="M1624.74 1530.21 Q1628.1 1530.93 1629.97 1533.2 Q1631.87 1535.47 1631.87 1538.8 Q1631.87 1543.92 1628.35 1546.72 Q1624.84 1549.52 1618.35 1549.52 Q1616.18 1549.52 1613.86 1549.08 Q1611.57 1548.66 1609.12 1547.81 L1609.12 1543.29 Q1611.06 1544.43 1613.38 1545.01 Q1615.69 1545.58 1618.22 1545.58 Q1622.61 1545.58 1624.9 1543.85 Q1627.22 1542.11 1627.22 1538.8 Q1627.22 1535.75 1625.07 1534.03 Q1622.94 1532.3 1619.12 1532.3 L1615.09 1532.3 L1615.09 1528.45 L1619.3 1528.45 Q1622.75 1528.45 1624.58 1527.09 Q1626.41 1525.7 1626.41 1523.11 Q1626.41 1520.45 1624.51 1519.03 Q1622.64 1517.6 1619.12 1517.6 Q1617.2 1517.6 1615 1518.01 Q1612.8 1518.43 1610.16 1519.31 L1610.16 1515.14 Q1612.82 1514.4 1615.14 1514.03 Q1617.47 1513.66 1619.53 1513.66 Q1624.86 1513.66 1627.96 1516.09 Q1631.06 1518.5 1631.06 1522.62 Q1631.06 1525.49 1629.42 1527.48 Q1627.78 1529.45 1624.74 1530.21 Z" fill="#000000" fill-rule="nonzero" fill-opacity="1" /><path clip-path="url(#clip570)" d="M2295.3 1518.36 L2283.5 1536.81 L2295.3 1536.81 L2295.3 1518.36 M2294.08 1514.29 L2299.96 1514.29 L2299.96 1536.81 L2304.89 1536.81 L2304.89 1540.7 L2299.96 1540.7 L2299.96 1548.85 L2295.3 1548.85 L2295.3 1540.7 L2279.7 1540.7 L2279.7 1536.19 L2294.08 1514.29 Z" fill="#000000" fill-rule="nonzero" fill-opacity="1" /><polyline clip-path="url(#clip570)" style="stroke:#000000; stroke-linecap:round; stroke-linejoin:round; stroke-width:4; stroke-opacity:1; fill:none" points="216.436,1486.45 216.436,47.2441 "/>
<polyline clip-path="url(#clip570)" style="stroke:#000000; stroke-linecap:round; stroke-linejoin:round; stroke-width:4; stroke-opacity:1; fill:none" points="216.436,1252.35 235.334,1252.35 "/>
<polyline clip-path="url(#clip570)" style="stroke:#000000; stroke-linecap:round; stroke-linejoin:round; stroke-width:4; stroke-opacity:1; fill:none" points="216.436,987.799 235.334,987.799 "/>
<polyline clip-path="url(#clip570)" style="stroke:#000000; stroke-linecap:round; stroke-linejoin:round; stroke-width:4; stroke-opacity:1; fill:none" points="216.436,723.244 235.334,723.244 "/>
<polyline clip-path="url(#clip570)" style="stroke:#000000; stroke-linecap:round; stroke-linejoin:round; stroke-width:4; stroke-opacity:1; fill:none" points="216.436,458.689 235.334,458.689 "/>
<polyline clip-path="url(#clip570)" style="stroke:#000000; stroke-linecap:round; stroke-linejoin:round; stroke-width:4; stroke-opacity:1; fill:none" points="216.436,194.133 235.334,194.133 "/>
<path clip-path="url(#clip570)" d="M63.9319 1238.15 Q60.3208 1238.15 58.4921 1241.72 Q56.6865 1245.26 56.6865 1252.39 Q56.6865 1259.5 58.4921 1263.06 Q60.3208 1266.6 63.9319 1266.6 Q67.5661 1266.6 69.3717 1263.06 Q71.2004 1259.5 71.2004 1252.39 Q71.2004 1245.26 69.3717 1241.72 Q67.5661 1238.15 63.9319 1238.15 M63.9319 1234.45 Q69.742 1234.45 72.7976 1239.06 Q75.8763 1243.64 75.8763 1252.39 Q75.8763 1261.12 72.7976 1265.72 Q69.742 1270.31 63.9319 1270.31 Q58.1217 1270.31 55.043 1265.72 Q51.9875 1261.12 51.9875 1252.39 Q51.9875 1243.64 55.043 1239.06 Q58.1217 1234.45 63.9319 1234.45 Z" fill="#000000" fill-rule="nonzero" fill-opacity="1" /><path clip-path="url(#clip570)" d="M84.0938 1263.75 L88.978 1263.75 L88.978 1269.63 L84.0938 1269.63 L84.0938 1263.75 Z" fill="#000000" fill-rule="nonzero" fill-opacity="1" /><path clip-path="url(#clip570)" d="M99.2095 1235.07 L117.566 1235.07 L117.566 1239.01 L103.492 1239.01 L103.492 1247.48 Q104.51 1247.13 105.529 1246.97 Q106.547 1246.79 107.566 1246.79 Q113.353 1246.79 116.733 1249.96 Q120.112 1253.13 120.112 1258.55 Q120.112 1264.13 116.64 1267.23 Q113.168 1270.31 106.848 1270.31 Q104.672 1270.31 102.404 1269.94 Q100.159 1269.57 97.7511 1268.82 L97.7511 1264.13 Q99.8345 1265.26 102.057 1265.82 Q104.279 1266.37 106.756 1266.37 Q110.76 1266.37 113.098 1264.26 Q115.436 1262.16 115.436 1258.55 Q115.436 1254.94 113.098 1252.83 Q110.76 1250.72 106.756 1250.72 Q104.881 1250.72 103.006 1251.14 Q101.154 1251.56 99.2095 1252.44 L99.2095 1235.07 Z" fill="#000000" fill-rule="nonzero" fill-opacity="1" /><path clip-path="url(#clip570)" d="M128.144 1235.07 L150.367 1235.07 L150.367 1237.07 L137.82 1269.63 L132.936 1269.63 L144.742 1239.01 L128.144 1239.01 L128.144 1235.07 Z" fill="#000000" fill-rule="nonzero" fill-opacity="1" /><path clip-path="url(#clip570)" d="M159.533 1235.07 L177.89 1235.07 L177.89 1239.01 L163.816 1239.01 L163.816 1247.48 Q164.834 1247.13 165.853 1246.97 Q166.871 1246.79 167.89 1246.79 Q173.677 1246.79 177.056 1249.96 Q180.436 1253.13 180.436 1258.55 Q180.436 1264.13 176.964 1267.23 Q173.491 1270.31 167.172 1270.31 Q164.996 1270.31 162.728 1269.94 Q160.482 1269.57 158.075 1268.82 L158.075 1264.13 Q160.158 1265.26 162.38 1265.82 Q164.603 1266.37 167.079 1266.37 Q171.084 1266.37 173.422 1264.26 Q175.76 1262.16 175.76 1258.55 Q175.76 1254.94 173.422 1252.83 Q171.084 1250.72 167.079 1250.72 Q165.204 1250.72 163.329 1251.14 Q161.478 1251.56 159.533 1252.44 L159.533 1235.07 Z" fill="#000000" fill-rule="nonzero" fill-opacity="1" /><path clip-path="url(#clip570)" d="M62.9365 973.598 Q59.3254 973.598 57.4967 977.163 Q55.6912 980.704 55.6912 987.834 Q55.6912 994.94 57.4967 998.505 Q59.3254 1002.05 62.9365 1002.05 Q66.5707 1002.05 68.3763 998.505 Q70.205 994.94 70.205 987.834 Q70.205 980.704 68.3763 977.163 Q66.5707 973.598 62.9365 973.598 M62.9365 969.894 Q68.7467 969.894 71.8022 974.501 Q74.8809 979.084 74.8809 987.834 Q74.8809 996.561 71.8022 1001.17 Q68.7467 1005.75 62.9365 1005.75 Q57.1264 1005.75 54.0477 1001.17 Q50.9921 996.561 50.9921 987.834 Q50.9921 979.084 54.0477 974.501 Q57.1264 969.894 62.9365 969.894 Z" fill="#000000" fill-rule="nonzero" fill-opacity="1" /><path clip-path="url(#clip570)" d="M83.0984 999.2 L87.9827 999.2 L87.9827 1005.08 L83.0984 1005.08 L83.0984 999.2 Z" fill="#000000" fill-rule="nonzero" fill-opacity="1" /><path clip-path="url(#clip570)" d="M108.746 985.936 Q105.598 985.936 103.746 988.089 Q101.918 990.241 101.918 993.991 Q101.918 997.718 103.746 999.894 Q105.598 1002.05 108.746 1002.05 Q111.895 1002.05 113.723 999.894 Q115.575 997.718 115.575 993.991 Q115.575 990.241 113.723 988.089 Q111.895 985.936 108.746 985.936 M118.029 971.283 L118.029 975.542 Q116.27 974.709 114.464 974.269 Q112.682 973.829 110.922 973.829 Q106.293 973.829 103.839 976.954 Q101.409 980.079 101.061 986.399 Q102.427 984.385 104.487 983.32 Q106.547 982.232 109.024 982.232 Q114.233 982.232 117.242 985.403 Q120.274 988.552 120.274 993.991 Q120.274 999.315 117.126 1002.53 Q113.978 1005.75 108.746 1005.75 Q102.751 1005.75 99.5798 1001.17 Q96.4085 996.561 96.4085 987.834 Q96.4085 979.64 100.297 974.779 Q104.186 969.894 110.737 969.894 Q112.496 969.894 114.279 970.242 Q116.084 970.589 118.029 971.283 Z" fill="#000000" fill-rule="nonzero" fill-opacity="1" /><path clip-path="url(#clip570)" d="M138.33 973.598 Q134.719 973.598 132.89 977.163 Q131.084 980.704 131.084 987.834 Q131.084 994.94 132.89 998.505 Q134.719 1002.05 138.33 1002.05 Q141.964 1002.05 143.769 998.505 Q145.598 994.94 145.598 987.834 Q145.598 980.704 143.769 977.163 Q141.964 973.598 138.33 973.598 M138.33 969.894 Q144.14 969.894 147.195 974.501 Q150.274 979.084 150.274 987.834 Q150.274 996.561 147.195 1001.17 Q144.14 1005.75 138.33 1005.75 Q132.519 1005.75 129.441 1001.17 Q126.385 996.561 126.385 987.834 Q126.385 979.084 129.441 974.501 Q132.519 969.894 138.33 969.894 Z" fill="#000000" fill-rule="nonzero" fill-opacity="1" /><path clip-path="url(#clip570)" d="M168.491 973.598 Q164.88 973.598 163.052 977.163 Q161.246 980.704 161.246 987.834 Q161.246 994.94 163.052 998.505 Q164.88 1002.05 168.491 1002.05 Q172.126 1002.05 173.931 998.505 Q175.76 994.94 175.76 987.834 Q175.76 980.704 173.931 977.163 Q172.126 973.598 168.491 973.598 M168.491 969.894 Q174.302 969.894 177.357 974.501 Q180.436 979.084 180.436 987.834 Q180.436 996.561 177.357 1001.17 Q174.302 1005.75 168.491 1005.75 Q162.681 1005.75 159.603 1001.17 Q156.547 996.561 156.547 987.834 Q156.547 979.084 159.603 974.501 Q162.681 969.894 168.491 969.894 Z" fill="#000000" fill-rule="nonzero" fill-opacity="1" /><path clip-path="url(#clip570)" d="M63.9319 709.043 Q60.3208 709.043 58.4921 712.608 Q56.6865 716.149 56.6865 723.279 Q56.6865 730.385 58.4921 733.95 Q60.3208 737.492 63.9319 737.492 Q67.5661 737.492 69.3717 733.95 Q71.2004 730.385 71.2004 723.279 Q71.2004 716.149 69.3717 712.608 Q67.5661 709.043 63.9319 709.043 M63.9319 705.339 Q69.742 705.339 72.7976 709.945 Q75.8763 714.529 75.8763 723.279 Q75.8763 732.006 72.7976 736.612 Q69.742 741.195 63.9319 741.195 Q58.1217 741.195 55.043 736.612 Q51.9875 732.006 51.9875 723.279 Q51.9875 714.529 55.043 709.945 Q58.1217 705.339 63.9319 705.339 Z" fill="#000000" fill-rule="nonzero" fill-opacity="1" /><path clip-path="url(#clip570)" d="M84.0938 734.644 L88.978 734.644 L88.978 740.524 L84.0938 740.524 L84.0938 734.644 Z" fill="#000000" fill-rule="nonzero" fill-opacity="1" /><path clip-path="url(#clip570)" d="M109.742 721.381 Q106.594 721.381 104.742 723.533 Q102.913 725.686 102.913 729.436 Q102.913 733.163 104.742 735.339 Q106.594 737.492 109.742 737.492 Q112.89 737.492 114.719 735.339 Q116.57 733.163 116.57 729.436 Q116.57 725.686 114.719 723.533 Q112.89 721.381 109.742 721.381 M119.024 706.728 L119.024 710.987 Q117.265 710.154 115.459 709.714 Q113.677 709.274 111.918 709.274 Q107.288 709.274 104.834 712.399 Q102.404 715.524 102.057 721.844 Q103.422 719.83 105.483 718.765 Q107.543 717.677 110.02 717.677 Q115.228 717.677 118.237 720.848 Q121.27 723.996 121.27 729.436 Q121.27 734.76 118.121 737.978 Q114.973 741.195 109.742 741.195 Q103.746 741.195 100.575 736.612 Q97.4039 732.006 97.4039 723.279 Q97.4039 715.084 101.293 710.223 Q105.182 705.339 111.733 705.339 Q113.492 705.339 115.274 705.686 Q117.08 706.033 119.024 706.728 Z" fill="#000000" fill-rule="nonzero" fill-opacity="1" /><path clip-path="url(#clip570)" d="M133.353 736.589 L149.672 736.589 L149.672 740.524 L127.728 740.524 L127.728 736.589 Q130.39 733.834 134.973 729.205 Q139.58 724.552 140.76 723.209 Q143.006 720.686 143.885 718.95 Q144.788 717.191 144.788 715.501 Q144.788 712.746 142.843 711.01 Q140.922 709.274 137.82 709.274 Q135.621 709.274 133.168 710.038 Q130.737 710.802 127.959 712.353 L127.959 707.631 Q130.783 706.496 133.237 705.918 Q135.691 705.339 137.728 705.339 Q143.098 705.339 146.293 708.024 Q149.487 710.709 149.487 715.2 Q149.487 717.33 148.677 719.251 Q147.89 721.149 145.783 723.742 Q145.205 724.413 142.103 727.631 Q139.001 730.825 133.353 736.589 Z" fill="#000000" fill-rule="nonzero" fill-opacity="1" /><path clip-path="url(#clip570)" d="M159.533 705.964 L177.89 705.964 L177.89 709.899 L163.816 709.899 L163.816 718.371 Q164.834 718.024 165.853 717.862 Q166.871 717.677 167.89 717.677 Q173.677 717.677 177.056 720.848 Q180.436 724.019 180.436 729.436 Q180.436 735.015 176.964 738.117 Q173.491 741.195 167.172 741.195 Q164.996 741.195 162.728 740.825 Q160.482 740.455 158.075 739.714 L158.075 735.015 Q160.158 736.149 162.38 736.705 Q164.603 737.26 167.079 737.26 Q171.084 737.26 173.422 735.154 Q175.76 733.047 175.76 729.436 Q175.76 725.825 173.422 723.719 Q171.084 721.612 167.079 721.612 Q165.204 721.612 163.329 722.029 Q161.478 722.445 159.533 723.325 L159.533 705.964 Z" fill="#000000" fill-rule="nonzero" fill-opacity="1" /><path clip-path="url(#clip570)" d="M62.9365 444.487 Q59.3254 444.487 57.4967 448.052 Q55.6912 451.594 55.6912 458.723 Q55.6912 465.83 57.4967 469.395 Q59.3254 472.936 62.9365 472.936 Q66.5707 472.936 68.3763 469.395 Q70.205 465.83 70.205 458.723 Q70.205 451.594 68.3763 448.052 Q66.5707 444.487 62.9365 444.487 M62.9365 440.784 Q68.7467 440.784 71.8022 445.39 Q74.8809 449.973 74.8809 458.723 Q74.8809 467.45 71.8022 472.057 Q68.7467 476.64 62.9365 476.64 Q57.1264 476.64 54.0477 472.057 Q50.9921 467.45 50.9921 458.723 Q50.9921 449.973 54.0477 445.39 Q57.1264 440.784 62.9365 440.784 Z" fill="#000000" fill-rule="nonzero" fill-opacity="1" /><path clip-path="url(#clip570)" d="M83.0984 470.089 L87.9827 470.089 L87.9827 475.969 L83.0984 475.969 L83.0984 470.089 Z" fill="#000000" fill-rule="nonzero" fill-opacity="1" /><path clip-path="url(#clip570)" d="M108.746 456.825 Q105.598 456.825 103.746 458.978 Q101.918 461.131 101.918 464.881 Q101.918 468.608 103.746 470.784 Q105.598 472.936 108.746 472.936 Q111.895 472.936 113.723 470.784 Q115.575 468.608 115.575 464.881 Q115.575 461.131 113.723 458.978 Q111.895 456.825 108.746 456.825 M118.029 442.173 L118.029 446.432 Q116.27 445.599 114.464 445.159 Q112.682 444.719 110.922 444.719 Q106.293 444.719 103.839 447.844 Q101.409 450.969 101.061 457.288 Q102.427 455.274 104.487 454.21 Q106.547 453.122 109.024 453.122 Q114.233 453.122 117.242 456.293 Q120.274 459.441 120.274 464.881 Q120.274 470.205 117.126 473.422 Q113.978 476.64 108.746 476.64 Q102.751 476.64 99.5798 472.057 Q96.4085 467.45 96.4085 458.723 Q96.4085 450.529 100.297 445.668 Q104.186 440.784 110.737 440.784 Q112.496 440.784 114.279 441.131 Q116.084 441.478 118.029 442.173 Z" fill="#000000" fill-rule="nonzero" fill-opacity="1" /><path clip-path="url(#clip570)" d="M128.376 441.409 L146.732 441.409 L146.732 445.344 L132.658 445.344 L132.658 453.816 Q133.677 453.469 134.695 453.307 Q135.714 453.122 136.732 453.122 Q142.519 453.122 145.899 456.293 Q149.279 459.464 149.279 464.881 Q149.279 470.46 145.806 473.561 Q142.334 476.64 136.015 476.64 Q133.839 476.64 131.57 476.27 Q129.325 475.899 126.918 475.159 L126.918 470.46 Q129.001 471.594 131.223 472.149 Q133.445 472.705 135.922 472.705 Q139.927 472.705 142.265 470.598 Q144.603 468.492 144.603 464.881 Q144.603 461.27 142.265 459.163 Q139.927 457.057 135.922 457.057 Q134.047 457.057 132.172 457.473 Q130.32 457.89 128.376 458.77 L128.376 441.409 Z" fill="#000000" fill-rule="nonzero" fill-opacity="1" /><path clip-path="url(#clip570)" d="M168.491 444.487 Q164.88 444.487 163.052 448.052 Q161.246 451.594 161.246 458.723 Q161.246 465.83 163.052 469.395 Q164.88 472.936 168.491 472.936 Q172.126 472.936 173.931 469.395 Q175.76 465.83 175.76 458.723 Q175.76 451.594 173.931 448.052 Q172.126 444.487 168.491 444.487 M168.491 440.784 Q174.302 440.784 177.357 445.39 Q180.436 449.973 180.436 458.723 Q180.436 467.45 177.357 472.057 Q174.302 476.64 168.491 476.64 Q162.681 476.64 159.603 472.057 Q156.547 467.45 156.547 458.723 Q156.547 449.973 159.603 445.39 Q162.681 440.784 168.491 440.784 Z" fill="#000000" fill-rule="nonzero" fill-opacity="1" /><path clip-path="url(#clip570)" d="M63.9319 179.932 Q60.3208 179.932 58.4921 183.497 Q56.6865 187.039 56.6865 194.168 Q56.6865 201.275 58.4921 204.839 Q60.3208 208.381 63.9319 208.381 Q67.5661 208.381 69.3717 204.839 Q71.2004 201.275 71.2004 194.168 Q71.2004 187.039 69.3717 183.497 Q67.5661 179.932 63.9319 179.932 M63.9319 176.228 Q69.742 176.228 72.7976 180.835 Q75.8763 185.418 75.8763 194.168 Q75.8763 202.895 72.7976 207.501 Q69.742 212.085 63.9319 212.085 Q58.1217 212.085 55.043 207.501 Q51.9875 202.895 51.9875 194.168 Q51.9875 185.418 55.043 180.835 Q58.1217 176.228 63.9319 176.228 Z" fill="#000000" fill-rule="nonzero" fill-opacity="1" /><path clip-path="url(#clip570)" d="M84.0938 205.534 L88.978 205.534 L88.978 211.413 L84.0938 211.413 L84.0938 205.534 Z" fill="#000000" fill-rule="nonzero" fill-opacity="1" /><path clip-path="url(#clip570)" d="M109.742 192.27 Q106.594 192.27 104.742 194.423 Q102.913 196.576 102.913 200.326 Q102.913 204.052 104.742 206.228 Q106.594 208.381 109.742 208.381 Q112.89 208.381 114.719 206.228 Q116.57 204.052 116.57 200.326 Q116.57 196.576 114.719 194.423 Q112.89 192.27 109.742 192.27 M119.024 177.617 L119.024 181.877 Q117.265 181.043 115.459 180.603 Q113.677 180.164 111.918 180.164 Q107.288 180.164 104.834 183.289 Q102.404 186.414 102.057 192.733 Q103.422 190.719 105.483 189.654 Q107.543 188.566 110.02 188.566 Q115.228 188.566 118.237 191.738 Q121.27 194.886 121.27 200.326 Q121.27 205.65 118.121 208.867 Q114.973 212.085 109.742 212.085 Q103.746 212.085 100.575 207.501 Q97.4039 202.895 97.4039 194.168 Q97.4039 185.974 101.293 181.113 Q105.182 176.228 111.733 176.228 Q113.492 176.228 115.274 176.576 Q117.08 176.923 119.024 177.617 Z" fill="#000000" fill-rule="nonzero" fill-opacity="1" /><path clip-path="url(#clip570)" d="M128.144 176.853 L150.367 176.853 L150.367 178.844 L137.82 211.413 L132.936 211.413 L144.742 180.789 L128.144 180.789 L128.144 176.853 Z" fill="#000000" fill-rule="nonzero" fill-opacity="1" /><path clip-path="url(#clip570)" d="M159.533 176.853 L177.89 176.853 L177.89 180.789 L163.816 180.789 L163.816 189.261 Q164.834 188.914 165.853 188.752 Q166.871 188.566 167.89 188.566 Q173.677 188.566 177.056 191.738 Q180.436 194.909 180.436 200.326 Q180.436 205.904 176.964 209.006 Q173.491 212.085 167.172 212.085 Q164.996 212.085 162.728 211.714 Q160.482 211.344 158.075 210.603 L158.075 205.904 Q160.158 207.038 162.38 207.594 Q164.603 208.15 167.079 208.15 Q171.084 208.15 173.422 206.043 Q175.76 203.937 175.76 200.326 Q175.76 196.714 173.422 194.608 Q171.084 192.502 167.079 192.502 Q165.204 192.502 163.329 192.918 Q161.478 193.335 159.533 194.214 L159.533 176.853 Z" fill="#000000" fill-rule="nonzero" fill-opacity="1" /><circle clip-path="url(#clip572)" cx="276.898" cy="918.69" r="14.4" fill="#009af9" fill-rule="evenodd" fill-opacity="1" stroke="#000000" stroke-opacity="1" stroke-width="3.2"/>
<circle clip-path="url(#clip572)" cx="948.697" cy="927.998" r="14.4" fill="#e26f46" fill-rule="evenodd" fill-opacity="1" stroke="#000000" stroke-opacity="1" stroke-width="3.2"/>
<circle clip-path="url(#clip572)" cx="948.697" cy="913.82" r="14.4" fill="#e26f46" fill-rule="evenodd" fill-opacity="1" stroke="#000000" stroke-opacity="1" stroke-width="3.2"/>
<circle clip-path="url(#clip572)" cx="948.697" cy="918.767" r="14.4" fill="#e26f46" fill-rule="evenodd" fill-opacity="1" stroke="#000000" stroke-opacity="1" stroke-width="3.2"/>
<circle clip-path="url(#clip572)" cx="948.697" cy="922.632" r="14.4" fill="#e26f46" fill-rule="evenodd" fill-opacity="1" stroke="#000000" stroke-opacity="1" stroke-width="3.2"/>
<circle clip-path="url(#clip572)" cx="948.697" cy="919.578" r="14.4" fill="#e26f46" fill-rule="evenodd" fill-opacity="1" stroke="#000000" stroke-opacity="1" stroke-width="3.2"/>
<circle clip-path="url(#clip572)" cx="948.697" cy="911.338" r="14.4" fill="#e26f46" fill-rule="evenodd" fill-opacity="1" stroke="#000000" stroke-opacity="1" stroke-width="3.2"/>
<circle clip-path="url(#clip572)" cx="948.697" cy="897.479" r="14.4" fill="#e26f46" fill-rule="evenodd" fill-opacity="1" stroke="#000000" stroke-opacity="1" stroke-width="3.2"/>
<circle clip-path="url(#clip572)" cx="948.697" cy="892.455" r="14.4" fill="#e26f46" fill-rule="evenodd" fill-opacity="1" stroke="#000000" stroke-opacity="1" stroke-width="3.2"/>
<circle clip-path="url(#clip572)" cx="948.697" cy="941.917" r="14.4" fill="#e26f46" fill-rule="evenodd" fill-opacity="1" stroke="#000000" stroke-opacity="1" stroke-width="3.2"/>
<circle clip-path="url(#clip572)" cx="948.697" cy="908.828" r="14.4" fill="#e26f46" fill-rule="evenodd" fill-opacity="1" stroke="#000000" stroke-opacity="1" stroke-width="3.2"/>
<circle clip-path="url(#clip572)" cx="948.697" cy="912.791" r="14.4" fill="#e26f46" fill-rule="evenodd" fill-opacity="1" stroke="#000000" stroke-opacity="1" stroke-width="3.2"/>
<circle clip-path="url(#clip572)" cx="948.697" cy="922.223" r="14.4" fill="#e26f46" fill-rule="evenodd" fill-opacity="1" stroke="#000000" stroke-opacity="1" stroke-width="3.2"/>
<circle clip-path="url(#clip572)" cx="948.697" cy="923.268" r="14.4" fill="#e26f46" fill-rule="evenodd" fill-opacity="1" stroke="#000000" stroke-opacity="1" stroke-width="3.2"/>
<circle clip-path="url(#clip572)" cx="948.697" cy="906.134" r="14.4" fill="#e26f46" fill-rule="evenodd" fill-opacity="1" stroke="#000000" stroke-opacity="1" stroke-width="3.2"/>
<circle clip-path="url(#clip572)" cx="948.697" cy="887.031" r="14.4" fill="#e26f46" fill-rule="evenodd" fill-opacity="1" stroke="#000000" stroke-opacity="1" stroke-width="3.2"/>
<circle clip-path="url(#clip572)" cx="948.697" cy="932.459" r="14.4" fill="#e26f46" fill-rule="evenodd" fill-opacity="1" stroke="#000000" stroke-opacity="1" stroke-width="3.2"/>
<circle clip-path="url(#clip572)" cx="948.697" cy="955.6" r="14.4" fill="#e26f46" fill-rule="evenodd" fill-opacity="1" stroke="#000000" stroke-opacity="1" stroke-width="3.2"/>
<circle clip-path="url(#clip572)" cx="948.697" cy="932.519" r="14.4" fill="#e26f46" fill-rule="evenodd" fill-opacity="1" stroke="#000000" stroke-opacity="1" stroke-width="3.2"/>
<circle clip-path="url(#clip572)" cx="948.697" cy="904.233" r="14.4" fill="#e26f46" fill-rule="evenodd" fill-opacity="1" stroke="#000000" stroke-opacity="1" stroke-width="3.2"/>
<circle clip-path="url(#clip572)" cx="948.697" cy="904.392" r="14.4" fill="#e26f46" fill-rule="evenodd" fill-opacity="1" stroke="#000000" stroke-opacity="1" stroke-width="3.2"/>
<circle clip-path="url(#clip572)" cx="1620.5" cy="475.372" r="14.4" fill="#3da44d" fill-rule="evenodd" fill-opacity="1" stroke="#000000" stroke-opacity="1" stroke-width="3.2"/>
<circle clip-path="url(#clip572)" cx="1620.5" cy="1434.19" r="14.4" fill="#3da44d" fill-rule="evenodd" fill-opacity="1" stroke="#000000" stroke-opacity="1" stroke-width="3.2"/>
<circle clip-path="url(#clip572)" cx="1620.5" cy="768.086" r="14.4" fill="#3da44d" fill-rule="evenodd" fill-opacity="1" stroke="#000000" stroke-opacity="1" stroke-width="3.2"/>
<circle clip-path="url(#clip572)" cx="1620.5" cy="845.656" r="14.4" fill="#3da44d" fill-rule="evenodd" fill-opacity="1" stroke="#000000" stroke-opacity="1" stroke-width="3.2"/>
<circle clip-path="url(#clip572)" cx="1620.5" cy="961.204" r="14.4" fill="#3da44d" fill-rule="evenodd" fill-opacity="1" stroke="#000000" stroke-opacity="1" stroke-width="3.2"/>
<circle clip-path="url(#clip572)" cx="1620.5" cy="1004.8" r="14.4" fill="#3da44d" fill-rule="evenodd" fill-opacity="1" stroke="#000000" stroke-opacity="1" stroke-width="3.2"/>
<circle clip-path="url(#clip572)" cx="1620.5" cy="87.9763" r="14.4" fill="#3da44d" fill-rule="evenodd" fill-opacity="1" stroke="#000000" stroke-opacity="1" stroke-width="3.2"/>
<circle clip-path="url(#clip572)" cx="1620.5" cy="1343.95" r="14.4" fill="#3da44d" fill-rule="evenodd" fill-opacity="1" stroke="#000000" stroke-opacity="1" stroke-width="3.2"/>
<circle clip-path="url(#clip572)" cx="1620.5" cy="731.819" r="14.4" fill="#3da44d" fill-rule="evenodd" fill-opacity="1" stroke="#000000" stroke-opacity="1" stroke-width="3.2"/>
<circle clip-path="url(#clip572)" cx="1620.5" cy="916.376" r="14.4" fill="#3da44d" fill-rule="evenodd" fill-opacity="1" stroke="#000000" stroke-opacity="1" stroke-width="3.2"/>
<circle clip-path="url(#clip572)" cx="1620.5" cy="250.536" r="14.4" fill="#3da44d" fill-rule="evenodd" fill-opacity="1" stroke="#000000" stroke-opacity="1" stroke-width="3.2"/>
<circle clip-path="url(#clip572)" cx="1620.5" cy="1363.03" r="14.4" fill="#3da44d" fill-rule="evenodd" fill-opacity="1" stroke="#000000" stroke-opacity="1" stroke-width="3.2"/>
<circle clip-path="url(#clip572)" cx="1620.5" cy="1230.98" r="14.4" fill="#3da44d" fill-rule="evenodd" fill-opacity="1" stroke="#000000" stroke-opacity="1" stroke-width="3.2"/>
<circle clip-path="url(#clip572)" cx="1620.5" cy="907.669" r="14.4" fill="#3da44d" fill-rule="evenodd" fill-opacity="1" stroke="#000000" stroke-opacity="1" stroke-width="3.2"/>
<circle clip-path="url(#clip572)" cx="1620.5" cy="1161.8" r="14.4" fill="#3da44d" fill-rule="evenodd" fill-opacity="1" stroke="#000000" stroke-opacity="1" stroke-width="3.2"/>
<circle clip-path="url(#clip572)" cx="1620.5" cy="1058.47" r="14.4" fill="#3da44d" fill-rule="evenodd" fill-opacity="1" stroke="#000000" stroke-opacity="1" stroke-width="3.2"/>
<circle clip-path="url(#clip572)" cx="1620.5" cy="1344.41" r="14.4" fill="#3da44d" fill-rule="evenodd" fill-opacity="1" stroke="#000000" stroke-opacity="1" stroke-width="3.2"/>
<circle clip-path="url(#clip572)" cx="1620.5" cy="511.824" r="14.4" fill="#3da44d" fill-rule="evenodd" fill-opacity="1" stroke="#000000" stroke-opacity="1" stroke-width="3.2"/>
<circle clip-path="url(#clip572)" cx="1620.5" cy="1445.72" r="14.4" fill="#3da44d" fill-rule="evenodd" fill-opacity="1" stroke="#000000" stroke-opacity="1" stroke-width="3.2"/>
<circle clip-path="url(#clip572)" cx="1620.5" cy="941.349" r="14.4" fill="#3da44d" fill-rule="evenodd" fill-opacity="1" stroke="#000000" stroke-opacity="1" stroke-width="3.2"/>
<circle clip-path="url(#clip572)" cx="2292.29" cy="453.032" r="14.4" fill="#c271d2" fill-rule="evenodd" fill-opacity="1" stroke="#000000" stroke-opacity="1" stroke-width="3.2"/>
<circle clip-path="url(#clip572)" cx="2292.29" cy="1142.69" r="14.4" fill="#c271d2" fill-rule="evenodd" fill-opacity="1" stroke="#000000" stroke-opacity="1" stroke-width="3.2"/>
<circle clip-path="url(#clip572)" cx="2292.29" cy="1051.7" r="14.4" fill="#c271d2" fill-rule="evenodd" fill-opacity="1" stroke="#000000" stroke-opacity="1" stroke-width="3.2"/>
<circle clip-path="url(#clip572)" cx="2292.29" cy="935.014" r="14.4" fill="#c271d2" fill-rule="evenodd" fill-opacity="1" stroke="#000000" stroke-opacity="1" stroke-width="3.2"/>
<circle clip-path="url(#clip572)" cx="2292.29" cy="1030.05" r="14.4" fill="#c271d2" fill-rule="evenodd" fill-opacity="1" stroke="#000000" stroke-opacity="1" stroke-width="3.2"/>
<circle clip-path="url(#clip572)" cx="2292.29" cy="1022.08" r="14.4" fill="#c271d2" fill-rule="evenodd" fill-opacity="1" stroke="#000000" stroke-opacity="1" stroke-width="3.2"/>
<circle clip-path="url(#clip572)" cx="2292.29" cy="805.689" r="14.4" fill="#c271d2" fill-rule="evenodd" fill-opacity="1" stroke="#000000" stroke-opacity="1" stroke-width="3.2"/>
<circle clip-path="url(#clip572)" cx="2292.29" cy="773.533" r="14.4" fill="#c271d2" fill-rule="evenodd" fill-opacity="1" stroke="#000000" stroke-opacity="1" stroke-width="3.2"/>
<circle clip-path="url(#clip572)" cx="2292.29" cy="1138.42" r="14.4" fill="#c271d2" fill-rule="evenodd" fill-opacity="1" stroke="#000000" stroke-opacity="1" stroke-width="3.2"/>
<circle clip-path="url(#clip572)" cx="2292.29" cy="1283.56" r="14.4" fill="#c271d2" fill-rule="evenodd" fill-opacity="1" stroke="#000000" stroke-opacity="1" stroke-width="3.2"/>
<circle clip-path="url(#clip572)" cx="2292.29" cy="931.588" r="14.4" fill="#c271d2" fill-rule="evenodd" fill-opacity="1" stroke="#000000" stroke-opacity="1" stroke-width="3.2"/>
<circle clip-path="url(#clip572)" cx="2292.29" cy="1218.08" r="14.4" fill="#c271d2" fill-rule="evenodd" fill-opacity="1" stroke="#000000" stroke-opacity="1" stroke-width="3.2"/>
<circle clip-path="url(#clip572)" cx="2292.29" cy="788.524" r="14.4" fill="#c271d2" fill-rule="evenodd" fill-opacity="1" stroke="#000000" stroke-opacity="1" stroke-width="3.2"/>
<circle clip-path="url(#clip572)" cx="2292.29" cy="1237.58" r="14.4" fill="#c271d2" fill-rule="evenodd" fill-opacity="1" stroke="#000000" stroke-opacity="1" stroke-width="3.2"/>
<circle clip-path="url(#clip572)" cx="2292.29" cy="830.536" r="14.4" fill="#c271d2" fill-rule="evenodd" fill-opacity="1" stroke="#000000" stroke-opacity="1" stroke-width="3.2"/>
<circle clip-path="url(#clip572)" cx="2292.29" cy="1054.36" r="14.4" fill="#c271d2" fill-rule="evenodd" fill-opacity="1" stroke="#000000" stroke-opacity="1" stroke-width="3.2"/>
<circle clip-path="url(#clip572)" cx="2292.29" cy="1012.71" r="14.4" fill="#c271d2" fill-rule="evenodd" fill-opacity="1" stroke="#000000" stroke-opacity="1" stroke-width="3.2"/>
<circle clip-path="url(#clip572)" cx="2292.29" cy="942.016" r="14.4" fill="#c271d2" fill-rule="evenodd" fill-opacity="1" stroke="#000000" stroke-opacity="1" stroke-width="3.2"/>
<circle clip-path="url(#clip572)" cx="2292.29" cy="550.889" r="14.4" fill="#c271d2" fill-rule="evenodd" fill-opacity="1" stroke="#000000" stroke-opacity="1" stroke-width="3.2"/>
<circle clip-path="url(#clip572)" cx="2292.29" cy="1249.05" r="14.4" fill="#c271d2" fill-rule="evenodd" fill-opacity="1" stroke="#000000" stroke-opacity="1" stroke-width="3.2"/>
<path clip-path="url(#clip570)" d="M287.647 354.418 L1338.73 354.418 L1338.73 95.2176 L287.647 95.2176  Z" fill="#ffffff" fill-rule="evenodd" fill-opacity="1"/>
<polyline clip-path="url(#clip570)" style="stroke:#000000; stroke-linecap:round; stroke-linejoin:round; stroke-width:4; stroke-opacity:1; fill:none" points="287.647,354.418 1338.73,354.418 1338.73,95.2176 287.647,95.2176 287.647,354.418 "/>
<circle clip-path="url(#clip570)" cx="382.594" cy="147.058" r="20.48" fill="#009af9" fill-rule="evenodd" fill-opacity="1" stroke="#000000" stroke-opacity="1" stroke-width="4.55111"/>
<path clip-path="url(#clip570)" d="M477.542 129.778 L482.218 129.778 L482.218 164.338 L477.542 164.338 L477.542 129.778 Z" fill="#000000" fill-rule="nonzero" fill-opacity="1" /><path clip-path="url(#clip570)" d="M512.889 148.689 L512.889 164.338 L508.629 164.338 L508.629 148.828 Q508.629 145.148 507.194 143.319 Q505.759 141.49 502.889 141.49 Q499.44 141.49 497.449 143.69 Q495.458 145.889 495.458 149.685 L495.458 164.338 L491.176 164.338 L491.176 138.412 L495.458 138.412 L495.458 142.44 Q496.986 140.102 499.046 138.944 Q501.129 137.787 503.838 137.787 Q508.305 137.787 510.597 140.565 Q512.889 143.319 512.889 148.689 Z" fill="#000000" fill-rule="nonzero" fill-opacity="1" /><path clip-path="url(#clip570)" d="M525.597 131.051 L525.597 138.412 L534.37 138.412 L534.37 141.722 L525.597 141.722 L525.597 155.796 Q525.597 158.967 526.453 159.87 Q527.333 160.773 529.995 160.773 L534.37 160.773 L534.37 164.338 L529.995 164.338 Q525.065 164.338 523.19 162.509 Q521.315 160.657 521.315 155.796 L521.315 141.722 L518.19 141.722 L518.19 138.412 L521.315 138.412 L521.315 131.051 L525.597 131.051 Z" fill="#000000" fill-rule="nonzero" fill-opacity="1" /><path clip-path="url(#clip570)" d="M562.148 150.31 L562.148 152.393 L542.564 152.393 Q542.842 156.791 545.203 159.106 Q547.588 161.398 551.824 161.398 Q554.277 161.398 556.569 160.796 Q558.884 160.194 561.152 158.99 L561.152 163.018 Q558.861 163.99 556.453 164.5 Q554.046 165.009 551.569 165.009 Q545.365 165.009 541.731 161.398 Q538.12 157.787 538.12 151.629 Q538.12 145.264 541.546 141.537 Q544.995 137.787 550.828 137.787 Q556.06 137.787 559.092 141.166 Q562.148 144.523 562.148 150.31 M557.888 149.06 Q557.842 145.565 555.921 143.481 Q554.023 141.398 550.875 141.398 Q547.31 141.398 545.157 143.412 Q543.027 145.426 542.703 149.083 L557.888 149.06 Z" fill="#000000" fill-rule="nonzero" fill-opacity="1" /><path clip-path="url(#clip570)" d="M586.198 151.074 Q586.198 146.444 584.277 143.898 Q582.379 141.352 578.93 141.352 Q575.504 141.352 573.583 143.898 Q571.685 146.444 571.685 151.074 Q571.685 155.68 573.583 158.226 Q575.504 160.773 578.93 160.773 Q582.379 160.773 584.277 158.226 Q586.198 155.68 586.198 151.074 M590.458 161.12 Q590.458 167.74 587.518 170.958 Q584.578 174.199 578.513 174.199 Q576.268 174.199 574.277 173.851 Q572.287 173.527 570.412 172.833 L570.412 168.689 Q572.287 169.708 574.115 170.194 Q575.944 170.68 577.842 170.68 Q582.032 170.68 584.115 168.481 Q586.198 166.305 586.198 161.884 L586.198 159.777 Q584.879 162.069 582.819 163.203 Q580.759 164.338 577.888 164.338 Q573.12 164.338 570.203 160.703 Q567.287 157.069 567.287 151.074 Q567.287 145.055 570.203 141.421 Q573.12 137.787 577.888 137.787 Q580.759 137.787 582.819 138.921 Q584.879 140.055 586.198 142.347 L586.198 138.412 L590.458 138.412 L590.458 161.12 Z" fill="#000000" fill-rule="nonzero" fill-opacity="1" /><path clip-path="url(#clip570)" d="M614.254 142.393 Q613.536 141.977 612.68 141.791 Q611.846 141.583 610.828 141.583 Q607.217 141.583 605.272 143.944 Q603.351 146.282 603.351 150.68 L603.351 164.338 L599.069 164.338 L599.069 138.412 L603.351 138.412 L603.351 142.44 Q604.694 140.078 606.847 138.944 Q608.999 137.787 612.078 137.787 Q612.518 137.787 613.05 137.856 Q613.583 137.903 614.231 138.018 L614.254 142.393 Z" fill="#000000" fill-rule="nonzero" fill-opacity="1" /><path clip-path="url(#clip570)" d="M630.504 151.305 Q625.342 151.305 623.351 152.486 Q621.36 153.666 621.36 156.514 Q621.36 158.782 622.842 160.125 Q624.346 161.444 626.916 161.444 Q630.458 161.444 632.587 158.944 Q634.74 156.421 634.74 152.254 L634.74 151.305 L630.504 151.305 M638.999 149.546 L638.999 164.338 L634.74 164.338 L634.74 160.402 Q633.282 162.763 631.106 163.898 Q628.93 165.009 625.782 165.009 Q621.8 165.009 619.439 162.787 Q617.101 160.541 617.101 156.791 Q617.101 152.416 620.018 150.194 Q622.958 147.972 628.768 147.972 L634.74 147.972 L634.74 147.555 Q634.74 144.615 632.795 143.018 Q630.874 141.398 627.379 141.398 Q625.157 141.398 623.05 141.93 Q620.944 142.463 618.999 143.527 L618.999 139.592 Q621.337 138.69 623.536 138.25 Q625.735 137.787 627.819 137.787 Q633.444 137.787 636.221 140.703 Q638.999 143.62 638.999 149.546 Z" fill="#000000" fill-rule="nonzero" fill-opacity="1" /><path clip-path="url(#clip570)" d="M647.772 128.319 L652.031 128.319 L652.031 164.338 L647.772 164.338 L647.772 128.319 Z" fill="#000000" fill-rule="nonzero" fill-opacity="1" /><path clip-path="url(#clip570)" d="M693.073 142.347 L693.073 128.319 L697.332 128.319 L697.332 164.338 L693.073 164.338 L693.073 160.449 Q691.73 162.763 689.67 163.898 Q687.633 165.009 684.763 165.009 Q680.064 165.009 677.101 161.259 Q674.161 157.509 674.161 151.398 Q674.161 145.287 677.101 141.537 Q680.064 137.787 684.763 137.787 Q687.633 137.787 689.67 138.921 Q691.73 140.032 693.073 142.347 M678.559 151.398 Q678.559 156.097 680.48 158.782 Q682.425 161.444 685.804 161.444 Q689.184 161.444 691.128 158.782 Q693.073 156.097 693.073 151.398 Q693.073 146.699 691.128 144.037 Q689.184 141.352 685.804 141.352 Q682.425 141.352 680.48 144.037 Q678.559 146.699 678.559 151.398 Z" fill="#000000" fill-rule="nonzero" fill-opacity="1" /><path clip-path="url(#clip570)" d="M706.105 138.412 L710.364 138.412 L710.364 164.338 L706.105 164.338 L706.105 138.412 M706.105 128.319 L710.364 128.319 L710.364 133.713 L706.105 133.713 L706.105 128.319 Z" fill="#000000" fill-rule="nonzero" fill-opacity="1" /><path clip-path="url(#clip570)" d="M735.804 139.176 L735.804 143.203 Q733.999 142.277 732.054 141.815 Q730.11 141.352 728.026 141.352 Q724.855 141.352 723.258 142.324 Q721.684 143.296 721.684 145.24 Q721.684 146.722 722.818 147.578 Q723.952 148.412 727.378 149.176 L728.837 149.5 Q733.374 150.472 735.272 152.254 Q737.193 154.014 737.193 157.185 Q737.193 160.796 734.323 162.902 Q731.475 165.009 726.476 165.009 Q724.392 165.009 722.124 164.592 Q719.878 164.199 717.378 163.388 L717.378 158.99 Q719.739 160.217 722.031 160.842 Q724.323 161.444 726.568 161.444 Q729.577 161.444 731.198 160.426 Q732.818 159.384 732.818 157.509 Q732.818 155.773 731.638 154.847 Q730.48 153.921 726.522 153.064 L725.04 152.717 Q721.082 151.884 719.323 150.171 Q717.564 148.435 717.564 145.426 Q717.564 141.768 720.156 139.778 Q722.749 137.787 727.517 137.787 Q729.878 137.787 731.962 138.134 Q734.045 138.481 735.804 139.176 Z" fill="#000000" fill-rule="nonzero" fill-opacity="1" /><path clip-path="url(#clip570)" d="M762.633 139.407 L762.633 143.389 Q760.827 142.393 758.998 141.907 Q757.193 141.398 755.341 141.398 Q751.198 141.398 748.906 144.037 Q746.614 146.652 746.614 151.398 Q746.614 156.143 748.906 158.782 Q751.198 161.398 755.341 161.398 Q757.193 161.398 758.998 160.912 Q760.827 160.402 762.633 159.407 L762.633 163.342 Q760.85 164.176 758.929 164.592 Q757.031 165.009 754.878 165.009 Q749.022 165.009 745.573 161.328 Q742.124 157.648 742.124 151.398 Q742.124 145.055 745.596 141.421 Q749.091 137.787 755.156 137.787 Q757.123 137.787 758.998 138.203 Q760.873 138.597 762.633 139.407 Z" fill="#000000" fill-rule="nonzero" fill-opacity="1" /><path clip-path="url(#clip570)" d="M785.063 142.393 Q784.346 141.977 783.489 141.791 Q782.656 141.583 781.637 141.583 Q778.026 141.583 776.082 143.944 Q774.16 146.282 774.16 150.68 L774.16 164.338 L769.878 164.338 L769.878 138.412 L774.16 138.412 L774.16 142.44 Q775.503 140.078 777.656 138.944 Q779.809 137.787 782.887 137.787 Q783.327 137.787 783.859 137.856 Q784.392 137.903 785.04 138.018 L785.063 142.393 Z" fill="#000000" fill-rule="nonzero" fill-opacity="1" /><path clip-path="url(#clip570)" d="M810.665 150.31 L810.665 152.393 L791.082 152.393 Q791.359 156.791 793.721 159.106 Q796.105 161.398 800.341 161.398 Q802.795 161.398 805.086 160.796 Q807.401 160.194 809.67 158.99 L809.67 163.018 Q807.378 163.99 804.97 164.5 Q802.563 165.009 800.086 165.009 Q793.883 165.009 790.248 161.398 Q786.637 157.787 786.637 151.629 Q786.637 145.264 790.063 141.537 Q793.512 137.787 799.345 137.787 Q804.577 137.787 807.609 141.166 Q810.665 144.523 810.665 150.31 M806.406 149.06 Q806.359 145.565 804.438 143.481 Q802.54 141.398 799.392 141.398 Q795.827 141.398 793.674 143.412 Q791.545 145.426 791.221 149.083 L806.406 149.06 Z" fill="#000000" fill-rule="nonzero" fill-opacity="1" /><path clip-path="url(#clip570)" d="M821.869 131.051 L821.869 138.412 L830.642 138.412 L830.642 141.722 L821.869 141.722 L821.869 155.796 Q821.869 158.967 822.725 159.87 Q823.605 160.773 826.267 160.773 L830.642 160.773 L830.642 164.338 L826.267 164.338 Q821.336 164.338 819.461 162.509 Q817.586 160.657 817.586 155.796 L817.586 141.722 L814.461 141.722 L814.461 138.412 L817.586 138.412 L817.586 131.051 L821.869 131.051 Z" fill="#000000" fill-rule="nonzero" fill-opacity="1" /><path clip-path="url(#clip570)" d="M836.243 138.412 L840.503 138.412 L840.503 164.338 L836.243 164.338 L836.243 138.412 M836.243 128.319 L840.503 128.319 L840.503 133.713 L836.243 133.713 L836.243 128.319 Z" fill="#000000" fill-rule="nonzero" fill-opacity="1" /><path clip-path="url(#clip570)" d="M847.563 138.412 L867.794 138.412 L867.794 142.301 L851.776 160.935 L867.794 160.935 L867.794 164.338 L846.984 164.338 L846.984 160.449 L863.003 141.815 L847.563 141.815 L847.563 138.412 Z" fill="#000000" fill-rule="nonzero" fill-opacity="1" /><path clip-path="url(#clip570)" d="M886.081 151.305 Q880.919 151.305 878.928 152.486 Q876.938 153.666 876.938 156.514 Q876.938 158.782 878.419 160.125 Q879.924 161.444 882.493 161.444 Q886.035 161.444 888.164 158.944 Q890.317 156.421 890.317 152.254 L890.317 151.305 L886.081 151.305 M894.576 149.546 L894.576 164.338 L890.317 164.338 L890.317 160.402 Q888.859 162.763 886.683 163.898 Q884.507 165.009 881.359 165.009 Q877.377 165.009 875.016 162.787 Q872.678 160.541 872.678 156.791 Q872.678 152.416 875.595 150.194 Q878.535 147.972 884.345 147.972 L890.317 147.972 L890.317 147.555 Q890.317 144.615 888.373 143.018 Q886.452 141.398 882.956 141.398 Q880.734 141.398 878.627 141.93 Q876.521 142.463 874.577 143.527 L874.577 139.592 Q876.915 138.69 879.114 138.25 Q881.313 137.787 883.396 137.787 Q889.021 137.787 891.799 140.703 Q894.576 143.62 894.576 149.546 Z" fill="#000000" fill-rule="nonzero" fill-opacity="1" /><path clip-path="url(#clip570)" d="M907.563 131.051 L907.563 138.412 L916.336 138.412 L916.336 141.722 L907.563 141.722 L907.563 155.796 Q907.563 158.967 908.419 159.87 Q909.299 160.773 911.961 160.773 L916.336 160.773 L916.336 164.338 L911.961 164.338 Q907.03 164.338 905.155 162.509 Q903.28 160.657 903.28 155.796 L903.28 141.722 L900.155 141.722 L900.155 138.412 L903.28 138.412 L903.28 131.051 L907.563 131.051 Z" fill="#000000" fill-rule="nonzero" fill-opacity="1" /><path clip-path="url(#clip570)" d="M921.937 138.412 L926.197 138.412 L926.197 164.338 L921.937 164.338 L921.937 138.412 M921.937 128.319 L926.197 128.319 L926.197 133.713 L921.937 133.713 L921.937 128.319 Z" fill="#000000" fill-rule="nonzero" fill-opacity="1" /><path clip-path="url(#clip570)" d="M945.155 141.398 Q941.729 141.398 939.738 144.083 Q937.748 146.745 937.748 151.398 Q937.748 156.051 939.715 158.736 Q941.706 161.398 945.155 161.398 Q948.558 161.398 950.548 158.713 Q952.539 156.027 952.539 151.398 Q952.539 146.791 950.548 144.106 Q948.558 141.398 945.155 141.398 M945.155 137.787 Q950.71 137.787 953.882 141.398 Q957.053 145.009 957.053 151.398 Q957.053 157.764 953.882 161.398 Q950.71 165.009 945.155 165.009 Q939.576 165.009 936.405 161.398 Q933.257 157.764 933.257 151.398 Q933.257 145.009 936.405 141.398 Q939.576 137.787 945.155 137.787 Z" fill="#000000" fill-rule="nonzero" fill-opacity="1" /><path clip-path="url(#clip570)" d="M985.664 148.689 L985.664 164.338 L981.405 164.338 L981.405 148.828 Q981.405 145.148 979.97 143.319 Q978.534 141.49 975.664 141.49 Q972.215 141.49 970.224 143.69 Q968.233 145.889 968.233 149.685 L968.233 164.338 L963.951 164.338 L963.951 138.412 L968.233 138.412 L968.233 142.44 Q969.761 140.102 971.821 138.944 Q973.905 137.787 976.613 137.787 Q981.081 137.787 983.372 140.565 Q985.664 143.319 985.664 148.689 Z" fill="#000000" fill-rule="nonzero" fill-opacity="1" /><circle clip-path="url(#clip570)" cx="382.594" cy="198.898" r="20.48" fill="#e26f46" fill-rule="evenodd" fill-opacity="1" stroke="#000000" stroke-opacity="1" stroke-width="4.55111"/>
<path clip-path="url(#clip570)" d="M503.097 211.247 L503.097 201.965 L495.458 201.965 L495.458 198.122 L507.727 198.122 L507.727 212.96 Q505.018 214.881 501.754 215.877 Q498.491 216.849 494.787 216.849 Q486.685 216.849 482.102 212.127 Q477.542 207.381 477.542 198.932 Q477.542 190.46 482.102 185.738 Q486.685 180.993 494.787 180.993 Q498.167 180.993 501.199 181.826 Q504.254 182.659 506.824 184.28 L506.824 189.256 Q504.231 187.057 501.315 185.946 Q498.398 184.835 495.18 184.835 Q488.838 184.835 485.643 188.377 Q482.472 191.918 482.472 198.932 Q482.472 205.923 485.643 209.465 Q488.838 213.006 495.18 213.006 Q497.657 213.006 499.602 212.59 Q501.546 212.15 503.097 211.247 Z" fill="#000000" fill-rule="nonzero" fill-opacity="1" /><path clip-path="url(#clip570)" d="M538.259 202.15 L538.259 204.233 L518.676 204.233 Q518.953 208.631 521.315 210.946 Q523.699 213.238 527.935 213.238 Q530.389 213.238 532.68 212.636 Q534.995 212.034 537.264 210.83 L537.264 214.858 Q534.972 215.83 532.565 216.34 Q530.157 216.849 527.68 216.849 Q521.477 216.849 517.842 213.238 Q514.231 209.627 514.231 203.469 Q514.231 197.104 517.657 193.377 Q521.106 189.627 526.94 189.627 Q532.171 189.627 535.203 193.006 Q538.259 196.363 538.259 202.15 M534 200.9 Q533.953 197.405 532.032 195.321 Q530.134 193.238 526.986 193.238 Q523.421 193.238 521.268 195.252 Q519.139 197.266 518.815 200.923 L534 200.9 Z" fill="#000000" fill-rule="nonzero" fill-opacity="1" /><path clip-path="url(#clip570)" d="M566.8 200.529 L566.8 216.178 L562.541 216.178 L562.541 200.668 Q562.541 196.988 561.106 195.159 Q559.671 193.33 556.8 193.33 Q553.351 193.33 551.361 195.53 Q549.37 197.729 549.37 201.525 L549.37 216.178 L545.088 216.178 L545.088 190.252 L549.37 190.252 L549.37 194.28 Q550.898 191.942 552.958 190.784 Q555.041 189.627 557.75 189.627 Q562.217 189.627 564.509 192.405 Q566.8 195.159 566.8 200.529 Z" fill="#000000" fill-rule="nonzero" fill-opacity="1" /><path clip-path="url(#clip570)" d="M597.472 202.15 L597.472 204.233 L577.888 204.233 Q578.166 208.631 580.527 210.946 Q582.911 213.238 587.148 213.238 Q589.601 213.238 591.893 212.636 Q594.208 212.034 596.476 210.83 L596.476 214.858 Q594.185 215.83 591.777 216.34 Q589.37 216.849 586.893 216.849 Q580.689 216.849 577.055 213.238 Q573.444 209.627 573.444 203.469 Q573.444 197.104 576.87 193.377 Q580.319 189.627 586.152 189.627 Q591.384 189.627 594.416 193.006 Q597.472 196.363 597.472 202.15 M593.212 200.9 Q593.166 197.405 591.245 195.321 Q589.347 193.238 586.198 193.238 Q582.634 193.238 580.481 195.252 Q578.351 197.266 578.027 200.923 L593.212 200.9 Z" fill="#000000" fill-rule="nonzero" fill-opacity="1" /><path clip-path="url(#clip570)" d="M619.485 194.233 Q618.768 193.817 617.911 193.631 Q617.078 193.423 616.059 193.423 Q612.448 193.423 610.504 195.784 Q608.583 198.122 608.583 202.52 L608.583 216.178 L604.3 216.178 L604.3 190.252 L608.583 190.252 L608.583 194.28 Q609.925 191.918 612.078 190.784 Q614.231 189.627 617.309 189.627 Q617.749 189.627 618.282 189.696 Q618.814 189.743 619.462 189.858 L619.485 194.233 Z" fill="#000000" fill-rule="nonzero" fill-opacity="1" /><path clip-path="url(#clip570)" d="M635.735 203.145 Q630.573 203.145 628.583 204.326 Q626.592 205.506 626.592 208.354 Q626.592 210.622 628.073 211.965 Q629.578 213.284 632.147 213.284 Q635.689 213.284 637.819 210.784 Q639.971 208.261 639.971 204.094 L639.971 203.145 L635.735 203.145 M644.231 201.386 L644.231 216.178 L639.971 216.178 L639.971 212.242 Q638.513 214.603 636.337 215.738 Q634.161 216.849 631.013 216.849 Q627.032 216.849 624.67 214.627 Q622.333 212.381 622.333 208.631 Q622.333 204.256 625.249 202.034 Q628.189 199.812 633.999 199.812 L639.971 199.812 L639.971 199.395 Q639.971 196.455 638.027 194.858 Q636.106 193.238 632.61 193.238 Q630.388 193.238 628.282 193.77 Q626.175 194.303 624.231 195.367 L624.231 191.432 Q626.569 190.53 628.768 190.09 Q630.967 189.627 633.05 189.627 Q638.675 189.627 641.453 192.543 Q644.231 195.46 644.231 201.386 Z" fill="#000000" fill-rule="nonzero" fill-opacity="1" /><path clip-path="url(#clip570)" d="M657.217 182.891 L657.217 190.252 L665.99 190.252 L665.99 193.562 L657.217 193.562 L657.217 207.636 Q657.217 210.807 658.073 211.71 Q658.953 212.613 661.615 212.613 L665.99 212.613 L665.99 216.178 L661.615 216.178 Q656.684 216.178 654.809 214.349 Q652.934 212.497 652.934 207.636 L652.934 193.562 L649.809 193.562 L649.809 190.252 L652.934 190.252 L652.934 182.891 L657.217 182.891 Z" fill="#000000" fill-rule="nonzero" fill-opacity="1" /><path clip-path="url(#clip570)" d="M671.592 190.252 L675.851 190.252 L675.851 216.178 L671.592 216.178 L671.592 190.252 M671.592 180.159 L675.851 180.159 L675.851 185.553 L671.592 185.553 L671.592 180.159 Z" fill="#000000" fill-rule="nonzero" fill-opacity="1" /><path clip-path="url(#clip570)" d="M706.314 200.529 L706.314 216.178 L702.054 216.178 L702.054 200.668 Q702.054 196.988 700.619 195.159 Q699.184 193.33 696.314 193.33 Q692.865 193.33 690.874 195.53 Q688.883 197.729 688.883 201.525 L688.883 216.178 L684.601 216.178 L684.601 190.252 L688.883 190.252 L688.883 194.28 Q690.411 191.942 692.471 190.784 Q694.554 189.627 697.263 189.627 Q701.73 189.627 704.022 192.405 Q706.314 195.159 706.314 200.529 Z" fill="#000000" fill-rule="nonzero" fill-opacity="1" /><path clip-path="url(#clip570)" d="M731.869 202.914 Q731.869 198.284 729.948 195.738 Q728.05 193.192 724.601 193.192 Q721.175 193.192 719.253 195.738 Q717.355 198.284 717.355 202.914 Q717.355 207.52 719.253 210.066 Q721.175 212.613 724.601 212.613 Q728.05 212.613 729.948 210.066 Q731.869 207.52 731.869 202.914 M736.128 212.96 Q736.128 219.58 733.188 222.798 Q730.249 226.039 724.184 226.039 Q721.938 226.039 719.948 225.691 Q717.957 225.367 716.082 224.673 L716.082 220.529 Q717.957 221.548 719.786 222.034 Q721.614 222.52 723.513 222.52 Q727.702 222.52 729.786 220.321 Q731.869 218.145 731.869 213.724 L731.869 211.617 Q730.55 213.909 728.489 215.043 Q726.429 216.178 723.559 216.178 Q718.79 216.178 715.874 212.543 Q712.957 208.909 712.957 202.914 Q712.957 196.895 715.874 193.261 Q718.79 189.627 723.559 189.627 Q726.429 189.627 728.489 190.761 Q730.55 191.895 731.869 194.187 L731.869 190.252 L736.128 190.252 L736.128 212.96 Z" fill="#000000" fill-rule="nonzero" fill-opacity="1" /><path clip-path="url(#clip570)" d="M773.096 180.159 L773.096 183.701 L769.022 183.701 Q766.73 183.701 765.827 184.627 Q764.948 185.553 764.948 187.96 L764.948 190.252 L771.961 190.252 L771.961 193.562 L764.948 193.562 L764.948 216.178 L760.665 216.178 L760.665 193.562 L756.591 193.562 L756.591 190.252 L760.665 190.252 L760.665 188.446 Q760.665 184.118 762.679 182.15 Q764.693 180.159 769.068 180.159 L773.096 180.159 Z" fill="#000000" fill-rule="nonzero" fill-opacity="1" /><path clip-path="url(#clip570)" d="M791.683 194.233 Q790.966 193.817 790.109 193.631 Q789.276 193.423 788.258 193.423 Q784.646 193.423 782.702 195.784 Q780.781 198.122 780.781 202.52 L780.781 216.178 L776.498 216.178 L776.498 190.252 L780.781 190.252 L780.781 194.28 Q782.123 191.918 784.276 190.784 Q786.429 189.627 789.508 189.627 Q789.947 189.627 790.48 189.696 Q791.012 189.743 791.66 189.858 L791.683 194.233 Z" fill="#000000" fill-rule="nonzero" fill-opacity="1" /><path clip-path="url(#clip570)" d="M805.156 193.238 Q801.73 193.238 799.739 195.923 Q797.748 198.585 797.748 203.238 Q797.748 207.891 799.716 210.576 Q801.707 213.238 805.156 213.238 Q808.558 213.238 810.549 210.553 Q812.54 207.867 812.54 203.238 Q812.54 198.631 810.549 195.946 Q808.558 193.238 805.156 193.238 M805.156 189.627 Q810.711 189.627 813.882 193.238 Q817.054 196.849 817.054 203.238 Q817.054 209.604 813.882 213.238 Q810.711 216.849 805.156 216.849 Q799.577 216.849 796.406 213.238 Q793.258 209.604 793.258 203.238 Q793.258 196.849 796.406 193.238 Q799.577 189.627 805.156 189.627 Z" fill="#000000" fill-rule="nonzero" fill-opacity="1" /><path clip-path="url(#clip570)" d="M844.299 195.229 Q845.896 192.358 848.118 190.993 Q850.341 189.627 853.35 189.627 Q857.401 189.627 859.6 192.474 Q861.799 195.298 861.799 200.529 L861.799 216.178 L857.516 216.178 L857.516 200.668 Q857.516 196.942 856.197 195.136 Q854.878 193.33 852.169 193.33 Q848.859 193.33 846.938 195.53 Q845.017 197.729 845.017 201.525 L845.017 216.178 L840.734 216.178 L840.734 200.668 Q840.734 196.918 839.415 195.136 Q838.095 193.33 835.341 193.33 Q832.077 193.33 830.156 195.553 Q828.234 197.752 828.234 201.525 L828.234 216.178 L823.952 216.178 L823.952 190.252 L828.234 190.252 L828.234 194.28 Q829.693 191.895 831.73 190.761 Q833.767 189.627 836.568 189.627 Q839.392 189.627 841.359 191.062 Q843.35 192.497 844.299 195.229 Z" fill="#000000" fill-rule="nonzero" fill-opacity="1" /><path clip-path="url(#clip570)" d="M890.225 185.46 L890.225 212.335 L895.873 212.335 Q903.025 212.335 906.336 209.094 Q909.669 205.854 909.669 198.863 Q909.669 191.918 906.336 188.701 Q903.025 185.46 895.873 185.46 L890.225 185.46 M885.549 181.618 L895.155 181.618 Q905.201 181.618 909.9 185.807 Q914.6 189.974 914.6 198.863 Q914.6 207.798 909.877 211.988 Q905.155 216.178 895.155 216.178 L885.549 216.178 L885.549 181.618 Z" fill="#000000" fill-rule="nonzero" fill-opacity="1" /><path clip-path="url(#clip570)" d="M921.868 190.252 L926.127 190.252 L926.127 216.178 L921.868 216.178 L921.868 190.252 M921.868 180.159 L926.127 180.159 L926.127 185.553 L921.868 185.553 L921.868 180.159 Z" fill="#000000" fill-rule="nonzero" fill-opacity="1" /><path clip-path="url(#clip570)" d="M951.567 191.016 L951.567 195.043 Q949.761 194.117 947.817 193.655 Q945.872 193.192 943.789 193.192 Q940.618 193.192 939.021 194.164 Q937.447 195.136 937.447 197.08 Q937.447 198.562 938.581 199.418 Q939.715 200.252 943.141 201.016 L944.599 201.34 Q949.136 202.312 951.034 204.094 Q952.956 205.854 952.956 209.025 Q952.956 212.636 950.085 214.742 Q947.238 216.849 942.238 216.849 Q940.155 216.849 937.886 216.432 Q935.641 216.039 933.141 215.228 L933.141 210.83 Q935.502 212.057 937.794 212.682 Q940.085 213.284 942.331 213.284 Q945.34 213.284 946.96 212.266 Q948.581 211.224 948.581 209.349 Q948.581 207.613 947.4 206.687 Q946.243 205.761 942.285 204.904 L940.803 204.557 Q936.845 203.724 935.086 202.011 Q933.326 200.275 933.326 197.266 Q933.326 193.608 935.919 191.618 Q938.511 189.627 943.28 189.627 Q945.641 189.627 947.724 189.974 Q949.808 190.321 951.567 191.016 Z" fill="#000000" fill-rule="nonzero" fill-opacity="1" /><path clip-path="url(#clip570)" d="M963.951 182.891 L963.951 190.252 L972.724 190.252 L972.724 193.562 L963.951 193.562 L963.951 207.636 Q963.951 210.807 964.808 211.71 Q965.687 212.613 968.349 212.613 L972.724 212.613 L972.724 216.178 L968.349 216.178 Q963.419 216.178 961.544 214.349 Q959.669 212.497 959.669 207.636 L959.669 193.562 L956.544 193.562 L956.544 190.252 L959.669 190.252 L959.669 182.891 L963.951 182.891 Z" fill="#000000" fill-rule="nonzero" fill-opacity="1" /><path clip-path="url(#clip570)" d="M993.349 194.233 Q992.631 193.817 991.775 193.631 Q990.942 193.423 989.923 193.423 Q986.312 193.423 984.368 195.784 Q982.446 198.122 982.446 202.52 L982.446 216.178 L978.164 216.178 L978.164 190.252 L982.446 190.252 L982.446 194.28 Q983.789 191.918 985.942 190.784 Q988.094 189.627 991.173 189.627 Q991.613 189.627 992.145 189.696 Q992.678 189.743 993.326 189.858 L993.349 194.233 Z" fill="#000000" fill-rule="nonzero" fill-opacity="1" /><path clip-path="url(#clip570)" d="M997.817 190.252 L1002.08 190.252 L1002.08 216.178 L997.817 216.178 L997.817 190.252 M997.817 180.159 L1002.08 180.159 L1002.08 185.553 L997.817 185.553 L997.817 180.159 Z" fill="#000000" fill-rule="nonzero" fill-opacity="1" /><path clip-path="url(#clip570)" d="M1029.6 203.238 Q1029.6 198.539 1027.65 195.877 Q1025.73 193.192 1022.35 193.192 Q1018.97 193.192 1017.03 195.877 Q1015.11 198.539 1015.11 203.238 Q1015.11 207.937 1017.03 210.622 Q1018.97 213.284 1022.35 213.284 Q1025.73 213.284 1027.65 210.622 Q1029.6 207.937 1029.6 203.238 M1015.11 194.187 Q1016.45 191.872 1018.49 190.761 Q1020.55 189.627 1023.4 189.627 Q1028.12 189.627 1031.06 193.377 Q1034.02 197.127 1034.02 203.238 Q1034.02 209.349 1031.06 213.099 Q1028.12 216.849 1023.4 216.849 Q1020.55 216.849 1018.49 215.738 Q1016.45 214.603 1015.11 212.289 L1015.11 216.178 L1010.83 216.178 L1010.83 180.159 L1015.11 180.159 L1015.11 194.187 Z" fill="#000000" fill-rule="nonzero" fill-opacity="1" /><path clip-path="url(#clip570)" d="M1040.64 205.946 L1040.64 190.252 L1044.9 190.252 L1044.9 205.784 Q1044.9 209.465 1046.33 211.316 Q1047.77 213.145 1050.64 213.145 Q1054.09 213.145 1056.08 210.946 Q1058.09 208.747 1058.09 204.951 L1058.09 190.252 L1062.35 190.252 L1062.35 216.178 L1058.09 216.178 L1058.09 212.196 Q1056.54 214.557 1054.48 215.715 Q1052.45 216.849 1049.74 216.849 Q1045.27 216.849 1042.96 214.071 Q1040.64 211.293 1040.64 205.946 M1051.36 189.627 L1051.36 189.627 Z" fill="#000000" fill-rule="nonzero" fill-opacity="1" /><path clip-path="url(#clip570)" d="M1075.34 182.891 L1075.34 190.252 L1084.11 190.252 L1084.11 193.562 L1075.34 193.562 L1075.34 207.636 Q1075.34 210.807 1076.2 211.71 Q1077.08 212.613 1079.74 212.613 L1084.11 212.613 L1084.11 216.178 L1079.74 216.178 Q1074.81 216.178 1072.93 214.349 Q1071.06 212.497 1071.06 207.636 L1071.06 193.562 L1067.93 193.562 L1067.93 190.252 L1071.06 190.252 L1071.06 182.891 L1075.34 182.891 Z" fill="#000000" fill-rule="nonzero" fill-opacity="1" /><path clip-path="url(#clip570)" d="M1089.71 190.252 L1093.97 190.252 L1093.97 216.178 L1089.71 216.178 L1089.71 190.252 M1089.71 180.159 L1093.97 180.159 L1093.97 185.553 L1089.71 185.553 L1089.71 180.159 Z" fill="#000000" fill-rule="nonzero" fill-opacity="1" /><path clip-path="url(#clip570)" d="M1112.93 193.238 Q1109.51 193.238 1107.52 195.923 Q1105.52 198.585 1105.52 203.238 Q1105.52 207.891 1107.49 210.576 Q1109.48 213.238 1112.93 213.238 Q1116.33 213.238 1118.33 210.553 Q1120.32 207.867 1120.32 203.238 Q1120.32 198.631 1118.33 195.946 Q1116.33 193.238 1112.93 193.238 M1112.93 189.627 Q1118.49 189.627 1121.66 193.238 Q1124.83 196.849 1124.83 203.238 Q1124.83 209.604 1121.66 213.238 Q1118.49 216.849 1112.93 216.849 Q1107.35 216.849 1104.18 213.238 Q1101.03 209.604 1101.03 203.238 Q1101.03 196.849 1104.18 193.238 Q1107.35 189.627 1112.93 189.627 Z" fill="#000000" fill-rule="nonzero" fill-opacity="1" /><path clip-path="url(#clip570)" d="M1153.44 200.529 L1153.44 216.178 L1149.18 216.178 L1149.18 200.668 Q1149.18 196.988 1147.75 195.159 Q1146.31 193.33 1143.44 193.33 Q1139.99 193.33 1138 195.53 Q1136.01 197.729 1136.01 201.525 L1136.01 216.178 L1131.73 216.178 L1131.73 190.252 L1136.01 190.252 L1136.01 194.28 Q1137.54 191.942 1139.6 190.784 Q1141.68 189.627 1144.39 189.627 Q1148.86 189.627 1151.15 192.405 Q1153.44 195.159 1153.44 200.529 Z" fill="#000000" fill-rule="nonzero" fill-opacity="1" /><path clip-path="url(#clip570)" d="M1178.46 191.016 L1178.46 195.043 Q1176.66 194.117 1174.71 193.655 Q1172.77 193.192 1170.69 193.192 Q1167.51 193.192 1165.92 194.164 Q1164.34 195.136 1164.34 197.08 Q1164.34 198.562 1165.48 199.418 Q1166.61 200.252 1170.04 201.016 L1171.5 201.34 Q1176.03 202.312 1177.93 204.094 Q1179.85 205.854 1179.85 209.025 Q1179.85 212.636 1176.98 214.742 Q1174.14 216.849 1169.14 216.849 Q1167.05 216.849 1164.78 216.432 Q1162.54 216.039 1160.04 215.228 L1160.04 210.83 Q1162.4 212.057 1164.69 212.682 Q1166.98 213.284 1169.23 213.284 Q1172.24 213.284 1173.86 212.266 Q1175.48 211.224 1175.48 209.349 Q1175.48 207.613 1174.3 206.687 Q1173.14 205.761 1169.18 204.904 L1167.7 204.557 Q1163.74 203.724 1161.98 202.011 Q1160.22 200.275 1160.22 197.266 Q1160.22 193.608 1162.82 191.618 Q1165.41 189.627 1170.18 189.627 Q1172.54 189.627 1174.62 189.974 Q1176.7 190.321 1178.46 191.016 Z" fill="#000000" fill-rule="nonzero" fill-opacity="1" /><path clip-path="url(#clip570)" d="M1187.24 210.298 L1192.12 210.298 L1192.12 216.178 L1187.24 216.178 L1187.24 210.298 Z" fill="#000000" fill-rule="nonzero" fill-opacity="1" /><path clip-path="url(#clip570)" d="M1201.7 190.252 L1205.96 190.252 L1205.96 216.641 Q1205.96 221.594 1204.07 223.816 Q1202.19 226.039 1198 226.039 L1196.38 226.039 L1196.38 222.428 L1197.51 222.428 Q1199.95 222.428 1200.82 221.293 Q1201.7 220.182 1201.7 216.641 L1201.7 190.252 M1201.7 180.159 L1205.96 180.159 L1205.96 185.553 L1201.7 185.553 L1201.7 180.159 Z" fill="#000000" fill-rule="nonzero" fill-opacity="1" /><path clip-path="url(#clip570)" d="M1214.88 180.159 L1219.13 180.159 L1219.13 216.178 L1214.88 216.178 L1214.88 180.159 Z" fill="#000000" fill-rule="nonzero" fill-opacity="1" /><circle clip-path="url(#clip570)" cx="382.594" cy="250.738" r="20.48" fill="#3da44d" fill-rule="evenodd" fill-opacity="1" stroke="#000000" stroke-opacity="1" stroke-width="4.55111"/>
<path clip-path="url(#clip570)" d="M503.097 263.087 L503.097 253.805 L495.458 253.805 L495.458 249.962 L507.727 249.962 L507.727 264.8 Q505.018 266.721 501.754 267.717 Q498.491 268.689 494.787 268.689 Q486.685 268.689 482.102 263.967 Q477.542 259.221 477.542 250.772 Q477.542 242.3 482.102 237.578 Q486.685 232.833 494.787 232.833 Q498.167 232.833 501.199 233.666 Q504.254 234.499 506.824 236.12 L506.824 241.096 Q504.231 238.897 501.315 237.786 Q498.398 236.675 495.18 236.675 Q488.838 236.675 485.643 240.217 Q482.472 243.758 482.472 250.772 Q482.472 257.763 485.643 261.305 Q488.838 264.846 495.18 264.846 Q497.657 264.846 499.602 264.43 Q501.546 263.99 503.097 263.087 Z" fill="#000000" fill-rule="nonzero" fill-opacity="1" /><path clip-path="url(#clip570)" d="M538.259 253.99 L538.259 256.073 L518.676 256.073 Q518.953 260.471 521.315 262.786 Q523.699 265.078 527.935 265.078 Q530.389 265.078 532.68 264.476 Q534.995 263.874 537.264 262.67 L537.264 266.698 Q534.972 267.67 532.565 268.18 Q530.157 268.689 527.68 268.689 Q521.477 268.689 517.842 265.078 Q514.231 261.467 514.231 255.309 Q514.231 248.944 517.657 245.217 Q521.106 241.467 526.94 241.467 Q532.171 241.467 535.203 244.846 Q538.259 248.203 538.259 253.99 M534 252.74 Q533.953 249.245 532.032 247.161 Q530.134 245.078 526.986 245.078 Q523.421 245.078 521.268 247.092 Q519.139 249.106 518.815 252.763 L534 252.74 Z" fill="#000000" fill-rule="nonzero" fill-opacity="1" /><path clip-path="url(#clip570)" d="M566.8 252.369 L566.8 268.018 L562.541 268.018 L562.541 252.508 Q562.541 248.828 561.106 246.999 Q559.671 245.17 556.8 245.17 Q553.351 245.17 551.361 247.37 Q549.37 249.569 549.37 253.365 L549.37 268.018 L545.088 268.018 L545.088 242.092 L549.37 242.092 L549.37 246.12 Q550.898 243.782 552.958 242.624 Q555.041 241.467 557.75 241.467 Q562.217 241.467 564.509 244.245 Q566.8 246.999 566.8 252.369 Z" fill="#000000" fill-rule="nonzero" fill-opacity="1" /><path clip-path="url(#clip570)" d="M597.472 253.99 L597.472 256.073 L577.888 256.073 Q578.166 260.471 580.527 262.786 Q582.911 265.078 587.148 265.078 Q589.601 265.078 591.893 264.476 Q594.208 263.874 596.476 262.67 L596.476 266.698 Q594.185 267.67 591.777 268.18 Q589.37 268.689 586.893 268.689 Q580.689 268.689 577.055 265.078 Q573.444 261.467 573.444 255.309 Q573.444 248.944 576.87 245.217 Q580.319 241.467 586.152 241.467 Q591.384 241.467 594.416 244.846 Q597.472 248.203 597.472 253.99 M593.212 252.74 Q593.166 249.245 591.245 247.161 Q589.347 245.078 586.198 245.078 Q582.634 245.078 580.481 247.092 Q578.351 249.106 578.027 252.763 L593.212 252.74 Z" fill="#000000" fill-rule="nonzero" fill-opacity="1" /><path clip-path="url(#clip570)" d="M619.485 246.073 Q618.768 245.657 617.911 245.471 Q617.078 245.263 616.059 245.263 Q612.448 245.263 610.504 247.624 Q608.583 249.962 608.583 254.36 L608.583 268.018 L604.3 268.018 L604.3 242.092 L608.583 242.092 L608.583 246.12 Q609.925 243.758 612.078 242.624 Q614.231 241.467 617.309 241.467 Q617.749 241.467 618.282 241.536 Q618.814 241.583 619.462 241.698 L619.485 246.073 Z" fill="#000000" fill-rule="nonzero" fill-opacity="1" /><path clip-path="url(#clip570)" d="M635.735 254.985 Q630.573 254.985 628.583 256.166 Q626.592 257.346 626.592 260.194 Q626.592 262.462 628.073 263.805 Q629.578 265.124 632.147 265.124 Q635.689 265.124 637.819 262.624 Q639.971 260.101 639.971 255.934 L639.971 254.985 L635.735 254.985 M644.231 253.226 L644.231 268.018 L639.971 268.018 L639.971 264.082 Q638.513 266.443 636.337 267.578 Q634.161 268.689 631.013 268.689 Q627.032 268.689 624.67 266.467 Q622.333 264.221 622.333 260.471 Q622.333 256.096 625.249 253.874 Q628.189 251.652 633.999 251.652 L639.971 251.652 L639.971 251.235 Q639.971 248.295 638.027 246.698 Q636.106 245.078 632.61 245.078 Q630.388 245.078 628.282 245.61 Q626.175 246.143 624.231 247.207 L624.231 243.272 Q626.569 242.37 628.768 241.93 Q630.967 241.467 633.05 241.467 Q638.675 241.467 641.453 244.383 Q644.231 247.3 644.231 253.226 Z" fill="#000000" fill-rule="nonzero" fill-opacity="1" /><path clip-path="url(#clip570)" d="M657.217 234.731 L657.217 242.092 L665.99 242.092 L665.99 245.402 L657.217 245.402 L657.217 259.476 Q657.217 262.647 658.073 263.55 Q658.953 264.453 661.615 264.453 L665.99 264.453 L665.99 268.018 L661.615 268.018 Q656.684 268.018 654.809 266.189 Q652.934 264.337 652.934 259.476 L652.934 245.402 L649.809 245.402 L649.809 242.092 L652.934 242.092 L652.934 234.731 L657.217 234.731 Z" fill="#000000" fill-rule="nonzero" fill-opacity="1" /><path clip-path="url(#clip570)" d="M671.592 242.092 L675.851 242.092 L675.851 268.018 L671.592 268.018 L671.592 242.092 M671.592 231.999 L675.851 231.999 L675.851 237.393 L671.592 237.393 L671.592 231.999 Z" fill="#000000" fill-rule="nonzero" fill-opacity="1" /><path clip-path="url(#clip570)" d="M706.314 252.369 L706.314 268.018 L702.054 268.018 L702.054 252.508 Q702.054 248.828 700.619 246.999 Q699.184 245.17 696.314 245.17 Q692.865 245.17 690.874 247.37 Q688.883 249.569 688.883 253.365 L688.883 268.018 L684.601 268.018 L684.601 242.092 L688.883 242.092 L688.883 246.12 Q690.411 243.782 692.471 242.624 Q694.554 241.467 697.263 241.467 Q701.73 241.467 704.022 244.245 Q706.314 246.999 706.314 252.369 Z" fill="#000000" fill-rule="nonzero" fill-opacity="1" /><path clip-path="url(#clip570)" d="M731.869 254.754 Q731.869 250.124 729.948 247.578 Q728.05 245.032 724.601 245.032 Q721.175 245.032 719.253 247.578 Q717.355 250.124 717.355 254.754 Q717.355 259.36 719.253 261.906 Q721.175 264.453 724.601 264.453 Q728.05 264.453 729.948 261.906 Q731.869 259.36 731.869 254.754 M736.128 264.8 Q736.128 271.42 733.188 274.638 Q730.249 277.879 724.184 277.879 Q721.938 277.879 719.948 277.531 Q717.957 277.207 716.082 276.513 L716.082 272.369 Q717.957 273.388 719.786 273.874 Q721.614 274.36 723.513 274.36 Q727.702 274.36 729.786 272.161 Q731.869 269.985 731.869 265.564 L731.869 263.457 Q730.55 265.749 728.489 266.883 Q726.429 268.018 723.559 268.018 Q718.79 268.018 715.874 264.383 Q712.957 260.749 712.957 254.754 Q712.957 248.735 715.874 245.101 Q718.79 241.467 723.559 241.467 Q726.429 241.467 728.489 242.601 Q730.55 243.735 731.869 246.027 L731.869 242.092 L736.128 242.092 L736.128 264.8 Z" fill="#000000" fill-rule="nonzero" fill-opacity="1" /><path clip-path="url(#clip570)" d="M773.096 231.999 L773.096 235.541 L769.022 235.541 Q766.73 235.541 765.827 236.467 Q764.948 237.393 764.948 239.8 L764.948 242.092 L771.961 242.092 L771.961 245.402 L764.948 245.402 L764.948 268.018 L760.665 268.018 L760.665 245.402 L756.591 245.402 L756.591 242.092 L760.665 242.092 L760.665 240.286 Q760.665 235.958 762.679 233.99 Q764.693 231.999 769.068 231.999 L773.096 231.999 Z" fill="#000000" fill-rule="nonzero" fill-opacity="1" /><path clip-path="url(#clip570)" d="M791.683 246.073 Q790.966 245.657 790.109 245.471 Q789.276 245.263 788.258 245.263 Q784.646 245.263 782.702 247.624 Q780.781 249.962 780.781 254.36 L780.781 268.018 L776.498 268.018 L776.498 242.092 L780.781 242.092 L780.781 246.12 Q782.123 243.758 784.276 242.624 Q786.429 241.467 789.508 241.467 Q789.947 241.467 790.48 241.536 Q791.012 241.583 791.66 241.698 L791.683 246.073 Z" fill="#000000" fill-rule="nonzero" fill-opacity="1" /><path clip-path="url(#clip570)" d="M805.156 245.078 Q801.73 245.078 799.739 247.763 Q797.748 250.425 797.748 255.078 Q797.748 259.731 799.716 262.416 Q801.707 265.078 805.156 265.078 Q808.558 265.078 810.549 262.393 Q812.54 259.707 812.54 255.078 Q812.54 250.471 810.549 247.786 Q808.558 245.078 805.156 245.078 M805.156 241.467 Q810.711 241.467 813.882 245.078 Q817.054 248.689 817.054 255.078 Q817.054 261.444 813.882 265.078 Q810.711 268.689 805.156 268.689 Q799.577 268.689 796.406 265.078 Q793.258 261.444 793.258 255.078 Q793.258 248.689 796.406 245.078 Q799.577 241.467 805.156 241.467 Z" fill="#000000" fill-rule="nonzero" fill-opacity="1" /><path clip-path="url(#clip570)" d="M844.299 247.069 Q845.896 244.198 848.118 242.833 Q850.341 241.467 853.35 241.467 Q857.401 241.467 859.6 244.314 Q861.799 247.138 861.799 252.369 L861.799 268.018 L857.516 268.018 L857.516 252.508 Q857.516 248.782 856.197 246.976 Q854.878 245.17 852.169 245.17 Q848.859 245.17 846.938 247.37 Q845.017 249.569 845.017 253.365 L845.017 268.018 L840.734 268.018 L840.734 252.508 Q840.734 248.758 839.415 246.976 Q838.095 245.17 835.341 245.17 Q832.077 245.17 830.156 247.393 Q828.234 249.592 828.234 253.365 L828.234 268.018 L823.952 268.018 L823.952 242.092 L828.234 242.092 L828.234 246.12 Q829.693 243.735 831.73 242.601 Q833.767 241.467 836.568 241.467 Q839.392 241.467 841.359 242.902 Q843.35 244.337 844.299 247.069 Z" fill="#000000" fill-rule="nonzero" fill-opacity="1" /><path clip-path="url(#clip570)" d="M900.387 246.073 Q899.669 245.657 898.813 245.471 Q897.979 245.263 896.961 245.263 Q893.35 245.263 891.405 247.624 Q889.484 249.962 889.484 254.36 L889.484 268.018 L885.202 268.018 L885.202 242.092 L889.484 242.092 L889.484 246.12 Q890.826 243.758 892.979 242.624 Q895.132 241.467 898.211 241.467 Q898.651 241.467 899.183 241.536 Q899.715 241.583 900.363 241.698 L900.387 246.073 Z" fill="#000000" fill-rule="nonzero" fill-opacity="1" /><path clip-path="url(#clip570)" d="M925.988 253.99 L925.988 256.073 L906.405 256.073 Q906.683 260.471 909.044 262.786 Q911.428 265.078 915.664 265.078 Q918.118 265.078 920.41 264.476 Q922.724 263.874 924.993 262.67 L924.993 266.698 Q922.701 267.67 920.294 268.18 Q917.887 268.689 915.41 268.689 Q909.206 268.689 905.572 265.078 Q901.961 261.467 901.961 255.309 Q901.961 248.944 905.387 245.217 Q908.836 241.467 914.669 241.467 Q919.9 241.467 922.933 244.846 Q925.988 248.203 925.988 253.99 M921.729 252.74 Q921.683 249.245 919.762 247.161 Q917.863 245.078 914.715 245.078 Q911.15 245.078 908.998 247.092 Q906.868 249.106 906.544 252.763 L921.729 252.74 Z" fill="#000000" fill-rule="nonzero" fill-opacity="1" /><path clip-path="url(#clip570)" d="M932.979 242.092 L937.238 242.092 L937.238 268.481 Q937.238 273.434 935.34 275.656 Q933.465 277.879 929.275 277.879 L927.655 277.879 L927.655 274.268 L928.789 274.268 Q931.22 274.268 932.099 273.133 Q932.979 272.022 932.979 268.481 L932.979 242.092 M932.979 231.999 L937.238 231.999 L937.238 237.393 L932.979 237.393 L932.979 231.999 Z" fill="#000000" fill-rule="nonzero" fill-opacity="1" /><path clip-path="url(#clip570)" d="M968.326 253.99 L968.326 256.073 L948.743 256.073 Q949.021 260.471 951.382 262.786 Q953.766 265.078 958.002 265.078 Q960.456 265.078 962.747 264.476 Q965.062 263.874 967.331 262.67 L967.331 266.698 Q965.039 267.67 962.632 268.18 Q960.224 268.689 957.747 268.689 Q951.544 268.689 947.91 265.078 Q944.298 261.467 944.298 255.309 Q944.298 248.944 947.724 245.217 Q951.173 241.467 957.007 241.467 Q962.238 241.467 965.271 244.846 Q968.326 248.203 968.326 253.99 M964.067 252.74 Q964.021 249.245 962.099 247.161 Q960.201 245.078 957.053 245.078 Q953.488 245.078 951.335 247.092 Q949.206 249.106 948.882 252.763 L964.067 252.74 Z" fill="#000000" fill-rule="nonzero" fill-opacity="1" /><path clip-path="url(#clip570)" d="M993.974 243.087 L993.974 247.069 Q992.169 246.073 990.34 245.587 Q988.534 245.078 986.682 245.078 Q982.539 245.078 980.247 247.717 Q977.956 250.332 977.956 255.078 Q977.956 259.823 980.247 262.462 Q982.539 265.078 986.682 265.078 Q988.534 265.078 990.34 264.592 Q992.169 264.082 993.974 263.087 L993.974 267.022 Q992.192 267.856 990.27 268.272 Q988.372 268.689 986.219 268.689 Q980.363 268.689 976.914 265.008 Q973.465 261.328 973.465 255.078 Q973.465 248.735 976.937 245.101 Q980.432 241.467 986.497 241.467 Q988.465 241.467 990.34 241.883 Q992.215 242.277 993.974 243.087 Z" fill="#000000" fill-rule="nonzero" fill-opacity="1" /><path clip-path="url(#clip570)" d="M1005.59 234.731 L1005.59 242.092 L1014.37 242.092 L1014.37 245.402 L1005.59 245.402 L1005.59 259.476 Q1005.59 262.647 1006.45 263.55 Q1007.33 264.453 1009.99 264.453 L1014.37 264.453 L1014.37 268.018 L1009.99 268.018 Q1005.06 268.018 1003.19 266.189 Q1001.31 264.337 1001.31 259.476 L1001.31 245.402 L998.187 245.402 L998.187 242.092 L1001.31 242.092 L1001.31 234.731 L1005.59 234.731 Z" fill="#000000" fill-rule="nonzero" fill-opacity="1" /><path clip-path="url(#clip570)" d="M1019.97 242.092 L1024.23 242.092 L1024.23 268.018 L1019.97 268.018 L1019.97 242.092 M1019.97 231.999 L1024.23 231.999 L1024.23 237.393 L1019.97 237.393 L1019.97 231.999 Z" fill="#000000" fill-rule="nonzero" fill-opacity="1" /><path clip-path="url(#clip570)" d="M1043.19 245.078 Q1039.76 245.078 1037.77 247.763 Q1035.78 250.425 1035.78 255.078 Q1035.78 259.731 1037.75 262.416 Q1039.74 265.078 1043.19 265.078 Q1046.59 265.078 1048.58 262.393 Q1050.57 259.707 1050.57 255.078 Q1050.57 250.471 1048.58 247.786 Q1046.59 245.078 1043.19 245.078 M1043.19 241.467 Q1048.74 241.467 1051.91 245.078 Q1055.08 248.689 1055.08 255.078 Q1055.08 261.444 1051.91 265.078 Q1048.74 268.689 1043.19 268.689 Q1037.61 268.689 1034.44 265.078 Q1031.29 261.444 1031.29 255.078 Q1031.29 248.689 1034.44 245.078 Q1037.61 241.467 1043.19 241.467 Z" fill="#000000" fill-rule="nonzero" fill-opacity="1" /><path clip-path="url(#clip570)" d="M1083.7 252.369 L1083.7 268.018 L1079.44 268.018 L1079.44 252.508 Q1079.44 248.828 1078 246.999 Q1076.57 245.17 1073.7 245.17 Q1070.25 245.17 1068.26 247.37 Q1066.27 249.569 1066.27 253.365 L1066.27 268.018 L1061.98 268.018 L1061.98 242.092 L1066.27 242.092 L1066.27 246.12 Q1067.79 243.782 1069.85 242.624 Q1071.94 241.467 1074.64 241.467 Q1079.11 241.467 1081.4 244.245 Q1083.7 246.999 1083.7 252.369 Z" fill="#000000" fill-rule="nonzero" fill-opacity="1" /><path clip-path="url(#clip570)" d="M1123.79 242.856 L1123.79 246.883 Q1121.98 245.957 1120.04 245.495 Q1118.09 245.032 1116.01 245.032 Q1112.84 245.032 1111.24 246.004 Q1109.67 246.976 1109.67 248.92 Q1109.67 250.402 1110.8 251.258 Q1111.94 252.092 1115.36 252.856 L1116.82 253.18 Q1121.36 254.152 1123.26 255.934 Q1125.18 257.694 1125.18 260.865 Q1125.18 264.476 1122.31 266.582 Q1119.46 268.689 1114.46 268.689 Q1112.38 268.689 1110.11 268.272 Q1107.86 267.879 1105.36 267.068 L1105.36 262.67 Q1107.72 263.897 1110.02 264.522 Q1112.31 265.124 1114.55 265.124 Q1117.56 265.124 1119.18 264.106 Q1120.8 263.064 1120.8 261.189 Q1120.8 259.453 1119.62 258.527 Q1118.46 257.601 1114.51 256.744 L1113.02 256.397 Q1109.07 255.564 1107.31 253.851 Q1105.55 252.115 1105.55 249.106 Q1105.55 245.448 1108.14 243.458 Q1110.73 241.467 1115.5 241.467 Q1117.86 241.467 1119.95 241.814 Q1122.03 242.161 1123.79 242.856 Z" fill="#000000" fill-rule="nonzero" fill-opacity="1" /><path clip-path="url(#clip570)" d="M1143.74 254.985 Q1138.58 254.985 1136.59 256.166 Q1134.6 257.346 1134.6 260.194 Q1134.6 262.462 1136.08 263.805 Q1137.58 265.124 1140.15 265.124 Q1143.7 265.124 1145.83 262.624 Q1147.98 260.101 1147.98 255.934 L1147.98 254.985 L1143.74 254.985 M1152.24 253.226 L1152.24 268.018 L1147.98 268.018 L1147.98 264.082 Q1146.52 266.443 1144.34 267.578 Q1142.17 268.689 1139.02 268.689 Q1135.04 268.689 1132.68 266.467 Q1130.34 264.221 1130.34 260.471 Q1130.34 256.096 1133.26 253.874 Q1136.2 251.652 1142.01 251.652 L1147.98 251.652 L1147.98 251.235 Q1147.98 248.295 1146.03 246.698 Q1144.11 245.078 1140.62 245.078 Q1138.39 245.078 1136.29 245.61 Q1134.18 246.143 1132.24 247.207 L1132.24 243.272 Q1134.58 242.37 1136.77 241.93 Q1138.97 241.467 1141.06 241.467 Q1146.68 241.467 1149.46 244.383 Q1152.24 247.3 1152.24 253.226 Z" fill="#000000" fill-rule="nonzero" fill-opacity="1" /><path clip-path="url(#clip570)" d="M1181.2 247.069 Q1182.79 244.198 1185.01 242.833 Q1187.24 241.467 1190.25 241.467 Q1194.3 241.467 1196.5 244.314 Q1198.7 247.138 1198.7 252.369 L1198.7 268.018 L1194.41 268.018 L1194.41 252.508 Q1194.41 248.782 1193.09 246.976 Q1191.77 245.17 1189.07 245.17 Q1185.76 245.17 1183.83 247.37 Q1181.91 249.569 1181.91 253.365 L1181.91 268.018 L1177.63 268.018 L1177.63 252.508 Q1177.63 248.758 1176.31 246.976 Q1174.99 245.17 1172.24 245.17 Q1168.97 245.17 1167.05 247.393 Q1165.13 249.592 1165.13 253.365 L1165.13 268.018 L1160.85 268.018 L1160.85 242.092 L1165.13 242.092 L1165.13 246.12 Q1166.59 243.735 1168.63 242.601 Q1170.66 241.467 1173.46 241.467 Q1176.29 241.467 1178.26 242.902 Q1180.25 244.337 1181.2 247.069 Z" fill="#000000" fill-rule="nonzero" fill-opacity="1" /><path clip-path="url(#clip570)" d="M1211.31 264.129 L1211.31 277.879 L1207.03 277.879 L1207.03 242.092 L1211.31 242.092 L1211.31 246.027 Q1212.65 243.712 1214.69 242.601 Q1216.75 241.467 1219.6 241.467 Q1224.32 241.467 1227.26 245.217 Q1230.22 248.967 1230.22 255.078 Q1230.22 261.189 1227.26 264.939 Q1224.32 268.689 1219.6 268.689 Q1216.75 268.689 1214.69 267.578 Q1212.65 266.443 1211.31 264.129 M1225.8 255.078 Q1225.8 250.379 1223.86 247.717 Q1221.94 245.032 1218.56 245.032 Q1215.18 245.032 1213.23 247.717 Q1211.31 250.379 1211.31 255.078 Q1211.31 259.777 1213.23 262.462 Q1215.18 265.124 1218.56 265.124 Q1221.94 265.124 1223.86 262.462 Q1225.8 259.777 1225.8 255.078 Z" fill="#000000" fill-rule="nonzero" fill-opacity="1" /><path clip-path="url(#clip570)" d="M1237.28 231.999 L1241.54 231.999 L1241.54 268.018 L1237.28 268.018 L1237.28 231.999 Z" fill="#000000" fill-rule="nonzero" fill-opacity="1" /><path clip-path="url(#clip570)" d="M1250.45 242.092 L1254.71 242.092 L1254.71 268.018 L1250.45 268.018 L1250.45 242.092 M1250.45 231.999 L1254.71 231.999 L1254.71 237.393 L1250.45 237.393 L1250.45 231.999 Z" fill="#000000" fill-rule="nonzero" fill-opacity="1" /><path clip-path="url(#clip570)" d="M1285.18 252.369 L1285.18 268.018 L1280.92 268.018 L1280.92 252.508 Q1280.92 248.828 1279.48 246.999 Q1278.05 245.17 1275.18 245.17 Q1271.73 245.17 1269.74 247.37 Q1267.75 249.569 1267.75 253.365 L1267.75 268.018 L1263.46 268.018 L1263.46 242.092 L1267.75 242.092 L1267.75 246.12 Q1269.27 243.782 1271.33 242.624 Q1273.42 241.467 1276.13 241.467 Q1280.59 241.467 1282.88 244.245 Q1285.18 246.999 1285.18 252.369 Z" fill="#000000" fill-rule="nonzero" fill-opacity="1" /><path clip-path="url(#clip570)" d="M1310.73 254.754 Q1310.73 250.124 1308.81 247.578 Q1306.91 245.032 1303.46 245.032 Q1300.04 245.032 1298.12 247.578 Q1296.22 250.124 1296.22 254.754 Q1296.22 259.36 1298.12 261.906 Q1300.04 264.453 1303.46 264.453 Q1306.91 264.453 1308.81 261.906 Q1310.73 259.36 1310.73 254.754 M1314.99 264.8 Q1314.99 271.42 1312.05 274.638 Q1309.11 277.879 1303.05 277.879 Q1300.8 277.879 1298.81 277.531 Q1296.82 277.207 1294.94 276.513 L1294.94 272.369 Q1296.82 273.388 1298.65 273.874 Q1300.48 274.36 1302.38 274.36 Q1306.56 274.36 1308.65 272.161 Q1310.73 269.985 1310.73 265.564 L1310.73 263.457 Q1309.41 265.749 1307.35 266.883 Q1305.29 268.018 1302.42 268.018 Q1297.65 268.018 1294.74 264.383 Q1291.82 260.749 1291.82 254.754 Q1291.82 248.735 1294.74 245.101 Q1297.65 241.467 1302.42 241.467 Q1305.29 241.467 1307.35 242.601 Q1309.41 243.735 1310.73 246.027 L1310.73 242.092 L1314.99 242.092 L1314.99 264.8 Z" fill="#000000" fill-rule="nonzero" fill-opacity="1" /><circle clip-path="url(#clip570)" cx="382.594" cy="302.578" r="20.48" fill="#c271d2" fill-rule="evenodd" fill-opacity="1" stroke="#000000" stroke-opacity="1" stroke-width="4.55111"/>
<path clip-path="url(#clip570)" d="M503.097 314.927 L503.097 305.645 L495.458 305.645 L495.458 301.802 L507.727 301.802 L507.727 316.64 Q505.018 318.561 501.754 319.557 Q498.491 320.529 494.787 320.529 Q486.685 320.529 482.102 315.807 Q477.542 311.061 477.542 302.612 Q477.542 294.14 482.102 289.418 Q486.685 284.673 494.787 284.673 Q498.167 284.673 501.199 285.506 Q504.254 286.339 506.824 287.96 L506.824 292.936 Q504.231 290.737 501.315 289.626 Q498.398 288.515 495.18 288.515 Q488.838 288.515 485.643 292.057 Q482.472 295.598 482.472 302.612 Q482.472 309.603 485.643 313.145 Q488.838 316.686 495.18 316.686 Q497.657 316.686 499.602 316.27 Q501.546 315.83 503.097 314.927 Z" fill="#000000" fill-rule="nonzero" fill-opacity="1" /><path clip-path="url(#clip570)" d="M538.259 305.83 L538.259 307.913 L518.676 307.913 Q518.953 312.311 521.315 314.626 Q523.699 316.918 527.935 316.918 Q530.389 316.918 532.68 316.316 Q534.995 315.714 537.264 314.51 L537.264 318.538 Q534.972 319.51 532.565 320.02 Q530.157 320.529 527.68 320.529 Q521.477 320.529 517.842 316.918 Q514.231 313.307 514.231 307.149 Q514.231 300.784 517.657 297.057 Q521.106 293.307 526.94 293.307 Q532.171 293.307 535.203 296.686 Q538.259 300.043 538.259 305.83 M534 304.58 Q533.953 301.085 532.032 299.001 Q530.134 296.918 526.986 296.918 Q523.421 296.918 521.268 298.932 Q519.139 300.946 518.815 304.603 L534 304.58 Z" fill="#000000" fill-rule="nonzero" fill-opacity="1" /><path clip-path="url(#clip570)" d="M566.8 304.209 L566.8 319.858 L562.541 319.858 L562.541 304.348 Q562.541 300.668 561.106 298.839 Q559.671 297.01 556.8 297.01 Q553.351 297.01 551.361 299.21 Q549.37 301.409 549.37 305.205 L549.37 319.858 L545.088 319.858 L545.088 293.932 L549.37 293.932 L549.37 297.96 Q550.898 295.622 552.958 294.464 Q555.041 293.307 557.75 293.307 Q562.217 293.307 564.509 296.085 Q566.8 298.839 566.8 304.209 Z" fill="#000000" fill-rule="nonzero" fill-opacity="1" /><path clip-path="url(#clip570)" d="M597.472 305.83 L597.472 307.913 L577.888 307.913 Q578.166 312.311 580.527 314.626 Q582.911 316.918 587.148 316.918 Q589.601 316.918 591.893 316.316 Q594.208 315.714 596.476 314.51 L596.476 318.538 Q594.185 319.51 591.777 320.02 Q589.37 320.529 586.893 320.529 Q580.689 320.529 577.055 316.918 Q573.444 313.307 573.444 307.149 Q573.444 300.784 576.87 297.057 Q580.319 293.307 586.152 293.307 Q591.384 293.307 594.416 296.686 Q597.472 300.043 597.472 305.83 M593.212 304.58 Q593.166 301.085 591.245 299.001 Q589.347 296.918 586.198 296.918 Q582.634 296.918 580.481 298.932 Q578.351 300.946 578.027 304.603 L593.212 304.58 Z" fill="#000000" fill-rule="nonzero" fill-opacity="1" /><path clip-path="url(#clip570)" d="M619.485 297.913 Q618.768 297.497 617.911 297.311 Q617.078 297.103 616.059 297.103 Q612.448 297.103 610.504 299.464 Q608.583 301.802 608.583 306.2 L608.583 319.858 L604.3 319.858 L604.3 293.932 L608.583 293.932 L608.583 297.96 Q609.925 295.598 612.078 294.464 Q614.231 293.307 617.309 293.307 Q617.749 293.307 618.282 293.376 Q618.814 293.423 619.462 293.538 L619.485 297.913 Z" fill="#000000" fill-rule="nonzero" fill-opacity="1" /><path clip-path="url(#clip570)" d="M635.735 306.825 Q630.573 306.825 628.583 308.006 Q626.592 309.186 626.592 312.034 Q626.592 314.302 628.073 315.645 Q629.578 316.964 632.147 316.964 Q635.689 316.964 637.819 314.464 Q639.971 311.941 639.971 307.774 L639.971 306.825 L635.735 306.825 M644.231 305.066 L644.231 319.858 L639.971 319.858 L639.971 315.922 Q638.513 318.283 636.337 319.418 Q634.161 320.529 631.013 320.529 Q627.032 320.529 624.67 318.307 Q622.333 316.061 622.333 312.311 Q622.333 307.936 625.249 305.714 Q628.189 303.492 633.999 303.492 L639.971 303.492 L639.971 303.075 Q639.971 300.135 638.027 298.538 Q636.106 296.918 632.61 296.918 Q630.388 296.918 628.282 297.45 Q626.175 297.983 624.231 299.047 L624.231 295.112 Q626.569 294.21 628.768 293.77 Q630.967 293.307 633.05 293.307 Q638.675 293.307 641.453 296.223 Q644.231 299.14 644.231 305.066 Z" fill="#000000" fill-rule="nonzero" fill-opacity="1" /><path clip-path="url(#clip570)" d="M657.217 286.571 L657.217 293.932 L665.99 293.932 L665.99 297.242 L657.217 297.242 L657.217 311.316 Q657.217 314.487 658.073 315.39 Q658.953 316.293 661.615 316.293 L665.99 316.293 L665.99 319.858 L661.615 319.858 Q656.684 319.858 654.809 318.029 Q652.934 316.177 652.934 311.316 L652.934 297.242 L649.809 297.242 L649.809 293.932 L652.934 293.932 L652.934 286.571 L657.217 286.571 Z" fill="#000000" fill-rule="nonzero" fill-opacity="1" /><path clip-path="url(#clip570)" d="M671.592 293.932 L675.851 293.932 L675.851 319.858 L671.592 319.858 L671.592 293.932 M671.592 283.839 L675.851 283.839 L675.851 289.233 L671.592 289.233 L671.592 283.839 Z" fill="#000000" fill-rule="nonzero" fill-opacity="1" /><path clip-path="url(#clip570)" d="M706.314 304.209 L706.314 319.858 L702.054 319.858 L702.054 304.348 Q702.054 300.668 700.619 298.839 Q699.184 297.01 696.314 297.01 Q692.865 297.01 690.874 299.21 Q688.883 301.409 688.883 305.205 L688.883 319.858 L684.601 319.858 L684.601 293.932 L688.883 293.932 L688.883 297.96 Q690.411 295.622 692.471 294.464 Q694.554 293.307 697.263 293.307 Q701.73 293.307 704.022 296.085 Q706.314 298.839 706.314 304.209 Z" fill="#000000" fill-rule="nonzero" fill-opacity="1" /><path clip-path="url(#clip570)" d="M731.869 306.594 Q731.869 301.964 729.948 299.418 Q728.05 296.872 724.601 296.872 Q721.175 296.872 719.253 299.418 Q717.355 301.964 717.355 306.594 Q717.355 311.2 719.253 313.746 Q721.175 316.293 724.601 316.293 Q728.05 316.293 729.948 313.746 Q731.869 311.2 731.869 306.594 M736.128 316.64 Q736.128 323.26 733.188 326.478 Q730.249 329.719 724.184 329.719 Q721.938 329.719 719.948 329.371 Q717.957 329.047 716.082 328.353 L716.082 324.209 Q717.957 325.228 719.786 325.714 Q721.614 326.2 723.513 326.2 Q727.702 326.2 729.786 324.001 Q731.869 321.825 731.869 317.404 L731.869 315.297 Q730.55 317.589 728.489 318.723 Q726.429 319.858 723.559 319.858 Q718.79 319.858 715.874 316.223 Q712.957 312.589 712.957 306.594 Q712.957 300.575 715.874 296.941 Q718.79 293.307 723.559 293.307 Q726.429 293.307 728.489 294.441 Q730.55 295.575 731.869 297.867 L731.869 293.932 L736.128 293.932 L736.128 316.64 Z" fill="#000000" fill-rule="nonzero" fill-opacity="1" /><path clip-path="url(#clip570)" d="M773.096 283.839 L773.096 287.381 L769.022 287.381 Q766.73 287.381 765.827 288.307 Q764.948 289.233 764.948 291.64 L764.948 293.932 L771.961 293.932 L771.961 297.242 L764.948 297.242 L764.948 319.858 L760.665 319.858 L760.665 297.242 L756.591 297.242 L756.591 293.932 L760.665 293.932 L760.665 292.126 Q760.665 287.798 762.679 285.83 Q764.693 283.839 769.068 283.839 L773.096 283.839 Z" fill="#000000" fill-rule="nonzero" fill-opacity="1" /><path clip-path="url(#clip570)" d="M791.683 297.913 Q790.966 297.497 790.109 297.311 Q789.276 297.103 788.258 297.103 Q784.646 297.103 782.702 299.464 Q780.781 301.802 780.781 306.2 L780.781 319.858 L776.498 319.858 L776.498 293.932 L780.781 293.932 L780.781 297.96 Q782.123 295.598 784.276 294.464 Q786.429 293.307 789.508 293.307 Q789.947 293.307 790.48 293.376 Q791.012 293.423 791.66 293.538 L791.683 297.913 Z" fill="#000000" fill-rule="nonzero" fill-opacity="1" /><path clip-path="url(#clip570)" d="M805.156 296.918 Q801.73 296.918 799.739 299.603 Q797.748 302.265 797.748 306.918 Q797.748 311.571 799.716 314.256 Q801.707 316.918 805.156 316.918 Q808.558 316.918 810.549 314.233 Q812.54 311.547 812.54 306.918 Q812.54 302.311 810.549 299.626 Q808.558 296.918 805.156 296.918 M805.156 293.307 Q810.711 293.307 813.882 296.918 Q817.054 300.529 817.054 306.918 Q817.054 313.284 813.882 316.918 Q810.711 320.529 805.156 320.529 Q799.577 320.529 796.406 316.918 Q793.258 313.284 793.258 306.918 Q793.258 300.529 796.406 296.918 Q799.577 293.307 805.156 293.307 Z" fill="#000000" fill-rule="nonzero" fill-opacity="1" /><path clip-path="url(#clip570)" d="M844.299 298.909 Q845.896 296.038 848.118 294.673 Q850.341 293.307 853.35 293.307 Q857.401 293.307 859.6 296.154 Q861.799 298.978 861.799 304.209 L861.799 319.858 L857.516 319.858 L857.516 304.348 Q857.516 300.622 856.197 298.816 Q854.878 297.01 852.169 297.01 Q848.859 297.01 846.938 299.21 Q845.017 301.409 845.017 305.205 L845.017 319.858 L840.734 319.858 L840.734 304.348 Q840.734 300.598 839.415 298.816 Q838.095 297.01 835.341 297.01 Q832.077 297.01 830.156 299.233 Q828.234 301.432 828.234 305.205 L828.234 319.858 L823.952 319.858 L823.952 293.932 L828.234 293.932 L828.234 297.96 Q829.693 295.575 831.73 294.441 Q833.767 293.307 836.568 293.307 Q839.392 293.307 841.359 294.742 Q843.35 296.177 844.299 298.909 Z" fill="#000000" fill-rule="nonzero" fill-opacity="1" /><path clip-path="url(#clip570)" d="M895.41 296.918 Q891.984 296.918 889.993 299.603 Q888.002 302.265 888.002 306.918 Q888.002 311.571 889.97 314.256 Q891.961 316.918 895.41 316.918 Q898.813 316.918 900.803 314.233 Q902.794 311.547 902.794 306.918 Q902.794 302.311 900.803 299.626 Q898.813 296.918 895.41 296.918 M895.41 293.307 Q900.965 293.307 904.137 296.918 Q907.308 300.529 907.308 306.918 Q907.308 313.284 904.137 316.918 Q900.965 320.529 895.41 320.529 Q889.831 320.529 886.66 316.918 Q883.512 313.284 883.512 306.918 Q883.512 300.529 886.66 296.918 Q889.831 293.307 895.41 293.307 Z" fill="#000000" fill-rule="nonzero" fill-opacity="1" /><path clip-path="url(#clip570)" d="M918.581 286.571 L918.581 293.932 L927.354 293.932 L927.354 297.242 L918.581 297.242 L918.581 311.316 Q918.581 314.487 919.437 315.39 Q920.317 316.293 922.979 316.293 L927.354 316.293 L927.354 319.858 L922.979 319.858 Q918.049 319.858 916.174 318.029 Q914.299 316.177 914.299 311.316 L914.299 297.242 L911.174 297.242 L911.174 293.932 L914.299 293.932 L914.299 286.571 L918.581 286.571 Z" fill="#000000" fill-rule="nonzero" fill-opacity="1" /><path clip-path="url(#clip570)" d="M954.507 304.209 L954.507 319.858 L950.247 319.858 L950.247 304.348 Q950.247 300.668 948.812 298.839 Q947.377 297.01 944.507 297.01 Q941.058 297.01 939.067 299.21 Q937.076 301.409 937.076 305.205 L937.076 319.858 L932.794 319.858 L932.794 283.839 L937.076 283.839 L937.076 297.96 Q938.604 295.622 940.664 294.464 Q942.747 293.307 945.456 293.307 Q949.923 293.307 952.215 296.085 Q954.507 298.839 954.507 304.209 Z" fill="#000000" fill-rule="nonzero" fill-opacity="1" /><path clip-path="url(#clip570)" d="M985.178 305.83 L985.178 307.913 L965.595 307.913 Q965.872 312.311 968.233 314.626 Q970.618 316.918 974.854 316.918 Q977.307 316.918 979.599 316.316 Q981.914 315.714 984.182 314.51 L984.182 318.538 Q981.891 319.51 979.483 320.02 Q977.076 320.529 974.599 320.529 Q968.396 320.529 964.761 316.918 Q961.15 313.307 961.15 307.149 Q961.15 300.784 964.576 297.057 Q968.025 293.307 973.858 293.307 Q979.09 293.307 982.122 296.686 Q985.178 300.043 985.178 305.83 M980.919 304.58 Q980.872 301.085 978.951 299.001 Q977.053 296.918 973.905 296.918 Q970.34 296.918 968.187 298.932 Q966.058 300.946 965.733 304.603 L980.919 304.58 Z" fill="#000000" fill-rule="nonzero" fill-opacity="1" /><path clip-path="url(#clip570)" d="M1007.19 297.913 Q1006.47 297.497 1005.62 297.311 Q1004.78 297.103 1003.77 297.103 Q1000.15 297.103 998.21 299.464 Q996.289 301.802 996.289 306.2 L996.289 319.858 L992.006 319.858 L992.006 293.932 L996.289 293.932 L996.289 297.96 Q997.631 295.598 999.784 294.464 Q1001.94 293.307 1005.02 293.307 Q1005.46 293.307 1005.99 293.376 Q1006.52 293.423 1007.17 293.538 L1007.19 297.913 Z" fill="#000000" fill-rule="nonzero" fill-opacity="1" /><path clip-path="url(#clip570)" d="M1043.79 297.867 L1043.79 283.839 L1048.05 283.839 L1048.05 319.858 L1043.79 319.858 L1043.79 315.969 Q1042.45 318.283 1040.39 319.418 Q1038.35 320.529 1035.48 320.529 Q1030.78 320.529 1027.82 316.779 Q1024.88 313.029 1024.88 306.918 Q1024.88 300.807 1027.82 297.057 Q1030.78 293.307 1035.48 293.307 Q1038.35 293.307 1040.39 294.441 Q1042.45 295.552 1043.79 297.867 M1029.27 306.918 Q1029.27 311.617 1031.2 314.302 Q1033.14 316.964 1036.52 316.964 Q1039.9 316.964 1041.84 314.302 Q1043.79 311.617 1043.79 306.918 Q1043.79 302.219 1041.84 299.557 Q1039.9 296.872 1036.52 296.872 Q1033.14 296.872 1031.2 299.557 Q1029.27 302.219 1029.27 306.918 Z" fill="#000000" fill-rule="nonzero" fill-opacity="1" /><path clip-path="url(#clip570)" d="M1056.82 293.932 L1061.08 293.932 L1061.08 319.858 L1056.82 319.858 L1056.82 293.932 M1056.82 283.839 L1061.08 283.839 L1061.08 289.233 L1056.82 289.233 L1056.82 283.839 Z" fill="#000000" fill-rule="nonzero" fill-opacity="1" /><path clip-path="url(#clip570)" d="M1086.52 294.696 L1086.52 298.723 Q1084.71 297.797 1082.77 297.335 Q1080.83 296.872 1078.74 296.872 Q1075.57 296.872 1073.97 297.844 Q1072.4 298.816 1072.4 300.76 Q1072.4 302.242 1073.53 303.098 Q1074.67 303.932 1078.09 304.696 L1079.55 305.02 Q1084.09 305.992 1085.99 307.774 Q1087.91 309.534 1087.91 312.705 Q1087.91 316.316 1085.04 318.422 Q1082.19 320.529 1077.19 320.529 Q1075.11 320.529 1072.84 320.112 Q1070.59 319.719 1068.09 318.908 L1068.09 314.51 Q1070.46 315.737 1072.75 316.362 Q1075.04 316.964 1077.28 316.964 Q1080.29 316.964 1081.91 315.946 Q1083.53 314.904 1083.53 313.029 Q1083.53 311.293 1082.35 310.367 Q1081.2 309.441 1077.24 308.584 L1075.76 308.237 Q1071.8 307.404 1070.04 305.691 Q1068.28 303.955 1068.28 300.946 Q1068.28 297.288 1070.87 295.298 Q1073.46 293.307 1078.23 293.307 Q1080.59 293.307 1082.68 293.654 Q1084.76 294.001 1086.52 294.696 Z" fill="#000000" fill-rule="nonzero" fill-opacity="1" /><path clip-path="url(#clip570)" d="M1098.9 286.571 L1098.9 293.932 L1107.68 293.932 L1107.68 297.242 L1098.9 297.242 L1098.9 311.316 Q1098.9 314.487 1099.76 315.39 Q1100.64 316.293 1103.3 316.293 L1107.68 316.293 L1107.68 319.858 L1103.3 319.858 Q1098.37 319.858 1096.5 318.029 Q1094.62 316.177 1094.62 311.316 L1094.62 297.242 L1091.5 297.242 L1091.5 293.932 L1094.62 293.932 L1094.62 286.571 L1098.9 286.571 Z" fill="#000000" fill-rule="nonzero" fill-opacity="1" /><path clip-path="url(#clip570)" d="M1128.3 297.913 Q1127.58 297.497 1126.73 297.311 Q1125.89 297.103 1124.88 297.103 Q1121.27 297.103 1119.32 299.464 Q1117.4 301.802 1117.4 306.2 L1117.4 319.858 L1113.12 319.858 L1113.12 293.932 L1117.4 293.932 L1117.4 297.96 Q1118.74 295.598 1120.89 294.464 Q1123.05 293.307 1126.13 293.307 Q1126.57 293.307 1127.1 293.376 Q1127.63 293.423 1128.28 293.538 L1128.3 297.913 Z" fill="#000000" fill-rule="nonzero" fill-opacity="1" /><path clip-path="url(#clip570)" d="M1132.77 293.932 L1137.03 293.932 L1137.03 319.858 L1132.77 319.858 L1132.77 293.932 M1132.77 283.839 L1137.03 283.839 L1137.03 289.233 L1132.77 289.233 L1132.77 283.839 Z" fill="#000000" fill-rule="nonzero" fill-opacity="1" /><path clip-path="url(#clip570)" d="M1164.55 306.918 Q1164.55 302.219 1162.61 299.557 Q1160.69 296.872 1157.31 296.872 Q1153.93 296.872 1151.98 299.557 Q1150.06 302.219 1150.06 306.918 Q1150.06 311.617 1151.98 314.302 Q1153.93 316.964 1157.31 316.964 Q1160.69 316.964 1162.61 314.302 Q1164.55 311.617 1164.55 306.918 M1150.06 297.867 Q1151.4 295.552 1153.44 294.441 Q1155.5 293.307 1158.35 293.307 Q1163.07 293.307 1166.01 297.057 Q1168.97 300.807 1168.97 306.918 Q1168.97 313.029 1166.01 316.779 Q1163.07 320.529 1158.35 320.529 Q1155.5 320.529 1153.44 319.418 Q1151.4 318.283 1150.06 315.969 L1150.06 319.858 L1145.78 319.858 L1145.78 283.839 L1150.06 283.839 L1150.06 297.867 Z" fill="#000000" fill-rule="nonzero" fill-opacity="1" /><path clip-path="url(#clip570)" d="M1175.59 309.626 L1175.59 293.932 L1179.85 293.932 L1179.85 309.464 Q1179.85 313.145 1181.29 314.996 Q1182.72 316.825 1185.59 316.825 Q1189.04 316.825 1191.03 314.626 Q1193.05 312.427 1193.05 308.631 L1193.05 293.932 L1197.31 293.932 L1197.31 319.858 L1193.05 319.858 L1193.05 315.876 Q1191.5 318.237 1189.44 319.395 Q1187.4 320.529 1184.69 320.529 Q1180.22 320.529 1177.91 317.751 Q1175.59 314.973 1175.59 309.626 M1186.31 293.307 L1186.31 293.307 Z" fill="#000000" fill-rule="nonzero" fill-opacity="1" /><path clip-path="url(#clip570)" d="M1210.29 286.571 L1210.29 293.932 L1219.07 293.932 L1219.07 297.242 L1210.29 297.242 L1210.29 311.316 Q1210.29 314.487 1211.15 315.39 Q1212.03 316.293 1214.69 316.293 L1219.07 316.293 L1219.07 319.858 L1214.69 319.858 Q1209.76 319.858 1207.88 318.029 Q1206.01 316.177 1206.01 311.316 L1206.01 297.242 L1202.88 297.242 L1202.88 293.932 L1206.01 293.932 L1206.01 286.571 L1210.29 286.571 Z" fill="#000000" fill-rule="nonzero" fill-opacity="1" /><path clip-path="url(#clip570)" d="M1224.67 293.932 L1228.93 293.932 L1228.93 319.858 L1224.67 319.858 L1224.67 293.932 M1224.67 283.839 L1228.93 283.839 L1228.93 289.233 L1224.67 289.233 L1224.67 283.839 Z" fill="#000000" fill-rule="nonzero" fill-opacity="1" /><path clip-path="url(#clip570)" d="M1247.88 296.918 Q1244.46 296.918 1242.47 299.603 Q1240.48 302.265 1240.48 306.918 Q1240.48 311.571 1242.44 314.256 Q1244.44 316.918 1247.88 316.918 Q1251.29 316.918 1253.28 314.233 Q1255.27 311.547 1255.27 306.918 Q1255.27 302.311 1253.28 299.626 Q1251.29 296.918 1247.88 296.918 M1247.88 293.307 Q1253.44 293.307 1256.61 296.918 Q1259.78 300.529 1259.78 306.918 Q1259.78 313.284 1256.61 316.918 Q1253.44 320.529 1247.88 320.529 Q1242.31 320.529 1239.13 316.918 Q1235.99 313.284 1235.99 306.918 Q1235.99 300.529 1239.13 296.918 Q1242.31 293.307 1247.88 293.307 Z" fill="#000000" fill-rule="nonzero" fill-opacity="1" /><path clip-path="url(#clip570)" d="M1288.39 304.209 L1288.39 319.858 L1284.13 319.858 L1284.13 304.348 Q1284.13 300.668 1282.7 298.839 Q1281.26 297.01 1278.39 297.01 Q1274.94 297.01 1272.95 299.21 Q1270.96 301.409 1270.96 305.205 L1270.96 319.858 L1266.68 319.858 L1266.68 293.932 L1270.96 293.932 L1270.96 297.96 Q1272.49 295.622 1274.55 294.464 Q1276.63 293.307 1279.34 293.307 Q1283.81 293.307 1286.1 296.085 Q1288.39 298.839 1288.39 304.209 Z" fill="#000000" fill-rule="nonzero" fill-opacity="1" /></svg>
