<?xml version="1.0" encoding="utf-8"?>
<svg xmlns="http://www.w3.org/2000/svg" xmlns:xlink="http://www.w3.org/1999/xlink" width="600" height="400" viewBox="0 0 2400 1600">
<defs>
  <clipPath id="clip440">
    <rect x="0" y="0" width="2400" height="1600"/>
  </clipPath>
</defs>
<path clip-path="url(#clip440)" d="
M0 1600 L2400 1600 L2400 0 L0 0  Z
  " fill="#ffffff" fill-rule="evenodd" fill-opacity="1"/>
<defs>
  <clipPath id="clip441">
    <rect x="480" y="0" width="1681" height="1600"/>
  </clipPath>
</defs>
<path clip-path="url(#clip440)" d="
M145.904 1486.45 L2352.76 1486.45 L2352.76 47.2441 L145.904 47.2441  Z
  " fill="#ffffff" fill-rule="evenodd" fill-opacity="1"/>
<defs>
  <clipPath id="clip442">
    <rect x="145" y="47" width="2208" height="1440"/>
  </clipPath>
</defs>
<polyline clip-path="url(#clip442)" style="stroke:#000000; stroke-width:2; stroke-opacity:0.1; fill:none" points="
  208.362,1486.45 208.362,47.2441 
  "/>
<polyline clip-path="url(#clip442)" style="stroke:#000000; stroke-width:2; stroke-opacity:0.1; fill:none" points="
  728.846,1486.45 728.846,47.2441 
  "/>
<polyline clip-path="url(#clip442)" style="stroke:#000000; stroke-width:2; stroke-opacity:0.1; fill:none" points="
  1249.33,1486.45 1249.33,47.2441 
  "/>
<polyline clip-path="url(#clip442)" style="stroke:#000000; stroke-width:2; stroke-opacity:0.1; fill:none" points="
  1769.81,1486.45 1769.81,47.2441 
  "/>
<polyline clip-path="url(#clip442)" style="stroke:#000000; stroke-width:2; stroke-opacity:0.1; fill:none" points="
  2290.3,1486.45 2290.3,47.2441 
  "/>
<polyline clip-path="url(#clip440)" style="stroke:#000000; stroke-width:4; stroke-opacity:1; fill:none" points="
  145.904,1486.45 2352.76,1486.45 
  "/>
<polyline clip-path="url(#clip440)" style="stroke:#000000; stroke-width:4; stroke-opacity:1; fill:none" points="
  208.362,1486.45 208.362,1469.18 
  "/>
<polyline clip-path="url(#clip440)" style="stroke:#000000; stroke-width:4; stroke-opacity:1; fill:none" points="
  728.846,1486.45 728.846,1469.18 
  "/>
<polyline clip-path="url(#clip440)" style="stroke:#000000; stroke-width:4; stroke-opacity:1; fill:none" points="
  1249.33,1486.45 1249.33,1469.18 
  "/>
<polyline clip-path="url(#clip440)" style="stroke:#000000; stroke-width:4; stroke-opacity:1; fill:none" points="
  1769.81,1486.45 1769.81,1469.18 
  "/>
<polyline clip-path="url(#clip440)" style="stroke:#000000; stroke-width:4; stroke-opacity:1; fill:none" points="
  2290.3,1486.45 2290.3,1469.18 
  "/>
<path clip-path="url(#clip440)" d="M 0 0 M176.371 1515.64 Q172.76 1515.64 170.932 1519.2 Q169.126 1522.75 169.126 1529.87 Q169.126 1536.98 170.932 1540.55 Q172.76 1544.09 176.371 1544.09 Q180.006 1544.09 181.811 1540.55 Q183.64 1536.98 183.64 1529.87 Q183.64 1522.75 181.811 1519.2 Q180.006 1515.64 176.371 1515.64 M176.371 1511.93 Q182.182 1511.93 185.237 1516.54 Q188.316 1521.12 188.316 1529.87 Q188.316 1538.6 185.237 1543.21 Q182.182 1547.79 176.371 1547.79 Q170.561 1547.79 167.483 1543.21 Q164.427 1538.6 164.427 1529.87 Q164.427 1521.12 167.483 1516.54 Q170.561 1511.93 176.371 1511.93 Z" fill="#000000" fill-rule="evenodd" fill-opacity="1" /><path clip-path="url(#clip440)" d="M 0 0 M193.385 1541.24 L198.269 1541.24 L198.269 1547.12 L193.385 1547.12 L193.385 1541.24 Z" fill="#000000" fill-rule="evenodd" fill-opacity="1" /><path clip-path="url(#clip440)" d="M 0 0 M213.339 1515.64 Q209.728 1515.64 207.899 1519.2 Q206.093 1522.75 206.093 1529.87 Q206.093 1536.98 207.899 1540.55 Q209.728 1544.09 213.339 1544.09 Q216.973 1544.09 218.779 1540.55 Q220.607 1536.98 220.607 1529.87 Q220.607 1522.75 218.779 1519.2 Q216.973 1515.64 213.339 1515.64 M213.339 1511.93 Q219.149 1511.93 222.204 1516.54 Q225.283 1521.12 225.283 1529.87 Q225.283 1538.6 222.204 1543.21 Q219.149 1547.79 213.339 1547.79 Q207.529 1547.79 204.45 1543.21 Q201.394 1538.6 201.394 1529.87 Q201.394 1521.12 204.45 1516.54 Q207.529 1511.93 213.339 1511.93 Z" fill="#000000" fill-rule="evenodd" fill-opacity="1" /><path clip-path="url(#clip440)" d="M 0 0 M240.352 1515.64 Q236.741 1515.64 234.913 1519.2 Q233.107 1522.75 233.107 1529.87 Q233.107 1536.98 234.913 1540.55 Q236.741 1544.09 240.352 1544.09 Q243.987 1544.09 245.792 1540.55 Q247.621 1536.98 247.621 1529.87 Q247.621 1522.75 245.792 1519.2 Q243.987 1515.64 240.352 1515.64 M240.352 1511.93 Q246.163 1511.93 249.218 1516.54 Q252.297 1521.12 252.297 1529.87 Q252.297 1538.6 249.218 1543.21 Q246.163 1547.79 240.352 1547.79 Q234.542 1547.79 231.464 1543.21 Q228.408 1538.6 228.408 1529.87 Q228.408 1521.12 231.464 1516.54 Q234.542 1511.93 240.352 1511.93 Z" fill="#000000" fill-rule="evenodd" fill-opacity="1" /><path clip-path="url(#clip440)" d="M 0 0 M698.152 1515.64 Q694.541 1515.64 692.712 1519.2 Q690.906 1522.75 690.906 1529.87 Q690.906 1536.98 692.712 1540.55 Q694.541 1544.09 698.152 1544.09 Q701.786 1544.09 703.591 1540.55 Q705.42 1536.98 705.42 1529.87 Q705.42 1522.75 703.591 1519.2 Q701.786 1515.64 698.152 1515.64 M698.152 1511.93 Q703.962 1511.93 707.017 1516.54 Q710.096 1521.12 710.096 1529.87 Q710.096 1538.6 707.017 1543.21 Q703.962 1547.79 698.152 1547.79 Q692.341 1547.79 689.263 1543.21 Q686.207 1538.6 686.207 1529.87 Q686.207 1521.12 689.263 1516.54 Q692.341 1511.93 698.152 1511.93 Z" fill="#000000" fill-rule="evenodd" fill-opacity="1" /><path clip-path="url(#clip440)" d="M 0 0 M715.165 1541.24 L720.05 1541.24 L720.05 1547.12 L715.165 1547.12 L715.165 1541.24 Z" fill="#000000" fill-rule="evenodd" fill-opacity="1" /><path clip-path="url(#clip440)" d="M 0 0 M729.147 1543.18 L745.466 1543.18 L745.466 1547.12 L723.522 1547.12 L723.522 1543.18 Q726.184 1540.43 730.767 1535.8 Q735.374 1531.15 736.554 1529.81 Q738.8 1527.28 739.679 1525.55 Q740.582 1523.79 740.582 1522.1 Q740.582 1519.34 738.638 1517.61 Q736.716 1515.87 733.614 1515.87 Q731.415 1515.87 728.962 1516.63 Q726.531 1517.4 723.753 1518.95 L723.753 1514.23 Q726.577 1513.09 729.031 1512.51 Q731.485 1511.93 733.522 1511.93 Q738.892 1511.93 742.087 1514.62 Q745.281 1517.31 745.281 1521.8 Q745.281 1523.93 744.471 1525.85 Q743.684 1527.74 741.577 1530.34 Q740.999 1531.01 737.897 1534.23 Q734.795 1537.42 729.147 1543.18 Z" fill="#000000" fill-rule="evenodd" fill-opacity="1" /><path clip-path="url(#clip440)" d="M 0 0 M750.582 1512.56 L768.938 1512.56 L768.938 1516.5 L754.864 1516.5 L754.864 1524.97 Q755.883 1524.62 756.901 1524.46 Q757.92 1524.27 758.938 1524.27 Q764.725 1524.27 768.105 1527.44 Q771.485 1530.62 771.485 1536.03 Q771.485 1541.61 768.012 1544.71 Q764.54 1547.79 758.221 1547.79 Q756.045 1547.79 753.776 1547.42 Q751.531 1547.05 749.124 1546.31 L749.124 1541.61 Q751.207 1542.74 753.429 1543.3 Q755.651 1543.86 758.128 1543.86 Q762.133 1543.86 764.471 1541.75 Q766.809 1539.64 766.809 1536.03 Q766.809 1532.42 764.471 1530.31 Q762.133 1528.21 758.128 1528.21 Q756.253 1528.21 754.378 1528.62 Q752.526 1529.04 750.582 1529.92 L750.582 1512.56 Z" fill="#000000" fill-rule="evenodd" fill-opacity="1" /><path clip-path="url(#clip440)" d="M 0 0 M1217.84 1515.64 Q1214.23 1515.64 1212.4 1519.2 Q1210.59 1522.75 1210.59 1529.87 Q1210.59 1536.98 1212.4 1540.55 Q1214.23 1544.09 1217.84 1544.09 Q1221.47 1544.09 1223.28 1540.55 Q1225.11 1536.98 1225.11 1529.87 Q1225.11 1522.75 1223.28 1519.2 Q1221.47 1515.64 1217.84 1515.64 M1217.84 1511.93 Q1223.65 1511.93 1226.7 1516.54 Q1229.78 1521.12 1229.78 1529.87 Q1229.78 1538.6 1226.7 1543.21 Q1223.65 1547.79 1217.84 1547.79 Q1212.03 1547.79 1208.95 1543.21 Q1205.89 1538.6 1205.89 1529.87 Q1205.89 1521.12 1208.95 1516.54 Q1212.03 1511.93 1217.84 1511.93 Z" fill="#000000" fill-rule="evenodd" fill-opacity="1" /><path clip-path="url(#clip440)" d="M 0 0 M1234.85 1541.24 L1239.74 1541.24 L1239.74 1547.12 L1234.85 1547.12 L1234.85 1541.24 Z" fill="#000000" fill-rule="evenodd" fill-opacity="1" /><path clip-path="url(#clip440)" d="M 0 0 M1244.85 1512.56 L1263.21 1512.56 L1263.21 1516.5 L1249.13 1516.5 L1249.13 1524.97 Q1250.15 1524.62 1251.17 1524.46 Q1252.19 1524.27 1253.21 1524.27 Q1258.99 1524.27 1262.37 1527.44 Q1265.75 1530.62 1265.75 1536.03 Q1265.75 1541.61 1262.28 1544.71 Q1258.81 1547.79 1252.49 1547.79 Q1250.31 1547.79 1248.05 1547.42 Q1245.8 1547.05 1243.39 1546.31 L1243.39 1541.61 Q1245.48 1542.74 1247.7 1543.3 Q1249.92 1543.86 1252.4 1543.86 Q1256.4 1543.86 1258.74 1541.75 Q1261.08 1539.64 1261.08 1536.03 Q1261.08 1532.42 1258.74 1530.31 Q1256.4 1528.21 1252.4 1528.21 Q1250.52 1528.21 1248.65 1528.62 Q1246.8 1529.04 1244.85 1529.92 L1244.85 1512.56 Z" fill="#000000" fill-rule="evenodd" fill-opacity="1" /><path clip-path="url(#clip440)" d="M 0 0 M1280.82 1515.64 Q1277.21 1515.64 1275.38 1519.2 Q1273.58 1522.75 1273.58 1529.87 Q1273.58 1536.98 1275.38 1540.55 Q1277.21 1544.09 1280.82 1544.09 Q1284.46 1544.09 1286.26 1540.55 Q1288.09 1536.98 1288.09 1529.87 Q1288.09 1522.75 1286.26 1519.2 Q1284.46 1515.64 1280.82 1515.64 M1280.82 1511.93 Q1286.63 1511.93 1289.69 1516.54 Q1292.77 1521.12 1292.77 1529.87 Q1292.77 1538.6 1289.69 1543.21 Q1286.63 1547.79 1280.82 1547.79 Q1275.01 1547.79 1271.93 1543.21 Q1268.88 1538.6 1268.88 1529.87 Q1268.88 1521.12 1271.93 1516.54 Q1275.01 1511.93 1280.82 1511.93 Z" fill="#000000" fill-rule="evenodd" fill-opacity="1" /><path clip-path="url(#clip440)" d="M 0 0 M1738.77 1515.64 Q1735.16 1515.64 1733.33 1519.2 Q1731.53 1522.75 1731.53 1529.87 Q1731.53 1536.98 1733.33 1540.55 Q1735.16 1544.09 1738.77 1544.09 Q1742.41 1544.09 1744.21 1540.55 Q1746.04 1536.98 1746.04 1529.87 Q1746.04 1522.75 1744.21 1519.2 Q1742.41 1515.64 1738.77 1515.64 M1738.77 1511.93 Q1744.58 1511.93 1747.64 1516.54 Q1750.72 1521.12 1750.72 1529.87 Q1750.72 1538.6 1747.64 1543.21 Q1744.58 1547.79 1738.77 1547.79 Q1732.96 1547.79 1729.88 1543.21 Q1726.83 1538.6 1726.83 1529.87 Q1726.83 1521.12 1729.88 1516.54 Q1732.96 1511.93 1738.77 1511.93 Z" fill="#000000" fill-rule="evenodd" fill-opacity="1" /><path clip-path="url(#clip440)" d="M 0 0 M1755.79 1541.24 L1760.67 1541.24 L1760.67 1547.12 L1755.79 1547.12 L1755.79 1541.24 Z" fill="#000000" fill-rule="evenodd" fill-opacity="1" /><path clip-path="url(#clip440)" d="M 0 0 M1764.56 1512.56 L1786.78 1512.56 L1786.78 1514.55 L1774.24 1547.12 L1769.35 1547.12 L1781.16 1516.5 L1764.56 1516.5 L1764.56 1512.56 Z" fill="#000000" fill-rule="evenodd" fill-opacity="1" /><path clip-path="url(#clip440)" d="M 0 0 M1791.9 1512.56 L1810.25 1512.56 L1810.25 1516.5 L1796.18 1516.5 L1796.18 1524.97 Q1797.2 1524.62 1798.22 1524.46 Q1799.23 1524.27 1800.25 1524.27 Q1806.04 1524.27 1809.42 1527.44 Q1812.8 1530.62 1812.8 1536.03 Q1812.8 1541.61 1809.33 1544.71 Q1805.86 1547.79 1799.54 1547.79 Q1797.36 1547.79 1795.09 1547.42 Q1792.85 1547.05 1790.44 1546.31 L1790.44 1541.61 Q1792.52 1542.74 1794.74 1543.3 Q1796.97 1543.86 1799.44 1543.86 Q1803.45 1543.86 1805.79 1541.75 Q1808.12 1539.64 1808.12 1536.03 Q1808.12 1532.42 1805.79 1530.31 Q1803.45 1528.21 1799.44 1528.21 Q1797.57 1528.21 1795.69 1528.62 Q1793.84 1529.04 1791.9 1529.92 L1791.9 1512.56 Z" fill="#000000" fill-rule="evenodd" fill-opacity="1" /><path clip-path="url(#clip440)" d="M 0 0 M2248.69 1543.18 L2256.33 1543.18 L2256.33 1516.82 L2248.02 1518.49 L2248.02 1514.23 L2256.28 1512.56 L2260.96 1512.56 L2260.96 1543.18 L2268.6 1543.18 L2268.6 1547.12 L2248.69 1547.12 L2248.69 1543.18 Z" fill="#000000" fill-rule="evenodd" fill-opacity="1" /><path clip-path="url(#clip440)" d="M 0 0 M2273.67 1541.24 L2278.55 1541.24 L2278.55 1547.12 L2273.67 1547.12 L2273.67 1541.24 Z" fill="#000000" fill-rule="evenodd" fill-opacity="1" /><path clip-path="url(#clip440)" d="M 0 0 M2293.62 1515.64 Q2290.01 1515.64 2288.18 1519.2 Q2286.37 1522.75 2286.37 1529.87 Q2286.37 1536.98 2288.18 1540.55 Q2290.01 1544.09 2293.62 1544.09 Q2297.25 1544.09 2299.06 1540.55 Q2300.89 1536.98 2300.89 1529.87 Q2300.89 1522.75 2299.06 1519.2 Q2297.25 1515.64 2293.62 1515.64 M2293.62 1511.93 Q2299.43 1511.93 2302.49 1516.54 Q2305.56 1521.12 2305.56 1529.87 Q2305.56 1538.6 2302.49 1543.21 Q2299.43 1547.79 2293.62 1547.79 Q2287.81 1547.79 2284.73 1543.21 Q2281.68 1538.6 2281.68 1529.87 Q2281.68 1521.12 2284.73 1516.54 Q2287.81 1511.93 2293.62 1511.93 Z" fill="#000000" fill-rule="evenodd" fill-opacity="1" /><path clip-path="url(#clip440)" d="M 0 0 M2320.63 1515.64 Q2317.02 1515.64 2315.19 1519.2 Q2313.39 1522.75 2313.39 1529.87 Q2313.39 1536.98 2315.19 1540.55 Q2317.02 1544.09 2320.63 1544.09 Q2324.27 1544.09 2326.07 1540.55 Q2327.9 1536.98 2327.9 1529.87 Q2327.9 1522.75 2326.07 1519.2 Q2324.27 1515.64 2320.63 1515.64 M2320.63 1511.93 Q2326.44 1511.93 2329.5 1516.54 Q2332.58 1521.12 2332.58 1529.87 Q2332.58 1538.6 2329.5 1543.21 Q2326.44 1547.79 2320.63 1547.79 Q2314.82 1547.79 2311.74 1543.21 Q2308.69 1538.6 2308.69 1529.87 Q2308.69 1521.12 2311.74 1516.54 Q2314.82 1511.93 2320.63 1511.93 Z" fill="#000000" fill-rule="evenodd" fill-opacity="1" /><polyline clip-path="url(#clip442)" style="stroke:#000000; stroke-width:2; stroke-opacity:0.1; fill:none" points="
  145.904,1445.72 2352.76,1445.72 
  "/>
<polyline clip-path="url(#clip442)" style="stroke:#000000; stroke-width:2; stroke-opacity:0.1; fill:none" points="
  145.904,1037.85 2352.76,1037.85 
  "/>
<polyline clip-path="url(#clip442)" style="stroke:#000000; stroke-width:2; stroke-opacity:0.1; fill:none" points="
  145.904,629.99 2352.76,629.99 
  "/>
<polyline clip-path="url(#clip442)" style="stroke:#000000; stroke-width:2; stroke-opacity:0.1; fill:none" points="
  145.904,222.127 2352.76,222.127 
  "/>
<polyline clip-path="url(#clip440)" style="stroke:#000000; stroke-width:4; stroke-opacity:1; fill:none" points="
  145.904,1486.45 145.904,47.2441 
  "/>
<polyline clip-path="url(#clip440)" style="stroke:#000000; stroke-width:4; stroke-opacity:1; fill:none" points="
  145.904,1445.72 172.386,1445.72 
  "/>
<polyline clip-path="url(#clip440)" style="stroke:#000000; stroke-width:4; stroke-opacity:1; fill:none" points="
  145.904,1037.85 172.386,1037.85 
  "/>
<polyline clip-path="url(#clip440)" style="stroke:#000000; stroke-width:4; stroke-opacity:1; fill:none" points="
  145.904,629.99 172.386,629.99 
  "/>
<polyline clip-path="url(#clip440)" style="stroke:#000000; stroke-width:4; stroke-opacity:1; fill:none" points="
  145.904,222.127 172.386,222.127 
  "/>
<path clip-path="url(#clip440)" d="M 0 0 M53.0292 1459.06 L60.668 1459.06 L60.668 1432.69 L52.3579 1434.36 L52.3579 1430.1 L60.6217 1428.44 L65.2976 1428.44 L65.2976 1459.06 L72.9365 1459.06 L72.9365 1463 L53.0292 1463 L53.0292 1459.06 Z" fill="#000000" fill-rule="evenodd" fill-opacity="1" /><path clip-path="url(#clip440)" d="M 0 0 M78.0059 1457.12 L82.8901 1457.12 L82.8901 1463 L78.0059 1463 L78.0059 1457.12 Z" fill="#000000" fill-rule="evenodd" fill-opacity="1" /><path clip-path="url(#clip440)" d="M 0 0 M97.9595 1431.51 Q94.3484 1431.51 92.5197 1435.08 Q90.7141 1438.62 90.7141 1445.75 Q90.7141 1452.86 92.5197 1456.42 Q94.3484 1459.96 97.9595 1459.96 Q101.594 1459.96 103.399 1456.42 Q105.228 1452.86 105.228 1445.75 Q105.228 1438.62 103.399 1435.08 Q101.594 1431.51 97.9595 1431.51 M97.9595 1427.81 Q103.77 1427.81 106.825 1432.42 Q109.904 1437 109.904 1445.75 Q109.904 1454.48 106.825 1459.08 Q103.77 1463.67 97.9595 1463.67 Q92.1493 1463.67 89.0706 1459.08 Q86.0151 1454.48 86.0151 1445.75 Q86.0151 1437 89.0706 1432.42 Q92.1493 1427.81 97.9595 1427.81 Z" fill="#000000" fill-rule="evenodd" fill-opacity="1" /><path clip-path="url(#clip440)" d="M 0 0 M54.0245 1051.2 L61.6634 1051.2 L61.6634 1024.83 L53.3532 1026.5 L53.3532 1022.24 L61.6171 1020.57 L66.293 1020.57 L66.293 1051.2 L73.9318 1051.2 L73.9318 1055.13 L54.0245 1055.13 L54.0245 1051.2 Z" fill="#000000" fill-rule="evenodd" fill-opacity="1" /><path clip-path="url(#clip440)" d="M 0 0 M79.0012 1049.25 L83.8855 1049.25 L83.8855 1055.13 L79.0012 1055.13 L79.0012 1049.25 Z" fill="#000000" fill-rule="evenodd" fill-opacity="1" /><path clip-path="url(#clip440)" d="M 0 0 M89.0012 1020.57 L107.358 1020.57 L107.358 1024.51 L93.2836 1024.51 L93.2836 1032.98 Q94.3021 1032.63 95.3206 1032.47 Q96.3391 1032.29 97.3576 1032.29 Q103.145 1032.29 106.524 1035.46 Q109.904 1038.63 109.904 1044.05 Q109.904 1049.62 106.432 1052.73 Q102.959 1055.8 96.64 1055.8 Q94.4641 1055.8 92.1956 1055.43 Q89.9503 1055.06 87.5429 1054.32 L87.5429 1049.62 Q89.6262 1050.76 91.8484 1051.31 Q94.0706 1051.87 96.5474 1051.87 Q100.552 1051.87 102.89 1049.76 Q105.228 1047.66 105.228 1044.05 Q105.228 1040.43 102.89 1038.33 Q100.552 1036.22 96.5474 1036.22 Q94.6724 1036.22 92.7975 1036.64 Q90.9456 1037.05 89.0012 1037.93 L89.0012 1020.57 Z" fill="#000000" fill-rule="evenodd" fill-opacity="1" /><path clip-path="url(#clip440)" d="M 0 0 M56.6171 643.335 L72.9365 643.335 L72.9365 647.27 L50.9921 647.27 L50.9921 643.335 Q53.6541 640.58 58.2375 635.951 Q62.8439 631.298 64.0245 629.955 Q66.2698 627.432 67.1494 625.696 Q68.0522 623.937 68.0522 622.247 Q68.0522 619.493 66.1078 617.756 Q64.1865 616.02 61.0847 616.02 Q58.8856 616.02 56.4319 616.784 Q54.0014 617.548 51.2236 619.099 L51.2236 614.377 Q54.0477 613.243 56.5014 612.664 Q58.955 612.085 60.9921 612.085 Q66.3624 612.085 69.5568 614.77 Q72.7513 617.456 72.7513 621.946 Q72.7513 624.076 71.9411 625.997 Q71.1541 627.895 69.0476 630.488 Q68.4689 631.159 65.367 634.377 Q62.2652 637.571 56.6171 643.335 Z" fill="#000000" fill-rule="evenodd" fill-opacity="1" /><path clip-path="url(#clip440)" d="M 0 0 M78.0059 641.391 L82.8901 641.391 L82.8901 647.27 L78.0059 647.27 L78.0059 641.391 Z" fill="#000000" fill-rule="evenodd" fill-opacity="1" /><path clip-path="url(#clip440)" d="M 0 0 M97.9595 615.789 Q94.3484 615.789 92.5197 619.354 Q90.7141 622.895 90.7141 630.025 Q90.7141 637.131 92.5197 640.696 Q94.3484 644.238 97.9595 644.238 Q101.594 644.238 103.399 640.696 Q105.228 637.131 105.228 630.025 Q105.228 622.895 103.399 619.354 Q101.594 615.789 97.9595 615.789 M97.9595 612.085 Q103.77 612.085 106.825 616.692 Q109.904 621.275 109.904 630.025 Q109.904 638.752 106.825 643.358 Q103.77 647.941 97.9595 647.941 Q92.1493 647.941 89.0706 643.358 Q86.0151 638.752 86.0151 630.025 Q86.0151 621.275 89.0706 616.692 Q92.1493 612.085 97.9595 612.085 Z" fill="#000000" fill-rule="evenodd" fill-opacity="1" /><path clip-path="url(#clip440)" d="M 0 0 M57.6125 235.472 L73.9318 235.472 L73.9318 239.407 L51.9875 239.407 L51.9875 235.472 Q54.6495 232.718 59.2328 228.088 Q63.8393 223.435 65.0198 222.093 Q67.2652 219.57 68.1448 217.833 Q69.0476 216.074 69.0476 214.384 Q69.0476 211.63 67.1032 209.894 Q65.1819 208.158 62.08 208.158 Q59.881 208.158 57.4273 208.921 Q54.9967 209.685 52.219 211.236 L52.219 206.514 Q55.043 205.38 57.4967 204.801 Q59.9504 204.222 61.9874 204.222 Q67.3578 204.222 70.5522 206.908 Q73.7466 209.593 73.7466 214.083 Q73.7466 216.213 72.9365 218.134 Q72.1494 220.033 70.0429 222.625 Q69.4642 223.296 66.3624 226.514 Q63.2606 229.708 57.6125 235.472 Z" fill="#000000" fill-rule="evenodd" fill-opacity="1" /><path clip-path="url(#clip440)" d="M 0 0 M79.0012 233.528 L83.8855 233.528 L83.8855 239.407 L79.0012 239.407 L79.0012 233.528 Z" fill="#000000" fill-rule="evenodd" fill-opacity="1" /><path clip-path="url(#clip440)" d="M 0 0 M89.0012 204.847 L107.358 204.847 L107.358 208.783 L93.2836 208.783 L93.2836 217.255 Q94.3021 216.908 95.3206 216.746 Q96.3391 216.56 97.3576 216.56 Q103.145 216.56 106.524 219.732 Q109.904 222.903 109.904 228.32 Q109.904 233.898 106.432 237 Q102.959 240.079 96.64 240.079 Q94.4641 240.079 92.1956 239.708 Q89.9503 239.338 87.5429 238.597 L87.5429 233.898 Q89.6262 235.032 91.8484 235.588 Q94.0706 236.144 96.5474 236.144 Q100.552 236.144 102.89 234.037 Q105.228 231.931 105.228 228.32 Q105.228 224.708 102.89 222.602 Q100.552 220.495 96.5474 220.495 Q94.6724 220.495 92.7975 220.912 Q90.9456 221.329 89.0012 222.208 L89.0012 204.847 Z" fill="#000000" fill-rule="evenodd" fill-opacity="1" /><polyline clip-path="url(#clip442)" style="stroke:#009af9; stroke-width:4; stroke-opacity:1; fill:none" points="
  208.362,1445.72 229.392,1437.6 250.421,1429.41 271.451,1421.13 292.481,1412.77 313.51,1404.33 334.54,1395.8 355.57,1387.19 376.599,1378.49 397.629,1369.71 
  418.658,1360.84 439.688,1351.88 460.718,1342.83 481.747,1333.69 502.777,1324.46 523.807,1315.14 544.836,1305.72 565.866,1296.22 586.896,1286.61 607.925,1276.92 
  628.955,1267.12 649.985,1257.23 671.014,1247.24 692.044,1237.15 713.074,1226.96 734.103,1216.67 755.133,1206.28 776.163,1195.78 797.192,1185.18 818.222,1174.47 
  839.252,1163.66 860.281,1152.74 881.311,1141.71 902.341,1130.57 923.37,1119.32 944.4,1107.96 965.43,1096.48 986.459,1084.89 1007.49,1073.19 1028.52,1061.37 
  1049.55,1049.43 1070.58,1037.37 1091.61,1025.19 1112.64,1012.9 1133.67,1000.48 1154.7,987.931 1175.73,975.262 1196.76,962.467 1217.79,949.544 1238.82,936.493 
  1259.84,923.313 1280.87,910.001 1301.9,896.556 1322.93,882.978 1343.96,869.265 1364.99,855.415 1386.02,841.428 1407.05,827.302 1428.08,813.035 1449.11,798.626 
  1470.14,784.073 1491.17,769.376 1512.2,754.533 1533.23,739.542 1554.26,724.402 1575.29,709.111 1596.32,693.668 1617.35,678.072 1638.38,662.32 1659.41,646.412 
  1680.44,630.346 1701.47,614.119 1722.5,597.731 1743.53,581.181 1764.56,564.465 1785.59,547.583 1806.62,530.534 1827.65,513.314 1848.68,495.924 1869.7,478.36 
  1890.73,460.622 1911.76,442.707 1932.79,424.614 1953.82,406.341 1974.85,387.886 1995.88,369.248 2016.91,350.424 2037.94,331.413 2058.97,312.213 2080,292.821 
  2101.03,273.237 2122.06,253.458 2143.09,233.483 2164.12,213.308 2185.15,192.933 2206.18,172.355 2227.21,151.573 2248.24,130.583 2269.27,109.385 2290.3,87.9763 
  
  "/>
<polyline clip-path="url(#clip442)" style="stroke:#e26f46; stroke-width:4; stroke-opacity:1; fill:none" points="
  208.362,1445.72 229.392,1437.6 250.421,1429.41 271.451,1421.13 292.481,1412.77 313.51,1404.33 334.54,1395.8 355.57,1387.19 376.599,1378.49 397.629,1369.71 
  418.658,1360.84 439.688,1351.88 460.718,1342.83 481.747,1333.69 502.777,1324.46 523.807,1315.14 544.836,1305.72 565.866,1296.22 586.896,1286.61 607.925,1276.92 
  628.955,1267.12 649.985,1257.23 671.014,1247.24 692.044,1237.15 713.074,1226.96 734.103,1216.67 755.133,1206.28 776.163,1195.78 797.192,1185.18 818.222,1174.47 
  839.252,1163.66 860.281,1152.74 881.311,1141.71 902.341,1130.57 923.37,1119.32 944.4,1107.96 965.43,1096.48 986.459,1084.89 1007.49,1073.19 1028.52,1061.37 
  1049.55,1049.43 1070.58,1037.37 1091.61,1025.19 1112.64,1012.9 1133.67,1000.47 1154.7,987.931 1175.73,975.262 1196.76,962.466 1217.79,949.544 1238.82,936.493 
  1259.84,923.313 1280.87,910.001 1301.9,896.557 1322.93,882.979 1343.96,869.265 1364.99,855.416 1386.02,841.429 1407.05,827.302 1428.08,813.035 1449.11,798.626 
  1470.14,784.074 1491.17,769.377 1512.2,754.533 1533.23,739.542 1554.26,724.402 1575.29,709.112 1596.32,693.669 1617.35,678.072 1638.38,662.321 1659.41,646.412 
  1680.44,630.346 1701.47,614.119 1722.5,597.731 1743.53,581.18 1764.56,564.465 1785.59,547.583 1806.62,530.533 1827.65,513.314 1848.68,495.924 1869.7,478.36 
  1890.73,460.622 1911.76,442.707 1932.79,424.614 1953.82,406.341 1974.85,387.886 1995.88,369.248 2016.91,350.424 2037.94,331.413 2058.97,312.213 2080,292.822 
  2101.03,273.238 2122.06,253.459 2143.09,233.483 2164.12,213.309 2185.15,192.933 2206.18,172.355 2227.21,151.573 2248.24,130.583 2269.27,109.385 2290.3,87.9764 
  
  "/>
<polyline clip-path="url(#clip442)" style="stroke:#3da44d; stroke-width:4; stroke-opacity:1; fill:none" points="
  208.362,1445.72 229.392,1437.23 250.421,1428.74 271.451,1420.26 292.481,1411.77 313.51,1403.29 334.54,1394.8 355.57,1386.32 376.599,1377.83 397.629,1369.35 
  418.658,1360.77 439.688,1350.66 460.718,1340.56 481.747,1330.45 502.777,1320.34 523.807,1310.24 544.836,1300.13 565.866,1290.03 586.896,1279.92 607.925,1269.82 
  628.955,1259.71 649.985,1249.61 671.014,1239.5 692.044,1229.4 713.074,1219.29 734.103,1209.19 755.133,1199.08 776.163,1188.97 797.192,1178.87 818.222,1168.76 
  839.252,1158.66 860.281,1148.55 881.311,1138.45 902.341,1128.34 923.37,1118.24 944.4,1107.67 965.43,1094.13 986.459,1080.59 1007.49,1067.05 1028.52,1053.51 
  1049.55,1039.96 1070.58,1026.42 1091.61,1012.88 1112.64,999.339 1133.67,985.797 1154.7,972.256 1175.73,958.714 1196.76,945.172 1217.79,931.631 1238.82,918.089 
  1259.84,904.547 1280.87,891.006 1301.9,877.464 1322.93,863.923 1343.96,850.381 1364.99,836.839 1386.02,823.298 1407.05,809.756 1428.08,796.214 1449.11,782.673 
  1470.14,769.131 1491.17,755.589 1512.2,742.048 1533.23,728.506 1554.26,714.964 1575.29,701.423 1596.32,687.881 1617.35,674.34 1638.38,660.798 1659.41,645.496 
  1680.44,626.912 1701.47,608.328 1722.5,589.744 1743.53,571.16 1764.56,552.576 1785.59,533.992 1806.62,515.408 1827.65,496.824 1848.68,478.24 1869.7,459.656 
  1890.73,441.072 1911.76,422.488 1932.79,403.904 1953.82,385.32 1974.85,366.736 1995.88,348.152 2016.91,329.568 2037.94,310.984 2058.97,292.4 2080,273.816 
  2101.03,255.232 2122.06,236.648 2143.09,218.064 2164.12,199.48 2185.15,180.896 2206.18,162.312 2227.21,143.728 2248.24,125.144 2269.27,106.56 2290.3,87.9764 
  
  "/>
<polyline clip-path="url(#clip442)" style="stroke:#c271d2; stroke-width:4; stroke-opacity:1; fill:none" points="
  208.362,1445.72 229.392,1437.6 250.421,1429.41 271.451,1421.13 292.481,1412.77 313.51,1404.33 334.54,1395.8 355.57,1387.19 376.599,1378.49 397.629,1369.71 
  418.658,1360.84 439.688,1351.88 460.718,1342.83 481.747,1333.69 502.777,1324.46 523.807,1315.14 544.836,1305.72 565.866,1296.22 586.896,1286.61 607.925,1276.92 
  628.955,1267.12 649.985,1257.23 671.014,1247.24 692.044,1237.15 713.074,1226.96 734.103,1216.67 755.133,1206.28 776.163,1195.78 797.192,1185.18 818.222,1174.47 
  839.252,1163.66 860.281,1152.74 881.311,1141.71 902.341,1130.57 923.37,1119.32 944.4,1107.96 965.43,1096.48 986.459,1084.89 1007.49,1073.19 1028.52,1061.37 
  1049.55,1049.43 1070.58,1037.37 1091.61,1025.2 1112.64,1012.9 1133.67,1000.48 1154.7,987.933 1175.73,975.265 1196.76,962.47 1217.79,949.548 1238.82,936.498 
  1259.84,923.317 1280.87,910.005 1301.9,896.56 1322.93,882.982 1343.96,869.268 1364.99,855.418 1386.02,841.431 1407.05,827.304 1428.08,813.037 1449.11,798.628 
  1470.14,784.077 1491.17,769.381 1512.2,754.539 1533.23,739.549 1554.26,724.41 1575.29,709.12 1596.32,693.678 1617.35,678.082 1638.38,662.331 1659.41,646.423 
  1680.44,630.356 1701.47,614.129 1722.5,597.741 1743.53,581.189 1764.56,564.473 1785.59,547.591 1806.62,530.54 1827.65,513.321 1848.68,495.93 1869.7,478.367 
  1890.73,460.63 1911.76,442.717 1932.79,424.626 1953.82,406.355 1974.85,387.902 1995.88,369.265 2016.91,350.443 2037.94,331.433 2058.97,312.233 2080,292.843 
  2101.03,273.259 2122.06,253.479 2143.09,233.503 2164.12,213.328 2185.15,192.952 2206.18,172.373 2227.21,151.589 2248.24,130.599 2269.27,109.4 2290.3,87.991 
  
  "/>
<path clip-path="url(#clip440)" d="
M219.466 397.618 L735.758 397.618 L735.758 95.2176 L219.466 95.2176  Z
  " fill="#ffffff" fill-rule="evenodd" fill-opacity="1"/>
<polyline clip-path="url(#clip440)" style="stroke:#000000; stroke-width:4; stroke-opacity:1; fill:none" points="
  219.466,397.618 735.758,397.618 735.758,95.2176 219.466,95.2176 219.466,397.618 
  "/>
<polyline clip-path="url(#clip440)" style="stroke:#009af9; stroke-width:4; stroke-opacity:1; fill:none" points="
  243.986,155.698 391.11,155.698 
  "/>
<path clip-path="url(#clip440)" d="M 0 0 M415.63 138.418 L444.866 138.418 L444.866 142.353 L432.598 142.353 L432.598 172.978 L427.899 172.978 L427.899 142.353 L415.63 142.353 L415.63 138.418 Z" fill="#000000" fill-rule="evenodd" fill-opacity="1" /><path clip-path="url(#clip440)" d="M 0 0 M457.389 151.033 Q456.672 150.617 455.815 150.431 Q454.982 150.223 453.963 150.223 Q450.352 150.223 448.408 152.584 Q446.487 154.922 446.487 159.32 L446.487 172.978 L442.204 172.978 L442.204 147.052 L446.487 147.052 L446.487 151.08 Q447.829 148.718 449.982 147.584 Q452.135 146.427 455.213 146.427 Q455.653 146.427 456.186 146.496 Q456.718 146.543 457.366 146.658 L457.389 151.033 Z" fill="#000000" fill-rule="evenodd" fill-opacity="1" /><path clip-path="url(#clip440)" d="M 0 0 M461.417 162.746 L461.417 147.052 L465.676 147.052 L465.676 162.584 Q465.676 166.265 467.111 168.116 Q468.547 169.945 471.417 169.945 Q474.866 169.945 476.857 167.746 Q478.871 165.547 478.871 161.751 L478.871 147.052 L483.13 147.052 L483.13 172.978 L478.871 172.978 L478.871 168.996 Q477.32 171.357 475.26 172.515 Q473.222 173.649 470.514 173.649 Q466.047 173.649 463.732 170.871 Q461.417 168.093 461.417 162.746 M472.135 146.427 L472.135 146.427 Z" fill="#000000" fill-rule="evenodd" fill-opacity="1" /><path clip-path="url(#clip440)" d="M 0 0 M509.773 158.95 L509.773 161.033 L490.19 161.033 Q490.468 165.431 492.829 167.746 Q495.213 170.038 499.449 170.038 Q501.903 170.038 504.195 169.436 Q506.509 168.834 508.778 167.63 L508.778 171.658 Q506.486 172.63 504.079 173.14 Q501.671 173.649 499.195 173.649 Q492.991 173.649 489.357 170.038 Q485.746 166.427 485.746 160.269 Q485.746 153.904 489.171 150.177 Q492.621 146.427 498.454 146.427 Q503.685 146.427 506.718 149.806 Q509.773 153.163 509.773 158.95 M505.514 157.7 Q505.468 154.205 503.546 152.121 Q501.648 150.038 498.5 150.038 Q494.935 150.038 492.783 152.052 Q490.653 154.066 490.329 157.723 L505.514 157.7 Z" fill="#000000" fill-rule="evenodd" fill-opacity="1" /><path clip-path="url(#clip440)" d="M 0 0 M545.838 147.816 L545.838 151.843 Q544.032 150.917 542.088 150.455 Q540.143 149.992 538.06 149.992 Q534.889 149.992 533.292 150.964 Q531.718 151.936 531.718 153.88 Q531.718 155.362 532.852 156.218 Q533.986 157.052 537.412 157.816 L538.87 158.14 Q543.407 159.112 545.305 160.894 Q547.227 162.654 547.227 165.825 Q547.227 169.436 544.356 171.542 Q541.509 173.649 536.509 173.649 Q534.426 173.649 532.157 173.232 Q529.912 172.839 527.412 172.028 L527.412 167.63 Q529.773 168.857 532.065 169.482 Q534.356 170.084 536.602 170.084 Q539.611 170.084 541.231 169.066 Q542.852 168.024 542.852 166.149 Q542.852 164.413 541.671 163.487 Q540.514 162.561 536.555 161.704 L535.074 161.357 Q531.116 160.524 529.356 158.811 Q527.597 157.075 527.597 154.066 Q527.597 150.408 530.19 148.418 Q532.782 146.427 537.551 146.427 Q539.912 146.427 541.995 146.774 Q544.079 147.121 545.838 147.816 Z" fill="#000000" fill-rule="evenodd" fill-opacity="1" /><path clip-path="url(#clip440)" d="M 0 0 M561.741 150.038 Q558.315 150.038 556.324 152.723 Q554.333 155.385 554.333 160.038 Q554.333 164.691 556.301 167.376 Q558.291 170.038 561.741 170.038 Q565.143 170.038 567.134 167.353 Q569.125 164.667 569.125 160.038 Q569.125 155.431 567.134 152.746 Q565.143 150.038 561.741 150.038 M561.741 146.427 Q567.296 146.427 570.467 150.038 Q573.639 153.649 573.639 160.038 Q573.639 166.404 570.467 170.038 Q567.296 173.649 561.741 173.649 Q556.162 173.649 552.991 170.038 Q549.842 166.404 549.842 160.038 Q549.842 153.649 552.991 150.038 Q556.162 146.427 561.741 146.427 Z" fill="#000000" fill-rule="evenodd" fill-opacity="1" /><path clip-path="url(#clip440)" d="M 0 0 M578.106 136.959 L582.365 136.959 L582.365 172.978 L578.106 172.978 L578.106 136.959 Z" fill="#000000" fill-rule="evenodd" fill-opacity="1" /><path clip-path="url(#clip440)" d="M 0 0 M586.393 162.746 L586.393 147.052 L590.652 147.052 L590.652 162.584 Q590.652 166.265 592.088 168.116 Q593.523 169.945 596.393 169.945 Q599.842 169.945 601.833 167.746 Q603.847 165.547 603.847 161.751 L603.847 147.052 L608.106 147.052 L608.106 172.978 L603.847 172.978 L603.847 168.996 Q602.296 171.357 600.236 172.515 Q598.199 173.649 595.49 173.649 Q591.023 173.649 588.708 170.871 Q586.393 168.093 586.393 162.746 M597.111 146.427 L597.111 146.427 Z" fill="#000000" fill-rule="evenodd" fill-opacity="1" /><path clip-path="url(#clip440)" d="M 0 0 M616.787 139.691 L616.787 147.052 L625.56 147.052 L625.56 150.362 L616.787 150.362 L616.787 164.436 Q616.787 167.607 617.643 168.51 Q618.523 169.413 621.185 169.413 L625.56 169.413 L625.56 172.978 L621.185 172.978 Q616.254 172.978 614.379 171.149 Q612.504 169.297 612.504 164.436 L612.504 150.362 L609.379 150.362 L609.379 147.052 L612.504 147.052 L612.504 139.691 L616.787 139.691 Z" fill="#000000" fill-rule="evenodd" fill-opacity="1" /><path clip-path="url(#clip440)" d="M 0 0 M630.027 147.052 L634.286 147.052 L634.286 172.978 L630.027 172.978 L630.027 147.052 M630.027 136.959 L634.286 136.959 L634.286 142.353 L630.027 142.353 L630.027 136.959 Z" fill="#000000" fill-rule="evenodd" fill-opacity="1" /><path clip-path="url(#clip440)" d="M 0 0 M648.8 150.038 Q645.374 150.038 643.384 152.723 Q641.393 155.385 641.393 160.038 Q641.393 164.691 643.36 167.376 Q645.351 170.038 648.8 170.038 Q652.203 170.038 654.194 167.353 Q656.184 164.667 656.184 160.038 Q656.184 155.431 654.194 152.746 Q652.203 150.038 648.8 150.038 M648.8 146.427 Q654.356 146.427 657.527 150.038 Q660.698 153.649 660.698 160.038 Q660.698 166.404 657.527 170.038 Q654.356 173.649 648.8 173.649 Q643.222 173.649 640.05 170.038 Q636.902 166.404 636.902 160.038 Q636.902 153.649 640.05 150.038 Q643.222 146.427 648.8 146.427 Z" fill="#000000" fill-rule="evenodd" fill-opacity="1" /><path clip-path="url(#clip440)" d="M 0 0 M686.717 157.329 L686.717 172.978 L682.457 172.978 L682.457 157.468 Q682.457 153.788 681.022 151.959 Q679.587 150.13 676.717 150.13 Q673.268 150.13 671.277 152.33 Q669.286 154.529 669.286 158.325 L669.286 172.978 L665.004 172.978 L665.004 147.052 L669.286 147.052 L669.286 151.08 Q670.814 148.742 672.874 147.584 Q674.958 146.427 677.666 146.427 Q682.133 146.427 684.425 149.205 Q686.717 151.959 686.717 157.329 Z" fill="#000000" fill-rule="evenodd" fill-opacity="1" /><polyline clip-path="url(#clip440)" style="stroke:#e26f46; stroke-width:4; stroke-opacity:1; fill:none" points="
  243.986,216.178 391.11,216.178 
  "/>
<path clip-path="url(#clip440)" d="M 0 0 M420.306 202.74 L420.306 229.615 L425.954 229.615 Q433.107 229.615 436.417 226.374 Q439.75 223.134 439.75 216.143 Q439.75 209.198 436.417 205.981 Q433.107 202.74 425.954 202.74 L420.306 202.74 M415.63 198.898 L425.237 198.898 Q435.283 198.898 439.982 203.087 Q444.681 207.254 444.681 216.143 Q444.681 225.078 439.959 229.268 Q435.237 233.458 425.237 233.458 L415.63 233.458 L415.63 198.898 Z" fill="#000000" fill-rule="evenodd" fill-opacity="1" /><path clip-path="url(#clip440)" d="M 0 0 M471.324 219.43 L471.324 221.513 L451.741 221.513 Q452.019 225.911 454.38 228.226 Q456.764 230.518 461 230.518 Q463.454 230.518 465.746 229.916 Q468.06 229.314 470.329 228.11 L470.329 232.138 Q468.037 233.11 465.63 233.62 Q463.223 234.129 460.746 234.129 Q454.542 234.129 450.908 230.518 Q447.297 226.907 447.297 220.749 Q447.297 214.384 450.723 210.657 Q454.172 206.907 460.005 206.907 Q465.236 206.907 468.269 210.286 Q471.324 213.643 471.324 219.43 M467.065 218.18 Q467.019 214.685 465.098 212.601 Q463.199 210.518 460.051 210.518 Q456.486 210.518 454.334 212.532 Q452.204 214.546 451.88 218.203 L467.065 218.18 Z" fill="#000000" fill-rule="evenodd" fill-opacity="1" /><path clip-path="url(#clip440)" d="M 0 0 M488.917 197.439 L488.917 200.981 L484.843 200.981 Q482.551 200.981 481.648 201.907 Q480.769 202.833 480.769 205.24 L480.769 207.532 L487.783 207.532 L487.783 210.842 L480.769 210.842 L480.769 233.458 L476.486 233.458 L476.486 210.842 L472.412 210.842 L472.412 207.532 L476.486 207.532 L476.486 205.726 Q476.486 201.398 478.5 199.43 Q480.514 197.439 484.889 197.439 L488.917 197.439 Z" fill="#000000" fill-rule="evenodd" fill-opacity="1" /><path clip-path="url(#clip440)" d="M 0 0 M505.167 220.425 Q500.005 220.425 498.014 221.606 Q496.023 222.786 496.023 225.634 Q496.023 227.902 497.505 229.245 Q499.009 230.564 501.579 230.564 Q505.12 230.564 507.25 228.064 Q509.403 225.541 509.403 221.374 L509.403 220.425 L505.167 220.425 M513.662 218.666 L513.662 233.458 L509.403 233.458 L509.403 229.522 Q507.945 231.883 505.769 233.018 Q503.593 234.129 500.445 234.129 Q496.463 234.129 494.102 231.907 Q491.764 229.661 491.764 225.911 Q491.764 221.536 494.681 219.314 Q497.621 217.092 503.431 217.092 L509.403 217.092 L509.403 216.675 Q509.403 213.735 507.458 212.138 Q505.537 210.518 502.042 210.518 Q499.82 210.518 497.713 211.05 Q495.607 211.583 493.662 212.647 L493.662 208.712 Q496 207.81 498.199 207.37 Q500.398 206.907 502.482 206.907 Q508.107 206.907 510.884 209.823 Q513.662 212.74 513.662 218.666 Z" fill="#000000" fill-rule="evenodd" fill-opacity="1" /><path clip-path="url(#clip440)" d="M 0 0 M517.69 223.226 L517.69 207.532 L521.949 207.532 L521.949 223.064 Q521.949 226.745 523.384 228.596 Q524.819 230.425 527.69 230.425 Q531.139 230.425 533.13 228.226 Q535.143 226.027 535.143 222.231 L535.143 207.532 L539.403 207.532 L539.403 233.458 L535.143 233.458 L535.143 229.476 Q533.593 231.837 531.532 232.995 Q529.495 234.129 526.787 234.129 Q522.319 234.129 520.005 231.351 Q517.69 228.573 517.69 223.226 M528.407 206.907 L528.407 206.907 Z" fill="#000000" fill-rule="evenodd" fill-opacity="1" /><path clip-path="url(#clip440)" d="M 0 0 M543.87 197.439 L548.13 197.439 L548.13 233.458 L543.87 233.458 L543.87 197.439 Z" fill="#000000" fill-rule="evenodd" fill-opacity="1" /><path clip-path="url(#clip440)" d="M 0 0 M556.81 200.171 L556.81 207.532 L565.583 207.532 L565.583 210.842 L556.81 210.842 L556.81 224.916 Q556.81 228.087 557.666 228.99 Q558.546 229.893 561.208 229.893 L565.583 229.893 L565.583 233.458 L561.208 233.458 Q556.278 233.458 554.403 231.629 Q552.528 229.777 552.528 224.916 L552.528 210.842 L549.403 210.842 L549.403 207.532 L552.528 207.532 L552.528 200.171 L556.81 200.171 Z" fill="#000000" fill-rule="evenodd" fill-opacity="1" /><polyline clip-path="url(#clip440)" style="stroke:#3da44d; stroke-width:4; stroke-opacity:1; fill:none" points="
  243.986,276.658 391.11,276.658 
  "/>
<path clip-path="url(#clip440)" d="M 0 0 M415.63 259.378 L420.306 259.378 L420.306 290.002 L437.135 290.002 L437.135 293.938 L415.63 293.938 L415.63 259.378 Z" fill="#000000" fill-rule="evenodd" fill-opacity="1" /><path clip-path="url(#clip440)" d="M 0 0 M441.602 268.012 L445.862 268.012 L445.862 293.938 L441.602 293.938 L441.602 268.012 M441.602 257.919 L445.862 257.919 L445.862 263.313 L441.602 263.313 L441.602 257.919 Z" fill="#000000" fill-rule="evenodd" fill-opacity="1" /><path clip-path="url(#clip440)" d="M 0 0 M471.88 278.289 L471.88 293.938 L467.621 293.938 L467.621 278.428 Q467.621 274.748 466.185 272.919 Q464.75 271.09 461.88 271.09 Q458.431 271.09 456.44 273.29 Q454.449 275.489 454.449 279.285 L454.449 293.938 L450.167 293.938 L450.167 268.012 L454.449 268.012 L454.449 272.04 Q455.977 269.702 458.037 268.544 Q460.121 267.387 462.829 267.387 Q467.297 267.387 469.588 270.165 Q471.88 272.919 471.88 278.289 Z" fill="#000000" fill-rule="evenodd" fill-opacity="1" /><path clip-path="url(#clip440)" d="M 0 0 M498.523 279.91 L498.523 281.993 L478.94 281.993 Q479.218 286.391 481.579 288.706 Q483.963 290.998 488.199 290.998 Q490.653 290.998 492.945 290.396 Q495.259 289.794 497.528 288.59 L497.528 292.618 Q495.236 293.59 492.829 294.1 Q490.421 294.609 487.945 294.609 Q481.741 294.609 478.107 290.998 Q474.496 287.387 474.496 281.229 Q474.496 274.864 477.922 271.137 Q481.371 267.387 487.204 267.387 Q492.435 267.387 495.468 270.766 Q498.523 274.123 498.523 279.91 M494.264 278.66 Q494.218 275.165 492.296 273.081 Q490.398 270.998 487.25 270.998 Q483.685 270.998 481.533 273.012 Q479.403 275.026 479.079 278.683 L494.264 278.66 Z" fill="#000000" fill-rule="evenodd" fill-opacity="1" /><path clip-path="url(#clip440)" d="M 0 0 M514.773 280.905 Q509.611 280.905 507.62 282.086 Q505.63 283.266 505.63 286.114 Q505.63 288.382 507.111 289.725 Q508.616 291.044 511.185 291.044 Q514.727 291.044 516.857 288.544 Q519.009 286.021 519.009 281.854 L519.009 280.905 L514.773 280.905 M523.269 279.146 L523.269 293.938 L519.009 293.938 L519.009 290.002 Q517.551 292.363 515.375 293.498 Q513.199 294.609 510.051 294.609 Q506.07 294.609 503.708 292.387 Q501.37 290.141 501.37 286.391 Q501.37 282.016 504.287 279.794 Q507.227 277.572 513.037 277.572 L519.009 277.572 L519.009 277.155 Q519.009 274.215 517.065 272.618 Q515.144 270.998 511.648 270.998 Q509.426 270.998 507.32 271.53 Q505.213 272.063 503.269 273.127 L503.269 269.192 Q505.607 268.29 507.806 267.85 Q510.005 267.387 512.088 267.387 Q517.713 267.387 520.491 270.303 Q523.269 273.22 523.269 279.146 Z" fill="#000000" fill-rule="evenodd" fill-opacity="1" /><path clip-path="url(#clip440)" d="M 0 0 M542.759 271.993 Q542.042 271.577 541.185 271.391 Q540.352 271.183 539.333 271.183 Q535.722 271.183 533.778 273.544 Q531.856 275.882 531.856 280.28 L531.856 293.938 L527.574 293.938 L527.574 268.012 L531.856 268.012 L531.856 272.04 Q533.199 269.678 535.352 268.544 Q537.505 267.387 540.583 267.387 Q541.023 267.387 541.555 267.456 Q542.088 267.503 542.736 267.618 L542.759 271.993 Z" fill="#000000" fill-rule="evenodd" fill-opacity="1" /><polyline clip-path="url(#clip440)" style="stroke:#c271d2; stroke-width:4; stroke-opacity:1; fill:none" points="
  243.986,337.138 391.11,337.138 
  "/>
<path clip-path="url(#clip440)" d="M 0 0 M432.019 338.214 Q433.524 338.723 434.936 340.39 Q436.371 342.057 437.806 344.973 L442.551 354.418 L437.528 354.418 L433.107 345.552 Q431.394 342.08 429.774 340.945 Q428.176 339.811 425.399 339.811 L420.306 339.811 L420.306 354.418 L415.63 354.418 L415.63 319.858 L426.186 319.858 Q432.112 319.858 435.028 322.334 Q437.945 324.811 437.945 329.811 Q437.945 333.075 436.417 335.228 Q434.913 337.381 432.019 338.214 M420.306 323.7 L420.306 335.969 L426.186 335.969 Q429.565 335.969 431.278 334.418 Q433.014 332.844 433.014 329.811 Q433.014 326.779 431.278 325.251 Q429.565 323.7 426.186 323.7 L420.306 323.7 Z" fill="#000000" fill-rule="evenodd" fill-opacity="1" /><path clip-path="url(#clip440)" d="M 0 0 M444.45 344.186 L444.45 328.492 L448.709 328.492 L448.709 344.024 Q448.709 347.705 450.144 349.556 Q451.579 351.385 454.449 351.385 Q457.899 351.385 459.889 349.186 Q461.903 346.987 461.903 343.191 L461.903 328.492 L466.162 328.492 L466.162 354.418 L461.903 354.418 L461.903 350.436 Q460.352 352.797 458.292 353.955 Q456.255 355.089 453.547 355.089 Q449.079 355.089 446.764 352.311 Q444.45 349.533 444.45 344.186 M455.167 327.867 L455.167 327.867 Z" fill="#000000" fill-rule="evenodd" fill-opacity="1" /><path clip-path="url(#clip440)" d="M 0 0 M492.181 338.769 L492.181 354.418 L487.921 354.418 L487.921 338.908 Q487.921 335.228 486.486 333.399 Q485.051 331.57 482.181 331.57 Q478.732 331.57 476.741 333.77 Q474.75 335.969 474.75 339.765 L474.75 354.418 L470.468 354.418 L470.468 328.492 L474.75 328.492 L474.75 332.52 Q476.278 330.182 478.338 329.024 Q480.422 327.867 483.13 327.867 Q487.597 327.867 489.889 330.645 Q492.181 333.399 492.181 338.769 Z" fill="#000000" fill-rule="evenodd" fill-opacity="1" /><path clip-path="url(#clip440)" d="M 0 0 M513.708 341.154 Q513.708 336.524 511.787 333.978 Q509.889 331.432 506.44 331.432 Q503.014 331.432 501.093 333.978 Q499.195 336.524 499.195 341.154 Q499.195 345.76 501.093 348.306 Q503.014 350.853 506.44 350.853 Q509.889 350.853 511.787 348.306 Q513.708 345.76 513.708 341.154 M517.968 351.2 Q517.968 357.82 515.028 361.038 Q512.088 364.279 506.023 364.279 Q503.778 364.279 501.787 363.931 Q499.796 363.607 497.921 362.913 L497.921 358.769 Q499.796 359.788 501.625 360.274 Q503.454 360.76 505.352 360.76 Q509.542 360.76 511.625 358.561 Q513.708 356.385 513.708 351.964 L513.708 349.857 Q512.389 352.149 510.329 353.283 Q508.269 354.418 505.398 354.418 Q500.63 354.418 497.713 350.783 Q494.796 347.149 494.796 341.154 Q494.796 335.135 497.713 331.501 Q500.63 327.867 505.398 327.867 Q508.269 327.867 510.329 329.001 Q512.389 330.135 513.708 332.427 L513.708 328.492 L517.968 328.492 L517.968 351.2 Z" fill="#000000" fill-rule="evenodd" fill-opacity="1" /><path clip-path="url(#clip440)" d="M 0 0 M544.611 340.39 L544.611 342.473 L525.028 342.473 Q525.306 346.871 527.667 349.186 Q530.051 351.478 534.287 351.478 Q536.741 351.478 539.032 350.876 Q541.347 350.274 543.616 349.07 L543.616 353.098 Q541.324 354.07 538.917 354.58 Q536.509 355.089 534.032 355.089 Q527.829 355.089 524.194 351.478 Q520.583 347.867 520.583 341.709 Q520.583 335.344 524.009 331.617 Q527.458 327.867 533.292 327.867 Q538.523 327.867 541.555 331.246 Q544.611 334.603 544.611 340.39 M540.352 339.14 Q540.305 335.645 538.384 333.561 Q536.486 331.478 533.338 331.478 Q529.773 331.478 527.62 333.492 Q525.491 335.506 525.167 339.163 L540.352 339.14 Z" fill="#000000" fill-rule="evenodd" fill-opacity="1" /><path clip-path="url(#clip440)" d="M 0 0 M546.926 339.533 L559.403 339.533 L559.403 343.33 L546.926 343.33 L546.926 339.533 Z" fill="#000000" fill-rule="evenodd" fill-opacity="1" /><path clip-path="url(#clip440)" d="M 0 0 M564.055 319.858 L568.731 319.858 L568.731 334.464 L584.24 319.858 L590.259 319.858 L573.106 335.969 L591.486 354.418 L585.328 354.418 L568.731 337.774 L568.731 354.418 L564.055 354.418 L564.055 319.858 Z" fill="#000000" fill-rule="evenodd" fill-opacity="1" /><path clip-path="url(#clip440)" d="M 0 0 M593.152 344.186 L593.152 328.492 L597.412 328.492 L597.412 344.024 Q597.412 347.705 598.847 349.556 Q600.282 351.385 603.152 351.385 Q606.601 351.385 608.592 349.186 Q610.606 346.987 610.606 343.191 L610.606 328.492 L614.865 328.492 L614.865 354.418 L610.606 354.418 L610.606 350.436 Q609.055 352.797 606.995 353.955 Q604.958 355.089 602.25 355.089 Q597.782 355.089 595.467 352.311 Q593.152 349.533 593.152 344.186 M603.87 327.867 L603.87 327.867 Z" fill="#000000" fill-rule="evenodd" fill-opacity="1" /><path clip-path="url(#clip440)" d="M 0 0 M623.546 321.131 L623.546 328.492 L632.319 328.492 L632.319 331.802 L623.546 331.802 L623.546 345.876 Q623.546 349.047 624.402 349.95 Q625.282 350.853 627.944 350.853 L632.319 350.853 L632.319 354.418 L627.944 354.418 Q623.013 354.418 621.138 352.589 Q619.263 350.737 619.263 345.876 L619.263 331.802 L616.138 331.802 L616.138 328.492 L619.263 328.492 L619.263 321.131 L623.546 321.131 Z" fill="#000000" fill-rule="evenodd" fill-opacity="1" /><path clip-path="url(#clip440)" d="M 0 0 M640.999 321.131 L640.999 328.492 L649.772 328.492 L649.772 331.802 L640.999 331.802 L640.999 345.876 Q640.999 349.047 641.856 349.95 Q642.735 350.853 645.397 350.853 L649.772 350.853 L649.772 354.418 L645.397 354.418 Q640.467 354.418 638.592 352.589 Q636.717 350.737 636.717 345.876 L636.717 331.802 L633.592 331.802 L633.592 328.492 L636.717 328.492 L636.717 321.131 L640.999 321.131 Z" fill="#000000" fill-rule="evenodd" fill-opacity="1" /><path clip-path="url(#clip440)" d="M 0 0 M666.022 341.385 Q660.86 341.385 658.87 342.566 Q656.879 343.746 656.879 346.594 Q656.879 348.862 658.36 350.205 Q659.865 351.524 662.434 351.524 Q665.976 351.524 668.106 349.024 Q670.258 346.501 670.258 342.334 L670.258 341.385 L666.022 341.385 M674.518 339.626 L674.518 354.418 L670.258 354.418 L670.258 350.482 Q668.8 352.843 666.624 353.978 Q664.448 355.089 661.3 355.089 Q657.319 355.089 654.958 352.867 Q652.62 350.621 652.62 346.871 Q652.62 342.496 655.536 340.274 Q658.476 338.052 664.286 338.052 L670.258 338.052 L670.258 337.635 Q670.258 334.695 668.314 333.098 Q666.393 331.478 662.897 331.478 Q660.675 331.478 658.569 332.01 Q656.462 332.543 654.518 333.607 L654.518 329.672 Q656.856 328.77 659.055 328.33 Q661.254 327.867 663.337 327.867 Q668.962 327.867 671.74 330.783 Q674.518 333.7 674.518 339.626 Z" fill="#000000" fill-rule="evenodd" fill-opacity="1" /></svg>
