<?xml version="1.0" encoding="utf-8"?>
<svg xmlns="http://www.w3.org/2000/svg" xmlns:xlink="http://www.w3.org/1999/xlink" width="600" height="400" viewBox="0 0 2400 1600">
<defs>
  <clipPath id="clip550">
    <rect x="0" y="0" width="2400" height="1600"/>
  </clipPath>
</defs>
<path clip-path="url(#clip550)" d="
M0 1600 L2400 1600 L2400 0 L0 0  Z
  " fill="#ffffff" fill-rule="evenodd" fill-opacity="1"/>
<defs>
  <clipPath id="clip551">
    <rect x="480" y="0" width="1681" height="1600"/>
  </clipPath>
</defs>
<path clip-path="url(#clip550)" d="
M205.121 1423.18 L2352.76 1423.18 L2352.76 47.2441 L205.121 47.2441  Z
  " fill="#ffffff" fill-rule="evenodd" fill-opacity="1"/>
<defs>
  <clipPath id="clip552">
    <rect x="205" y="47" width="2149" height="1377"/>
  </clipPath>
</defs>
<polyline clip-path="url(#clip552)" style="stroke:#000000; stroke-linecap:butt; stroke-linejoin:round; stroke-width:2; stroke-opacity:0.1; fill:none" points="
  323.245,1423.18 323.245,47.2441 
  "/>
<polyline clip-path="url(#clip552)" style="stroke:#000000; stroke-linecap:butt; stroke-linejoin:round; stroke-width:2; stroke-opacity:0.1; fill:none" points="
  652.794,1423.18 652.794,47.2441 
  "/>
<polyline clip-path="url(#clip552)" style="stroke:#000000; stroke-linecap:butt; stroke-linejoin:round; stroke-width:2; stroke-opacity:0.1; fill:none" points="
  982.344,1423.18 982.344,47.2441 
  "/>
<polyline clip-path="url(#clip552)" style="stroke:#000000; stroke-linecap:butt; stroke-linejoin:round; stroke-width:2; stroke-opacity:0.1; fill:none" points="
  1311.89,1423.18 1311.89,47.2441 
  "/>
<polyline clip-path="url(#clip552)" style="stroke:#000000; stroke-linecap:butt; stroke-linejoin:round; stroke-width:2; stroke-opacity:0.1; fill:none" points="
  1641.44,1423.18 1641.44,47.2441 
  "/>
<polyline clip-path="url(#clip552)" style="stroke:#000000; stroke-linecap:butt; stroke-linejoin:round; stroke-width:2; stroke-opacity:0.1; fill:none" points="
  1970.99,1423.18 1970.99,47.2441 
  "/>
<polyline clip-path="url(#clip552)" style="stroke:#000000; stroke-linecap:butt; stroke-linejoin:round; stroke-width:2; stroke-opacity:0.1; fill:none" points="
  2300.54,1423.18 2300.54,47.2441 
  "/>
<polyline clip-path="url(#clip550)" style="stroke:#000000; stroke-linecap:butt; stroke-linejoin:round; stroke-width:4; stroke-opacity:1; fill:none" points="
  205.121,1423.18 2352.76,1423.18 
  "/>
<polyline clip-path="url(#clip550)" style="stroke:#000000; stroke-linecap:butt; stroke-linejoin:round; stroke-width:4; stroke-opacity:1; fill:none" points="
  323.245,1423.18 323.245,1404.28 
  "/>
<polyline clip-path="url(#clip550)" style="stroke:#000000; stroke-linecap:butt; stroke-linejoin:round; stroke-width:4; stroke-opacity:1; fill:none" points="
  652.794,1423.18 652.794,1404.28 
  "/>
<polyline clip-path="url(#clip550)" style="stroke:#000000; stroke-linecap:butt; stroke-linejoin:round; stroke-width:4; stroke-opacity:1; fill:none" points="
  982.344,1423.18 982.344,1404.28 
  "/>
<polyline clip-path="url(#clip550)" style="stroke:#000000; stroke-linecap:butt; stroke-linejoin:round; stroke-width:4; stroke-opacity:1; fill:none" points="
  1311.89,1423.18 1311.89,1404.28 
  "/>
<polyline clip-path="url(#clip550)" style="stroke:#000000; stroke-linecap:butt; stroke-linejoin:round; stroke-width:4; stroke-opacity:1; fill:none" points="
  1641.44,1423.18 1641.44,1404.28 
  "/>
<polyline clip-path="url(#clip550)" style="stroke:#000000; stroke-linecap:butt; stroke-linejoin:round; stroke-width:4; stroke-opacity:1; fill:none" points="
  1970.99,1423.18 1970.99,1404.28 
  "/>
<polyline clip-path="url(#clip550)" style="stroke:#000000; stroke-linecap:butt; stroke-linejoin:round; stroke-width:4; stroke-opacity:1; fill:none" points="
  2300.54,1423.18 2300.54,1404.28 
  "/>
<path clip-path="url(#clip550)" d="M255.016 1467.02 L284.692 1467.02 L284.692 1470.96 L255.016 1470.96 L255.016 1467.02 Z" fill="#000000" fill-rule="evenodd" fill-opacity="1" /><path clip-path="url(#clip550)" d="M304.784 1452.37 Q301.173 1452.37 299.344 1455.94 Q297.539 1459.48 297.539 1466.61 Q297.539 1473.71 299.344 1477.28 Q301.173 1480.82 304.784 1480.82 Q308.418 1480.82 310.224 1477.28 Q312.053 1473.71 312.053 1466.61 Q312.053 1459.48 310.224 1455.94 Q308.418 1452.37 304.784 1452.37 M304.784 1448.67 Q310.594 1448.67 313.65 1453.27 Q316.729 1457.86 316.729 1466.61 Q316.729 1475.33 313.65 1479.94 Q310.594 1484.52 304.784 1484.52 Q298.974 1484.52 295.895 1479.94 Q292.84 1475.33 292.84 1466.61 Q292.84 1457.86 295.895 1453.27 Q298.974 1448.67 304.784 1448.67 Z" fill="#000000" fill-rule="evenodd" fill-opacity="1" /><path clip-path="url(#clip550)" d="M324.946 1477.97 L329.83 1477.97 L329.83 1483.85 L324.946 1483.85 L324.946 1477.97 Z" fill="#000000" fill-rule="evenodd" fill-opacity="1" /><path clip-path="url(#clip550)" d="M350.015 1452.37 Q346.404 1452.37 344.576 1455.94 Q342.77 1459.48 342.77 1466.61 Q342.77 1473.71 344.576 1477.28 Q346.404 1480.82 350.015 1480.82 Q353.65 1480.82 355.455 1477.28 Q357.284 1473.71 357.284 1466.61 Q357.284 1459.48 355.455 1455.94 Q353.65 1452.37 350.015 1452.37 M350.015 1448.67 Q355.826 1448.67 358.881 1453.27 Q361.96 1457.86 361.96 1466.61 Q361.96 1475.33 358.881 1479.94 Q355.826 1484.52 350.015 1484.52 Q344.205 1484.52 341.127 1479.94 Q338.071 1475.33 338.071 1466.61 Q338.071 1457.86 341.127 1453.27 Q344.205 1448.67 350.015 1448.67 Z" fill="#000000" fill-rule="evenodd" fill-opacity="1" /><path clip-path="url(#clip550)" d="M384.344 1465.22 Q387.7 1465.94 389.575 1468.2 Q391.474 1470.47 391.474 1473.81 Q391.474 1478.92 387.955 1481.72 Q384.437 1484.52 377.955 1484.52 Q375.779 1484.52 373.464 1484.08 Q371.173 1483.67 368.719 1482.81 L368.719 1478.3 Q370.663 1479.43 372.978 1480.01 Q375.293 1480.59 377.816 1480.59 Q382.214 1480.59 384.506 1478.85 Q386.821 1477.12 386.821 1473.81 Q386.821 1470.75 384.668 1469.04 Q382.538 1467.3 378.719 1467.3 L374.691 1467.3 L374.691 1463.46 L378.904 1463.46 Q382.353 1463.46 384.182 1462.09 Q386.011 1460.7 386.011 1458.11 Q386.011 1455.45 384.112 1454.04 Q382.237 1452.6 378.719 1452.6 Q376.798 1452.6 374.599 1453.02 Q372.4 1453.44 369.761 1454.31 L369.761 1450.15 Q372.423 1449.41 374.737 1449.04 Q377.075 1448.67 379.136 1448.67 Q384.46 1448.67 387.562 1451.1 Q390.663 1453.5 390.663 1457.63 Q390.663 1460.5 389.02 1462.49 Q387.376 1464.45 384.344 1465.22 Z" fill="#000000" fill-rule="evenodd" fill-opacity="1" /><path clip-path="url(#clip550)" d="M585.04 1467.02 L614.716 1467.02 L614.716 1470.96 L585.04 1470.96 L585.04 1467.02 Z" fill="#000000" fill-rule="evenodd" fill-opacity="1" /><path clip-path="url(#clip550)" d="M634.808 1452.37 Q631.197 1452.37 629.368 1455.94 Q627.563 1459.48 627.563 1466.61 Q627.563 1473.71 629.368 1477.28 Q631.197 1480.82 634.808 1480.82 Q638.443 1480.82 640.248 1477.28 Q642.077 1473.71 642.077 1466.61 Q642.077 1459.48 640.248 1455.94 Q638.443 1452.37 634.808 1452.37 M634.808 1448.67 Q640.618 1448.67 643.674 1453.27 Q646.753 1457.86 646.753 1466.61 Q646.753 1475.33 643.674 1479.94 Q640.618 1484.52 634.808 1484.52 Q628.998 1484.52 625.919 1479.94 Q622.864 1475.33 622.864 1466.61 Q622.864 1457.86 625.919 1453.27 Q628.998 1448.67 634.808 1448.67 Z" fill="#000000" fill-rule="evenodd" fill-opacity="1" /><path clip-path="url(#clip550)" d="M654.97 1477.97 L659.854 1477.97 L659.854 1483.85 L654.97 1483.85 L654.97 1477.97 Z" fill="#000000" fill-rule="evenodd" fill-opacity="1" /><path clip-path="url(#clip550)" d="M680.04 1452.37 Q676.428 1452.37 674.6 1455.94 Q672.794 1459.48 672.794 1466.61 Q672.794 1473.71 674.6 1477.28 Q676.428 1480.82 680.04 1480.82 Q683.674 1480.82 685.479 1477.28 Q687.308 1473.71 687.308 1466.61 Q687.308 1459.48 685.479 1455.94 Q683.674 1452.37 680.04 1452.37 M680.04 1448.67 Q685.85 1448.67 688.905 1453.27 Q691.984 1457.86 691.984 1466.61 Q691.984 1475.33 688.905 1479.94 Q685.85 1484.52 680.04 1484.52 Q674.229 1484.52 671.151 1479.94 Q668.095 1475.33 668.095 1466.61 Q668.095 1457.86 671.151 1453.27 Q674.229 1448.67 680.04 1448.67 Z" fill="#000000" fill-rule="evenodd" fill-opacity="1" /><path clip-path="url(#clip550)" d="M704.229 1479.92 L720.549 1479.92 L720.549 1483.85 L698.604 1483.85 L698.604 1479.92 Q701.266 1477.16 705.85 1472.53 Q710.456 1467.88 711.637 1466.54 Q713.882 1464.01 714.762 1462.28 Q715.664 1460.52 715.664 1458.83 Q715.664 1456.07 713.72 1454.34 Q711.799 1452.6 708.697 1452.6 Q706.498 1452.6 704.044 1453.37 Q701.613 1454.13 698.836 1455.68 L698.836 1450.96 Q701.66 1449.82 704.113 1449.25 Q706.567 1448.67 708.604 1448.67 Q713.975 1448.67 717.169 1451.35 Q720.363 1454.04 720.363 1458.53 Q720.363 1460.66 719.553 1462.58 Q718.766 1464.48 716.66 1467.07 Q716.081 1467.74 712.979 1470.96 Q709.877 1474.15 704.229 1479.92 Z" fill="#000000" fill-rule="evenodd" fill-opacity="1" /><path clip-path="url(#clip550)" d="M914.404 1467.02 L944.08 1467.02 L944.08 1470.96 L914.404 1470.96 L914.404 1467.02 Z" fill="#000000" fill-rule="evenodd" fill-opacity="1" /><path clip-path="url(#clip550)" d="M964.173 1452.37 Q960.562 1452.37 958.733 1455.94 Q956.927 1459.48 956.927 1466.61 Q956.927 1473.71 958.733 1477.28 Q960.562 1480.82 964.173 1480.82 Q967.807 1480.82 969.612 1477.28 Q971.441 1473.71 971.441 1466.61 Q971.441 1459.48 969.612 1455.94 Q967.807 1452.37 964.173 1452.37 M964.173 1448.67 Q969.983 1448.67 973.038 1453.27 Q976.117 1457.86 976.117 1466.61 Q976.117 1475.33 973.038 1479.94 Q969.983 1484.52 964.173 1484.52 Q958.362 1484.52 955.284 1479.94 Q952.228 1475.33 952.228 1466.61 Q952.228 1457.86 955.284 1453.27 Q958.362 1448.67 964.173 1448.67 Z" fill="#000000" fill-rule="evenodd" fill-opacity="1" /><path clip-path="url(#clip550)" d="M984.335 1477.97 L989.219 1477.97 L989.219 1483.85 L984.335 1483.85 L984.335 1477.97 Z" fill="#000000" fill-rule="evenodd" fill-opacity="1" /><path clip-path="url(#clip550)" d="M1009.4 1452.37 Q1005.79 1452.37 1003.96 1455.94 Q1002.16 1459.48 1002.16 1466.61 Q1002.16 1473.71 1003.96 1477.28 Q1005.79 1480.82 1009.4 1480.82 Q1013.04 1480.82 1014.84 1477.28 Q1016.67 1473.71 1016.67 1466.61 Q1016.67 1459.48 1014.84 1455.94 Q1013.04 1452.37 1009.4 1452.37 M1009.4 1448.67 Q1015.21 1448.67 1018.27 1453.27 Q1021.35 1457.86 1021.35 1466.61 Q1021.35 1475.33 1018.27 1479.94 Q1015.21 1484.52 1009.4 1484.52 Q1003.59 1484.52 1000.52 1479.94 Q997.459 1475.33 997.459 1466.61 Q997.459 1457.86 1000.52 1453.27 Q1003.59 1448.67 1009.4 1448.67 Z" fill="#000000" fill-rule="evenodd" fill-opacity="1" /><path clip-path="url(#clip550)" d="M1030.38 1479.92 L1038.01 1479.92 L1038.01 1453.55 L1029.7 1455.22 L1029.7 1450.96 L1037.97 1449.29 L1042.64 1449.29 L1042.64 1479.92 L1050.28 1479.92 L1050.28 1483.85 L1030.38 1483.85 L1030.38 1479.92 Z" fill="#000000" fill-rule="evenodd" fill-opacity="1" /><path clip-path="url(#clip550)" d="M1274.2 1452.37 Q1270.59 1452.37 1268.76 1455.94 Q1266.95 1459.48 1266.95 1466.61 Q1266.95 1473.71 1268.76 1477.28 Q1270.59 1480.82 1274.2 1480.82 Q1277.83 1480.82 1279.64 1477.28 Q1281.47 1473.71 1281.47 1466.61 Q1281.47 1459.48 1279.64 1455.94 Q1277.83 1452.37 1274.2 1452.37 M1274.2 1448.67 Q1280.01 1448.67 1283.06 1453.27 Q1286.14 1457.86 1286.14 1466.61 Q1286.14 1475.33 1283.06 1479.94 Q1280.01 1484.52 1274.2 1484.52 Q1268.39 1484.52 1265.31 1479.94 Q1262.25 1475.33 1262.25 1466.61 Q1262.25 1457.86 1265.31 1453.27 Q1268.39 1448.67 1274.2 1448.67 Z" fill="#000000" fill-rule="evenodd" fill-opacity="1" /><path clip-path="url(#clip550)" d="M1294.36 1477.97 L1299.24 1477.97 L1299.24 1483.85 L1294.36 1483.85 L1294.36 1477.97 Z" fill="#000000" fill-rule="evenodd" fill-opacity="1" /><path clip-path="url(#clip550)" d="M1319.43 1452.37 Q1315.82 1452.37 1313.99 1455.94 Q1312.18 1459.48 1312.18 1466.61 Q1312.18 1473.71 1313.99 1477.28 Q1315.82 1480.82 1319.43 1480.82 Q1323.06 1480.82 1324.87 1477.28 Q1326.7 1473.71 1326.7 1466.61 Q1326.7 1459.48 1324.87 1455.94 Q1323.06 1452.37 1319.43 1452.37 M1319.43 1448.67 Q1325.24 1448.67 1328.29 1453.27 Q1331.37 1457.86 1331.37 1466.61 Q1331.37 1475.33 1328.29 1479.94 Q1325.24 1484.52 1319.43 1484.52 Q1313.62 1484.52 1310.54 1479.94 Q1307.48 1475.33 1307.48 1466.61 Q1307.48 1457.86 1310.54 1453.27 Q1313.62 1448.67 1319.43 1448.67 Z" fill="#000000" fill-rule="evenodd" fill-opacity="1" /><path clip-path="url(#clip550)" d="M1349.59 1452.37 Q1345.98 1452.37 1344.15 1455.94 Q1342.34 1459.48 1342.34 1466.61 Q1342.34 1473.71 1344.15 1477.28 Q1345.98 1480.82 1349.59 1480.82 Q1353.22 1480.82 1355.03 1477.28 Q1356.86 1473.71 1356.86 1466.61 Q1356.86 1459.48 1355.03 1455.94 Q1353.22 1452.37 1349.59 1452.37 M1349.59 1448.67 Q1355.4 1448.67 1358.46 1453.27 Q1361.53 1457.86 1361.53 1466.61 Q1361.53 1475.33 1358.46 1479.94 Q1355.4 1484.52 1349.59 1484.52 Q1343.78 1484.52 1340.7 1479.94 Q1337.65 1475.33 1337.65 1466.61 Q1337.65 1457.86 1340.7 1453.27 Q1343.78 1448.67 1349.59 1448.67 Z" fill="#000000" fill-rule="evenodd" fill-opacity="1" /><path clip-path="url(#clip550)" d="M1604.36 1452.37 Q1600.75 1452.37 1598.92 1455.94 Q1597.11 1459.48 1597.11 1466.61 Q1597.11 1473.71 1598.92 1477.28 Q1600.75 1480.82 1604.36 1480.82 Q1607.99 1480.82 1609.8 1477.28 Q1611.63 1473.71 1611.63 1466.61 Q1611.63 1459.48 1609.8 1455.94 Q1607.99 1452.37 1604.36 1452.37 M1604.36 1448.67 Q1610.17 1448.67 1613.23 1453.27 Q1616.3 1457.86 1616.3 1466.61 Q1616.3 1475.33 1613.23 1479.94 Q1610.17 1484.52 1604.36 1484.52 Q1598.55 1484.52 1595.47 1479.94 Q1592.42 1475.33 1592.42 1466.61 Q1592.42 1457.86 1595.47 1453.27 Q1598.55 1448.67 1604.36 1448.67 Z" fill="#000000" fill-rule="evenodd" fill-opacity="1" /><path clip-path="url(#clip550)" d="M1624.52 1477.97 L1629.41 1477.97 L1629.41 1483.85 L1624.52 1483.85 L1624.52 1477.97 Z" fill="#000000" fill-rule="evenodd" fill-opacity="1" /><path clip-path="url(#clip550)" d="M1649.59 1452.37 Q1645.98 1452.37 1644.15 1455.94 Q1642.35 1459.48 1642.35 1466.61 Q1642.35 1473.71 1644.15 1477.28 Q1645.98 1480.82 1649.59 1480.82 Q1653.23 1480.82 1655.03 1477.28 Q1656.86 1473.71 1656.86 1466.61 Q1656.86 1459.48 1655.03 1455.94 Q1653.23 1452.37 1649.59 1452.37 M1649.59 1448.67 Q1655.4 1448.67 1658.46 1453.27 Q1661.54 1457.86 1661.54 1466.61 Q1661.54 1475.33 1658.46 1479.94 Q1655.4 1484.52 1649.59 1484.52 Q1643.78 1484.52 1640.7 1479.94 Q1637.65 1475.33 1637.65 1466.61 Q1637.65 1457.86 1640.7 1453.27 Q1643.78 1448.67 1649.59 1448.67 Z" fill="#000000" fill-rule="evenodd" fill-opacity="1" /><path clip-path="url(#clip550)" d="M1670.56 1479.92 L1678.2 1479.92 L1678.2 1453.55 L1669.89 1455.22 L1669.89 1450.96 L1678.16 1449.29 L1682.83 1449.29 L1682.83 1479.92 L1690.47 1479.92 L1690.47 1483.85 L1670.56 1483.85 L1670.56 1479.92 Z" fill="#000000" fill-rule="evenodd" fill-opacity="1" /><path clip-path="url(#clip550)" d="M1934.09 1452.37 Q1930.48 1452.37 1928.65 1455.94 Q1926.85 1459.48 1926.85 1466.61 Q1926.85 1473.71 1928.65 1477.28 Q1930.48 1480.82 1934.09 1480.82 Q1937.73 1480.82 1939.53 1477.28 Q1941.36 1473.71 1941.36 1466.61 Q1941.36 1459.48 1939.53 1455.94 Q1937.73 1452.37 1934.09 1452.37 M1934.09 1448.67 Q1939.9 1448.67 1942.96 1453.27 Q1946.04 1457.86 1946.04 1466.61 Q1946.04 1475.33 1942.96 1479.94 Q1939.9 1484.52 1934.09 1484.52 Q1928.28 1484.52 1925.21 1479.94 Q1922.15 1475.33 1922.15 1466.61 Q1922.15 1457.86 1925.21 1453.27 Q1928.28 1448.67 1934.09 1448.67 Z" fill="#000000" fill-rule="evenodd" fill-opacity="1" /><path clip-path="url(#clip550)" d="M1954.26 1477.97 L1959.14 1477.97 L1959.14 1483.85 L1954.26 1483.85 L1954.26 1477.97 Z" fill="#000000" fill-rule="evenodd" fill-opacity="1" /><path clip-path="url(#clip550)" d="M1979.33 1452.37 Q1975.71 1452.37 1973.89 1455.94 Q1972.08 1459.48 1972.08 1466.61 Q1972.08 1473.71 1973.89 1477.28 Q1975.71 1480.82 1979.33 1480.82 Q1982.96 1480.82 1984.77 1477.28 Q1986.59 1473.71 1986.59 1466.61 Q1986.59 1459.48 1984.77 1455.94 Q1982.96 1452.37 1979.33 1452.37 M1979.33 1448.67 Q1985.14 1448.67 1988.19 1453.27 Q1991.27 1457.86 1991.27 1466.61 Q1991.27 1475.33 1988.19 1479.94 Q1985.14 1484.52 1979.33 1484.52 Q1973.52 1484.52 1970.44 1479.94 Q1967.38 1475.33 1967.38 1466.61 Q1967.38 1457.86 1970.44 1453.27 Q1973.52 1448.67 1979.33 1448.67 Z" fill="#000000" fill-rule="evenodd" fill-opacity="1" /><path clip-path="url(#clip550)" d="M2003.52 1479.92 L2019.83 1479.92 L2019.83 1483.85 L1997.89 1483.85 L1997.89 1479.92 Q2000.55 1477.16 2005.14 1472.53 Q2009.74 1467.88 2010.92 1466.54 Q2013.17 1464.01 2014.05 1462.28 Q2014.95 1460.52 2014.95 1458.83 Q2014.95 1456.07 2013.01 1454.34 Q2011.08 1452.6 2007.98 1452.6 Q2005.78 1452.6 2003.33 1453.37 Q2000.9 1454.13 1998.12 1455.68 L1998.12 1450.96 Q2000.95 1449.82 2003.4 1449.25 Q2005.85 1448.67 2007.89 1448.67 Q2013.26 1448.67 2016.46 1451.35 Q2019.65 1454.04 2019.65 1458.53 Q2019.65 1460.66 2018.84 1462.58 Q2018.05 1464.48 2015.95 1467.07 Q2015.37 1467.74 2012.27 1470.96 Q2009.16 1474.15 2003.52 1479.92 Z" fill="#000000" fill-rule="evenodd" fill-opacity="1" /><path clip-path="url(#clip550)" d="M2263.17 1452.37 Q2259.56 1452.37 2257.73 1455.94 Q2255.92 1459.48 2255.92 1466.61 Q2255.92 1473.71 2257.73 1477.28 Q2259.56 1480.82 2263.17 1480.82 Q2266.8 1480.82 2268.61 1477.28 Q2270.44 1473.71 2270.44 1466.61 Q2270.44 1459.48 2268.61 1455.94 Q2266.8 1452.37 2263.17 1452.37 M2263.17 1448.67 Q2268.98 1448.67 2272.04 1453.27 Q2275.11 1457.86 2275.11 1466.61 Q2275.11 1475.33 2272.04 1479.94 Q2268.98 1484.52 2263.17 1484.52 Q2257.36 1484.52 2254.28 1479.94 Q2251.23 1475.33 2251.23 1466.61 Q2251.23 1457.86 2254.28 1453.27 Q2257.36 1448.67 2263.17 1448.67 Z" fill="#000000" fill-rule="evenodd" fill-opacity="1" /><path clip-path="url(#clip550)" d="M2283.33 1477.97 L2288.22 1477.97 L2288.22 1483.85 L2283.33 1483.85 L2283.33 1477.97 Z" fill="#000000" fill-rule="evenodd" fill-opacity="1" /><path clip-path="url(#clip550)" d="M2308.4 1452.37 Q2304.79 1452.37 2302.96 1455.94 Q2301.16 1459.48 2301.16 1466.61 Q2301.16 1473.71 2302.96 1477.28 Q2304.79 1480.82 2308.4 1480.82 Q2312.04 1480.82 2313.84 1477.28 Q2315.67 1473.71 2315.67 1466.61 Q2315.67 1459.48 2313.84 1455.94 Q2312.04 1452.37 2308.4 1452.37 M2308.4 1448.67 Q2314.21 1448.67 2317.27 1453.27 Q2320.35 1457.86 2320.35 1466.61 Q2320.35 1475.33 2317.27 1479.94 Q2314.21 1484.52 2308.4 1484.52 Q2302.59 1484.52 2299.51 1479.94 Q2296.46 1475.33 2296.46 1466.61 Q2296.46 1457.86 2299.51 1453.27 Q2302.59 1448.67 2308.4 1448.67 Z" fill="#000000" fill-rule="evenodd" fill-opacity="1" /><path clip-path="url(#clip550)" d="M2342.73 1465.22 Q2346.09 1465.94 2347.96 1468.2 Q2349.86 1470.47 2349.86 1473.81 Q2349.86 1478.92 2346.34 1481.72 Q2342.82 1484.52 2336.34 1484.52 Q2334.16 1484.52 2331.85 1484.08 Q2329.56 1483.67 2327.1 1482.81 L2327.1 1478.3 Q2329.05 1479.43 2331.36 1480.01 Q2333.68 1480.59 2336.2 1480.59 Q2340.6 1480.59 2342.89 1478.85 Q2345.21 1477.12 2345.21 1473.81 Q2345.21 1470.75 2343.05 1469.04 Q2340.92 1467.3 2337.1 1467.3 L2333.08 1467.3 L2333.08 1463.46 L2337.29 1463.46 Q2340.74 1463.46 2342.57 1462.09 Q2344.4 1460.7 2344.4 1458.11 Q2344.4 1455.45 2342.5 1454.04 Q2340.62 1452.6 2337.1 1452.6 Q2335.18 1452.6 2332.98 1453.02 Q2330.78 1453.44 2328.15 1454.31 L2328.15 1450.15 Q2330.81 1449.41 2333.12 1449.04 Q2335.46 1448.67 2337.52 1448.67 Q2342.85 1448.67 2345.95 1451.1 Q2349.05 1453.5 2349.05 1457.63 Q2349.05 1460.5 2347.41 1462.49 Q2345.76 1464.45 2342.73 1465.22 Z" fill="#000000" fill-rule="evenodd" fill-opacity="1" /><path clip-path="url(#clip550)" d="M1295.55 1532.4 L1282.66 1549.74 L1296.22 1568.04 L1289.31 1568.04 L1278.94 1554.04 L1268.56 1568.04 L1261.66 1568.04 L1275.5 1549.39 L1262.83 1532.4 L1269.74 1532.4 L1279.19 1545.1 L1288.65 1532.4 L1295.55 1532.4 Z" fill="#000000" fill-rule="evenodd" fill-opacity="1" /><polyline clip-path="url(#clip552)" style="stroke:#000000; stroke-linecap:butt; stroke-linejoin:round; stroke-width:2; stroke-opacity:0.1; fill:none" points="
  205.121,1384.24 2352.76,1384.24 
  "/>
<polyline clip-path="url(#clip552)" style="stroke:#000000; stroke-linecap:butt; stroke-linejoin:round; stroke-width:2; stroke-opacity:0.1; fill:none" points="
  205.121,1109.05 2352.76,1109.05 
  "/>
<polyline clip-path="url(#clip552)" style="stroke:#000000; stroke-linecap:butt; stroke-linejoin:round; stroke-width:2; stroke-opacity:0.1; fill:none" points="
  205.121,833.864 2352.76,833.864 
  "/>
<polyline clip-path="url(#clip552)" style="stroke:#000000; stroke-linecap:butt; stroke-linejoin:round; stroke-width:2; stroke-opacity:0.1; fill:none" points="
  205.121,558.677 2352.76,558.677 
  "/>
<polyline clip-path="url(#clip552)" style="stroke:#000000; stroke-linecap:butt; stroke-linejoin:round; stroke-width:2; stroke-opacity:0.1; fill:none" points="
  205.121,283.49 2352.76,283.49 
  "/>
<polyline clip-path="url(#clip550)" style="stroke:#000000; stroke-linecap:butt; stroke-linejoin:round; stroke-width:4; stroke-opacity:1; fill:none" points="
  205.121,1423.18 205.121,47.2441 
  "/>
<polyline clip-path="url(#clip550)" style="stroke:#000000; stroke-linecap:butt; stroke-linejoin:round; stroke-width:4; stroke-opacity:1; fill:none" points="
  205.121,1384.24 224.019,1384.24 
  "/>
<polyline clip-path="url(#clip550)" style="stroke:#000000; stroke-linecap:butt; stroke-linejoin:round; stroke-width:4; stroke-opacity:1; fill:none" points="
  205.121,1109.05 224.019,1109.05 
  "/>
<polyline clip-path="url(#clip550)" style="stroke:#000000; stroke-linecap:butt; stroke-linejoin:round; stroke-width:4; stroke-opacity:1; fill:none" points="
  205.121,833.864 224.019,833.864 
  "/>
<polyline clip-path="url(#clip550)" style="stroke:#000000; stroke-linecap:butt; stroke-linejoin:round; stroke-width:4; stroke-opacity:1; fill:none" points="
  205.121,558.677 224.019,558.677 
  "/>
<polyline clip-path="url(#clip550)" style="stroke:#000000; stroke-linecap:butt; stroke-linejoin:round; stroke-width:4; stroke-opacity:1; fill:none" points="
  205.121,283.49 224.019,283.49 
  "/>
<path clip-path="url(#clip550)" d="M157.177 1370.04 Q153.566 1370.04 151.737 1373.6 Q149.931 1377.14 149.931 1384.27 Q149.931 1391.38 151.737 1394.94 Q153.566 1398.49 157.177 1398.49 Q160.811 1398.49 162.616 1394.94 Q164.445 1391.38 164.445 1384.27 Q164.445 1377.14 162.616 1373.6 Q160.811 1370.04 157.177 1370.04 M157.177 1366.33 Q162.987 1366.33 166.042 1370.94 Q169.121 1375.52 169.121 1384.27 Q169.121 1393 166.042 1397.61 Q162.987 1402.19 157.177 1402.19 Q151.366 1402.19 148.288 1397.61 Q145.232 1393 145.232 1384.27 Q145.232 1375.52 148.288 1370.94 Q151.366 1366.33 157.177 1366.33 Z" fill="#000000" fill-rule="evenodd" fill-opacity="1" /><path clip-path="url(#clip550)" d="M117.825 1122.4 L125.464 1122.4 L125.464 1096.03 L117.154 1097.7 L117.154 1093.44 L125.418 1091.77 L130.093 1091.77 L130.093 1122.4 L137.732 1122.4 L137.732 1126.33 L117.825 1126.33 L117.825 1122.4 Z" fill="#000000" fill-rule="evenodd" fill-opacity="1" /><path clip-path="url(#clip550)" d="M157.177 1094.85 Q153.566 1094.85 151.737 1098.41 Q149.931 1101.96 149.931 1109.09 Q149.931 1116.19 151.737 1119.76 Q153.566 1123.3 157.177 1123.3 Q160.811 1123.3 162.616 1119.76 Q164.445 1116.19 164.445 1109.09 Q164.445 1101.96 162.616 1098.41 Q160.811 1094.85 157.177 1094.85 M157.177 1091.15 Q162.987 1091.15 166.042 1095.75 Q169.121 1100.34 169.121 1109.09 Q169.121 1117.81 166.042 1122.42 Q162.987 1127 157.177 1127 Q151.366 1127 148.288 1122.42 Q145.232 1117.81 145.232 1109.09 Q145.232 1100.34 148.288 1095.75 Q151.366 1091.15 157.177 1091.15 Z" fill="#000000" fill-rule="evenodd" fill-opacity="1" /><path clip-path="url(#clip550)" d="M121.043 847.209 L137.362 847.209 L137.362 851.144 L115.418 851.144 L115.418 847.209 Q118.08 844.454 122.663 839.825 Q127.269 835.172 128.45 833.829 Q130.695 831.306 131.575 829.57 Q132.478 827.811 132.478 826.121 Q132.478 823.366 130.533 821.63 Q128.612 819.894 125.51 819.894 Q123.311 819.894 120.857 820.658 Q118.427 821.422 115.649 822.973 L115.649 818.251 Q118.473 817.116 120.927 816.538 Q123.38 815.959 125.418 815.959 Q130.788 815.959 133.982 818.644 Q137.177 821.329 137.177 825.82 Q137.177 827.95 136.367 829.871 Q135.579 831.769 133.473 834.362 Q132.894 835.033 129.792 838.251 Q126.691 841.445 121.043 847.209 Z" fill="#000000" fill-rule="evenodd" fill-opacity="1" /><path clip-path="url(#clip550)" d="M157.177 819.663 Q153.566 819.663 151.737 823.227 Q149.931 826.769 149.931 833.899 Q149.931 841.005 151.737 844.57 Q153.566 848.112 157.177 848.112 Q160.811 848.112 162.616 844.57 Q164.445 841.005 164.445 833.899 Q164.445 826.769 162.616 823.227 Q160.811 819.663 157.177 819.663 M157.177 815.959 Q162.987 815.959 166.042 820.565 Q169.121 825.149 169.121 833.899 Q169.121 842.625 166.042 847.232 Q162.987 851.815 157.177 851.815 Q151.366 851.815 148.288 847.232 Q145.232 842.625 145.232 833.899 Q145.232 825.149 148.288 820.565 Q151.366 815.959 157.177 815.959 Z" fill="#000000" fill-rule="evenodd" fill-opacity="1" /><path clip-path="url(#clip550)" d="M131.181 557.323 Q134.538 558.04 136.413 560.309 Q138.311 562.577 138.311 565.911 Q138.311 571.026 134.792 573.827 Q131.274 576.628 124.793 576.628 Q122.617 576.628 120.302 576.188 Q118.01 575.772 115.556 574.915 L115.556 570.401 Q117.501 571.536 119.816 572.114 Q122.13 572.693 124.654 572.693 Q129.052 572.693 131.343 570.957 Q133.658 569.221 133.658 565.911 Q133.658 562.855 131.505 561.142 Q129.376 559.406 125.556 559.406 L121.529 559.406 L121.529 555.563 L125.742 555.563 Q129.191 555.563 131.019 554.198 Q132.848 552.809 132.848 550.216 Q132.848 547.554 130.95 546.142 Q129.075 544.707 125.556 544.707 Q123.635 544.707 121.436 545.124 Q119.237 545.54 116.598 546.42 L116.598 542.253 Q119.26 541.513 121.575 541.142 Q123.913 540.772 125.973 540.772 Q131.297 540.772 134.399 543.202 Q137.501 545.61 137.501 549.73 Q137.501 552.6 135.857 554.591 Q134.214 556.559 131.181 557.323 Z" fill="#000000" fill-rule="evenodd" fill-opacity="1" /><path clip-path="url(#clip550)" d="M157.177 544.476 Q153.566 544.476 151.737 548.04 Q149.931 551.582 149.931 558.712 Q149.931 565.818 151.737 569.383 Q153.566 572.924 157.177 572.924 Q160.811 572.924 162.616 569.383 Q164.445 565.818 164.445 558.712 Q164.445 551.582 162.616 548.04 Q160.811 544.476 157.177 544.476 M157.177 540.772 Q162.987 540.772 166.042 545.378 Q169.121 549.962 169.121 558.712 Q169.121 567.438 166.042 572.045 Q162.987 576.628 157.177 576.628 Q151.366 576.628 148.288 572.045 Q145.232 567.438 145.232 558.712 Q145.232 549.962 148.288 545.378 Q151.366 540.772 157.177 540.772 Z" fill="#000000" fill-rule="evenodd" fill-opacity="1" /><path clip-path="url(#clip550)" d="M129.862 270.284 L118.056 288.733 L129.862 288.733 L129.862 270.284 M128.635 266.21 L134.515 266.21 L134.515 288.733 L139.445 288.733 L139.445 292.622 L134.515 292.622 L134.515 300.77 L129.862 300.77 L129.862 292.622 L114.26 292.622 L114.26 288.108 L128.635 266.21 Z" fill="#000000" fill-rule="evenodd" fill-opacity="1" /><path clip-path="url(#clip550)" d="M157.177 269.288 Q153.566 269.288 151.737 272.853 Q149.931 276.395 149.931 283.524 Q149.931 290.631 151.737 294.196 Q153.566 297.737 157.177 297.737 Q160.811 297.737 162.616 294.196 Q164.445 290.631 164.445 283.524 Q164.445 276.395 162.616 272.853 Q160.811 269.288 157.177 269.288 M157.177 265.585 Q162.987 265.585 166.042 270.191 Q169.121 274.774 169.121 283.524 Q169.121 292.251 166.042 296.858 Q162.987 301.441 157.177 301.441 Q151.366 301.441 148.288 296.858 Q145.232 292.251 145.232 283.524 Q145.232 274.774 148.288 270.191 Q151.366 265.585 157.177 265.585 Z" fill="#000000" fill-rule="evenodd" fill-opacity="1" /><path clip-path="url(#clip550)" d="M58.657 821.133 L77.5631 821.133 L77.5631 827.021 L28.3562 827.021 L28.3562 821.133 L33.7671 821.133 Q30.5842 819.287 29.0564 816.486 Q27.4968 813.653 27.4968 809.738 Q27.4968 803.245 32.6531 799.203 Q37.8093 795.129 46.212 795.129 Q54.6147 795.129 59.771 799.203 Q64.9272 803.245 64.9272 809.738 Q64.9272 813.653 63.3994 816.486 Q61.8398 819.287 58.657 821.133 M46.212 801.208 Q39.7508 801.208 36.0905 803.882 Q32.3984 806.524 32.3984 811.171 Q32.3984 815.818 36.0905 818.491 Q39.7508 821.133 46.212 821.133 Q52.6732 821.133 56.3653 818.491 Q60.0256 815.818 60.0256 811.171 Q60.0256 806.524 56.3653 803.882 Q52.6732 801.208 46.212 801.208 Z" fill="#000000" fill-rule="evenodd" fill-opacity="1" /><path clip-path="url(#clip550)" d="M33.7671 761.964 L14.479 761.964 L14.479 756.107 L64.0042 756.107 L64.0042 761.964 L58.657 761.964 Q61.8398 763.81 63.3994 766.643 Q64.9272 769.444 64.9272 773.39 Q64.9272 779.851 59.771 783.926 Q54.6147 787.968 46.212 787.968 Q37.8093 787.968 32.6531 783.926 Q27.4968 779.851 27.4968 773.39 Q27.4968 769.444 29.0564 766.643 Q30.5842 763.81 33.7671 761.964 M46.212 781.92 Q52.6732 781.92 56.3653 779.279 Q60.0256 776.605 60.0256 771.958 Q60.0256 767.311 56.3653 764.637 Q52.6732 761.964 46.212 761.964 Q39.7508 761.964 36.0905 764.637 Q32.3984 767.311 32.3984 771.958 Q32.3984 776.605 36.0905 779.279 Q39.7508 781.92 46.212 781.92 Z" fill="#000000" fill-rule="evenodd" fill-opacity="1" /><path clip-path="url(#clip550)" d="M14.479 725.998 L19.3487 725.998 L19.3487 731.599 Q19.3487 734.75 20.6219 735.992 Q21.895 737.201 25.2052 737.201 L28.3562 737.201 L28.3562 727.557 L32.9077 727.557 L32.9077 737.201 L64.0042 737.201 L64.0042 743.09 L32.9077 743.09 L32.9077 748.691 L28.3562 748.691 L28.3562 743.09 L25.8736 743.09 Q19.9216 743.09 17.2162 740.32 Q14.479 737.551 14.479 731.536 L14.479 725.998 Z" fill="#000000" fill-rule="evenodd" fill-opacity="1" /><path clip-path="url(#clip550)" d="M14.5426 707.028 Q21.8632 711.293 29.0246 713.362 Q36.186 715.431 43.5384 715.431 Q50.8908 715.431 58.1159 713.362 Q65.3091 711.261 72.5979 707.028 L72.5979 712.12 Q65.1182 716.895 57.8931 719.282 Q50.668 721.637 43.5384 721.637 Q36.4406 721.637 29.2474 719.282 Q22.0542 716.926 14.5426 712.12 L14.5426 707.028 Z" fill="#000000" fill-rule="evenodd" fill-opacity="1" /><path clip-path="url(#clip550)" d="M28.3562 666.033 L45.7028 678.923 L64.0042 665.364 L64.0042 672.271 L49.9996 682.647 L64.0042 693.023 L64.0042 699.93 L45.3526 686.085 L28.3562 698.752 L28.3562 691.846 L41.0558 682.393 L28.3562 672.939 L28.3562 666.033 Z" fill="#000000" fill-rule="evenodd" fill-opacity="1" /><path clip-path="url(#clip550)" d="M14.5426 658.012 L14.5426 652.919 Q22.0542 648.145 29.2474 645.79 Q36.4406 643.403 43.5384 643.403 Q50.668 643.403 57.8931 645.79 Q65.1182 648.145 72.5979 652.919 L72.5979 658.012 Q65.3091 653.779 58.1159 651.71 Q50.8908 649.609 43.5384 649.609 Q36.186 649.609 29.0246 651.71 Q21.8632 653.779 14.5426 658.012 Z" fill="#000000" fill-rule="evenodd" fill-opacity="1" /><path clip-path="url(#clip552)" d="
M323.245 1362.6 L323.245 1384.24 L356.2 1384.24 L356.2 1362.6 L323.245 1362.6 L323.245 1362.6  Z
  " fill="#009af9" fill-rule="evenodd" fill-opacity="0.5"/>
<polyline clip-path="url(#clip552)" style="stroke:#000000; stroke-linecap:butt; stroke-linejoin:round; stroke-width:4; stroke-opacity:0.5; fill:none" points="
  323.245,1362.6 323.245,1384.24 356.2,1384.24 356.2,1362.6 323.245,1362.6 
  "/>
<path clip-path="url(#clip552)" d="
M356.2 1384.24 L356.2 1384.24 L389.155 1384.24 L389.155 1384.24 L356.2 1384.24 L356.2 1384.24  Z
  " fill="#009af9" fill-rule="evenodd" fill-opacity="0.5"/>
<polyline clip-path="url(#clip552)" style="stroke:#000000; stroke-linecap:butt; stroke-linejoin:round; stroke-width:4; stroke-opacity:0.5; fill:none" points="
  356.2,1384.24 356.2,1384.24 389.155,1384.24 356.2,1384.24 
  "/>
<path clip-path="url(#clip552)" d="
M389.155 1340.97 L389.155 1384.24 L422.11 1384.24 L422.11 1340.97 L389.155 1340.97 L389.155 1340.97  Z
  " fill="#009af9" fill-rule="evenodd" fill-opacity="0.5"/>
<polyline clip-path="url(#clip552)" style="stroke:#000000; stroke-linecap:butt; stroke-linejoin:round; stroke-width:4; stroke-opacity:0.5; fill:none" points="
  389.155,1340.97 389.155,1384.24 422.11,1384.24 422.11,1340.97 389.155,1340.97 
  "/>
<path clip-path="url(#clip552)" d="
M422.11 1362.6 L422.11 1384.24 L455.065 1384.24 L455.065 1362.6 L422.11 1362.6 L422.11 1362.6  Z
  " fill="#009af9" fill-rule="evenodd" fill-opacity="0.5"/>
<polyline clip-path="url(#clip552)" style="stroke:#000000; stroke-linecap:butt; stroke-linejoin:round; stroke-width:4; stroke-opacity:0.5; fill:none" points="
  422.11,1362.6 422.11,1384.24 455.065,1384.24 455.065,1362.6 422.11,1362.6 
  "/>
<path clip-path="url(#clip552)" d="
M455.065 1297.7 L455.065 1384.24 L488.019 1384.24 L488.019 1297.7 L455.065 1297.7 L455.065 1297.7  Z
  " fill="#009af9" fill-rule="evenodd" fill-opacity="0.5"/>
<polyline clip-path="url(#clip552)" style="stroke:#000000; stroke-linecap:butt; stroke-linejoin:round; stroke-width:4; stroke-opacity:0.5; fill:none" points="
  455.065,1297.7 455.065,1384.24 488.019,1384.24 488.019,1297.7 455.065,1297.7 
  "/>
<path clip-path="url(#clip552)" d="
M488.019 1319.34 L488.019 1384.24 L520.974 1384.24 L520.974 1319.34 L488.019 1319.34 L488.019 1319.34  Z
  " fill="#009af9" fill-rule="evenodd" fill-opacity="0.5"/>
<polyline clip-path="url(#clip552)" style="stroke:#000000; stroke-linecap:butt; stroke-linejoin:round; stroke-width:4; stroke-opacity:0.5; fill:none" points="
  488.019,1319.34 488.019,1384.24 520.974,1384.24 520.974,1319.34 488.019,1319.34 
  "/>
<path clip-path="url(#clip552)" d="
M520.974 1340.97 L520.974 1384.24 L553.929 1384.24 L553.929 1340.97 L520.974 1340.97 L520.974 1340.97  Z
  " fill="#009af9" fill-rule="evenodd" fill-opacity="0.5"/>
<polyline clip-path="url(#clip552)" style="stroke:#000000; stroke-linecap:butt; stroke-linejoin:round; stroke-width:4; stroke-opacity:0.5; fill:none" points="
  520.974,1340.97 520.974,1384.24 553.929,1384.24 553.929,1340.97 520.974,1340.97 
  "/>
<path clip-path="url(#clip552)" d="
M553.929 1340.97 L553.929 1384.24 L586.884 1384.24 L586.884 1340.97 L553.929 1340.97 L553.929 1340.97  Z
  " fill="#009af9" fill-rule="evenodd" fill-opacity="0.5"/>
<polyline clip-path="url(#clip552)" style="stroke:#000000; stroke-linecap:butt; stroke-linejoin:round; stroke-width:4; stroke-opacity:0.5; fill:none" points="
  553.929,1340.97 553.929,1384.24 586.884,1384.24 586.884,1340.97 553.929,1340.97 
  "/>
<path clip-path="url(#clip552)" d="
M586.884 1189.53 L586.884 1384.24 L619.839 1384.24 L619.839 1189.53 L586.884 1189.53 L586.884 1189.53  Z
  " fill="#009af9" fill-rule="evenodd" fill-opacity="0.5"/>
<polyline clip-path="url(#clip552)" style="stroke:#000000; stroke-linecap:butt; stroke-linejoin:round; stroke-width:4; stroke-opacity:0.5; fill:none" points="
  586.884,1189.53 586.884,1384.24 619.839,1384.24 619.839,1189.53 586.884,1189.53 
  "/>
<path clip-path="url(#clip552)" d="
M619.839 1211.16 L619.839 1384.24 L652.794 1384.24 L652.794 1211.16 L619.839 1211.16 L619.839 1211.16  Z
  " fill="#009af9" fill-rule="evenodd" fill-opacity="0.5"/>
<polyline clip-path="url(#clip552)" style="stroke:#000000; stroke-linecap:butt; stroke-linejoin:round; stroke-width:4; stroke-opacity:0.5; fill:none" points="
  619.839,1211.16 619.839,1384.24 652.794,1384.24 652.794,1211.16 619.839,1211.16 
  "/>
<path clip-path="url(#clip552)" d="
M652.794 1232.8 L652.794 1384.24 L685.749 1384.24 L685.749 1232.8 L652.794 1232.8 L652.794 1232.8  Z
  " fill="#009af9" fill-rule="evenodd" fill-opacity="0.5"/>
<polyline clip-path="url(#clip552)" style="stroke:#000000; stroke-linecap:butt; stroke-linejoin:round; stroke-width:4; stroke-opacity:0.5; fill:none" points="
  652.794,1232.8 652.794,1384.24 685.749,1384.24 685.749,1232.8 652.794,1232.8 
  "/>
<path clip-path="url(#clip552)" d="
M685.749 1124.63 L685.749 1384.24 L718.704 1384.24 L718.704 1124.63 L685.749 1124.63 L685.749 1124.63  Z
  " fill="#009af9" fill-rule="evenodd" fill-opacity="0.5"/>
<polyline clip-path="url(#clip552)" style="stroke:#000000; stroke-linecap:butt; stroke-linejoin:round; stroke-width:4; stroke-opacity:0.5; fill:none" points="
  685.749,1124.63 685.749,1384.24 718.704,1384.24 718.704,1124.63 685.749,1124.63 
  "/>
<path clip-path="url(#clip552)" d="
M718.704 1146.26 L718.704 1384.24 L751.659 1384.24 L751.659 1146.26 L718.704 1146.26 L718.704 1146.26  Z
  " fill="#009af9" fill-rule="evenodd" fill-opacity="0.5"/>
<polyline clip-path="url(#clip552)" style="stroke:#000000; stroke-linecap:butt; stroke-linejoin:round; stroke-width:4; stroke-opacity:0.5; fill:none" points="
  718.704,1146.26 718.704,1384.24 751.659,1384.24 751.659,1146.26 718.704,1146.26 
  "/>
<path clip-path="url(#clip552)" d="
M751.659 1211.16 L751.659 1384.24 L784.614 1384.24 L784.614 1211.16 L751.659 1211.16 L751.659 1211.16  Z
  " fill="#009af9" fill-rule="evenodd" fill-opacity="0.5"/>
<polyline clip-path="url(#clip552)" style="stroke:#000000; stroke-linecap:butt; stroke-linejoin:round; stroke-width:4; stroke-opacity:0.5; fill:none" points="
  751.659,1211.16 751.659,1384.24 784.614,1384.24 784.614,1211.16 751.659,1211.16 
  "/>
<path clip-path="url(#clip552)" d="
M784.614 929.92 L784.614 1384.24 L817.569 1384.24 L817.569 929.92 L784.614 929.92 L784.614 929.92  Z
  " fill="#009af9" fill-rule="evenodd" fill-opacity="0.5"/>
<polyline clip-path="url(#clip552)" style="stroke:#000000; stroke-linecap:butt; stroke-linejoin:round; stroke-width:4; stroke-opacity:0.5; fill:none" points="
  784.614,929.92 784.614,1384.24 817.569,1384.24 817.569,929.92 784.614,929.92 
  "/>
<path clip-path="url(#clip552)" d="
M817.569 1081.36 L817.569 1384.24 L850.524 1384.24 L850.524 1081.36 L817.569 1081.36 L817.569 1081.36  Z
  " fill="#009af9" fill-rule="evenodd" fill-opacity="0.5"/>
<polyline clip-path="url(#clip552)" style="stroke:#000000; stroke-linecap:butt; stroke-linejoin:round; stroke-width:4; stroke-opacity:0.5; fill:none" points="
  817.569,1081.36 817.569,1384.24 850.524,1384.24 850.524,1081.36 817.569,1081.36 
  "/>
<path clip-path="url(#clip552)" d="
M850.524 1016.46 L850.524 1384.24 L883.479 1384.24 L883.479 1016.46 L850.524 1016.46 L850.524 1016.46  Z
  " fill="#009af9" fill-rule="evenodd" fill-opacity="0.5"/>
<polyline clip-path="url(#clip552)" style="stroke:#000000; stroke-linecap:butt; stroke-linejoin:round; stroke-width:4; stroke-opacity:0.5; fill:none" points="
  850.524,1016.46 850.524,1384.24 883.479,1384.24 883.479,1016.46 850.524,1016.46 
  "/>
<path clip-path="url(#clip552)" d="
M883.479 929.92 L883.479 1384.24 L916.434 1384.24 L916.434 929.92 L883.479 929.92 L883.479 929.92  Z
  " fill="#009af9" fill-rule="evenodd" fill-opacity="0.5"/>
<polyline clip-path="url(#clip552)" style="stroke:#000000; stroke-linecap:butt; stroke-linejoin:round; stroke-width:4; stroke-opacity:0.5; fill:none" points="
  883.479,929.92 883.479,1384.24 916.434,1384.24 916.434,929.92 883.479,929.92 
  "/>
<path clip-path="url(#clip552)" d="
M916.434 800.115 L916.434 1384.24 L949.389 1384.24 L949.389 800.115 L916.434 800.115 L916.434 800.115  Z
  " fill="#009af9" fill-rule="evenodd" fill-opacity="0.5"/>
<polyline clip-path="url(#clip552)" style="stroke:#000000; stroke-linecap:butt; stroke-linejoin:round; stroke-width:4; stroke-opacity:0.5; fill:none" points="
  916.434,800.115 916.434,1384.24 949.389,1384.24 949.389,800.115 916.434,800.115 
  "/>
<path clip-path="url(#clip552)" d="
M949.389 756.846 L949.389 1384.24 L982.344 1384.24 L982.344 756.846 L949.389 756.846 L949.389 756.846  Z
  " fill="#009af9" fill-rule="evenodd" fill-opacity="0.5"/>
<polyline clip-path="url(#clip552)" style="stroke:#000000; stroke-linecap:butt; stroke-linejoin:round; stroke-width:4; stroke-opacity:0.5; fill:none" points="
  949.389,756.846 949.389,1384.24 982.344,1384.24 982.344,756.846 949.389,756.846 
  "/>
<path clip-path="url(#clip552)" d="
M982.344 518.87 L982.344 1384.24 L1015.3 1384.24 L1015.3 518.87 L982.344 518.87 L982.344 518.87  Z
  " fill="#009af9" fill-rule="evenodd" fill-opacity="0.5"/>
<polyline clip-path="url(#clip552)" style="stroke:#000000; stroke-linecap:butt; stroke-linejoin:round; stroke-width:4; stroke-opacity:0.5; fill:none" points="
  982.344,518.87 982.344,1384.24 1015.3,1384.24 1015.3,518.87 982.344,518.87 
  "/>
<path clip-path="url(#clip552)" d="
M1015.3 865.017 L1015.3 1384.24 L1048.25 1384.24 L1048.25 865.017 L1015.3 865.017 L1015.3 865.017  Z
  " fill="#009af9" fill-rule="evenodd" fill-opacity="0.5"/>
<polyline clip-path="url(#clip552)" style="stroke:#000000; stroke-linecap:butt; stroke-linejoin:round; stroke-width:4; stroke-opacity:0.5; fill:none" points="
  1015.3,865.017 1015.3,1384.24 1048.25,1384.24 1048.25,865.017 1015.3,865.017 
  "/>
<path clip-path="url(#clip552)" d="
M1048.25 583.772 L1048.25 1384.24 L1081.21 1384.24 L1081.21 583.772 L1048.25 583.772 L1048.25 583.772  Z
  " fill="#009af9" fill-rule="evenodd" fill-opacity="0.5"/>
<polyline clip-path="url(#clip552)" style="stroke:#000000; stroke-linecap:butt; stroke-linejoin:round; stroke-width:4; stroke-opacity:0.5; fill:none" points="
  1048.25,583.772 1048.25,1384.24 1081.21,1384.24 1081.21,583.772 1048.25,583.772 
  "/>
<path clip-path="url(#clip552)" d="
M1081.21 389.065 L1081.21 1384.24 L1114.16 1384.24 L1114.16 389.065 L1081.21 389.065 L1081.21 389.065  Z
  " fill="#009af9" fill-rule="evenodd" fill-opacity="0.5"/>
<polyline clip-path="url(#clip552)" style="stroke:#000000; stroke-linecap:butt; stroke-linejoin:round; stroke-width:4; stroke-opacity:0.5; fill:none" points="
  1081.21,389.065 1081.21,1384.24 1114.16,1384.24 1114.16,389.065 1081.21,389.065 
  "/>
<path clip-path="url(#clip552)" d="
M1114.16 562.138 L1114.16 1384.24 L1147.12 1384.24 L1147.12 562.138 L1114.16 562.138 L1114.16 562.138  Z
  " fill="#009af9" fill-rule="evenodd" fill-opacity="0.5"/>
<polyline clip-path="url(#clip552)" style="stroke:#000000; stroke-linecap:butt; stroke-linejoin:round; stroke-width:4; stroke-opacity:0.5; fill:none" points="
  1114.16,562.138 1114.16,1384.24 1147.12,1384.24 1147.12,562.138 1114.16,562.138 
  "/>
<path clip-path="url(#clip552)" d="
M1147.12 367.43 L1147.12 1384.24 L1180.07 1384.24 L1180.07 367.43 L1147.12 367.43 L1147.12 367.43  Z
  " fill="#009af9" fill-rule="evenodd" fill-opacity="0.5"/>
<polyline clip-path="url(#clip552)" style="stroke:#000000; stroke-linecap:butt; stroke-linejoin:round; stroke-width:4; stroke-opacity:0.5; fill:none" points="
  1147.12,367.43 1147.12,1384.24 1180.07,1384.24 1180.07,367.43 1147.12,367.43 
  "/>
<path clip-path="url(#clip552)" d="
M1180.07 345.796 L1180.07 1384.24 L1213.03 1384.24 L1213.03 345.796 L1180.07 345.796 L1180.07 345.796  Z
  " fill="#009af9" fill-rule="evenodd" fill-opacity="0.5"/>
<polyline clip-path="url(#clip552)" style="stroke:#000000; stroke-linecap:butt; stroke-linejoin:round; stroke-width:4; stroke-opacity:0.5; fill:none" points="
  1180.07,345.796 1180.07,1384.24 1213.03,1384.24 1213.03,345.796 1180.07,345.796 
  "/>
<path clip-path="url(#clip552)" d="
M1213.03 497.236 L1213.03 1384.24 L1245.98 1384.24 L1245.98 497.236 L1213.03 497.236 L1213.03 497.236  Z
  " fill="#009af9" fill-rule="evenodd" fill-opacity="0.5"/>
<polyline clip-path="url(#clip552)" style="stroke:#000000; stroke-linecap:butt; stroke-linejoin:round; stroke-width:4; stroke-opacity:0.5; fill:none" points="
  1213.03,497.236 1213.03,1384.24 1245.98,1384.24 1245.98,497.236 1213.03,497.236 
  "/>
<path clip-path="url(#clip552)" d="
M1245.98 86.1857 L1245.98 1384.24 L1278.94 1384.24 L1278.94 86.1857 L1245.98 86.1857 L1245.98 86.1857  Z
  " fill="#009af9" fill-rule="evenodd" fill-opacity="0.5"/>
<polyline clip-path="url(#clip552)" style="stroke:#000000; stroke-linecap:butt; stroke-linejoin:round; stroke-width:4; stroke-opacity:0.5; fill:none" points="
  1245.98,86.1857 1245.98,1384.24 1278.94,1384.24 1278.94,86.1857 1245.98,86.1857 
  "/>
<path clip-path="url(#clip552)" d="
M1278.94 475.601 L1278.94 1384.24 L1311.89 1384.24 L1311.89 475.601 L1278.94 475.601 L1278.94 475.601  Z
  " fill="#009af9" fill-rule="evenodd" fill-opacity="0.5"/>
<polyline clip-path="url(#clip552)" style="stroke:#000000; stroke-linecap:butt; stroke-linejoin:round; stroke-width:4; stroke-opacity:0.5; fill:none" points="
  1278.94,475.601 1278.94,1384.24 1311.89,1384.24 1311.89,475.601 1278.94,475.601 
  "/>
<path clip-path="url(#clip552)" d="
M1311.89 410.699 L1311.89 1384.24 L1344.85 1384.24 L1344.85 410.699 L1311.89 410.699 L1311.89 410.699  Z
  " fill="#009af9" fill-rule="evenodd" fill-opacity="0.5"/>
<polyline clip-path="url(#clip552)" style="stroke:#000000; stroke-linecap:butt; stroke-linejoin:round; stroke-width:4; stroke-opacity:0.5; fill:none" points="
  1311.89,410.699 1311.89,1384.24 1344.85,1384.24 1344.85,410.699 1311.89,410.699 
  "/>
<path clip-path="url(#clip552)" d="
M1344.85 280.894 L1344.85 1384.24 L1377.8 1384.24 L1377.8 280.894 L1344.85 280.894 L1344.85 280.894  Z
  " fill="#009af9" fill-rule="evenodd" fill-opacity="0.5"/>
<polyline clip-path="url(#clip552)" style="stroke:#000000; stroke-linecap:butt; stroke-linejoin:round; stroke-width:4; stroke-opacity:0.5; fill:none" points="
  1344.85,280.894 1344.85,1384.24 1377.8,1384.24 1377.8,280.894 1344.85,280.894 
  "/>
<path clip-path="url(#clip552)" d="
M1377.8 172.723 L1377.8 1384.24 L1410.76 1384.24 L1410.76 172.723 L1377.8 172.723 L1377.8 172.723  Z
  " fill="#009af9" fill-rule="evenodd" fill-opacity="0.5"/>
<polyline clip-path="url(#clip552)" style="stroke:#000000; stroke-linecap:butt; stroke-linejoin:round; stroke-width:4; stroke-opacity:0.5; fill:none" points="
  1377.8,172.723 1377.8,1384.24 1410.76,1384.24 1410.76,172.723 1377.8,172.723 
  "/>
<path clip-path="url(#clip552)" d="
M1410.76 453.967 L1410.76 1384.24 L1443.71 1384.24 L1443.71 453.967 L1410.76 453.967 L1410.76 453.967  Z
  " fill="#009af9" fill-rule="evenodd" fill-opacity="0.5"/>
<polyline clip-path="url(#clip552)" style="stroke:#000000; stroke-linecap:butt; stroke-linejoin:round; stroke-width:4; stroke-opacity:0.5; fill:none" points="
  1410.76,453.967 1410.76,1384.24 1443.71,1384.24 1443.71,453.967 1410.76,453.967 
  "/>
<path clip-path="url(#clip552)" d="
M1443.71 389.065 L1443.71 1384.24 L1476.67 1384.24 L1476.67 389.065 L1443.71 389.065 L1443.71 389.065  Z
  " fill="#009af9" fill-rule="evenodd" fill-opacity="0.5"/>
<polyline clip-path="url(#clip552)" style="stroke:#000000; stroke-linecap:butt; stroke-linejoin:round; stroke-width:4; stroke-opacity:0.5; fill:none" points="
  1443.71,389.065 1443.71,1384.24 1476.67,1384.24 1476.67,389.065 1443.71,389.065 
  "/>
<path clip-path="url(#clip552)" d="
M1476.67 324.162 L1476.67 1384.24 L1509.62 1384.24 L1509.62 324.162 L1476.67 324.162 L1476.67 324.162  Z
  " fill="#009af9" fill-rule="evenodd" fill-opacity="0.5"/>
<polyline clip-path="url(#clip552)" style="stroke:#000000; stroke-linecap:butt; stroke-linejoin:round; stroke-width:4; stroke-opacity:0.5; fill:none" points="
  1476.67,324.162 1476.67,1384.24 1509.62,1384.24 1509.62,324.162 1476.67,324.162 
  "/>
<path clip-path="url(#clip552)" d="
M1509.62 302.528 L1509.62 1384.24 L1542.58 1384.24 L1542.58 302.528 L1509.62 302.528 L1509.62 302.528  Z
  " fill="#009af9" fill-rule="evenodd" fill-opacity="0.5"/>
<polyline clip-path="url(#clip552)" style="stroke:#000000; stroke-linecap:butt; stroke-linejoin:round; stroke-width:4; stroke-opacity:0.5; fill:none" points="
  1509.62,302.528 1509.62,1384.24 1542.58,1384.24 1542.58,302.528 1509.62,302.528 
  "/>
<path clip-path="url(#clip552)" d="
M1542.58 670.309 L1542.58 1384.24 L1575.53 1384.24 L1575.53 670.309 L1542.58 670.309 L1542.58 670.309  Z
  " fill="#009af9" fill-rule="evenodd" fill-opacity="0.5"/>
<polyline clip-path="url(#clip552)" style="stroke:#000000; stroke-linecap:butt; stroke-linejoin:round; stroke-width:4; stroke-opacity:0.5; fill:none" points="
  1542.58,670.309 1542.58,1384.24 1575.53,1384.24 1575.53,670.309 1542.58,670.309 
  "/>
<path clip-path="url(#clip552)" d="
M1575.53 735.212 L1575.53 1384.24 L1608.49 1384.24 L1608.49 735.212 L1575.53 735.212 L1575.53 735.212  Z
  " fill="#009af9" fill-rule="evenodd" fill-opacity="0.5"/>
<polyline clip-path="url(#clip552)" style="stroke:#000000; stroke-linecap:butt; stroke-linejoin:round; stroke-width:4; stroke-opacity:0.5; fill:none" points="
  1575.53,735.212 1575.53,1384.24 1608.49,1384.24 1608.49,735.212 1575.53,735.212 
  "/>
<path clip-path="url(#clip552)" d="
M1608.49 735.212 L1608.49 1384.24 L1641.44 1384.24 L1641.44 735.212 L1608.49 735.212 L1608.49 735.212  Z
  " fill="#009af9" fill-rule="evenodd" fill-opacity="0.5"/>
<polyline clip-path="url(#clip552)" style="stroke:#000000; stroke-linecap:butt; stroke-linejoin:round; stroke-width:4; stroke-opacity:0.5; fill:none" points="
  1608.49,735.212 1608.49,1384.24 1641.44,1384.24 1641.44,735.212 1608.49,735.212 
  "/>
<path clip-path="url(#clip552)" d="
M1641.44 821.749 L1641.44 1384.24 L1674.4 1384.24 L1674.4 821.749 L1641.44 821.749 L1641.44 821.749  Z
  " fill="#009af9" fill-rule="evenodd" fill-opacity="0.5"/>
<polyline clip-path="url(#clip552)" style="stroke:#000000; stroke-linecap:butt; stroke-linejoin:round; stroke-width:4; stroke-opacity:0.5; fill:none" points="
  1641.44,821.749 1641.44,1384.24 1674.4,1384.24 1674.4,821.749 1641.44,821.749 
  "/>
<path clip-path="url(#clip552)" d="
M1674.4 929.92 L1674.4 1384.24 L1707.35 1384.24 L1707.35 929.92 L1674.4 929.92 L1674.4 929.92  Z
  " fill="#009af9" fill-rule="evenodd" fill-opacity="0.5"/>
<polyline clip-path="url(#clip552)" style="stroke:#000000; stroke-linecap:butt; stroke-linejoin:round; stroke-width:4; stroke-opacity:0.5; fill:none" points="
  1674.4,929.92 1674.4,1384.24 1707.35,1384.24 1707.35,929.92 1674.4,929.92 
  "/>
<path clip-path="url(#clip552)" d="
M1707.35 756.846 L1707.35 1384.24 L1740.31 1384.24 L1740.31 756.846 L1707.35 756.846 L1707.35 756.846  Z
  " fill="#009af9" fill-rule="evenodd" fill-opacity="0.5"/>
<polyline clip-path="url(#clip552)" style="stroke:#000000; stroke-linecap:butt; stroke-linejoin:round; stroke-width:4; stroke-opacity:0.5; fill:none" points="
  1707.35,756.846 1707.35,1384.24 1740.31,1384.24 1740.31,756.846 1707.35,756.846 
  "/>
<path clip-path="url(#clip552)" d="
M1740.31 973.188 L1740.31 1384.24 L1773.26 1384.24 L1773.26 973.188 L1740.31 973.188 L1740.31 973.188  Z
  " fill="#009af9" fill-rule="evenodd" fill-opacity="0.5"/>
<polyline clip-path="url(#clip552)" style="stroke:#000000; stroke-linecap:butt; stroke-linejoin:round; stroke-width:4; stroke-opacity:0.5; fill:none" points="
  1740.31,973.188 1740.31,1384.24 1773.26,1384.24 1773.26,973.188 1740.31,973.188 
  "/>
<path clip-path="url(#clip552)" d="
M1773.26 1102.99 L1773.26 1384.24 L1806.22 1384.24 L1806.22 1102.99 L1773.26 1102.99 L1773.26 1102.99  Z
  " fill="#009af9" fill-rule="evenodd" fill-opacity="0.5"/>
<polyline clip-path="url(#clip552)" style="stroke:#000000; stroke-linecap:butt; stroke-linejoin:round; stroke-width:4; stroke-opacity:0.5; fill:none" points="
  1773.26,1102.99 1773.26,1384.24 1806.22,1384.24 1806.22,1102.99 1773.26,1102.99 
  "/>
<path clip-path="url(#clip552)" d="
M1806.22 1081.36 L1806.22 1384.24 L1839.17 1384.24 L1839.17 1081.36 L1806.22 1081.36 L1806.22 1081.36  Z
  " fill="#009af9" fill-rule="evenodd" fill-opacity="0.5"/>
<polyline clip-path="url(#clip552)" style="stroke:#000000; stroke-linecap:butt; stroke-linejoin:round; stroke-width:4; stroke-opacity:0.5; fill:none" points="
  1806.22,1081.36 1806.22,1384.24 1839.17,1384.24 1839.17,1081.36 1806.22,1081.36 
  "/>
<path clip-path="url(#clip552)" d="
M1839.17 951.554 L1839.17 1384.24 L1872.13 1384.24 L1872.13 951.554 L1839.17 951.554 L1839.17 951.554  Z
  " fill="#009af9" fill-rule="evenodd" fill-opacity="0.5"/>
<polyline clip-path="url(#clip552)" style="stroke:#000000; stroke-linecap:butt; stroke-linejoin:round; stroke-width:4; stroke-opacity:0.5; fill:none" points="
  1839.17,951.554 1839.17,1384.24 1872.13,1384.24 1872.13,951.554 1839.17,951.554 
  "/>
<path clip-path="url(#clip552)" d="
M1872.13 994.822 L1872.13 1384.24 L1905.08 1384.24 L1905.08 994.822 L1872.13 994.822 L1872.13 994.822  Z
  " fill="#009af9" fill-rule="evenodd" fill-opacity="0.5"/>
<polyline clip-path="url(#clip552)" style="stroke:#000000; stroke-linecap:butt; stroke-linejoin:round; stroke-width:4; stroke-opacity:0.5; fill:none" points="
  1872.13,994.822 1872.13,1384.24 1905.08,1384.24 1905.08,994.822 1872.13,994.822 
  "/>
<path clip-path="url(#clip552)" d="
M1905.08 1038.09 L1905.08 1384.24 L1938.04 1384.24 L1938.04 1038.09 L1905.08 1038.09 L1905.08 1038.09  Z
  " fill="#009af9" fill-rule="evenodd" fill-opacity="0.5"/>
<polyline clip-path="url(#clip552)" style="stroke:#000000; stroke-linecap:butt; stroke-linejoin:round; stroke-width:4; stroke-opacity:0.5; fill:none" points="
  1905.08,1038.09 1905.08,1384.24 1938.04,1384.24 1938.04,1038.09 1905.08,1038.09 
  "/>
<path clip-path="url(#clip552)" d="
M1938.04 1232.8 L1938.04 1384.24 L1970.99 1384.24 L1970.99 1232.8 L1938.04 1232.8 L1938.04 1232.8  Z
  " fill="#009af9" fill-rule="evenodd" fill-opacity="0.5"/>
<polyline clip-path="url(#clip552)" style="stroke:#000000; stroke-linecap:butt; stroke-linejoin:round; stroke-width:4; stroke-opacity:0.5; fill:none" points="
  1938.04,1232.8 1938.04,1384.24 1970.99,1384.24 1970.99,1232.8 1938.04,1232.8 
  "/>
<path clip-path="url(#clip552)" d="
M1970.99 1189.53 L1970.99 1384.24 L2003.95 1384.24 L2003.95 1189.53 L1970.99 1189.53 L1970.99 1189.53  Z
  " fill="#009af9" fill-rule="evenodd" fill-opacity="0.5"/>
<polyline clip-path="url(#clip552)" style="stroke:#000000; stroke-linecap:butt; stroke-linejoin:round; stroke-width:4; stroke-opacity:0.5; fill:none" points="
  1970.99,1189.53 1970.99,1384.24 2003.95,1384.24 2003.95,1189.53 1970.99,1189.53 
  "/>
<path clip-path="url(#clip552)" d="
M2003.95 1189.53 L2003.95 1384.24 L2036.9 1384.24 L2036.9 1189.53 L2003.95 1189.53 L2003.95 1189.53  Z
  " fill="#009af9" fill-rule="evenodd" fill-opacity="0.5"/>
<polyline clip-path="url(#clip552)" style="stroke:#000000; stroke-linecap:butt; stroke-linejoin:round; stroke-width:4; stroke-opacity:0.5; fill:none" points="
  2003.95,1189.53 2003.95,1384.24 2036.9,1384.24 2036.9,1189.53 2003.95,1189.53 
  "/>
<path clip-path="url(#clip552)" d="
M2036.9 1340.97 L2036.9 1384.24 L2069.86 1384.24 L2069.86 1340.97 L2036.9 1340.97 L2036.9 1340.97  Z
  " fill="#009af9" fill-rule="evenodd" fill-opacity="0.5"/>
<polyline clip-path="url(#clip552)" style="stroke:#000000; stroke-linecap:butt; stroke-linejoin:round; stroke-width:4; stroke-opacity:0.5; fill:none" points="
  2036.9,1340.97 2036.9,1384.24 2069.86,1384.24 2069.86,1340.97 2036.9,1340.97 
  "/>
<path clip-path="url(#clip552)" d="
M2069.86 1319.34 L2069.86 1384.24 L2102.81 1384.24 L2102.81 1319.34 L2069.86 1319.34 L2069.86 1319.34  Z
  " fill="#009af9" fill-rule="evenodd" fill-opacity="0.5"/>
<polyline clip-path="url(#clip552)" style="stroke:#000000; stroke-linecap:butt; stroke-linejoin:round; stroke-width:4; stroke-opacity:0.5; fill:none" points="
  2069.86,1319.34 2069.86,1384.24 2102.81,1384.24 2102.81,1319.34 2069.86,1319.34 
  "/>
<path clip-path="url(#clip552)" d="
M2102.81 1276.07 L2102.81 1384.24 L2135.77 1384.24 L2135.77 1276.07 L2102.81 1276.07 L2102.81 1276.07  Z
  " fill="#009af9" fill-rule="evenodd" fill-opacity="0.5"/>
<polyline clip-path="url(#clip552)" style="stroke:#000000; stroke-linecap:butt; stroke-linejoin:round; stroke-width:4; stroke-opacity:0.5; fill:none" points="
  2102.81,1276.07 2102.81,1384.24 2135.77,1384.24 2135.77,1276.07 2102.81,1276.07 
  "/>
<path clip-path="url(#clip552)" d="
M2135.77 1340.97 L2135.77 1384.24 L2168.72 1384.24 L2168.72 1340.97 L2135.77 1340.97 L2135.77 1340.97  Z
  " fill="#009af9" fill-rule="evenodd" fill-opacity="0.5"/>
<polyline clip-path="url(#clip552)" style="stroke:#000000; stroke-linecap:butt; stroke-linejoin:round; stroke-width:4; stroke-opacity:0.5; fill:none" points="
  2135.77,1340.97 2135.77,1384.24 2168.72,1384.24 2168.72,1340.97 2135.77,1340.97 
  "/>
<path clip-path="url(#clip552)" d="
M2168.72 1340.97 L2168.72 1384.24 L2201.68 1384.24 L2201.68 1340.97 L2168.72 1340.97 L2168.72 1340.97  Z
  " fill="#009af9" fill-rule="evenodd" fill-opacity="0.5"/>
<polyline clip-path="url(#clip552)" style="stroke:#000000; stroke-linecap:butt; stroke-linejoin:round; stroke-width:4; stroke-opacity:0.5; fill:none" points="
  2168.72,1340.97 2168.72,1384.24 2201.68,1384.24 2201.68,1340.97 2168.72,1340.97 
  "/>
<path clip-path="url(#clip552)" d="
M2201.68 1340.97 L2201.68 1384.24 L2234.63 1384.24 L2234.63 1340.97 L2201.68 1340.97 L2201.68 1340.97  Z
  " fill="#009af9" fill-rule="evenodd" fill-opacity="0.5"/>
<polyline clip-path="url(#clip552)" style="stroke:#000000; stroke-linecap:butt; stroke-linejoin:round; stroke-width:4; stroke-opacity:0.5; fill:none" points="
  2201.68,1340.97 2201.68,1384.24 2234.63,1384.24 2234.63,1340.97 2201.68,1340.97 
  "/>
<circle clip-path="url(#clip552)" style="fill:#009af9; stroke:none; fill-opacity:0" cx="339.722" cy="1362.6" r="2"/>
<circle clip-path="url(#clip552)" style="fill:#009af9; stroke:none; fill-opacity:0" cx="372.677" cy="1384.24" r="2"/>
<circle clip-path="url(#clip552)" style="fill:#009af9; stroke:none; fill-opacity:0" cx="405.632" cy="1340.97" r="2"/>
<circle clip-path="url(#clip552)" style="fill:#009af9; stroke:none; fill-opacity:0" cx="438.587" cy="1362.6" r="2"/>
<circle clip-path="url(#clip552)" style="fill:#009af9; stroke:none; fill-opacity:0" cx="471.542" cy="1297.7" r="2"/>
<circle clip-path="url(#clip552)" style="fill:#009af9; stroke:none; fill-opacity:0" cx="504.497" cy="1319.34" r="2"/>
<circle clip-path="url(#clip552)" style="fill:#009af9; stroke:none; fill-opacity:0" cx="537.452" cy="1340.97" r="2"/>
<circle clip-path="url(#clip552)" style="fill:#009af9; stroke:none; fill-opacity:0" cx="570.407" cy="1340.97" r="2"/>
<circle clip-path="url(#clip552)" style="fill:#009af9; stroke:none; fill-opacity:0" cx="603.362" cy="1189.53" r="2"/>
<circle clip-path="url(#clip552)" style="fill:#009af9; stroke:none; fill-opacity:0" cx="636.317" cy="1211.16" r="2"/>
<circle clip-path="url(#clip552)" style="fill:#009af9; stroke:none; fill-opacity:0" cx="669.272" cy="1232.8" r="2"/>
<circle clip-path="url(#clip552)" style="fill:#009af9; stroke:none; fill-opacity:0" cx="702.227" cy="1124.63" r="2"/>
<circle clip-path="url(#clip552)" style="fill:#009af9; stroke:none; fill-opacity:0" cx="735.182" cy="1146.26" r="2"/>
<circle clip-path="url(#clip552)" style="fill:#009af9; stroke:none; fill-opacity:0" cx="768.137" cy="1211.16" r="2"/>
<circle clip-path="url(#clip552)" style="fill:#009af9; stroke:none; fill-opacity:0" cx="801.092" cy="929.92" r="2"/>
<circle clip-path="url(#clip552)" style="fill:#009af9; stroke:none; fill-opacity:0" cx="834.047" cy="1081.36" r="2"/>
<circle clip-path="url(#clip552)" style="fill:#009af9; stroke:none; fill-opacity:0" cx="867.001" cy="1016.46" r="2"/>
<circle clip-path="url(#clip552)" style="fill:#009af9; stroke:none; fill-opacity:0" cx="899.956" cy="929.92" r="2"/>
<circle clip-path="url(#clip552)" style="fill:#009af9; stroke:none; fill-opacity:0" cx="932.911" cy="800.115" r="2"/>
<circle clip-path="url(#clip552)" style="fill:#009af9; stroke:none; fill-opacity:0" cx="965.866" cy="756.846" r="2"/>
<circle clip-path="url(#clip552)" style="fill:#009af9; stroke:none; fill-opacity:0" cx="998.821" cy="518.87" r="2"/>
<circle clip-path="url(#clip552)" style="fill:#009af9; stroke:none; fill-opacity:0" cx="1031.78" cy="865.017" r="2"/>
<circle clip-path="url(#clip552)" style="fill:#009af9; stroke:none; fill-opacity:0" cx="1064.73" cy="583.772" r="2"/>
<circle clip-path="url(#clip552)" style="fill:#009af9; stroke:none; fill-opacity:0" cx="1097.69" cy="389.065" r="2"/>
<circle clip-path="url(#clip552)" style="fill:#009af9; stroke:none; fill-opacity:0" cx="1130.64" cy="562.138" r="2"/>
<circle clip-path="url(#clip552)" style="fill:#009af9; stroke:none; fill-opacity:0" cx="1163.6" cy="367.43" r="2"/>
<circle clip-path="url(#clip552)" style="fill:#009af9; stroke:none; fill-opacity:0" cx="1196.55" cy="345.796" r="2"/>
<circle clip-path="url(#clip552)" style="fill:#009af9; stroke:none; fill-opacity:0" cx="1229.51" cy="497.236" r="2"/>
<circle clip-path="url(#clip552)" style="fill:#009af9; stroke:none; fill-opacity:0" cx="1262.46" cy="86.1857" r="2"/>
<circle clip-path="url(#clip552)" style="fill:#009af9; stroke:none; fill-opacity:0" cx="1295.42" cy="475.601" r="2"/>
<circle clip-path="url(#clip552)" style="fill:#009af9; stroke:none; fill-opacity:0" cx="1328.37" cy="410.699" r="2"/>
<circle clip-path="url(#clip552)" style="fill:#009af9; stroke:none; fill-opacity:0" cx="1361.33" cy="280.894" r="2"/>
<circle clip-path="url(#clip552)" style="fill:#009af9; stroke:none; fill-opacity:0" cx="1394.28" cy="172.723" r="2"/>
<circle clip-path="url(#clip552)" style="fill:#009af9; stroke:none; fill-opacity:0" cx="1427.24" cy="453.967" r="2"/>
<circle clip-path="url(#clip552)" style="fill:#009af9; stroke:none; fill-opacity:0" cx="1460.19" cy="389.065" r="2"/>
<circle clip-path="url(#clip552)" style="fill:#009af9; stroke:none; fill-opacity:0" cx="1493.15" cy="324.162" r="2"/>
<circle clip-path="url(#clip552)" style="fill:#009af9; stroke:none; fill-opacity:0" cx="1526.1" cy="302.528" r="2"/>
<circle clip-path="url(#clip552)" style="fill:#009af9; stroke:none; fill-opacity:0" cx="1559.06" cy="670.309" r="2"/>
<circle clip-path="url(#clip552)" style="fill:#009af9; stroke:none; fill-opacity:0" cx="1592.01" cy="735.212" r="2"/>
<circle clip-path="url(#clip552)" style="fill:#009af9; stroke:none; fill-opacity:0" cx="1624.97" cy="735.212" r="2"/>
<circle clip-path="url(#clip552)" style="fill:#009af9; stroke:none; fill-opacity:0" cx="1657.92" cy="821.749" r="2"/>
<circle clip-path="url(#clip552)" style="fill:#009af9; stroke:none; fill-opacity:0" cx="1690.88" cy="929.92" r="2"/>
<circle clip-path="url(#clip552)" style="fill:#009af9; stroke:none; fill-opacity:0" cx="1723.83" cy="756.846" r="2"/>
<circle clip-path="url(#clip552)" style="fill:#009af9; stroke:none; fill-opacity:0" cx="1756.79" cy="973.188" r="2"/>
<circle clip-path="url(#clip552)" style="fill:#009af9; stroke:none; fill-opacity:0" cx="1789.74" cy="1102.99" r="2"/>
<circle clip-path="url(#clip552)" style="fill:#009af9; stroke:none; fill-opacity:0" cx="1822.7" cy="1081.36" r="2"/>
<circle clip-path="url(#clip552)" style="fill:#009af9; stroke:none; fill-opacity:0" cx="1855.65" cy="951.554" r="2"/>
<circle clip-path="url(#clip552)" style="fill:#009af9; stroke:none; fill-opacity:0" cx="1888.61" cy="994.822" r="2"/>
<circle clip-path="url(#clip552)" style="fill:#009af9; stroke:none; fill-opacity:0" cx="1921.56" cy="1038.09" r="2"/>
<circle clip-path="url(#clip552)" style="fill:#009af9; stroke:none; fill-opacity:0" cx="1954.52" cy="1232.8" r="2"/>
<circle clip-path="url(#clip552)" style="fill:#009af9; stroke:none; fill-opacity:0" cx="1987.47" cy="1189.53" r="2"/>
<circle clip-path="url(#clip552)" style="fill:#009af9; stroke:none; fill-opacity:0" cx="2020.42" cy="1189.53" r="2"/>
<circle clip-path="url(#clip552)" style="fill:#009af9; stroke:none; fill-opacity:0" cx="2053.38" cy="1340.97" r="2"/>
<circle clip-path="url(#clip552)" style="fill:#009af9; stroke:none; fill-opacity:0" cx="2086.33" cy="1319.34" r="2"/>
<circle clip-path="url(#clip552)" style="fill:#009af9; stroke:none; fill-opacity:0" cx="2119.29" cy="1276.07" r="2"/>
<circle clip-path="url(#clip552)" style="fill:#009af9; stroke:none; fill-opacity:0" cx="2152.24" cy="1340.97" r="2"/>
<circle clip-path="url(#clip552)" style="fill:#009af9; stroke:none; fill-opacity:0" cx="2185.2" cy="1340.97" r="2"/>
<circle clip-path="url(#clip552)" style="fill:#009af9; stroke:none; fill-opacity:0" cx="2218.15" cy="1340.97" r="2"/>
<polyline clip-path="url(#clip552)" style="stroke:#000000; stroke-linecap:butt; stroke-linejoin:round; stroke-width:16; stroke-opacity:1; fill:none" points="
  336.373,1370.51 355.542,1367.95 374.712,1364.99 393.881,1361.57 413.05,1357.62 432.22,1353.1 451.389,1347.93 470.558,1342.05 489.727,1335.37 508.897,1327.84 
  528.066,1319.36 547.235,1309.86 566.404,1299.26 585.574,1287.47 604.743,1274.42 623.912,1260.03 643.081,1244.23 662.251,1226.95 681.42,1208.14 700.589,1187.74 
  719.759,1165.72 738.928,1142.06 758.097,1116.74 777.266,1089.77 796.436,1061.17 815.605,1031 834.774,999.314 853.943,966.201 873.113,931.773 892.282,896.164 
  911.451,859.531 930.62,822.054 949.79,783.935 968.959,745.396 988.128,706.679 1007.3,668.044 1026.47,629.762 1045.64,592.119 1064.81,555.407 1083.97,519.923 
  1103.14,485.964 1122.31,453.824 1141.48,423.79 1160.65,396.135 1179.82,371.117 1198.99,348.975 1218.16,329.922 1237.33,314.146 1256.5,301.801 1275.67,293.013 
  1294.84,287.87 1314.01,286.423 1333.17,288.687 1352.34,294.64 1371.51,304.22 1390.68,317.333 1409.85,333.846 1429.02,353.597 1448.19,376.392 1467.36,402.012 
  1486.53,430.214 1505.7,460.736 1524.87,493.302 1544.04,527.622 1563.21,563.403 1582.38,600.346 1601.54,638.154 1620.71,676.538 1639.88,715.214 1659.05,753.914 
  1678.22,792.38 1697.39,830.376 1716.56,867.684 1735.73,904.106 1754.9,939.467 1774.07,973.616 1793.24,1006.42 1812.41,1037.78 1831.58,1067.61 1850.75,1095.85 
  1869.91,1122.46 1889.08,1147.42 1908.25,1170.72 1927.42,1192.38 1946.59,1212.42 1965.76,1230.89 1984.93,1247.83 2004.1,1263.32 2023.27,1277.41 2042.44,1290.17 
  2061.61,1301.69 2080.78,1312.05 2099.95,1321.31 2119.11,1329.58 2138.28,1336.92 2157.45,1343.41 2176.62,1349.13 2195.79,1354.15 2214.96,1358.54 2234.13,1362.36 
  
  "/>
<path clip-path="url(#clip550)" d="
M1650.34 248.629 L2281.17 248.629 L2281.17 93.1086 L1650.34 93.1086  Z
  " fill="#ffffff" fill-rule="evenodd" fill-opacity="1"/>
<polyline clip-path="url(#clip550)" style="stroke:#000000; stroke-linecap:butt; stroke-linejoin:round; stroke-width:4; stroke-opacity:1; fill:none" points="
  1650.34,248.629 2281.17,248.629 2281.17,93.1086 1650.34,93.1086 1650.34,248.629 
  "/>
<path clip-path="url(#clip550)" d="
M1674.21 165.685 L1817.38 165.685 L1817.38 124.213 L1674.21 124.213 L1674.21 165.685  Z
  " fill="#009af9" fill-rule="evenodd" fill-opacity="0.5"/>
<polyline clip-path="url(#clip550)" style="stroke:#000000; stroke-linecap:butt; stroke-linejoin:round; stroke-width:4; stroke-opacity:1; fill:none" points="
  1674.21,165.685 1817.38,165.685 1817.38,124.213 1674.21,124.213 1674.21,165.685 
  "/>
<path clip-path="url(#clip550)" d="M1863.49 128.803 L1863.49 133.363 Q1860.83 132.09 1858.47 131.465 Q1856.11 130.84 1853.91 130.84 Q1850.09 130.84 1848.01 132.321 Q1845.94 133.803 1845.94 136.534 Q1845.94 138.826 1847.31 140.007 Q1848.7 141.164 1852.54 141.882 L1855.37 142.46 Q1860.6 143.456 1863.07 145.979 Q1865.57 148.479 1865.57 152.692 Q1865.57 157.715 1862.19 160.307 Q1858.84 162.9 1852.33 162.9 Q1849.88 162.9 1847.1 162.344 Q1844.35 161.789 1841.38 160.701 L1841.38 155.886 Q1844.23 157.483 1846.96 158.293 Q1849.69 159.104 1852.33 159.104 Q1856.34 159.104 1858.51 157.53 Q1860.69 155.956 1860.69 153.039 Q1860.69 150.493 1859.12 149.057 Q1857.57 147.622 1854 146.905 L1851.15 146.349 Q1845.92 145.307 1843.58 143.085 Q1841.25 140.863 1841.25 136.905 Q1841.25 132.321 1844.46 129.682 Q1847.7 127.044 1853.38 127.044 Q1855.81 127.044 1858.33 127.483 Q1860.85 127.923 1863.49 128.803 Z" fill="#000000" fill-rule="evenodd" fill-opacity="1" /><path clip-path="url(#clip550)" d="M1884.46 149.196 Q1879.3 149.196 1877.31 150.377 Q1875.32 151.557 1875.32 154.405 Q1875.32 156.673 1876.8 158.016 Q1878.31 159.335 1880.88 159.335 Q1884.42 159.335 1886.55 156.835 Q1888.7 154.312 1888.7 150.145 L1888.7 149.196 L1884.46 149.196 M1892.96 147.437 L1892.96 162.229 L1888.7 162.229 L1888.7 158.293 Q1887.24 160.655 1885.07 161.789 Q1882.89 162.9 1879.74 162.9 Q1875.76 162.9 1873.4 160.678 Q1871.06 158.432 1871.06 154.682 Q1871.06 150.307 1873.98 148.085 Q1876.92 145.863 1882.73 145.863 L1888.7 145.863 L1888.7 145.446 Q1888.7 142.507 1886.75 140.909 Q1884.83 139.289 1881.34 139.289 Q1879.12 139.289 1877.01 139.821 Q1874.9 140.354 1872.96 141.419 L1872.96 137.483 Q1875.3 136.581 1877.5 136.141 Q1879.69 135.678 1881.78 135.678 Q1887.4 135.678 1890.18 138.594 Q1892.96 141.511 1892.96 147.437 Z" fill="#000000" fill-rule="evenodd" fill-opacity="1" /><path clip-path="url(#clip550)" d="M1921.92 141.28 Q1923.51 138.409 1925.74 137.044 Q1927.96 135.678 1930.97 135.678 Q1935.02 135.678 1937.22 138.525 Q1939.42 141.349 1939.42 146.581 L1939.42 162.229 L1935.13 162.229 L1935.13 146.719 Q1935.13 142.993 1933.81 141.187 Q1932.5 139.382 1929.79 139.382 Q1926.48 139.382 1924.56 141.581 Q1922.63 143.78 1922.63 147.576 L1922.63 162.229 L1918.35 162.229 L1918.35 146.719 Q1918.35 142.969 1917.03 141.187 Q1915.71 139.382 1912.96 139.382 Q1909.69 139.382 1907.77 141.604 Q1905.85 143.803 1905.85 147.576 L1905.85 162.229 L1901.57 162.229 L1901.57 136.303 L1905.85 136.303 L1905.85 140.331 Q1907.31 137.946 1909.35 136.812 Q1911.38 135.678 1914.19 135.678 Q1917.01 135.678 1918.98 137.113 Q1920.97 138.548 1921.92 141.28 Z" fill="#000000" fill-rule="evenodd" fill-opacity="1" /><path clip-path="url(#clip550)" d="M1952.03 158.34 L1952.03 172.09 L1947.75 172.09 L1947.75 136.303 L1952.03 136.303 L1952.03 140.238 Q1953.37 137.923 1955.41 136.812 Q1957.47 135.678 1960.32 135.678 Q1965.04 135.678 1967.98 139.428 Q1970.94 143.178 1970.94 149.289 Q1970.94 155.4 1967.98 159.15 Q1965.04 162.9 1960.32 162.9 Q1957.47 162.9 1955.41 161.789 Q1953.37 160.655 1952.03 158.34 M1966.52 149.289 Q1966.52 144.59 1964.58 141.928 Q1962.66 139.243 1959.28 139.243 Q1955.9 139.243 1953.95 141.928 Q1952.03 144.59 1952.03 149.289 Q1952.03 153.988 1953.95 156.673 Q1955.9 159.335 1959.28 159.335 Q1962.66 159.335 1964.58 156.673 Q1966.52 153.988 1966.52 149.289 Z" fill="#000000" fill-rule="evenodd" fill-opacity="1" /><path clip-path="url(#clip550)" d="M1978 126.21 L1982.26 126.21 L1982.26 162.229 L1978 162.229 L1978 126.21 Z" fill="#000000" fill-rule="evenodd" fill-opacity="1" /><path clip-path="url(#clip550)" d="M2013.35 148.201 L2013.35 150.284 L1993.77 150.284 Q1994.05 154.682 1996.41 156.997 Q1998.79 159.289 2003.03 159.289 Q2005.48 159.289 2007.77 158.687 Q2010.09 158.085 2012.36 156.881 L2012.36 160.909 Q2010.06 161.881 2007.66 162.391 Q2005.25 162.9 2002.77 162.9 Q1996.57 162.9 1992.93 159.289 Q1989.32 155.678 1989.32 149.52 Q1989.32 143.155 1992.75 139.428 Q1996.2 135.678 2002.03 135.678 Q2007.26 135.678 2010.3 139.057 Q2013.35 142.414 2013.35 148.201 M2009.09 146.951 Q2009.05 143.456 2007.12 141.372 Q2005.23 139.289 2002.08 139.289 Q1998.51 139.289 1996.36 141.303 Q1994.23 143.317 1993.91 146.974 L2009.09 146.951 Z" fill="#000000" fill-rule="evenodd" fill-opacity="1" /><path clip-path="url(#clip550)" d="M2037.4 140.238 L2037.4 126.21 L2041.66 126.21 L2041.66 162.229 L2037.4 162.229 L2037.4 158.34 Q2036.06 160.655 2034 161.789 Q2031.96 162.9 2029.09 162.9 Q2024.39 162.9 2021.43 159.15 Q2018.49 155.4 2018.49 149.289 Q2018.49 143.178 2021.43 139.428 Q2024.39 135.678 2029.09 135.678 Q2031.96 135.678 2034 136.812 Q2036.06 137.923 2037.4 140.238 M2022.89 149.289 Q2022.89 153.988 2024.81 156.673 Q2026.75 159.335 2030.13 159.335 Q2033.51 159.335 2035.46 156.673 Q2037.4 153.988 2037.4 149.289 Q2037.4 144.59 2035.46 141.928 Q2033.51 139.243 2030.13 139.243 Q2026.75 139.243 2024.81 141.928 Q2022.89 144.59 2022.89 149.289 Z" fill="#000000" fill-rule="evenodd" fill-opacity="1" /><path clip-path="url(#clip550)" d="M2082.56 140.238 L2082.56 126.21 L2086.82 126.21 L2086.82 162.229 L2082.56 162.229 L2082.56 158.34 Q2081.22 160.655 2079.16 161.789 Q2077.12 162.9 2074.25 162.9 Q2069.55 162.9 2066.59 159.15 Q2063.65 155.4 2063.65 149.289 Q2063.65 143.178 2066.59 139.428 Q2069.55 135.678 2074.25 135.678 Q2077.12 135.678 2079.16 136.812 Q2081.22 137.923 2082.56 140.238 M2068.05 149.289 Q2068.05 153.988 2069.97 156.673 Q2071.92 159.335 2075.3 159.335 Q2078.68 159.335 2080.62 156.673 Q2082.56 153.988 2082.56 149.289 Q2082.56 144.59 2080.62 141.928 Q2078.68 139.243 2075.3 139.243 Q2071.92 139.243 2069.97 141.928 Q2068.05 144.59 2068.05 149.289 Z" fill="#000000" fill-rule="evenodd" fill-opacity="1" /><path clip-path="url(#clip550)" d="M2117.77 148.201 L2117.77 150.284 L2098.19 150.284 Q2098.47 154.682 2100.83 156.997 Q2103.21 159.289 2107.45 159.289 Q2109.9 159.289 2112.19 158.687 Q2114.51 158.085 2116.78 156.881 L2116.78 160.909 Q2114.49 161.881 2112.08 162.391 Q2109.67 162.9 2107.19 162.9 Q2100.99 162.9 2097.36 159.289 Q2093.74 155.678 2093.74 149.52 Q2093.74 143.155 2097.17 139.428 Q2100.62 135.678 2106.45 135.678 Q2111.68 135.678 2114.72 139.057 Q2117.77 142.414 2117.77 148.201 M2113.51 146.951 Q2113.47 143.456 2111.55 141.372 Q2109.65 139.289 2106.5 139.289 Q2102.93 139.289 2100.78 141.303 Q2098.65 143.317 2098.33 146.974 L2113.51 146.951 Z" fill="#000000" fill-rule="evenodd" fill-opacity="1" /><path clip-path="url(#clip550)" d="M2146.31 146.581 L2146.31 162.229 L2142.05 162.229 L2142.05 146.719 Q2142.05 143.039 2140.62 141.21 Q2139.18 139.382 2136.31 139.382 Q2132.86 139.382 2130.87 141.581 Q2128.88 143.78 2128.88 147.576 L2128.88 162.229 L2124.6 162.229 L2124.6 136.303 L2128.88 136.303 L2128.88 140.331 Q2130.41 137.993 2132.47 136.835 Q2134.55 135.678 2137.26 135.678 Q2141.73 135.678 2144.02 138.456 Q2146.31 141.21 2146.31 146.581 Z" fill="#000000" fill-rule="evenodd" fill-opacity="1" /><path clip-path="url(#clip550)" d="M2171.34 137.067 L2171.34 141.094 Q2169.53 140.169 2167.59 139.706 Q2165.64 139.243 2163.56 139.243 Q2160.39 139.243 2158.79 140.215 Q2157.22 141.187 2157.22 143.131 Q2157.22 144.613 2158.35 145.469 Q2159.48 146.303 2162.91 147.067 L2164.37 147.391 Q2168.91 148.363 2170.8 150.145 Q2172.73 151.905 2172.73 155.076 Q2172.73 158.687 2169.86 160.793 Q2167.01 162.9 2162.01 162.9 Q2159.92 162.9 2157.66 162.483 Q2155.41 162.09 2152.91 161.28 L2152.91 156.881 Q2155.27 158.108 2157.56 158.733 Q2159.86 159.335 2162.1 159.335 Q2165.11 159.335 2166.73 158.317 Q2168.35 157.275 2168.35 155.4 Q2168.35 153.664 2167.17 152.738 Q2166.01 151.812 2162.05 150.956 L2160.57 150.608 Q2156.61 149.775 2154.86 148.062 Q2153.1 146.326 2153.1 143.317 Q2153.1 139.659 2155.69 137.669 Q2158.28 135.678 2163.05 135.678 Q2165.41 135.678 2167.49 136.025 Q2169.58 136.372 2171.34 137.067 Z" fill="#000000" fill-rule="evenodd" fill-opacity="1" /><path clip-path="url(#clip550)" d="M2179.51 136.303 L2183.77 136.303 L2183.77 162.229 L2179.51 162.229 L2179.51 136.303 M2179.51 126.21 L2183.77 126.21 L2183.77 131.604 L2179.51 131.604 L2179.51 126.21 Z" fill="#000000" fill-rule="evenodd" fill-opacity="1" /><path clip-path="url(#clip550)" d="M2196.89 128.942 L2196.89 136.303 L2205.67 136.303 L2205.67 139.613 L2196.89 139.613 L2196.89 153.687 Q2196.89 156.858 2197.75 157.761 Q2198.63 158.664 2201.29 158.664 L2205.67 158.664 L2205.67 162.229 L2201.29 162.229 Q2196.36 162.229 2194.48 160.4 Q2192.61 158.548 2192.61 153.687 L2192.61 139.613 L2189.48 139.613 L2189.48 136.303 L2192.61 136.303 L2192.61 128.942 L2196.89 128.942 Z" fill="#000000" fill-rule="evenodd" fill-opacity="1" /><path clip-path="url(#clip550)" d="M2222.05 164.636 Q2220.25 169.266 2218.54 170.678 Q2216.82 172.09 2213.95 172.09 L2210.55 172.09 L2210.55 168.525 L2213.05 168.525 Q2214.81 168.525 2215.78 167.692 Q2216.75 166.858 2217.93 163.756 L2218.7 161.812 L2208.21 136.303 L2212.73 136.303 L2220.83 156.581 L2228.93 136.303 L2233.44 136.303 L2222.05 164.636 Z" fill="#000000" fill-rule="evenodd" fill-opacity="1" /><polyline clip-path="url(#clip550)" style="stroke:#000000; stroke-linecap:butt; stroke-linejoin:round; stroke-width:4; stroke-opacity:1; fill:none" points="
  1674.21,196.789 1817.38,196.789 
  "/>
<path clip-path="url(#clip550)" d="M1841.25 179.509 L1870.48 179.509 L1870.48 183.444 L1858.21 183.444 L1858.21 214.069 L1853.51 214.069 L1853.51 183.444 L1841.25 183.444 L1841.25 179.509 Z" fill="#000000" fill-rule="evenodd" fill-opacity="1" /><path clip-path="url(#clip550)" d="M1882.87 192.124 Q1882.15 191.708 1881.29 191.522 Q1880.46 191.314 1879.44 191.314 Q1875.83 191.314 1873.88 193.675 Q1871.96 196.013 1871.96 200.411 L1871.96 214.069 L1867.68 214.069 L1867.68 188.143 L1871.96 188.143 L1871.96 192.171 Q1873.31 189.809 1875.46 188.675 Q1877.61 187.518 1880.69 187.518 Q1881.13 187.518 1881.66 187.587 Q1882.19 187.634 1882.84 187.749 L1882.87 192.124 Z" fill="#000000" fill-rule="evenodd" fill-opacity="1" /><path clip-path="url(#clip550)" d="M1886.89 203.837 L1886.89 188.143 L1891.15 188.143 L1891.15 203.675 Q1891.15 207.356 1892.59 209.208 Q1894.02 211.036 1896.89 211.036 Q1900.34 211.036 1902.33 208.837 Q1904.35 206.638 1904.35 202.842 L1904.35 188.143 L1908.61 188.143 L1908.61 214.069 L1904.35 214.069 L1904.35 210.087 Q1902.8 212.448 1900.74 213.606 Q1898.7 214.74 1895.99 214.74 Q1891.52 214.74 1889.21 211.962 Q1886.89 209.184 1886.89 203.837 M1897.61 187.518 L1897.61 187.518 Z" fill="#000000" fill-rule="evenodd" fill-opacity="1" /><path clip-path="url(#clip550)" d="M1939.56 200.041 L1939.56 202.124 L1919.97 202.124 Q1920.25 206.522 1922.61 208.837 Q1925 211.129 1929.23 211.129 Q1931.69 211.129 1933.98 210.527 Q1936.29 209.925 1938.56 208.721 L1938.56 212.749 Q1936.27 213.721 1933.86 214.231 Q1931.45 214.74 1928.98 214.74 Q1922.77 214.74 1919.14 211.129 Q1915.53 207.518 1915.53 201.36 Q1915.53 194.995 1918.95 191.268 Q1922.4 187.518 1928.24 187.518 Q1933.47 187.518 1936.5 190.897 Q1939.56 194.254 1939.56 200.041 M1935.3 198.791 Q1935.25 195.296 1933.33 193.212 Q1931.43 191.129 1928.28 191.129 Q1924.72 191.129 1922.56 193.143 Q1920.44 195.157 1920.11 198.814 L1935.3 198.791 Z" fill="#000000" fill-rule="evenodd" fill-opacity="1" /><path clip-path="url(#clip550)" d="M1978.68 192.078 L1978.68 178.05 L1982.93 178.05 L1982.93 214.069 L1978.68 214.069 L1978.68 210.18 Q1977.33 212.495 1975.27 213.629 Q1973.24 214.74 1970.37 214.74 Q1965.67 214.74 1962.7 210.99 Q1959.76 207.24 1959.76 201.129 Q1959.76 195.018 1962.7 191.268 Q1965.67 187.518 1970.37 187.518 Q1973.24 187.518 1975.27 188.652 Q1977.33 189.763 1978.68 192.078 M1964.16 201.129 Q1964.16 205.828 1966.08 208.513 Q1968.03 211.175 1971.41 211.175 Q1974.79 211.175 1976.73 208.513 Q1978.68 205.828 1978.68 201.129 Q1978.68 196.43 1976.73 193.768 Q1974.79 191.083 1971.41 191.083 Q1968.03 191.083 1966.08 193.768 Q1964.16 196.43 1964.16 201.129 Z" fill="#000000" fill-rule="evenodd" fill-opacity="1" /><path clip-path="url(#clip550)" d="M2013.88 200.041 L2013.88 202.124 L1994.3 202.124 Q1994.58 206.522 1996.94 208.837 Q1999.32 211.129 2003.56 211.129 Q2006.01 211.129 2008.31 210.527 Q2010.62 209.925 2012.89 208.721 L2012.89 212.749 Q2010.6 213.721 2008.19 214.231 Q2005.78 214.74 2003.31 214.74 Q1997.1 214.74 1993.47 211.129 Q1989.86 207.518 1989.86 201.36 Q1989.86 194.995 1993.28 191.268 Q1996.73 187.518 2002.56 187.518 Q2007.8 187.518 2010.83 190.897 Q2013.88 194.254 2013.88 200.041 M2009.62 198.791 Q2009.58 195.296 2007.66 193.212 Q2005.76 191.129 2002.61 191.129 Q1999.05 191.129 1996.89 193.143 Q1994.76 195.157 1994.44 198.814 L2009.62 198.791 Z" fill="#000000" fill-rule="evenodd" fill-opacity="1" /><path clip-path="url(#clip550)" d="M2042.43 198.421 L2042.43 214.069 L2038.17 214.069 L2038.17 198.559 Q2038.17 194.879 2036.73 193.05 Q2035.3 191.222 2032.43 191.222 Q2028.98 191.222 2026.99 193.421 Q2024.99 195.62 2024.99 199.416 L2024.99 214.069 L2020.71 214.069 L2020.71 188.143 L2024.99 188.143 L2024.99 192.171 Q2026.52 189.833 2028.58 188.675 Q2030.67 187.518 2033.37 187.518 Q2037.84 187.518 2040.13 190.296 Q2042.43 193.05 2042.43 198.421 Z" fill="#000000" fill-rule="evenodd" fill-opacity="1" /><path clip-path="url(#clip550)" d="M2067.45 188.907 L2067.45 192.934 Q2065.64 192.009 2063.7 191.546 Q2061.75 191.083 2059.67 191.083 Q2056.5 191.083 2054.9 192.055 Q2053.33 193.027 2053.33 194.971 Q2053.33 196.453 2054.46 197.309 Q2055.6 198.143 2059.02 198.907 L2060.48 199.231 Q2065.02 200.203 2066.92 201.985 Q2068.84 203.745 2068.84 206.916 Q2068.84 210.527 2065.97 212.633 Q2063.12 214.74 2058.12 214.74 Q2056.04 214.74 2053.77 214.323 Q2051.52 213.93 2049.02 213.12 L2049.02 208.721 Q2051.38 209.948 2053.68 210.573 Q2055.97 211.175 2058.21 211.175 Q2061.22 211.175 2062.84 210.157 Q2064.46 209.115 2064.46 207.24 Q2064.46 205.504 2063.28 204.578 Q2062.12 203.652 2058.17 202.796 L2056.68 202.448 Q2052.73 201.615 2050.97 199.902 Q2049.21 198.166 2049.21 195.157 Q2049.21 191.499 2051.8 189.509 Q2054.39 187.518 2059.16 187.518 Q2061.52 187.518 2063.61 187.865 Q2065.69 188.212 2067.45 188.907 Z" fill="#000000" fill-rule="evenodd" fill-opacity="1" /><path clip-path="url(#clip550)" d="M2075.62 188.143 L2079.88 188.143 L2079.88 214.069 L2075.62 214.069 L2075.62 188.143 M2075.62 178.05 L2079.88 178.05 L2079.88 183.444 L2075.62 183.444 L2075.62 178.05 Z" fill="#000000" fill-rule="evenodd" fill-opacity="1" /><path clip-path="url(#clip550)" d="M2093 180.782 L2093 188.143 L2101.78 188.143 L2101.78 191.453 L2093 191.453 L2093 205.527 Q2093 208.698 2093.86 209.601 Q2094.74 210.504 2097.4 210.504 L2101.78 210.504 L2101.78 214.069 L2097.4 214.069 Q2092.47 214.069 2090.6 212.24 Q2088.72 210.388 2088.72 205.527 L2088.72 191.453 L2085.6 191.453 L2085.6 188.143 L2088.72 188.143 L2088.72 180.782 L2093 180.782 Z" fill="#000000" fill-rule="evenodd" fill-opacity="1" /><path clip-path="url(#clip550)" d="M2118.17 216.476 Q2116.36 221.106 2114.65 222.518 Q2112.93 223.93 2110.06 223.93 L2106.66 223.93 L2106.66 220.365 L2109.16 220.365 Q2110.92 220.365 2111.89 219.532 Q2112.86 218.698 2114.05 215.596 L2114.81 213.652 L2104.32 188.143 L2108.84 188.143 L2116.94 208.421 L2125.04 188.143 L2129.55 188.143 L2118.17 216.476 Z" fill="#000000" fill-rule="evenodd" fill-opacity="1" /></svg>
