<?xml version="1.0" encoding="utf-8"?>
<svg xmlns="http://www.w3.org/2000/svg" xmlns:xlink="http://www.w3.org/1999/xlink" width="600" height="400" viewBox="0 0 2400 1600">
<defs>
  <clipPath id="clip090">
    <rect x="0" y="0" width="2400" height="1600"/>
  </clipPath>
</defs>
<path clip-path="url(#clip090)" d="
M0 1600 L2400 1600 L2400 0 L0 0  Z
  " fill="#ffffff" fill-rule="evenodd" fill-opacity="1"/>
<defs>
  <clipPath id="clip091">
    <rect x="480" y="0" width="1681" height="1600"/>
  </clipPath>
</defs>
<path clip-path="url(#clip090)" d="
M219.519 1423.18 L2352.76 1423.18 L2352.76 47.2441 L219.519 47.2441  Z
  " fill="#ffffff" fill-rule="evenodd" fill-opacity="1"/>
<defs>
  <clipPath id="clip092">
    <rect x="219" y="47" width="2134" height="1377"/>
  </clipPath>
</defs>
<polyline clip-path="url(#clip092)" style="stroke:#000000; stroke-width:2; stroke-opacity:0.1; fill:none" points="
  279.894,1423.18 279.894,47.2441 
  "/>
<polyline clip-path="url(#clip092)" style="stroke:#000000; stroke-width:2; stroke-opacity:0.1; fill:none" points="
  795.916,1423.18 795.916,47.2441 
  "/>
<polyline clip-path="url(#clip092)" style="stroke:#000000; stroke-width:2; stroke-opacity:0.1; fill:none" points="
  1311.94,1423.18 1311.94,47.2441 
  "/>
<polyline clip-path="url(#clip092)" style="stroke:#000000; stroke-width:2; stroke-opacity:0.1; fill:none" points="
  1827.96,1423.18 1827.96,47.2441 
  "/>
<polyline clip-path="url(#clip092)" style="stroke:#000000; stroke-width:2; stroke-opacity:0.1; fill:none" points="
  2343.98,1423.18 2343.98,47.2441 
  "/>
<polyline clip-path="url(#clip090)" style="stroke:#000000; stroke-width:4; stroke-opacity:1; fill:none" points="
  219.519,1423.18 2352.76,1423.18 
  "/>
<polyline clip-path="url(#clip090)" style="stroke:#000000; stroke-width:4; stroke-opacity:1; fill:none" points="
  279.894,1423.18 279.894,1406.67 
  "/>
<polyline clip-path="url(#clip090)" style="stroke:#000000; stroke-width:4; stroke-opacity:1; fill:none" points="
  795.916,1423.18 795.916,1406.67 
  "/>
<polyline clip-path="url(#clip090)" style="stroke:#000000; stroke-width:4; stroke-opacity:1; fill:none" points="
  1311.94,1423.18 1311.94,1406.67 
  "/>
<polyline clip-path="url(#clip090)" style="stroke:#000000; stroke-width:4; stroke-opacity:1; fill:none" points="
  1827.96,1423.18 1827.96,1406.67 
  "/>
<polyline clip-path="url(#clip090)" style="stroke:#000000; stroke-width:4; stroke-opacity:1; fill:none" points="
  2343.98,1423.18 2343.98,1406.67 
  "/>
<path clip-path="url(#clip090)" d="M 0 0 M284.141 1465.22 Q287.498 1465.94 289.373 1468.2 Q291.271 1470.47 291.271 1473.81 Q291.271 1478.92 287.752 1481.72 Q284.234 1484.52 277.752 1484.52 Q275.577 1484.52 273.262 1484.08 Q270.97 1483.67 268.516 1482.81 L268.516 1478.3 Q270.461 1479.43 272.776 1480.01 Q275.09 1480.59 277.614 1480.59 Q282.012 1480.59 284.303 1478.85 Q286.618 1477.12 286.618 1473.81 Q286.618 1470.75 284.465 1469.04 Q282.336 1467.3 278.516 1467.3 L274.489 1467.3 L274.489 1463.46 L278.702 1463.46 Q282.151 1463.46 283.979 1462.09 Q285.808 1460.7 285.808 1458.11 Q285.808 1455.45 283.91 1454.04 Q282.035 1452.6 278.516 1452.6 Q276.595 1452.6 274.396 1453.02 Q272.197 1453.44 269.558 1454.31 L269.558 1450.15 Q272.22 1449.41 274.535 1449.04 Q276.873 1448.67 278.933 1448.67 Q284.257 1448.67 287.359 1451.1 Q290.461 1453.5 290.461 1457.63 Q290.461 1460.5 288.817 1462.49 Q287.174 1464.45 284.141 1465.22 Z" fill="#000000" fill-rule="evenodd" fill-opacity="1" /><path clip-path="url(#clip090)" d="M 0 0 M798.925 1453.37 L787.12 1471.81 L798.925 1471.81 L798.925 1453.37 M797.699 1449.29 L803.578 1449.29 L803.578 1471.81 L808.509 1471.81 L808.509 1475.7 L803.578 1475.7 L803.578 1483.85 L798.925 1483.85 L798.925 1475.7 L783.324 1475.7 L783.324 1471.19 L797.699 1449.29 Z" fill="#000000" fill-rule="evenodd" fill-opacity="1" /><path clip-path="url(#clip090)" d="M 0 0 M1302.22 1449.29 L1320.57 1449.29 L1320.57 1453.23 L1306.5 1453.23 L1306.5 1461.7 Q1307.52 1461.35 1308.54 1461.19 Q1309.55 1461 1310.57 1461 Q1316.36 1461 1319.74 1464.18 Q1323.12 1467.35 1323.12 1472.76 Q1323.12 1478.34 1319.65 1481.44 Q1316.17 1484.52 1309.86 1484.52 Q1307.68 1484.52 1305.41 1484.15 Q1303.17 1483.78 1300.76 1483.04 L1300.76 1478.34 Q1302.84 1479.48 1305.06 1480.03 Q1307.29 1480.59 1309.76 1480.59 Q1313.77 1480.59 1316.11 1478.48 Q1318.44 1476.38 1318.44 1472.76 Q1318.44 1469.15 1316.11 1467.05 Q1313.77 1464.94 1309.76 1464.94 Q1307.89 1464.94 1306.01 1465.36 Q1304.16 1465.77 1302.22 1466.65 L1302.22 1449.29 Z" fill="#000000" fill-rule="evenodd" fill-opacity="1" /><path clip-path="url(#clip090)" d="M 0 0 M1828.37 1464.71 Q1825.22 1464.71 1823.37 1466.86 Q1821.54 1469.01 1821.54 1472.76 Q1821.54 1476.49 1823.37 1478.67 Q1825.22 1480.82 1828.37 1480.82 Q1831.51 1480.82 1833.34 1478.67 Q1835.19 1476.49 1835.19 1472.76 Q1835.19 1469.01 1833.34 1466.86 Q1831.51 1464.71 1828.37 1464.71 M1837.65 1450.06 L1837.65 1454.31 Q1835.89 1453.48 1834.08 1453.04 Q1832.3 1452.6 1830.54 1452.6 Q1825.91 1452.6 1823.46 1455.73 Q1821.03 1458.85 1820.68 1465.17 Q1822.05 1463.16 1824.11 1462.09 Q1826.17 1461 1828.64 1461 Q1833.85 1461 1836.86 1464.18 Q1839.89 1467.32 1839.89 1472.76 Q1839.89 1478.09 1836.75 1481.31 Q1833.6 1484.52 1828.37 1484.52 Q1822.37 1484.52 1819.2 1479.94 Q1816.03 1475.33 1816.03 1466.61 Q1816.03 1458.41 1819.92 1453.55 Q1823.81 1448.67 1830.36 1448.67 Q1832.12 1448.67 1833.9 1449.01 Q1835.7 1449.36 1837.65 1450.06 Z" fill="#000000" fill-rule="evenodd" fill-opacity="1" /><path clip-path="url(#clip090)" d="M 0 0 M2332.87 1449.29 L2355.09 1449.29 L2355.09 1451.28 L2342.55 1483.85 L2337.66 1483.85 L2349.47 1453.23 L2332.87 1453.23 L2332.87 1449.29 Z" fill="#000000" fill-rule="evenodd" fill-opacity="1" /><path clip-path="url(#clip090)" d="M 0 0 M1103.94 1525.81 L1103.94 1543.66 L1112.02 1543.66 Q1116.51 1543.66 1118.96 1541.34 Q1121.41 1539.02 1121.41 1534.72 Q1121.41 1530.45 1118.96 1528.13 Q1116.51 1525.81 1112.02 1525.81 L1103.94 1525.81 M1097.51 1520.52 L1112.02 1520.52 Q1120.01 1520.52 1124.08 1524.15 Q1128.19 1527.75 1128.19 1534.72 Q1128.19 1541.75 1124.08 1545.35 Q1120.01 1548.95 1112.02 1548.95 L1103.94 1548.95 L1103.94 1568.04 L1097.51 1568.04 L1097.51 1520.52 Z" fill="#000000" fill-rule="evenodd" fill-opacity="1" /><path clip-path="url(#clip090)" d="M 0 0 M1164.73 1548.76 L1164.73 1551.62 L1137.8 1551.62 Q1138.18 1557.67 1141.43 1560.85 Q1144.71 1564 1150.53 1564 Q1153.91 1564 1157.06 1563.17 Q1160.24 1562.35 1163.36 1560.69 L1163.36 1566.23 Q1160.21 1567.57 1156.9 1568.27 Q1153.59 1568.97 1150.18 1568.97 Q1141.65 1568.97 1136.65 1564 Q1131.69 1559.04 1131.69 1550.57 Q1131.69 1541.82 1136.4 1536.69 Q1141.14 1531.54 1149.16 1531.54 Q1156.36 1531.54 1160.53 1536.18 Q1164.73 1540.8 1164.73 1548.76 M1158.87 1547.04 Q1158.81 1542.23 1156.17 1539.37 Q1153.56 1536.5 1149.23 1536.5 Q1144.33 1536.5 1141.37 1539.27 Q1138.44 1542.04 1137.99 1547.07 L1158.87 1547.04 Z" fill="#000000" fill-rule="evenodd" fill-opacity="1" /><path clip-path="url(#clip090)" d="M 0 0 M1180.13 1522.27 L1180.13 1532.4 L1192.2 1532.4 L1192.2 1536.95 L1180.13 1536.95 L1180.13 1556.3 Q1180.13 1560.66 1181.31 1561.9 Q1182.52 1563.14 1186.18 1563.14 L1192.2 1563.14 L1192.2 1568.04 L1186.18 1568.04 Q1179.4 1568.04 1176.82 1565.53 Q1174.24 1562.98 1174.24 1556.3 L1174.24 1536.95 L1169.95 1536.95 L1169.95 1532.4 L1174.24 1532.4 L1174.24 1522.27 L1180.13 1522.27 Z" fill="#000000" fill-rule="evenodd" fill-opacity="1" /><path clip-path="url(#clip090)" d="M 0 0 M1216.1 1550.12 Q1209 1550.12 1206.26 1551.75 Q1203.53 1553.37 1203.53 1557.29 Q1203.53 1560.4 1205.56 1562.25 Q1207.63 1564.07 1211.17 1564.07 Q1216.04 1564.07 1218.96 1560.63 Q1221.92 1557.16 1221.92 1551.43 L1221.92 1550.12 L1216.1 1550.12 M1227.78 1547.71 L1227.78 1568.04 L1221.92 1568.04 L1221.92 1562.63 Q1219.92 1565.88 1216.93 1567.44 Q1213.93 1568.97 1209.61 1568.97 Q1204.13 1568.97 1200.88 1565.91 Q1197.67 1562.82 1197.67 1557.67 Q1197.67 1551.65 1201.68 1548.6 Q1205.72 1545.54 1213.71 1545.54 L1221.92 1545.54 L1221.92 1544.97 Q1221.92 1540.93 1219.25 1538.73 Q1216.61 1536.5 1211.8 1536.5 Q1208.75 1536.5 1205.85 1537.23 Q1202.95 1537.97 1200.28 1539.43 L1200.28 1534.02 Q1203.49 1532.78 1206.52 1532.17 Q1209.54 1531.54 1212.41 1531.54 Q1220.14 1531.54 1223.96 1535.55 Q1227.78 1539.56 1227.78 1547.71 Z" fill="#000000" fill-rule="evenodd" fill-opacity="1" /><path clip-path="url(#clip090)" d="M 0 0 M1239.84 1518.52 L1245.7 1518.52 L1245.7 1568.04 L1239.84 1568.04 L1239.84 1518.52 Z" fill="#000000" fill-rule="evenodd" fill-opacity="1" /><path clip-path="url(#clip090)" d="M 0 0 M1278.67 1518.52 L1284.53 1518.52 L1284.53 1568.04 L1278.67 1568.04 L1278.67 1518.52 Z" fill="#000000" fill-rule="evenodd" fill-opacity="1" /><path clip-path="url(#clip090)" d="M 0 0 M1327.28 1548.76 L1327.28 1551.62 L1300.35 1551.62 Q1300.73 1557.67 1303.98 1560.85 Q1307.26 1564 1313.08 1564 Q1316.45 1564 1319.61 1563.17 Q1322.79 1562.35 1325.91 1560.69 L1325.91 1566.23 Q1322.76 1567.57 1319.45 1568.27 Q1316.14 1568.97 1312.73 1568.97 Q1304.2 1568.97 1299.2 1564 Q1294.24 1559.04 1294.24 1550.57 Q1294.24 1541.82 1298.95 1536.69 Q1303.69 1531.54 1311.71 1531.54 Q1318.9 1531.54 1323.07 1536.18 Q1327.28 1540.8 1327.28 1548.76 M1321.42 1547.04 Q1321.36 1542.23 1318.71 1539.37 Q1316.1 1536.5 1311.78 1536.5 Q1306.87 1536.5 1303.91 1539.27 Q1300.99 1542.04 1300.54 1547.07 L1321.42 1547.04 Z" fill="#000000" fill-rule="evenodd" fill-opacity="1" /><path clip-path="url(#clip090)" d="M 0 0 M1366.52 1546.53 L1366.52 1568.04 L1360.66 1568.04 L1360.66 1546.72 Q1360.66 1541.66 1358.69 1539.14 Q1356.72 1536.63 1352.77 1536.63 Q1348.03 1536.63 1345.29 1539.65 Q1342.55 1542.68 1342.55 1547.9 L1342.55 1568.04 L1336.67 1568.04 L1336.67 1532.4 L1342.55 1532.4 L1342.55 1537.93 Q1344.65 1534.72 1347.49 1533.13 Q1350.35 1531.54 1354.08 1531.54 Q1360.22 1531.54 1363.37 1535.36 Q1366.52 1539.14 1366.52 1546.53 Z" fill="#000000" fill-rule="evenodd" fill-opacity="1" /><path clip-path="url(#clip090)" d="M 0 0 M1401.66 1549.81 Q1401.66 1543.44 1399.02 1539.94 Q1396.41 1536.44 1391.66 1536.44 Q1386.95 1536.44 1384.31 1539.94 Q1381.7 1543.44 1381.7 1549.81 Q1381.7 1556.14 1384.31 1559.64 Q1386.95 1563.14 1391.66 1563.14 Q1396.41 1563.14 1399.02 1559.64 Q1401.66 1556.14 1401.66 1549.81 M1407.52 1563.62 Q1407.52 1572.72 1403.47 1577.15 Q1399.43 1581.6 1391.09 1581.6 Q1388 1581.6 1385.27 1581.13 Q1382.53 1580.68 1379.95 1579.72 L1379.95 1574.03 Q1382.53 1575.43 1385.04 1576.1 Q1387.56 1576.76 1390.17 1576.76 Q1395.93 1576.76 1398.79 1573.74 Q1401.66 1570.75 1401.66 1564.67 L1401.66 1561.77 Q1399.84 1564.92 1397.01 1566.48 Q1394.18 1568.04 1390.23 1568.04 Q1383.68 1568.04 1379.67 1563.05 Q1375.66 1558.05 1375.66 1549.81 Q1375.66 1541.53 1379.67 1536.53 Q1383.68 1531.54 1390.23 1531.54 Q1394.18 1531.54 1397.01 1533.1 Q1399.84 1534.66 1401.66 1537.81 L1401.66 1532.4 L1407.52 1532.4 L1407.52 1563.62 Z" fill="#000000" fill-rule="evenodd" fill-opacity="1" /><path clip-path="url(#clip090)" d="M 0 0 M1425.37 1522.27 L1425.37 1532.4 L1437.43 1532.4 L1437.43 1536.95 L1425.37 1536.95 L1425.37 1556.3 Q1425.37 1560.66 1426.55 1561.9 Q1427.76 1563.14 1431.42 1563.14 L1437.43 1563.14 L1437.43 1568.04 L1431.42 1568.04 Q1424.64 1568.04 1422.06 1565.53 Q1419.48 1562.98 1419.48 1556.3 L1419.48 1536.95 L1415.19 1536.95 L1415.19 1532.4 L1419.48 1532.4 L1419.48 1522.27 L1425.37 1522.27 Z" fill="#000000" fill-rule="evenodd" fill-opacity="1" /><path clip-path="url(#clip090)" d="M 0 0 M1474.77 1546.53 L1474.77 1568.04 L1468.91 1568.04 L1468.91 1546.72 Q1468.91 1541.66 1466.94 1539.14 Q1464.97 1536.63 1461.02 1536.63 Q1456.28 1536.63 1453.54 1539.65 Q1450.8 1542.68 1450.8 1547.9 L1450.8 1568.04 L1444.91 1568.04 L1444.91 1518.52 L1450.8 1518.52 L1450.8 1537.93 Q1452.9 1534.72 1455.74 1533.13 Q1458.6 1531.54 1462.32 1531.54 Q1468.47 1531.54 1471.62 1535.36 Q1474.77 1539.14 1474.77 1546.53 Z" fill="#000000" fill-rule="evenodd" fill-opacity="1" /><polyline clip-path="url(#clip092)" style="stroke:#000000; stroke-width:2; stroke-opacity:0.1; fill:none" points="
  219.519,1211.16 2352.76,1211.16 
  "/>
<polyline clip-path="url(#clip092)" style="stroke:#000000; stroke-width:2; stroke-opacity:0.1; fill:none" points="
  219.519,951.554 2352.76,951.554 
  "/>
<polyline clip-path="url(#clip092)" style="stroke:#000000; stroke-width:2; stroke-opacity:0.1; fill:none" points="
  219.519,691.944 2352.76,691.944 
  "/>
<polyline clip-path="url(#clip092)" style="stroke:#000000; stroke-width:2; stroke-opacity:0.1; fill:none" points="
  219.519,432.333 2352.76,432.333 
  "/>
<polyline clip-path="url(#clip092)" style="stroke:#000000; stroke-width:2; stroke-opacity:0.1; fill:none" points="
  219.519,172.723 2352.76,172.723 
  "/>
<polyline clip-path="url(#clip090)" style="stroke:#000000; stroke-width:4; stroke-opacity:1; fill:none" points="
  219.519,1423.18 219.519,47.2441 
  "/>
<polyline clip-path="url(#clip090)" style="stroke:#000000; stroke-width:4; stroke-opacity:1; fill:none" points="
  219.519,1211.16 245.118,1211.16 
  "/>
<polyline clip-path="url(#clip090)" style="stroke:#000000; stroke-width:4; stroke-opacity:1; fill:none" points="
  219.519,951.554 245.118,951.554 
  "/>
<polyline clip-path="url(#clip090)" style="stroke:#000000; stroke-width:4; stroke-opacity:1; fill:none" points="
  219.519,691.944 245.118,691.944 
  "/>
<polyline clip-path="url(#clip090)" style="stroke:#000000; stroke-width:4; stroke-opacity:1; fill:none" points="
  219.519,432.333 245.118,432.333 
  "/>
<polyline clip-path="url(#clip090)" style="stroke:#000000; stroke-width:4; stroke-opacity:1; fill:none" points="
  219.519,172.723 245.118,172.723 
  "/>
<path clip-path="url(#clip090)" d="M 0 0 M118.751 1224.51 L126.39 1224.51 L126.39 1198.14 L118.08 1199.81 L118.08 1195.55 L126.343 1193.88 L131.019 1193.88 L131.019 1224.51 L138.658 1224.51 L138.658 1228.44 L118.751 1228.44 L118.751 1224.51 Z" fill="#000000" fill-rule="evenodd" fill-opacity="1" /><path clip-path="url(#clip090)" d="M 0 0 M148.103 1222.56 L152.987 1222.56 L152.987 1228.44 L148.103 1228.44 L148.103 1222.56 Z" fill="#000000" fill-rule="evenodd" fill-opacity="1" /><path clip-path="url(#clip090)" d="M 0 0 M167.2 1224.51 L183.519 1224.51 L183.519 1228.44 L161.575 1228.44 L161.575 1224.51 Q164.237 1221.75 168.82 1217.13 Q173.427 1212.47 174.607 1211.13 Q176.852 1208.61 177.732 1206.87 Q178.635 1205.11 178.635 1203.42 Q178.635 1200.67 176.69 1198.93 Q174.769 1197.19 171.667 1197.19 Q169.468 1197.19 167.015 1197.96 Q164.584 1198.72 161.806 1200.27 L161.806 1195.55 Q164.63 1194.42 167.084 1193.84 Q169.538 1193.26 171.575 1193.26 Q176.945 1193.26 180.139 1195.94 Q183.334 1198.63 183.334 1203.12 Q183.334 1205.25 182.524 1207.17 Q181.737 1209.07 179.63 1211.66 Q179.051 1212.33 175.95 1215.55 Q172.848 1218.75 167.2 1224.51 Z" fill="#000000" fill-rule="evenodd" fill-opacity="1" /><path clip-path="url(#clip090)" d="M 0 0 M118.149 964.899 L125.788 964.899 L125.788 938.533 L117.478 940.2 L117.478 935.941 L125.742 934.274 L130.417 934.274 L130.417 964.899 L138.056 964.899 L138.056 968.834 L118.149 968.834 L118.149 964.899 Z" fill="#000000" fill-rule="evenodd" fill-opacity="1" /><path clip-path="url(#clip090)" d="M 0 0 M147.501 962.954 L152.385 962.954 L152.385 968.834 L147.501 968.834 L147.501 962.954 Z" fill="#000000" fill-rule="evenodd" fill-opacity="1" /><path clip-path="url(#clip090)" d="M 0 0 M162.616 934.274 L180.973 934.274 L180.973 938.209 L166.899 938.209 L166.899 946.681 Q167.917 946.334 168.936 946.172 Q169.954 945.987 170.973 945.987 Q176.76 945.987 180.139 949.158 Q183.519 952.33 183.519 957.746 Q183.519 963.325 180.047 966.427 Q176.575 969.505 170.255 969.505 Q168.079 969.505 165.811 969.135 Q163.565 968.765 161.158 968.024 L161.158 963.325 Q163.241 964.459 165.464 965.015 Q167.686 965.57 170.163 965.57 Q174.167 965.57 176.505 963.464 Q178.843 961.357 178.843 957.746 Q178.843 954.135 176.505 952.029 Q174.167 949.922 170.163 949.922 Q168.288 949.922 166.413 950.339 Q164.561 950.755 162.616 951.635 L162.616 934.274 Z" fill="#000000" fill-rule="evenodd" fill-opacity="1" /><path clip-path="url(#clip090)" d="M 0 0 M117.246 705.288 L124.885 705.288 L124.885 678.923 L116.575 680.589 L116.575 676.33 L124.839 674.664 L129.515 674.664 L129.515 705.288 L137.154 705.288 L137.154 709.224 L117.246 709.224 L117.246 705.288 Z" fill="#000000" fill-rule="evenodd" fill-opacity="1" /><path clip-path="url(#clip090)" d="M 0 0 M146.598 703.344 L151.482 703.344 L151.482 709.224 L146.598 709.224 L146.598 703.344 Z" fill="#000000" fill-rule="evenodd" fill-opacity="1" /><path clip-path="url(#clip090)" d="M 0 0 M171.667 692.812 Q168.334 692.812 166.413 694.594 Q164.515 696.376 164.515 699.501 Q164.515 702.626 166.413 704.409 Q168.334 706.191 171.667 706.191 Q175.001 706.191 176.922 704.409 Q178.843 702.603 178.843 699.501 Q178.843 696.376 176.922 694.594 Q175.024 692.812 171.667 692.812 M166.991 690.821 Q163.982 690.08 162.292 688.02 Q160.626 685.96 160.626 682.997 Q160.626 678.853 163.565 676.446 Q166.528 674.039 171.667 674.039 Q176.829 674.039 179.769 676.446 Q182.709 678.853 182.709 682.997 Q182.709 685.96 181.019 688.02 Q179.352 690.08 176.366 690.821 Q179.746 691.608 181.621 693.9 Q183.519 696.191 183.519 699.501 Q183.519 704.524 180.44 707.21 Q177.385 709.895 171.667 709.895 Q165.95 709.895 162.871 707.21 Q159.815 704.524 159.815 699.501 Q159.815 696.191 161.714 693.9 Q163.612 691.608 166.991 690.821 M165.278 683.437 Q165.278 686.122 166.945 687.626 Q168.635 689.131 171.667 689.131 Q174.677 689.131 176.366 687.626 Q178.079 686.122 178.079 683.437 Q178.079 680.751 176.366 679.247 Q174.677 677.742 171.667 677.742 Q168.635 677.742 166.945 679.247 Q165.278 680.751 165.278 683.437 Z" fill="#000000" fill-rule="evenodd" fill-opacity="1" /><path clip-path="url(#clip090)" d="M 0 0 M121.598 445.678 L137.917 445.678 L137.917 449.613 L115.973 449.613 L115.973 445.678 Q118.635 442.923 123.218 438.294 Q127.825 433.641 129.005 432.298 Q131.251 429.775 132.13 428.039 Q133.033 426.28 133.033 424.59 Q133.033 421.835 131.089 420.099 Q129.167 418.363 126.066 418.363 Q123.867 418.363 121.413 419.127 Q118.982 419.891 116.205 421.442 L116.205 416.72 Q119.029 415.585 121.482 415.007 Q123.936 414.428 125.973 414.428 Q131.343 414.428 134.538 417.113 Q137.732 419.798 137.732 424.289 Q137.732 426.419 136.922 428.34 Q136.135 430.238 134.029 432.831 Q133.45 433.502 130.348 436.72 Q127.246 439.914 121.598 445.678 Z" fill="#000000" fill-rule="evenodd" fill-opacity="1" /><path clip-path="url(#clip090)" d="M 0 0 M147.732 443.733 L152.616 443.733 L152.616 449.613 L147.732 449.613 L147.732 443.733 Z" fill="#000000" fill-rule="evenodd" fill-opacity="1" /><path clip-path="url(#clip090)" d="M 0 0 M163.612 445.678 L171.251 445.678 L171.251 419.312 L162.94 420.979 L162.94 416.72 L171.204 415.053 L175.88 415.053 L175.88 445.678 L183.519 445.678 L183.519 449.613 L163.612 449.613 L163.612 445.678 Z" fill="#000000" fill-rule="evenodd" fill-opacity="1" /><path clip-path="url(#clip090)" d="M 0 0 M119.885 186.067 L136.204 186.067 L136.204 190.003 L114.26 190.003 L114.26 186.067 Q116.922 183.313 121.505 178.683 Q126.112 174.03 127.292 172.688 Q129.538 170.165 130.417 168.429 Q131.32 166.669 131.32 164.979 Q131.32 162.225 129.376 160.489 Q127.455 158.753 124.353 158.753 Q122.154 158.753 119.7 159.517 Q117.269 160.28 114.492 161.831 L114.492 157.109 Q117.316 155.975 119.769 155.396 Q122.223 154.818 124.26 154.818 Q129.63 154.818 132.825 157.503 Q136.019 160.188 136.019 164.679 Q136.019 166.808 135.209 168.729 Q134.422 170.628 132.316 173.22 Q131.737 173.891 128.635 177.109 Q125.533 180.303 119.885 186.067 Z" fill="#000000" fill-rule="evenodd" fill-opacity="1" /><path clip-path="url(#clip090)" d="M 0 0 M146.019 184.123 L150.903 184.123 L150.903 190.003 L146.019 190.003 L146.019 184.123 Z" fill="#000000" fill-rule="evenodd" fill-opacity="1" /><path clip-path="url(#clip090)" d="M 0 0 M173.936 159.517 L162.13 177.966 L173.936 177.966 L173.936 159.517 M172.709 155.443 L178.589 155.443 L178.589 177.966 L183.519 177.966 L183.519 181.854 L178.589 181.854 L178.589 190.003 L173.936 190.003 L173.936 181.854 L158.334 181.854 L158.334 177.341 L172.709 155.443 Z" fill="#000000" fill-rule="evenodd" fill-opacity="1" /><path clip-path="url(#clip090)" d="M 0 0 M21.7677 903.362 L39.6235 903.362 L39.6235 895.278 Q39.6235 890.79 37.3 888.339 Q34.9765 885.888 30.6797 885.888 Q26.4147 885.888 24.0912 888.339 Q21.7677 890.79 21.7677 895.278 L21.7677 903.362 M16.4842 909.791 L16.4842 895.278 Q16.4842 887.289 20.1126 883.215 Q23.7092 879.109 30.6797 879.109 Q37.7138 879.109 41.3104 883.215 Q44.907 887.289 44.907 895.278 L44.907 903.362 L64.0042 903.362 L64.0042 909.791 L16.4842 909.791 Z" fill="#000000" fill-rule="evenodd" fill-opacity="1" /><path clip-path="url(#clip090)" d="M 0 0 M44.7161 842.57 L47.5806 842.57 L47.5806 869.497 Q53.6281 869.115 56.8109 865.868 Q59.9619 862.59 59.9619 856.765 Q59.9619 853.391 59.1344 850.24 Q58.3069 847.057 56.6518 843.938 L62.1899 843.938 Q63.5267 847.089 64.227 850.399 Q64.9272 853.71 64.9272 857.115 Q64.9272 865.645 59.9619 870.642 Q54.9967 875.608 46.5303 875.608 Q37.7774 875.608 32.6531 870.897 Q27.4968 866.155 27.4968 858.134 Q27.4968 850.941 32.1438 846.771 Q36.7589 842.57 44.7161 842.57 M42.9973 848.426 Q38.1912 848.49 35.3266 851.131 Q32.4621 853.741 32.4621 858.07 Q32.4621 862.972 35.2312 865.932 Q38.0002 868.86 43.0292 869.306 L42.9973 848.426 Z" fill="#000000" fill-rule="evenodd" fill-opacity="1" /><path clip-path="url(#clip090)" d="M 0 0 M18.2347 827.165 L28.3562 827.165 L28.3562 815.102 L32.9077 815.102 L32.9077 827.165 L52.2594 827.165 Q56.6199 827.165 57.8613 825.987 Q59.1026 824.777 59.1026 821.117 L59.1026 815.102 L64.0042 815.102 L64.0042 821.117 Q64.0042 827.897 61.4897 830.475 Q58.9434 833.053 52.2594 833.053 L32.9077 833.053 L32.9077 837.35 L28.3562 837.35 L28.3562 833.053 L18.2347 833.053 L18.2347 827.165 Z" fill="#000000" fill-rule="evenodd" fill-opacity="1" /><path clip-path="url(#clip090)" d="M 0 0 M46.0847 791.198 Q46.0847 798.296 47.7079 801.033 Q49.3312 803.771 53.2461 803.771 Q56.3653 803.771 58.2114 801.734 Q60.0256 799.665 60.0256 796.132 Q60.0256 791.262 56.5881 788.334 Q53.1188 785.374 47.3897 785.374 L46.0847 785.374 L46.0847 791.198 M43.6657 779.517 L64.0042 779.517 L64.0042 785.374 L58.5933 785.374 Q61.8398 787.379 63.3994 790.371 Q64.9272 793.363 64.9272 797.691 Q64.9272 803.166 61.8716 806.412 Q58.7843 809.627 53.6281 809.627 Q47.6125 809.627 44.5569 805.617 Q41.5014 801.574 41.5014 793.585 L41.5014 785.374 L40.9285 785.374 Q36.8862 785.374 34.6901 788.047 Q32.4621 790.689 32.4621 795.495 Q32.4621 798.551 33.1941 801.447 Q33.9262 804.344 35.3903 807.017 L29.9795 807.017 Q28.7381 803.802 28.1334 800.779 Q27.4968 797.755 27.4968 794.89 Q27.4968 787.156 31.5072 783.337 Q35.5176 779.517 43.6657 779.517 Z" fill="#000000" fill-rule="evenodd" fill-opacity="1" /><path clip-path="url(#clip090)" d="M 0 0 M14.479 767.454 L14.479 761.598 L64.0042 761.598 L64.0042 767.454 L14.479 767.454 Z" fill="#000000" fill-rule="evenodd" fill-opacity="1" /><path clip-path="url(#clip090)" d="M 0 0 M28.3562 732.029 L28.3562 726.173 L56.1743 718.852 L28.3562 711.563 L28.3562 704.657 L56.1743 697.336 L28.3562 690.047 L28.3562 684.191 L64.0042 693.517 L64.0042 700.423 L34.7856 708.094 L64.0042 715.797 L64.0042 722.703 L28.3562 732.029 Z" fill="#000000" fill-rule="evenodd" fill-opacity="1" /><path clip-path="url(#clip090)" d="M 0 0 M28.3562 675.311 L28.3562 669.454 L64.0042 669.454 L64.0042 675.311 L28.3562 675.311 M14.479 675.311 L14.479 669.454 L21.895 669.454 L21.895 675.311 L14.479 675.311 Z" fill="#000000" fill-rule="evenodd" fill-opacity="1" /><path clip-path="url(#clip090)" d="M 0 0 M33.7671 633.743 L14.479 633.743 L14.479 627.886 L64.0042 627.886 L64.0042 633.743 L58.657 633.743 Q61.8398 635.589 63.3994 638.421 Q64.9272 641.222 64.9272 645.169 Q64.9272 651.63 59.771 655.704 Q54.6147 659.747 46.212 659.747 Q37.8093 659.747 32.6531 655.704 Q27.4968 651.63 27.4968 645.169 Q27.4968 641.222 29.0564 638.421 Q30.5842 635.589 33.7671 633.743 M46.212 653.699 Q52.6732 653.699 56.3653 651.057 Q60.0256 648.384 60.0256 643.737 Q60.0256 639.09 56.3653 636.416 Q52.6732 633.743 46.212 633.743 Q39.7508 633.743 36.0905 636.416 Q32.3984 639.09 32.3984 643.737 Q32.3984 648.384 36.0905 651.057 Q39.7508 653.699 46.212 653.699 Z" fill="#000000" fill-rule="evenodd" fill-opacity="1" /><path clip-path="url(#clip090)" d="M 0 0 M18.2347 610.03 L28.3562 610.03 L28.3562 597.967 L32.9077 597.967 L32.9077 610.03 L52.2594 610.03 Q56.6199 610.03 57.8613 608.853 Q59.1026 607.643 59.1026 603.983 L59.1026 597.967 L64.0042 597.967 L64.0042 603.983 Q64.0042 610.762 61.4897 613.341 Q58.9434 615.919 52.2594 615.919 L32.9077 615.919 L32.9077 620.215 L28.3562 620.215 L28.3562 615.919 L18.2347 615.919 L18.2347 610.03 Z" fill="#000000" fill-rule="evenodd" fill-opacity="1" /><path clip-path="url(#clip090)" d="M 0 0 M42.4881 560.632 L64.0042 560.632 L64.0042 566.489 L42.679 566.489 Q37.6183 566.489 35.1038 568.462 Q32.5894 570.436 32.5894 574.382 Q32.5894 579.125 35.6131 581.862 Q38.6368 584.599 43.8567 584.599 L64.0042 584.599 L64.0042 590.488 L14.479 590.488 L14.479 584.599 L33.8944 584.599 Q30.6797 582.499 29.0883 579.666 Q27.4968 576.801 27.4968 573.077 Q27.4968 566.935 31.3163 563.783 Q35.1038 560.632 42.4881 560.632 Z" fill="#000000" fill-rule="evenodd" fill-opacity="1" /><circle clip-path="url(#clip092)" cx="1157.13" cy="1038.09" r="14" fill="#009af9" fill-rule="evenodd" fill-opacity="1" stroke="#000000" stroke-opacity="1" stroke-width="3.2"/>
<circle clip-path="url(#clip092)" cx="1053.93" cy="951.554" r="14" fill="#009af9" fill-rule="evenodd" fill-opacity="1" stroke="#000000" stroke-opacity="1" stroke-width="3.2"/>
<circle clip-path="url(#clip092)" cx="1260.34" cy="951.554" r="14" fill="#009af9" fill-rule="evenodd" fill-opacity="1" stroke="#000000" stroke-opacity="1" stroke-width="3.2"/>
<circle clip-path="url(#clip092)" cx="795.916" cy="1124.63" r="14" fill="#009af9" fill-rule="evenodd" fill-opacity="1" stroke="#000000" stroke-opacity="1" stroke-width="3.2"/>
<circle clip-path="url(#clip092)" cx="1105.53" cy="951.554" r="14" fill="#009af9" fill-rule="evenodd" fill-opacity="1" stroke="#000000" stroke-opacity="1" stroke-width="3.2"/>
<circle clip-path="url(#clip092)" cx="1053.93" cy="1124.63" r="14" fill="#009af9" fill-rule="evenodd" fill-opacity="1" stroke="#000000" stroke-opacity="1" stroke-width="3.2"/>
<circle clip-path="url(#clip092)" cx="1157.13" cy="865.017" r="14" fill="#009af9" fill-rule="evenodd" fill-opacity="1" stroke="#000000" stroke-opacity="1" stroke-width="3.2"/>
<circle clip-path="url(#clip092)" cx="434.7" cy="1384.24" r="14" fill="#009af9" fill-rule="evenodd" fill-opacity="1" stroke="#000000" stroke-opacity="1" stroke-width="3.2"/>
<circle clip-path="url(#clip092)" cx="1105.53" cy="1124.63" r="14" fill="#009af9" fill-rule="evenodd" fill-opacity="1" stroke="#000000" stroke-opacity="1" stroke-width="3.2"/>
<circle clip-path="url(#clip092)" cx="744.314" cy="1038.09" r="14" fill="#009af9" fill-rule="evenodd" fill-opacity="1" stroke="#000000" stroke-opacity="1" stroke-width="3.2"/>
<circle clip-path="url(#clip092)" cx="537.905" cy="1384.24" r="14" fill="#009af9" fill-rule="evenodd" fill-opacity="1" stroke="#000000" stroke-opacity="1" stroke-width="3.2"/>
<circle clip-path="url(#clip092)" cx="899.121" cy="951.554" r="14" fill="#009af9" fill-rule="evenodd" fill-opacity="1" stroke="#000000" stroke-opacity="1" stroke-width="3.2"/>
<circle clip-path="url(#clip092)" cx="795.916" cy="1384.24" r="14" fill="#009af9" fill-rule="evenodd" fill-opacity="1" stroke="#000000" stroke-opacity="1" stroke-width="3.2"/>
<circle clip-path="url(#clip092)" cx="1157.13" cy="1038.09" r="14" fill="#009af9" fill-rule="evenodd" fill-opacity="1" stroke="#000000" stroke-opacity="1" stroke-width="3.2"/>
<circle clip-path="url(#clip092)" cx="589.507" cy="1124.63" r="14" fill="#009af9" fill-rule="evenodd" fill-opacity="1" stroke="#000000" stroke-opacity="1" stroke-width="3.2"/>
<circle clip-path="url(#clip092)" cx="1002.33" cy="1038.09" r="14" fill="#009af9" fill-rule="evenodd" fill-opacity="1" stroke="#000000" stroke-opacity="1" stroke-width="3.2"/>
<circle clip-path="url(#clip092)" cx="1053.93" cy="951.554" r="14" fill="#009af9" fill-rule="evenodd" fill-opacity="1" stroke="#000000" stroke-opacity="1" stroke-width="3.2"/>
<circle clip-path="url(#clip092)" cx="847.518" cy="1384.24" r="14" fill="#009af9" fill-rule="evenodd" fill-opacity="1" stroke="#000000" stroke-opacity="1" stroke-width="3.2"/>
<circle clip-path="url(#clip092)" cx="1053.93" cy="951.554" r="14" fill="#009af9" fill-rule="evenodd" fill-opacity="1" stroke="#000000" stroke-opacity="1" stroke-width="3.2"/>
<circle clip-path="url(#clip092)" cx="744.314" cy="1297.7" r="14" fill="#009af9" fill-rule="evenodd" fill-opacity="1" stroke="#000000" stroke-opacity="1" stroke-width="3.2"/>
<circle clip-path="url(#clip092)" cx="1208.73" cy="691.944" r="14" fill="#009af9" fill-rule="evenodd" fill-opacity="1" stroke="#000000" stroke-opacity="1" stroke-width="3.2"/>
<circle clip-path="url(#clip092)" cx="795.916" cy="1124.63" r="14" fill="#009af9" fill-rule="evenodd" fill-opacity="1" stroke="#000000" stroke-opacity="1" stroke-width="3.2"/>
<circle clip-path="url(#clip092)" cx="1260.34" cy="951.554" r="14" fill="#009af9" fill-rule="evenodd" fill-opacity="1" stroke="#000000" stroke-opacity="1" stroke-width="3.2"/>
<circle clip-path="url(#clip092)" cx="1157.13" cy="1211.16" r="14" fill="#009af9" fill-rule="evenodd" fill-opacity="1" stroke="#000000" stroke-opacity="1" stroke-width="3.2"/>
<circle clip-path="url(#clip092)" cx="950.723" cy="1124.63" r="14" fill="#009af9" fill-rule="evenodd" fill-opacity="1" stroke="#000000" stroke-opacity="1" stroke-width="3.2"/>
<circle clip-path="url(#clip092)" cx="1002.33" cy="1038.09" r="14" fill="#009af9" fill-rule="evenodd" fill-opacity="1" stroke="#000000" stroke-opacity="1" stroke-width="3.2"/>
<circle clip-path="url(#clip092)" cx="1208.73" cy="1038.09" r="14" fill="#009af9" fill-rule="evenodd" fill-opacity="1" stroke="#000000" stroke-opacity="1" stroke-width="3.2"/>
<circle clip-path="url(#clip092)" cx="1311.94" cy="778.48" r="14" fill="#009af9" fill-rule="evenodd" fill-opacity="1" stroke="#000000" stroke-opacity="1" stroke-width="3.2"/>
<circle clip-path="url(#clip092)" cx="1053.93" cy="951.554" r="14" fill="#009af9" fill-rule="evenodd" fill-opacity="1" stroke="#000000" stroke-opacity="1" stroke-width="3.2"/>
<circle clip-path="url(#clip092)" cx="537.905" cy="1384.24" r="14" fill="#009af9" fill-rule="evenodd" fill-opacity="1" stroke="#000000" stroke-opacity="1" stroke-width="3.2"/>
<circle clip-path="url(#clip092)" cx="692.712" cy="1297.7" r="14" fill="#009af9" fill-rule="evenodd" fill-opacity="1" stroke="#000000" stroke-opacity="1" stroke-width="3.2"/>
<circle clip-path="url(#clip092)" cx="641.109" cy="1384.24" r="14" fill="#009af9" fill-rule="evenodd" fill-opacity="1" stroke="#000000" stroke-opacity="1" stroke-width="3.2"/>
<circle clip-path="url(#clip092)" cx="744.314" cy="1211.16" r="14" fill="#009af9" fill-rule="evenodd" fill-opacity="1" stroke="#000000" stroke-opacity="1" stroke-width="3.2"/>
<circle clip-path="url(#clip092)" cx="1363.54" cy="865.017" r="14" fill="#009af9" fill-rule="evenodd" fill-opacity="1" stroke="#000000" stroke-opacity="1" stroke-width="3.2"/>
<circle clip-path="url(#clip092)" cx="1053.93" cy="951.554" r="14" fill="#009af9" fill-rule="evenodd" fill-opacity="1" stroke="#000000" stroke-opacity="1" stroke-width="3.2"/>
<circle clip-path="url(#clip092)" cx="1053.93" cy="865.017" r="14" fill="#009af9" fill-rule="evenodd" fill-opacity="1" stroke="#000000" stroke-opacity="1" stroke-width="3.2"/>
<circle clip-path="url(#clip092)" cx="1157.13" cy="951.554" r="14" fill="#009af9" fill-rule="evenodd" fill-opacity="1" stroke="#000000" stroke-opacity="1" stroke-width="3.2"/>
<circle clip-path="url(#clip092)" cx="1002.33" cy="1124.63" r="14" fill="#009af9" fill-rule="evenodd" fill-opacity="1" stroke="#000000" stroke-opacity="1" stroke-width="3.2"/>
<circle clip-path="url(#clip092)" cx="847.518" cy="1124.63" r="14" fill="#009af9" fill-rule="evenodd" fill-opacity="1" stroke="#000000" stroke-opacity="1" stroke-width="3.2"/>
<circle clip-path="url(#clip092)" cx="795.916" cy="1124.63" r="14" fill="#009af9" fill-rule="evenodd" fill-opacity="1" stroke="#000000" stroke-opacity="1" stroke-width="3.2"/>
<circle clip-path="url(#clip092)" cx="1002.33" cy="1211.16" r="14" fill="#009af9" fill-rule="evenodd" fill-opacity="1" stroke="#000000" stroke-opacity="1" stroke-width="3.2"/>
<circle clip-path="url(#clip092)" cx="1105.53" cy="1038.09" r="14" fill="#009af9" fill-rule="evenodd" fill-opacity="1" stroke="#000000" stroke-opacity="1" stroke-width="3.2"/>
<circle clip-path="url(#clip092)" cx="795.916" cy="1211.16" r="14" fill="#009af9" fill-rule="evenodd" fill-opacity="1" stroke="#000000" stroke-opacity="1" stroke-width="3.2"/>
<circle clip-path="url(#clip092)" cx="434.7" cy="1384.24" r="14" fill="#009af9" fill-rule="evenodd" fill-opacity="1" stroke="#000000" stroke-opacity="1" stroke-width="3.2"/>
<circle clip-path="url(#clip092)" cx="899.121" cy="1124.63" r="14" fill="#009af9" fill-rule="evenodd" fill-opacity="1" stroke="#000000" stroke-opacity="1" stroke-width="3.2"/>
<circle clip-path="url(#clip092)" cx="899.121" cy="1211.16" r="14" fill="#009af9" fill-rule="evenodd" fill-opacity="1" stroke="#000000" stroke-opacity="1" stroke-width="3.2"/>
<circle clip-path="url(#clip092)" cx="899.121" cy="1124.63" r="14" fill="#009af9" fill-rule="evenodd" fill-opacity="1" stroke="#000000" stroke-opacity="1" stroke-width="3.2"/>
<circle clip-path="url(#clip092)" cx="950.723" cy="1124.63" r="14" fill="#009af9" fill-rule="evenodd" fill-opacity="1" stroke="#000000" stroke-opacity="1" stroke-width="3.2"/>
<circle clip-path="url(#clip092)" cx="279.894" cy="1297.7" r="14" fill="#009af9" fill-rule="evenodd" fill-opacity="1" stroke="#000000" stroke-opacity="1" stroke-width="3.2"/>
<circle clip-path="url(#clip092)" cx="847.518" cy="1124.63" r="14" fill="#009af9" fill-rule="evenodd" fill-opacity="1" stroke="#000000" stroke-opacity="1" stroke-width="3.2"/>
<circle clip-path="url(#clip092)" cx="1827.96" cy="86.1857" r="14" fill="#e26f46" fill-rule="evenodd" fill-opacity="1" stroke="#000000" stroke-opacity="1" stroke-width="3.2"/>
<circle clip-path="url(#clip092)" cx="1363.54" cy="605.407" r="14" fill="#e26f46" fill-rule="evenodd" fill-opacity="1" stroke="#000000" stroke-opacity="1" stroke-width="3.2"/>
<circle clip-path="url(#clip092)" cx="1776.36" cy="432.333" r="14" fill="#e26f46" fill-rule="evenodd" fill-opacity="1" stroke="#000000" stroke-opacity="1" stroke-width="3.2"/>
<circle clip-path="url(#clip092)" cx="1621.55" cy="691.944" r="14" fill="#e26f46" fill-rule="evenodd" fill-opacity="1" stroke="#000000" stroke-opacity="1" stroke-width="3.2"/>
<circle clip-path="url(#clip092)" cx="1724.76" cy="345.796" r="14" fill="#e26f46" fill-rule="evenodd" fill-opacity="1" stroke="#000000" stroke-opacity="1" stroke-width="3.2"/>
<circle clip-path="url(#clip092)" cx="2137.57" cy="432.333" r="14" fill="#e26f46" fill-rule="evenodd" fill-opacity="1" stroke="#000000" stroke-opacity="1" stroke-width="3.2"/>
<circle clip-path="url(#clip092)" cx="1053.93" cy="778.48" r="14" fill="#e26f46" fill-rule="evenodd" fill-opacity="1" stroke="#000000" stroke-opacity="1" stroke-width="3.2"/>
<circle clip-path="url(#clip092)" cx="1982.77" cy="691.944" r="14" fill="#e26f46" fill-rule="evenodd" fill-opacity="1" stroke="#000000" stroke-opacity="1" stroke-width="3.2"/>
<circle clip-path="url(#clip092)" cx="1724.76" cy="691.944" r="14" fill="#e26f46" fill-rule="evenodd" fill-opacity="1" stroke="#000000" stroke-opacity="1" stroke-width="3.2"/>
<circle clip-path="url(#clip092)" cx="1879.56" cy="86.1857" r="14" fill="#e26f46" fill-rule="evenodd" fill-opacity="1" stroke="#000000" stroke-opacity="1" stroke-width="3.2"/>
<circle clip-path="url(#clip092)" cx="1363.54" cy="518.87" r="14" fill="#e26f46" fill-rule="evenodd" fill-opacity="1" stroke="#000000" stroke-opacity="1" stroke-width="3.2"/>
<circle clip-path="url(#clip092)" cx="1466.75" cy="605.407" r="14" fill="#e26f46" fill-rule="evenodd" fill-opacity="1" stroke="#000000" stroke-opacity="1" stroke-width="3.2"/>
<circle clip-path="url(#clip092)" cx="1569.95" cy="432.333" r="14" fill="#e26f46" fill-rule="evenodd" fill-opacity="1" stroke="#000000" stroke-opacity="1" stroke-width="3.2"/>
<circle clip-path="url(#clip092)" cx="1311.94" cy="518.87" r="14" fill="#e26f46" fill-rule="evenodd" fill-opacity="1" stroke="#000000" stroke-opacity="1" stroke-width="3.2"/>
<circle clip-path="url(#clip092)" cx="1363.54" cy="172.723" r="14" fill="#e26f46" fill-rule="evenodd" fill-opacity="1" stroke="#000000" stroke-opacity="1" stroke-width="3.2"/>
<circle clip-path="url(#clip092)" cx="1466.75" cy="259.259" r="14" fill="#e26f46" fill-rule="evenodd" fill-opacity="1" stroke="#000000" stroke-opacity="1" stroke-width="3.2"/>
<circle clip-path="url(#clip092)" cx="1569.95" cy="691.944" r="14" fill="#e26f46" fill-rule="evenodd" fill-opacity="1" stroke="#000000" stroke-opacity="1" stroke-width="3.2"/>
<circle clip-path="url(#clip092)" cx="2189.18" cy="345.796" r="14" fill="#e26f46" fill-rule="evenodd" fill-opacity="1" stroke="#000000" stroke-opacity="1" stroke-width="3.2"/>
<circle clip-path="url(#clip092)" cx="2292.38" cy="259.259" r="14" fill="#e26f46" fill-rule="evenodd" fill-opacity="1" stroke="#000000" stroke-opacity="1" stroke-width="3.2"/>
<circle clip-path="url(#clip092)" cx="1311.94" cy="951.554" r="14" fill="#e26f46" fill-rule="evenodd" fill-opacity="1" stroke="#000000" stroke-opacity="1" stroke-width="3.2"/>
<circle clip-path="url(#clip092)" cx="1673.15" cy="259.259" r="14" fill="#e26f46" fill-rule="evenodd" fill-opacity="1" stroke="#000000" stroke-opacity="1" stroke-width="3.2"/>
<circle clip-path="url(#clip092)" cx="1260.34" cy="518.87" r="14" fill="#e26f46" fill-rule="evenodd" fill-opacity="1" stroke="#000000" stroke-opacity="1" stroke-width="3.2"/>
<circle clip-path="url(#clip092)" cx="2189.18" cy="518.87" r="14" fill="#e26f46" fill-rule="evenodd" fill-opacity="1" stroke="#000000" stroke-opacity="1" stroke-width="3.2"/>
<circle clip-path="url(#clip092)" cx="1260.34" cy="691.944" r="14" fill="#e26f46" fill-rule="evenodd" fill-opacity="1" stroke="#000000" stroke-opacity="1" stroke-width="3.2"/>
<circle clip-path="url(#clip092)" cx="1673.15" cy="432.333" r="14" fill="#e26f46" fill-rule="evenodd" fill-opacity="1" stroke="#000000" stroke-opacity="1" stroke-width="3.2"/>
<circle clip-path="url(#clip092)" cx="1827.96" cy="691.944" r="14" fill="#e26f46" fill-rule="evenodd" fill-opacity="1" stroke="#000000" stroke-opacity="1" stroke-width="3.2"/>
<circle clip-path="url(#clip092)" cx="1208.73" cy="691.944" r="14" fill="#e26f46" fill-rule="evenodd" fill-opacity="1" stroke="#000000" stroke-opacity="1" stroke-width="3.2"/>
<circle clip-path="url(#clip092)" cx="1260.34" cy="691.944" r="14" fill="#e26f46" fill-rule="evenodd" fill-opacity="1" stroke="#000000" stroke-opacity="1" stroke-width="3.2"/>
<circle clip-path="url(#clip092)" cx="1621.55" cy="432.333" r="14" fill="#e26f46" fill-rule="evenodd" fill-opacity="1" stroke="#000000" stroke-opacity="1" stroke-width="3.2"/>
<circle clip-path="url(#clip092)" cx="1724.76" cy="865.017" r="14" fill="#e26f46" fill-rule="evenodd" fill-opacity="1" stroke="#000000" stroke-opacity="1" stroke-width="3.2"/>
<circle clip-path="url(#clip092)" cx="1879.56" cy="605.407" r="14" fill="#e26f46" fill-rule="evenodd" fill-opacity="1" stroke="#000000" stroke-opacity="1" stroke-width="3.2"/>
<circle clip-path="url(#clip092)" cx="2034.37" cy="518.87" r="14" fill="#e26f46" fill-rule="evenodd" fill-opacity="1" stroke="#000000" stroke-opacity="1" stroke-width="3.2"/>
<circle clip-path="url(#clip092)" cx="1621.55" cy="345.796" r="14" fill="#e26f46" fill-rule="evenodd" fill-opacity="1" stroke="#000000" stroke-opacity="1" stroke-width="3.2"/>
<circle clip-path="url(#clip092)" cx="1363.54" cy="951.554" r="14" fill="#e26f46" fill-rule="evenodd" fill-opacity="1" stroke="#000000" stroke-opacity="1" stroke-width="3.2"/>
<circle clip-path="url(#clip092)" cx="1621.55" cy="1038.09" r="14" fill="#e26f46" fill-rule="evenodd" fill-opacity="1" stroke="#000000" stroke-opacity="1" stroke-width="3.2"/>
<circle clip-path="url(#clip092)" cx="1879.56" cy="259.259" r="14" fill="#e26f46" fill-rule="evenodd" fill-opacity="1" stroke="#000000" stroke-opacity="1" stroke-width="3.2"/>
<circle clip-path="url(#clip092)" cx="1621.55" cy="172.723" r="14" fill="#e26f46" fill-rule="evenodd" fill-opacity="1" stroke="#000000" stroke-opacity="1" stroke-width="3.2"/>
<circle clip-path="url(#clip092)" cx="1569.95" cy="691.944" r="14" fill="#e26f46" fill-rule="evenodd" fill-opacity="1" stroke="#000000" stroke-opacity="1" stroke-width="3.2"/>
<circle clip-path="url(#clip092)" cx="1208.73" cy="691.944" r="14" fill="#e26f46" fill-rule="evenodd" fill-opacity="1" stroke="#000000" stroke-opacity="1" stroke-width="3.2"/>
<circle clip-path="url(#clip092)" cx="1518.35" cy="432.333" r="14" fill="#e26f46" fill-rule="evenodd" fill-opacity="1" stroke="#000000" stroke-opacity="1" stroke-width="3.2"/>
<circle clip-path="url(#clip092)" cx="1621.55" cy="172.723" r="14" fill="#e26f46" fill-rule="evenodd" fill-opacity="1" stroke="#000000" stroke-opacity="1" stroke-width="3.2"/>
<circle clip-path="url(#clip092)" cx="1363.54" cy="259.259" r="14" fill="#e26f46" fill-rule="evenodd" fill-opacity="1" stroke="#000000" stroke-opacity="1" stroke-width="3.2"/>
<circle clip-path="url(#clip092)" cx="1363.54" cy="605.407" r="14" fill="#e26f46" fill-rule="evenodd" fill-opacity="1" stroke="#000000" stroke-opacity="1" stroke-width="3.2"/>
<circle clip-path="url(#clip092)" cx="1776.36" cy="259.259" r="14" fill="#e26f46" fill-rule="evenodd" fill-opacity="1" stroke="#000000" stroke-opacity="1" stroke-width="3.2"/>
<circle clip-path="url(#clip092)" cx="1673.15" cy="86.1857" r="14" fill="#e26f46" fill-rule="evenodd" fill-opacity="1" stroke="#000000" stroke-opacity="1" stroke-width="3.2"/>
<circle clip-path="url(#clip092)" cx="1415.14" cy="259.259" r="14" fill="#e26f46" fill-rule="evenodd" fill-opacity="1" stroke="#000000" stroke-opacity="1" stroke-width="3.2"/>
<circle clip-path="url(#clip092)" cx="1311.94" cy="605.407" r="14" fill="#e26f46" fill-rule="evenodd" fill-opacity="1" stroke="#000000" stroke-opacity="1" stroke-width="3.2"/>
<circle clip-path="url(#clip092)" cx="1415.14" cy="518.87" r="14" fill="#e26f46" fill-rule="evenodd" fill-opacity="1" stroke="#000000" stroke-opacity="1" stroke-width="3.2"/>
<circle clip-path="url(#clip092)" cx="1518.35" cy="259.259" r="14" fill="#e26f46" fill-rule="evenodd" fill-opacity="1" stroke="#000000" stroke-opacity="1" stroke-width="3.2"/>
<circle clip-path="url(#clip092)" cx="1363.54" cy="691.944" r="14" fill="#e26f46" fill-rule="evenodd" fill-opacity="1" stroke="#000000" stroke-opacity="1" stroke-width="3.2"/>
<path clip-path="url(#clip090)" d="
M290.627 274.549 L757.559 274.549 L757.559 93.1086 L290.627 93.1086  Z
  " fill="#ffffff" fill-rule="evenodd" fill-opacity="1"/>
<polyline clip-path="url(#clip090)" style="stroke:#000000; stroke-width:4; stroke-opacity:1; fill:none" points="
  290.627,274.549 757.559,274.549 757.559,93.1086 290.627,93.1086 290.627,274.549 
  "/>
<circle clip-path="url(#clip090)" cx="385.437" cy="153.589" r="23" fill="#009af9" fill-rule="evenodd" fill-opacity="1" stroke="#000000" stroke-opacity="1" stroke-width="5.12"/>
<path clip-path="url(#clip090)" d="M 0 0 M480.248 144.943 L484.762 144.943 L492.864 166.702 L500.965 144.943 L505.479 144.943 L495.757 170.869 L489.97 170.869 L480.248 144.943 Z" fill="#000000" fill-rule="evenodd" fill-opacity="1" /><path clip-path="url(#clip090)" d="M 0 0 M533.535 156.841 L533.535 158.924 L513.952 158.924 Q514.229 163.322 516.59 165.637 Q518.975 167.929 523.211 167.929 Q525.664 167.929 527.956 167.327 Q530.271 166.725 532.539 165.521 L532.539 169.549 Q530.248 170.521 527.84 171.031 Q525.433 171.54 522.956 171.54 Q516.752 171.54 513.118 167.929 Q509.507 164.318 509.507 158.16 Q509.507 151.795 512.933 148.068 Q516.382 144.318 522.215 144.318 Q527.447 144.318 530.479 147.697 Q533.535 151.054 533.535 156.841 M529.276 155.591 Q529.229 152.096 527.308 150.012 Q525.41 147.929 522.262 147.929 Q518.697 147.929 516.544 149.943 Q514.414 151.957 514.09 155.614 L529.276 155.591 Z" fill="#000000" fill-rule="evenodd" fill-opacity="1" /><path clip-path="url(#clip090)" d="M 0 0 M555.549 148.924 Q554.831 148.508 553.974 148.322 Q553.141 148.114 552.123 148.114 Q548.512 148.114 546.567 150.475 Q544.646 152.813 544.646 157.211 L544.646 170.869 L540.363 170.869 L540.363 144.943 L544.646 144.943 L544.646 148.971 Q545.988 146.609 548.141 145.475 Q550.294 144.318 553.373 144.318 Q553.812 144.318 554.345 144.387 Q554.877 144.434 555.525 144.549 L555.549 148.924 Z" fill="#000000" fill-rule="evenodd" fill-opacity="1" /><path clip-path="url(#clip090)" d="M 0 0 M576.544 145.707 L576.544 149.734 Q574.738 148.809 572.794 148.346 Q570.849 147.883 568.766 147.883 Q565.595 147.883 563.998 148.855 Q562.423 149.827 562.423 151.771 Q562.423 153.253 563.558 154.109 Q564.692 154.943 568.118 155.707 L569.576 156.031 Q574.113 157.003 576.011 158.785 Q577.933 160.545 577.933 163.716 Q577.933 167.327 575.062 169.433 Q572.215 171.54 567.215 171.54 Q565.132 171.54 562.863 171.123 Q560.618 170.73 558.118 169.92 L558.118 165.521 Q560.479 166.748 562.771 167.373 Q565.062 167.975 567.308 167.975 Q570.317 167.975 571.937 166.957 Q573.558 165.915 573.558 164.04 Q573.558 162.304 572.377 161.378 Q571.22 160.452 567.261 159.596 L565.78 159.248 Q561.822 158.415 560.062 156.702 Q558.303 154.966 558.303 151.957 Q558.303 148.299 560.896 146.309 Q563.488 144.318 568.257 144.318 Q570.618 144.318 572.701 144.665 Q574.785 145.012 576.544 145.707 Z" fill="#000000" fill-rule="evenodd" fill-opacity="1" /><path clip-path="url(#clip090)" d="M 0 0 M584.715 144.943 L588.974 144.943 L588.974 170.869 L584.715 170.869 L584.715 144.943 M584.715 134.85 L588.974 134.85 L588.974 140.244 L584.715 140.244 L584.715 134.85 Z" fill="#000000" fill-rule="evenodd" fill-opacity="1" /><path clip-path="url(#clip090)" d="M 0 0 M616.544 145.938 L616.544 149.92 Q614.738 148.924 612.909 148.438 Q611.104 147.929 609.252 147.929 Q605.108 147.929 602.817 150.568 Q600.525 153.184 600.525 157.929 Q600.525 162.674 602.817 165.313 Q605.108 167.929 609.252 167.929 Q611.104 167.929 612.909 167.443 Q614.738 166.933 616.544 165.938 L616.544 169.873 Q614.761 170.707 612.84 171.123 Q610.942 171.54 608.789 171.54 Q602.933 171.54 599.483 167.859 Q596.034 164.179 596.034 157.929 Q596.034 151.586 599.507 147.952 Q603.002 144.318 609.067 144.318 Q611.034 144.318 612.909 144.735 Q614.784 145.128 616.544 145.938 Z" fill="#000000" fill-rule="evenodd" fill-opacity="1" /><path clip-path="url(#clip090)" d="M 0 0 M633.997 147.929 Q630.571 147.929 628.581 150.614 Q626.59 153.276 626.59 157.929 Q626.59 162.582 628.557 165.267 Q630.548 167.929 633.997 167.929 Q637.4 167.929 639.391 165.244 Q641.381 162.558 641.381 157.929 Q641.381 153.322 639.391 150.637 Q637.4 147.929 633.997 147.929 M633.997 144.318 Q639.553 144.318 642.724 147.929 Q645.895 151.54 645.895 157.929 Q645.895 164.295 642.724 167.929 Q639.553 171.54 633.997 171.54 Q628.418 171.54 625.247 167.929 Q622.099 164.295 622.099 157.929 Q622.099 151.54 625.247 147.929 Q628.418 144.318 633.997 144.318 Z" fill="#000000" fill-rule="evenodd" fill-opacity="1" /><path clip-path="url(#clip090)" d="M 0 0 M652.955 134.85 L657.215 134.85 L657.215 170.869 L652.955 170.869 L652.955 134.85 Z" fill="#000000" fill-rule="evenodd" fill-opacity="1" /><path clip-path="url(#clip090)" d="M 0 0 M676.173 147.929 Q672.747 147.929 670.756 150.614 Q668.766 153.276 668.766 157.929 Q668.766 162.582 670.733 165.267 Q672.724 167.929 676.173 167.929 Q679.576 167.929 681.566 165.244 Q683.557 162.558 683.557 157.929 Q683.557 153.322 681.566 150.637 Q679.576 147.929 676.173 147.929 M676.173 144.318 Q681.728 144.318 684.9 147.929 Q688.071 151.54 688.071 157.929 Q688.071 164.295 684.9 167.929 Q681.728 171.54 676.173 171.54 Q670.594 171.54 667.423 167.929 Q664.275 164.295 664.275 157.929 Q664.275 151.54 667.423 147.929 Q670.594 144.318 676.173 144.318 Z" fill="#000000" fill-rule="evenodd" fill-opacity="1" /><path clip-path="url(#clip090)" d="M 0 0 M710.154 148.924 Q709.437 148.508 708.58 148.322 Q707.747 148.114 706.728 148.114 Q703.117 148.114 701.173 150.475 Q699.251 152.813 699.251 157.211 L699.251 170.869 L694.969 170.869 L694.969 144.943 L699.251 144.943 L699.251 148.971 Q700.594 146.609 702.747 145.475 Q704.9 144.318 707.978 144.318 Q708.418 144.318 708.95 144.387 Q709.483 144.434 710.131 144.549 L710.154 148.924 Z" fill="#000000" fill-rule="evenodd" fill-opacity="1" /><circle clip-path="url(#clip090)" cx="385.437" cy="214.069" r="23" fill="#e26f46" fill-rule="evenodd" fill-opacity="1" stroke="#000000" stroke-opacity="1" stroke-width="5.12"/>
<path clip-path="url(#clip090)" d="M 0 0 M480.248 205.423 L484.762 205.423 L492.864 227.182 L500.965 205.423 L505.479 205.423 L495.757 231.349 L489.97 231.349 L480.248 205.423 Z" fill="#000000" fill-rule="evenodd" fill-opacity="1" /><path clip-path="url(#clip090)" d="M 0 0 M511.359 205.423 L515.618 205.423 L515.618 231.349 L511.359 231.349 L511.359 205.423 M511.359 195.33 L515.618 195.33 L515.618 200.724 L511.359 200.724 L511.359 195.33 Z" fill="#000000" fill-rule="evenodd" fill-opacity="1" /><path clip-path="url(#clip090)" d="M 0 0 M539.553 209.404 Q538.836 208.988 537.979 208.802 Q537.146 208.594 536.127 208.594 Q532.516 208.594 530.572 210.955 Q528.651 213.293 528.651 217.691 L528.651 231.349 L524.368 231.349 L524.368 205.423 L528.651 205.423 L528.651 209.451 Q529.993 207.089 532.146 205.955 Q534.299 204.798 537.377 204.798 Q537.817 204.798 538.35 204.867 Q538.882 204.914 539.53 205.029 L539.553 209.404 Z" fill="#000000" fill-rule="evenodd" fill-opacity="1" /><path clip-path="url(#clip090)" d="M 0 0 M560.248 218.085 Q560.248 213.455 558.326 210.909 Q556.428 208.363 552.979 208.363 Q549.553 208.363 547.632 210.909 Q545.734 213.455 545.734 218.085 Q545.734 222.691 547.632 225.238 Q549.553 227.784 552.979 227.784 Q556.428 227.784 558.326 225.238 Q560.248 222.691 560.248 218.085 M564.507 228.131 Q564.507 234.751 561.567 237.969 Q558.627 241.21 552.562 241.21 Q550.317 241.21 548.326 240.862 Q546.336 240.538 544.461 239.844 L544.461 235.7 Q546.336 236.719 548.164 237.205 Q549.993 237.691 551.891 237.691 Q556.081 237.691 558.164 235.492 Q560.248 233.316 560.248 228.895 L560.248 226.788 Q558.928 229.08 556.868 230.214 Q554.808 231.349 551.937 231.349 Q547.169 231.349 544.252 227.714 Q541.336 224.08 541.336 218.085 Q541.336 212.066 544.252 208.432 Q547.169 204.798 551.937 204.798 Q554.808 204.798 556.868 205.932 Q558.928 207.066 560.248 209.358 L560.248 205.423 L564.507 205.423 L564.507 228.131 Z" fill="#000000" fill-rule="evenodd" fill-opacity="1" /><path clip-path="url(#clip090)" d="M 0 0 M573.28 205.423 L577.539 205.423 L577.539 231.349 L573.28 231.349 L573.28 205.423 M573.28 195.33 L577.539 195.33 L577.539 200.724 L573.28 200.724 L573.28 195.33 Z" fill="#000000" fill-rule="evenodd" fill-opacity="1" /><path clip-path="url(#clip090)" d="M 0 0 M608.002 215.701 L608.002 231.349 L603.743 231.349 L603.743 215.839 Q603.743 212.159 602.308 210.33 Q600.872 208.502 598.002 208.502 Q594.553 208.502 592.562 210.701 Q590.571 212.9 590.571 216.696 L590.571 231.349 L586.289 231.349 L586.289 205.423 L590.571 205.423 L590.571 209.451 Q592.099 207.113 594.159 205.955 Q596.243 204.798 598.951 204.798 Q603.419 204.798 605.71 207.576 Q608.002 210.33 608.002 215.701 Z" fill="#000000" fill-rule="evenodd" fill-opacity="1" /><path clip-path="url(#clip090)" d="M 0 0 M616.497 205.423 L620.757 205.423 L620.757 231.349 L616.497 231.349 L616.497 205.423 M616.497 195.33 L620.757 195.33 L620.757 200.724 L616.497 200.724 L616.497 195.33 Z" fill="#000000" fill-rule="evenodd" fill-opacity="1" /><path clip-path="url(#clip090)" d="M 0 0 M648.326 206.418 L648.326 210.4 Q646.52 209.404 644.692 208.918 Q642.886 208.409 641.034 208.409 Q636.891 208.409 634.599 211.048 Q632.307 213.664 632.307 218.409 Q632.307 223.154 634.599 225.793 Q636.891 228.409 641.034 228.409 Q642.886 228.409 644.692 227.923 Q646.52 227.413 648.326 226.418 L648.326 230.353 Q646.543 231.187 644.622 231.603 Q642.724 232.02 640.571 232.02 Q634.715 232.02 631.266 228.339 Q627.817 224.659 627.817 218.409 Q627.817 212.066 631.289 208.432 Q634.784 204.798 640.849 204.798 Q642.817 204.798 644.692 205.215 Q646.567 205.608 648.326 206.418 Z" fill="#000000" fill-rule="evenodd" fill-opacity="1" /><path clip-path="url(#clip090)" d="M 0 0 M667.516 218.316 Q662.354 218.316 660.363 219.497 Q658.372 220.677 658.372 223.525 Q658.372 225.793 659.854 227.136 Q661.358 228.455 663.928 228.455 Q667.469 228.455 669.599 225.955 Q671.752 223.432 671.752 219.265 L671.752 218.316 L667.516 218.316 M676.011 216.557 L676.011 231.349 L671.752 231.349 L671.752 227.413 Q670.293 229.775 668.117 230.909 Q665.941 232.02 662.793 232.02 Q658.812 232.02 656.451 229.798 Q654.113 227.552 654.113 223.802 Q654.113 219.427 657.029 217.205 Q659.969 214.983 665.779 214.983 L671.752 214.983 L671.752 214.566 Q671.752 211.627 669.807 210.029 Q667.886 208.409 664.391 208.409 Q662.168 208.409 660.062 208.941 Q657.955 209.474 656.011 210.539 L656.011 206.603 Q658.349 205.701 660.548 205.261 Q662.747 204.798 664.83 204.798 Q670.455 204.798 673.233 207.714 Q676.011 210.631 676.011 216.557 Z" fill="#000000" fill-rule="evenodd" fill-opacity="1" /></svg>
