<?xml version="1.0" encoding="utf-8"?>
<svg xmlns="http://www.w3.org/2000/svg" xmlns:xlink="http://www.w3.org/1999/xlink" width="600" height="400" viewBox="0 0 2400 1600">
<defs>
  <clipPath id="clip930">
    <rect x="0" y="0" width="2400" height="1600"/>
  </clipPath>
</defs>
<path clip-path="url(#clip930)" d="
M0 1600 L2400 1600 L2400 0 L0 0  Z
  " fill="#ffffff" fill-rule="evenodd" fill-opacity="1"/>
<defs>
  <clipPath id="clip931">
    <rect x="480" y="0" width="1681" height="1600"/>
  </clipPath>
</defs>
<path clip-path="url(#clip930)" d="
M211.116 1423.18 L2352.76 1423.18 L2352.76 47.2441 L211.116 47.2441  Z
  " fill="#ffffff" fill-rule="evenodd" fill-opacity="1"/>
<defs>
  <clipPath id="clip932">
    <rect x="211" y="47" width="2143" height="1377"/>
  </clipPath>
</defs>
<polyline clip-path="url(#clip932)" style="stroke:#000000; stroke-width:2; stroke-opacity:0.1; fill:none" points="
  304.85,1423.18 304.85,47.2441 
  "/>
<polyline clip-path="url(#clip932)" style="stroke:#000000; stroke-width:2; stroke-opacity:0.1; fill:none" points="
  636.066,1423.18 636.066,47.2441 
  "/>
<polyline clip-path="url(#clip932)" style="stroke:#000000; stroke-width:2; stroke-opacity:0.1; fill:none" points="
  967.281,1423.18 967.281,47.2441 
  "/>
<polyline clip-path="url(#clip932)" style="stroke:#000000; stroke-width:2; stroke-opacity:0.1; fill:none" points="
  1298.5,1423.18 1298.5,47.2441 
  "/>
<polyline clip-path="url(#clip932)" style="stroke:#000000; stroke-width:2; stroke-opacity:0.1; fill:none" points="
  1629.71,1423.18 1629.71,47.2441 
  "/>
<polyline clip-path="url(#clip932)" style="stroke:#000000; stroke-width:2; stroke-opacity:0.1; fill:none" points="
  1960.93,1423.18 1960.93,47.2441 
  "/>
<polyline clip-path="url(#clip932)" style="stroke:#000000; stroke-width:2; stroke-opacity:0.1; fill:none" points="
  2292.14,1423.18 2292.14,47.2441 
  "/>
<polyline clip-path="url(#clip930)" style="stroke:#000000; stroke-width:4; stroke-opacity:1; fill:none" points="
  211.116,1423.18 2352.76,1423.18 
  "/>
<polyline clip-path="url(#clip930)" style="stroke:#000000; stroke-width:4; stroke-opacity:1; fill:none" points="
  304.85,1423.18 304.85,1406.67 
  "/>
<polyline clip-path="url(#clip930)" style="stroke:#000000; stroke-width:4; stroke-opacity:1; fill:none" points="
  636.066,1423.18 636.066,1406.67 
  "/>
<polyline clip-path="url(#clip930)" style="stroke:#000000; stroke-width:4; stroke-opacity:1; fill:none" points="
  967.281,1423.18 967.281,1406.67 
  "/>
<polyline clip-path="url(#clip930)" style="stroke:#000000; stroke-width:4; stroke-opacity:1; fill:none" points="
  1298.5,1423.18 1298.5,1406.67 
  "/>
<polyline clip-path="url(#clip930)" style="stroke:#000000; stroke-width:4; stroke-opacity:1; fill:none" points="
  1629.71,1423.18 1629.71,1406.67 
  "/>
<polyline clip-path="url(#clip930)" style="stroke:#000000; stroke-width:4; stroke-opacity:1; fill:none" points="
  1960.93,1423.18 1960.93,1406.67 
  "/>
<polyline clip-path="url(#clip930)" style="stroke:#000000; stroke-width:4; stroke-opacity:1; fill:none" points="
  2292.14,1423.18 2292.14,1406.67 
  "/>
<path clip-path="url(#clip930)" d="M 0 0 M295.232 1479.92 L302.871 1479.92 L302.871 1453.55 L294.561 1455.22 L294.561 1450.96 L302.825 1449.29 L307.501 1449.29 L307.501 1479.92 L315.14 1479.92 L315.14 1483.85 L295.232 1483.85 L295.232 1479.92 Z" fill="#000000" fill-rule="evenodd" fill-opacity="1" /><path clip-path="url(#clip930)" d="M 0 0 M630.719 1479.92 L647.038 1479.92 L647.038 1483.85 L625.094 1483.85 L625.094 1479.92 Q627.756 1477.16 632.339 1472.53 Q636.945 1467.88 638.126 1466.54 Q640.371 1464.01 641.251 1462.28 Q642.154 1460.52 642.154 1458.83 Q642.154 1456.07 640.209 1454.34 Q638.288 1452.6 635.186 1452.6 Q632.987 1452.6 630.533 1453.37 Q628.103 1454.13 625.325 1455.68 L625.325 1450.96 Q628.149 1449.82 630.603 1449.25 Q633.057 1448.67 635.094 1448.67 Q640.464 1448.67 643.658 1451.35 Q646.853 1454.04 646.853 1458.53 Q646.853 1460.66 646.043 1462.58 Q645.256 1464.48 643.149 1467.07 Q642.57 1467.74 639.469 1470.96 Q636.367 1474.15 630.719 1479.92 Z" fill="#000000" fill-rule="evenodd" fill-opacity="1" /><path clip-path="url(#clip930)" d="M 0 0 M971.529 1465.22 Q974.885 1465.94 976.76 1468.2 Q978.659 1470.47 978.659 1473.81 Q978.659 1478.92 975.14 1481.72 Q971.622 1484.52 965.14 1484.52 Q962.964 1484.52 960.649 1484.08 Q958.358 1483.67 955.904 1482.81 L955.904 1478.3 Q957.849 1479.43 960.163 1480.01 Q962.478 1480.59 965.001 1480.59 Q969.399 1480.59 971.691 1478.85 Q974.006 1477.12 974.006 1473.81 Q974.006 1470.75 971.853 1469.04 Q969.723 1467.3 965.904 1467.3 L961.876 1467.3 L961.876 1463.46 L966.089 1463.46 Q969.538 1463.46 971.367 1462.09 Q973.196 1460.7 973.196 1458.11 Q973.196 1455.45 971.298 1454.04 Q969.423 1452.6 965.904 1452.6 Q963.983 1452.6 961.784 1453.02 Q959.585 1453.44 956.946 1454.31 L956.946 1450.15 Q959.608 1449.41 961.923 1449.04 Q964.261 1448.67 966.321 1448.67 Q971.645 1448.67 974.747 1451.1 Q977.848 1453.5 977.848 1457.63 Q977.848 1460.5 976.205 1462.49 Q974.561 1464.45 971.529 1465.22 Z" fill="#000000" fill-rule="evenodd" fill-opacity="1" /><path clip-path="url(#clip930)" d="M 0 0 M1301.51 1453.37 L1289.7 1471.81 L1301.51 1471.81 L1301.51 1453.37 M1300.28 1449.29 L1306.16 1449.29 L1306.16 1471.81 L1311.09 1471.81 L1311.09 1475.7 L1306.16 1475.7 L1306.16 1483.85 L1301.51 1483.85 L1301.51 1475.7 L1285.9 1475.7 L1285.9 1471.19 L1300.28 1449.29 Z" fill="#000000" fill-rule="evenodd" fill-opacity="1" /><path clip-path="url(#clip930)" d="M 0 0 M1619.99 1449.29 L1638.35 1449.29 L1638.35 1453.23 L1624.27 1453.23 L1624.27 1461.7 Q1625.29 1461.35 1626.31 1461.19 Q1627.33 1461 1628.35 1461 Q1634.13 1461 1637.51 1464.18 Q1640.89 1467.35 1640.89 1472.76 Q1640.89 1478.34 1637.42 1481.44 Q1633.95 1484.52 1627.63 1484.52 Q1625.45 1484.52 1623.18 1484.15 Q1620.94 1483.78 1618.53 1483.04 L1618.53 1478.34 Q1620.62 1479.48 1622.84 1480.03 Q1625.06 1480.59 1627.54 1480.59 Q1631.54 1480.59 1633.88 1478.48 Q1636.22 1476.38 1636.22 1472.76 Q1636.22 1469.15 1633.88 1467.05 Q1631.54 1464.94 1627.54 1464.94 Q1625.66 1464.94 1623.79 1465.36 Q1621.93 1465.77 1619.99 1466.65 L1619.99 1449.29 Z" fill="#000000" fill-rule="evenodd" fill-opacity="1" /><path clip-path="url(#clip930)" d="M 0 0 M1961.33 1464.71 Q1958.18 1464.71 1956.33 1466.86 Q1954.5 1469.01 1954.5 1472.76 Q1954.5 1476.49 1956.33 1478.67 Q1958.18 1480.82 1961.33 1480.82 Q1964.48 1480.82 1966.31 1478.67 Q1968.16 1476.49 1968.16 1472.76 Q1968.16 1469.01 1966.31 1466.86 Q1964.48 1464.71 1961.33 1464.71 M1970.62 1450.06 L1970.62 1454.31 Q1968.86 1453.48 1967.05 1453.04 Q1965.27 1452.6 1963.51 1452.6 Q1958.88 1452.6 1956.43 1455.73 Q1954 1458.85 1953.65 1465.17 Q1955.01 1463.16 1957.07 1462.09 Q1959.13 1461 1961.61 1461 Q1966.82 1461 1969.83 1464.18 Q1972.86 1467.32 1972.86 1472.76 Q1972.86 1478.09 1969.71 1481.31 Q1966.56 1484.52 1961.33 1484.52 Q1955.34 1484.52 1952.17 1479.94 Q1949 1475.33 1949 1466.61 Q1949 1458.41 1952.88 1453.55 Q1956.77 1448.67 1963.32 1448.67 Q1965.08 1448.67 1966.87 1449.01 Q1968.67 1449.36 1970.62 1450.06 Z" fill="#000000" fill-rule="evenodd" fill-opacity="1" /><path clip-path="url(#clip930)" d="M 0 0 M2281.03 1449.29 L2303.25 1449.29 L2303.25 1451.28 L2290.71 1483.85 L2285.82 1483.85 L2297.63 1453.23 L2281.03 1453.23 L2281.03 1449.29 Z" fill="#000000" fill-rule="evenodd" fill-opacity="1" /><path clip-path="url(#clip930)" d="M 0 0 M1120.68 1525.81 L1120.68 1543.66 L1128.76 1543.66 Q1133.25 1543.66 1135.7 1541.34 Q1138.15 1539.02 1138.15 1534.72 Q1138.15 1530.45 1135.7 1528.13 Q1133.25 1525.81 1128.76 1525.81 L1120.68 1525.81 M1114.25 1520.52 L1128.76 1520.52 Q1136.75 1520.52 1140.82 1524.15 Q1144.93 1527.75 1144.93 1534.72 Q1144.93 1541.75 1140.82 1545.35 Q1136.75 1548.95 1128.76 1548.95 L1120.68 1548.95 L1120.68 1568.04 L1114.25 1568.04 L1114.25 1520.52 Z" fill="#000000" fill-rule="evenodd" fill-opacity="1" /><path clip-path="url(#clip930)" d="M 0 0 M1179.24 1548.76 L1179.24 1551.62 L1152.31 1551.62 Q1152.7 1557.67 1155.94 1560.85 Q1159.22 1564 1165.05 1564 Q1168.42 1564 1171.57 1563.17 Q1174.75 1562.35 1177.87 1560.69 L1177.87 1566.23 Q1174.72 1567.57 1171.41 1568.27 Q1168.1 1568.97 1164.7 1568.97 Q1156.17 1568.97 1151.17 1564 Q1146.2 1559.04 1146.2 1550.57 Q1146.2 1541.82 1150.91 1536.69 Q1155.66 1531.54 1163.68 1531.54 Q1170.87 1531.54 1175.04 1536.18 Q1179.24 1540.8 1179.24 1548.76 M1173.38 1547.04 Q1173.32 1542.23 1170.68 1539.37 Q1168.07 1536.5 1163.74 1536.5 Q1158.84 1536.5 1155.88 1539.27 Q1152.95 1542.04 1152.51 1547.07 L1173.38 1547.04 Z" fill="#000000" fill-rule="evenodd" fill-opacity="1" /><path clip-path="url(#clip930)" d="M 0 0 M1191.18 1522.27 L1191.18 1532.4 L1203.24 1532.4 L1203.24 1536.95 L1191.18 1536.95 L1191.18 1556.3 Q1191.18 1560.66 1192.35 1561.9 Q1193.56 1563.14 1197.22 1563.14 L1203.24 1563.14 L1203.24 1568.04 L1197.22 1568.04 Q1190.44 1568.04 1187.87 1565.53 Q1185.29 1562.98 1185.29 1556.3 L1185.29 1536.95 L1180.99 1536.95 L1180.99 1532.4 L1185.29 1532.4 L1185.29 1522.27 L1191.18 1522.27 Z" fill="#000000" fill-rule="evenodd" fill-opacity="1" /><path clip-path="url(#clip930)" d="M 0 0 M1225.58 1550.12 Q1218.49 1550.12 1215.75 1551.75 Q1213.01 1553.37 1213.01 1557.29 Q1213.01 1560.4 1215.05 1562.25 Q1217.12 1564.07 1220.65 1564.07 Q1225.52 1564.07 1228.45 1560.63 Q1231.41 1557.16 1231.41 1551.43 L1231.41 1550.12 L1225.58 1550.12 M1237.26 1547.71 L1237.26 1568.04 L1231.41 1568.04 L1231.41 1562.63 Q1229.4 1565.88 1226.41 1567.44 Q1223.42 1568.97 1219.09 1568.97 Q1213.62 1568.97 1210.37 1565.91 Q1207.15 1562.82 1207.15 1557.67 Q1207.15 1551.65 1211.17 1548.6 Q1215.21 1545.54 1223.2 1545.54 L1231.41 1545.54 L1231.41 1544.97 Q1231.41 1540.93 1228.73 1538.73 Q1226.09 1536.5 1221.29 1536.5 Q1218.23 1536.5 1215.33 1537.23 Q1212.44 1537.97 1209.76 1539.43 L1209.76 1534.02 Q1212.98 1532.78 1216 1532.17 Q1219.03 1531.54 1221.89 1531.54 Q1229.63 1531.54 1233.45 1535.55 Q1237.26 1539.56 1237.26 1547.71 Z" fill="#000000" fill-rule="evenodd" fill-opacity="1" /><path clip-path="url(#clip930)" d="M 0 0 M1243.41 1518.52 L1249.26 1518.52 L1249.26 1568.04 L1243.41 1568.04 L1243.41 1518.52 Z" fill="#000000" fill-rule="evenodd" fill-opacity="1" /><path clip-path="url(#clip930)" d="M 0 0 M1276.13 1518.52 L1281.98 1518.52 L1281.98 1568.04 L1276.13 1568.04 L1276.13 1518.52 Z" fill="#000000" fill-rule="evenodd" fill-opacity="1" /><path clip-path="url(#clip930)" d="M 0 0 M1318.62 1548.76 L1318.62 1551.62 L1291.69 1551.62 Q1292.07 1557.67 1295.32 1560.85 Q1298.6 1564 1304.42 1564 Q1307.8 1564 1310.95 1563.17 Q1314.13 1562.35 1317.25 1560.69 L1317.25 1566.23 Q1314.1 1567.57 1310.79 1568.27 Q1307.48 1568.97 1304.07 1568.97 Q1295.54 1568.97 1290.55 1564 Q1285.58 1559.04 1285.58 1550.57 Q1285.58 1541.82 1290.29 1536.69 Q1295.03 1531.54 1303.05 1531.54 Q1310.25 1531.54 1314.42 1536.18 Q1318.62 1540.8 1318.62 1548.76 M1312.76 1547.04 Q1312.7 1542.23 1310.06 1539.37 Q1307.45 1536.5 1303.12 1536.5 Q1298.22 1536.5 1295.26 1539.27 Q1292.33 1542.04 1291.88 1547.07 L1312.76 1547.04 Z" fill="#000000" fill-rule="evenodd" fill-opacity="1" /><path clip-path="url(#clip930)" d="M 0 0 M1354.39 1546.53 L1354.39 1568.04 L1348.54 1568.04 L1348.54 1546.72 Q1348.54 1541.66 1346.56 1539.14 Q1344.59 1536.63 1340.64 1536.63 Q1335.9 1536.63 1333.16 1539.65 Q1330.43 1542.68 1330.43 1547.9 L1330.43 1568.04 L1324.54 1568.04 L1324.54 1532.4 L1330.43 1532.4 L1330.43 1537.93 Q1332.53 1534.72 1335.36 1533.13 Q1338.22 1531.54 1341.95 1531.54 Q1348.09 1531.54 1351.24 1535.36 Q1354.39 1539.14 1354.39 1546.53 Z" fill="#000000" fill-rule="evenodd" fill-opacity="1" /><path clip-path="url(#clip930)" d="M 0 0 M1383.99 1549.81 Q1383.99 1543.44 1381.35 1539.94 Q1378.74 1536.44 1374 1536.44 Q1369.29 1536.44 1366.65 1539.94 Q1364.04 1543.44 1364.04 1549.81 Q1364.04 1556.14 1366.65 1559.64 Q1369.29 1563.14 1374 1563.14 Q1378.74 1563.14 1381.35 1559.64 Q1383.99 1556.14 1383.99 1549.81 M1389.85 1563.62 Q1389.85 1572.72 1385.81 1577.15 Q1381.77 1581.6 1373.43 1581.6 Q1370.34 1581.6 1367.6 1581.13 Q1364.87 1580.68 1362.29 1579.72 L1362.29 1574.03 Q1364.87 1575.43 1367.38 1576.1 Q1369.89 1576.76 1372.5 1576.76 Q1378.27 1576.76 1381.13 1573.74 Q1383.99 1570.75 1383.99 1564.67 L1383.99 1561.77 Q1382.18 1564.92 1379.35 1566.48 Q1376.51 1568.04 1372.57 1568.04 Q1366.01 1568.04 1362 1563.05 Q1357.99 1558.05 1357.99 1549.81 Q1357.99 1541.53 1362 1536.53 Q1366.01 1531.54 1372.57 1531.54 Q1376.51 1531.54 1379.35 1533.1 Q1382.18 1534.66 1383.99 1537.81 L1383.99 1532.4 L1389.85 1532.4 L1389.85 1563.62 Z" fill="#000000" fill-rule="evenodd" fill-opacity="1" /><path clip-path="url(#clip930)" d="M 0 0 M1401.79 1522.27 L1401.79 1532.4 L1413.85 1532.4 L1413.85 1536.95 L1401.79 1536.95 L1401.79 1556.3 Q1401.79 1560.66 1402.96 1561.9 Q1404.17 1563.14 1407.83 1563.14 L1413.85 1563.14 L1413.85 1568.04 L1407.83 1568.04 Q1401.05 1568.04 1398.48 1565.53 Q1395.9 1562.98 1395.9 1556.3 L1395.9 1536.95 L1391.6 1536.95 L1391.6 1532.4 L1395.9 1532.4 L1395.9 1522.27 L1401.79 1522.27 Z" fill="#000000" fill-rule="evenodd" fill-opacity="1" /><path clip-path="url(#clip930)" d="M 0 0 M1449.62 1546.53 L1449.62 1568.04 L1443.77 1568.04 L1443.77 1546.72 Q1443.77 1541.66 1441.79 1539.14 Q1439.82 1536.63 1435.87 1536.63 Q1431.13 1536.63 1428.4 1539.65 Q1425.66 1542.68 1425.66 1547.9 L1425.66 1568.04 L1419.77 1568.04 L1419.77 1518.52 L1425.66 1518.52 L1425.66 1537.93 Q1427.76 1534.72 1430.59 1533.13 Q1433.46 1531.54 1437.18 1531.54 Q1443.32 1531.54 1446.47 1535.36 Q1449.62 1539.14 1449.62 1546.53 Z" fill="#000000" fill-rule="evenodd" fill-opacity="1" /><polyline clip-path="url(#clip932)" style="stroke:#000000; stroke-width:2; stroke-opacity:0.1; fill:none" points="
  211.116,1389.92 2352.76,1389.92 
  "/>
<polyline clip-path="url(#clip932)" style="stroke:#000000; stroke-width:2; stroke-opacity:0.1; fill:none" points="
  211.116,1134.01 2352.76,1134.01 
  "/>
<polyline clip-path="url(#clip932)" style="stroke:#000000; stroke-width:2; stroke-opacity:0.1; fill:none" points="
  211.116,878.093 2352.76,878.093 
  "/>
<polyline clip-path="url(#clip932)" style="stroke:#000000; stroke-width:2; stroke-opacity:0.1; fill:none" points="
  211.116,622.179 2352.76,622.179 
  "/>
<polyline clip-path="url(#clip932)" style="stroke:#000000; stroke-width:2; stroke-opacity:0.1; fill:none" points="
  211.116,366.265 2352.76,366.265 
  "/>
<polyline clip-path="url(#clip932)" style="stroke:#000000; stroke-width:2; stroke-opacity:0.1; fill:none" points="
  211.116,110.35 2352.76,110.35 
  "/>
<polyline clip-path="url(#clip930)" style="stroke:#000000; stroke-width:4; stroke-opacity:1; fill:none" points="
  211.116,1423.18 211.116,47.2441 
  "/>
<polyline clip-path="url(#clip930)" style="stroke:#000000; stroke-width:4; stroke-opacity:1; fill:none" points="
  211.116,1389.92 236.816,1389.92 
  "/>
<polyline clip-path="url(#clip930)" style="stroke:#000000; stroke-width:4; stroke-opacity:1; fill:none" points="
  211.116,1134.01 236.816,1134.01 
  "/>
<polyline clip-path="url(#clip930)" style="stroke:#000000; stroke-width:4; stroke-opacity:1; fill:none" points="
  211.116,878.093 236.816,878.093 
  "/>
<polyline clip-path="url(#clip930)" style="stroke:#000000; stroke-width:4; stroke-opacity:1; fill:none" points="
  211.116,622.179 236.816,622.179 
  "/>
<polyline clip-path="url(#clip930)" style="stroke:#000000; stroke-width:4; stroke-opacity:1; fill:none" points="
  211.116,366.265 236.816,366.265 
  "/>
<polyline clip-path="url(#clip930)" style="stroke:#000000; stroke-width:4; stroke-opacity:1; fill:none" points="
  211.116,110.35 236.816,110.35 
  "/>
<path clip-path="url(#clip930)" d="M 0 0 M126.205 1375.72 Q122.593 1375.72 120.765 1379.29 Q118.959 1382.83 118.959 1389.96 Q118.959 1397.06 120.765 1400.63 Q122.593 1404.17 126.205 1404.17 Q129.839 1404.17 131.644 1400.63 Q133.473 1397.06 133.473 1389.96 Q133.473 1382.83 131.644 1379.29 Q129.839 1375.72 126.205 1375.72 M126.205 1372.02 Q132.015 1372.02 135.07 1376.62 Q138.149 1381.21 138.149 1389.96 Q138.149 1398.68 135.07 1403.29 Q132.015 1407.87 126.205 1407.87 Q120.394 1407.87 117.316 1403.29 Q114.26 1398.68 114.26 1389.96 Q114.26 1381.21 117.316 1376.62 Q120.394 1372.02 126.205 1372.02 Z" fill="#000000" fill-rule="evenodd" fill-opacity="1" /><path clip-path="url(#clip930)" d="M 0 0 M143.218 1401.32 L148.103 1401.32 L148.103 1407.2 L143.218 1407.2 L143.218 1401.32 Z" fill="#000000" fill-rule="evenodd" fill-opacity="1" /><path clip-path="url(#clip930)" d="M 0 0 M163.172 1375.72 Q159.561 1375.72 157.732 1379.29 Q155.927 1382.83 155.927 1389.96 Q155.927 1397.06 157.732 1400.63 Q159.561 1404.17 163.172 1404.17 Q166.806 1404.17 168.612 1400.63 Q170.44 1397.06 170.44 1389.96 Q170.44 1382.83 168.612 1379.29 Q166.806 1375.72 163.172 1375.72 M163.172 1372.02 Q168.982 1372.02 172.038 1376.62 Q175.116 1381.21 175.116 1389.96 Q175.116 1398.68 172.038 1403.29 Q168.982 1407.87 163.172 1407.87 Q157.362 1407.87 154.283 1403.29 Q151.228 1398.68 151.228 1389.96 Q151.228 1381.21 154.283 1376.62 Q157.362 1372.02 163.172 1372.02 Z" fill="#000000" fill-rule="evenodd" fill-opacity="1" /><path clip-path="url(#clip930)" d="M 0 0 M127.2 1119.81 Q123.589 1119.81 121.76 1123.37 Q119.955 1126.91 119.955 1134.04 Q119.955 1141.15 121.76 1144.71 Q123.589 1148.26 127.2 1148.26 Q130.834 1148.26 132.64 1144.71 Q134.468 1141.15 134.468 1134.04 Q134.468 1126.91 132.64 1123.37 Q130.834 1119.81 127.2 1119.81 M127.2 1116.1 Q133.01 1116.1 136.066 1120.71 Q139.144 1125.29 139.144 1134.04 Q139.144 1142.77 136.066 1147.38 Q133.01 1151.96 127.2 1151.96 Q121.39 1151.96 118.311 1147.38 Q115.256 1142.77 115.256 1134.04 Q115.256 1125.29 118.311 1120.71 Q121.39 1116.1 127.2 1116.1 Z" fill="#000000" fill-rule="evenodd" fill-opacity="1" /><path clip-path="url(#clip930)" d="M 0 0 M144.214 1145.41 L149.098 1145.41 L149.098 1151.29 L144.214 1151.29 L144.214 1145.41 Z" fill="#000000" fill-rule="evenodd" fill-opacity="1" /><path clip-path="url(#clip930)" d="M 0 0 M154.214 1116.73 L172.57 1116.73 L172.57 1120.66 L158.496 1120.66 L158.496 1129.13 Q159.515 1128.79 160.533 1128.63 Q161.552 1128.44 162.57 1128.44 Q168.357 1128.44 171.737 1131.61 Q175.116 1134.78 175.116 1140.2 Q175.116 1145.78 171.644 1148.88 Q168.172 1151.96 161.852 1151.96 Q159.677 1151.96 157.408 1151.59 Q155.163 1151.22 152.755 1150.48 L152.755 1145.78 Q154.839 1146.91 157.061 1147.47 Q159.283 1148.02 161.76 1148.02 Q165.765 1148.02 168.102 1145.92 Q170.44 1143.81 170.44 1140.2 Q170.44 1136.59 168.102 1134.48 Q165.765 1132.38 161.76 1132.38 Q159.885 1132.38 158.01 1132.79 Q156.158 1133.21 154.214 1134.09 L154.214 1116.73 Z" fill="#000000" fill-rule="evenodd" fill-opacity="1" /><path clip-path="url(#clip930)" d="M 0 0 M118.242 891.438 L125.88 891.438 L125.88 865.072 L117.57 866.739 L117.57 862.48 L125.834 860.813 L130.51 860.813 L130.51 891.438 L138.149 891.438 L138.149 895.373 L118.242 895.373 L118.242 891.438 Z" fill="#000000" fill-rule="evenodd" fill-opacity="1" /><path clip-path="url(#clip930)" d="M 0 0 M143.218 889.494 L148.103 889.494 L148.103 895.373 L143.218 895.373 L143.218 889.494 Z" fill="#000000" fill-rule="evenodd" fill-opacity="1" /><path clip-path="url(#clip930)" d="M 0 0 M163.172 863.892 Q159.561 863.892 157.732 867.457 Q155.927 870.998 155.927 878.128 Q155.927 885.234 157.732 888.799 Q159.561 892.341 163.172 892.341 Q166.806 892.341 168.612 888.799 Q170.44 885.234 170.44 878.128 Q170.44 870.998 168.612 867.457 Q166.806 863.892 163.172 863.892 M163.172 860.188 Q168.982 860.188 172.038 864.795 Q175.116 869.378 175.116 878.128 Q175.116 886.855 172.038 891.461 Q168.982 896.044 163.172 896.044 Q157.362 896.044 154.283 891.461 Q151.228 886.855 151.228 878.128 Q151.228 869.378 154.283 864.795 Q157.362 860.188 163.172 860.188 Z" fill="#000000" fill-rule="evenodd" fill-opacity="1" /><path clip-path="url(#clip930)" d="M 0 0 M119.237 635.524 L126.876 635.524 L126.876 609.158 L118.566 610.825 L118.566 606.566 L126.83 604.899 L131.505 604.899 L131.505 635.524 L139.144 635.524 L139.144 639.459 L119.237 639.459 L119.237 635.524 Z" fill="#000000" fill-rule="evenodd" fill-opacity="1" /><path clip-path="url(#clip930)" d="M 0 0 M144.214 633.579 L149.098 633.579 L149.098 639.459 L144.214 639.459 L144.214 633.579 Z" fill="#000000" fill-rule="evenodd" fill-opacity="1" /><path clip-path="url(#clip930)" d="M 0 0 M154.214 604.899 L172.57 604.899 L172.57 608.834 L158.496 608.834 L158.496 617.306 Q159.515 616.959 160.533 616.797 Q161.552 616.612 162.57 616.612 Q168.357 616.612 171.737 619.783 Q175.116 622.954 175.116 628.371 Q175.116 633.95 171.644 637.052 Q168.172 640.13 161.852 640.13 Q159.677 640.13 157.408 639.76 Q155.163 639.389 152.755 638.649 L152.755 633.95 Q154.839 635.084 157.061 635.639 Q159.283 636.195 161.76 636.195 Q165.765 636.195 168.102 634.089 Q170.44 631.982 170.44 628.371 Q170.44 624.76 168.102 622.653 Q165.765 620.547 161.76 620.547 Q159.885 620.547 158.01 620.964 Q156.158 621.38 154.214 622.26 L154.214 604.899 Z" fill="#000000" fill-rule="evenodd" fill-opacity="1" /><path clip-path="url(#clip930)" d="M 0 0 M121.83 379.609 L138.149 379.609 L138.149 383.545 L116.205 383.545 L116.205 379.609 Q118.867 376.855 123.45 372.225 Q128.056 367.572 129.237 366.23 Q131.482 363.707 132.362 361.971 Q133.265 360.211 133.265 358.522 Q133.265 355.767 131.32 354.031 Q129.399 352.295 126.297 352.295 Q124.098 352.295 121.644 353.059 Q119.214 353.823 116.436 355.373 L116.436 350.651 Q119.26 349.517 121.714 348.938 Q124.168 348.36 126.205 348.36 Q131.575 348.36 134.769 351.045 Q137.964 353.73 137.964 358.221 Q137.964 360.35 137.154 362.272 Q136.367 364.17 134.26 366.762 Q133.681 367.434 130.58 370.651 Q127.478 373.846 121.83 379.609 Z" fill="#000000" fill-rule="evenodd" fill-opacity="1" /><path clip-path="url(#clip930)" d="M 0 0 M143.218 377.665 L148.103 377.665 L148.103 383.545 L143.218 383.545 L143.218 377.665 Z" fill="#000000" fill-rule="evenodd" fill-opacity="1" /><path clip-path="url(#clip930)" d="M 0 0 M163.172 352.063 Q159.561 352.063 157.732 355.628 Q155.927 359.17 155.927 366.299 Q155.927 373.406 157.732 376.971 Q159.561 380.512 163.172 380.512 Q166.806 380.512 168.612 376.971 Q170.44 373.406 170.44 366.299 Q170.44 359.17 168.612 355.628 Q166.806 352.063 163.172 352.063 M163.172 348.36 Q168.982 348.36 172.038 352.966 Q175.116 357.549 175.116 366.299 Q175.116 375.026 172.038 379.633 Q168.982 384.216 163.172 384.216 Q157.362 384.216 154.283 379.633 Q151.228 375.026 151.228 366.299 Q151.228 357.549 154.283 352.966 Q157.362 348.36 163.172 348.36 Z" fill="#000000" fill-rule="evenodd" fill-opacity="1" /><path clip-path="url(#clip930)" d="M 0 0 M122.825 123.695 L139.144 123.695 L139.144 127.63 L117.2 127.63 L117.2 123.695 Q119.862 120.941 124.445 116.311 Q129.052 111.658 130.232 110.316 Q132.478 107.792 133.357 106.056 Q134.26 104.297 134.26 102.607 Q134.26 99.8527 132.316 98.1166 Q130.394 96.3805 127.292 96.3805 Q125.093 96.3805 122.64 97.1444 Q120.209 97.9083 117.431 99.4592 L117.431 94.737 Q120.255 93.6027 122.709 93.024 Q125.163 92.4453 127.2 92.4453 Q132.57 92.4453 135.765 95.1305 Q138.959 97.8157 138.959 102.306 Q138.959 104.436 138.149 106.357 Q137.362 108.255 135.255 110.848 Q134.677 111.519 131.575 114.737 Q128.473 117.931 122.825 123.695 Z" fill="#000000" fill-rule="evenodd" fill-opacity="1" /><path clip-path="url(#clip930)" d="M 0 0 M144.214 121.751 L149.098 121.751 L149.098 127.63 L144.214 127.63 L144.214 121.751 Z" fill="#000000" fill-rule="evenodd" fill-opacity="1" /><path clip-path="url(#clip930)" d="M 0 0 M154.214 93.0703 L172.57 93.0703 L172.57 97.0055 L158.496 97.0055 L158.496 105.478 Q159.515 105.13 160.533 104.968 Q161.552 104.783 162.57 104.783 Q168.357 104.783 171.737 107.955 Q175.116 111.126 175.116 116.542 Q175.116 122.121 171.644 125.223 Q168.172 128.302 161.852 128.302 Q159.677 128.302 157.408 127.931 Q155.163 127.561 152.755 126.82 L152.755 122.121 Q154.839 123.255 157.061 123.811 Q159.283 124.366 161.76 124.366 Q165.765 124.366 168.102 122.26 Q170.44 120.154 170.44 116.542 Q170.44 112.931 168.102 110.825 Q165.765 108.718 161.76 108.718 Q159.885 108.718 158.01 109.135 Q156.158 109.552 154.214 110.431 L154.214 93.0703 Z" fill="#000000" fill-rule="evenodd" fill-opacity="1" /><path clip-path="url(#clip930)" d="M 0 0 M21.7677 885.554 L39.6235 885.554 L39.6235 877.47 Q39.6235 872.982 37.3 870.531 Q34.9765 868.08 30.6797 868.08 Q26.4147 868.08 24.0912 870.531 Q21.7677 872.982 21.7677 877.47 L21.7677 885.554 M16.4842 891.983 L16.4842 877.47 Q16.4842 869.481 20.1126 865.407 Q23.7092 861.301 30.6797 861.301 Q37.7138 861.301 41.3104 865.407 Q44.907 869.481 44.907 877.47 L44.907 885.554 L64.0042 885.554 L64.0042 891.983 L16.4842 891.983 Z" fill="#000000" fill-rule="evenodd" fill-opacity="1" /><path clip-path="url(#clip930)" d="M 0 0 M44.7161 826.99 L47.5806 826.99 L47.5806 853.916 Q53.6281 853.535 56.8109 850.288 Q59.9619 847.01 59.9619 841.185 Q59.9619 837.811 59.1344 834.66 Q58.3069 831.477 56.6518 828.358 L62.1899 828.358 Q63.5267 831.509 64.227 834.819 Q64.9272 838.13 64.9272 841.535 Q64.9272 850.065 59.9619 855.062 Q54.9967 860.028 46.5303 860.028 Q37.7774 860.028 32.6531 855.317 Q27.4968 850.574 27.4968 842.554 Q27.4968 835.36 32.1438 831.191 Q36.7589 826.99 44.7161 826.99 M42.9973 832.846 Q38.1912 832.91 35.3266 835.551 Q32.4621 838.161 32.4621 842.49 Q32.4621 847.392 35.2312 850.352 Q38.0002 853.28 43.0292 853.726 L42.9973 832.846 Z" fill="#000000" fill-rule="evenodd" fill-opacity="1" /><path clip-path="url(#clip930)" d="M 0 0 M18.2347 815.054 L28.3562 815.054 L28.3562 802.991 L32.9077 802.991 L32.9077 815.054 L52.2594 815.054 Q56.6199 815.054 57.8613 813.876 Q59.1026 812.667 59.1026 809.006 L59.1026 802.991 L64.0042 802.991 L64.0042 809.006 Q64.0042 815.786 61.4897 818.364 Q58.9434 820.942 52.2594 820.942 L32.9077 820.942 L32.9077 825.239 L28.3562 825.239 L28.3562 820.942 L18.2347 820.942 L18.2347 815.054 Z" fill="#000000" fill-rule="evenodd" fill-opacity="1" /><path clip-path="url(#clip930)" d="M 0 0 M46.0847 780.647 Q46.0847 787.745 47.7079 790.482 Q49.3312 793.219 53.2461 793.219 Q56.3653 793.219 58.2114 791.182 Q60.0256 789.114 60.0256 785.581 Q60.0256 780.711 56.5881 777.783 Q53.1188 774.823 47.3897 774.823 L46.0847 774.823 L46.0847 780.647 M43.6657 768.966 L64.0042 768.966 L64.0042 774.823 L58.5933 774.823 Q61.8398 776.828 63.3994 779.82 Q64.9272 782.812 64.9272 787.14 Q64.9272 792.615 61.8716 795.861 Q58.7843 799.076 53.6281 799.076 Q47.6125 799.076 44.5569 795.066 Q41.5014 791.023 41.5014 783.034 L41.5014 774.823 L40.9285 774.823 Q36.8862 774.823 34.6901 777.496 Q32.4621 780.138 32.4621 784.944 Q32.4621 788 33.1941 790.896 Q33.9262 793.792 35.3903 796.466 L29.9795 796.466 Q28.7381 793.251 28.1334 790.228 Q27.4968 787.204 27.4968 784.339 Q27.4968 776.605 31.5072 772.786 Q35.5176 768.966 43.6657 768.966 Z" fill="#000000" fill-rule="evenodd" fill-opacity="1" /><path clip-path="url(#clip930)" d="M 0 0 M14.479 762.823 L14.479 756.967 L64.0042 756.967 L64.0042 762.823 L14.479 762.823 Z" fill="#000000" fill-rule="evenodd" fill-opacity="1" /><path clip-path="url(#clip930)" d="M 0 0 M28.3562 733.509 L28.3562 727.653 L56.1743 720.332 L28.3562 713.043 L28.3562 706.137 L56.1743 698.816 L28.3562 691.527 L28.3562 685.671 L64.0042 694.997 L64.0042 701.903 L34.7856 709.574 L64.0042 717.277 L64.0042 724.183 L28.3562 733.509 Z" fill="#000000" fill-rule="evenodd" fill-opacity="1" /><path clip-path="url(#clip930)" d="M 0 0 M28.3562 679.528 L28.3562 673.671 L64.0042 673.671 L64.0042 679.528 L28.3562 679.528 M14.479 679.528 L14.479 673.671 L21.895 673.671 L21.895 679.528 L14.479 679.528 Z" fill="#000000" fill-rule="evenodd" fill-opacity="1" /><path clip-path="url(#clip930)" d="M 0 0 M33.7671 644.071 L14.479 644.071 L14.479 638.215 L64.0042 638.215 L64.0042 644.071 L58.657 644.071 Q61.8398 645.917 63.3994 648.75 Q64.9272 651.551 64.9272 655.497 Q64.9272 661.959 59.771 666.033 Q54.6147 670.075 46.212 670.075 Q37.8093 670.075 32.6531 666.033 Q27.4968 661.959 27.4968 655.497 Q27.4968 651.551 29.0564 648.75 Q30.5842 645.917 33.7671 644.071 M46.212 664.027 Q52.6732 664.027 56.3653 661.386 Q60.0256 658.712 60.0256 654.065 Q60.0256 649.418 56.3653 646.745 Q52.6732 644.071 46.212 644.071 Q39.7508 644.071 36.0905 646.745 Q32.3984 649.418 32.3984 654.065 Q32.3984 658.712 36.0905 661.386 Q39.7508 664.027 46.212 664.027 Z" fill="#000000" fill-rule="evenodd" fill-opacity="1" /><path clip-path="url(#clip930)" d="M 0 0 M18.2347 626.279 L28.3562 626.279 L28.3562 614.216 L32.9077 614.216 L32.9077 626.279 L52.2594 626.279 Q56.6199 626.279 57.8613 625.101 Q59.1026 623.892 59.1026 620.231 L59.1026 614.216 L64.0042 614.216 L64.0042 620.231 Q64.0042 627.011 61.4897 629.589 Q58.9434 632.167 52.2594 632.167 L32.9077 632.167 L32.9077 636.464 L28.3562 636.464 L28.3562 632.167 L18.2347 632.167 L18.2347 626.279 Z" fill="#000000" fill-rule="evenodd" fill-opacity="1" /><path clip-path="url(#clip930)" d="M 0 0 M42.4881 578.441 L64.0042 578.441 L64.0042 584.297 L42.679 584.297 Q37.6183 584.297 35.1038 586.27 Q32.5894 588.244 32.5894 592.19 Q32.5894 596.933 35.6131 599.67 Q38.6368 602.407 43.8567 602.407 L64.0042 602.407 L64.0042 608.296 L14.479 608.296 L14.479 602.407 L33.8944 602.407 Q30.6797 600.307 29.0883 597.474 Q27.4968 594.609 27.4968 590.885 Q27.4968 584.743 31.3163 581.592 Q35.1038 578.441 42.4881 578.441 Z" fill="#000000" fill-rule="evenodd" fill-opacity="1" /><circle clip-path="url(#clip932)" cx="437.337" cy="1287.56" r="14" fill="#009af9" fill-rule="evenodd" fill-opacity="1" stroke="#000000" stroke-opacity="1" stroke-width="3.2"/>
<circle clip-path="url(#clip932)" cx="437.337" cy="1287.56" r="14" fill="#009af9" fill-rule="evenodd" fill-opacity="1" stroke="#000000" stroke-opacity="1" stroke-width="3.2"/>
<circle clip-path="url(#clip932)" cx="404.215" cy="1287.56" r="14" fill="#009af9" fill-rule="evenodd" fill-opacity="1" stroke="#000000" stroke-opacity="1" stroke-width="3.2"/>
<circle clip-path="url(#clip932)" cx="470.458" cy="1287.56" r="14" fill="#009af9" fill-rule="evenodd" fill-opacity="1" stroke="#000000" stroke-opacity="1" stroke-width="3.2"/>
<circle clip-path="url(#clip932)" cx="437.337" cy="1287.56" r="14" fill="#009af9" fill-rule="evenodd" fill-opacity="1" stroke="#000000" stroke-opacity="1" stroke-width="3.2"/>
<circle clip-path="url(#clip932)" cx="536.701" cy="1185.19" r="14" fill="#009af9" fill-rule="evenodd" fill-opacity="1" stroke="#000000" stroke-opacity="1" stroke-width="3.2"/>
<circle clip-path="url(#clip932)" cx="437.337" cy="1236.37" r="14" fill="#009af9" fill-rule="evenodd" fill-opacity="1" stroke="#000000" stroke-opacity="1" stroke-width="3.2"/>
<circle clip-path="url(#clip932)" cx="470.458" cy="1287.56" r="14" fill="#009af9" fill-rule="evenodd" fill-opacity="1" stroke="#000000" stroke-opacity="1" stroke-width="3.2"/>
<circle clip-path="url(#clip932)" cx="437.337" cy="1287.56" r="14" fill="#009af9" fill-rule="evenodd" fill-opacity="1" stroke="#000000" stroke-opacity="1" stroke-width="3.2"/>
<circle clip-path="url(#clip932)" cx="470.458" cy="1338.74" r="14" fill="#009af9" fill-rule="evenodd" fill-opacity="1" stroke="#000000" stroke-opacity="1" stroke-width="3.2"/>
<circle clip-path="url(#clip932)" cx="470.458" cy="1287.56" r="14" fill="#009af9" fill-rule="evenodd" fill-opacity="1" stroke="#000000" stroke-opacity="1" stroke-width="3.2"/>
<circle clip-path="url(#clip932)" cx="503.58" cy="1287.56" r="14" fill="#009af9" fill-rule="evenodd" fill-opacity="1" stroke="#000000" stroke-opacity="1" stroke-width="3.2"/>
<circle clip-path="url(#clip932)" cx="437.337" cy="1338.74" r="14" fill="#009af9" fill-rule="evenodd" fill-opacity="1" stroke="#000000" stroke-opacity="1" stroke-width="3.2"/>
<circle clip-path="url(#clip932)" cx="337.972" cy="1338.74" r="14" fill="#009af9" fill-rule="evenodd" fill-opacity="1" stroke="#000000" stroke-opacity="1" stroke-width="3.2"/>
<circle clip-path="url(#clip932)" cx="371.093" cy="1287.56" r="14" fill="#009af9" fill-rule="evenodd" fill-opacity="1" stroke="#000000" stroke-opacity="1" stroke-width="3.2"/>
<circle clip-path="url(#clip932)" cx="470.458" cy="1185.19" r="14" fill="#009af9" fill-rule="evenodd" fill-opacity="1" stroke="#000000" stroke-opacity="1" stroke-width="3.2"/>
<circle clip-path="url(#clip932)" cx="404.215" cy="1185.19" r="14" fill="#009af9" fill-rule="evenodd" fill-opacity="1" stroke="#000000" stroke-opacity="1" stroke-width="3.2"/>
<circle clip-path="url(#clip932)" cx="437.337" cy="1236.37" r="14" fill="#009af9" fill-rule="evenodd" fill-opacity="1" stroke="#000000" stroke-opacity="1" stroke-width="3.2"/>
<circle clip-path="url(#clip932)" cx="536.701" cy="1236.37" r="14" fill="#009af9" fill-rule="evenodd" fill-opacity="1" stroke="#000000" stroke-opacity="1" stroke-width="3.2"/>
<circle clip-path="url(#clip932)" cx="470.458" cy="1236.37" r="14" fill="#009af9" fill-rule="evenodd" fill-opacity="1" stroke="#000000" stroke-opacity="1" stroke-width="3.2"/>
<circle clip-path="url(#clip932)" cx="536.701" cy="1287.56" r="14" fill="#009af9" fill-rule="evenodd" fill-opacity="1" stroke="#000000" stroke-opacity="1" stroke-width="3.2"/>
<circle clip-path="url(#clip932)" cx="470.458" cy="1185.19" r="14" fill="#009af9" fill-rule="evenodd" fill-opacity="1" stroke="#000000" stroke-opacity="1" stroke-width="3.2"/>
<circle clip-path="url(#clip932)" cx="304.85" cy="1287.56" r="14" fill="#009af9" fill-rule="evenodd" fill-opacity="1" stroke="#000000" stroke-opacity="1" stroke-width="3.2"/>
<circle clip-path="url(#clip932)" cx="536.701" cy="1134.01" r="14" fill="#009af9" fill-rule="evenodd" fill-opacity="1" stroke="#000000" stroke-opacity="1" stroke-width="3.2"/>
<circle clip-path="url(#clip932)" cx="602.944" cy="1287.56" r="14" fill="#009af9" fill-rule="evenodd" fill-opacity="1" stroke="#000000" stroke-opacity="1" stroke-width="3.2"/>
<circle clip-path="url(#clip932)" cx="503.58" cy="1287.56" r="14" fill="#009af9" fill-rule="evenodd" fill-opacity="1" stroke="#000000" stroke-opacity="1" stroke-width="3.2"/>
<circle clip-path="url(#clip932)" cx="503.58" cy="1185.19" r="14" fill="#009af9" fill-rule="evenodd" fill-opacity="1" stroke="#000000" stroke-opacity="1" stroke-width="3.2"/>
<circle clip-path="url(#clip932)" cx="470.458" cy="1287.56" r="14" fill="#009af9" fill-rule="evenodd" fill-opacity="1" stroke="#000000" stroke-opacity="1" stroke-width="3.2"/>
<circle clip-path="url(#clip932)" cx="437.337" cy="1287.56" r="14" fill="#009af9" fill-rule="evenodd" fill-opacity="1" stroke="#000000" stroke-opacity="1" stroke-width="3.2"/>
<circle clip-path="url(#clip932)" cx="503.58" cy="1287.56" r="14" fill="#009af9" fill-rule="evenodd" fill-opacity="1" stroke="#000000" stroke-opacity="1" stroke-width="3.2"/>
<circle clip-path="url(#clip932)" cx="503.58" cy="1287.56" r="14" fill="#009af9" fill-rule="evenodd" fill-opacity="1" stroke="#000000" stroke-opacity="1" stroke-width="3.2"/>
<circle clip-path="url(#clip932)" cx="470.458" cy="1185.19" r="14" fill="#009af9" fill-rule="evenodd" fill-opacity="1" stroke="#000000" stroke-opacity="1" stroke-width="3.2"/>
<circle clip-path="url(#clip932)" cx="470.458" cy="1338.74" r="14" fill="#009af9" fill-rule="evenodd" fill-opacity="1" stroke="#000000" stroke-opacity="1" stroke-width="3.2"/>
<circle clip-path="url(#clip932)" cx="437.337" cy="1287.56" r="14" fill="#009af9" fill-rule="evenodd" fill-opacity="1" stroke="#000000" stroke-opacity="1" stroke-width="3.2"/>
<circle clip-path="url(#clip932)" cx="470.458" cy="1287.56" r="14" fill="#009af9" fill-rule="evenodd" fill-opacity="1" stroke="#000000" stroke-opacity="1" stroke-width="3.2"/>
<circle clip-path="url(#clip932)" cx="371.093" cy="1287.56" r="14" fill="#009af9" fill-rule="evenodd" fill-opacity="1" stroke="#000000" stroke-opacity="1" stroke-width="3.2"/>
<circle clip-path="url(#clip932)" cx="404.215" cy="1287.56" r="14" fill="#009af9" fill-rule="evenodd" fill-opacity="1" stroke="#000000" stroke-opacity="1" stroke-width="3.2"/>
<circle clip-path="url(#clip932)" cx="437.337" cy="1338.74" r="14" fill="#009af9" fill-rule="evenodd" fill-opacity="1" stroke="#000000" stroke-opacity="1" stroke-width="3.2"/>
<circle clip-path="url(#clip932)" cx="404.215" cy="1287.56" r="14" fill="#009af9" fill-rule="evenodd" fill-opacity="1" stroke="#000000" stroke-opacity="1" stroke-width="3.2"/>
<circle clip-path="url(#clip932)" cx="470.458" cy="1287.56" r="14" fill="#009af9" fill-rule="evenodd" fill-opacity="1" stroke="#000000" stroke-opacity="1" stroke-width="3.2"/>
<circle clip-path="url(#clip932)" cx="404.215" cy="1236.37" r="14" fill="#009af9" fill-rule="evenodd" fill-opacity="1" stroke="#000000" stroke-opacity="1" stroke-width="3.2"/>
<circle clip-path="url(#clip932)" cx="404.215" cy="1236.37" r="14" fill="#009af9" fill-rule="evenodd" fill-opacity="1" stroke="#000000" stroke-opacity="1" stroke-width="3.2"/>
<circle clip-path="url(#clip932)" cx="404.215" cy="1287.56" r="14" fill="#009af9" fill-rule="evenodd" fill-opacity="1" stroke="#000000" stroke-opacity="1" stroke-width="3.2"/>
<circle clip-path="url(#clip932)" cx="503.58" cy="1082.82" r="14" fill="#009af9" fill-rule="evenodd" fill-opacity="1" stroke="#000000" stroke-opacity="1" stroke-width="3.2"/>
<circle clip-path="url(#clip932)" cx="602.944" cy="1185.19" r="14" fill="#009af9" fill-rule="evenodd" fill-opacity="1" stroke="#000000" stroke-opacity="1" stroke-width="3.2"/>
<circle clip-path="url(#clip932)" cx="437.337" cy="1236.37" r="14" fill="#009af9" fill-rule="evenodd" fill-opacity="1" stroke="#000000" stroke-opacity="1" stroke-width="3.2"/>
<circle clip-path="url(#clip932)" cx="503.58" cy="1287.56" r="14" fill="#009af9" fill-rule="evenodd" fill-opacity="1" stroke="#000000" stroke-opacity="1" stroke-width="3.2"/>
<circle clip-path="url(#clip932)" cx="437.337" cy="1287.56" r="14" fill="#009af9" fill-rule="evenodd" fill-opacity="1" stroke="#000000" stroke-opacity="1" stroke-width="3.2"/>
<circle clip-path="url(#clip932)" cx="470.458" cy="1287.56" r="14" fill="#009af9" fill-rule="evenodd" fill-opacity="1" stroke="#000000" stroke-opacity="1" stroke-width="3.2"/>
<circle clip-path="url(#clip932)" cx="437.337" cy="1287.56" r="14" fill="#009af9" fill-rule="evenodd" fill-opacity="1" stroke="#000000" stroke-opacity="1" stroke-width="3.2"/>
<circle clip-path="url(#clip932)" cx="1530.35" cy="673.362" r="14" fill="#009af9" fill-rule="evenodd" fill-opacity="1" stroke="#000000" stroke-opacity="1" stroke-width="3.2"/>
<circle clip-path="url(#clip932)" cx="1464.1" cy="622.179" r="14" fill="#009af9" fill-rule="evenodd" fill-opacity="1" stroke="#000000" stroke-opacity="1" stroke-width="3.2"/>
<circle clip-path="url(#clip932)" cx="1596.59" cy="622.179" r="14" fill="#009af9" fill-rule="evenodd" fill-opacity="1" stroke="#000000" stroke-opacity="1" stroke-width="3.2"/>
<circle clip-path="url(#clip932)" cx="1298.5" cy="724.545" r="14" fill="#009af9" fill-rule="evenodd" fill-opacity="1" stroke="#000000" stroke-opacity="1" stroke-width="3.2"/>
<circle clip-path="url(#clip932)" cx="1497.23" cy="622.179" r="14" fill="#009af9" fill-rule="evenodd" fill-opacity="1" stroke="#000000" stroke-opacity="1" stroke-width="3.2"/>
<circle clip-path="url(#clip932)" cx="1464.1" cy="724.545" r="14" fill="#009af9" fill-rule="evenodd" fill-opacity="1" stroke="#000000" stroke-opacity="1" stroke-width="3.2"/>
<circle clip-path="url(#clip932)" cx="1530.35" cy="570.996" r="14" fill="#009af9" fill-rule="evenodd" fill-opacity="1" stroke="#000000" stroke-opacity="1" stroke-width="3.2"/>
<circle clip-path="url(#clip932)" cx="1066.65" cy="878.093" r="14" fill="#009af9" fill-rule="evenodd" fill-opacity="1" stroke="#000000" stroke-opacity="1" stroke-width="3.2"/>
<circle clip-path="url(#clip932)" cx="1497.23" cy="724.545" r="14" fill="#009af9" fill-rule="evenodd" fill-opacity="1" stroke="#000000" stroke-opacity="1" stroke-width="3.2"/>
<circle clip-path="url(#clip932)" cx="1265.38" cy="673.362" r="14" fill="#009af9" fill-rule="evenodd" fill-opacity="1" stroke="#000000" stroke-opacity="1" stroke-width="3.2"/>
<circle clip-path="url(#clip932)" cx="1132.89" cy="878.093" r="14" fill="#009af9" fill-rule="evenodd" fill-opacity="1" stroke="#000000" stroke-opacity="1" stroke-width="3.2"/>
<circle clip-path="url(#clip932)" cx="1364.74" cy="622.179" r="14" fill="#009af9" fill-rule="evenodd" fill-opacity="1" stroke="#000000" stroke-opacity="1" stroke-width="3.2"/>
<circle clip-path="url(#clip932)" cx="1298.5" cy="878.093" r="14" fill="#009af9" fill-rule="evenodd" fill-opacity="1" stroke="#000000" stroke-opacity="1" stroke-width="3.2"/>
<circle clip-path="url(#clip932)" cx="1530.35" cy="673.362" r="14" fill="#009af9" fill-rule="evenodd" fill-opacity="1" stroke="#000000" stroke-opacity="1" stroke-width="3.2"/>
<circle clip-path="url(#clip932)" cx="1166.01" cy="724.545" r="14" fill="#009af9" fill-rule="evenodd" fill-opacity="1" stroke="#000000" stroke-opacity="1" stroke-width="3.2"/>
<circle clip-path="url(#clip932)" cx="1430.98" cy="673.362" r="14" fill="#009af9" fill-rule="evenodd" fill-opacity="1" stroke="#000000" stroke-opacity="1" stroke-width="3.2"/>
<circle clip-path="url(#clip932)" cx="1464.1" cy="622.179" r="14" fill="#009af9" fill-rule="evenodd" fill-opacity="1" stroke="#000000" stroke-opacity="1" stroke-width="3.2"/>
<circle clip-path="url(#clip932)" cx="1331.62" cy="878.093" r="14" fill="#009af9" fill-rule="evenodd" fill-opacity="1" stroke="#000000" stroke-opacity="1" stroke-width="3.2"/>
<circle clip-path="url(#clip932)" cx="1464.1" cy="622.179" r="14" fill="#009af9" fill-rule="evenodd" fill-opacity="1" stroke="#000000" stroke-opacity="1" stroke-width="3.2"/>
<circle clip-path="url(#clip932)" cx="1265.38" cy="826.91" r="14" fill="#009af9" fill-rule="evenodd" fill-opacity="1" stroke="#000000" stroke-opacity="1" stroke-width="3.2"/>
<circle clip-path="url(#clip932)" cx="1563.47" cy="468.63" r="14" fill="#009af9" fill-rule="evenodd" fill-opacity="1" stroke="#000000" stroke-opacity="1" stroke-width="3.2"/>
<circle clip-path="url(#clip932)" cx="1298.5" cy="724.545" r="14" fill="#009af9" fill-rule="evenodd" fill-opacity="1" stroke="#000000" stroke-opacity="1" stroke-width="3.2"/>
<circle clip-path="url(#clip932)" cx="1596.59" cy="622.179" r="14" fill="#009af9" fill-rule="evenodd" fill-opacity="1" stroke="#000000" stroke-opacity="1" stroke-width="3.2"/>
<circle clip-path="url(#clip932)" cx="1530.35" cy="775.727" r="14" fill="#009af9" fill-rule="evenodd" fill-opacity="1" stroke="#000000" stroke-opacity="1" stroke-width="3.2"/>
<circle clip-path="url(#clip932)" cx="1397.86" cy="724.545" r="14" fill="#009af9" fill-rule="evenodd" fill-opacity="1" stroke="#000000" stroke-opacity="1" stroke-width="3.2"/>
<circle clip-path="url(#clip932)" cx="1430.98" cy="673.362" r="14" fill="#009af9" fill-rule="evenodd" fill-opacity="1" stroke="#000000" stroke-opacity="1" stroke-width="3.2"/>
<circle clip-path="url(#clip932)" cx="1563.47" cy="673.362" r="14" fill="#009af9" fill-rule="evenodd" fill-opacity="1" stroke="#000000" stroke-opacity="1" stroke-width="3.2"/>
<circle clip-path="url(#clip932)" cx="1629.71" cy="519.813" r="14" fill="#009af9" fill-rule="evenodd" fill-opacity="1" stroke="#000000" stroke-opacity="1" stroke-width="3.2"/>
<circle clip-path="url(#clip932)" cx="1464.1" cy="622.179" r="14" fill="#009af9" fill-rule="evenodd" fill-opacity="1" stroke="#000000" stroke-opacity="1" stroke-width="3.2"/>
<circle clip-path="url(#clip932)" cx="1132.89" cy="878.093" r="14" fill="#009af9" fill-rule="evenodd" fill-opacity="1" stroke="#000000" stroke-opacity="1" stroke-width="3.2"/>
<circle clip-path="url(#clip932)" cx="1232.25" cy="826.91" r="14" fill="#009af9" fill-rule="evenodd" fill-opacity="1" stroke="#000000" stroke-opacity="1" stroke-width="3.2"/>
<circle clip-path="url(#clip932)" cx="1199.13" cy="878.093" r="14" fill="#009af9" fill-rule="evenodd" fill-opacity="1" stroke="#000000" stroke-opacity="1" stroke-width="3.2"/>
<circle clip-path="url(#clip932)" cx="1265.38" cy="775.727" r="14" fill="#009af9" fill-rule="evenodd" fill-opacity="1" stroke="#000000" stroke-opacity="1" stroke-width="3.2"/>
<circle clip-path="url(#clip932)" cx="1662.83" cy="570.996" r="14" fill="#009af9" fill-rule="evenodd" fill-opacity="1" stroke="#000000" stroke-opacity="1" stroke-width="3.2"/>
<circle clip-path="url(#clip932)" cx="1464.1" cy="622.179" r="14" fill="#009af9" fill-rule="evenodd" fill-opacity="1" stroke="#000000" stroke-opacity="1" stroke-width="3.2"/>
<circle clip-path="url(#clip932)" cx="1464.1" cy="570.996" r="14" fill="#009af9" fill-rule="evenodd" fill-opacity="1" stroke="#000000" stroke-opacity="1" stroke-width="3.2"/>
<circle clip-path="url(#clip932)" cx="1530.35" cy="622.179" r="14" fill="#009af9" fill-rule="evenodd" fill-opacity="1" stroke="#000000" stroke-opacity="1" stroke-width="3.2"/>
<circle clip-path="url(#clip932)" cx="1430.98" cy="724.545" r="14" fill="#009af9" fill-rule="evenodd" fill-opacity="1" stroke="#000000" stroke-opacity="1" stroke-width="3.2"/>
<circle clip-path="url(#clip932)" cx="1331.62" cy="724.545" r="14" fill="#009af9" fill-rule="evenodd" fill-opacity="1" stroke="#000000" stroke-opacity="1" stroke-width="3.2"/>
<circle clip-path="url(#clip932)" cx="1298.5" cy="724.545" r="14" fill="#009af9" fill-rule="evenodd" fill-opacity="1" stroke="#000000" stroke-opacity="1" stroke-width="3.2"/>
<circle clip-path="url(#clip932)" cx="1430.98" cy="775.727" r="14" fill="#009af9" fill-rule="evenodd" fill-opacity="1" stroke="#000000" stroke-opacity="1" stroke-width="3.2"/>
<circle clip-path="url(#clip932)" cx="1497.23" cy="673.362" r="14" fill="#009af9" fill-rule="evenodd" fill-opacity="1" stroke="#000000" stroke-opacity="1" stroke-width="3.2"/>
<circle clip-path="url(#clip932)" cx="1298.5" cy="775.727" r="14" fill="#009af9" fill-rule="evenodd" fill-opacity="1" stroke="#000000" stroke-opacity="1" stroke-width="3.2"/>
<circle clip-path="url(#clip932)" cx="1066.65" cy="878.093" r="14" fill="#009af9" fill-rule="evenodd" fill-opacity="1" stroke="#000000" stroke-opacity="1" stroke-width="3.2"/>
<circle clip-path="url(#clip932)" cx="1364.74" cy="724.545" r="14" fill="#009af9" fill-rule="evenodd" fill-opacity="1" stroke="#000000" stroke-opacity="1" stroke-width="3.2"/>
<circle clip-path="url(#clip932)" cx="1364.74" cy="775.727" r="14" fill="#009af9" fill-rule="evenodd" fill-opacity="1" stroke="#000000" stroke-opacity="1" stroke-width="3.2"/>
<circle clip-path="url(#clip932)" cx="1364.74" cy="724.545" r="14" fill="#009af9" fill-rule="evenodd" fill-opacity="1" stroke="#000000" stroke-opacity="1" stroke-width="3.2"/>
<circle clip-path="url(#clip932)" cx="1397.86" cy="724.545" r="14" fill="#009af9" fill-rule="evenodd" fill-opacity="1" stroke="#000000" stroke-opacity="1" stroke-width="3.2"/>
<circle clip-path="url(#clip932)" cx="967.281" cy="826.91" r="14" fill="#009af9" fill-rule="evenodd" fill-opacity="1" stroke="#000000" stroke-opacity="1" stroke-width="3.2"/>
<circle clip-path="url(#clip932)" cx="1331.62" cy="724.545" r="14" fill="#009af9" fill-rule="evenodd" fill-opacity="1" stroke="#000000" stroke-opacity="1" stroke-width="3.2"/>
<circle clip-path="url(#clip932)" cx="1960.93" cy="110.35" r="14" fill="#009af9" fill-rule="evenodd" fill-opacity="1" stroke="#000000" stroke-opacity="1" stroke-width="3.2"/>
<circle clip-path="url(#clip932)" cx="1662.83" cy="417.447" r="14" fill="#009af9" fill-rule="evenodd" fill-opacity="1" stroke="#000000" stroke-opacity="1" stroke-width="3.2"/>
<circle clip-path="url(#clip932)" cx="1927.81" cy="315.082" r="14" fill="#009af9" fill-rule="evenodd" fill-opacity="1" stroke="#000000" stroke-opacity="1" stroke-width="3.2"/>
<circle clip-path="url(#clip932)" cx="1828.44" cy="468.63" r="14" fill="#009af9" fill-rule="evenodd" fill-opacity="1" stroke="#000000" stroke-opacity="1" stroke-width="3.2"/>
<circle clip-path="url(#clip932)" cx="1894.68" cy="263.899" r="14" fill="#009af9" fill-rule="evenodd" fill-opacity="1" stroke="#000000" stroke-opacity="1" stroke-width="3.2"/>
<circle clip-path="url(#clip932)" cx="2159.66" cy="315.082" r="14" fill="#009af9" fill-rule="evenodd" fill-opacity="1" stroke="#000000" stroke-opacity="1" stroke-width="3.2"/>
<circle clip-path="url(#clip932)" cx="1464.1" cy="519.813" r="14" fill="#009af9" fill-rule="evenodd" fill-opacity="1" stroke="#000000" stroke-opacity="1" stroke-width="3.2"/>
<circle clip-path="url(#clip932)" cx="2060.29" cy="468.63" r="14" fill="#009af9" fill-rule="evenodd" fill-opacity="1" stroke="#000000" stroke-opacity="1" stroke-width="3.2"/>
<circle clip-path="url(#clip932)" cx="1894.68" cy="468.63" r="14" fill="#009af9" fill-rule="evenodd" fill-opacity="1" stroke="#000000" stroke-opacity="1" stroke-width="3.2"/>
<circle clip-path="url(#clip932)" cx="1994.05" cy="110.35" r="14" fill="#009af9" fill-rule="evenodd" fill-opacity="1" stroke="#000000" stroke-opacity="1" stroke-width="3.2"/>
<circle clip-path="url(#clip932)" cx="1662.83" cy="366.265" r="14" fill="#009af9" fill-rule="evenodd" fill-opacity="1" stroke="#000000" stroke-opacity="1" stroke-width="3.2"/>
<circle clip-path="url(#clip932)" cx="1729.08" cy="417.447" r="14" fill="#009af9" fill-rule="evenodd" fill-opacity="1" stroke="#000000" stroke-opacity="1" stroke-width="3.2"/>
<circle clip-path="url(#clip932)" cx="1795.32" cy="315.082" r="14" fill="#009af9" fill-rule="evenodd" fill-opacity="1" stroke="#000000" stroke-opacity="1" stroke-width="3.2"/>
<circle clip-path="url(#clip932)" cx="1629.71" cy="366.265" r="14" fill="#009af9" fill-rule="evenodd" fill-opacity="1" stroke="#000000" stroke-opacity="1" stroke-width="3.2"/>
<circle clip-path="url(#clip932)" cx="1662.83" cy="161.533" r="14" fill="#009af9" fill-rule="evenodd" fill-opacity="1" stroke="#000000" stroke-opacity="1" stroke-width="3.2"/>
<circle clip-path="url(#clip932)" cx="1729.08" cy="212.716" r="14" fill="#009af9" fill-rule="evenodd" fill-opacity="1" stroke="#000000" stroke-opacity="1" stroke-width="3.2"/>
<circle clip-path="url(#clip932)" cx="1795.32" cy="468.63" r="14" fill="#009af9" fill-rule="evenodd" fill-opacity="1" stroke="#000000" stroke-opacity="1" stroke-width="3.2"/>
<circle clip-path="url(#clip932)" cx="2192.78" cy="263.899" r="14" fill="#009af9" fill-rule="evenodd" fill-opacity="1" stroke="#000000" stroke-opacity="1" stroke-width="3.2"/>
<circle clip-path="url(#clip932)" cx="2259.02" cy="212.716" r="14" fill="#009af9" fill-rule="evenodd" fill-opacity="1" stroke="#000000" stroke-opacity="1" stroke-width="3.2"/>
<circle clip-path="url(#clip932)" cx="1629.71" cy="622.179" r="14" fill="#009af9" fill-rule="evenodd" fill-opacity="1" stroke="#000000" stroke-opacity="1" stroke-width="3.2"/>
<circle clip-path="url(#clip932)" cx="1861.56" cy="212.716" r="14" fill="#009af9" fill-rule="evenodd" fill-opacity="1" stroke="#000000" stroke-opacity="1" stroke-width="3.2"/>
<circle clip-path="url(#clip932)" cx="1596.59" cy="366.265" r="14" fill="#009af9" fill-rule="evenodd" fill-opacity="1" stroke="#000000" stroke-opacity="1" stroke-width="3.2"/>
<circle clip-path="url(#clip932)" cx="2192.78" cy="366.265" r="14" fill="#009af9" fill-rule="evenodd" fill-opacity="1" stroke="#000000" stroke-opacity="1" stroke-width="3.2"/>
<circle clip-path="url(#clip932)" cx="1596.59" cy="468.63" r="14" fill="#009af9" fill-rule="evenodd" fill-opacity="1" stroke="#000000" stroke-opacity="1" stroke-width="3.2"/>
<circle clip-path="url(#clip932)" cx="1861.56" cy="315.082" r="14" fill="#009af9" fill-rule="evenodd" fill-opacity="1" stroke="#000000" stroke-opacity="1" stroke-width="3.2"/>
<circle clip-path="url(#clip932)" cx="1960.93" cy="468.63" r="14" fill="#009af9" fill-rule="evenodd" fill-opacity="1" stroke="#000000" stroke-opacity="1" stroke-width="3.2"/>
<circle clip-path="url(#clip932)" cx="1563.47" cy="468.63" r="14" fill="#009af9" fill-rule="evenodd" fill-opacity="1" stroke="#000000" stroke-opacity="1" stroke-width="3.2"/>
<circle clip-path="url(#clip932)" cx="1596.59" cy="468.63" r="14" fill="#009af9" fill-rule="evenodd" fill-opacity="1" stroke="#000000" stroke-opacity="1" stroke-width="3.2"/>
<circle clip-path="url(#clip932)" cx="1828.44" cy="315.082" r="14" fill="#009af9" fill-rule="evenodd" fill-opacity="1" stroke="#000000" stroke-opacity="1" stroke-width="3.2"/>
<circle clip-path="url(#clip932)" cx="1894.68" cy="570.996" r="14" fill="#009af9" fill-rule="evenodd" fill-opacity="1" stroke="#000000" stroke-opacity="1" stroke-width="3.2"/>
<circle clip-path="url(#clip932)" cx="1994.05" cy="417.447" r="14" fill="#009af9" fill-rule="evenodd" fill-opacity="1" stroke="#000000" stroke-opacity="1" stroke-width="3.2"/>
<circle clip-path="url(#clip932)" cx="2093.41" cy="366.265" r="14" fill="#009af9" fill-rule="evenodd" fill-opacity="1" stroke="#000000" stroke-opacity="1" stroke-width="3.2"/>
<circle clip-path="url(#clip932)" cx="1828.44" cy="263.899" r="14" fill="#009af9" fill-rule="evenodd" fill-opacity="1" stroke="#000000" stroke-opacity="1" stroke-width="3.2"/>
<circle clip-path="url(#clip932)" cx="1662.83" cy="622.179" r="14" fill="#009af9" fill-rule="evenodd" fill-opacity="1" stroke="#000000" stroke-opacity="1" stroke-width="3.2"/>
<circle clip-path="url(#clip932)" cx="1828.44" cy="673.362" r="14" fill="#009af9" fill-rule="evenodd" fill-opacity="1" stroke="#000000" stroke-opacity="1" stroke-width="3.2"/>
<circle clip-path="url(#clip932)" cx="1994.05" cy="212.716" r="14" fill="#009af9" fill-rule="evenodd" fill-opacity="1" stroke="#000000" stroke-opacity="1" stroke-width="3.2"/>
<circle clip-path="url(#clip932)" cx="1828.44" cy="161.533" r="14" fill="#009af9" fill-rule="evenodd" fill-opacity="1" stroke="#000000" stroke-opacity="1" stroke-width="3.2"/>
<circle clip-path="url(#clip932)" cx="1795.32" cy="468.63" r="14" fill="#009af9" fill-rule="evenodd" fill-opacity="1" stroke="#000000" stroke-opacity="1" stroke-width="3.2"/>
<circle clip-path="url(#clip932)" cx="1563.47" cy="468.63" r="14" fill="#009af9" fill-rule="evenodd" fill-opacity="1" stroke="#000000" stroke-opacity="1" stroke-width="3.2"/>
<circle clip-path="url(#clip932)" cx="1762.2" cy="315.082" r="14" fill="#009af9" fill-rule="evenodd" fill-opacity="1" stroke="#000000" stroke-opacity="1" stroke-width="3.2"/>
<circle clip-path="url(#clip932)" cx="1828.44" cy="161.533" r="14" fill="#009af9" fill-rule="evenodd" fill-opacity="1" stroke="#000000" stroke-opacity="1" stroke-width="3.2"/>
<circle clip-path="url(#clip932)" cx="1662.83" cy="212.716" r="14" fill="#009af9" fill-rule="evenodd" fill-opacity="1" stroke="#000000" stroke-opacity="1" stroke-width="3.2"/>
<circle clip-path="url(#clip932)" cx="1662.83" cy="417.447" r="14" fill="#009af9" fill-rule="evenodd" fill-opacity="1" stroke="#000000" stroke-opacity="1" stroke-width="3.2"/>
<circle clip-path="url(#clip932)" cx="1927.81" cy="212.716" r="14" fill="#009af9" fill-rule="evenodd" fill-opacity="1" stroke="#000000" stroke-opacity="1" stroke-width="3.2"/>
<circle clip-path="url(#clip932)" cx="1861.56" cy="110.35" r="14" fill="#009af9" fill-rule="evenodd" fill-opacity="1" stroke="#000000" stroke-opacity="1" stroke-width="3.2"/>
<circle clip-path="url(#clip932)" cx="1695.96" cy="212.716" r="14" fill="#009af9" fill-rule="evenodd" fill-opacity="1" stroke="#000000" stroke-opacity="1" stroke-width="3.2"/>
<circle clip-path="url(#clip932)" cx="1629.71" cy="417.447" r="14" fill="#009af9" fill-rule="evenodd" fill-opacity="1" stroke="#000000" stroke-opacity="1" stroke-width="3.2"/>
<circle clip-path="url(#clip932)" cx="1695.96" cy="366.265" r="14" fill="#009af9" fill-rule="evenodd" fill-opacity="1" stroke="#000000" stroke-opacity="1" stroke-width="3.2"/>
<circle clip-path="url(#clip932)" cx="1762.2" cy="212.716" r="14" fill="#009af9" fill-rule="evenodd" fill-opacity="1" stroke="#000000" stroke-opacity="1" stroke-width="3.2"/>
<circle clip-path="url(#clip932)" cx="1662.83" cy="468.63" r="14" fill="#009af9" fill-rule="evenodd" fill-opacity="1" stroke="#000000" stroke-opacity="1" stroke-width="3.2"/>
<polyline clip-path="url(#clip932)" style="stroke:#000000; stroke-width:12; stroke-opacity:1; fill:none" points="
  271.729,1384.24 2292.14,86.1857 
  "/>
<path clip-path="url(#clip930)" d="
M282.504 214.069 L723.287 214.069 L723.287 93.1086 L282.504 93.1086  Z
  " fill="#ffffff" fill-rule="evenodd" fill-opacity="1"/>
<polyline clip-path="url(#clip930)" style="stroke:#000000; stroke-width:4; stroke-opacity:1; fill:none" points="
  282.504,214.069 723.287,214.069 723.287,93.1086 282.504,93.1086 282.504,214.069 
  "/>
<polyline clip-path="url(#clip930)" style="stroke:#000000; stroke-width:4; stroke-opacity:1; fill:none" points="
  306.3,153.589 449.076,153.589 
  "/>
<path clip-path="url(#clip930)" d="M 0 0 M477.548 140.151 L477.548 153.137 L483.428 153.137 Q486.692 153.137 488.474 151.447 Q490.256 149.758 490.256 146.633 Q490.256 143.531 488.474 141.841 Q486.692 140.151 483.428 140.151 L477.548 140.151 M472.872 136.309 L483.428 136.309 Q489.238 136.309 492.201 138.947 Q495.187 141.563 495.187 146.633 Q495.187 151.748 492.201 154.364 Q489.238 156.98 483.428 156.98 L477.548 156.98 L477.548 170.869 L472.872 170.869 L472.872 136.309 Z" fill="#000000" fill-rule="evenodd" fill-opacity="1" /><path clip-path="url(#clip930)" d="M 0 0 M513.844 148.924 Q513.127 148.508 512.27 148.322 Q511.437 148.114 510.418 148.114 Q506.807 148.114 504.863 150.475 Q502.942 152.813 502.942 157.211 L502.942 170.869 L498.659 170.869 L498.659 144.943 L502.942 144.943 L502.942 148.971 Q504.284 146.609 506.437 145.475 Q508.59 144.318 511.668 144.318 Q512.108 144.318 512.641 144.387 Q513.173 144.434 513.821 144.549 L513.844 148.924 Z" fill="#000000" fill-rule="evenodd" fill-opacity="1" /><path clip-path="url(#clip930)" d="M 0 0 M539.446 156.841 L539.446 158.924 L519.863 158.924 Q520.141 163.322 522.502 165.637 Q524.886 167.929 529.122 167.929 Q531.576 167.929 533.867 167.327 Q536.182 166.725 538.451 165.521 L538.451 169.549 Q536.159 170.521 533.752 171.031 Q531.344 171.54 528.867 171.54 Q522.664 171.54 519.029 167.929 Q515.418 164.318 515.418 158.16 Q515.418 151.795 518.844 148.068 Q522.293 144.318 528.127 144.318 Q533.358 144.318 536.39 147.697 Q539.446 151.054 539.446 156.841 M535.187 155.591 Q535.14 152.096 533.219 150.012 Q531.321 147.929 528.173 147.929 Q524.608 147.929 522.455 149.943 Q520.326 151.957 520.002 155.614 L535.187 155.591 Z" fill="#000000" fill-rule="evenodd" fill-opacity="1" /><path clip-path="url(#clip930)" d="M 0 0 M560.974 148.878 L560.974 134.85 L565.233 134.85 L565.233 170.869 L560.974 170.869 L560.974 166.98 Q559.631 169.295 557.571 170.429 Q555.534 171.54 552.664 171.54 Q547.964 171.54 545.002 167.79 Q542.062 164.04 542.062 157.929 Q542.062 151.818 545.002 148.068 Q547.964 144.318 552.664 144.318 Q555.534 144.318 557.571 145.452 Q559.631 146.563 560.974 148.878 M546.46 157.929 Q546.46 162.628 548.381 165.313 Q550.326 167.975 553.705 167.975 Q557.085 167.975 559.029 165.313 Q560.974 162.628 560.974 157.929 Q560.974 153.23 559.029 150.568 Q557.085 147.883 553.705 147.883 Q550.326 147.883 548.381 150.568 Q546.46 153.23 546.46 157.929 Z" fill="#000000" fill-rule="evenodd" fill-opacity="1" /><path clip-path="url(#clip930)" d="M 0 0 M569.7 144.943 L573.96 144.943 L573.96 170.869 L569.7 170.869 L569.7 144.943 M569.7 134.85 L573.96 134.85 L573.96 140.244 L569.7 140.244 L569.7 134.85 Z" fill="#000000" fill-rule="evenodd" fill-opacity="1" /><path clip-path="url(#clip930)" d="M 0 0 M597.085 145.938 L597.085 149.92 Q595.279 148.924 593.45 148.438 Q591.645 147.929 589.793 147.929 Q585.649 147.929 583.358 150.568 Q581.066 153.184 581.066 157.929 Q581.066 162.674 583.358 165.313 Q585.649 167.929 589.793 167.929 Q591.645 167.929 593.45 167.443 Q595.279 166.933 597.085 165.938 L597.085 169.873 Q595.302 170.707 593.381 171.123 Q591.483 171.54 589.33 171.54 Q583.474 171.54 580.024 167.859 Q576.575 164.179 576.575 157.929 Q576.575 151.586 580.048 147.952 Q583.543 144.318 589.608 144.318 Q591.575 144.318 593.45 144.735 Q595.325 145.128 597.085 145.938 Z" fill="#000000" fill-rule="evenodd" fill-opacity="1" /><path clip-path="url(#clip930)" d="M 0 0 M605.765 137.582 L605.765 144.943 L614.538 144.943 L614.538 148.253 L605.765 148.253 L605.765 162.327 Q605.765 165.498 606.622 166.401 Q607.501 167.304 610.163 167.304 L614.538 167.304 L614.538 170.869 L610.163 170.869 Q605.233 170.869 603.358 169.04 Q601.483 167.188 601.483 162.327 L601.483 148.253 L598.358 148.253 L598.358 144.943 L601.483 144.943 L601.483 137.582 L605.765 137.582 Z" fill="#000000" fill-rule="evenodd" fill-opacity="1" /><path clip-path="url(#clip930)" d="M 0 0 M619.006 144.943 L623.265 144.943 L623.265 170.869 L619.006 170.869 L619.006 144.943 M619.006 134.85 L623.265 134.85 L623.265 140.244 L619.006 140.244 L619.006 134.85 Z" fill="#000000" fill-rule="evenodd" fill-opacity="1" /><path clip-path="url(#clip930)" d="M 0 0 M637.779 147.929 Q634.353 147.929 632.362 150.614 Q630.371 153.276 630.371 157.929 Q630.371 162.582 632.339 165.267 Q634.33 167.929 637.779 167.929 Q641.182 167.929 643.172 165.244 Q645.163 162.558 645.163 157.929 Q645.163 153.322 643.172 150.637 Q641.182 147.929 637.779 147.929 M637.779 144.318 Q643.334 144.318 646.506 147.929 Q649.677 151.54 649.677 157.929 Q649.677 164.295 646.506 167.929 Q643.334 171.54 637.779 171.54 Q632.2 171.54 629.029 167.929 Q625.881 164.295 625.881 157.929 Q625.881 151.54 629.029 147.929 Q632.2 144.318 637.779 144.318 Z" fill="#000000" fill-rule="evenodd" fill-opacity="1" /><path clip-path="url(#clip930)" d="M 0 0 M675.695 155.221 L675.695 170.869 L671.436 170.869 L671.436 155.359 Q671.436 151.679 670.001 149.85 Q668.566 148.022 665.695 148.022 Q662.246 148.022 660.256 150.221 Q658.265 152.42 658.265 156.216 L658.265 170.869 L653.982 170.869 L653.982 144.943 L658.265 144.943 L658.265 148.971 Q659.793 146.633 661.853 145.475 Q663.936 144.318 666.644 144.318 Q671.112 144.318 673.404 147.096 Q675.695 149.85 675.695 155.221 Z" fill="#000000" fill-rule="evenodd" fill-opacity="1" /></svg>
