<?xml version="1.0" encoding="UTF-8" standalone="no"?>
<!DOCTYPE svg PUBLIC "-//W3C//DTD SVG 1.1//EN" "http://www.w3.org/Graphics/SVG/1.1/DTD/svg11.dtd">
<svg xmlns="http://www.w3.org/2000/svg" xmlns:xlink="http://www.w3.org/1999/xlink" version="1.1" width="372.887pt" height="260.849pt" viewBox="0 0 372.887 260.849">
<g enable-background="new">
<path transform="matrix(1,0,0,-1,142.601,15.882004)" d="M 16.92255 6.77985 L -16.92255 6.77985 C -19.12349 6.77985 -20.90765 4.99568 -20.90765 2.79474 L -20.90765 -2.79474 C -20.90765 -4.99568 -19.12349 -6.77985 -16.92255 -6.77985 L 16.92255 -6.77985 C 19.12349 -6.77985 20.90765 -4.99568 20.90765 -2.79474 L 20.90765 2.79474 C 20.90765 4.99568 19.12349 6.77985 16.92255 6.77985 Z M -20.90765 -6.77985 " fill="#b8dffa"/>
<path transform="matrix(1,0,0,-1,142.601,15.882004)" stroke-width="1.19553" stroke-linecap="butt" stroke-miterlimit="10" stroke-linejoin="miter" fill="none" stroke="#209cee" d="M 16.92255 6.77985 L -16.92255 6.77985 C -19.12349 6.77985 -20.90765 4.99568 -20.90765 2.79474 L -20.90765 -2.79474 C -20.90765 -4.99568 -19.12349 -6.77985 -16.92255 -6.77985 L 16.92255 -6.77985 C 19.12349 -6.77985 20.90765 -4.99568 20.90765 -2.79474 L 20.90765 2.79474 C 20.90765 4.99568 19.12349 6.77985 16.92255 6.77985 Z M -20.90765 -6.77985 "/>
<text xml:space="preserve" transform="matrix(1 0 -0 1 0 260.849)" font-size="9.9626" font-family="CMR10"><tspan y="-241.508" x="125.014 132.48595 138.02515 146.04505 151.86319 156.28659">Number</tspan></text>
<path transform="matrix(1,0,0,-1,142.601,15.882004)" d="M -31.24472 -42.06544 L -68.3831 -42.06544 C -70.58405 -42.06544 -72.36821 -43.84961 -72.36821 -46.05055 L -72.36821 -53.57727 C -72.36821 -55.77821 -70.58405 -57.56238 -68.3831 -57.56238 L -31.24472 -57.56238 C -29.04378 -57.56238 -27.25961 -55.77821 -27.25961 -53.57727 L -27.25961 -46.05055 C -27.25961 -43.84961 -29.04378 -42.06544 -31.24472 -42.06544 Z M -72.36821 -57.56238 " fill="#b8dffa"/>
<path transform="matrix(1,0,0,-1,142.601,15.882004)" stroke-width="1.19553" stroke-linecap="butt" stroke-miterlimit="10" stroke-linejoin="miter" fill="none" stroke="#209cee" d="M -31.24472 -42.06544 L -68.3831 -42.06544 C -70.58405 -42.06544 -72.36821 -43.84961 -72.36821 -46.05055 L -72.36821 -53.57727 C -72.36821 -55.77821 -70.58405 -57.56238 -68.3831 -57.56238 L -31.24472 -57.56238 C -29.04378 -57.56238 -27.25961 -55.77821 -27.25961 -53.57727 L -27.25961 -46.05055 C -27.25961 -43.84961 -29.04378 -42.06544 -31.24472 -42.06544 Z M -72.36821 -57.56238 "/>
<text xml:space="preserve" transform="matrix(1 0 -0 1 0 260.849)" font-size="9.9626" font-family="CMR10"><tspan y="-192.663" x="73.554 80.747 85.7283 94.027149 99.56635 102.33595 106.759349">Complex</tspan></text>
<path transform="matrix(1,0,0,-1,142.601,15.882004)" stroke-width=".3985" stroke-linecap="butt" stroke-miterlimit="10" stroke-linejoin="miter" fill="none" stroke="#000000" d="M -7.3759 -7.37761 L -41.47227 -41.4677 "/>
<path transform="matrix(1,0,0,-1,142.601,15.882004)" d="M 58.90459 -43.03406 L 40.72324 -43.03406 C 38.5223 -43.03406 36.73813 -44.81822 36.73813 -47.01917 L 36.73813 -52.60866 C 36.73813 -54.8096 38.5223 -56.59377 40.72324 -56.59377 L 58.90459 -56.59377 C 61.10553 -56.59377 62.8897 -54.8096 62.8897 -52.60866 L 62.8897 -47.01917 C 62.8897 -44.81822 61.10553 -43.03406 58.90459 -43.03406 Z M 36.73813 -56.59377 " fill="#b8dffa"/>
<path transform="matrix(1,0,0,-1,142.601,15.882004)" stroke-width="1.19553" stroke-linecap="butt" stroke-miterlimit="10" stroke-linejoin="miter" fill="none" stroke="#209cee" d="M 58.90459 -43.03406 L 40.72324 -43.03406 C 38.5223 -43.03406 36.73813 -44.81822 36.73813 -47.01917 L 36.73813 -52.60866 C 36.73813 -54.8096 38.5223 -56.59377 40.72324 -56.59377 L 58.90459 -56.59377 C 61.10553 -56.59377 62.8897 -54.8096 62.8897 -52.60866 L 62.8897 -47.01917 C 62.8897 -44.81822 61.10553 -43.03406 58.90459 -43.03406 Z M 36.73813 -56.59377 "/>
<text xml:space="preserve" transform="matrix(1 0 -0 1 0 260.849)" font-size="9.9626" font-family="CMR10"><tspan y="-191.695" x="182.659 189.99147 194.41487 199.39617">Real</tspan></text>
<path transform="matrix(1,0,0,-1,142.601,15.882004)" stroke-width=".3985" stroke-linecap="butt" stroke-miterlimit="10" stroke-linejoin="miter" fill="none" stroke="#000000" d="M 7.37546 -7.37761 L 42.44035 -42.4363 "/>
<path transform="matrix(1,0,0,-1,142.601,15.882004)" d="M -69.7398 -92.84798 L -129.51586 -92.84798 C -131.71678 -92.84798 -133.50096 -94.63214 -133.50096 -96.83308 L -133.50096 -102.42258 C -133.50096 -104.62352 -131.71678 -106.40768 -129.51586 -106.40768 L -69.7398 -106.40768 C -67.53886 -106.40768 -65.7547 -104.62352 -65.7547 -102.42258 L -65.7547 -96.83308 C -65.7547 -94.63214 -67.53886 -92.84798 -69.7398 -92.84798 Z M -133.50096 -106.40768 " fill="#b8dffa"/>
<path transform="matrix(1,0,0,-1,142.601,15.882004)" stroke-width="1.19553" stroke-linecap="butt" stroke-miterlimit="10" stroke-linejoin="miter" fill="none" stroke="#209cee" d="M -69.7398 -92.84798 L -129.51586 -92.84798 C -131.71678 -92.84798 -133.50096 -94.63214 -133.50096 -96.83308 L -133.50096 -102.42258 C -133.50096 -104.62352 -131.71678 -106.40768 -129.51586 -106.40768 L -69.7398 -106.40768 C -67.53886 -106.40768 -65.7547 -104.62352 -65.7547 -102.42258 L -65.7547 -96.83308 C -65.7547 -94.63214 -67.53886 -92.84798 -69.7398 -92.84798 Z M -133.50096 -106.40768 "/>
<text xml:space="preserve" transform="matrix(1 0 -0 1 -.000002861023 260.849)" font-size="9.9626" font-family="CMR10"><tspan y="-141.881" x="12.422 19.893952 25.433157 29.358422 33.23387 37.13921 42.12051 46.543905 50.419355 56.92493 59.694536 64.675838 69.657138">AbstractFloat</tspan></text>
<path transform="matrix(1,0,0,-1,142.601,15.882004)" stroke-width=".3985" stroke-linecap="butt" stroke-miterlimit="10" stroke-linejoin="miter" fill="none" stroke="#000000" d="M 36.14037 -54.36395 L -77.50716 -92.25021 "/>
<path transform="matrix(1,0,0,-1,142.601,15.882004)" d="M -81.33537 -124.72891 L -117.92026 -124.72891 C -120.1212 -124.72891 -121.90536 -126.51308 -121.90536 -128.71402 L -121.90536 -170.16948 C -121.90536 -172.37042 -120.1212 -174.15459 -117.92026 -174.15459 L -81.33537 -174.15459 C -79.13443 -174.15459 -77.35027 -172.37042 -77.35027 -170.16948 L -77.35027 -128.71402 C -77.35027 -126.51308 -79.13443 -124.72891 -81.33537 -124.72891 Z M -121.90536 -174.15459 " fill="#9beeb8"/>
<path transform="matrix(1,0,0,-1,142.601,15.882004)" stroke-width="1.19553" stroke-linecap="butt" stroke-miterlimit="10" stroke-linejoin="miter" fill="none" stroke="#22c35b" d="M -81.33537 -124.72891 L -117.92026 -124.72891 C -120.1212 -124.72891 -121.90536 -126.51308 -121.90536 -128.71402 L -121.90536 -170.16948 C -121.90536 -172.37042 -120.1212 -174.15459 -117.92026 -174.15459 L -81.33537 -174.15459 C -79.13443 -174.15459 -77.35027 -172.37042 -77.35027 -170.16948 L -77.35027 -128.71402 C -77.35027 -126.51308 -79.13443 -124.72891 -81.33537 -124.72891 Z M -121.90536 -174.15459 "/>
<text xml:space="preserve" transform="matrix(1 0 -0 1 -.0000019073487 260.849)" font-size="9.9626" font-family="CMR10"><tspan y="-110.001" x="24.018 31.07152 33.84112 38.822423 45.328 48.097604 53.078905 58.060205">BigFloat</tspan><tspan y="-98.046" x="26.439 32.944578 35.71418 40.69548 45.67678 49.55223 54.53353">Float64</tspan><tspan y="-86.09" x="26.439 32.944578 35.71418 40.69548 45.67678 49.55223 54.53353">Float32</tspan><tspan y="-74.134998" x="26.439 32.944578 35.71418 40.69548 45.67678 49.55223 54.53353">Float16</tspan></text>
<path transform="matrix(1,0,0,-1,142.601,15.882004)" stroke-width=".3985" stroke-linecap="butt" stroke-miterlimit="10" stroke-linejoin="miter" fill="none" stroke="#000000" d="M -99.62782 -107.00545 L -99.6278 -124.13115 "/>
<path transform="matrix(1,0,0,-1,142.601,15.882004)" d="M 38.97905 -92.84798 L -38.97905 -92.84798 C -41.18 -92.84798 -42.96416 -94.63214 -42.96416 -96.83308 L -42.96416 -102.42258 C -42.96416 -104.62352 -41.18 -106.40768 -38.97905 -106.40768 L 38.97905 -106.40768 C 41.18 -106.40768 42.96416 -104.62352 42.96416 -102.42258 L 42.96416 -96.83308 C 42.96416 -94.63214 41.18 -92.84798 38.97905 -92.84798 Z M -42.96416 -106.40768 " fill="#b8dffa"/>
<path transform="matrix(1,0,0,-1,142.601,15.882004)" stroke-width="1.19553" stroke-linecap="butt" stroke-miterlimit="10" stroke-linejoin="miter" fill="none" stroke="#209cee" d="M 38.97905 -92.84798 L -38.97905 -92.84798 C -41.18 -92.84798 -42.96416 -94.63214 -42.96416 -96.83308 L -42.96416 -102.42258 C -42.96416 -104.62352 -41.18 -106.40768 -38.97905 -106.40768 L 38.97905 -106.40768 C 41.18 -106.40768 42.96416 -104.62352 42.96416 -102.42258 L 42.96416 -96.83308 C 42.96416 -94.63214 41.18 -92.84798 38.97905 -92.84798 Z M -42.96416 -106.40768 "/>
<text xml:space="preserve" transform="matrix(1 0 -0 1 -.0000076293949 260.849)" font-size="9.9626" font-family="CMR10"><tspan y="-141.881" x="102.958 110.42995 115.969158 119.89442 123.76987 127.67521 132.65651 137.07991 140.95537 144.55187 148.4572 152.36254 157.34383 161.21929 163.98889 168.97019 174.50939 179.49068">AbstractIrrational</tspan></text>
<path transform="matrix(1,0,0,-1,142.601,15.882004)" stroke-width=".3985" stroke-linecap="butt" stroke-miterlimit="10" stroke-linejoin="miter" fill="none" stroke="#000000" d="M 42.43845 -57.19153 L 7.37355 -92.25021 "/>
<path transform="matrix(1,0,0,-1,142.601,15.882004)" d="M 19.98059 -142.6619 L -19.98056 -142.6619 C -22.1815 -142.6619 -23.96567 -144.44606 -23.96567 -146.647 L -23.96567 -152.2365 C -23.96567 -154.43744 -22.1815 -156.2216 -19.98056 -156.2216 L 19.98059 -156.2216 C 22.18153 -156.2216 23.9657 -154.43744 23.9657 -152.2365 L 23.9657 -146.647 C 23.9657 -144.44606 22.18153 -142.6619 19.98059 -142.6619 Z M -23.96567 -156.2216 " fill="#9beeb8"/>
<path transform="matrix(1,0,0,-1,142.601,15.882004)" stroke-width="1.19553" stroke-linecap="butt" stroke-miterlimit="10" stroke-linejoin="miter" fill="none" stroke="#22c35b" d="M 19.98059 -142.6619 L -19.98056 -142.6619 C -22.1815 -142.6619 -23.96567 -144.44606 -23.96567 -146.647 L -23.96567 -152.2365 C -23.96567 -154.43744 -22.1815 -156.2216 -19.98056 -156.2216 L 19.98059 -156.2216 C 22.18153 -156.2216 23.9657 -154.43744 23.9657 -152.2365 L 23.9657 -146.647 C 23.9657 -144.44606 22.18153 -142.6619 19.98059 -142.6619 Z M -23.96567 -156.2216 "/>
<text xml:space="preserve" transform="matrix(1 0 -0 1 -.0000076293949 260.849)" font-size="9.9626" font-family="CMR10"><tspan y="-92.068" x="121.956 125.5525 129.45784 133.36318 138.34447 142.21993 144.98954 149.97083 155.51003 160.49132">Irrational</tspan></text>
<path transform="matrix(1,0,0,-1,142.601,15.882004)" stroke-width=".3985" stroke-linecap="butt" stroke-miterlimit="10" stroke-linejoin="miter" fill="none" stroke="#000000" d="M 0 -107.00545 L 0 -142.06414 "/>
<path transform="matrix(1,0,0,-1,142.601,15.882004)" d="M 114.19804 -91.93474 L 85.05762 -91.93474 C 82.85667 -91.93474 81.07251 -93.7189 81.07251 -95.91985 L 81.07251 -103.33582 C 81.07251 -105.53676 82.85667 -107.32092 85.05762 -107.32092 L 114.19804 -107.32092 C 116.39899 -107.32092 118.18315 -105.53676 118.18315 -103.33582 L 118.18315 -95.91985 C 118.18315 -93.7189 116.39899 -91.93474 114.19804 -91.93474 Z M 81.07251 -107.32092 " fill="#b8dffa"/>
<path transform="matrix(1,0,0,-1,142.601,15.882004)" stroke-width="1.19553" stroke-linecap="butt" stroke-miterlimit="10" stroke-linejoin="miter" fill="none" stroke="#209cee" d="M 114.19804 -91.93474 L 85.05762 -91.93474 C 82.85667 -91.93474 81.07251 -93.7189 81.07251 -95.91985 L 81.07251 -103.33582 C 81.07251 -105.53676 82.85667 -107.32092 85.05762 -107.32092 L 114.19804 -107.32092 C 116.39899 -107.32092 118.18315 -105.53676 118.18315 -103.33582 L 118.18315 -95.91985 C 118.18315 -93.7189 116.39899 -91.93474 114.19804 -91.93474 Z M 81.07251 -107.32092 "/>
<text xml:space="preserve" transform="matrix(1 0 -0 1 0 260.849)" font-size="9.9626" font-family="CMR10"><tspan y="-142.905" x="226.993 230.5895 235.84975 239.7252 244.1486 249.1299 253.5533">Integer</tspan></text>
<path transform="matrix(1,0,0,-1,142.601,15.882004)" stroke-width=".3985" stroke-linecap="butt" stroke-miterlimit="10" stroke-linejoin="miter" fill="none" stroke="#000000" d="M 57.19028 -57.19153 L 91.34154 -91.33698 "/>
<path transform="matrix(1,0,0,-1,142.601,15.882004)" d="M 59.18138 -142.6619 L 40.4465 -142.6619 C 38.24556 -142.6619 36.4614 -144.44606 36.4614 -146.647 L 36.4614 -152.2365 C 36.4614 -154.43744 38.24556 -156.2216 40.4465 -156.2216 L 59.18138 -156.2216 C 61.38232 -156.2216 63.16649 -154.43744 63.16649 -152.2365 L 63.16649 -146.647 C 63.16649 -144.44606 61.38232 -142.6619 59.18138 -142.6619 Z M 36.4614 -156.2216 " fill="#9beeb8"/>
<path transform="matrix(1,0,0,-1,142.601,15.882004)" stroke-width="1.19553" stroke-linecap="butt" stroke-miterlimit="10" stroke-linejoin="miter" fill="none" stroke="#22c35b" d="M 59.18138 -142.6619 L 40.4465 -142.6619 C 38.24556 -142.6619 36.4614 -144.44606 36.4614 -146.647 L 36.4614 -152.2365 C 36.4614 -154.43744 38.24556 -156.2216 40.4465 -156.2216 L 59.18138 -156.2216 C 61.38232 -156.2216 63.16649 -154.43744 63.16649 -152.2365 L 63.16649 -146.647 C 63.16649 -144.44606 61.38232 -142.6619 59.18138 -142.6619 Z M 36.4614 -156.2216 "/>
<text xml:space="preserve" transform="matrix(1 0 -0 1 -.000015258789 260.849)" font-size="9.9626" font-family="CMR10"><tspan y="-92.068" x="182.382 189.43553 194.69577 199.67707">Bool</tspan></text>
<path transform="matrix(1,0,0,-1,142.601,15.882004)" stroke-width=".3985" stroke-linecap="butt" stroke-miterlimit="10" stroke-linejoin="miter" fill="none" stroke="#000000" d="M 91.33939 -107.91869 L 57.1875 -142.06414 "/>
<path transform="matrix(1,0,0,-1,142.601,15.882004)" d="M 113.35402 -141.69329 L 85.9017 -141.69329 C 83.70076 -141.69329 81.9166 -143.47745 81.9166 -145.67839 L 81.9166 -153.20511 C 81.9166 -155.40605 83.70076 -157.19022 85.9017 -157.19022 L 113.35402 -157.19022 C 115.55496 -157.19022 117.33913 -155.40605 117.33913 -153.20511 L 117.33913 -145.67839 C 117.33913 -143.47745 115.55496 -141.69329 113.35402 -141.69329 Z M 81.9166 -157.19022 " fill="#b8dffa"/>
<path transform="matrix(1,0,0,-1,142.601,15.882004)" stroke-width="1.19553" stroke-linecap="butt" stroke-miterlimit="10" stroke-linejoin="miter" fill="none" stroke="#209cee" d="M 113.35402 -141.69329 L 85.9017 -141.69329 C 83.70076 -141.69329 81.9166 -143.47745 81.9166 -145.67839 L 81.9166 -153.20511 C 81.9166 -155.40605 83.70076 -157.19022 85.9017 -157.19022 L 113.35402 -157.19022 C 115.55496 -157.19022 117.33913 -155.40605 117.33913 -153.20511 L 117.33913 -145.67839 C 117.33913 -143.47745 115.55496 -141.69329 113.35402 -141.69329 Z M 81.9166 -157.19022 "/>
<text xml:space="preserve" transform="matrix(1 0 -0 1 0 260.849)" font-size="9.9626" font-family="CMR10"><tspan y="-93.037" x="227.837 233.3762 236.14582 241.1271 246.6663 251.0897">Signed</tspan></text>
<path transform="matrix(1,0,0,-1,142.601,15.882004)" stroke-width=".3985" stroke-linecap="butt" stroke-miterlimit="10" stroke-linejoin="miter" fill="none" stroke="#000000" d="M 99.62782 -107.91869 L 99.62785 -141.09554 "/>
<path transform="matrix(1,0,0,-1,142.601,15.882004)" d="M 112.80054 -162.64286 L 86.45522 -162.64286 C 84.25427 -162.64286 82.47011 -164.42702 82.47011 -166.62796 L 82.47011 -231.88338 C 82.47011 -234.0843 84.25427 -235.86849 86.45522 -235.86849 L 112.80054 -235.86849 C 115.00148 -235.86849 116.78564 -234.0843 116.78564 -231.88338 L 116.78564 -166.62796 C 116.78564 -164.42702 115.00148 -162.64286 112.80054 -162.64286 Z M 82.47011 -235.86849 " fill="#9beeb8"/>
<path transform="matrix(1,0,0,-1,142.601,15.882004)" stroke-width="1.19553" stroke-linecap="butt" stroke-miterlimit="10" stroke-linejoin="miter" fill="none" stroke="#22c35b" d="M 112.80054 -162.64286 L 86.45522 -162.64286 C 84.25427 -162.64286 82.47011 -164.42702 82.47011 -166.62796 L 82.47011 -231.88338 C 82.47011 -234.0843 84.25427 -235.86849 86.45522 -235.86849 L 112.80054 -235.86849 C 115.00148 -235.86849 116.78564 -234.0843 116.78564 -231.88338 L 116.78564 -166.62796 C 116.78564 -164.42702 115.00148 -162.64286 112.80054 -162.64286 Z M 82.47011 -235.86849 "/>
<text xml:space="preserve" transform="matrix(1 0 -0 1 0 260.849)" font-size="9.9626" font-family="CMR10"><tspan y="-72.198" x="228.46 235.51354 238.28314 243.26444 246.86093 252.12119">BigInt</tspan><tspan y="-60.242998" x="228.39 231.9865 237.24675 241.12221 246.1035 251.0848">Int128</tspan><tspan y="-48.287996" x="230.881 234.4775 239.73775 243.6132 248.5945">Int64</tspan><tspan y="-36.331995" x="230.881 234.4775 239.73775 243.6132 248.5945">Int32</tspan><tspan y="-24.376994" x="230.881 234.4775 239.73775 243.6132 248.5945">Int16</tspan><tspan y="-12.421993" x="233.372 236.96849 242.22875 246.1042">Int8</tspan></text>
<path transform="matrix(1,0,0,-1,142.601,15.882004)" stroke-width=".3985" stroke-linecap="butt" stroke-miterlimit="10" stroke-linejoin="miter" fill="none" stroke="#000000" d="M 99.62785 -157.78797 L 99.62787 -162.0451 "/>
<path transform="matrix(1,0,0,-1,142.601,15.882004)" d="M 168.86887 -141.69329 L 130.0147 -141.69329 C 127.81375 -141.69329 126.02959 -143.47745 126.02959 -145.67839 L 126.02959 -153.20511 C 126.02959 -155.40605 127.81375 -157.19022 130.0147 -157.19022 L 168.86887 -157.19022 C 171.0698 -157.19022 172.85398 -155.40605 172.85398 -153.20511 L 172.85398 -145.67839 C 172.85398 -143.47745 171.0698 -141.69329 168.86887 -141.69329 Z M 126.02959 -157.19022 " fill="#b8dffa"/>
<path transform="matrix(1,0,0,-1,142.601,15.882004)" stroke-width="1.19553" stroke-linecap="butt" stroke-miterlimit="10" stroke-linejoin="miter" fill="none" stroke="#209cee" d="M 168.86887 -141.69329 L 130.0147 -141.69329 C 127.81375 -141.69329 126.02959 -143.47745 126.02959 -145.67839 L 126.02959 -153.20511 C 126.02959 -155.40605 127.81375 -157.19022 130.0147 -157.19022 L 168.86887 -157.19022 C 171.0698 -157.19022 172.85398 -155.40605 172.85398 -153.20511 L 172.85398 -145.67839 C 172.85398 -143.47745 171.0698 -141.69329 168.86887 -141.69329 Z M 126.02959 -157.19022 "/>
<text xml:space="preserve" transform="matrix(1 0 -0 1 0 260.849)" font-size="9.9626" font-family="CMR10"><tspan y="-93.037" x="271.949 279.42097 284.96018 288.88545 291.65504 296.63633 302.17555 306.59895">Unsigned</tspan></text>
<path transform="matrix(1,0,0,-1,142.601,15.882004)" stroke-width=".3985" stroke-linecap="butt" stroke-miterlimit="10" stroke-linejoin="miter" fill="none" stroke="#000000" d="M 107.91678 -107.91869 L 141.10015 -141.09554 "/>
<path transform="matrix(1,0,0,-1,142.601,15.882004)" d="M 166.35051 -168.62052 L 132.53308 -168.62052 C 130.33214 -168.62052 128.54798 -170.40468 128.54798 -172.60562 L 128.54798 -225.90572 C 128.54798 -228.10665 130.33214 -229.89083 132.53308 -229.89083 L 166.35051 -229.89083 C 168.55146 -229.89083 170.33562 -228.10665 170.33562 -225.90572 L 170.33562 -172.60562 C 170.33562 -170.40468 168.55146 -168.62052 166.35051 -168.62052 Z M 128.54798 -229.89083 " fill="#9beeb8"/>
<path transform="matrix(1,0,0,-1,142.601,15.882004)" stroke-width="1.19553" stroke-linecap="butt" stroke-miterlimit="10" stroke-linejoin="miter" fill="none" stroke="#22c35b" d="M 166.35051 -168.62052 L 132.53308 -168.62052 C 130.33214 -168.62052 128.54798 -170.40468 128.54798 -172.60562 L 128.54798 -225.90572 C 128.54798 -228.10665 130.33214 -229.89083 132.53308 -229.89083 L 166.35051 -229.89083 C 168.55146 -229.89083 170.33562 -228.10665 170.33562 -225.90572 L 170.33562 -172.60562 C 170.33562 -170.40468 168.55146 -168.62052 166.35051 -168.62052 Z M 128.54798 -229.89083 "/>
<text xml:space="preserve" transform="matrix(1 0 -0 1 .000030517579 260.849)" font-size="9.9626" font-family="CMR10"><tspan y="-66.22" x="274.468 281.93995 285.53645 290.7967 294.67216 299.65345 304.63475">UInt128</tspan><tspan y="-54.265" x="276.95799 284.42994 288.02644 293.28669 297.16215 302.14344">UInt64</tspan><tspan y="-42.309999" x="276.95799 284.42994 288.02644 293.28669 297.16215 302.14344">UInt32</tspan><tspan y="-30.354998" x="276.95799 284.42994 288.02644 293.28669 297.16215 302.14344">UInt16</tspan><tspan y="-18.399998" x="279.44898 286.92094 290.51744 295.77769 299.65315">UInt8</tspan></text>
<path transform="matrix(1,0,0,-1,142.601,15.882004)" stroke-width=".3985" stroke-linecap="butt" stroke-miterlimit="10" stroke-linejoin="miter" fill="none" stroke="#000000" d="M 149.44178 -157.78797 L 149.44179 -168.02277 "/>
<path transform="matrix(1,0,0,-1,142.601,15.882004)" d="M 217.20218 -92.84798 L 181.30916 -92.84798 C 179.10822 -92.84798 177.32405 -94.63214 177.32405 -96.83308 L 177.32405 -102.42258 C 177.32405 -104.62352 179.10822 -106.40768 181.30916 -106.40768 L 217.20218 -106.40768 C 219.40312 -106.40768 221.18729 -104.62352 221.18729 -102.42258 L 221.18729 -96.83308 C 221.18729 -94.63214 219.40312 -92.84798 217.20218 -92.84798 Z M 177.32405 -106.40768 " fill="#9beeb8"/>
<path transform="matrix(1,0,0,-1,142.601,15.882004)" stroke-width="1.19553" stroke-linecap="butt" stroke-miterlimit="10" stroke-linejoin="miter" fill="none" stroke="#22c35b" d="M 217.20218 -92.84798 L 181.30916 -92.84798 C 179.10822 -92.84798 177.32405 -94.63214 177.32405 -96.83308 L 177.32405 -102.42258 C 177.32405 -104.62352 179.10822 -106.40768 181.30916 -106.40768 L 217.20218 -106.40768 C 219.40312 -106.40768 221.18729 -104.62352 221.18729 -102.42258 L 221.18729 -96.83308 C 221.18729 -94.63214 219.40312 -92.84798 217.20218 -92.84798 Z M 177.32405 -106.40768 "/>
<text xml:space="preserve" transform="matrix(1 0 -0 1 -.000030517579 260.849)" font-size="9.9626" font-family="CMR10"><tspan y="-141.881" x="323.243 330.5755 335.5568 339.43226 342.20185 347.18315 352.72236 357.70365">Rational</tspan></text>
<path transform="matrix(1,0,0,-1,142.601,15.882004)" stroke-width=".3985" stroke-linecap="butt" stroke-miterlimit="10" stroke-linejoin="miter" fill="none" stroke="#000000" d="M 63.48746 -54.36395 L 177.135 -92.25021 "/>
</g>
</svg>
